<svg xmlns="http://www.w3.org/2000/svg" xmlns:xlink="http://www.w3.org/1999/xlink" width="1500" zoomAndPan="magnify" viewBox="0 0 1125 1124.99995" height="1500" preserveAspectRatio="xMidYMid meet" version="1.0"><defs><clipPath id="a5b26458e5"><path d="M 1053 146 L 1083.90625 146 L 1083.90625 999 L 1053 999 Z M 1053 146 " clip-rule="nonzero"/></clipPath><clipPath id="7a19706b62"><path d="M 40.65625 92.375 L 40.65625 1052.0625 C 40.65625 1075.257812 59.460938 1094.0625 82.65625 1094.0625 L 1042.34375 1094.0625 C 1065.539062 1094.0625 1084.34375 1075.257812 1084.34375 1052.0625 L 1084.34375 92.375 C 1084.34375 69.179688 1065.539062 50.375 1042.34375 50.375 L 82.65625 50.375 C 59.460938 50.375 40.65625 69.179688 40.65625 92.375 Z M 40.65625 92.375 " clip-rule="nonzero"/></clipPath><clipPath id="9f49a1de15"><path d="M 83.558594 51.277344 L 1041.441406 51.277344 C 1064.636719 51.277344 1083.441406 70.082031 1083.441406 93.277344 L 1083.441406 1051.160156 C 1083.441406 1074.355469 1064.636719 1093.160156 1041.441406 1093.160156 L 83.558594 1093.160156 C 60.363281 1093.160156 41.558594 1074.355469 41.558594 1051.160156 L 41.558594 93.277344 C 41.558594 70.082031 60.363281 51.277344 83.558594 51.277344 Z M 83.558594 51.277344 " clip-rule="nonzero"/></clipPath><clipPath id="e6420e340d"><path d="M 41.40625 146 L 72 146 L 72 999 L 41.40625 999 Z M 41.40625 146 " clip-rule="nonzero"/></clipPath><clipPath id="fbd1eaf4e2"><path d="M 40.65625 92.375 L 40.65625 1052.0625 C 40.65625 1075.257812 59.460938 1094.0625 82.65625 1094.0625 L 1042.34375 1094.0625 C 1065.539062 1094.0625 1084.34375 1075.257812 1084.34375 1052.0625 L 1084.34375 92.375 C 1084.34375 69.179688 1065.539062 50.375 1042.34375 50.375 L 82.65625 50.375 C 59.460938 50.375 40.65625 69.179688 40.65625 92.375 Z M 40.65625 92.375 " clip-rule="nonzero"/></clipPath><clipPath id="33b32800eb"><path d="M 83.558594 51.277344 L 1041.441406 51.277344 C 1064.636719 51.277344 1083.441406 70.082031 1083.441406 93.277344 L 1083.441406 1051.160156 C 1083.441406 1074.355469 1064.636719 1093.160156 1041.441406 1093.160156 L 83.558594 1093.160156 C 60.363281 1093.160156 41.558594 1074.355469 41.558594 1051.160156 L 41.558594 93.277344 C 41.558594 70.082031 60.363281 51.277344 83.558594 51.277344 Z M 83.558594 51.277344 " clip-rule="nonzero"/></clipPath><clipPath id="d61ae22815"><path d="M 136 51.125 L 989 51.125 L 989 82 L 136 82 Z M 136 51.125 " clip-rule="nonzero"/></clipPath><clipPath id="5cb32a34a3"><path d="M 40.65625 92.375 L 40.65625 1052.0625 C 40.65625 1075.257812 59.460938 1094.0625 82.65625 1094.0625 L 1042.34375 1094.0625 C 1065.539062 1094.0625 1084.34375 1075.257812 1084.34375 1052.0625 L 1084.34375 92.375 C 1084.34375 69.179688 1065.539062 50.375 1042.34375 50.375 L 82.65625 50.375 C 59.460938 50.375 40.65625 69.179688 40.65625 92.375 Z M 40.65625 92.375 " clip-rule="nonzero"/></clipPath><clipPath id="2eb07488c0"><path d="M 83.558594 51.277344 L 1041.441406 51.277344 C 1064.636719 51.277344 1083.441406 70.082031 1083.441406 93.277344 L 1083.441406 1051.160156 C 1083.441406 1074.355469 1064.636719 1093.160156 1041.441406 1093.160156 L 83.558594 1093.160156 C 60.363281 1093.160156 41.558594 1074.355469 41.558594 1051.160156 L 41.558594 93.277344 C 41.558594 70.082031 60.363281 51.277344 83.558594 51.277344 Z M 83.558594 51.277344 " clip-rule="nonzero"/></clipPath><clipPath id="18999746af"><path d="M 136 1062 L 989 1062 L 989 1093.625 L 136 1093.625 Z M 136 1062 " clip-rule="nonzero"/></clipPath><clipPath id="235875abd6"><path d="M 40.65625 92.375 L 40.65625 1052.0625 C 40.65625 1075.257812 59.460938 1094.0625 82.65625 1094.0625 L 1042.34375 1094.0625 C 1065.539062 1094.0625 1084.34375 1075.257812 1084.34375 1052.0625 L 1084.34375 92.375 C 1084.34375 69.179688 1065.539062 50.375 1042.34375 50.375 L 82.65625 50.375 C 59.460938 50.375 40.65625 69.179688 40.65625 92.375 Z M 40.65625 92.375 " clip-rule="nonzero"/></clipPath><clipPath id="d18fa57385"><path d="M 83.558594 51.277344 L 1041.441406 51.277344 C 1064.636719 51.277344 1083.441406 70.082031 1083.441406 93.277344 L 1083.441406 1051.160156 C 1083.441406 1074.355469 1064.636719 1093.160156 1041.441406 1093.160156 L 83.558594 1093.160156 C 60.363281 1093.160156 41.558594 1074.355469 41.558594 1051.160156 L 41.558594 93.277344 C 41.558594 70.082031 60.363281 51.277344 83.558594 51.277344 Z M 83.558594 51.277344 " clip-rule="nonzero"/></clipPath><clipPath id="640f90e302"><path d="M 988 51.125 L 1083.90625 51.125 L 1083.90625 147 L 988 147 Z M 988 51.125 " clip-rule="nonzero"/></clipPath><clipPath id="fb6398e5a0"><path d="M 40.65625 92.375 L 40.65625 1052.0625 C 40.65625 1075.257812 59.460938 1094.0625 82.65625 1094.0625 L 1042.34375 1094.0625 C 1065.539062 1094.0625 1084.34375 1075.257812 1084.34375 1052.0625 L 1084.34375 92.375 C 1084.34375 69.179688 1065.539062 50.375 1042.34375 50.375 L 82.65625 50.375 C 59.460938 50.375 40.65625 69.179688 40.65625 92.375 Z M 40.65625 92.375 " clip-rule="nonzero"/></clipPath><clipPath id="3f920d8afd"><path d="M 83.558594 51.277344 L 1041.441406 51.277344 C 1064.636719 51.277344 1083.441406 70.082031 1083.441406 93.277344 L 1083.441406 1051.160156 C 1083.441406 1074.355469 1064.636719 1093.160156 1041.441406 1093.160156 L 83.558594 1093.160156 C 60.363281 1093.160156 41.558594 1074.355469 41.558594 1051.160156 L 41.558594 93.277344 C 41.558594 70.082031 60.363281 51.277344 83.558594 51.277344 Z M 83.558594 51.277344 " clip-rule="nonzero"/></clipPath><clipPath id="ec4201c9da"><path d="M 41.40625 51.125 L 137 51.125 L 137 147 L 41.40625 147 Z M 41.40625 51.125 " clip-rule="nonzero"/></clipPath><clipPath id="623d3997f5"><path d="M 40.65625 92.375 L 40.65625 1052.0625 C 40.65625 1075.257812 59.460938 1094.0625 82.65625 1094.0625 L 1042.34375 1094.0625 C 1065.539062 1094.0625 1084.34375 1075.257812 1084.34375 1052.0625 L 1084.34375 92.375 C 1084.34375 69.179688 1065.539062 50.375 1042.34375 50.375 L 82.65625 50.375 C 59.460938 50.375 40.65625 69.179688 40.65625 92.375 Z M 40.65625 92.375 " clip-rule="nonzero"/></clipPath><clipPath id="1c19ba40f4"><path d="M 83.558594 51.277344 L 1041.441406 51.277344 C 1064.636719 51.277344 1083.441406 70.082031 1083.441406 93.277344 L 1083.441406 1051.160156 C 1083.441406 1074.355469 1064.636719 1093.160156 1041.441406 1093.160156 L 83.558594 1093.160156 C 60.363281 1093.160156 41.558594 1074.355469 41.558594 1051.160156 L 41.558594 93.277344 C 41.558594 70.082031 60.363281 51.277344 83.558594 51.277344 Z M 83.558594 51.277344 " clip-rule="nonzero"/></clipPath><clipPath id="e3983b0596"><path d="M 988 998 L 1083.90625 998 L 1083.90625 1093.625 L 988 1093.625 Z M 988 998 " clip-rule="nonzero"/></clipPath><clipPath id="0959803ed8"><path d="M 40.65625 92.375 L 40.65625 1052.0625 C 40.65625 1075.257812 59.460938 1094.0625 82.65625 1094.0625 L 1042.34375 1094.0625 C 1065.539062 1094.0625 1084.34375 1075.257812 1084.34375 1052.0625 L 1084.34375 92.375 C 1084.34375 69.179688 1065.539062 50.375 1042.34375 50.375 L 82.65625 50.375 C 59.460938 50.375 40.65625 69.179688 40.65625 92.375 Z M 40.65625 92.375 " clip-rule="nonzero"/></clipPath><clipPath id="d9280770dc"><path d="M 83.558594 51.277344 L 1041.441406 51.277344 C 1064.636719 51.277344 1083.441406 70.082031 1083.441406 93.277344 L 1083.441406 1051.160156 C 1083.441406 1074.355469 1064.636719 1093.160156 1041.441406 1093.160156 L 83.558594 1093.160156 C 60.363281 1093.160156 41.558594 1074.355469 41.558594 1051.160156 L 41.558594 93.277344 C 41.558594 70.082031 60.363281 51.277344 83.558594 51.277344 Z M 83.558594 51.277344 " clip-rule="nonzero"/></clipPath><clipPath id="21cbe96add"><path d="M 41.40625 998 L 137 998 L 137 1093.625 L 41.40625 1093.625 Z M 41.40625 998 " clip-rule="nonzero"/></clipPath><clipPath id="818a14dae9"><path d="M 40.65625 92.375 L 40.65625 1052.0625 C 40.65625 1075.257812 59.460938 1094.0625 82.65625 1094.0625 L 1042.34375 1094.0625 C 1065.539062 1094.0625 1084.34375 1075.257812 1084.34375 1052.0625 L 1084.34375 92.375 C 1084.34375 69.179688 1065.539062 50.375 1042.34375 50.375 L 82.65625 50.375 C 59.460938 50.375 40.65625 69.179688 40.65625 92.375 Z M 40.65625 92.375 " clip-rule="nonzero"/></clipPath><clipPath id="56018dda1d"><path d="M 83.558594 51.277344 L 1041.441406 51.277344 C 1064.636719 51.277344 1083.441406 70.082031 1083.441406 93.277344 L 1083.441406 1051.160156 C 1083.441406 1074.355469 1064.636719 1093.160156 1041.441406 1093.160156 L 83.558594 1093.160156 C 60.363281 1093.160156 41.558594 1074.355469 41.558594 1051.160156 L 41.558594 93.277344 C 41.558594 70.082031 60.363281 51.277344 83.558594 51.277344 Z M 83.558594 51.277344 " clip-rule="nonzero"/></clipPath><clipPath id="028bb3a1c8"><path d="M 40.65625 50.375 L 1084.65625 50.375 L 1084.65625 1094.375 L 40.65625 1094.375 Z M 40.65625 50.375 " clip-rule="nonzero"/></clipPath><clipPath id="53c130ba91"><path d="M 40.65625 92.375 L 40.65625 1052.0625 C 40.65625 1075.257812 59.460938 1094.0625 82.65625 1094.0625 L 1042.34375 1094.0625 C 1065.539062 1094.0625 1084.34375 1075.257812 1084.34375 1052.0625 L 1084.34375 92.375 C 1084.34375 69.179688 1065.539062 50.375 1042.34375 50.375 L 82.65625 50.375 C 59.460938 50.375 40.65625 69.179688 40.65625 92.375 Z M 40.65625 92.375 " clip-rule="nonzero"/></clipPath><clipPath id="0dad5579f6"><path d="M 40.65625 92.375 L 40.65625 1052.058594 C 40.65625 1075.253906 59.460938 1094.058594 82.65625 1094.058594 L 1042.339844 1094.058594 C 1065.535156 1094.058594 1084.339844 1075.253906 1084.339844 1052.058594 L 1084.339844 92.375 C 1084.339844 69.179688 1065.535156 50.375 1042.339844 50.375 L 82.65625 50.375 C 59.460938 50.375 40.65625 69.179688 40.65625 92.375 Z M 40.65625 92.375 " clip-rule="nonzero"/></clipPath><clipPath id="0d97c561af"><path d="M 216.5625 190.492188 L 908.8125 190.492188 L 908.8125 953.992188 L 216.5625 953.992188 Z M 216.5625 190.492188 " clip-rule="nonzero"/></clipPath></defs><g clip-path="url(#a5b26458e5)"><g clip-path="url(#7a19706b62)"><g clip-path="url(#9f49a1de15)"><path fill="#fc6a1f" d="M 1053.15625 146.011719 L 1084.339844 146.011719 L 1084.339844 998.421875 L 1053.15625 998.421875 Z M 1053.15625 146.011719 " fill-opacity="1" fill-rule="nonzero"/></g></g></g><g clip-path="url(#e6420e340d)"><g clip-path="url(#fbd1eaf4e2)"><g clip-path="url(#33b32800eb)"><path fill="#fc6a1f" d="M 40.65625 146.011719 L 71.84375 146.011719 L 71.84375 998.421875 L 40.65625 998.421875 Z M 40.65625 146.011719 " fill-opacity="1" fill-rule="nonzero"/></g></g></g><g clip-path="url(#d61ae22815)"><g clip-path="url(#5cb32a34a3)"><g clip-path="url(#2eb07488c0)"><path fill="#fc6a1f" d="M 136.292969 50.375 L 988.703125 50.375 L 988.703125 81.5625 L 136.292969 81.5625 Z M 136.292969 50.375 " fill-opacity="1" fill-rule="nonzero"/></g></g></g><g clip-path="url(#18999746af)"><g clip-path="url(#235875abd6)"><g clip-path="url(#d18fa57385)"><path fill="#fc6a1f" d="M 136.292969 1062.875 L 988.703125 1062.875 L 988.703125 1094.058594 L 136.292969 1094.058594 Z M 136.292969 1062.875 " fill-opacity="1" fill-rule="nonzero"/></g></g></g><g clip-path="url(#640f90e302)"><g clip-path="url(#fb6398e5a0)"><g clip-path="url(#3f920d8afd)"><path fill="#fc6a1f" d="M 1053.15625 81.5625 L 1053.15625 146.011719 L 1084.339844 146.011719 L 1084.339844 50.375 L 988.703125 50.375 L 988.703125 81.5625 Z M 1053.15625 81.5625 " fill-opacity="1" fill-rule="nonzero"/></g></g></g><g clip-path="url(#ec4201c9da)"><g clip-path="url(#623d3997f5)"><g clip-path="url(#1c19ba40f4)"><path fill="#fc6a1f" d="M 71.84375 81.5625 L 136.292969 81.5625 L 136.292969 50.375 L 40.65625 50.375 L 40.65625 146.011719 L 71.84375 146.011719 Z M 71.84375 81.5625 " fill-opacity="1" fill-rule="nonzero"/></g></g></g><g clip-path="url(#e3983b0596)"><g clip-path="url(#0959803ed8)"><g clip-path="url(#d9280770dc)"><path fill="#fc6a1f" d="M 1053.15625 1062.875 L 988.703125 1062.875 L 988.703125 1094.058594 L 1084.339844 1094.058594 L 1084.339844 998.421875 L 1053.15625 998.421875 Z M 1053.15625 1062.875 " fill-opacity="1" fill-rule="nonzero"/></g></g></g><g clip-path="url(#21cbe96add)"><g clip-path="url(#818a14dae9)"><g clip-path="url(#56018dda1d)"><path fill="#fc6a1f" d="M 71.84375 1062.875 L 71.84375 998.421875 L 40.65625 998.421875 L 40.65625 1094.058594 L 136.292969 1094.058594 L 136.292969 1062.875 Z M 71.84375 1062.875 " fill-opacity="1" fill-rule="nonzero"/></g></g></g><g clip-path="url(#028bb3a1c8)"><g clip-path="url(#53c130ba91)"><g clip-path="url(#0dad5579f6)"><path stroke-linecap="butt" transform="matrix(0.75, 0, 0, 0.75, 40.657485, 50.376069)" fill="none" stroke-linejoin="miter" d="M -0.00164733 55.998579 L -0.00164733 1335.576814 C -0.00164733 1366.5039 25.071271 1391.576819 55.998357 1391.576819 L 1335.576593 1391.576819 C 1366.503679 1391.576819 1391.576597 1366.5039 1391.576597 1335.576814 L 1391.576597 55.998579 C 1391.576597 25.071493 1366.503679 -0.00142568 1335.576593 -0.00142568 L 55.998357 -0.00142568 C 25.071271 -0.00142568 -0.00164733 25.071493 -0.00164733 55.998579 Z M -0.00164733 55.998579 " stroke="#fc6a1f" stroke-width="66" stroke-opacity="1" stroke-miterlimit="4"/></g></g></g><g clip-path="url(#0d97c561af)"><path fill="#fc6a1f" d="M 409.636719 362.269531 L 440.324219 362.269531 L 440.324219 392.953125 C 440.324219 393.640625 440.390625 394.320312 440.523438 394.992188 C 440.65625 395.664062 440.855469 396.316406 441.117188 396.949219 C 441.378906 397.582031 441.703125 398.183594 442.082031 398.753906 C 442.464844 399.324219 442.894531 399.851562 443.378906 400.335938 C 443.867188 400.820312 444.390625 401.253906 444.960938 401.632812 C 445.53125 402.015625 446.132812 402.335938 446.765625 402.597656 C 447.398438 402.859375 448.054688 403.058594 448.726562 403.191406 C 449.398438 403.324219 450.074219 403.390625 450.761719 403.390625 L 505.335938 403.390625 C 506.019531 403.390625 506.699219 403.324219 507.371094 403.191406 C 508.042969 403.058594 508.695312 402.859375 509.328125 402.597656 C 509.964844 402.335938 510.5625 402.015625 511.132812 401.632812 C 511.703125 401.253906 512.230469 400.820312 512.714844 400.335938 C 513.199219 399.851562 513.632812 399.324219 514.015625 398.753906 C 514.394531 398.183594 514.714844 397.582031 514.980469 396.949219 C 515.242188 396.316406 515.4375 395.664062 515.574219 394.992188 C 515.707031 394.320312 515.773438 393.640625 515.773438 392.953125 L 515.773438 362.269531 L 546.460938 362.269531 C 547.144531 362.269531 547.824219 362.199219 548.496094 362.066406 C 549.167969 361.933594 549.820312 361.734375 550.453125 361.472656 C 551.085938 361.210938 551.6875 360.890625 552.257812 360.507812 C 552.828125 360.128906 553.355469 359.695312 553.839844 359.210938 C 554.324219 358.726562 554.757812 358.199219 555.136719 357.628906 C 555.519531 357.058594 555.839844 356.457031 556.101562 355.824219 C 556.367188 355.191406 556.5625 354.539062 556.695312 353.867188 C 556.832031 353.195312 556.898438 352.515625 556.898438 351.832031 L 556.898438 297.257812 C 556.898438 296.570312 556.832031 295.890625 556.695312 295.21875 C 556.5625 294.546875 556.363281 293.894531 556.101562 293.261719 C 555.839844 292.628906 555.519531 292.027344 555.136719 291.457031 C 554.757812 290.886719 554.324219 290.359375 553.839844 289.875 C 553.355469 289.390625 552.828125 288.957031 552.257812 288.578125 C 551.6875 288.195312 551.085938 287.875 550.453125 287.613281 C 549.820312 287.351562 549.167969 287.152344 548.496094 287.019531 C 547.824219 286.886719 547.144531 286.820312 546.460938 286.820312 L 515.773438 286.820312 L 515.773438 256.136719 C 515.773438 255.449219 515.707031 254.773438 515.574219 254.101562 C 515.4375 253.425781 515.242188 252.773438 514.980469 252.140625 C 514.714844 251.507812 514.394531 250.90625 514.015625 250.335938 C 513.632812 249.765625 513.199219 249.238281 512.714844 248.753906 C 512.230469 248.269531 511.703125 247.839844 511.132812 247.457031 C 510.5625 247.078125 509.964844 246.753906 509.328125 246.492188 C 508.695312 246.230469 508.042969 246.03125 507.371094 245.898438 C 506.699219 245.765625 506.019531 245.699219 505.335938 245.699219 L 450.761719 245.699219 C 450.074219 245.699219 449.398438 245.765625 448.726562 245.898438 C 448.054688 246.03125 447.398438 246.230469 446.765625 246.492188 C 446.132812 246.753906 445.53125 247.078125 444.960938 247.457031 C 444.394531 247.839844 443.867188 248.269531 443.378906 248.753906 C 442.894531 249.242188 442.464844 249.765625 442.082031 250.335938 C 441.703125 250.90625 441.378906 251.507812 441.117188 252.140625 C 440.855469 252.773438 440.65625 253.425781 440.523438 254.101562 C 440.390625 254.773438 440.324219 255.449219 440.324219 256.136719 L 440.324219 286.820312 L 409.636719 286.820312 C 408.953125 286.820312 408.273438 286.886719 407.601562 287.019531 C 406.929688 287.152344 406.277344 287.351562 405.644531 287.613281 C 405.011719 287.875 404.410156 288.195312 403.839844 288.578125 C 403.269531 288.957031 402.742188 289.390625 402.257812 289.875 C 401.773438 290.359375 401.339844 290.886719 400.960938 291.457031 C 400.578125 292.027344 400.257812 292.628906 399.996094 293.261719 C 399.734375 293.894531 399.535156 294.546875 399.402344 295.21875 C 399.265625 295.890625 399.199219 296.570312 399.199219 297.257812 L 399.199219 351.832031 C 399.199219 352.515625 399.265625 353.195312 399.402344 353.867188 C 399.535156 354.539062 399.734375 355.191406 399.996094 355.824219 C 400.257812 356.457031 400.578125 357.058594 400.960938 357.628906 C 401.339844 358.199219 401.773438 358.726562 402.257812 359.210938 C 402.742188 359.695312 403.269531 360.128906 403.839844 360.507812 C 404.410156 360.890625 405.011719 361.210938 405.644531 361.472656 C 406.277344 361.734375 406.929688 361.933594 407.601562 362.066406 C 408.273438 362.199219 408.953125 362.269531 409.636719 362.269531 Z M 420.074219 307.703125 L 450.761719 307.703125 C 451.445312 307.703125 452.125 307.632812 452.796875 307.5 C 453.46875 307.367188 454.121094 307.167969 454.753906 306.90625 C 455.390625 306.644531 455.992188 306.324219 456.558594 305.941406 C 457.128906 305.5625 457.65625 305.128906 458.140625 304.644531 C 458.625 304.160156 459.058594 303.632812 459.441406 303.0625 C 459.820312 302.492188 460.140625 301.890625 460.40625 301.257812 C 460.667969 300.625 460.863281 299.972656 461 299.300781 C 461.132812 298.628906 461.199219 297.949219 461.199219 297.261719 L 461.199219 266.578125 L 494.882812 266.578125 L 494.882812 297.257812 C 494.882812 297.941406 494.949219 298.621094 495.085938 299.292969 C 495.21875 299.964844 495.417969 300.617188 495.679688 301.25 C 495.941406 301.882812 496.261719 302.484375 496.644531 303.054688 C 497.023438 303.625 497.457031 304.152344 497.941406 304.636719 C 498.425781 305.121094 498.953125 305.554688 499.523438 305.933594 C 500.09375 306.316406 500.695312 306.636719 501.328125 306.898438 C 501.960938 307.160156 502.613281 307.359375 503.285156 307.492188 C 503.957031 307.625 504.636719 307.695312 505.320312 307.695312 L 536.007812 307.695312 L 536.007812 341.394531 L 505.320312 341.394531 C 504.636719 341.394531 503.957031 341.460938 503.285156 341.59375 C 502.613281 341.726562 501.960938 341.925781 501.328125 342.1875 C 500.695312 342.449219 500.09375 342.769531 499.523438 343.152344 C 498.953125 343.53125 498.425781 343.964844 497.941406 344.449219 C 497.457031 344.933594 497.023438 345.460938 496.644531 346.03125 C 496.261719 346.601562 495.941406 347.203125 495.679688 347.835938 C 495.417969 348.46875 495.21875 349.121094 495.085938 349.792969 C 494.949219 350.464844 494.882812 351.144531 494.882812 351.832031 L 494.882812 382.515625 L 461.207031 382.515625 L 461.207031 351.832031 C 461.207031 351.144531 461.140625 350.464844 461.007812 349.792969 C 460.871094 349.121094 460.675781 348.46875 460.410156 347.835938 C 460.148438 347.203125 459.828125 346.601562 459.449219 346.03125 C 459.066406 345.460938 458.632812 344.933594 458.148438 344.449219 C 457.664062 343.964844 457.136719 343.53125 456.566406 343.152344 C 455.996094 342.769531 455.394531 342.449219 454.761719 342.1875 C 454.128906 341.925781 453.476562 341.726562 452.804688 341.59375 C 452.132812 341.460938 451.453125 341.394531 450.769531 341.394531 L 420.078125 341.394531 Z M 478.023438 458.601562 C 480.21875 458.601562 482.410156 458.546875 484.601562 458.441406 C 486.792969 458.332031 488.980469 458.171875 491.164062 457.957031 C 493.347656 457.742188 495.523438 457.472656 497.695312 457.152344 C 499.863281 456.832031 502.023438 456.457031 504.175781 456.027344 C 506.328125 455.601562 508.46875 455.121094 510.597656 454.585938 C 512.722656 454.054688 514.839844 453.46875 516.9375 452.832031 C 519.035156 452.195312 521.121094 451.507812 523.183594 450.769531 C 525.25 450.03125 527.296875 449.242188 529.324219 448.402344 C 531.351562 447.5625 533.355469 446.675781 535.339844 445.738281 C 537.324219 444.800781 539.28125 443.8125 541.214844 442.78125 C 543.152344 441.746094 545.058594 440.664062 546.941406 439.539062 C 548.824219 438.410156 550.675781 437.238281 552.5 436.019531 C 554.324219 434.800781 556.117188 433.539062 557.878906 432.230469 C 559.644531 430.925781 561.371094 429.574219 563.066406 428.183594 C 564.765625 426.792969 566.425781 425.359375 568.050781 423.886719 C 569.675781 422.414062 571.265625 420.902344 572.816406 419.351562 C 574.367188 417.800781 575.878906 416.210938 577.355469 414.585938 C 578.828125 412.960938 580.261719 411.300781 581.652344 409.605469 C 583.042969 407.910156 584.394531 406.179688 585.699219 404.417969 C 587.007812 402.65625 588.269531 400.863281 589.488281 399.039062 C 590.707031 397.214844 591.882812 395.363281 593.011719 393.480469 C 594.140625 391.601562 595.21875 389.691406 596.253906 387.757812 C 597.289062 385.824219 598.273438 383.863281 599.214844 381.882812 C 600.152344 379.898438 601.039062 377.894531 601.878906 375.867188 C 602.71875 373.839844 603.511719 371.792969 604.25 369.730469 C 604.988281 367.664062 605.675781 365.582031 606.3125 363.480469 C 606.953125 361.382812 607.535156 359.269531 608.070312 357.140625 C 608.601562 355.011719 609.085938 352.875 609.511719 350.722656 C 609.941406 348.570312 610.316406 346.410156 610.636719 344.238281 C 610.960938 342.070312 611.230469 339.894531 611.445312 337.710938 C 611.660156 335.527344 611.820312 333.339844 611.929688 331.148438 C 612.039062 328.957031 612.089844 326.765625 612.09375 324.570312 C 612.09375 322.375 612.039062 320.183594 611.929688 317.992188 C 611.824219 315.800781 611.664062 313.613281 611.449219 311.429688 C 611.234375 309.25 610.964844 307.070312 610.644531 304.902344 C 610.324219 302.730469 609.949219 300.570312 609.519531 298.417969 C 609.09375 296.265625 608.613281 294.128906 608.078125 292 C 607.546875 289.871094 606.960938 287.757812 606.324219 285.65625 C 605.6875 283.558594 605 281.476562 604.261719 279.410156 C 603.523438 277.34375 602.734375 275.296875 601.894531 273.269531 C 601.054688 271.242188 600.167969 269.238281 599.230469 267.253906 C 598.292969 265.273438 597.308594 263.3125 596.273438 261.378906 C 595.238281 259.441406 594.160156 257.535156 593.03125 255.652344 C 591.902344 253.769531 590.730469 251.917969 589.511719 250.09375 C 588.292969 248.269531 587.03125 246.476562 585.722656 244.714844 C 584.417969 242.953125 583.070312 241.222656 581.675781 239.527344 C 580.285156 237.832031 578.851562 236.167969 577.378906 234.542969 C 575.90625 232.917969 574.394531 231.328125 572.84375 229.777344 C 571.292969 228.226562 569.707031 226.714844 568.078125 225.242188 C 566.453125 223.765625 564.792969 222.335938 563.097656 220.941406 C 561.402344 219.550781 559.675781 218.199219 557.914062 216.894531 C 556.152344 215.585938 554.359375 214.324219 552.535156 213.105469 C 550.710938 211.886719 548.855469 210.710938 546.976562 209.582031 C 545.09375 208.457031 543.1875 207.375 541.25 206.339844 C 539.316406 205.304688 537.359375 204.320312 535.375 203.378906 C 533.390625 202.441406 531.386719 201.554688 529.359375 200.714844 C 527.335938 199.875 525.289062 199.082031 523.222656 198.34375 C 521.15625 197.605469 519.074219 196.917969 516.976562 196.28125 C 514.875 195.640625 512.761719 195.058594 510.632812 194.523438 C 508.507812 193.988281 506.367188 193.507812 504.214844 193.082031 C 502.0625 192.652344 499.902344 192.277344 497.734375 191.957031 C 495.5625 191.632812 493.386719 191.363281 491.203125 191.148438 C 489.019531 190.933594 486.832031 190.773438 484.640625 190.664062 C 482.449219 190.554688 480.257812 190.5 478.0625 190.5 C 475.871094 190.5 473.679688 190.554688 471.488281 190.660156 C 469.296875 190.769531 467.109375 190.929688 464.925781 191.144531 C 462.742188 191.359375 460.566406 191.628906 458.394531 191.949219 C 456.226562 192.269531 454.0625 192.644531 451.914062 193.074219 C 449.761719 193.5 447.621094 193.980469 445.492188 194.511719 C 443.363281 195.046875 441.25 195.628906 439.152344 196.265625 C 437.050781 196.902344 434.96875 197.589844 432.902344 198.328125 C 430.835938 199.066406 428.792969 199.855469 426.765625 200.695312 C 424.738281 201.535156 422.734375 202.425781 420.75 203.363281 C 418.765625 204.300781 416.804688 205.285156 414.871094 206.320312 C 412.9375 207.351562 411.027344 208.433594 409.148438 209.5625 C 407.265625 210.6875 405.410156 211.863281 403.585938 213.078125 C 401.761719 214.296875 399.96875 215.5625 398.207031 216.867188 C 396.445312 218.175781 394.714844 219.523438 393.019531 220.914062 C 391.324219 222.304688 389.664062 223.738281 388.039062 225.210938 C 386.410156 226.683594 384.824219 228.195312 383.269531 229.746094 C 381.71875 231.296875 380.207031 232.886719 378.734375 234.511719 C 377.261719 236.136719 375.828125 237.796875 374.433594 239.492188 C 373.042969 241.1875 371.695312 242.917969 370.386719 244.679688 C 369.078125 246.441406 367.816406 248.234375 366.597656 250.058594 C 365.378906 251.882812 364.203125 253.734375 363.074219 255.617188 C 361.949219 257.496094 360.867188 259.40625 359.832031 261.339844 C 358.796875 263.273438 357.8125 265.234375 356.871094 267.214844 C 355.933594 269.199219 355.046875 271.203125 354.207031 273.230469 C 353.367188 275.257812 352.574219 277.304688 351.835938 279.367188 C 351.097656 281.433594 350.410156 283.515625 349.773438 285.617188 C 349.132812 287.714844 348.550781 289.828125 348.015625 291.957031 C 347.484375 294.085938 347 296.222656 346.574219 298.375 C 346.144531 300.527344 345.769531 302.6875 345.445312 304.859375 C 345.125 307.027344 344.855469 309.203125 344.640625 311.386719 C 344.425781 313.570312 344.261719 315.757812 344.15625 317.949219 C 344.046875 320.140625 343.992188 322.332031 343.992188 324.527344 C 343.996094 326.71875 344.050781 328.910156 344.160156 331.101562 C 344.273438 333.292969 344.433594 335.476562 344.652344 337.660156 C 344.871094 339.84375 345.140625 342.019531 345.464844 344.1875 C 345.789062 346.355469 346.164062 348.515625 346.59375 350.667969 C 347.023438 352.816406 347.507812 354.957031 348.039062 357.082031 C 348.574219 359.210938 349.160156 361.324219 349.800781 363.421875 C 350.4375 365.519531 351.125 367.601562 351.867188 369.664062 C 352.605469 371.730469 353.398438 373.773438 354.238281 375.800781 C 355.078125 377.824219 355.96875 379.828125 356.90625 381.8125 C 357.84375 383.792969 358.832031 385.75 359.867188 387.683594 C 360.898438 389.617188 361.980469 391.527344 363.109375 393.40625 C 364.238281 395.289062 365.410156 397.140625 366.628906 398.960938 C 367.847656 400.785156 369.109375 402.578125 370.417969 404.339844 C 371.722656 406.101562 373.074219 407.828125 374.464844 409.523438 C 375.855469 411.21875 377.289062 412.878906 378.761719 414.503906 C 380.234375 416.128906 381.746094 417.71875 383.296875 419.269531 C 384.847656 420.820312 386.433594 422.332031 388.058594 423.804688 C 389.683594 425.277344 391.34375 426.710938 393.039062 428.101562 C 394.730469 429.492188 396.460938 430.84375 398.222656 432.148438 C 399.980469 433.457031 401.773438 434.71875 403.597656 435.9375 C 405.421875 437.15625 407.273438 438.332031 409.152344 439.460938 C 411.03125 440.589844 412.941406 441.671875 414.871094 442.707031 C 416.804688 443.742188 418.765625 444.726562 420.746094 445.667969 C 422.726562 446.605469 424.730469 447.496094 426.757812 448.335938 C 428.78125 449.175781 430.828125 449.96875 432.890625 450.707031 C 434.957031 451.449219 437.035156 452.136719 439.136719 452.777344 C 441.234375 453.414062 443.34375 454.003906 445.472656 454.539062 C 447.597656 455.070312 449.738281 455.554688 451.886719 455.984375 C 454.039062 456.414062 456.199219 456.792969 458.367188 457.117188 C 460.535156 457.441406 462.710938 457.710938 464.894531 457.929688 C 467.074219 458.148438 469.261719 458.3125 471.453125 458.421875 C 473.644531 458.53125 475.835938 458.589844 478.027344 458.59375 Z M 478.023438 211.375 C 479.875 211.375 481.726562 211.421875 483.578125 211.511719 C 485.429688 211.601562 487.273438 211.738281 489.117188 211.917969 C 490.960938 212.101562 492.800781 212.328125 494.632812 212.597656 C 496.464844 212.871094 498.289062 213.1875 500.105469 213.546875 C 501.921875 213.90625 503.730469 214.3125 505.527344 214.761719 C 507.324219 215.210938 509.109375 215.707031 510.882812 216.242188 C 512.652344 216.78125 514.414062 217.363281 516.15625 217.984375 C 517.902344 218.609375 519.628906 219.273438 521.339844 219.984375 C 523.050781 220.691406 524.746094 221.441406 526.417969 222.234375 C 528.09375 223.027344 529.746094 223.859375 531.382812 224.730469 C 533.015625 225.605469 534.625 226.515625 536.214844 227.46875 C 537.804688 228.421875 539.371094 229.410156 540.910156 230.441406 C 542.449219 231.46875 543.964844 232.535156 545.453125 233.636719 C 546.941406 234.742188 548.398438 235.878906 549.832031 237.054688 C 551.265625 238.230469 552.667969 239.4375 554.039062 240.683594 C 555.410156 241.925781 556.753906 243.203125 558.0625 244.511719 C 559.375 245.824219 560.652344 247.164062 561.894531 248.535156 C 563.140625 249.910156 564.347656 251.308594 565.523438 252.742188 C 566.699219 254.175781 567.839844 255.632812 568.941406 257.121094 C 570.046875 258.609375 571.113281 260.121094 572.140625 261.664062 C 573.171875 263.203125 574.160156 264.765625 575.113281 266.355469 C 576.066406 267.945312 576.980469 269.554688 577.851562 271.1875 C 578.726562 272.824219 579.558594 274.476562 580.351562 276.152344 C 581.144531 277.824219 581.894531 279.519531 582.601562 281.230469 C 583.3125 282.941406 583.980469 284.667969 584.601562 286.414062 C 585.226562 288.15625 585.808594 289.914062 586.347656 291.6875 C 586.882812 293.460938 587.378906 295.246094 587.828125 297.042969 C 588.277344 298.839844 588.683594 300.644531 589.046875 302.460938 C 589.40625 304.277344 589.722656 306.101562 589.996094 307.933594 C 590.269531 309.765625 590.496094 311.605469 590.675781 313.449219 C 590.859375 315.292969 590.996094 317.140625 591.085938 318.988281 C 591.175781 320.839844 591.222656 322.691406 591.222656 324.542969 C 591.222656 326.394531 591.175781 328.246094 591.085938 330.097656 C 590.996094 331.945312 590.859375 333.792969 590.679688 335.636719 C 590.496094 337.480469 590.269531 339.316406 590 341.148438 C 589.726562 342.984375 589.410156 344.808594 589.050781 346.625 C 588.6875 348.441406 588.28125 350.246094 587.832031 352.042969 C 587.382812 353.839844 586.886719 355.625 586.351562 357.398438 C 585.8125 359.171875 585.230469 360.929688 584.609375 362.671875 C 583.984375 364.417969 583.316406 366.144531 582.609375 367.855469 C 581.902344 369.566406 581.148438 371.261719 580.359375 372.9375 C 579.566406 374.609375 578.734375 376.265625 577.859375 377.898438 C 576.988281 379.53125 576.074219 381.144531 575.121094 382.730469 C 574.171875 384.320312 573.179688 385.886719 572.152344 387.425781 C 571.121094 388.964844 570.054688 390.480469 568.953125 391.96875 C 567.847656 393.457031 566.707031 394.914062 565.535156 396.347656 C 564.359375 397.777344 563.148438 399.179688 561.90625 400.554688 C 560.660156 401.925781 559.382812 403.265625 558.074219 404.578125 C 556.765625 405.886719 555.421875 407.164062 554.050781 408.40625 C 552.679688 409.652344 551.277344 410.859375 549.84375 412.035156 C 548.414062 413.210938 546.953125 414.351562 545.464844 415.453125 C 543.976562 416.558594 542.464844 417.625 540.921875 418.652344 C 539.382812 419.683594 537.816406 420.671875 536.230469 421.625 C 534.640625 422.578125 533.03125 423.488281 531.394531 424.363281 C 529.761719 425.234375 528.109375 426.070312 526.433594 426.859375 C 524.757812 427.652344 523.066406 428.402344 521.355469 429.113281 C 519.644531 429.820312 517.914062 430.488281 516.171875 431.109375 C 514.425781 431.734375 512.667969 432.316406 510.894531 432.851562 C 509.125 433.390625 507.339844 433.882812 505.542969 434.335938 C 503.746094 434.785156 501.9375 435.191406 500.121094 435.550781 C 498.304688 435.914062 496.480469 436.230469 494.648438 436.5 C 492.816406 436.773438 490.976562 437 489.132812 437.179688 C 487.289062 437.363281 485.445312 437.5 483.59375 437.589844 C 481.742188 437.679688 479.894531 437.726562 478.039062 437.726562 C 476.1875 437.726562 474.335938 437.679688 472.488281 437.589844 C 470.636719 437.496094 468.789062 437.359375 466.945312 437.179688 C 465.101562 436.996094 463.265625 436.769531 461.433594 436.5 C 459.601562 436.226562 457.777344 435.910156 455.960938 435.546875 C 454.144531 435.1875 452.335938 434.78125 450.539062 434.332031 C 448.742188 433.878906 446.957031 433.386719 445.183594 432.847656 C 443.414062 432.3125 441.65625 431.730469 439.910156 431.105469 C 438.167969 430.480469 436.4375 429.8125 434.726562 429.105469 C 433.015625 428.394531 431.324219 427.644531 429.648438 426.855469 C 427.972656 426.0625 426.320312 425.230469 424.6875 424.355469 C 423.054688 423.480469 421.441406 422.570312 419.855469 421.617188 C 418.265625 420.664062 416.699219 419.671875 415.160156 418.644531 C 413.621094 417.613281 412.105469 416.546875 410.617188 415.445312 C 409.132812 414.339844 407.671875 413.203125 406.238281 412.027344 C 404.808594 410.851562 403.40625 409.640625 402.035156 408.398438 C 400.660156 407.152344 399.320312 405.875 398.011719 404.566406 C 396.703125 403.253906 395.425781 401.914062 394.179688 400.542969 C 392.9375 399.167969 391.726562 397.765625 390.554688 396.335938 C 389.378906 394.902344 388.238281 393.441406 387.136719 391.953125 C 386.03125 390.464844 384.964844 388.953125 383.9375 387.410156 C 382.910156 385.871094 381.917969 384.308594 380.964844 382.71875 C 380.015625 381.128906 379.101562 379.519531 378.230469 377.882812 C 377.355469 376.25 376.523438 374.597656 375.730469 372.921875 C 374.941406 371.246094 374.191406 369.554688 373.480469 367.84375 C 372.773438 366.128906 372.105469 364.402344 371.484375 362.660156 C 370.859375 360.914062 370.277344 359.15625 369.742188 357.382812 C 369.203125 355.609375 368.710938 353.824219 368.261719 352.027344 C 367.8125 350.230469 367.40625 348.425781 367.042969 346.609375 C 366.683594 344.792969 366.367188 342.96875 366.097656 341.132812 C 365.824219 339.300781 365.597656 337.464844 365.417969 335.621094 C 365.234375 333.777344 365.101562 331.929688 365.007812 330.082031 C 364.917969 328.230469 364.875 326.378906 364.875 324.527344 C 364.875 322.675781 364.925781 320.824219 365.015625 318.976562 C 365.109375 317.128906 365.25 315.28125 365.433594 313.441406 C 365.617188 311.597656 365.84375 309.761719 366.117188 307.929688 C 366.390625 306.097656 366.707031 304.277344 367.070312 302.460938 C 367.433594 300.644531 367.839844 298.839844 368.292969 297.046875 C 368.746094 295.25 369.238281 293.464844 369.777344 291.695312 C 370.316406 289.925781 370.898438 288.167969 371.523438 286.425781 C 372.148438 284.683594 372.816406 282.957031 373.523438 281.246094 C 374.234375 279.535156 374.984375 277.84375 375.777344 276.171875 C 376.570312 274.5 377.402344 272.847656 378.277344 271.214844 C 379.148438 269.582031 380.0625 267.972656 381.015625 266.382812 C 381.96875 264.796875 382.957031 263.234375 383.988281 261.695312 C 385.015625 260.15625 386.082031 258.644531 387.183594 257.15625 C 388.289062 255.667969 389.425781 254.210938 390.601562 252.78125 C 391.777344 251.347656 392.984375 249.949219 394.230469 248.574219 C 395.472656 247.203125 396.75 245.863281 398.058594 244.554688 C 399.367188 243.246094 400.707031 241.96875 402.078125 240.726562 C 403.449219 239.484375 404.851562 238.273438 406.28125 237.097656 C 407.710938 235.925781 409.171875 234.785156 410.65625 233.683594 C 412.144531 232.578125 413.65625 231.511719 415.195312 230.484375 C 416.734375 229.457031 418.296875 228.464844 419.886719 227.511719 C 421.472656 226.558594 423.082031 225.648438 424.714844 224.773438 C 426.347656 223.898438 428 223.066406 429.671875 222.273438 C 431.347656 221.480469 433.039062 220.730469 434.746094 220.023438 C 436.457031 219.3125 438.183594 218.644531 439.925781 218.019531 C 441.667969 217.394531 443.425781 216.8125 445.195312 216.273438 C 446.96875 215.734375 448.75 215.242188 450.546875 214.789062 C 452.339844 214.335938 454.148438 213.929688 455.960938 213.566406 C 457.777344 213.203125 459.601562 212.886719 461.429688 212.613281 C 463.261719 212.339844 465.097656 212.109375 466.941406 211.925781 C 468.78125 211.742188 470.628906 211.605469 472.476562 211.511719 C 474.328125 211.417969 476.175781 211.371094 478.027344 211.367188 Z M 908.316406 587.980469 C 908.316406 569.339844 893.34375 554.003906 873.503906 552.304688 L 562.5 525.167969 C 560.074219 524.898438 557.644531 524.882812 555.214844 525.125 C 552.785156 525.363281 550.410156 525.847656 548.082031 526.585938 C 545.753906 527.320312 543.527344 528.292969 541.402344 529.492188 C 539.277344 530.695312 537.300781 532.105469 535.472656 533.71875 C 533.585938 535.339844 531.894531 537.144531 530.402344 539.136719 C 528.914062 541.128906 527.65625 543.257812 526.632812 545.523438 C 525.609375 547.792969 524.84375 550.144531 524.339844 552.578125 C 523.832031 555.015625 523.59375 557.476562 523.628906 559.964844 L 523.628906 573.871094 L 447.089844 573.871094 L 346.667969 476.320312 C 345.3125 474.972656 343.867188 473.730469 342.324219 472.601562 C 340.785156 471.46875 339.167969 470.457031 337.476562 469.566406 C 335.785156 468.675781 334.039062 467.914062 332.230469 467.285156 C 330.425781 466.652344 328.585938 466.160156 326.707031 465.804688 C 324.828125 465.449219 322.933594 465.234375 321.023438 465.164062 C 319.113281 465.089844 317.207031 465.160156 315.308594 465.371094 C 313.40625 465.582031 311.535156 465.933594 309.6875 466.425781 C 307.839844 466.917969 306.039062 467.542969 304.285156 468.300781 C 303.261719 468.730469 302.269531 469.210938 301.300781 469.714844 L 301.300781 434.757812 C 301.300781 433.375 301.234375 431.992188 301.097656 430.613281 C 300.960938 429.234375 300.757812 427.863281 300.488281 426.503906 C 300.21875 425.144531 299.882812 423.804688 299.480469 422.476562 C 299.078125 421.152344 298.609375 419.847656 298.082031 418.566406 C 297.550781 417.285156 296.957031 416.035156 296.304688 414.8125 C 295.652344 413.589844 294.941406 412.40625 294.171875 411.253906 C 293.402344 410.101562 292.574219 408.988281 291.695312 407.917969 C 290.816406 406.847656 289.886719 405.820312 288.910156 404.839844 C 287.929688 403.859375 286.902344 402.929688 285.832031 402.050781 C 284.761719 401.171875 283.648438 400.347656 282.496094 399.578125 C 281.34375 398.808594 280.15625 398.097656 278.933594 397.445312 C 277.714844 396.789062 276.460938 396.199219 275.183594 395.667969 C 273.902344 395.136719 272.597656 394.671875 271.273438 394.269531 C 269.945312 393.867188 268.605469 393.53125 267.246094 393.261719 C 265.886719 392.992188 264.515625 392.789062 263.136719 392.652344 C 261.757812 392.515625 260.375 392.449219 258.988281 392.449219 C 257.605469 392.449219 256.222656 392.515625 254.84375 392.652344 C 253.464844 392.789062 252.09375 392.992188 250.734375 393.261719 C 249.375 393.53125 248.035156 393.867188 246.707031 394.269531 C 245.382812 394.671875 244.078125 395.136719 242.796875 395.667969 C 241.519531 396.199219 240.265625 396.789062 239.042969 397.445312 C 237.824219 398.097656 236.636719 398.808594 235.484375 399.578125 C 234.332031 400.347656 233.21875 401.171875 232.148438 402.050781 C 231.078125 402.929688 230.050781 403.859375 229.070312 404.839844 C 228.089844 405.820312 227.160156 406.847656 226.28125 407.917969 C 225.402344 408.988281 224.578125 410.101562 223.808594 411.253906 C 223.039062 412.40625 222.328125 413.589844 221.675781 414.8125 C 221.019531 416.035156 220.429688 417.285156 219.898438 418.566406 C 219.367188 419.847656 218.902344 421.152344 218.5 422.476562 C 218.097656 423.804688 217.761719 425.144531 217.492188 426.503906 C 217.222656 427.863281 217.019531 429.234375 216.882812 430.613281 C 216.746094 431.992188 216.679688 433.375 216.679688 434.757812 L 216.679688 715.925781 C 216.679688 717.324219 216.75 718.722656 216.890625 720.113281 C 217.03125 721.507812 217.238281 722.890625 217.511719 724.261719 C 217.789062 725.632812 218.128906 726.992188 218.535156 728.328125 C 218.945312 729.667969 219.417969 730.984375 219.953125 732.277344 C 220.492188 733.570312 221.089844 734.832031 221.75 736.066406 C 222.414062 737.300781 223.132812 738.5 223.910156 739.664062 C 224.691406 740.828125 225.523438 741.949219 226.410156 743.03125 C 227.300781 744.113281 228.242188 745.148438 229.230469 746.136719 C 230.222656 747.125 231.257812 748.0625 232.339844 748.953125 C 233.421875 749.839844 234.546875 750.671875 235.710938 751.449219 C 236.875 752.226562 238.074219 752.945312 239.308594 753.605469 C 240.542969 754.265625 241.804688 754.863281 243.097656 755.398438 C 244.394531 755.933594 245.710938 756.40625 247.046875 756.8125 C 248.386719 757.21875 249.742188 757.558594 251.117188 757.832031 C 252.488281 758.105469 253.871094 758.3125 255.265625 758.449219 C 256.660156 758.585938 258.054688 758.65625 259.457031 758.65625 L 280.421875 758.65625 L 280.421875 874.019531 C 279.632812 874.230469 278.855469 874.460938 278.082031 874.71875 C 277.308594 874.972656 276.542969 875.253906 275.789062 875.554688 C 275.03125 875.855469 274.285156 876.179688 273.550781 876.527344 C 272.8125 876.875 272.085938 877.242188 271.375 877.632812 C 270.660156 878.023438 269.957031 878.433594 269.265625 878.863281 C 268.578125 879.296875 267.902344 879.75 267.238281 880.222656 C 266.578125 880.695312 265.929688 881.1875 265.296875 881.699219 C 264.664062 882.210938 264.046875 882.742188 263.445312 883.289062 C 262.84375 883.839844 262.257812 884.40625 261.691406 884.988281 C 261.125 885.574219 260.578125 886.171875 260.046875 886.789062 C 259.515625 887.40625 259.003906 888.039062 258.507812 888.6875 C 258.015625 889.335938 257.542969 889.996094 257.089844 890.671875 C 256.636719 891.347656 256.203125 892.039062 255.792969 892.738281 C 255.378906 893.441406 254.988281 894.15625 254.621094 894.882812 C 254.25 895.605469 253.90625 896.34375 253.578125 897.089844 C 253.253906 897.835938 252.953125 898.589844 252.671875 899.355469 C 252.394531 900.117188 252.136719 900.890625 251.90625 901.671875 C 251.671875 902.449219 251.460938 903.238281 251.277344 904.027344 C 251.089844 904.820312 250.929688 905.617188 250.789062 906.421875 C 250.652344 907.222656 250.539062 908.027344 250.449219 908.835938 C 250.359375 909.648438 250.292969 910.457031 250.253906 911.269531 C 250.210938 912.082031 250.195312 912.898438 250.203125 913.710938 C 250.210938 914.523438 250.242188 915.335938 250.300781 916.148438 C 250.355469 916.960938 250.4375 917.769531 250.542969 918.578125 C 250.648438 919.386719 250.777344 920.1875 250.933594 920.988281 C 251.085938 921.785156 251.261719 922.582031 251.464844 923.371094 C 251.664062 924.15625 251.890625 924.941406 252.136719 925.714844 C 252.386719 926.492188 252.65625 927.257812 252.953125 928.015625 C 253.246094 928.773438 253.5625 929.523438 253.902344 930.265625 C 254.242188 931.003906 254.601562 931.734375 254.988281 932.449219 C 255.371094 933.167969 255.773438 933.875 256.199219 934.570312 C 256.625 935.261719 257.070312 935.941406 257.539062 936.609375 C 258.003906 937.277344 258.488281 937.929688 258.996094 938.566406 C 259.5 939.207031 260.023438 939.828125 260.566406 940.433594 C 261.109375 941.039062 261.671875 941.628906 262.25 942.203125 C 262.828125 942.777344 263.421875 943.332031 264.035156 943.867188 C 264.644531 944.40625 265.273438 944.921875 265.917969 945.421875 C 266.558594 945.921875 267.214844 946.402344 267.886719 946.859375 C 268.558594 947.320312 269.242188 947.761719 269.941406 948.179688 C 270.640625 948.597656 271.351562 948.996094 272.070312 949.371094 C 272.792969 949.746094 273.527344 950.101562 274.269531 950.433594 C 275.011719 950.765625 275.765625 951.074219 276.527344 951.363281 C 277.289062 951.648438 278.058594 951.914062 278.835938 952.152344 C 279.613281 952.394531 280.398438 952.609375 281.1875 952.804688 C 281.976562 952.996094 282.773438 953.167969 283.574219 953.3125 C 284.375 953.460938 285.179688 953.582031 285.988281 953.679688 C 286.796875 953.777344 287.605469 953.847656 288.417969 953.898438 C 289.230469 953.945312 290.042969 953.972656 290.859375 953.972656 C 291.671875 953.972656 292.484375 953.945312 293.296875 953.898438 C 294.109375 953.847656 294.917969 953.777344 295.726562 953.679688 C 296.535156 953.582031 297.339844 953.460938 298.140625 953.3125 C 298.941406 953.167969 299.738281 952.996094 300.527344 952.804688 C 301.320312 952.609375 302.101562 952.394531 302.878906 952.152344 C 303.65625 951.914062 304.425781 951.648438 305.1875 951.363281 C 305.949219 951.074219 306.703125 950.765625 307.445312 950.433594 C 308.1875 950.101562 308.921875 949.746094 309.644531 949.371094 C 310.367188 948.996094 311.074219 948.597656 311.773438 948.179688 C 312.472656 947.761719 313.15625 947.320312 313.828125 946.859375 C 314.5 946.402344 315.15625 945.921875 315.800781 945.421875 C 316.441406 944.921875 317.070312 944.40625 317.679688 943.867188 C 318.292969 943.332031 318.886719 942.777344 319.464844 942.203125 C 320.042969 941.628906 320.605469 941.039062 321.148438 940.433594 C 321.691406 939.828125 322.214844 939.207031 322.71875 938.566406 C 323.226562 937.929688 323.710938 937.277344 324.179688 936.609375 C 324.644531 935.941406 325.089844 935.261719 325.515625 934.570312 C 325.941406 933.875 326.34375 933.167969 326.730469 932.449219 C 327.113281 931.734375 327.472656 931.003906 327.8125 930.265625 C 328.152344 929.523438 328.46875 928.773438 328.761719 928.015625 C 329.058594 927.257812 329.328125 926.492188 329.578125 925.714844 C 329.824219 924.941406 330.050781 924.15625 330.25 923.371094 C 330.453125 922.582031 330.628906 921.785156 330.785156 920.988281 C 330.9375 920.1875 331.066406 919.386719 331.171875 918.578125 C 331.277344 917.769531 331.359375 916.960938 331.414062 916.148438 C 331.472656 915.335938 331.503906 914.523438 331.511719 913.710938 C 331.519531 912.898438 331.503906 912.082031 331.460938 911.269531 C 331.421875 910.457031 331.355469 909.648438 331.265625 908.835938 C 331.175781 908.027344 331.0625 907.222656 330.925781 906.421875 C 330.789062 905.617188 330.625 904.820312 330.4375 904.027344 C 330.253906 903.238281 330.042969 902.449219 329.8125 901.671875 C 329.578125 900.890625 329.320312 900.117188 329.042969 899.355469 C 328.761719 898.589844 328.460938 897.835938 328.136719 897.089844 C 327.8125 896.34375 327.464844 895.605469 327.09375 894.878906 C 326.726562 894.15625 326.335938 893.441406 325.921875 892.738281 C 325.511719 892.039062 325.078125 891.347656 324.625 890.671875 C 324.171875 889.996094 323.699219 889.335938 323.207031 888.6875 C 322.710938 888.039062 322.199219 887.40625 321.667969 886.789062 C 321.140625 886.171875 320.589844 885.574219 320.023438 884.988281 C 319.457031 884.40625 318.871094 883.839844 318.269531 883.289062 C 317.667969 882.742188 317.050781 882.210938 316.417969 881.699219 C 315.785156 881.1875 315.140625 880.695312 314.476562 880.222656 C 313.8125 879.75 313.136719 879.296875 312.449219 878.863281 C 311.757812 878.433594 311.054688 878.023438 310.34375 877.632812 C 309.628906 877.242188 308.902344 876.875 308.164062 876.527344 C 307.429688 876.179688 306.683594 875.855469 305.925781 875.554688 C 305.171875 875.253906 304.40625 874.972656 303.632812 874.71875 C 302.863281 874.460938 302.082031 874.230469 301.296875 874.019531 L 301.296875 829.921875 L 823.652344 829.921875 L 823.652344 874.019531 C 822.863281 874.230469 822.085938 874.460938 821.3125 874.71875 C 820.539062 874.972656 819.777344 875.253906 819.019531 875.554688 C 818.265625 875.855469 817.519531 876.179688 816.78125 876.527344 C 816.042969 876.875 815.320312 877.242188 814.605469 877.632812 C 813.890625 878.023438 813.1875 878.433594 812.5 878.863281 C 811.808594 879.296875 811.132812 879.75 810.46875 880.222656 C 809.808594 880.695312 809.160156 881.1875 808.527344 881.699219 C 807.894531 882.210938 807.277344 882.742188 806.675781 883.289062 C 806.074219 883.839844 805.492188 884.40625 804.925781 884.988281 C 804.355469 885.574219 803.808594 886.171875 803.277344 886.789062 C 802.746094 887.40625 802.234375 888.039062 801.742188 888.6875 C 801.25 889.335938 800.773438 889.996094 800.320312 890.671875 C 799.867188 891.347656 799.4375 892.039062 799.023438 892.738281 C 798.613281 893.441406 798.222656 894.15625 797.851562 894.882812 C 797.484375 895.605469 797.136719 896.34375 796.8125 897.089844 C 796.488281 897.835938 796.183594 898.589844 795.90625 899.355469 C 795.625 900.117188 795.371094 900.890625 795.136719 901.671875 C 794.902344 902.449219 794.695312 903.238281 794.507812 904.03125 C 794.320312 904.820312 794.160156 905.617188 794.023438 906.421875 C 793.882812 907.222656 793.769531 908.027344 793.679688 908.835938 C 793.589844 909.648438 793.527344 910.457031 793.484375 911.269531 C 793.445312 912.082031 793.425781 912.898438 793.433594 913.710938 C 793.441406 914.523438 793.476562 915.335938 793.53125 916.148438 C 793.589844 916.960938 793.671875 917.769531 793.773438 918.578125 C 793.878906 919.386719 794.011719 920.1875 794.164062 920.988281 C 794.316406 921.785156 794.496094 922.582031 794.695312 923.371094 C 794.898438 924.15625 795.121094 924.941406 795.371094 925.714844 C 795.617188 926.492188 795.890625 927.257812 796.183594 928.015625 C 796.480469 928.773438 796.796875 929.523438 797.136719 930.265625 C 797.472656 931.003906 797.835938 931.734375 798.21875 932.449219 C 798.601562 933.167969 799.003906 933.875 799.429688 934.570312 C 799.855469 935.261719 800.300781 935.941406 800.769531 936.609375 C 801.234375 937.277344 801.722656 937.929688 802.226562 938.566406 C 802.734375 939.207031 803.257812 939.828125 803.800781 940.433594 C 804.34375 941.039062 804.902344 941.628906 805.480469 942.203125 C 806.058594 942.777344 806.65625 943.332031 807.265625 943.867188 C 807.878906 944.40625 808.503906 944.921875 809.148438 945.421875 C 809.789062 945.921875 810.449219 946.402344 811.121094 946.859375 C 811.792969 947.320312 812.476562 947.757812 813.175781 948.179688 C 813.871094 948.597656 814.582031 948.996094 815.304688 949.371094 C 816.023438 949.746094 816.757812 950.101562 817.5 950.433594 C 818.242188 950.765625 818.996094 951.074219 819.757812 951.363281 C 820.519531 951.648438 821.289062 951.914062 822.066406 952.152344 C 822.84375 952.394531 823.628906 952.609375 824.417969 952.804688 C 825.210938 952.996094 826.003906 953.167969 826.804688 953.3125 C 827.605469 953.460938 828.410156 953.582031 829.21875 953.679688 C 830.027344 953.777344 830.835938 953.847656 831.648438 953.898438 C 832.460938 953.945312 833.277344 953.972656 834.089844 953.972656 C 834.902344 953.972656 835.714844 953.945312 836.527344 953.898438 C 837.339844 953.847656 838.152344 953.777344 838.960938 953.679688 C 839.769531 953.582031 840.574219 953.460938 841.375 953.3125 C 842.175781 953.167969 842.96875 952.996094 843.761719 952.804688 C 844.550781 952.609375 845.335938 952.394531 846.113281 952.152344 C 846.890625 951.914062 847.660156 951.648438 848.421875 951.363281 C 849.183594 951.074219 849.933594 950.765625 850.679688 950.433594 C 851.421875 950.101562 852.152344 949.746094 852.875 949.371094 C 853.597656 948.996094 854.308594 948.597656 855.003906 948.179688 C 855.703125 947.757812 856.386719 947.320312 857.058594 946.859375 C 857.730469 946.402344 858.386719 945.921875 859.03125 945.421875 C 859.671875 944.921875 860.300781 944.40625 860.914062 943.867188 C 861.523438 943.332031 862.121094 942.777344 862.699219 942.203125 C 863.277344 941.628906 863.835938 941.039062 864.378906 940.433594 C 864.921875 939.828125 865.445312 939.207031 865.953125 938.566406 C 866.457031 937.929688 866.945312 937.277344 867.410156 936.609375 C 867.875 935.941406 868.320312 935.261719 868.746094 934.570312 C 869.171875 933.875 869.578125 933.167969 869.960938 932.449219 C 870.34375 931.734375 870.703125 931.003906 871.042969 930.265625 C 871.382812 929.523438 871.699219 928.773438 871.996094 928.015625 C 872.289062 927.257812 872.558594 926.492188 872.808594 925.714844 C 873.058594 924.941406 873.28125 924.15625 873.484375 923.371094 C 873.683594 922.582031 873.863281 921.785156 874.015625 920.988281 C 874.167969 920.1875 874.296875 919.386719 874.402344 918.578125 C 874.507812 917.769531 874.589844 916.960938 874.648438 916.148438 C 874.703125 915.335938 874.734375 914.523438 874.742188 913.710938 C 874.75 912.898438 874.734375 912.082031 874.695312 911.269531 C 874.652344 910.457031 874.589844 909.648438 874.5 908.835938 C 874.410156 908.027344 874.296875 907.222656 874.15625 906.421875 C 874.019531 905.617188 873.855469 904.820312 873.671875 904.027344 C 873.484375 903.238281 873.277344 902.449219 873.042969 901.671875 C 872.808594 900.890625 872.554688 900.117188 872.273438 899.355469 C 871.996094 898.589844 871.691406 897.835938 871.367188 897.089844 C 871.042969 896.34375 870.695312 895.605469 870.328125 894.878906 C 869.957031 894.15625 869.566406 893.441406 869.15625 892.738281 C 868.742188 892.039062 868.3125 891.347656 867.855469 890.671875 C 867.402344 889.996094 866.929688 889.335938 866.4375 888.6875 C 865.945312 888.039062 865.433594 887.40625 864.902344 886.789062 C 864.371094 886.171875 863.820312 885.574219 863.253906 884.988281 C 862.6875 884.40625 862.101562 883.839844 861.503906 883.289062 C 860.902344 882.742188 860.285156 882.210938 859.652344 881.699219 C 859.019531 881.1875 858.371094 880.695312 857.707031 880.222656 C 857.046875 879.75 856.371094 879.296875 855.679688 878.863281 C 854.992188 878.433594 854.289062 878.023438 853.574219 877.632812 C 852.859375 877.242188 852.132812 876.875 851.398438 876.527344 C 850.660156 876.179688 849.914062 875.855469 849.160156 875.554688 C 848.402344 875.253906 847.640625 874.972656 846.867188 874.71875 C 846.09375 874.460938 845.3125 874.230469 844.527344 874.019531 L 844.527344 758.65625 L 897.867188 758.65625 C 898.554688 758.65625 899.230469 758.589844 899.902344 758.457031 C 900.578125 758.324219 901.230469 758.125 901.863281 757.863281 C 902.496094 757.601562 903.097656 757.28125 903.667969 756.898438 C 904.238281 756.519531 904.765625 756.085938 905.25 755.601562 C 905.734375 755.117188 906.164062 754.589844 906.546875 754.019531 C 906.925781 753.449219 907.25 752.847656 907.511719 752.214844 C 907.773438 751.582031 907.972656 750.929688 908.105469 750.257812 C 908.238281 749.585938 908.304688 748.90625 908.304688 748.21875 L 908.304688 692.546875 C 908.304688 692.453125 908.292969 692.363281 908.289062 692.269531 C 908.289062 692.179688 908.304688 692.089844 908.304688 691.996094 Z M 301.308594 504.289062 C 301.304688 503.402344 301.367188 502.519531 301.496094 501.640625 C 301.621094 500.761719 301.8125 499.894531 302.066406 499.042969 C 302.324219 498.191406 302.636719 497.363281 303.015625 496.558594 C 303.390625 495.753906 303.824219 494.984375 304.3125 494.242188 C 304.804688 493.5 305.347656 492.800781 305.9375 492.136719 C 306.53125 491.476562 307.171875 490.863281 307.855469 490.292969 C 308.535156 489.726562 309.257812 489.210938 310.015625 488.75 C 310.777344 488.289062 311.566406 487.886719 312.382812 487.539062 C 313.203125 487.195312 314.039062 486.910156 314.902344 486.6875 C 315.761719 486.464844 316.632812 486.308594 317.515625 486.214844 C 318.398438 486.121094 319.285156 486.089844 320.171875 486.125 C 321.058594 486.164062 321.941406 486.261719 322.8125 486.429688 C 323.6875 486.59375 324.542969 486.820312 325.382812 487.113281 C 326.21875 487.40625 327.035156 487.753906 327.820312 488.167969 C 328.609375 488.578125 329.363281 489.042969 330.082031 489.566406 C 330.800781 490.085938 331.476562 490.65625 332.113281 491.277344 L 435.585938 591.792969 C 436.5625 592.738281 437.675781 593.46875 438.9375 593.976562 C 440.195312 594.488281 441.503906 594.746094 442.863281 594.746094 L 523.632812 594.746094 L 523.632812 682.109375 L 301.308594 682.109375 Z M 310.652344 913.316406 C 310.652344 913.960938 310.621094 914.609375 310.554688 915.25 C 310.492188 915.894531 310.398438 916.535156 310.269531 917.167969 C 310.144531 917.804688 309.984375 918.429688 309.796875 919.046875 C 309.609375 919.667969 309.390625 920.273438 309.144531 920.871094 C 308.894531 921.46875 308.617188 922.054688 308.3125 922.625 C 308.007812 923.195312 307.675781 923.75 307.316406 924.285156 C 306.957031 924.824219 306.570312 925.34375 306.160156 925.839844 C 305.75 926.339844 305.3125 926.820312 304.855469 927.277344 C 304.398438 927.734375 303.921875 928.167969 303.417969 928.578125 C 302.917969 928.988281 302.402344 929.371094 301.863281 929.730469 C 301.324219 930.089844 300.769531 930.421875 300.199219 930.726562 C 299.628906 931.03125 299.042969 931.308594 298.445312 931.554688 C 297.847656 931.800781 297.242188 932.019531 296.621094 932.207031 C 296.003906 932.394531 295.375 932.550781 294.742188 932.675781 C 294.105469 932.804688 293.46875 932.898438 292.824219 932.960938 C 292.179688 933.023438 291.535156 933.054688 290.886719 933.054688 C 290.242188 933.054688 289.597656 933.023438 288.953125 932.960938 C 288.308594 932.894531 287.667969 932.800781 287.035156 932.675781 C 286.402344 932.546875 285.773438 932.390625 285.15625 932.203125 C 284.535156 932.015625 283.929688 931.796875 283.332031 931.550781 C 282.734375 931.304688 282.148438 931.027344 281.578125 930.722656 C 281.007812 930.417969 280.453125 930.085938 279.917969 929.726562 C 279.378906 929.367188 278.859375 928.980469 278.359375 928.570312 C 277.859375 928.160156 277.378906 927.726562 276.921875 927.269531 C 276.464844 926.8125 276.03125 926.332031 275.621094 925.832031 C 275.210938 925.335938 274.824219 924.816406 274.464844 924.277344 C 274.105469 923.738281 273.773438 923.1875 273.46875 922.613281 C 273.164062 922.042969 272.886719 921.460938 272.640625 920.863281 C 272.390625 920.265625 272.175781 919.65625 271.988281 919.039062 C 271.796875 918.417969 271.640625 917.792969 271.515625 917.160156 C 271.386719 916.523438 271.292969 915.886719 271.230469 915.242188 C 271.164062 914.597656 271.132812 913.953125 271.132812 913.304688 C 271.132812 912.660156 271.164062 912.015625 271.226562 911.371094 C 271.289062 910.726562 271.386719 910.085938 271.511719 909.453125 C 271.636719 908.820312 271.792969 908.191406 271.980469 907.574219 C 272.167969 906.953125 272.386719 906.34375 272.632812 905.746094 C 272.878906 905.148438 273.15625 904.566406 273.460938 903.996094 C 273.761719 903.421875 274.09375 902.871094 274.453125 902.332031 C 274.8125 901.792969 275.199219 901.273438 275.605469 900.773438 C 276.015625 900.273438 276.449219 899.792969 276.90625 899.335938 C 277.363281 898.878906 277.84375 898.445312 278.34375 898.03125 C 278.84375 897.621094 279.359375 897.238281 279.898438 896.875 C 280.433594 896.515625 280.988281 896.183594 281.558594 895.878906 C 282.128906 895.574219 282.714844 895.296875 283.308594 895.046875 C 283.90625 894.800781 284.515625 894.582031 285.132812 894.394531 C 285.753906 894.203125 286.378906 894.046875 287.015625 893.917969 C 287.648438 893.792969 288.289062 893.695312 288.929688 893.632812 C 289.574219 893.570312 290.21875 893.535156 290.867188 893.535156 C 291.515625 893.535156 292.160156 893.566406 292.804688 893.628906 C 293.449219 893.695312 294.089844 893.789062 294.726562 893.914062 C 295.363281 894.042969 295.988281 894.199219 296.609375 894.386719 C 297.230469 894.574219 297.839844 894.792969 298.4375 895.039062 C 299.035156 895.289062 299.621094 895.566406 300.191406 895.871094 C 300.765625 896.175781 301.320312 896.507812 301.859375 896.867188 C 302.398438 897.226562 302.917969 897.613281 303.417969 898.023438 C 303.917969 898.433594 304.398438 898.871094 304.855469 899.328125 C 305.316406 899.785156 305.75 900.265625 306.160156 900.765625 C 306.570312 901.265625 306.957031 901.785156 307.316406 902.324219 C 307.675781 902.863281 308.011719 903.417969 308.316406 903.992188 C 308.621094 904.5625 308.898438 905.148438 309.144531 905.746094 C 309.394531 906.34375 309.613281 906.953125 309.800781 907.574219 C 309.988281 908.191406 310.144531 908.820312 310.273438 909.457031 C 310.398438 910.09375 310.496094 910.730469 310.558594 911.375 C 310.621094 912.023438 310.652344 912.667969 310.652344 913.316406 Z M 301.3125 809.039062 L 301.3125 758.65625 L 823.652344 758.65625 L 823.652344 809.039062 Z M 853.878906 913.316406 C 853.878906 913.964844 853.847656 914.609375 853.78125 915.25 C 853.71875 915.894531 853.621094 916.535156 853.496094 917.167969 C 853.367188 917.804688 853.210938 918.429688 853.023438 919.046875 C 852.835938 919.667969 852.617188 920.277344 852.367188 920.875 C 852.121094 921.46875 851.84375 922.054688 851.539062 922.625 C 851.234375 923.195312 850.898438 923.75 850.539062 924.285156 C 850.179688 924.824219 849.796875 925.34375 849.382812 925.84375 C 848.972656 926.34375 848.539062 926.820312 848.082031 927.277344 C 847.625 927.734375 847.144531 928.167969 846.644531 928.578125 C 846.144531 928.988281 845.625 929.371094 845.085938 929.730469 C 844.550781 930.089844 843.996094 930.421875 843.425781 930.726562 C 842.855469 931.03125 842.269531 931.308594 841.671875 931.554688 C 841.074219 931.800781 840.464844 932.019531 839.847656 932.207031 C 839.226562 932.394531 838.601562 932.550781 837.964844 932.675781 C 837.332031 932.804688 836.691406 932.898438 836.046875 932.960938 C 835.40625 933.023438 834.757812 933.054688 834.113281 933.054688 C 833.464844 933.054688 832.820312 933.023438 832.175781 932.960938 C 831.53125 932.894531 830.894531 932.800781 830.257812 932.675781 C 829.625 932.546875 829 932.390625 828.378906 932.203125 C 827.761719 932.015625 827.152344 931.796875 826.554688 931.550781 C 825.957031 931.300781 825.371094 931.027344 824.800781 930.722656 C 824.230469 930.414062 823.675781 930.082031 823.140625 929.722656 C 822.601562 929.363281 822.082031 928.980469 821.582031 928.570312 C 821.082031 928.160156 820.605469 927.726562 820.148438 927.269531 C 819.6875 926.808594 819.253906 926.332031 818.84375 925.832031 C 818.433594 925.332031 818.050781 924.8125 817.691406 924.273438 C 817.332031 923.738281 817 923.183594 816.695312 922.613281 C 816.390625 922.042969 816.113281 921.457031 815.863281 920.859375 C 815.617188 920.261719 815.398438 919.65625 815.210938 919.035156 C 815.023438 918.417969 814.867188 917.789062 814.738281 917.15625 C 814.613281 916.519531 814.519531 915.882812 814.453125 915.238281 C 814.390625 914.59375 814.359375 913.949219 814.359375 913.300781 C 814.359375 912.65625 814.390625 912.011719 814.453125 911.367188 C 814.515625 910.722656 814.609375 910.082031 814.738281 909.449219 C 814.863281 908.8125 815.019531 908.1875 815.207031 907.570312 C 815.394531 906.949219 815.613281 906.339844 815.859375 905.742188 C 816.105469 905.144531 816.382812 904.5625 816.6875 903.992188 C 816.992188 903.417969 817.324219 902.867188 817.683594 902.328125 C 818.042969 901.789062 818.425781 901.269531 818.835938 900.769531 C 819.246094 900.269531 819.679688 899.789062 820.136719 899.332031 C 820.59375 898.875 821.074219 898.441406 821.570312 898.03125 C 822.070312 897.621094 822.589844 897.234375 823.128906 896.875 C 823.664062 896.515625 824.21875 896.183594 824.789062 895.875 C 825.359375 895.570312 825.945312 895.292969 826.542969 895.046875 C 827.140625 894.796875 827.746094 894.578125 828.367188 894.390625 C 828.984375 894.203125 829.609375 894.046875 830.246094 893.917969 C 830.878906 893.792969 831.519531 893.695312 832.164062 893.632812 C 832.804688 893.566406 833.453125 893.535156 834.097656 893.535156 C 834.746094 893.535156 835.390625 893.566406 836.035156 893.632812 C 836.679688 893.695312 837.320312 893.789062 837.957031 893.917969 C 838.589844 894.042969 839.21875 894.199219 839.839844 894.390625 C 840.457031 894.578125 841.066406 894.796875 841.667969 895.042969 C 842.265625 895.292969 842.847656 895.566406 843.421875 895.875 C 843.992188 896.179688 844.546875 896.511719 845.085938 896.871094 C 845.625 897.230469 846.144531 897.617188 846.644531 898.027344 C 847.144531 898.4375 847.625 898.875 848.082031 899.332031 C 848.539062 899.789062 848.972656 900.269531 849.382812 900.769531 C 849.796875 901.269531 850.179688 901.789062 850.539062 902.328125 C 850.898438 902.867188 851.234375 903.421875 851.539062 903.992188 C 851.84375 904.566406 852.121094 905.148438 852.367188 905.746094 C 852.617188 906.347656 852.832031 906.957031 853.023438 907.574219 C 853.210938 908.195312 853.367188 908.824219 853.492188 909.457031 C 853.621094 910.09375 853.714844 910.734375 853.777344 911.378906 C 853.839844 912.023438 853.875 912.667969 853.875 913.316406 Z M 887.4375 737.773438 L 259.460938 737.773438 C 258.746094 737.773438 258.03125 737.738281 257.316406 737.671875 C 256.605469 737.601562 255.898438 737.496094 255.195312 737.355469 C 254.492188 737.214844 253.796875 737.042969 253.113281 736.835938 C 252.429688 736.625 251.753906 736.386719 251.09375 736.113281 C 250.429688 735.839844 249.785156 735.535156 249.152344 735.195312 C 248.519531 734.859375 247.90625 734.492188 247.3125 734.09375 C 246.714844 733.695312 246.140625 733.269531 245.585938 732.816406 C 245.03125 732.363281 244.5 731.882812 243.996094 731.378906 C 243.488281 730.871094 243.007812 730.34375 242.550781 729.789062 C 242.097656 729.234375 241.671875 728.664062 241.273438 728.066406 C 240.875 727.472656 240.503906 726.859375 240.167969 726.226562 C 239.828125 725.597656 239.519531 724.949219 239.246094 724.289062 C 238.96875 723.628906 238.730469 722.957031 238.519531 722.269531 C 238.308594 721.585938 238.136719 720.890625 237.996094 720.191406 C 237.851562 719.488281 237.746094 718.78125 237.675781 718.066406 C 237.605469 717.355469 237.566406 716.640625 237.566406 715.925781 L 237.566406 434.757812 C 237.566406 434.058594 237.601562 433.359375 237.671875 432.660156 C 237.738281 431.960938 237.84375 431.269531 237.980469 430.578125 C 238.117188 429.890625 238.289062 429.210938 238.492188 428.539062 C 238.695312 427.871094 238.929688 427.210938 239.199219 426.5625 C 239.46875 425.914062 239.769531 425.28125 240.101562 424.660156 C 240.429688 424.042969 240.792969 423.441406 241.179688 422.859375 C 241.570312 422.273438 241.988281 421.710938 242.433594 421.167969 C 242.878906 420.628906 243.351562 420.109375 243.847656 419.613281 C 244.34375 419.117188 244.863281 418.644531 245.40625 418.199219 C 245.945312 417.757812 246.511719 417.339844 247.09375 416.949219 C 247.675781 416.558594 248.277344 416.199219 248.898438 415.867188 C 249.515625 415.539062 250.148438 415.238281 250.796875 414.96875 C 251.445312 414.703125 252.105469 414.464844 252.777344 414.261719 C 253.449219 414.058594 254.128906 413.886719 254.816406 413.75 C 255.503906 413.613281 256.199219 413.511719 256.894531 413.441406 C 257.59375 413.375 258.292969 413.339844 258.996094 413.339844 C 259.699219 413.339844 260.398438 413.375 261.097656 413.441406 C 261.792969 413.511719 262.488281 413.613281 263.175781 413.75 C 263.863281 413.886719 264.542969 414.058594 265.214844 414.261719 C 265.886719 414.464844 266.546875 414.703125 267.195312 414.96875 C 267.84375 415.238281 268.476562 415.539062 269.09375 415.867188 C 269.714844 416.199219 270.316406 416.558594 270.898438 416.949219 C 271.480469 417.339844 272.046875 417.757812 272.585938 418.199219 C 273.128906 418.644531 273.648438 419.117188 274.144531 419.613281 C 274.640625 420.109375 275.113281 420.628906 275.558594 421.167969 C 276.003906 421.710938 276.421875 422.273438 276.8125 422.859375 C 277.199219 423.441406 277.5625 424.042969 277.890625 424.660156 C 278.222656 425.28125 278.523438 425.914062 278.792969 426.5625 C 279.058594 427.210938 279.296875 427.871094 279.5 428.539062 C 279.703125 429.210938 279.875 429.890625 280.011719 430.578125 C 280.148438 431.269531 280.253906 431.960938 280.320312 432.660156 C 280.390625 433.359375 280.425781 434.058594 280.425781 434.757812 L 280.425781 692.546875 C 280.425781 693.230469 280.492188 693.910156 280.625 694.582031 C 280.761719 695.253906 280.957031 695.90625 281.21875 696.539062 C 281.484375 697.171875 281.804688 697.773438 282.183594 698.34375 C 282.566406 698.914062 283 699.441406 283.484375 699.925781 C 283.96875 700.410156 284.496094 700.84375 285.066406 701.222656 C 285.632812 701.605469 286.234375 701.925781 286.871094 702.1875 C 287.503906 702.453125 288.15625 702.648438 288.828125 702.78125 C 289.5 702.917969 290.179688 702.984375 290.863281 702.984375 L 887.433594 702.984375 Z M 887.4375 682.109375 L 544.515625 682.109375 L 544.515625 559.957031 C 544.488281 558.949219 544.578125 557.953125 544.777344 556.96875 C 544.976562 555.980469 545.28125 555.03125 545.699219 554.113281 C 546.113281 553.195312 546.625 552.339844 547.234375 551.539062 C 547.84375 550.738281 548.535156 550.015625 549.304688 549.371094 C 550.074219 548.691406 550.90625 548.101562 551.804688 547.605469 C 552.699219 547.109375 553.640625 546.710938 554.621094 546.417969 C 555.601562 546.125 556.605469 545.941406 557.628906 545.867188 C 558.652344 545.792969 559.667969 545.828125 560.683594 545.972656 L 871.707031 573.113281 C 879.523438 573.78125 887.433594 579.105469 887.433594 587.984375 Z M 887.4375 682.109375 " fill-opacity="1" fill-rule="nonzero"/></g></svg>