<svg xmlns="http://www.w3.org/2000/svg" xmlns:xlink="http://www.w3.org/1999/xlink" width="1500" zoomAndPan="magnify" viewBox="0 0 1125 1124.99995" height="1500" preserveAspectRatio="xMidYMid meet" version="1.0"><defs><clipPath id="0c35f6d349"><path d="M 1053 146 L 1083.90625 146 L 1083.90625 999 L 1053 999 Z M 1053 146 " clip-rule="nonzero"/></clipPath><clipPath id="bbb258ad4a"><path d="M 40.65625 92.375 L 40.65625 1052.0625 C 40.65625 1075.257812 59.460938 1094.0625 82.65625 1094.0625 L 1042.34375 1094.0625 C 1065.539062 1094.0625 1084.34375 1075.257812 1084.34375 1052.0625 L 1084.34375 92.375 C 1084.34375 69.179688 1065.539062 50.375 1042.34375 50.375 L 82.65625 50.375 C 59.460938 50.375 40.65625 69.179688 40.65625 92.375 Z M 40.65625 92.375 " clip-rule="nonzero"/></clipPath><clipPath id="3c6dc38b7e"><path d="M 83.558594 51.277344 L 1041.441406 51.277344 C 1064.636719 51.277344 1083.441406 70.078125 1083.441406 93.277344 L 1083.441406 1051.160156 C 1083.441406 1074.355469 1064.636719 1093.160156 1041.441406 1093.160156 L 83.558594 1093.160156 C 60.363281 1093.160156 41.558594 1074.355469 41.558594 1051.160156 L 41.558594 93.277344 C 41.558594 70.078125 60.363281 51.277344 83.558594 51.277344 Z M 83.558594 51.277344 " clip-rule="nonzero"/></clipPath><clipPath id="091fc66d2c"><path d="M 41.40625 146 L 72 146 L 72 999 L 41.40625 999 Z M 41.40625 146 " clip-rule="nonzero"/></clipPath><clipPath id="f8e5779830"><path d="M 40.65625 92.375 L 40.65625 1052.0625 C 40.65625 1075.257812 59.460938 1094.0625 82.65625 1094.0625 L 1042.34375 1094.0625 C 1065.539062 1094.0625 1084.34375 1075.257812 1084.34375 1052.0625 L 1084.34375 92.375 C 1084.34375 69.179688 1065.539062 50.375 1042.34375 50.375 L 82.65625 50.375 C 59.460938 50.375 40.65625 69.179688 40.65625 92.375 Z M 40.65625 92.375 " clip-rule="nonzero"/></clipPath><clipPath id="551e0c39e6"><path d="M 83.558594 51.277344 L 1041.441406 51.277344 C 1064.636719 51.277344 1083.441406 70.078125 1083.441406 93.277344 L 1083.441406 1051.160156 C 1083.441406 1074.355469 1064.636719 1093.160156 1041.441406 1093.160156 L 83.558594 1093.160156 C 60.363281 1093.160156 41.558594 1074.355469 41.558594 1051.160156 L 41.558594 93.277344 C 41.558594 70.078125 60.363281 51.277344 83.558594 51.277344 Z M 83.558594 51.277344 " clip-rule="nonzero"/></clipPath><clipPath id="a407a663cc"><path d="M 136 51.125 L 989 51.125 L 989 82 L 136 82 Z M 136 51.125 " clip-rule="nonzero"/></clipPath><clipPath id="8a7af4b8e0"><path d="M 40.65625 92.375 L 40.65625 1052.0625 C 40.65625 1075.257812 59.460938 1094.0625 82.65625 1094.0625 L 1042.34375 1094.0625 C 1065.539062 1094.0625 1084.34375 1075.257812 1084.34375 1052.0625 L 1084.34375 92.375 C 1084.34375 69.179688 1065.539062 50.375 1042.34375 50.375 L 82.65625 50.375 C 59.460938 50.375 40.65625 69.179688 40.65625 92.375 Z M 40.65625 92.375 " clip-rule="nonzero"/></clipPath><clipPath id="615d4c2a37"><path d="M 83.558594 51.277344 L 1041.441406 51.277344 C 1064.636719 51.277344 1083.441406 70.078125 1083.441406 93.277344 L 1083.441406 1051.160156 C 1083.441406 1074.355469 1064.636719 1093.160156 1041.441406 1093.160156 L 83.558594 1093.160156 C 60.363281 1093.160156 41.558594 1074.355469 41.558594 1051.160156 L 41.558594 93.277344 C 41.558594 70.078125 60.363281 51.277344 83.558594 51.277344 Z M 83.558594 51.277344 " clip-rule="nonzero"/></clipPath><clipPath id="dc3147ba85"><path d="M 136 1062 L 989 1062 L 989 1093.625 L 136 1093.625 Z M 136 1062 " clip-rule="nonzero"/></clipPath><clipPath id="6ba0dc1a23"><path d="M 40.65625 92.375 L 40.65625 1052.0625 C 40.65625 1075.257812 59.460938 1094.0625 82.65625 1094.0625 L 1042.34375 1094.0625 C 1065.539062 1094.0625 1084.34375 1075.257812 1084.34375 1052.0625 L 1084.34375 92.375 C 1084.34375 69.179688 1065.539062 50.375 1042.34375 50.375 L 82.65625 50.375 C 59.460938 50.375 40.65625 69.179688 40.65625 92.375 Z M 40.65625 92.375 " clip-rule="nonzero"/></clipPath><clipPath id="0d70b1b951"><path d="M 83.558594 51.277344 L 1041.441406 51.277344 C 1064.636719 51.277344 1083.441406 70.078125 1083.441406 93.277344 L 1083.441406 1051.160156 C 1083.441406 1074.355469 1064.636719 1093.160156 1041.441406 1093.160156 L 83.558594 1093.160156 C 60.363281 1093.160156 41.558594 1074.355469 41.558594 1051.160156 L 41.558594 93.277344 C 41.558594 70.078125 60.363281 51.277344 83.558594 51.277344 Z M 83.558594 51.277344 " clip-rule="nonzero"/></clipPath><clipPath id="599e29d903"><path d="M 988 51.125 L 1083.90625 51.125 L 1083.90625 147 L 988 147 Z M 988 51.125 " clip-rule="nonzero"/></clipPath><clipPath id="6d19ed4f8c"><path d="M 40.65625 92.375 L 40.65625 1052.0625 C 40.65625 1075.257812 59.460938 1094.0625 82.65625 1094.0625 L 1042.34375 1094.0625 C 1065.539062 1094.0625 1084.34375 1075.257812 1084.34375 1052.0625 L 1084.34375 92.375 C 1084.34375 69.179688 1065.539062 50.375 1042.34375 50.375 L 82.65625 50.375 C 59.460938 50.375 40.65625 69.179688 40.65625 92.375 Z M 40.65625 92.375 " clip-rule="nonzero"/></clipPath><clipPath id="694bdc7977"><path d="M 83.558594 51.277344 L 1041.441406 51.277344 C 1064.636719 51.277344 1083.441406 70.078125 1083.441406 93.277344 L 1083.441406 1051.160156 C 1083.441406 1074.355469 1064.636719 1093.160156 1041.441406 1093.160156 L 83.558594 1093.160156 C 60.363281 1093.160156 41.558594 1074.355469 41.558594 1051.160156 L 41.558594 93.277344 C 41.558594 70.078125 60.363281 51.277344 83.558594 51.277344 Z M 83.558594 51.277344 " clip-rule="nonzero"/></clipPath><clipPath id="f935ac9318"><path d="M 41.40625 51.125 L 137 51.125 L 137 147 L 41.40625 147 Z M 41.40625 51.125 " clip-rule="nonzero"/></clipPath><clipPath id="ba172eae8c"><path d="M 40.65625 92.375 L 40.65625 1052.0625 C 40.65625 1075.257812 59.460938 1094.0625 82.65625 1094.0625 L 1042.34375 1094.0625 C 1065.539062 1094.0625 1084.34375 1075.257812 1084.34375 1052.0625 L 1084.34375 92.375 C 1084.34375 69.179688 1065.539062 50.375 1042.34375 50.375 L 82.65625 50.375 C 59.460938 50.375 40.65625 69.179688 40.65625 92.375 Z M 40.65625 92.375 " clip-rule="nonzero"/></clipPath><clipPath id="15e9c89ab7"><path d="M 83.558594 51.277344 L 1041.441406 51.277344 C 1064.636719 51.277344 1083.441406 70.078125 1083.441406 93.277344 L 1083.441406 1051.160156 C 1083.441406 1074.355469 1064.636719 1093.160156 1041.441406 1093.160156 L 83.558594 1093.160156 C 60.363281 1093.160156 41.558594 1074.355469 41.558594 1051.160156 L 41.558594 93.277344 C 41.558594 70.078125 60.363281 51.277344 83.558594 51.277344 Z M 83.558594 51.277344 " clip-rule="nonzero"/></clipPath><clipPath id="746de0293e"><path d="M 988 998 L 1083.90625 998 L 1083.90625 1093.625 L 988 1093.625 Z M 988 998 " clip-rule="nonzero"/></clipPath><clipPath id="dba8de6538"><path d="M 40.65625 92.375 L 40.65625 1052.0625 C 40.65625 1075.257812 59.460938 1094.0625 82.65625 1094.0625 L 1042.34375 1094.0625 C 1065.539062 1094.0625 1084.34375 1075.257812 1084.34375 1052.0625 L 1084.34375 92.375 C 1084.34375 69.179688 1065.539062 50.375 1042.34375 50.375 L 82.65625 50.375 C 59.460938 50.375 40.65625 69.179688 40.65625 92.375 Z M 40.65625 92.375 " clip-rule="nonzero"/></clipPath><clipPath id="fa1e7c118e"><path d="M 83.558594 51.277344 L 1041.441406 51.277344 C 1064.636719 51.277344 1083.441406 70.078125 1083.441406 93.277344 L 1083.441406 1051.160156 C 1083.441406 1074.355469 1064.636719 1093.160156 1041.441406 1093.160156 L 83.558594 1093.160156 C 60.363281 1093.160156 41.558594 1074.355469 41.558594 1051.160156 L 41.558594 93.277344 C 41.558594 70.078125 60.363281 51.277344 83.558594 51.277344 Z M 83.558594 51.277344 " clip-rule="nonzero"/></clipPath><clipPath id="1b2e19398a"><path d="M 41.40625 998 L 137 998 L 137 1093.625 L 41.40625 1093.625 Z M 41.40625 998 " clip-rule="nonzero"/></clipPath><clipPath id="aac6915335"><path d="M 40.65625 92.375 L 40.65625 1052.0625 C 40.65625 1075.257812 59.460938 1094.0625 82.65625 1094.0625 L 1042.34375 1094.0625 C 1065.539062 1094.0625 1084.34375 1075.257812 1084.34375 1052.0625 L 1084.34375 92.375 C 1084.34375 69.179688 1065.539062 50.375 1042.34375 50.375 L 82.65625 50.375 C 59.460938 50.375 40.65625 69.179688 40.65625 92.375 Z M 40.65625 92.375 " clip-rule="nonzero"/></clipPath><clipPath id="5cffb04e38"><path d="M 83.558594 51.277344 L 1041.441406 51.277344 C 1064.636719 51.277344 1083.441406 70.078125 1083.441406 93.277344 L 1083.441406 1051.160156 C 1083.441406 1074.355469 1064.636719 1093.160156 1041.441406 1093.160156 L 83.558594 1093.160156 C 60.363281 1093.160156 41.558594 1074.355469 41.558594 1051.160156 L 41.558594 93.277344 C 41.558594 70.078125 60.363281 51.277344 83.558594 51.277344 Z M 83.558594 51.277344 " clip-rule="nonzero"/></clipPath><clipPath id="161576cbdc"><path d="M 40.65625 50.375 L 1084.65625 50.375 L 1084.65625 1094.375 L 40.65625 1094.375 Z M 40.65625 50.375 " clip-rule="nonzero"/></clipPath><clipPath id="a2a1dae2fa"><path d="M 40.65625 92.375 L 40.65625 1052.0625 C 40.65625 1075.257812 59.460938 1094.0625 82.65625 1094.0625 L 1042.34375 1094.0625 C 1065.539062 1094.0625 1084.34375 1075.257812 1084.34375 1052.0625 L 1084.34375 92.375 C 1084.34375 69.179688 1065.539062 50.375 1042.34375 50.375 L 82.65625 50.375 C 59.460938 50.375 40.65625 69.179688 40.65625 92.375 Z M 40.65625 92.375 " clip-rule="nonzero"/></clipPath><clipPath id="9fe16446bb"><path d="M 40.65625 92.375 L 40.65625 1052.058594 C 40.65625 1075.253906 59.460938 1094.058594 82.65625 1094.058594 L 1042.339844 1094.058594 C 1065.535156 1094.058594 1084.339844 1075.253906 1084.339844 1052.058594 L 1084.339844 92.375 C 1084.339844 69.179688 1065.535156 50.375 1042.339844 50.375 L 82.65625 50.375 C 59.460938 50.375 40.65625 69.179688 40.65625 92.375 Z M 40.65625 92.375 " clip-rule="nonzero"/></clipPath><clipPath id="dad4e3cf6b"><path d="M 128.378906 218.953125 L 996.878906 218.953125 L 996.878906 925.453125 L 128.378906 925.453125 Z M 128.378906 218.953125 " clip-rule="nonzero"/></clipPath></defs><g clip-path="url(#0c35f6d349)"><g clip-path="url(#bbb258ad4a)"><g clip-path="url(#3c6dc38b7e)"><path fill="#fc6a1f" d="M 1053.15625 146.011719 L 1084.339844 146.011719 L 1084.339844 998.421875 L 1053.15625 998.421875 Z M 1053.15625 146.011719 " fill-opacity="1" fill-rule="nonzero"/></g></g></g><g clip-path="url(#091fc66d2c)"><g clip-path="url(#f8e5779830)"><g clip-path="url(#551e0c39e6)"><path fill="#fc6a1f" d="M 40.65625 146.011719 L 71.84375 146.011719 L 71.84375 998.421875 L 40.65625 998.421875 Z M 40.65625 146.011719 " fill-opacity="1" fill-rule="nonzero"/></g></g></g><g clip-path="url(#a407a663cc)"><g clip-path="url(#8a7af4b8e0)"><g clip-path="url(#615d4c2a37)"><path fill="#fc6a1f" d="M 136.292969 50.375 L 988.703125 50.375 L 988.703125 81.5625 L 136.292969 81.5625 Z M 136.292969 50.375 " fill-opacity="1" fill-rule="nonzero"/></g></g></g><g clip-path="url(#dc3147ba85)"><g clip-path="url(#6ba0dc1a23)"><g clip-path="url(#0d70b1b951)"><path fill="#fc6a1f" d="M 136.292969 1062.875 L 988.703125 1062.875 L 988.703125 1094.058594 L 136.292969 1094.058594 Z M 136.292969 1062.875 " fill-opacity="1" fill-rule="nonzero"/></g></g></g><g clip-path="url(#599e29d903)"><g clip-path="url(#6d19ed4f8c)"><g clip-path="url(#694bdc7977)"><path fill="#fc6a1f" d="M 1053.15625 81.5625 L 1053.15625 146.011719 L 1084.339844 146.011719 L 1084.339844 50.375 L 988.703125 50.375 L 988.703125 81.5625 Z M 1053.15625 81.5625 " fill-opacity="1" fill-rule="nonzero"/></g></g></g><g clip-path="url(#f935ac9318)"><g clip-path="url(#ba172eae8c)"><g clip-path="url(#15e9c89ab7)"><path fill="#fc6a1f" d="M 71.84375 81.5625 L 136.292969 81.5625 L 136.292969 50.375 L 40.65625 50.375 L 40.65625 146.011719 L 71.84375 146.011719 Z M 71.84375 81.5625 " fill-opacity="1" fill-rule="nonzero"/></g></g></g><g clip-path="url(#746de0293e)"><g clip-path="url(#dba8de6538)"><g clip-path="url(#fa1e7c118e)"><path fill="#fc6a1f" d="M 1053.15625 1062.875 L 988.703125 1062.875 L 988.703125 1094.058594 L 1084.339844 1094.058594 L 1084.339844 998.421875 L 1053.15625 998.421875 Z M 1053.15625 1062.875 " fill-opacity="1" fill-rule="nonzero"/></g></g></g><g clip-path="url(#1b2e19398a)"><g clip-path="url(#aac6915335)"><g clip-path="url(#5cffb04e38)"><path fill="#fc6a1f" d="M 71.84375 1062.875 L 71.84375 998.421875 L 40.65625 998.421875 L 40.65625 1094.058594 L 136.292969 1094.058594 L 136.292969 1062.875 Z M 71.84375 1062.875 " fill-opacity="1" fill-rule="nonzero"/></g></g></g><g clip-path="url(#161576cbdc)"><g clip-path="url(#a2a1dae2fa)"><g clip-path="url(#9fe16446bb)"><path stroke-linecap="butt" transform="matrix(0.75, 0, 0, 0.75, 40.657485, 50.375868)" fill="none" stroke-linejoin="miter" d="M -0.00164733 55.998848 L -0.00164733 1335.577083 C -0.00164733 1366.504169 25.071271 1391.577088 55.998357 1391.577088 L 1335.576593 1391.577088 C 1366.503679 1391.577088 1391.576597 1366.504169 1391.576597 1335.577083 L 1391.576597 55.998848 C 1391.576597 25.071762 1366.503679 -0.00115688 1335.576593 -0.00115688 L 55.998357 -0.00115688 C 25.071271 -0.00115688 -0.00164733 25.071762 -0.00164733 55.998848 Z M -0.00164733 55.998848 " stroke="#fc6a1f" stroke-width="66" stroke-opacity="1" stroke-miterlimit="4"/></g></g></g><g clip-path="url(#dad4e3cf6b)"><path fill="#fc6a1f" d="M 953.355469 358.390625 L 887.898438 358.390625 L 887.898438 272.503906 C 887.898438 242.972656 863.871094 218.945312 834.339844 218.945312 C 804.8125 218.945312 780.785156 242.972656 780.785156 272.503906 L 780.785156 358.390625 L 329.558594 358.390625 L 329.558594 272.503906 C 329.558594 242.972656 305.53125 218.945312 276 218.945312 C 246.46875 218.945312 222.449219 242.972656 222.449219 272.503906 L 222.449219 358.390625 L 171.636719 358.390625 C 148.035156 358.390625 128.832031 377.59375 128.832031 401.195312 L 128.832031 882.675781 C 128.832031 906.273438 148.035156 925.476562 171.636719 925.476562 L 953.355469 925.476562 C 976.953125 925.476562 996.15625 906.273438 996.15625 882.675781 L 996.15625 401.195312 C 996.15625 377.59375 976.953125 358.390625 953.355469 358.390625 Z M 814.664062 392.269531 L 814.664062 272.503906 C 814.664062 261.65625 823.492188 252.828125 834.339844 252.828125 C 845.1875 252.828125 854.019531 261.65625 854.019531 272.503906 L 854.019531 421.902344 C 854.019531 432.75 845.1875 441.578125 834.339844 441.578125 C 823.492188 441.578125 814.664062 432.75 814.664062 421.902344 Z M 256.324219 392.269531 L 256.324219 272.503906 C 256.324219 261.65625 265.152344 252.828125 276 252.828125 C 286.847656 252.828125 295.675781 261.65625 295.675781 272.503906 L 295.675781 421.902344 C 295.675781 432.75 286.847656 441.578125 276 441.578125 C 265.152344 441.578125 256.324219 432.75 256.324219 421.902344 Z M 962.277344 882.675781 C 962.277344 887.59375 958.273438 891.597656 953.355469 891.597656 L 171.636719 891.597656 C 166.71875 891.597656 162.710938 887.59375 162.710938 882.675781 L 162.710938 401.195312 C 162.710938 396.273438 166.71875 392.269531 171.636719 392.269531 L 222.449219 392.269531 L 222.449219 421.894531 C 222.449219 451.429688 246.46875 475.453125 276 475.453125 C 305.53125 475.453125 329.558594 451.421875 329.558594 421.894531 L 329.558594 392.269531 L 780.785156 392.269531 L 780.785156 421.894531 C 780.785156 451.429688 804.8125 475.453125 834.339844 475.453125 C 863.871094 475.453125 887.898438 451.421875 887.898438 421.894531 L 887.898438 392.269531 L 953.355469 392.269531 C 958.273438 392.269531 962.277344 396.273438 962.277344 401.195312 L 962.277344 882.675781 " fill-opacity="1" fill-rule="nonzero"/></g><path fill="#fc6a1f" d="M 905.828125 726.238281 L 783.671875 646.875 C 776.609375 642.289062 767.617188 641.9375 760.21875 645.957031 C 752.8125 649.972656 748.21875 657.703125 748.21875 666.128906 L 748.21875 689.503906 L 225.621094 689.503906 C 209.210938 689.503906 195.855469 702.859375 195.855469 719.277344 L 195.855469 775.417969 C 195.855469 791.835938 209.210938 805.191406 225.621094 805.191406 L 278.75 805.191406 C 288.109375 805.191406 295.691406 797.601562 295.691406 788.25 C 295.691406 778.894531 288.109375 771.304688 278.75 771.304688 L 229.726562 771.304688 L 229.726562 723.382812 L 765.152344 723.382812 C 774.507812 723.382812 782.097656 715.800781 782.097656 706.445312 L 782.097656 686.253906 L 876.136719 747.34375 L 782.097656 808.445312 L 782.097656 788.246094 C 782.097656 778.886719 774.507812 771.304688 765.152344 771.304688 L 414.269531 771.304688 C 404.914062 771.304688 397.332031 778.886719 397.332031 788.246094 C 397.332031 797.601562 404.914062 805.183594 414.269531 805.183594 L 748.210938 805.183594 L 748.210938 828.566406 C 748.210938 836.992188 752.8125 844.722656 760.21875 848.738281 C 763.648438 850.605469 767.40625 851.523438 771.167969 851.523438 C 775.527344 851.523438 779.875 850.285156 783.675781 847.820312 L 905.820312 768.457031 C 912.996094 763.796875 917.285156 755.902344 917.285156 747.34375 C 917.285156 738.785156 913.003906 730.898438 905.828125 726.238281 " fill-opacity="1" fill-rule="nonzero"/><path fill="#fc6a1f" d="M 362.164062 781.78125 C 361.738281 780.742188 361.214844 779.761719 360.605469 778.847656 C 359.976562 777.917969 359.261719 777.050781 358.484375 776.269531 C 357.703125 775.492188 356.84375 774.78125 355.910156 774.171875 C 354.996094 773.5625 354.011719 773.039062 352.996094 772.613281 C 351.964844 772.191406 350.894531 771.867188 349.8125 771.648438 C 347.644531 771.210938 345.394531 771.210938 343.203125 771.648438 C 342.121094 771.867188 341.050781 772.191406 340.039062 772.613281 C 339.003906 773.039062 338.019531 773.5625 337.105469 774.171875 C 336.175781 774.78125 335.308594 775.492188 334.53125 776.269531 C 333.75 777.050781 333.039062 777.917969 332.429688 778.847656 C 331.820312 779.761719 331.300781 780.742188 330.871094 781.78125 C 330.453125 782.789062 330.113281 783.859375 329.910156 784.945312 C 329.6875 786.027344 329.570312 787.148438 329.570312 788.246094 C 329.570312 789.347656 329.6875 790.464844 329.910156 791.5625 C 330.132812 792.636719 330.453125 793.699219 330.871094 794.734375 C 331.300781 795.753906 331.828125 796.734375 332.429688 797.648438 C 333.039062 798.578125 333.75 799.445312 334.53125 800.222656 C 335.308594 801.015625 336.175781 801.714844 337.105469 802.339844 C 338.019531 802.949219 339.003906 803.476562 340.039062 803.898438 C 341.054688 804.324219 342.121094 804.640625 343.203125 804.867188 C 344.289062 805.082031 345.40625 805.183594 346.503906 805.183594 C 347.609375 805.183594 348.726562 805.082031 349.8125 804.867188 C 350.894531 804.640625 351.957031 804.324219 352.996094 803.898438 C 354.011719 803.476562 354.996094 802.949219 355.910156 802.339844 C 356.835938 801.714844 357.703125 801.015625 358.484375 800.222656 C 359.261719 799.445312 359.976562 798.578125 360.585938 797.648438 C 361.195312 796.734375 361.714844 795.753906 362.144531 794.734375 C 362.5625 793.699219 362.902344 792.636719 363.105469 791.5625 C 363.328125 790.464844 363.445312 789.347656 363.445312 788.246094 C 363.445312 787.148438 363.328125 786.027344 363.105469 784.945312 C 362.910156 783.859375 362.582031 782.789062 362.164062 781.78125 " fill-opacity="1" fill-rule="nonzero"/><path fill="#fc6a1f" d="M 248.625 612.929688 C 249.636719 611.296875 250.144531 609.398438 250.144531 607.296875 C 250.144531 605.007812 249.609375 603.015625 248.550781 601.382812 C 247.425781 599.65625 245.882812 598.78125 243.9375 598.78125 L 206.121094 598.78125 L 206.121094 572.734375 L 226.136719 572.734375 C 228.160156 572.734375 229.734375 571.933594 230.804688 570.347656 C 231.828125 568.84375 232.34375 567.152344 232.34375 565.300781 C 232.34375 563.28125 231.800781 561.484375 230.730469 559.976562 C 229.613281 558.402344 228.066406 557.601562 226.136719 557.601562 L 206.121094 557.601562 L 206.121094 531.691406 L 243.9375 531.691406 C 245.882812 531.691406 247.433594 530.816406 248.550781 529.097656 C 249.609375 527.457031 250.144531 525.464844 250.144531 523.179688 C 250.144531 521.074219 249.636719 519.175781 248.625 517.542969 C 247.554688 515.816406 245.976562 514.933594 243.9375 514.933594 L 195.5625 514.933594 C 193.359375 514.933594 191.414062 515.46875 189.78125 516.527344 C 188.054688 517.644531 187.179688 519.195312 187.179688 521.140625 L 187.179688 609.339844 C 187.179688 611.277344 188.054688 612.828125 189.78125 613.945312 C 191.414062 615.003906 193.359375 615.542969 195.5625 615.542969 L 243.941406 615.542969 C 245.976562 615.542969 247.554688 614.664062 248.625 612.929688 " fill-opacity="1" fill-rule="nonzero"/><path fill="#fc6a1f" d="M 269.710938 613.960938 C 271.519531 615.007812 273.730469 615.542969 276.285156 615.542969 C 278.738281 615.542969 280.925781 615.007812 282.777344 613.964844 C 284.753906 612.847656 285.75 611.296875 285.75 609.339844 L 285.75 552.359375 L 300.183594 579.46875 C 301.566406 582.039062 303.71875 583.332031 306.585938 583.332031 C 309.542969 583.332031 311.742188 582.03125 313.117188 579.476562 L 327.828125 553.328125 L 327.828125 609.339844 C 327.828125 611.289062 328.804688 612.847656 330.730469 613.960938 C 332.539062 615.007812 334.746094 615.542969 337.300781 615.542969 C 339.753906 615.542969 341.945312 615.007812 343.792969 613.964844 C 345.765625 612.847656 346.769531 611.296875 346.769531 609.339844 L 346.769531 524.402344 C 346.769531 521.238281 345.847656 518.832031 344.039062 517.257812 C 342.242188 515.714844 339.980469 514.933594 337.296875 514.933594 C 333.832031 514.933594 331.089844 515.558594 329.144531 516.796875 C 327.179688 518.046875 325.125 520.605469 322.875 524.636719 L 306.722656 554.066406 L 290.5625 524.636719 C 288.320312 520.613281 286.292969 518.050781 284.375 516.804688 C 282.464844 515.566406 279.746094 514.933594 276.285156 514.933594 C 273.609375 514.933594 271.339844 515.714844 269.550781 517.257812 C 267.742188 518.832031 266.820312 521.230469 266.820312 524.402344 L 266.820312 609.339844 C 266.8125 611.289062 267.789062 612.847656 269.710938 613.960938 " fill-opacity="1" fill-rule="nonzero"/><path fill="#fc6a1f" d="M 372.007812 613.945312 C 373.640625 615.003906 375.585938 615.542969 377.789062 615.542969 L 426.167969 615.542969 C 428.210938 615.542969 429.78125 614.664062 430.851562 612.929688 C 431.859375 611.296875 432.375 609.398438 432.375 607.296875 C 432.375 605.015625 431.835938 603.023438 430.777344 601.382812 C 429.660156 599.65625 428.105469 598.78125 426.167969 598.78125 L 388.347656 598.78125 L 388.347656 572.734375 L 408.363281 572.734375 C 410.394531 572.734375 411.960938 571.933594 413.039062 570.347656 C 414.054688 568.84375 414.570312 567.144531 414.570312 565.300781 C 414.570312 563.28125 414.027344 561.484375 412.957031 559.976562 C 411.839844 558.402344 410.292969 557.601562 408.363281 557.601562 L 388.347656 557.601562 L 388.347656 531.691406 L 426.167969 531.691406 C 428.105469 531.691406 429.664062 530.816406 430.777344 529.097656 C 431.835938 527.457031 432.375 525.464844 432.375 523.179688 C 432.375 521.082031 431.859375 519.183594 430.851562 517.542969 C 429.78125 515.816406 428.210938 514.933594 426.167969 514.933594 L 377.789062 514.933594 C 375.585938 514.933594 373.640625 515.46875 372.007812 516.527344 C 370.28125 517.644531 369.40625 519.195312 369.40625 521.140625 L 369.40625 609.339844 C 369.40625 611.277344 370.28125 612.828125 372.007812 613.945312 " fill-opacity="1" fill-rule="nonzero"/><path fill="#fc6a1f" d="M 452.011719 613.960938 C 453.871094 615.007812 456.050781 615.539062 458.511719 615.539062 C 461.058594 615.539062 463.269531 615.007812 465.078125 613.960938 C 467 612.839844 467.976562 611.289062 467.976562 609.332031 L 467.976562 574.503906 L 478.371094 574.503906 L 497.488281 611.664062 C 499.046875 614.683594 501.292969 616.214844 504.167969 616.214844 C 506.933594 616.214844 509.582031 615.1875 512.046875 613.144531 C 514.542969 611.085938 515.808594 608.796875 515.808594 606.335938 C 515.808594 605.285156 515.53125 604.417969 515.058594 603.863281 L 497.617188 571.519531 C 502.824219 569.800781 507.046875 566.691406 510.183594 562.273438 C 513.472656 557.65625 515.132812 551.5 515.132812 543.964844 C 515.132812 524.699219 504.078125 514.929688 482.289062 514.929688 L 455.378906 514.929688 C 453.578125 514.929688 452.058594 515.542969 450.855469 516.746094 C 449.648438 517.949219 449.039062 519.378906 449.039062 521 L 449.039062 609.332031 C 449.039062 611.296875 450.042969 612.847656 452.011719 613.960938 Z M 467.976562 531.691406 L 482.289062 531.691406 C 491.644531 531.691406 496.191406 536.246094 496.191406 545.601562 C 496.191406 554.867188 491.644531 559.363281 482.289062 559.363281 L 467.976562 559.363281 L 467.976562 531.691406 " fill-opacity="1" fill-rule="nonzero"/><path fill="#fc6a1f" d="M 541.871094 608.722656 C 547.710938 613.78125 555.652344 616.351562 565.457031 616.351562 C 575.261719 616.351562 583.214844 613.78125 589.113281 608.722656 C 595.027344 603.640625 598.027344 595.527344 598.027344 584.597656 L 598.027344 568.429688 C 598.027344 566.738281 597.472656 565.246094 596.375 564 C 595.257812 562.734375 593.726562 562.082031 591.820312 562.082031 L 568.722656 562.082031 C 566.878906 562.082031 565.375 562.882812 564.265625 564.460938 C 563.191406 565.964844 562.652344 567.714844 562.652344 569.652344 C 562.652344 571.675781 563.167969 573.445312 564.1875 574.902344 C 565.261719 576.433594 566.785156 577.214844 568.722656 577.214844 L 579.089844 577.214844 L 579.089844 584.59375 C 579.089844 589.566406 577.898438 593.351562 575.527344 595.847656 C 573.175781 598.328125 569.785156 599.585938 565.457031 599.585938 C 556.375 599.585938 551.957031 594.679688 551.957031 584.59375 L 551.957031 546.679688 C 551.957031 536.597656 556.417969 531.691406 565.59375 531.691406 C 570.53125 531.691406 573.972656 532.871094 575.832031 535.1875 C 577.734375 537.566406 578.832031 540.71875 579.089844 544.527344 C 579.191406 548.632812 582.375 550.710938 588.554688 550.710938 C 591.820312 550.710938 594.160156 550.089844 595.691406 548.800781 C 597.242188 547.5 598.027344 545.101562 598.027344 541.652344 C 598.027344 533.515625 594.90625 526.949219 588.746094 522.132812 C 582.632812 517.355469 574.609375 514.929688 564.914062 514.929688 C 555.46875 514.929688 547.71875 517.515625 541.871094 522.625 C 536 527.753906 533.019531 535.851562 533.019531 546.6875 L 533.019531 584.597656 C 533.019531 595.527344 536 603.644531 541.871094 608.722656 " fill-opacity="1" fill-rule="nonzero"/><path fill="#fc6a1f" d="M 620.957031 613.945312 C 622.597656 615.003906 624.535156 615.542969 626.738281 615.542969 L 675.117188 615.542969 C 677.160156 615.542969 678.738281 614.664062 679.808594 612.929688 C 680.816406 611.296875 681.324219 609.398438 681.324219 607.296875 C 681.324219 605.015625 680.789062 603.023438 679.726562 601.382812 C 678.609375 599.65625 677.0625 598.78125 675.117188 598.78125 L 637.296875 598.78125 L 637.296875 572.734375 L 657.320312 572.734375 C 659.34375 572.734375 660.917969 571.933594 661.988281 570.347656 C 663.003906 568.84375 663.523438 567.144531 663.523438 565.300781 C 663.523438 563.28125 662.984375 561.484375 661.914062 559.976562 C 660.789062 558.402344 659.242188 557.601562 657.320312 557.601562 L 637.296875 557.601562 L 637.296875 531.691406 L 675.117188 531.691406 C 677.0625 531.691406 678.617188 530.816406 679.726562 529.097656 C 680.789062 527.457031 681.324219 525.464844 681.324219 523.179688 C 681.324219 521.082031 680.8125 519.183594 679.808594 517.542969 C 678.730469 515.816406 677.160156 514.933594 675.117188 514.933594 L 626.738281 514.933594 C 624.542969 514.933594 622.597656 515.46875 620.957031 516.527344 C 619.238281 517.644531 618.355469 519.195312 618.355469 521.140625 L 618.355469 609.339844 C 618.355469 611.277344 619.238281 612.828125 620.957031 613.945312 " fill-opacity="1" fill-rule="nonzero"/><path fill="#fc6a1f" d="M 700.894531 613.960938 C 702.695312 615.003906 704.914062 615.539062 707.460938 615.539062 C 709.921875 615.539062 712.101562 615.007812 713.957031 613.964844 C 715.929688 612.847656 716.933594 611.296875 716.933594 609.332031 L 716.933594 557.238281 L 744.953125 609.636719 C 747.054688 613.550781 750.671875 615.539062 755.707031 615.539062 C 758.160156 615.539062 760.347656 615.007812 762.195312 613.964844 C 764.167969 612.847656 765.171875 611.296875 765.171875 609.332031 L 765.171875 521.007812 C 765.171875 518.945312 764.1875 517.386719 762.246094 516.363281 C 760.441406 515.410156 758.238281 514.933594 755.707031 514.933594 C 753.164062 514.933594 750.960938 515.410156 749.152344 516.363281 C 747.214844 517.382812 746.234375 518.945312 746.234375 521.007812 L 746.234375 573.019531 L 721.203125 524.644531 C 719.046875 520.621094 717.117188 518.050781 715.292969 516.804688 C 713.472656 515.558594 710.835938 514.929688 707.460938 514.929688 C 704.914062 514.929688 702.703125 515.4375 700.902344 516.433594 C 698.96875 517.503906 697.996094 519.082031 697.996094 521.136719 L 697.996094 609.332031 C 697.996094 611.289062 698.96875 612.847656 700.894531 613.960938 " fill-opacity="1" fill-rule="nonzero"/><path fill="#fc6a1f" d="M 795.710938 608.652344 C 801.558594 613.761719 809.308594 616.359375 818.757812 616.359375 C 828.464844 616.359375 836.488281 613.835938 842.601562 608.878906 C 848.753906 603.882812 851.871094 597.128906 851.871094 588.8125 C 851.871094 585.234375 851.113281 582.835938 849.546875 581.476562 C 848.007812 580.132812 845.621094 579.484375 842.269531 579.484375 C 836.375 579.484375 833.238281 581.554688 832.929688 585.664062 C 832.84375 587.519531 832.648438 589.105469 832.34375 590.363281 C 832.03125 591.632812 831.453125 593.089844 830.628906 594.707031 C 829.828125 596.253906 828.511719 597.460938 826.710938 598.292969 C 824.855469 599.160156 822.496094 599.59375 819.703125 599.59375 C 810.347656 599.59375 805.800781 594.6875 805.800781 584.597656 L 805.800781 546.6875 C 805.800781 536.605469 810.257812 531.699219 819.433594 531.699219 C 821.785156 531.699219 823.867188 532.023438 825.601562 532.675781 C 827.3125 533.316406 828.601562 534.089844 829.441406 534.964844 C 830.289062 535.851562 831 536.976562 831.554688 538.304688 C 832.125 539.660156 832.476562 540.75 832.605469 541.558594 C 832.726562 542.382812 832.851562 543.402344 832.929688 544.53125 C 833.035156 548.640625 836.21875 550.71875 842.40625 550.71875 C 845.71875 550.71875 848.152344 550.046875 849.621094 548.726562 C 851.132812 547.363281 851.871094 544.964844 851.871094 541.386719 C 851.871094 533.425781 848.746094 526.957031 842.585938 522.132812 C 836.476562 517.355469 828.5 514.933594 818.890625 514.933594 C 809.445312 514.933594 801.675781 517.523438 795.777344 522.632812 C 789.863281 527.761719 786.863281 535.859375 786.863281 546.6875 L 786.863281 584.597656 C 786.863281 595.433594 789.84375 603.523438 795.710938 608.652344 " fill-opacity="1" fill-rule="nonzero"/><path fill="#fc6a1f" d="M 935.859375 517.191406 C 933.195312 515.695312 930.464844 514.933594 927.734375 514.933594 C 925.226562 514.933594 923.253906 516.234375 921.875 518.804688 L 901.648438 557.015625 L 881.554688 518.816406 C 880.269531 516.242188 878.25 514.933594 875.550781 514.933594 C 872.828125 514.933594 870.097656 515.695312 867.429688 517.183594 C 864.644531 518.75 863.234375 520.675781 863.234375 522.902344 C 863.234375 523.4375 863.375 524.089844 863.722656 524.992188 L 891.894531 573.703125 C 891.996094 573.839844 892.175781 574.203125 892.175781 575.085938 L 892.175781 609.332031 C 892.175781 611.296875 893.175781 612.847656 895.148438 613.960938 C 897.003906 615.007812 899.1875 615.539062 901.648438 615.539062 C 904.195312 615.539062 906.402344 615.007812 908.210938 613.960938 C 910.136719 612.839844 911.113281 611.289062 911.113281 609.332031 L 911.113281 575.085938 C 911.113281 574.578125 911.253906 574.109375 911.574219 573.640625 L 939.558594 524.996094 C 939.890625 524.449219 940.054688 523.742188 940.054688 522.910156 C 940.058594 520.675781 938.652344 518.75 935.859375 517.191406 " fill-opacity="1" fill-rule="nonzero"/></svg>