<svg xmlns="http://www.w3.org/2000/svg" xmlns:xlink="http://www.w3.org/1999/xlink" width="1500" zoomAndPan="magnify" viewBox="0 0 1125 1124.99995" height="1500" preserveAspectRatio="xMidYMid meet" version="1.0"><defs><clipPath id="e189e44f1e"><path d="M 1053 146 L 1083.90625 146 L 1083.90625 999 L 1053 999 Z M 1053 146 " clip-rule="nonzero"/></clipPath><clipPath id="cc7a41693b"><path d="M 40.65625 92.375 L 40.65625 1052.0625 C 40.65625 1075.257812 59.460938 1094.0625 82.65625 1094.0625 L 1042.34375 1094.0625 C 1065.539062 1094.0625 1084.34375 1075.257812 1084.34375 1052.0625 L 1084.34375 92.375 C 1084.34375 69.179688 1065.539062 50.375 1042.34375 50.375 L 82.65625 50.375 C 59.460938 50.375 40.65625 69.179688 40.65625 92.375 Z M 40.65625 92.375 " clip-rule="nonzero"/></clipPath><clipPath id="a52d185727"><path d="M 83.558594 51.277344 L 1041.441406 51.277344 C 1064.636719 51.277344 1083.441406 70.082031 1083.441406 93.277344 L 1083.441406 1051.160156 C 1083.441406 1074.355469 1064.636719 1093.160156 1041.441406 1093.160156 L 83.558594 1093.160156 C 60.363281 1093.160156 41.558594 1074.355469 41.558594 1051.160156 L 41.558594 93.277344 C 41.558594 70.082031 60.363281 51.277344 83.558594 51.277344 Z M 83.558594 51.277344 " clip-rule="nonzero"/></clipPath><clipPath id="750ba5510e"><path d="M 41.40625 146 L 72 146 L 72 999 L 41.40625 999 Z M 41.40625 146 " clip-rule="nonzero"/></clipPath><clipPath id="db76e45d89"><path d="M 40.65625 92.375 L 40.65625 1052.0625 C 40.65625 1075.257812 59.460938 1094.0625 82.65625 1094.0625 L 1042.34375 1094.0625 C 1065.539062 1094.0625 1084.34375 1075.257812 1084.34375 1052.0625 L 1084.34375 92.375 C 1084.34375 69.179688 1065.539062 50.375 1042.34375 50.375 L 82.65625 50.375 C 59.460938 50.375 40.65625 69.179688 40.65625 92.375 Z M 40.65625 92.375 " clip-rule="nonzero"/></clipPath><clipPath id="12868c9f86"><path d="M 83.558594 51.277344 L 1041.441406 51.277344 C 1064.636719 51.277344 1083.441406 70.082031 1083.441406 93.277344 L 1083.441406 1051.160156 C 1083.441406 1074.355469 1064.636719 1093.160156 1041.441406 1093.160156 L 83.558594 1093.160156 C 60.363281 1093.160156 41.558594 1074.355469 41.558594 1051.160156 L 41.558594 93.277344 C 41.558594 70.082031 60.363281 51.277344 83.558594 51.277344 Z M 83.558594 51.277344 " clip-rule="nonzero"/></clipPath><clipPath id="ec3e2d9fbc"><path d="M 136 51.125 L 989 51.125 L 989 82 L 136 82 Z M 136 51.125 " clip-rule="nonzero"/></clipPath><clipPath id="bd29e34080"><path d="M 40.65625 92.375 L 40.65625 1052.0625 C 40.65625 1075.257812 59.460938 1094.0625 82.65625 1094.0625 L 1042.34375 1094.0625 C 1065.539062 1094.0625 1084.34375 1075.257812 1084.34375 1052.0625 L 1084.34375 92.375 C 1084.34375 69.179688 1065.539062 50.375 1042.34375 50.375 L 82.65625 50.375 C 59.460938 50.375 40.65625 69.179688 40.65625 92.375 Z M 40.65625 92.375 " clip-rule="nonzero"/></clipPath><clipPath id="180304d26c"><path d="M 83.558594 51.277344 L 1041.441406 51.277344 C 1064.636719 51.277344 1083.441406 70.082031 1083.441406 93.277344 L 1083.441406 1051.160156 C 1083.441406 1074.355469 1064.636719 1093.160156 1041.441406 1093.160156 L 83.558594 1093.160156 C 60.363281 1093.160156 41.558594 1074.355469 41.558594 1051.160156 L 41.558594 93.277344 C 41.558594 70.082031 60.363281 51.277344 83.558594 51.277344 Z M 83.558594 51.277344 " clip-rule="nonzero"/></clipPath><clipPath id="b818f72bf3"><path d="M 136 1062 L 989 1062 L 989 1093.625 L 136 1093.625 Z M 136 1062 " clip-rule="nonzero"/></clipPath><clipPath id="acc1b87827"><path d="M 40.65625 92.375 L 40.65625 1052.0625 C 40.65625 1075.257812 59.460938 1094.0625 82.65625 1094.0625 L 1042.34375 1094.0625 C 1065.539062 1094.0625 1084.34375 1075.257812 1084.34375 1052.0625 L 1084.34375 92.375 C 1084.34375 69.179688 1065.539062 50.375 1042.34375 50.375 L 82.65625 50.375 C 59.460938 50.375 40.65625 69.179688 40.65625 92.375 Z M 40.65625 92.375 " clip-rule="nonzero"/></clipPath><clipPath id="d523adb48d"><path d="M 83.558594 51.277344 L 1041.441406 51.277344 C 1064.636719 51.277344 1083.441406 70.082031 1083.441406 93.277344 L 1083.441406 1051.160156 C 1083.441406 1074.355469 1064.636719 1093.160156 1041.441406 1093.160156 L 83.558594 1093.160156 C 60.363281 1093.160156 41.558594 1074.355469 41.558594 1051.160156 L 41.558594 93.277344 C 41.558594 70.082031 60.363281 51.277344 83.558594 51.277344 Z M 83.558594 51.277344 " clip-rule="nonzero"/></clipPath><clipPath id="a1bc04ec1f"><path d="M 988 51.125 L 1083.90625 51.125 L 1083.90625 147 L 988 147 Z M 988 51.125 " clip-rule="nonzero"/></clipPath><clipPath id="a5f9a60033"><path d="M 40.65625 92.375 L 40.65625 1052.0625 C 40.65625 1075.257812 59.460938 1094.0625 82.65625 1094.0625 L 1042.34375 1094.0625 C 1065.539062 1094.0625 1084.34375 1075.257812 1084.34375 1052.0625 L 1084.34375 92.375 C 1084.34375 69.179688 1065.539062 50.375 1042.34375 50.375 L 82.65625 50.375 C 59.460938 50.375 40.65625 69.179688 40.65625 92.375 Z M 40.65625 92.375 " clip-rule="nonzero"/></clipPath><clipPath id="1b4bc2f3de"><path d="M 83.558594 51.277344 L 1041.441406 51.277344 C 1064.636719 51.277344 1083.441406 70.082031 1083.441406 93.277344 L 1083.441406 1051.160156 C 1083.441406 1074.355469 1064.636719 1093.160156 1041.441406 1093.160156 L 83.558594 1093.160156 C 60.363281 1093.160156 41.558594 1074.355469 41.558594 1051.160156 L 41.558594 93.277344 C 41.558594 70.082031 60.363281 51.277344 83.558594 51.277344 Z M 83.558594 51.277344 " clip-rule="nonzero"/></clipPath><clipPath id="22b9bc8104"><path d="M 41.40625 51.125 L 137 51.125 L 137 147 L 41.40625 147 Z M 41.40625 51.125 " clip-rule="nonzero"/></clipPath><clipPath id="7982031b59"><path d="M 40.65625 92.375 L 40.65625 1052.0625 C 40.65625 1075.257812 59.460938 1094.0625 82.65625 1094.0625 L 1042.34375 1094.0625 C 1065.539062 1094.0625 1084.34375 1075.257812 1084.34375 1052.0625 L 1084.34375 92.375 C 1084.34375 69.179688 1065.539062 50.375 1042.34375 50.375 L 82.65625 50.375 C 59.460938 50.375 40.65625 69.179688 40.65625 92.375 Z M 40.65625 92.375 " clip-rule="nonzero"/></clipPath><clipPath id="a70c18f011"><path d="M 83.558594 51.277344 L 1041.441406 51.277344 C 1064.636719 51.277344 1083.441406 70.082031 1083.441406 93.277344 L 1083.441406 1051.160156 C 1083.441406 1074.355469 1064.636719 1093.160156 1041.441406 1093.160156 L 83.558594 1093.160156 C 60.363281 1093.160156 41.558594 1074.355469 41.558594 1051.160156 L 41.558594 93.277344 C 41.558594 70.082031 60.363281 51.277344 83.558594 51.277344 Z M 83.558594 51.277344 " clip-rule="nonzero"/></clipPath><clipPath id="5b94b3439f"><path d="M 988 998 L 1083.90625 998 L 1083.90625 1093.625 L 988 1093.625 Z M 988 998 " clip-rule="nonzero"/></clipPath><clipPath id="a5817939de"><path d="M 40.65625 92.375 L 40.65625 1052.0625 C 40.65625 1075.257812 59.460938 1094.0625 82.65625 1094.0625 L 1042.34375 1094.0625 C 1065.539062 1094.0625 1084.34375 1075.257812 1084.34375 1052.0625 L 1084.34375 92.375 C 1084.34375 69.179688 1065.539062 50.375 1042.34375 50.375 L 82.65625 50.375 C 59.460938 50.375 40.65625 69.179688 40.65625 92.375 Z M 40.65625 92.375 " clip-rule="nonzero"/></clipPath><clipPath id="2637362225"><path d="M 83.558594 51.277344 L 1041.441406 51.277344 C 1064.636719 51.277344 1083.441406 70.082031 1083.441406 93.277344 L 1083.441406 1051.160156 C 1083.441406 1074.355469 1064.636719 1093.160156 1041.441406 1093.160156 L 83.558594 1093.160156 C 60.363281 1093.160156 41.558594 1074.355469 41.558594 1051.160156 L 41.558594 93.277344 C 41.558594 70.082031 60.363281 51.277344 83.558594 51.277344 Z M 83.558594 51.277344 " clip-rule="nonzero"/></clipPath><clipPath id="4b4bdae21b"><path d="M 41.40625 998 L 137 998 L 137 1093.625 L 41.40625 1093.625 Z M 41.40625 998 " clip-rule="nonzero"/></clipPath><clipPath id="f8c960e5f6"><path d="M 40.65625 92.375 L 40.65625 1052.0625 C 40.65625 1075.257812 59.460938 1094.0625 82.65625 1094.0625 L 1042.34375 1094.0625 C 1065.539062 1094.0625 1084.34375 1075.257812 1084.34375 1052.0625 L 1084.34375 92.375 C 1084.34375 69.179688 1065.539062 50.375 1042.34375 50.375 L 82.65625 50.375 C 59.460938 50.375 40.65625 69.179688 40.65625 92.375 Z M 40.65625 92.375 " clip-rule="nonzero"/></clipPath><clipPath id="433736af97"><path d="M 83.558594 51.277344 L 1041.441406 51.277344 C 1064.636719 51.277344 1083.441406 70.082031 1083.441406 93.277344 L 1083.441406 1051.160156 C 1083.441406 1074.355469 1064.636719 1093.160156 1041.441406 1093.160156 L 83.558594 1093.160156 C 60.363281 1093.160156 41.558594 1074.355469 41.558594 1051.160156 L 41.558594 93.277344 C 41.558594 70.082031 60.363281 51.277344 83.558594 51.277344 Z M 83.558594 51.277344 " clip-rule="nonzero"/></clipPath><clipPath id="2f5eb7ff95"><path d="M 40.65625 50.375 L 1084.65625 50.375 L 1084.65625 1094.375 L 40.65625 1094.375 Z M 40.65625 50.375 " clip-rule="nonzero"/></clipPath><clipPath id="cd92552f11"><path d="M 40.65625 92.375 L 40.65625 1052.0625 C 40.65625 1075.257812 59.460938 1094.0625 82.65625 1094.0625 L 1042.34375 1094.0625 C 1065.539062 1094.0625 1084.34375 1075.257812 1084.34375 1052.0625 L 1084.34375 92.375 C 1084.34375 69.179688 1065.539062 50.375 1042.34375 50.375 L 82.65625 50.375 C 59.460938 50.375 40.65625 69.179688 40.65625 92.375 Z M 40.65625 92.375 " clip-rule="nonzero"/></clipPath><clipPath id="9baa1704ae"><path d="M 40.65625 92.375 L 40.65625 1052.058594 C 40.65625 1075.253906 59.460938 1094.058594 82.65625 1094.058594 L 1042.339844 1094.058594 C 1065.535156 1094.058594 1084.339844 1075.253906 1084.339844 1052.058594 L 1084.339844 92.375 C 1084.339844 69.179688 1065.535156 50.375 1042.339844 50.375 L 82.65625 50.375 C 59.460938 50.375 40.65625 69.179688 40.65625 92.375 Z M 40.65625 92.375 " clip-rule="nonzero"/></clipPath><clipPath id="35673909b7"><path d="M 671.289062 620.914062 L 974.289062 620.914062 L 974.289062 851 L 671.289062 851 Z M 671.289062 620.914062 " clip-rule="nonzero"/></clipPath><clipPath id="664be65700"><path d="M 891 620.914062 L 974.289062 620.914062 L 974.289062 698 L 891 698 Z M 891 620.914062 " clip-rule="nonzero"/></clipPath><clipPath id="6074109c4e"><path d="M 675 708.035156 L 974.289062 708.035156 L 974.289062 778 L 675 778 Z M 675 708.035156 " clip-rule="nonzero"/></clipPath><clipPath id="4eb691e971"><path d="M 150.789062 378 L 693 378 L 693 859 L 150.789062 859 Z M 150.789062 378 " clip-rule="nonzero"/></clipPath><clipPath id="20bf899bac"><path d="M 150.789062 708 L 693 708 L 693 778 L 150.789062 778 Z M 150.789062 708 " clip-rule="nonzero"/></clipPath><clipPath id="faa6dbc181"><path d="M 233 728.140625 L 411 728.140625 L 411 906.136719 L 233 906.136719 Z M 233 728.140625 " clip-rule="nonzero"/></clipPath><clipPath id="955302b46d"><path d="M 726 728.140625 L 903.617188 728.140625 L 903.617188 906.136719 L 726 906.136719 Z M 726 728.140625 " clip-rule="nonzero"/></clipPath><clipPath id="fb008a637a"><path d="M 539 218.722656 L 557 218.722656 L 557 268 L 539 268 Z M 539 218.722656 " clip-rule="nonzero"/></clipPath></defs><g clip-path="url(#e189e44f1e)"><g clip-path="url(#cc7a41693b)"><g clip-path="url(#a52d185727)"><path fill="#fc6a1f" d="M 1053.15625 146.011719 L 1084.339844 146.011719 L 1084.339844 998.421875 L 1053.15625 998.421875 Z M 1053.15625 146.011719 " fill-opacity="1" fill-rule="nonzero"/></g></g></g><g clip-path="url(#750ba5510e)"><g clip-path="url(#db76e45d89)"><g clip-path="url(#12868c9f86)"><path fill="#fc6a1f" d="M 40.65625 146.011719 L 71.84375 146.011719 L 71.84375 998.421875 L 40.65625 998.421875 Z M 40.65625 146.011719 " fill-opacity="1" fill-rule="nonzero"/></g></g></g><g clip-path="url(#ec3e2d9fbc)"><g clip-path="url(#bd29e34080)"><g clip-path="url(#180304d26c)"><path fill="#fc6a1f" d="M 136.292969 50.375 L 988.703125 50.375 L 988.703125 81.5625 L 136.292969 81.5625 Z M 136.292969 50.375 " fill-opacity="1" fill-rule="nonzero"/></g></g></g><g clip-path="url(#b818f72bf3)"><g clip-path="url(#acc1b87827)"><g clip-path="url(#d523adb48d)"><path fill="#fc6a1f" d="M 136.292969 1062.875 L 988.703125 1062.875 L 988.703125 1094.058594 L 136.292969 1094.058594 Z M 136.292969 1062.875 " fill-opacity="1" fill-rule="nonzero"/></g></g></g><g clip-path="url(#a1bc04ec1f)"><g clip-path="url(#a5f9a60033)"><g clip-path="url(#1b4bc2f3de)"><path fill="#fc6a1f" d="M 1053.15625 81.5625 L 1053.15625 146.011719 L 1084.339844 146.011719 L 1084.339844 50.375 L 988.703125 50.375 L 988.703125 81.5625 Z M 1053.15625 81.5625 " fill-opacity="1" fill-rule="nonzero"/></g></g></g><g clip-path="url(#22b9bc8104)"><g clip-path="url(#7982031b59)"><g clip-path="url(#a70c18f011)"><path fill="#fc6a1f" d="M 71.84375 81.5625 L 136.292969 81.5625 L 136.292969 50.375 L 40.65625 50.375 L 40.65625 146.011719 L 71.84375 146.011719 Z M 71.84375 81.5625 " fill-opacity="1" fill-rule="nonzero"/></g></g></g><g clip-path="url(#5b94b3439f)"><g clip-path="url(#a5817939de)"><g clip-path="url(#2637362225)"><path fill="#fc6a1f" d="M 1053.15625 1062.875 L 988.703125 1062.875 L 988.703125 1094.058594 L 1084.339844 1094.058594 L 1084.339844 998.421875 L 1053.15625 998.421875 Z M 1053.15625 1062.875 " fill-opacity="1" fill-rule="nonzero"/></g></g></g><g clip-path="url(#4b4bdae21b)"><g clip-path="url(#f8c960e5f6)"><g clip-path="url(#433736af97)"><path fill="#fc6a1f" d="M 71.84375 1062.875 L 71.84375 998.421875 L 40.65625 998.421875 L 40.65625 1094.058594 L 136.292969 1094.058594 L 136.292969 1062.875 Z M 71.84375 1062.875 " fill-opacity="1" fill-rule="nonzero"/></g></g></g><g clip-path="url(#2f5eb7ff95)"><g clip-path="url(#cd92552f11)"><g clip-path="url(#9baa1704ae)"><path stroke-linecap="butt" transform="matrix(0.75, 0, 0, 0.75, 40.657485, 50.376069)" fill="none" stroke-linejoin="miter" d="M -0.00164733 55.998579 L -0.00164733 1335.576814 C -0.00164733 1366.5039 25.071271 1391.576819 55.998357 1391.576819 L 1335.576593 1391.576819 C 1366.503679 1391.576819 1391.576597 1366.5039 1391.576597 1335.576814 L 1391.576597 55.998579 C 1391.576597 25.071493 1366.503679 -0.00142568 1335.576593 -0.00142568 L 55.998357 -0.00142568 C 25.071271 -0.00142568 -0.00164733 25.071493 -0.00164733 55.998579 Z M -0.00164733 55.998579 " stroke="#fc6a1f" stroke-width="66" stroke-opacity="1" stroke-miterlimit="4"/></g></g></g><g clip-path="url(#35673909b7)"><path fill="#fc6a1f" d="M 908.886719 850.378906 L 891.191406 850.378906 C 886.476562 850.378906 882.621094 846.519531 882.621094 841.800781 C 882.621094 837.085938 886.476562 833.222656 891.191406 833.222656 L 908.886719 833.222656 C 935.484375 833.222656 957.140625 811.5625 957.140625 784.976562 L 957.140625 686.324219 C 957.140625 659.726562 935.484375 638.070312 908.886719 638.070312 L 692.285156 638.070312 L 692.285156 830.542969 C 692.285156 831.449219 692.234375 832.367188 692.179688 833.222656 L 738.394531 833.222656 C 743.113281 833.222656 746.972656 837.085938 746.972656 841.800781 C 746.972656 846.519531 743.113281 850.378906 738.394531 850.378906 L 679.953125 850.378906 C 676.472656 850.378906 673.367188 848.292969 672.023438 845.070312 C 670.679688 841.851562 671.429688 838.152344 673.898438 835.742188 C 674.328125 835.316406 675.128906 833.648438 675.128906 830.542969 L 675.128906 629.492188 C 675.128906 624.769531 678.984375 620.914062 683.707031 620.914062 L 908.886719 620.914062 C 944.96875 620.914062 974.296875 650.242188 974.296875 686.324219 L 974.296875 784.976562 C 974.296875 821.058594 944.96875 850.378906 908.886719 850.378906 " fill-opacity="1" fill-rule="evenodd"/></g><g clip-path="url(#664be65700)"><path fill="#fc6a1f" d="M 965.71875 697.582031 L 914.253906 697.582031 C 901.539062 697.582031 891.191406 687.503906 891.191406 675.058594 L 891.191406 629.492188 C 891.191406 624.769531 895.054688 620.914062 899.769531 620.914062 C 904.488281 620.914062 908.355469 624.769531 908.355469 629.492188 L 908.355469 675.058594 C 908.355469 677.957031 911.03125 680.425781 914.253906 680.425781 L 965.71875 680.425781 C 970.433594 680.425781 974.296875 684.28125 974.296875 689.003906 C 974.296875 693.726562 970.433594 697.582031 965.71875 697.582031 " fill-opacity="1" fill-rule="evenodd"/></g><g clip-path="url(#6074109c4e)"><path fill="#fc6a1f" d="M 965.71875 777.460938 L 878.328125 777.460938 C 873.605469 777.460938 869.75 773.605469 869.75 768.882812 C 869.75 764.171875 873.605469 760.304688 878.328125 760.304688 L 965.71875 760.304688 C 970.433594 760.304688 974.296875 764.171875 974.296875 768.882812 C 974.296875 773.605469 970.433594 777.460938 965.71875 777.460938 Z M 751.265625 777.460938 L 683.707031 777.460938 C 678.984375 777.460938 675.128906 773.605469 675.128906 768.882812 C 675.128906 764.171875 678.984375 760.304688 683.707031 760.304688 L 751.265625 760.304688 C 755.976562 760.304688 759.84375 764.171875 759.84375 768.882812 C 759.84375 773.605469 755.976562 777.460938 751.265625 777.460938 Z M 965.71875 725.996094 L 683.707031 725.996094 C 678.984375 725.996094 675.128906 722.136719 675.128906 717.417969 C 675.128906 712.695312 678.984375 708.839844 683.707031 708.839844 L 965.71875 708.839844 C 970.433594 708.839844 974.296875 712.703125 974.296875 717.417969 C 974.296875 722.136719 970.433594 725.996094 965.71875 725.996094 " fill-opacity="1" fill-rule="evenodd"/></g><path fill="#fc6a1f" d="M 908.886719 638.070312 C 905.988281 638.070312 903.152344 636.621094 901.539062 633.941406 L 796.992188 461.3125 C 796.9375 461.25 796.886719 461.144531 796.832031 461.09375 C 796.082031 459.75 795.386719 458.464844 794.746094 457.175781 C 790.613281 449.398438 789.171875 447.742188 786.648438 447.742188 L 683.707031 447.742188 C 678.984375 447.742188 675.128906 443.886719 675.128906 439.164062 C 675.128906 434.445312 678.984375 430.585938 683.707031 430.585938 L 786.648438 430.585938 C 800.054688 430.585938 805.734375 441.3125 809.914062 449.136719 C 810.507812 450.265625 811.144531 451.441406 811.738281 452.566406 L 916.234375 625.09375 C 918.695312 629.167969 917.410156 634.421875 913.335938 636.890625 C 911.941406 637.695312 910.386719 638.070312 908.886719 638.070312 " fill-opacity="1" fill-rule="evenodd"/><g clip-path="url(#4eb691e971)"><path fill="#fc6a1f" d="M 664.414062 858.957031 L 395.269531 858.957031 C 390.550781 858.957031 386.695312 855.097656 386.695312 850.378906 C 386.695312 845.664062 390.550781 841.800781 395.269531 841.800781 L 664.414062 841.800781 C 670.199219 841.800781 675.128906 836.652344 675.128906 830.542969 L 675.128906 406.992188 C 675.128906 400.882812 670.199219 395.734375 664.414062 395.734375 L 178.667969 395.734375 C 172.875 395.734375 167.945312 400.882812 167.945312 406.992188 L 167.945312 830.542969 C 167.945312 836.652344 172.875 841.800781 178.667969 841.800781 L 248.898438 841.800781 C 253.617188 841.800781 257.484375 845.664062 257.484375 850.378906 C 257.484375 855.097656 253.617188 858.957031 248.898438 858.957031 L 178.667969 858.957031 C 163.285156 858.957031 150.789062 846.199219 150.789062 830.542969 L 150.789062 406.992188 C 150.789062 391.335938 163.285156 378.578125 178.667969 378.578125 L 664.414062 378.578125 C 679.796875 378.578125 692.285156 391.335938 692.285156 406.992188 L 692.285156 830.542969 C 692.285156 846.199219 679.796875 858.957031 664.414062 858.957031 " fill-opacity="1" fill-rule="evenodd"/></g><g clip-path="url(#20bf899bac)"><path fill="#fc6a1f" d="M 683.707031 777.460938 L 385.621094 777.460938 C 380.898438 777.460938 377.042969 773.605469 377.042969 768.882812 C 377.042969 764.171875 380.898438 760.304688 385.621094 760.304688 L 683.707031 760.304688 C 688.429688 760.304688 692.285156 764.171875 692.285156 768.882812 C 692.285156 773.605469 688.429688 777.460938 683.707031 777.460938 Z M 258.015625 777.460938 L 159.367188 777.460938 C 154.644531 777.460938 150.789062 773.605469 150.789062 768.882812 C 150.789062 764.171875 154.644531 760.304688 159.367188 760.304688 L 258.015625 760.304688 C 262.738281 760.304688 266.59375 764.171875 266.59375 768.882812 C 266.59375 773.605469 262.738281 777.460938 258.015625 777.460938 Z M 683.707031 725.996094 L 159.367188 725.996094 C 154.644531 725.996094 150.789062 722.136719 150.789062 717.417969 C 150.789062 712.695312 154.644531 708.839844 159.367188 708.839844 L 683.707031 708.839844 C 688.429688 708.839844 692.285156 712.703125 692.285156 717.417969 C 692.285156 722.136719 688.429688 725.996094 683.707031 725.996094 " fill-opacity="1" fill-rule="evenodd"/></g><g clip-path="url(#faa6dbc181)"><path fill="#fc6a1f" d="M 321.8125 906.136719 C 273.027344 906.136719 233.355469 866.199219 233.355469 817.140625 C 233.355469 768.351562 273.027344 728.671875 321.8125 728.671875 C 370.871094 728.671875 410.8125 768.351562 410.8125 817.140625 C 410.8125 840.945312 401.597656 863.300781 384.757812 880.082031 C 367.976562 896.914062 345.621094 906.136719 321.8125 906.136719 Z M 321.8125 745.835938 C 282.519531 745.835938 250.511719 777.835938 250.511719 817.140625 C 250.511719 856.765625 282.519531 888.980469 321.8125 888.980469 C 361.441406 888.980469 393.65625 856.757812 393.65625 817.140625 C 393.65625 777.835938 361.441406 745.835938 321.8125 745.835938 " fill-opacity="1" fill-rule="evenodd"/></g><path fill="#fc6a1f" d="M 321.8125 854.128906 C 311.953125 854.128906 302.730469 850.324219 295.757812 843.464844 C 288.742188 836.496094 284.824219 827.164062 284.824219 817.140625 C 284.824219 807.332031 288.679688 798.054688 295.707031 791.03125 C 302.730469 784.007812 312.007812 780.148438 321.8125 780.148438 C 331.839844 780.148438 341.222656 784.007812 348.140625 791.082031 C 355 798.054688 358.8125 807.269531 358.8125 817.140625 C 358.8125 837.890625 342.566406 854.128906 321.8125 854.128906 Z M 321.8125 797.304688 C 311.039062 797.304688 301.980469 806.363281 301.980469 817.140625 C 301.980469 828.238281 310.722656 836.972656 321.8125 836.972656 C 333.132812 836.972656 341.65625 828.449219 341.65625 817.140625 C 341.65625 806.039062 332.914062 797.304688 321.8125 797.304688 " fill-opacity="1" fill-rule="evenodd"/><g clip-path="url(#955302b46d)"><path fill="#fc6a1f" d="M 815.0625 906.136719 C 791.257812 906.136719 768.902344 896.914062 752.121094 880.082031 C 735.339844 863.25 726.0625 840.945312 726.0625 817.140625 C 726.0625 768.351562 766.003906 728.671875 815.0625 728.671875 C 863.851562 728.671875 903.527344 768.351562 903.527344 817.140625 C 903.527344 866.199219 863.851562 906.136719 815.0625 906.136719 Z M 815.0625 745.835938 C 775.445312 745.835938 743.21875 777.835938 743.21875 817.140625 C 743.21875 856.765625 775.445312 888.980469 815.0625 888.980469 C 854.363281 888.980469 886.363281 856.757812 886.363281 817.140625 C 886.363281 777.835938 854.355469 745.835938 815.0625 745.835938 " fill-opacity="1" fill-rule="evenodd"/></g><path fill="#fc6a1f" d="M 815.0625 854.128906 C 794.3125 854.128906 778.070312 837.890625 778.070312 817.140625 C 778.070312 807.269531 781.875 798.054688 788.734375 791.082031 C 795.707031 784.058594 805.035156 780.148438 815.0625 780.148438 C 824.878906 780.148438 834.148438 784.007812 841.171875 791.03125 C 848.195312 798.054688 852.0625 807.332031 852.0625 817.140625 C 852.0625 827.164062 848.195312 836.546875 841.117188 843.464844 C 834.148438 850.324219 824.921875 854.128906 815.0625 854.128906 Z M 815.0625 797.304688 C 803.960938 797.304688 795.226562 806.039062 795.226562 817.140625 C 795.226562 828.449219 803.753906 836.972656 815.0625 836.972656 C 826.164062 836.972656 834.898438 828.238281 834.898438 817.140625 C 834.898438 806.363281 825.839844 797.304688 815.0625 797.304688 " fill-opacity="1" fill-rule="evenodd"/><path fill="#fc6a1f" d="M 452.097656 649.324219 L 391.519531 649.324219 C 386.796875 649.324219 382.941406 645.46875 382.941406 640.75 L 382.941406 581.234375 L 323.429688 581.234375 C 318.707031 581.234375 314.851562 577.378906 314.851562 572.65625 L 314.851562 512.082031 C 314.851562 507.359375 318.707031 503.503906 323.429688 503.503906 L 382.941406 503.503906 L 382.941406 444.523438 C 382.941406 439.808594 386.796875 435.945312 391.519531 435.945312 L 452.097656 435.945312 C 456.816406 435.945312 460.675781 439.808594 460.675781 444.523438 L 460.675781 503.503906 L 519.65625 503.503906 C 524.367188 503.503906 528.230469 507.359375 528.230469 512.082031 L 528.230469 572.65625 C 528.230469 577.378906 524.367188 581.234375 519.65625 581.234375 L 460.675781 581.234375 L 460.675781 640.75 C 460.675781 645.46875 456.816406 649.324219 452.097656 649.324219 Z M 400.097656 632.171875 L 443.519531 632.171875 L 443.519531 572.65625 C 443.519531 567.9375 447.382812 564.078125 452.097656 564.078125 L 511.078125 564.078125 L 511.078125 520.660156 L 452.097656 520.660156 C 447.382812 520.660156 443.519531 516.792969 443.519531 512.082031 L 443.519531 453.101562 L 400.097656 453.101562 L 400.097656 512.082031 C 400.097656 516.792969 396.230469 520.660156 391.519531 520.660156 L 332.007812 520.660156 L 332.007812 564.078125 L 391.519531 564.078125 C 396.230469 564.078125 400.097656 567.9375 400.097656 572.65625 L 400.097656 632.171875 " fill-opacity="1" fill-rule="evenodd"/><path fill="#fc6a1f" d="M 583.453125 395.734375 C 578.730469 395.734375 574.875 391.878906 574.875 387.15625 L 574.875 336.222656 C 574.875 321.691406 562.597656 309.414062 548.066406 309.414062 C 533.589844 309.414062 521.792969 321.429688 521.792969 336.222656 L 521.792969 387.15625 C 521.792969 391.878906 517.933594 395.734375 513.214844 395.734375 C 508.503906 395.734375 504.636719 391.878906 504.636719 387.15625 L 504.636719 336.222656 C 504.636719 311.988281 524.105469 292.257812 548.066406 292.257812 C 559.699219 292.257812 570.695312 296.875 579.054688 305.234375 C 587.414062 313.601562 592.03125 324.589844 592.03125 336.222656 L 592.03125 387.15625 C 592.03125 391.878906 588.171875 395.734375 583.453125 395.734375 " fill-opacity="1" fill-rule="evenodd"/><g clip-path="url(#fb008a637a)"><path fill="#fc6a1f" d="M 548.066406 267.066406 C 543.347656 267.066406 539.488281 263.199219 539.488281 258.488281 L 539.488281 227.386719 C 539.488281 222.667969 543.347656 218.808594 548.066406 218.808594 C 552.789062 218.808594 556.644531 222.667969 556.644531 227.386719 L 556.644531 258.488281 C 556.644531 263.199219 552.789062 267.066406 548.066406 267.066406 " fill-opacity="1" fill-rule="evenodd"/></g><path fill="#fc6a1f" d="M 608.652344 292.257812 C 606.453125 292.257812 604.253906 291.402344 602.589844 289.746094 C 599.273438 286.421875 599.273438 280.949219 602.589844 277.625 L 624.578125 255.644531 C 627.894531 252.320312 633.367188 252.320312 636.691406 255.644531 C 640.015625 258.96875 640.015625 264.441406 636.691406 267.753906 L 614.707031 289.746094 C 613.050781 291.402344 610.84375 292.257812 608.652344 292.257812 " fill-opacity="1" fill-rule="evenodd"/><path fill="#fc6a1f" d="M 487.480469 292.257812 C 485.28125 292.257812 483.089844 291.402344 481.425781 289.746094 L 459.445312 267.753906 C 456.117188 264.441406 456.117188 258.96875 459.445312 255.644531 C 462.769531 252.320312 468.238281 252.320312 471.5625 255.644531 L 493.546875 277.625 C 496.871094 280.949219 496.871094 286.421875 493.546875 289.746094 C 491.878906 291.402344 489.679688 292.257812 487.480469 292.257812 " fill-opacity="1" fill-rule="evenodd"/></svg>