<svg xmlns="http://www.w3.org/2000/svg" xmlns:xlink="http://www.w3.org/1999/xlink" width="1500" zoomAndPan="magnify" viewBox="0 0 1125 1124.99995" height="1500" preserveAspectRatio="xMidYMid meet" version="1.0"><defs><clipPath id="ddf5c93240"><path d="M 1053 146 L 1083.90625 146 L 1083.90625 999 L 1053 999 Z M 1053 146 " clip-rule="nonzero"/></clipPath><clipPath id="0d1c886473"><path d="M 40.65625 92.375 L 40.65625 1052.0625 C 40.65625 1075.257812 59.460938 1094.0625 82.65625 1094.0625 L 1042.34375 1094.0625 C 1065.539062 1094.0625 1084.34375 1075.257812 1084.34375 1052.0625 L 1084.34375 92.375 C 1084.34375 69.179688 1065.539062 50.375 1042.34375 50.375 L 82.65625 50.375 C 59.460938 50.375 40.65625 69.179688 40.65625 92.375 Z M 40.65625 92.375 " clip-rule="nonzero"/></clipPath><clipPath id="cd46354933"><path d="M 83.558594 51.277344 L 1041.441406 51.277344 C 1064.636719 51.277344 1083.441406 70.078125 1083.441406 93.277344 L 1083.441406 1051.160156 C 1083.441406 1074.355469 1064.636719 1093.160156 1041.441406 1093.160156 L 83.558594 1093.160156 C 60.363281 1093.160156 41.558594 1074.355469 41.558594 1051.160156 L 41.558594 93.277344 C 41.558594 70.078125 60.363281 51.277344 83.558594 51.277344 Z M 83.558594 51.277344 " clip-rule="nonzero"/></clipPath><clipPath id="cf4efacf3c"><path d="M 41.40625 146 L 72 146 L 72 999 L 41.40625 999 Z M 41.40625 146 " clip-rule="nonzero"/></clipPath><clipPath id="473ddba790"><path d="M 40.65625 92.375 L 40.65625 1052.0625 C 40.65625 1075.257812 59.460938 1094.0625 82.65625 1094.0625 L 1042.34375 1094.0625 C 1065.539062 1094.0625 1084.34375 1075.257812 1084.34375 1052.0625 L 1084.34375 92.375 C 1084.34375 69.179688 1065.539062 50.375 1042.34375 50.375 L 82.65625 50.375 C 59.460938 50.375 40.65625 69.179688 40.65625 92.375 Z M 40.65625 92.375 " clip-rule="nonzero"/></clipPath><clipPath id="e5a89ac0b5"><path d="M 83.558594 51.277344 L 1041.441406 51.277344 C 1064.636719 51.277344 1083.441406 70.078125 1083.441406 93.277344 L 1083.441406 1051.160156 C 1083.441406 1074.355469 1064.636719 1093.160156 1041.441406 1093.160156 L 83.558594 1093.160156 C 60.363281 1093.160156 41.558594 1074.355469 41.558594 1051.160156 L 41.558594 93.277344 C 41.558594 70.078125 60.363281 51.277344 83.558594 51.277344 Z M 83.558594 51.277344 " clip-rule="nonzero"/></clipPath><clipPath id="4288f1a965"><path d="M 136 51.125 L 989 51.125 L 989 82 L 136 82 Z M 136 51.125 " clip-rule="nonzero"/></clipPath><clipPath id="ecabb8ca49"><path d="M 40.65625 92.375 L 40.65625 1052.0625 C 40.65625 1075.257812 59.460938 1094.0625 82.65625 1094.0625 L 1042.34375 1094.0625 C 1065.539062 1094.0625 1084.34375 1075.257812 1084.34375 1052.0625 L 1084.34375 92.375 C 1084.34375 69.179688 1065.539062 50.375 1042.34375 50.375 L 82.65625 50.375 C 59.460938 50.375 40.65625 69.179688 40.65625 92.375 Z M 40.65625 92.375 " clip-rule="nonzero"/></clipPath><clipPath id="4896fc6f62"><path d="M 83.558594 51.277344 L 1041.441406 51.277344 C 1064.636719 51.277344 1083.441406 70.078125 1083.441406 93.277344 L 1083.441406 1051.160156 C 1083.441406 1074.355469 1064.636719 1093.160156 1041.441406 1093.160156 L 83.558594 1093.160156 C 60.363281 1093.160156 41.558594 1074.355469 41.558594 1051.160156 L 41.558594 93.277344 C 41.558594 70.078125 60.363281 51.277344 83.558594 51.277344 Z M 83.558594 51.277344 " clip-rule="nonzero"/></clipPath><clipPath id="e88b91f5a3"><path d="M 136 1062 L 989 1062 L 989 1093.625 L 136 1093.625 Z M 136 1062 " clip-rule="nonzero"/></clipPath><clipPath id="36e6ac363d"><path d="M 40.65625 92.375 L 40.65625 1052.0625 C 40.65625 1075.257812 59.460938 1094.0625 82.65625 1094.0625 L 1042.34375 1094.0625 C 1065.539062 1094.0625 1084.34375 1075.257812 1084.34375 1052.0625 L 1084.34375 92.375 C 1084.34375 69.179688 1065.539062 50.375 1042.34375 50.375 L 82.65625 50.375 C 59.460938 50.375 40.65625 69.179688 40.65625 92.375 Z M 40.65625 92.375 " clip-rule="nonzero"/></clipPath><clipPath id="eb067b6df5"><path d="M 83.558594 51.277344 L 1041.441406 51.277344 C 1064.636719 51.277344 1083.441406 70.078125 1083.441406 93.277344 L 1083.441406 1051.160156 C 1083.441406 1074.355469 1064.636719 1093.160156 1041.441406 1093.160156 L 83.558594 1093.160156 C 60.363281 1093.160156 41.558594 1074.355469 41.558594 1051.160156 L 41.558594 93.277344 C 41.558594 70.078125 60.363281 51.277344 83.558594 51.277344 Z M 83.558594 51.277344 " clip-rule="nonzero"/></clipPath><clipPath id="15af94a191"><path d="M 988 51.125 L 1083.90625 51.125 L 1083.90625 147 L 988 147 Z M 988 51.125 " clip-rule="nonzero"/></clipPath><clipPath id="567d68e044"><path d="M 40.65625 92.375 L 40.65625 1052.0625 C 40.65625 1075.257812 59.460938 1094.0625 82.65625 1094.0625 L 1042.34375 1094.0625 C 1065.539062 1094.0625 1084.34375 1075.257812 1084.34375 1052.0625 L 1084.34375 92.375 C 1084.34375 69.179688 1065.539062 50.375 1042.34375 50.375 L 82.65625 50.375 C 59.460938 50.375 40.65625 69.179688 40.65625 92.375 Z M 40.65625 92.375 " clip-rule="nonzero"/></clipPath><clipPath id="db3071c9c0"><path d="M 83.558594 51.277344 L 1041.441406 51.277344 C 1064.636719 51.277344 1083.441406 70.078125 1083.441406 93.277344 L 1083.441406 1051.160156 C 1083.441406 1074.355469 1064.636719 1093.160156 1041.441406 1093.160156 L 83.558594 1093.160156 C 60.363281 1093.160156 41.558594 1074.355469 41.558594 1051.160156 L 41.558594 93.277344 C 41.558594 70.078125 60.363281 51.277344 83.558594 51.277344 Z M 83.558594 51.277344 " clip-rule="nonzero"/></clipPath><clipPath id="f3a1a3aa78"><path d="M 41.40625 51.125 L 137 51.125 L 137 147 L 41.40625 147 Z M 41.40625 51.125 " clip-rule="nonzero"/></clipPath><clipPath id="cf90606b1d"><path d="M 40.65625 92.375 L 40.65625 1052.0625 C 40.65625 1075.257812 59.460938 1094.0625 82.65625 1094.0625 L 1042.34375 1094.0625 C 1065.539062 1094.0625 1084.34375 1075.257812 1084.34375 1052.0625 L 1084.34375 92.375 C 1084.34375 69.179688 1065.539062 50.375 1042.34375 50.375 L 82.65625 50.375 C 59.460938 50.375 40.65625 69.179688 40.65625 92.375 Z M 40.65625 92.375 " clip-rule="nonzero"/></clipPath><clipPath id="d1cbca141d"><path d="M 83.558594 51.277344 L 1041.441406 51.277344 C 1064.636719 51.277344 1083.441406 70.078125 1083.441406 93.277344 L 1083.441406 1051.160156 C 1083.441406 1074.355469 1064.636719 1093.160156 1041.441406 1093.160156 L 83.558594 1093.160156 C 60.363281 1093.160156 41.558594 1074.355469 41.558594 1051.160156 L 41.558594 93.277344 C 41.558594 70.078125 60.363281 51.277344 83.558594 51.277344 Z M 83.558594 51.277344 " clip-rule="nonzero"/></clipPath><clipPath id="6882f5d925"><path d="M 988 998 L 1083.90625 998 L 1083.90625 1093.625 L 988 1093.625 Z M 988 998 " clip-rule="nonzero"/></clipPath><clipPath id="ce3998ac7e"><path d="M 40.65625 92.375 L 40.65625 1052.0625 C 40.65625 1075.257812 59.460938 1094.0625 82.65625 1094.0625 L 1042.34375 1094.0625 C 1065.539062 1094.0625 1084.34375 1075.257812 1084.34375 1052.0625 L 1084.34375 92.375 C 1084.34375 69.179688 1065.539062 50.375 1042.34375 50.375 L 82.65625 50.375 C 59.460938 50.375 40.65625 69.179688 40.65625 92.375 Z M 40.65625 92.375 " clip-rule="nonzero"/></clipPath><clipPath id="c5635a31ab"><path d="M 83.558594 51.277344 L 1041.441406 51.277344 C 1064.636719 51.277344 1083.441406 70.078125 1083.441406 93.277344 L 1083.441406 1051.160156 C 1083.441406 1074.355469 1064.636719 1093.160156 1041.441406 1093.160156 L 83.558594 1093.160156 C 60.363281 1093.160156 41.558594 1074.355469 41.558594 1051.160156 L 41.558594 93.277344 C 41.558594 70.078125 60.363281 51.277344 83.558594 51.277344 Z M 83.558594 51.277344 " clip-rule="nonzero"/></clipPath><clipPath id="a6e28f431c"><path d="M 41.40625 998 L 137 998 L 137 1093.625 L 41.40625 1093.625 Z M 41.40625 998 " clip-rule="nonzero"/></clipPath><clipPath id="e5da163511"><path d="M 40.65625 92.375 L 40.65625 1052.0625 C 40.65625 1075.257812 59.460938 1094.0625 82.65625 1094.0625 L 1042.34375 1094.0625 C 1065.539062 1094.0625 1084.34375 1075.257812 1084.34375 1052.0625 L 1084.34375 92.375 C 1084.34375 69.179688 1065.539062 50.375 1042.34375 50.375 L 82.65625 50.375 C 59.460938 50.375 40.65625 69.179688 40.65625 92.375 Z M 40.65625 92.375 " clip-rule="nonzero"/></clipPath><clipPath id="7a65d13c0c"><path d="M 83.558594 51.277344 L 1041.441406 51.277344 C 1064.636719 51.277344 1083.441406 70.078125 1083.441406 93.277344 L 1083.441406 1051.160156 C 1083.441406 1074.355469 1064.636719 1093.160156 1041.441406 1093.160156 L 83.558594 1093.160156 C 60.363281 1093.160156 41.558594 1074.355469 41.558594 1051.160156 L 41.558594 93.277344 C 41.558594 70.078125 60.363281 51.277344 83.558594 51.277344 Z M 83.558594 51.277344 " clip-rule="nonzero"/></clipPath><clipPath id="1b6217d846"><path d="M 40.65625 50.375 L 1084.65625 50.375 L 1084.65625 1094.375 L 40.65625 1094.375 Z M 40.65625 50.375 " clip-rule="nonzero"/></clipPath><clipPath id="140b99ac58"><path d="M 40.65625 92.375 L 40.65625 1052.0625 C 40.65625 1075.257812 59.460938 1094.0625 82.65625 1094.0625 L 1042.34375 1094.0625 C 1065.539062 1094.0625 1084.34375 1075.257812 1084.34375 1052.0625 L 1084.34375 92.375 C 1084.34375 69.179688 1065.539062 50.375 1042.34375 50.375 L 82.65625 50.375 C 59.460938 50.375 40.65625 69.179688 40.65625 92.375 Z M 40.65625 92.375 " clip-rule="nonzero"/></clipPath><clipPath id="c9c3c4d2f7"><path d="M 40.65625 92.375 L 40.65625 1052.058594 C 40.65625 1075.253906 59.460938 1094.058594 82.65625 1094.058594 L 1042.339844 1094.058594 C 1065.535156 1094.058594 1084.339844 1075.253906 1084.339844 1052.058594 L 1084.339844 92.375 C 1084.339844 69.179688 1065.535156 50.375 1042.339844 50.375 L 82.65625 50.375 C 59.460938 50.375 40.65625 69.179688 40.65625 92.375 Z M 40.65625 92.375 " clip-rule="nonzero"/></clipPath><clipPath id="40f0a76f67"><path d="M 157.683594 200 L 834 200 L 834 952 L 157.683594 952 Z M 157.683594 200 " clip-rule="nonzero"/></clipPath></defs><g clip-path="url(#ddf5c93240)"><g clip-path="url(#0d1c886473)"><g clip-path="url(#cd46354933)"><path fill="#fc6a1f" d="M 1053.15625 146.011719 L 1084.339844 146.011719 L 1084.339844 998.421875 L 1053.15625 998.421875 Z M 1053.15625 146.011719 " fill-opacity="1" fill-rule="nonzero"/></g></g></g><g clip-path="url(#cf4efacf3c)"><g clip-path="url(#473ddba790)"><g clip-path="url(#e5a89ac0b5)"><path fill="#fc6a1f" d="M 40.65625 146.011719 L 71.84375 146.011719 L 71.84375 998.421875 L 40.65625 998.421875 Z M 40.65625 146.011719 " fill-opacity="1" fill-rule="nonzero"/></g></g></g><g clip-path="url(#4288f1a965)"><g clip-path="url(#ecabb8ca49)"><g clip-path="url(#4896fc6f62)"><path fill="#fc6a1f" d="M 136.292969 50.375 L 988.703125 50.375 L 988.703125 81.5625 L 136.292969 81.5625 Z M 136.292969 50.375 " fill-opacity="1" fill-rule="nonzero"/></g></g></g><g clip-path="url(#e88b91f5a3)"><g clip-path="url(#36e6ac363d)"><g clip-path="url(#eb067b6df5)"><path fill="#fc6a1f" d="M 136.292969 1062.875 L 988.703125 1062.875 L 988.703125 1094.058594 L 136.292969 1094.058594 Z M 136.292969 1062.875 " fill-opacity="1" fill-rule="nonzero"/></g></g></g><g clip-path="url(#15af94a191)"><g clip-path="url(#567d68e044)"><g clip-path="url(#db3071c9c0)"><path fill="#fc6a1f" d="M 1053.15625 81.5625 L 1053.15625 146.011719 L 1084.339844 146.011719 L 1084.339844 50.375 L 988.703125 50.375 L 988.703125 81.5625 Z M 1053.15625 81.5625 " fill-opacity="1" fill-rule="nonzero"/></g></g></g><g clip-path="url(#f3a1a3aa78)"><g clip-path="url(#cf90606b1d)"><g clip-path="url(#d1cbca141d)"><path fill="#fc6a1f" d="M 71.84375 81.5625 L 136.292969 81.5625 L 136.292969 50.375 L 40.65625 50.375 L 40.65625 146.011719 L 71.84375 146.011719 Z M 71.84375 81.5625 " fill-opacity="1" fill-rule="nonzero"/></g></g></g><g clip-path="url(#6882f5d925)"><g clip-path="url(#ce3998ac7e)"><g clip-path="url(#c5635a31ab)"><path fill="#fc6a1f" d="M 1053.15625 1062.875 L 988.703125 1062.875 L 988.703125 1094.058594 L 1084.339844 1094.058594 L 1084.339844 998.421875 L 1053.15625 998.421875 Z M 1053.15625 1062.875 " fill-opacity="1" fill-rule="nonzero"/></g></g></g><g clip-path="url(#a6e28f431c)"><g clip-path="url(#e5da163511)"><g clip-path="url(#7a65d13c0c)"><path fill="#fc6a1f" d="M 71.84375 1062.875 L 71.84375 998.421875 L 40.65625 998.421875 L 40.65625 1094.058594 L 136.292969 1094.058594 L 136.292969 1062.875 Z M 71.84375 1062.875 " fill-opacity="1" fill-rule="nonzero"/></g></g></g><g clip-path="url(#1b6217d846)"><g clip-path="url(#140b99ac58)"><g clip-path="url(#c9c3c4d2f7)"><path stroke-linecap="butt" transform="matrix(0.75, 0, 0, 0.75, 40.657485, 50.375834)" fill="none" stroke-linejoin="miter" d="M -0.00164733 55.998893 L -0.00164733 1335.577128 C -0.00164733 1366.504214 25.071271 1391.577133 55.998357 1391.577133 L 1335.576593 1391.577133 C 1366.503679 1391.577133 1391.576597 1366.504214 1391.576597 1335.577128 L 1391.576597 55.998893 C 1391.576597 25.071807 1366.503679 -0.00111208 1335.576593 -0.00111208 L 55.998357 -0.00111208 C 25.071271 -0.00111208 -0.00164733 25.071807 -0.00164733 55.998893 Z M -0.00164733 55.998893 " stroke="#fc6a1f" stroke-width="66" stroke-opacity="1" stroke-miterlimit="4"/></g></g></g><path fill="#fc6a1f" d="M 362.214844 450.5 L 362.214844 404.578125 L 408.140625 404.578125 C 415.050781 404.578125 420.652344 398.972656 420.652344 392.0625 L 420.652344 333.75 C 420.652344 326.839844 415.050781 321.234375 408.140625 321.234375 L 362.214844 321.234375 L 362.214844 275.3125 C 362.214844 268.402344 356.613281 262.796875 349.703125 262.796875 L 291.386719 262.796875 C 284.476562 262.796875 278.875 268.402344 278.875 275.3125 L 278.875 321.234375 L 232.949219 321.234375 C 226.039062 321.234375 220.4375 326.839844 220.4375 333.75 L 220.4375 392.0625 C 220.4375 398.972656 226.039062 404.578125 232.949219 404.578125 L 278.875 404.578125 L 278.875 450.5 C 278.875 457.410156 284.476562 463.015625 291.386719 463.015625 L 349.703125 463.015625 C 356.613281 463.015625 362.214844 457.410156 362.214844 450.5 Z M 337.191406 392.0625 L 337.191406 437.988281 L 303.902344 437.988281 C 302.996094 368.683594 314.554688 380.519531 245.464844 379.550781 L 245.464844 346.261719 C 314.769531 345.355469 302.933594 356.914062 303.902344 287.824219 L 337.191406 287.824219 C 338.097656 357.128906 326.535156 345.292969 395.625 346.261719 L 395.625 379.550781 L 349.703125 379.550781 C 342.792969 379.550781 337.191406 385.152344 337.191406 392.0625 Z M 337.191406 392.0625 " fill-opacity="1" fill-rule="nonzero"/><path fill="#fc6a1f" d="M 627.542969 625.691406 C 582.460938 625.691406 545.789062 664.683594 545.789062 712.625 L 545.789062 864.105469 C 549.945312 979.261719 705.117188 979.324219 709.296875 864.105469 C 709.296875 864.105469 709.296875 789.699219 709.296875 789.699219 L 709.296875 712.625 C 710.46875 667.859375 672.84375 624.730469 627.542969 625.691406 Z M 570.816406 712.625 C 573.699219 629.636719 682.511719 632.039062 684.269531 712.625 C 684.269531 712.625 684.269531 777.183594 684.269531 777.183594 L 570.816406 777.183594 Z M 684.269531 864.105469 C 681.796875 945.964844 573.269531 945.925781 570.816406 864.105469 C 570.816406 864.105469 570.816406 802.210938 570.816406 802.210938 L 684.269531 802.210938 Z M 684.269531 864.105469 " fill-opacity="1" fill-rule="nonzero"/><path fill="#fc6a1f" d="M 873.542969 723.023438 C 834.253906 683.738281 773.933594 676.820312 726.863281 706.171875 C 720.996094 709.839844 719.210938 717.550781 722.867188 723.414062 C 726.539062 729.269531 734.242188 731.066406 740.109375 727.410156 C 773.648438 706.464844 815.738281 708.933594 846.417969 732.445312 L 724.644531 854.222656 C 716.671875 861.652344 722.785156 875.964844 733.492188 875.582031 C 736.695312 875.582031 739.894531 874.359375 742.339844 871.917969 L 763.183594 851.074219 L 864.113281 750.152344 C 923.960938 829.671875 834.71875 935.800781 746.082031 889.914062 C 731.441406 882.542969 719.992188 904.175781 734.453125 912.085938 C 855.277344 973.203125 967.832031 820.445312 873.542969 723.023438 Z M 873.542969 723.023438 " fill-opacity="1" fill-rule="nonzero"/><g clip-path="url(#40f0a76f67)"><path fill="#fc6a1f" d="M 533.085938 926.015625 L 308.03125 926.015625 L 308.03125 525.085938 C 440.382812 535.734375 529.699219 386.996094 457.710938 275.3125 L 808.574219 275.3125 L 808.574219 638.203125 C 808.574219 645.121094 814.175781 650.71875 821.085938 650.71875 C 827.996094 650.71875 833.601562 645.121094 833.601562 638.203125 L 833.601562 262.796875 C 833.601562 255.886719 827.996094 250.285156 821.085938 250.285156 L 437.714844 250.285156 C 337.242188 145.136719 157.714844 217.367188 157.871094 362.910156 C 157.871094 439.097656 209.921875 503.914062 283.003906 521.050781 L 283.003906 938.527344 C 283.003906 945.445312 288.609375 951.042969 295.519531 951.042969 L 533.085938 951.042969 C 549.464844 950.773438 549.59375 926.304688 533.085938 926.015625 Z M 182.898438 362.90625 C 182.855469 237.273438 339.710938 177.578125 423.21875 271.152344 C 502.226562 358.101562 438.269531 501.425781 320.542969 500.554688 C 245.304688 501.058594 182.171875 438.480469 182.898438 362.90625 Z M 182.898438 362.90625 " fill-opacity="1" fill-rule="nonzero"/></g><path fill="#fc6a1f" d="M 572.25 524.636719 C 596.105469 542.109375 632.242188 542.085938 656.46875 523.90625 L 679.027344 506.988281 C 687.625 520.460938 704.417969 538.097656 733.492188 538.097656 C 749.910156 537.816406 749.964844 513.355469 733.492188 513.070312 C 705.667969 513.070312 695.695312 485.207031 695.308594 484.082031 C 692.90625 476.160156 682.417969 472.875 675.929688 478.035156 C 675.929688 478.035156 641.449219 503.886719 641.449219 503.886719 C 610.414062 526.847656 578.332031 501.539062 558.554688 479.488281 C 579.847656 446.023438 597.683594 405.671875 581.226562 380.992188 C 558.527344 349.21875 515.925781 374.601562 509.527344 409.417969 C 506.664062 421.871094 504.789062 448.503906 527.402344 480.640625 C 518.105469 493.976562 508.089844 506.75 498.828125 517.347656 C 494.28125 522.546875 494.8125 530.453125 500.011719 535 C 505.222656 539.554688 513.117188 539.011719 517.664062 533.824219 C 522.425781 528.386719 532.804688 516.167969 544.152344 500.574219 C 551.863281 508.425781 561.132812 516.484375 572.25 524.636719 Z M 533.917969 415.019531 C 536.964844 400.488281 551.863281 384.460938 560.40625 394.875 C 567.882812 406.085938 558.101562 431.164062 542.304688 457.65625 C 531.15625 437.902344 532.15625 422.683594 533.917969 415.019531 Z M 533.917969 415.019531 " fill-opacity="1" fill-rule="nonzero"/><path fill="#fc6a1f" d="M 520.761719 650.71875 C 520.761719 643.800781 515.160156 638.203125 508.25 638.203125 L 358.085938 638.203125 C 351.175781 638.203125 345.574219 643.800781 345.574219 650.71875 C 345.574219 657.632812 351.175781 663.230469 358.085938 663.230469 L 508.25 663.230469 C 515.160156 663.230469 520.761719 657.632812 520.761719 650.71875 Z M 520.761719 650.71875 " fill-opacity="1" fill-rule="nonzero"/><path fill="#fc6a1f" d="M 358.085938 700.773438 C 341.664062 701.039062 341.617188 725.523438 358.085938 725.796875 C 358.085938 725.796875 445.679688 725.796875 445.679688 725.796875 C 462.101562 725.53125 462.148438 701.046875 445.679688 700.773438 C 445.679688 700.773438 358.085938 700.773438 358.085938 700.773438 Z M 358.085938 700.773438 " fill-opacity="1" fill-rule="nonzero"/></svg>