<svg xmlns="http://www.w3.org/2000/svg" xmlns:xlink="http://www.w3.org/1999/xlink" width="1500" zoomAndPan="magnify" viewBox="0 0 1125 1124.99995" height="1500" preserveAspectRatio="xMidYMid meet" version="1.0"><defs><clipPath id="ff11f261da"><path d="M 1053 146 L 1083.90625 146 L 1083.90625 999 L 1053 999 Z M 1053 146 " clip-rule="nonzero"/></clipPath><clipPath id="7eabe2885c"><path d="M 40.65625 92.375 L 40.65625 1052.0625 C 40.65625 1075.257812 59.460938 1094.0625 82.65625 1094.0625 L 1042.34375 1094.0625 C 1065.539062 1094.0625 1084.34375 1075.257812 1084.34375 1052.0625 L 1084.34375 92.375 C 1084.34375 69.179688 1065.539062 50.375 1042.34375 50.375 L 82.65625 50.375 C 59.460938 50.375 40.65625 69.179688 40.65625 92.375 Z M 40.65625 92.375 " clip-rule="nonzero"/></clipPath><clipPath id="e349628b99"><path d="M 83.558594 51.277344 L 1041.441406 51.277344 C 1064.636719 51.277344 1083.441406 70.082031 1083.441406 93.277344 L 1083.441406 1051.160156 C 1083.441406 1074.355469 1064.636719 1093.160156 1041.441406 1093.160156 L 83.558594 1093.160156 C 60.363281 1093.160156 41.558594 1074.355469 41.558594 1051.160156 L 41.558594 93.277344 C 41.558594 70.082031 60.363281 51.277344 83.558594 51.277344 Z M 83.558594 51.277344 " clip-rule="nonzero"/></clipPath><clipPath id="46ddeb9fe5"><path d="M 41.40625 146 L 72 146 L 72 999 L 41.40625 999 Z M 41.40625 146 " clip-rule="nonzero"/></clipPath><clipPath id="107ddd1101"><path d="M 40.65625 92.375 L 40.65625 1052.0625 C 40.65625 1075.257812 59.460938 1094.0625 82.65625 1094.0625 L 1042.34375 1094.0625 C 1065.539062 1094.0625 1084.34375 1075.257812 1084.34375 1052.0625 L 1084.34375 92.375 C 1084.34375 69.179688 1065.539062 50.375 1042.34375 50.375 L 82.65625 50.375 C 59.460938 50.375 40.65625 69.179688 40.65625 92.375 Z M 40.65625 92.375 " clip-rule="nonzero"/></clipPath><clipPath id="5ffb1150bb"><path d="M 83.558594 51.277344 L 1041.441406 51.277344 C 1064.636719 51.277344 1083.441406 70.082031 1083.441406 93.277344 L 1083.441406 1051.160156 C 1083.441406 1074.355469 1064.636719 1093.160156 1041.441406 1093.160156 L 83.558594 1093.160156 C 60.363281 1093.160156 41.558594 1074.355469 41.558594 1051.160156 L 41.558594 93.277344 C 41.558594 70.082031 60.363281 51.277344 83.558594 51.277344 Z M 83.558594 51.277344 " clip-rule="nonzero"/></clipPath><clipPath id="745b96e8e1"><path d="M 136 51.125 L 989 51.125 L 989 82 L 136 82 Z M 136 51.125 " clip-rule="nonzero"/></clipPath><clipPath id="6fcb8c5bf4"><path d="M 40.65625 92.375 L 40.65625 1052.0625 C 40.65625 1075.257812 59.460938 1094.0625 82.65625 1094.0625 L 1042.34375 1094.0625 C 1065.539062 1094.0625 1084.34375 1075.257812 1084.34375 1052.0625 L 1084.34375 92.375 C 1084.34375 69.179688 1065.539062 50.375 1042.34375 50.375 L 82.65625 50.375 C 59.460938 50.375 40.65625 69.179688 40.65625 92.375 Z M 40.65625 92.375 " clip-rule="nonzero"/></clipPath><clipPath id="f1eaf5dd7d"><path d="M 83.558594 51.277344 L 1041.441406 51.277344 C 1064.636719 51.277344 1083.441406 70.082031 1083.441406 93.277344 L 1083.441406 1051.160156 C 1083.441406 1074.355469 1064.636719 1093.160156 1041.441406 1093.160156 L 83.558594 1093.160156 C 60.363281 1093.160156 41.558594 1074.355469 41.558594 1051.160156 L 41.558594 93.277344 C 41.558594 70.082031 60.363281 51.277344 83.558594 51.277344 Z M 83.558594 51.277344 " clip-rule="nonzero"/></clipPath><clipPath id="a80f5a2eb0"><path d="M 136 1062 L 989 1062 L 989 1093.625 L 136 1093.625 Z M 136 1062 " clip-rule="nonzero"/></clipPath><clipPath id="f9ef6bba2a"><path d="M 40.65625 92.375 L 40.65625 1052.0625 C 40.65625 1075.257812 59.460938 1094.0625 82.65625 1094.0625 L 1042.34375 1094.0625 C 1065.539062 1094.0625 1084.34375 1075.257812 1084.34375 1052.0625 L 1084.34375 92.375 C 1084.34375 69.179688 1065.539062 50.375 1042.34375 50.375 L 82.65625 50.375 C 59.460938 50.375 40.65625 69.179688 40.65625 92.375 Z M 40.65625 92.375 " clip-rule="nonzero"/></clipPath><clipPath id="d5adbaf625"><path d="M 83.558594 51.277344 L 1041.441406 51.277344 C 1064.636719 51.277344 1083.441406 70.082031 1083.441406 93.277344 L 1083.441406 1051.160156 C 1083.441406 1074.355469 1064.636719 1093.160156 1041.441406 1093.160156 L 83.558594 1093.160156 C 60.363281 1093.160156 41.558594 1074.355469 41.558594 1051.160156 L 41.558594 93.277344 C 41.558594 70.082031 60.363281 51.277344 83.558594 51.277344 Z M 83.558594 51.277344 " clip-rule="nonzero"/></clipPath><clipPath id="7d102838ca"><path d="M 988 51.125 L 1083.90625 51.125 L 1083.90625 147 L 988 147 Z M 988 51.125 " clip-rule="nonzero"/></clipPath><clipPath id="d171918309"><path d="M 40.65625 92.375 L 40.65625 1052.0625 C 40.65625 1075.257812 59.460938 1094.0625 82.65625 1094.0625 L 1042.34375 1094.0625 C 1065.539062 1094.0625 1084.34375 1075.257812 1084.34375 1052.0625 L 1084.34375 92.375 C 1084.34375 69.179688 1065.539062 50.375 1042.34375 50.375 L 82.65625 50.375 C 59.460938 50.375 40.65625 69.179688 40.65625 92.375 Z M 40.65625 92.375 " clip-rule="nonzero"/></clipPath><clipPath id="be48a5abec"><path d="M 83.558594 51.277344 L 1041.441406 51.277344 C 1064.636719 51.277344 1083.441406 70.082031 1083.441406 93.277344 L 1083.441406 1051.160156 C 1083.441406 1074.355469 1064.636719 1093.160156 1041.441406 1093.160156 L 83.558594 1093.160156 C 60.363281 1093.160156 41.558594 1074.355469 41.558594 1051.160156 L 41.558594 93.277344 C 41.558594 70.082031 60.363281 51.277344 83.558594 51.277344 Z M 83.558594 51.277344 " clip-rule="nonzero"/></clipPath><clipPath id="6198a31a38"><path d="M 41.40625 51.125 L 137 51.125 L 137 147 L 41.40625 147 Z M 41.40625 51.125 " clip-rule="nonzero"/></clipPath><clipPath id="09eed52438"><path d="M 40.65625 92.375 L 40.65625 1052.0625 C 40.65625 1075.257812 59.460938 1094.0625 82.65625 1094.0625 L 1042.34375 1094.0625 C 1065.539062 1094.0625 1084.34375 1075.257812 1084.34375 1052.0625 L 1084.34375 92.375 C 1084.34375 69.179688 1065.539062 50.375 1042.34375 50.375 L 82.65625 50.375 C 59.460938 50.375 40.65625 69.179688 40.65625 92.375 Z M 40.65625 92.375 " clip-rule="nonzero"/></clipPath><clipPath id="d89708996d"><path d="M 83.558594 51.277344 L 1041.441406 51.277344 C 1064.636719 51.277344 1083.441406 70.082031 1083.441406 93.277344 L 1083.441406 1051.160156 C 1083.441406 1074.355469 1064.636719 1093.160156 1041.441406 1093.160156 L 83.558594 1093.160156 C 60.363281 1093.160156 41.558594 1074.355469 41.558594 1051.160156 L 41.558594 93.277344 C 41.558594 70.082031 60.363281 51.277344 83.558594 51.277344 Z M 83.558594 51.277344 " clip-rule="nonzero"/></clipPath><clipPath id="802381998b"><path d="M 988 998 L 1083.90625 998 L 1083.90625 1093.625 L 988 1093.625 Z M 988 998 " clip-rule="nonzero"/></clipPath><clipPath id="bca4f23775"><path d="M 40.65625 92.375 L 40.65625 1052.0625 C 40.65625 1075.257812 59.460938 1094.0625 82.65625 1094.0625 L 1042.34375 1094.0625 C 1065.539062 1094.0625 1084.34375 1075.257812 1084.34375 1052.0625 L 1084.34375 92.375 C 1084.34375 69.179688 1065.539062 50.375 1042.34375 50.375 L 82.65625 50.375 C 59.460938 50.375 40.65625 69.179688 40.65625 92.375 Z M 40.65625 92.375 " clip-rule="nonzero"/></clipPath><clipPath id="1542f564f9"><path d="M 83.558594 51.277344 L 1041.441406 51.277344 C 1064.636719 51.277344 1083.441406 70.082031 1083.441406 93.277344 L 1083.441406 1051.160156 C 1083.441406 1074.355469 1064.636719 1093.160156 1041.441406 1093.160156 L 83.558594 1093.160156 C 60.363281 1093.160156 41.558594 1074.355469 41.558594 1051.160156 L 41.558594 93.277344 C 41.558594 70.082031 60.363281 51.277344 83.558594 51.277344 Z M 83.558594 51.277344 " clip-rule="nonzero"/></clipPath><clipPath id="8d373f233f"><path d="M 41.40625 998 L 137 998 L 137 1093.625 L 41.40625 1093.625 Z M 41.40625 998 " clip-rule="nonzero"/></clipPath><clipPath id="7e4c0a764b"><path d="M 40.65625 92.375 L 40.65625 1052.0625 C 40.65625 1075.257812 59.460938 1094.0625 82.65625 1094.0625 L 1042.34375 1094.0625 C 1065.539062 1094.0625 1084.34375 1075.257812 1084.34375 1052.0625 L 1084.34375 92.375 C 1084.34375 69.179688 1065.539062 50.375 1042.34375 50.375 L 82.65625 50.375 C 59.460938 50.375 40.65625 69.179688 40.65625 92.375 Z M 40.65625 92.375 " clip-rule="nonzero"/></clipPath><clipPath id="e1bd8ffb3d"><path d="M 83.558594 51.277344 L 1041.441406 51.277344 C 1064.636719 51.277344 1083.441406 70.082031 1083.441406 93.277344 L 1083.441406 1051.160156 C 1083.441406 1074.355469 1064.636719 1093.160156 1041.441406 1093.160156 L 83.558594 1093.160156 C 60.363281 1093.160156 41.558594 1074.355469 41.558594 1051.160156 L 41.558594 93.277344 C 41.558594 70.082031 60.363281 51.277344 83.558594 51.277344 Z M 83.558594 51.277344 " clip-rule="nonzero"/></clipPath><clipPath id="e1dea41a2b"><path d="M 40.65625 50.375 L 1084.65625 50.375 L 1084.65625 1094.375 L 40.65625 1094.375 Z M 40.65625 50.375 " clip-rule="nonzero"/></clipPath><clipPath id="f04d42e50d"><path d="M 40.65625 92.375 L 40.65625 1052.0625 C 40.65625 1075.257812 59.460938 1094.0625 82.65625 1094.0625 L 1042.34375 1094.0625 C 1065.539062 1094.0625 1084.34375 1075.257812 1084.34375 1052.0625 L 1084.34375 92.375 C 1084.34375 69.179688 1065.539062 50.375 1042.34375 50.375 L 82.65625 50.375 C 59.460938 50.375 40.65625 69.179688 40.65625 92.375 Z M 40.65625 92.375 " clip-rule="nonzero"/></clipPath><clipPath id="62939aaec5"><path d="M 40.65625 92.375 L 40.65625 1052.058594 C 40.65625 1075.253906 59.460938 1094.058594 82.65625 1094.058594 L 1042.339844 1094.058594 C 1065.535156 1094.058594 1084.339844 1075.253906 1084.339844 1052.058594 L 1084.339844 92.375 C 1084.339844 69.179688 1065.535156 50.375 1042.339844 50.375 L 82.65625 50.375 C 59.460938 50.375 40.65625 69.179688 40.65625 92.375 Z M 40.65625 92.375 " clip-rule="nonzero"/></clipPath><clipPath id="d1854a42d6"><path d="M 208.429688 405 L 496 405 L 496 1017.84375 L 208.429688 1017.84375 Z M 208.429688 405 " clip-rule="nonzero"/></clipPath><clipPath id="ae29937471"><path d="M 377 127 L 916.429688 127 L 916.429688 1017.84375 L 377 1017.84375 Z M 377 127 " clip-rule="nonzero"/></clipPath><clipPath id="aae3d05f20"><path d="M 208.429688 269 L 571 269 L 571 906 L 208.429688 906 Z M 208.429688 269 " clip-rule="nonzero"/></clipPath></defs><g clip-path="url(#ff11f261da)"><g clip-path="url(#7eabe2885c)"><g clip-path="url(#e349628b99)"><path fill="#fc6a1f" d="M 1053.15625 146.011719 L 1084.339844 146.011719 L 1084.339844 998.421875 L 1053.15625 998.421875 Z M 1053.15625 146.011719 " fill-opacity="1" fill-rule="nonzero"/></g></g></g><g clip-path="url(#46ddeb9fe5)"><g clip-path="url(#107ddd1101)"><g clip-path="url(#5ffb1150bb)"><path fill="#fc6a1f" d="M 40.65625 146.011719 L 71.84375 146.011719 L 71.84375 998.421875 L 40.65625 998.421875 Z M 40.65625 146.011719 " fill-opacity="1" fill-rule="nonzero"/></g></g></g><g clip-path="url(#745b96e8e1)"><g clip-path="url(#6fcb8c5bf4)"><g clip-path="url(#f1eaf5dd7d)"><path fill="#fc6a1f" d="M 136.292969 50.375 L 988.703125 50.375 L 988.703125 81.5625 L 136.292969 81.5625 Z M 136.292969 50.375 " fill-opacity="1" fill-rule="nonzero"/></g></g></g><g clip-path="url(#a80f5a2eb0)"><g clip-path="url(#f9ef6bba2a)"><g clip-path="url(#d5adbaf625)"><path fill="#fc6a1f" d="M 136.292969 1062.875 L 988.703125 1062.875 L 988.703125 1094.058594 L 136.292969 1094.058594 Z M 136.292969 1062.875 " fill-opacity="1" fill-rule="nonzero"/></g></g></g><g clip-path="url(#7d102838ca)"><g clip-path="url(#d171918309)"><g clip-path="url(#be48a5abec)"><path fill="#fc6a1f" d="M 1053.15625 81.5625 L 1053.15625 146.011719 L 1084.339844 146.011719 L 1084.339844 50.375 L 988.703125 50.375 L 988.703125 81.5625 Z M 1053.15625 81.5625 " fill-opacity="1" fill-rule="nonzero"/></g></g></g><g clip-path="url(#6198a31a38)"><g clip-path="url(#09eed52438)"><g clip-path="url(#d89708996d)"><path fill="#fc6a1f" d="M 71.84375 81.5625 L 136.292969 81.5625 L 136.292969 50.375 L 40.65625 50.375 L 40.65625 146.011719 L 71.84375 146.011719 Z M 71.84375 81.5625 " fill-opacity="1" fill-rule="nonzero"/></g></g></g><g clip-path="url(#802381998b)"><g clip-path="url(#bca4f23775)"><g clip-path="url(#1542f564f9)"><path fill="#fc6a1f" d="M 1053.15625 1062.875 L 988.703125 1062.875 L 988.703125 1094.058594 L 1084.339844 1094.058594 L 1084.339844 998.421875 L 1053.15625 998.421875 Z M 1053.15625 1062.875 " fill-opacity="1" fill-rule="nonzero"/></g></g></g><g clip-path="url(#8d373f233f)"><g clip-path="url(#7e4c0a764b)"><g clip-path="url(#e1bd8ffb3d)"><path fill="#fc6a1f" d="M 71.84375 1062.875 L 71.84375 998.421875 L 40.65625 998.421875 L 40.65625 1094.058594 L 136.292969 1094.058594 L 136.292969 1062.875 Z M 71.84375 1062.875 " fill-opacity="1" fill-rule="nonzero"/></g></g></g><g clip-path="url(#e1dea41a2b)"><g clip-path="url(#f04d42e50d)"><g clip-path="url(#62939aaec5)"><path stroke-linecap="butt" transform="matrix(0.75, 0, 0, 0.75, 40.657485, 50.376069)" fill="none" stroke-linejoin="miter" d="M -0.00164733 55.998579 L -0.00164733 1335.576814 C -0.00164733 1366.5039 25.071271 1391.576819 55.998357 1391.576819 L 1335.576593 1391.576819 C 1366.503679 1391.576819 1391.576597 1366.5039 1391.576597 1335.576814 L 1391.576597 55.998579 C 1391.576597 25.071493 1366.503679 -0.00142568 1335.576593 -0.00142568 L 55.998357 -0.00142568 C 25.071271 -0.00142568 -0.00164733 25.071493 -0.00164733 55.998579 Z M -0.00164733 55.998579 " stroke="#fc6a1f" stroke-width="66" stroke-opacity="1" stroke-miterlimit="4"/></g></g></g><path fill="#fc6a1f" d="M 636.839844 604.265625 C 634.703125 604.136719 624.652344 603.996094 616.476562 611.523438 C 609.988281 617.5 606.707031 626.371094 606.71875 637.875 C 606.71875 650.4375 600.867188 660.410156 594.65625 670.96875 C 587.667969 682.863281 580.410156 695.183594 580.410156 712.007812 L 580.410156 809.957031 C 580.410156 842.398438 615.371094 853.265625 649.179688 863.769531 C 672.804688 871.113281 697.234375 878.726562 712.875 892.96875 C 720.09375 899.578125 730.199219 905.46875 739.816406 905.46875 C 742.664062 905.492188 745.402344 904.945312 748.027344 903.839844 C 754.316406 901.144531 761.894531 893.867188 762.269531 874.636719 L 762.308594 872.742188 C 764.785156 758.128906 745.136719 675.71875 705.496094 634.421875 C 686.828125 615.019531 663.710938 604.855469 636.839844 604.265625 Z M 747.761719 872.5 L 747.722656 874.410156 C 747.542969 883.21875 745.585938 889.074219 742.308594 890.476562 C 738.226562 892.238281 729.792969 888.710938 722.742188 882.257812 C 704.695312 865.757812 678.695312 857.671875 653.539062 849.859375 C 617.140625 838.542969 595.03125 830.21875 595.03125 809.976562 L 595.03125 712.058594 C 595.03125 699.1875 600.964844 689.097656 607.238281 678.417969 C 614.160156 666.648438 621.320312 654.460938 621.3125 637.925781 C 621.3125 630.714844 622.972656 625.480469 626.296875 622.382812 C 629.824219 619.058594 634.582031 618.824219 635.707031 618.824219 L 636.417969 618.824219 C 659.351562 619.265625 679.078125 627.925781 695.054688 644.570312 C 731.382812 682.515625 750.121094 763.457031 747.761719 872.53125 Z M 747.761719 872.5 " fill-opacity="1" fill-rule="nonzero"/><g clip-path="url(#d1854a42d6)"><path fill="#fc6a1f" d="M 495.023438 504.164062 L 495.023438 435.082031 C 495.027344 434.601562 494.980469 434.128906 494.886719 433.65625 C 494.792969 433.1875 494.65625 432.730469 494.472656 432.289062 C 494.289062 431.84375 494.0625 431.425781 493.796875 431.023438 C 493.53125 430.625 493.226562 430.257812 492.890625 429.917969 C 492.550781 429.578125 492.179688 429.277344 491.78125 429.011719 C 491.382812 428.746094 490.960938 428.519531 490.519531 428.335938 C 490.078125 428.152344 489.621094 428.015625 489.148438 427.921875 C 488.679688 427.828125 488.203125 427.78125 487.726562 427.78125 L 446.59375 427.78125 C 437.84375 427.78125 430.71875 421.371094 430.71875 413.472656 C 430.734375 412.984375 430.703125 412.5 430.621094 412.019531 C 430.539062 411.535156 430.410156 411.066406 430.230469 410.613281 C 430.054688 410.15625 429.835938 409.722656 429.570312 409.308594 C 429.308594 408.898438 429.007812 408.515625 428.667969 408.164062 C 428.324219 407.816406 427.953125 407.5 427.550781 407.222656 C 427.148438 406.949219 426.71875 406.714844 426.269531 406.523438 C 425.820312 406.332031 425.355469 406.1875 424.875 406.09375 C 424.398438 405.996094 423.914062 405.945312 423.425781 405.945312 C 422.933594 405.945312 422.453125 405.996094 421.972656 406.09375 C 421.492188 406.1875 421.027344 406.332031 420.578125 406.523438 C 420.128906 406.714844 419.699219 406.949219 419.296875 407.222656 C 418.894531 407.5 418.523438 407.816406 418.183594 408.164062 C 417.84375 408.515625 417.539062 408.898438 417.277344 409.308594 C 417.011719 409.722656 416.792969 410.15625 416.617188 410.613281 C 416.441406 411.066406 416.308594 411.535156 416.226562 412.019531 C 416.144531 412.5 416.113281 412.984375 416.128906 413.472656 C 416.128906 429.40625 429.792969 442.375 446.59375 442.375 L 480.375 442.375 L 480.375 498.242188 C 454.167969 503.660156 334.507812 528.773438 334.507812 528.773438 C 315.570312 532.980469 257.949219 545.78125 241.886719 658 C 219.0625 799.894531 209.035156 1007.640625 208.933594 1009.726562 C 208.910156 1010.207031 208.9375 1010.683594 209.007812 1011.15625 C 209.078125 1011.628906 209.195312 1012.09375 209.359375 1012.542969 C 209.519531 1012.996094 209.726562 1013.425781 209.972656 1013.835938 C 210.21875 1014.246094 210.503906 1014.628906 210.824219 1014.984375 C 211.148438 1015.335938 211.503906 1015.65625 211.886719 1015.941406 C 212.273438 1016.226562 212.683594 1016.472656 213.117188 1016.675781 C 213.550781 1016.878906 214 1017.039062 214.464844 1017.15625 C 214.929688 1017.269531 215.398438 1017.339844 215.878906 1017.363281 L 216.226562 1017.363281 C 216.691406 1017.363281 217.152344 1017.316406 217.609375 1017.230469 C 218.0625 1017.140625 218.507812 1017.011719 218.9375 1016.839844 C 219.371094 1016.664062 219.78125 1016.453125 220.171875 1016.203125 C 220.5625 1015.953125 220.925781 1015.664062 221.261719 1015.34375 C 221.597656 1015.023438 221.898438 1014.675781 222.167969 1014.296875 C 222.4375 1013.917969 222.667969 1013.519531 222.863281 1013.09375 C 223.054688 1012.671875 223.207031 1012.234375 223.316406 1011.785156 C 223.425781 1011.332031 223.492188 1010.875 223.511719 1010.410156 C 223.613281 1008.332031 233.597656 801.386719 256.308594 660.1875 C 270.96875 557.808594 321.175781 546.65625 337.671875 543.015625 L 489.183594 511.316406 C 490.007812 511.148438 490.78125 510.847656 491.5 510.410156 C 492.222656 509.976562 492.847656 509.433594 493.378906 508.78125 C 493.910156 508.128906 494.320312 507.410156 494.601562 506.617188 C 494.882812 505.824219 495.023438 505.007812 495.023438 504.164062 Z M 495.023438 504.164062 " fill-opacity="1" fill-rule="nonzero"/></g><g clip-path="url(#ae29937471)"><path fill="#fc6a1f" d="M 883.5 658.101562 C 867.421875 545.75 809.816406 532.953125 790.859375 528.773438 C 790.859375 528.773438 673.03125 503.730469 647.09375 498.277344 L 647.09375 435.0625 C 647.09375 400.753906 661.828125 381.824219 677.457031 361.789062 C 694.777344 339.570312 714.382812 314.398438 714.382812 266.589844 C 714.382812 183.148438 654.480469 127.089844 565.285156 127.089844 C 462.265625 127.089844 417.539062 168.242188 416.183594 264.476562 L 415.257812 265.96875 C 409.234375 275.535156 390.894531 304.636719 380.359375 324.613281 C 376.535156 331.882812 376.023438 337.960938 378.84375 342.675781 C 381.527344 347.175781 386.59375 349.492188 393.871094 349.554688 C 404.355469 349.632812 423.476562 349.554688 423.476562 349.554688 C 423.476562 349.554688 429.957031 349.554688 430.03125 342.339844 C 430.101562 335.125 423.414062 334.960938 423.414062 334.960938 C 423.414062 334.960938 404.40625 335.054688 394 334.960938 C 393.285156 334.960938 392.570312 334.910156 391.863281 334.804688 C 392.21875 333.625 392.695312 332.496094 393.289062 331.414062 C 403.542969 311.941406 421.65625 283.199219 427.609375 273.726562 C 430.457031 269.183594 430.699219 268.8125 430.75 266.652344 C 431.460938 177.898438 470.433594 141.691406 565.277344 141.691406 C 632.222656 141.691406 699.804688 180.3125 699.804688 266.597656 C 699.804688 309.386719 683.351562 330.480469 665.9375 352.824219 C 649.488281 373.925781 632.464844 395.746094 632.464844 435.074219 L 632.464844 504.160156 C 632.46875 504.996094 632.609375 505.804688 632.890625 506.59375 C 633.171875 507.378906 633.578125 508.097656 634.105469 508.746094 C 634.632812 509.394531 635.253906 509.933594 635.964844 510.371094 C 636.679688 510.804688 637.445312 511.109375 638.261719 511.28125 L 787.695312 543.015625 C 804.191406 546.683594 854.394531 557.835938 869.074219 660.324219 C 891.769531 801.394531 901.753906 1008.339844 901.832031 1010.417969 C 901.855469 1010.882812 901.921875 1011.339844 902.03125 1011.792969 C 902.140625 1012.242188 902.289062 1012.679688 902.484375 1013.105469 C 902.675781 1013.527344 902.90625 1013.925781 903.175781 1014.304688 C 903.445312 1014.683594 903.75 1015.035156 904.085938 1015.355469 C 904.421875 1015.675781 904.785156 1015.960938 905.175781 1016.210938 C 905.566406 1016.464844 905.976562 1016.675781 906.40625 1016.847656 C 906.839844 1017.019531 907.28125 1017.152344 907.738281 1017.238281 C 908.195312 1017.328125 908.65625 1017.371094 909.121094 1017.371094 L 909.46875 1017.371094 C 909.945312 1017.347656 910.417969 1017.277344 910.882812 1017.164062 C 911.347656 1017.046875 911.796875 1016.886719 912.230469 1016.683594 C 912.664062 1016.476562 913.074219 1016.234375 913.460938 1015.949219 C 913.84375 1015.664062 914.199219 1015.34375 914.519531 1014.992188 C 914.84375 1014.636719 915.128906 1014.253906 915.375 1013.84375 C 915.621094 1013.433594 915.828125 1013 915.988281 1012.550781 C 916.152344 1012.101562 916.269531 1011.636719 916.339844 1011.164062 C 916.410156 1010.691406 916.433594 1010.214844 916.414062 1009.734375 C 916.335938 1007.621094 906.304688 799.863281 883.5 658.101562 Z M 883.5 658.101562 " fill-opacity="1" fill-rule="nonzero"/></g><g clip-path="url(#aae3d05f20)"><path fill="#fc6a1f" d="M 570.105469 572.136719 C 570.105469 572.136719 569.984375 457.914062 569.976562 457.914062 C 570.96875 420.9375 565.460938 398.339844 552.121094 384.636719 C 542.28125 374.523438 528.15625 369.609375 508.957031 369.609375 L 351.988281 369.609375 L 351.988281 277.058594 C 351.988281 276.582031 351.941406 276.105469 351.847656 275.636719 C 351.753906 275.164062 351.617188 274.707031 351.433594 274.265625 C 351.25 273.820312 351.023438 273.402344 350.757812 273.003906 C 350.492188 272.601562 350.191406 272.234375 349.851562 271.894531 C 349.511719 271.554688 349.144531 271.253906 348.746094 270.988281 C 348.34375 270.722656 347.925781 270.496094 347.480469 270.3125 C 347.039062 270.128906 346.582031 269.992188 346.113281 269.898438 C 345.640625 269.804688 345.167969 269.757812 344.6875 269.757812 L 266.59375 269.757812 C 266.113281 269.757812 265.640625 269.804688 265.167969 269.898438 C 264.699219 269.988281 264.242188 270.128906 263.796875 270.3125 C 263.355469 270.496094 262.933594 270.71875 262.535156 270.984375 C 262.132812 271.25 261.765625 271.554688 261.425781 271.894531 C 261.085938 272.230469 260.78125 272.601562 260.515625 273 C 260.25 273.398438 260.023438 273.820312 259.839844 274.261719 C 259.65625 274.707031 259.519531 275.164062 259.425781 275.632812 C 259.332031 276.105469 259.285156 276.578125 259.285156 277.058594 C 259.285156 277.058594 259.285156 434.605469 259.285156 434.703125 C 259.324219 435.160156 262.386719 481.113281 211.207031 529.015625 C 210.855469 529.34375 210.539062 529.699219 210.261719 530.089844 C 209.980469 530.480469 209.742188 530.890625 209.542969 531.328125 C 209.34375 531.765625 209.1875 532.21875 209.078125 532.683594 C 208.96875 533.152344 208.90625 533.625 208.890625 534.105469 C 208.871094 534.582031 208.902344 535.058594 208.980469 535.535156 C 209.058594 536.007812 209.179688 536.46875 209.347656 536.917969 C 209.515625 537.367188 209.726562 537.796875 209.980469 538.203125 C 210.234375 538.613281 210.523438 538.992188 210.851562 539.339844 C 211.175781 539.691406 211.535156 540.007812 211.925781 540.289062 C 212.316406 540.566406 212.726562 540.808594 213.164062 541.007812 C 213.601562 541.203125 214.054688 541.359375 214.519531 541.46875 C 214.988281 541.578125 215.460938 541.640625 215.941406 541.660156 C 216.417969 541.675781 216.894531 541.644531 217.371094 541.566406 C 217.84375 541.488281 218.304688 541.367188 218.753906 541.199219 C 219.203125 541.03125 219.632812 540.820312 220.039062 540.566406 C 220.445312 540.316406 220.828125 540.023438 221.175781 539.699219 C 265.21875 498.484375 272.683594 458.09375 273.757812 441.414062 L 344.660156 441.414062 C 345.136719 441.414062 345.613281 441.367188 346.082031 441.273438 C 346.554688 441.183594 347.011719 441.042969 347.453125 440.859375 C 347.894531 440.675781 348.316406 440.453125 348.714844 440.1875 C 349.113281 439.917969 349.484375 439.617188 349.824219 439.277344 C 350.160156 438.9375 350.464844 438.570312 350.730469 438.171875 C 350.996094 437.773438 351.222656 437.351562 351.40625 436.910156 C 351.589844 436.464844 351.726562 436.007812 351.820312 435.539062 C 351.914062 435.066406 351.957031 434.59375 351.957031 434.113281 L 351.957031 384.195312 L 508.925781 384.195312 C 524.195312 384.195312 534.566406 387.566406 541.632812 394.816406 C 551.867188 405.328125 556.222656 425.246094 555.355469 457.730469 L 555.511719 572.214844 C 555.625 600.09375 555.699219 626.949219 523.136719 656.96875 C 520.480469 651.0625 518.648438 644.910156 518.65625 637.953125 C 518.65625 626.421875 515.378906 617.542969 508.898438 611.601562 C 500.730469 604.074219 490.671875 604.230469 488.535156 604.34375 C 461.664062 604.90625 438.546875 615.078125 419.832031 634.578125 C 380.183594 675.882812 360.535156 758.308594 363.019531 872.921875 L 363.054688 874.796875 C 363.445312 894.023438 371.03125 901.28125 377.296875 903.996094 C 379.921875 905.101562 382.660156 905.648438 385.511719 905.625 C 395.125 905.625 405.222656 899.734375 412.453125 893.125 C 428.121094 878.824219 452.515625 871.234375 476.144531 863.925781 C 509.953125 853.421875 544.914062 842.5625 544.914062 810.113281 L 544.914062 712.058594 C 544.914062 695.214844 537.6875 682.914062 530.671875 671.019531 L 530.171875 670.164062 C 570.324219 635.027344 570.242188 603.210938 570.105469 572.136719 Z M 337.394531 426.847656 L 273.886719 426.847656 L 273.886719 284.410156 L 337.394531 284.410156 Z M 530.335938 712.09375 L 530.335938 810.042969 C 530.335938 830.273438 508.257812 838.601562 471.828125 849.925781 C 446.675781 857.757812 420.664062 865.820312 402.625 882.324219 C 395.582031 888.734375 387.175781 892.292969 383.066406 890.542969 C 379.804688 889.117188 377.832031 883.292969 377.65625 874.472656 L 377.613281 872.585938 C 375.246094 763.507812 393.992188 682.566406 430.363281 644.683594 C 446.332031 628.046875 466.066406 619.378906 489 618.9375 L 489.761719 618.9375 C 490.964844 618.9375 495.53125 619.164062 499.019531 622.371094 C 502.382812 625.460938 504.078125 630.722656 504.070312 638.039062 C 504.070312 649.191406 507.347656 658.351562 511.589844 666.753906 C 495.78125 678.933594 474.351562 691.679688 445.148438 705.25 C 444.699219 705.4375 444.269531 705.671875 443.863281 705.949219 C 443.460938 706.226562 443.085938 706.539062 442.742188 706.890625 C 442.402344 707.242188 442.097656 707.625 441.835938 708.039062 C 441.570312 708.453125 441.347656 708.886719 441.171875 709.34375 C 440.996094 709.800781 440.867188 710.273438 440.785156 710.757812 C 440.703125 711.242188 440.667969 711.726562 440.6875 712.21875 C 440.703125 712.707031 440.765625 713.191406 440.878906 713.667969 C 440.996094 714.144531 441.15625 714.605469 441.359375 715.050781 C 441.566406 715.496094 441.816406 715.917969 442.109375 716.3125 C 442.398438 716.707031 442.726562 717.066406 443.089844 717.394531 C 443.457031 717.726562 443.847656 718.015625 444.269531 718.261719 C 444.691406 718.511719 445.136719 718.71875 445.601562 718.878906 C 446.0625 719.039062 446.539062 719.148438 447.023438 719.214844 C 447.511719 719.277344 448 719.292969 448.488281 719.257812 C 448.976562 719.226562 449.457031 719.144531 449.929688 719.011719 C 450.402344 718.878906 450.859375 718.703125 451.296875 718.480469 C 480.289062 705.007812 502.175781 692.078125 518.753906 679.582031 C 524.789062 689.765625 530.335938 699.613281 530.335938 712.058594 Z M 530.335938 712.09375 " fill-opacity="1" fill-rule="nonzero"/></g></svg>