<svg xmlns="http://www.w3.org/2000/svg" xmlns:xlink="http://www.w3.org/1999/xlink" width="1500" zoomAndPan="magnify" viewBox="0 0 1125 1124.99995" height="1500" preserveAspectRatio="xMidYMid meet" version="1.0"><defs><clipPath id="515312251e"><path d="M 1053 146 L 1083.90625 146 L 1083.90625 999 L 1053 999 Z M 1053 146 " clip-rule="nonzero"/></clipPath><clipPath id="c0a9202d2f"><path d="M 40.65625 92.375 L 40.65625 1052.0625 C 40.65625 1075.257812 59.460938 1094.0625 82.65625 1094.0625 L 1042.34375 1094.0625 C 1065.539062 1094.0625 1084.34375 1075.257812 1084.34375 1052.0625 L 1084.34375 92.375 C 1084.34375 69.179688 1065.539062 50.375 1042.34375 50.375 L 82.65625 50.375 C 59.460938 50.375 40.65625 69.179688 40.65625 92.375 Z M 40.65625 92.375 " clip-rule="nonzero"/></clipPath><clipPath id="e2314df8a7"><path d="M 83.558594 51.277344 L 1041.441406 51.277344 C 1064.636719 51.277344 1083.441406 70.078125 1083.441406 93.277344 L 1083.441406 1051.160156 C 1083.441406 1074.355469 1064.636719 1093.160156 1041.441406 1093.160156 L 83.558594 1093.160156 C 60.363281 1093.160156 41.558594 1074.355469 41.558594 1051.160156 L 41.558594 93.277344 C 41.558594 70.078125 60.363281 51.277344 83.558594 51.277344 Z M 83.558594 51.277344 " clip-rule="nonzero"/></clipPath><clipPath id="30f8ad0d15"><path d="M 41.40625 146 L 72 146 L 72 999 L 41.40625 999 Z M 41.40625 146 " clip-rule="nonzero"/></clipPath><clipPath id="db8267b49b"><path d="M 40.65625 92.375 L 40.65625 1052.0625 C 40.65625 1075.257812 59.460938 1094.0625 82.65625 1094.0625 L 1042.34375 1094.0625 C 1065.539062 1094.0625 1084.34375 1075.257812 1084.34375 1052.0625 L 1084.34375 92.375 C 1084.34375 69.179688 1065.539062 50.375 1042.34375 50.375 L 82.65625 50.375 C 59.460938 50.375 40.65625 69.179688 40.65625 92.375 Z M 40.65625 92.375 " clip-rule="nonzero"/></clipPath><clipPath id="57a7a6da41"><path d="M 83.558594 51.277344 L 1041.441406 51.277344 C 1064.636719 51.277344 1083.441406 70.078125 1083.441406 93.277344 L 1083.441406 1051.160156 C 1083.441406 1074.355469 1064.636719 1093.160156 1041.441406 1093.160156 L 83.558594 1093.160156 C 60.363281 1093.160156 41.558594 1074.355469 41.558594 1051.160156 L 41.558594 93.277344 C 41.558594 70.078125 60.363281 51.277344 83.558594 51.277344 Z M 83.558594 51.277344 " clip-rule="nonzero"/></clipPath><clipPath id="c44f09a73e"><path d="M 136 51.125 L 989 51.125 L 989 82 L 136 82 Z M 136 51.125 " clip-rule="nonzero"/></clipPath><clipPath id="fb9f4b8af5"><path d="M 40.65625 92.375 L 40.65625 1052.0625 C 40.65625 1075.257812 59.460938 1094.0625 82.65625 1094.0625 L 1042.34375 1094.0625 C 1065.539062 1094.0625 1084.34375 1075.257812 1084.34375 1052.0625 L 1084.34375 92.375 C 1084.34375 69.179688 1065.539062 50.375 1042.34375 50.375 L 82.65625 50.375 C 59.460938 50.375 40.65625 69.179688 40.65625 92.375 Z M 40.65625 92.375 " clip-rule="nonzero"/></clipPath><clipPath id="3b189ea395"><path d="M 83.558594 51.277344 L 1041.441406 51.277344 C 1064.636719 51.277344 1083.441406 70.078125 1083.441406 93.277344 L 1083.441406 1051.160156 C 1083.441406 1074.355469 1064.636719 1093.160156 1041.441406 1093.160156 L 83.558594 1093.160156 C 60.363281 1093.160156 41.558594 1074.355469 41.558594 1051.160156 L 41.558594 93.277344 C 41.558594 70.078125 60.363281 51.277344 83.558594 51.277344 Z M 83.558594 51.277344 " clip-rule="nonzero"/></clipPath><clipPath id="16f1087ee4"><path d="M 136 1062 L 989 1062 L 989 1093.625 L 136 1093.625 Z M 136 1062 " clip-rule="nonzero"/></clipPath><clipPath id="ccd8df906e"><path d="M 40.65625 92.375 L 40.65625 1052.0625 C 40.65625 1075.257812 59.460938 1094.0625 82.65625 1094.0625 L 1042.34375 1094.0625 C 1065.539062 1094.0625 1084.34375 1075.257812 1084.34375 1052.0625 L 1084.34375 92.375 C 1084.34375 69.179688 1065.539062 50.375 1042.34375 50.375 L 82.65625 50.375 C 59.460938 50.375 40.65625 69.179688 40.65625 92.375 Z M 40.65625 92.375 " clip-rule="nonzero"/></clipPath><clipPath id="cb7238d426"><path d="M 83.558594 51.277344 L 1041.441406 51.277344 C 1064.636719 51.277344 1083.441406 70.078125 1083.441406 93.277344 L 1083.441406 1051.160156 C 1083.441406 1074.355469 1064.636719 1093.160156 1041.441406 1093.160156 L 83.558594 1093.160156 C 60.363281 1093.160156 41.558594 1074.355469 41.558594 1051.160156 L 41.558594 93.277344 C 41.558594 70.078125 60.363281 51.277344 83.558594 51.277344 Z M 83.558594 51.277344 " clip-rule="nonzero"/></clipPath><clipPath id="dfa3cc6ba1"><path d="M 988 51.125 L 1083.90625 51.125 L 1083.90625 147 L 988 147 Z M 988 51.125 " clip-rule="nonzero"/></clipPath><clipPath id="e3a63185c2"><path d="M 40.65625 92.375 L 40.65625 1052.0625 C 40.65625 1075.257812 59.460938 1094.0625 82.65625 1094.0625 L 1042.34375 1094.0625 C 1065.539062 1094.0625 1084.34375 1075.257812 1084.34375 1052.0625 L 1084.34375 92.375 C 1084.34375 69.179688 1065.539062 50.375 1042.34375 50.375 L 82.65625 50.375 C 59.460938 50.375 40.65625 69.179688 40.65625 92.375 Z M 40.65625 92.375 " clip-rule="nonzero"/></clipPath><clipPath id="c7d7c17eec"><path d="M 83.558594 51.277344 L 1041.441406 51.277344 C 1064.636719 51.277344 1083.441406 70.078125 1083.441406 93.277344 L 1083.441406 1051.160156 C 1083.441406 1074.355469 1064.636719 1093.160156 1041.441406 1093.160156 L 83.558594 1093.160156 C 60.363281 1093.160156 41.558594 1074.355469 41.558594 1051.160156 L 41.558594 93.277344 C 41.558594 70.078125 60.363281 51.277344 83.558594 51.277344 Z M 83.558594 51.277344 " clip-rule="nonzero"/></clipPath><clipPath id="36d3fa92a6"><path d="M 41.40625 51.125 L 137 51.125 L 137 147 L 41.40625 147 Z M 41.40625 51.125 " clip-rule="nonzero"/></clipPath><clipPath id="aa79ddc8b3"><path d="M 40.65625 92.375 L 40.65625 1052.0625 C 40.65625 1075.257812 59.460938 1094.0625 82.65625 1094.0625 L 1042.34375 1094.0625 C 1065.539062 1094.0625 1084.34375 1075.257812 1084.34375 1052.0625 L 1084.34375 92.375 C 1084.34375 69.179688 1065.539062 50.375 1042.34375 50.375 L 82.65625 50.375 C 59.460938 50.375 40.65625 69.179688 40.65625 92.375 Z M 40.65625 92.375 " clip-rule="nonzero"/></clipPath><clipPath id="f59317ec68"><path d="M 83.558594 51.277344 L 1041.441406 51.277344 C 1064.636719 51.277344 1083.441406 70.078125 1083.441406 93.277344 L 1083.441406 1051.160156 C 1083.441406 1074.355469 1064.636719 1093.160156 1041.441406 1093.160156 L 83.558594 1093.160156 C 60.363281 1093.160156 41.558594 1074.355469 41.558594 1051.160156 L 41.558594 93.277344 C 41.558594 70.078125 60.363281 51.277344 83.558594 51.277344 Z M 83.558594 51.277344 " clip-rule="nonzero"/></clipPath><clipPath id="dcf5f115cd"><path d="M 988 998 L 1083.90625 998 L 1083.90625 1093.625 L 988 1093.625 Z M 988 998 " clip-rule="nonzero"/></clipPath><clipPath id="d01ae01e3d"><path d="M 40.65625 92.375 L 40.65625 1052.0625 C 40.65625 1075.257812 59.460938 1094.0625 82.65625 1094.0625 L 1042.34375 1094.0625 C 1065.539062 1094.0625 1084.34375 1075.257812 1084.34375 1052.0625 L 1084.34375 92.375 C 1084.34375 69.179688 1065.539062 50.375 1042.34375 50.375 L 82.65625 50.375 C 59.460938 50.375 40.65625 69.179688 40.65625 92.375 Z M 40.65625 92.375 " clip-rule="nonzero"/></clipPath><clipPath id="987b82eb87"><path d="M 83.558594 51.277344 L 1041.441406 51.277344 C 1064.636719 51.277344 1083.441406 70.078125 1083.441406 93.277344 L 1083.441406 1051.160156 C 1083.441406 1074.355469 1064.636719 1093.160156 1041.441406 1093.160156 L 83.558594 1093.160156 C 60.363281 1093.160156 41.558594 1074.355469 41.558594 1051.160156 L 41.558594 93.277344 C 41.558594 70.078125 60.363281 51.277344 83.558594 51.277344 Z M 83.558594 51.277344 " clip-rule="nonzero"/></clipPath><clipPath id="76aacefb77"><path d="M 41.40625 998 L 137 998 L 137 1093.625 L 41.40625 1093.625 Z M 41.40625 998 " clip-rule="nonzero"/></clipPath><clipPath id="7f177716a9"><path d="M 40.65625 92.375 L 40.65625 1052.0625 C 40.65625 1075.257812 59.460938 1094.0625 82.65625 1094.0625 L 1042.34375 1094.0625 C 1065.539062 1094.0625 1084.34375 1075.257812 1084.34375 1052.0625 L 1084.34375 92.375 C 1084.34375 69.179688 1065.539062 50.375 1042.34375 50.375 L 82.65625 50.375 C 59.460938 50.375 40.65625 69.179688 40.65625 92.375 Z M 40.65625 92.375 " clip-rule="nonzero"/></clipPath><clipPath id="e89610104b"><path d="M 83.558594 51.277344 L 1041.441406 51.277344 C 1064.636719 51.277344 1083.441406 70.078125 1083.441406 93.277344 L 1083.441406 1051.160156 C 1083.441406 1074.355469 1064.636719 1093.160156 1041.441406 1093.160156 L 83.558594 1093.160156 C 60.363281 1093.160156 41.558594 1074.355469 41.558594 1051.160156 L 41.558594 93.277344 C 41.558594 70.078125 60.363281 51.277344 83.558594 51.277344 Z M 83.558594 51.277344 " clip-rule="nonzero"/></clipPath><clipPath id="523fddd4d6"><path d="M 40.65625 50.375 L 1084.65625 50.375 L 1084.65625 1094.375 L 40.65625 1094.375 Z M 40.65625 50.375 " clip-rule="nonzero"/></clipPath><clipPath id="10ebe66580"><path d="M 40.65625 92.375 L 40.65625 1052.0625 C 40.65625 1075.257812 59.460938 1094.0625 82.65625 1094.0625 L 1042.34375 1094.0625 C 1065.539062 1094.0625 1084.34375 1075.257812 1084.34375 1052.0625 L 1084.34375 92.375 C 1084.34375 69.179688 1065.539062 50.375 1042.34375 50.375 L 82.65625 50.375 C 59.460938 50.375 40.65625 69.179688 40.65625 92.375 Z M 40.65625 92.375 " clip-rule="nonzero"/></clipPath><clipPath id="c521716100"><path d="M 40.65625 92.375 L 40.65625 1052.058594 C 40.65625 1075.253906 59.460938 1094.058594 82.65625 1094.058594 L 1042.339844 1094.058594 C 1065.535156 1094.058594 1084.339844 1075.253906 1084.339844 1052.058594 L 1084.339844 92.375 C 1084.339844 69.179688 1065.535156 50.375 1042.339844 50.375 L 82.65625 50.375 C 59.460938 50.375 40.65625 69.179688 40.65625 92.375 Z M 40.65625 92.375 " clip-rule="nonzero"/></clipPath><clipPath id="a2b61e7502"><path d="M 154 230.128906 L 956 230.128906 L 956 914 L 154 914 Z M 154 230.128906 " clip-rule="nonzero"/></clipPath></defs><g clip-path="url(#515312251e)"><g clip-path="url(#c0a9202d2f)"><g clip-path="url(#e2314df8a7)"><path fill="#fc6a1f" d="M 1053.15625 146.011719 L 1084.339844 146.011719 L 1084.339844 998.421875 L 1053.15625 998.421875 Z M 1053.15625 146.011719 " fill-opacity="1" fill-rule="nonzero"/></g></g></g><g clip-path="url(#30f8ad0d15)"><g clip-path="url(#db8267b49b)"><g clip-path="url(#57a7a6da41)"><path fill="#fc6a1f" d="M 40.65625 146.011719 L 71.84375 146.011719 L 71.84375 998.421875 L 40.65625 998.421875 Z M 40.65625 146.011719 " fill-opacity="1" fill-rule="nonzero"/></g></g></g><g clip-path="url(#c44f09a73e)"><g clip-path="url(#fb9f4b8af5)"><g clip-path="url(#3b189ea395)"><path fill="#fc6a1f" d="M 136.292969 50.375 L 988.703125 50.375 L 988.703125 81.5625 L 136.292969 81.5625 Z M 136.292969 50.375 " fill-opacity="1" fill-rule="nonzero"/></g></g></g><g clip-path="url(#16f1087ee4)"><g clip-path="url(#ccd8df906e)"><g clip-path="url(#cb7238d426)"><path fill="#fc6a1f" d="M 136.292969 1062.875 L 988.703125 1062.875 L 988.703125 1094.058594 L 136.292969 1094.058594 Z M 136.292969 1062.875 " fill-opacity="1" fill-rule="nonzero"/></g></g></g><g clip-path="url(#dfa3cc6ba1)"><g clip-path="url(#e3a63185c2)"><g clip-path="url(#c7d7c17eec)"><path fill="#fc6a1f" d="M 1053.15625 81.5625 L 1053.15625 146.011719 L 1084.339844 146.011719 L 1084.339844 50.375 L 988.703125 50.375 L 988.703125 81.5625 Z M 1053.15625 81.5625 " fill-opacity="1" fill-rule="nonzero"/></g></g></g><g clip-path="url(#36d3fa92a6)"><g clip-path="url(#aa79ddc8b3)"><g clip-path="url(#f59317ec68)"><path fill="#fc6a1f" d="M 71.84375 81.5625 L 136.292969 81.5625 L 136.292969 50.375 L 40.65625 50.375 L 40.65625 146.011719 L 71.84375 146.011719 Z M 71.84375 81.5625 " fill-opacity="1" fill-rule="nonzero"/></g></g></g><g clip-path="url(#dcf5f115cd)"><g clip-path="url(#d01ae01e3d)"><g clip-path="url(#987b82eb87)"><path fill="#fc6a1f" d="M 1053.15625 1062.875 L 988.703125 1062.875 L 988.703125 1094.058594 L 1084.339844 1094.058594 L 1084.339844 998.421875 L 1053.15625 998.421875 Z M 1053.15625 1062.875 " fill-opacity="1" fill-rule="nonzero"/></g></g></g><g clip-path="url(#76aacefb77)"><g clip-path="url(#7f177716a9)"><g clip-path="url(#e89610104b)"><path fill="#fc6a1f" d="M 71.84375 1062.875 L 71.84375 998.421875 L 40.65625 998.421875 L 40.65625 1094.058594 L 136.292969 1094.058594 L 136.292969 1062.875 Z M 71.84375 1062.875 " fill-opacity="1" fill-rule="nonzero"/></g></g></g><g clip-path="url(#523fddd4d6)"><g clip-path="url(#10ebe66580)"><g clip-path="url(#c521716100)"><path stroke-linecap="butt" transform="matrix(0.75, 0, 0, 0.75, 40.657485, 50.375834)" fill="none" stroke-linejoin="miter" d="M -0.00164733 55.998893 L -0.00164733 1335.577128 C -0.00164733 1366.504214 25.071271 1391.577133 55.998357 1391.577133 L 1335.576593 1391.577133 C 1366.503679 1391.577133 1391.576597 1366.504214 1391.576597 1335.577128 L 1391.576597 55.998893 C 1391.576597 25.071807 1366.503679 -0.00111208 1335.576593 -0.00111208 L 55.998357 -0.00111208 C 25.071271 -0.00111208 -0.00164733 25.071807 -0.00164733 55.998893 Z M -0.00164733 55.998893 " stroke="#fc6a1f" stroke-width="66" stroke-opacity="1" stroke-miterlimit="4"/></g></g></g><path fill="#fc6a1f" d="M 357.722656 310.945312 C 360.796875 310.945312 363.96875 310.945312 367.332031 310.945312 C 382.988281 310.917969 398.332031 313.09375 413.359375 317.476562 C 414.671875 317.667969 415.988281 317.667969 417.300781 317.476562 C 418.070312 317.464844 418.832031 317.394531 419.589844 317.257812 C 420.347656 317.125 421.089844 316.933594 421.820312 316.679688 C 422.546875 316.425781 423.246094 316.117188 423.925781 315.75 C 424.601562 315.386719 425.246094 314.96875 425.855469 314.5 C 426.46875 314.03125 427.035156 313.515625 427.5625 312.957031 C 428.09375 312.398438 428.574219 311.800781 429.003906 311.164062 C 429.4375 310.523438 429.816406 309.859375 430.140625 309.160156 C 430.46875 308.464844 430.734375 307.746094 430.945312 307.003906 C 431.21875 306.101562 431.402344 305.183594 431.492188 304.242188 C 431.585938 303.304688 431.582031 302.367188 431.488281 301.429688 C 431.394531 300.492188 431.210938 299.570312 430.9375 298.667969 C 430.660156 297.769531 430.300781 296.902344 429.855469 296.070312 C 429.40625 295.242188 428.882812 294.460938 428.285156 293.734375 C 427.683594 293.007812 427.019531 292.347656 426.285156 291.75 C 425.554688 291.15625 424.773438 290.636719 423.941406 290.195312 C 423.109375 289.753906 422.238281 289.402344 421.335938 289.132812 C 412.617188 286.753906 403.777344 284.992188 394.816406 283.847656 C 385.765625 282.53125 376.667969 281.890625 367.523438 281.925781 L 356.378906 282.210938 C 353.191406 282.351562 350.015625 282.59375 346.84375 282.945312 C 343.675781 283.292969 340.519531 283.75 337.378906 284.308594 C 334.242188 284.867188 331.125 285.53125 328.027344 286.296875 C 324.933594 287.0625 321.867188 287.929688 318.828125 288.898438 C 315.789062 289.867188 312.785156 290.9375 309.820312 292.105469 C 306.851562 293.273438 303.929688 294.539062 301.042969 295.902344 C 298.160156 297.265625 295.328125 298.722656 292.539062 300.273438 C 289.753906 301.824219 287.023438 303.46875 284.34375 305.199219 C 281.667969 306.933594 279.050781 308.75 276.496094 310.65625 C 273.9375 312.5625 271.445312 314.550781 269.023438 316.625 C 266.597656 318.695312 264.246094 320.84375 261.960938 323.074219 C 259.679688 325.300781 257.476562 327.601562 255.347656 329.976562 C 253.21875 332.347656 251.167969 334.789062 249.203125 337.300781 C 247.234375 339.808594 245.351562 342.382812 243.554688 345.019531 C 241.761719 347.652344 240.054688 350.34375 238.433594 353.09375 C 236.816406 355.839844 235.292969 358.640625 233.859375 361.488281 C 231.777344 365.464844 229.863281 369.523438 228.121094 373.660156 C 226.378906 377.800781 224.816406 382.003906 223.425781 386.273438 C 222.039062 390.542969 220.832031 394.863281 219.808594 399.234375 C 218.785156 403.609375 217.945312 408.015625 217.292969 412.457031 C 216.640625 416.898438 216.171875 421.359375 215.894531 425.839844 C 215.617188 430.324219 215.53125 434.808594 215.628906 439.296875 C 215.730469 443.785156 216.019531 448.261719 216.496094 452.726562 C 216.972656 457.191406 217.636719 461.628906 218.484375 466.035156 C 218.796875 467.683594 219.382812 469.222656 220.242188 470.660156 C 221.101562 472.097656 222.179688 473.34375 223.480469 474.398438 C 224.757812 475.441406 226.167969 476.246094 227.71875 476.804688 C 229.269531 477.363281 230.867188 477.652344 232.515625 477.664062 C 233.445312 477.761719 234.371094 477.761719 235.300781 477.664062 C 236.230469 477.480469 237.128906 477.207031 238.003906 476.847656 C 238.875 476.484375 239.707031 476.042969 240.492188 475.519531 C 241.277344 474.992188 242.007812 474.398438 242.675781 473.730469 C 243.34375 473.0625 243.941406 472.335938 244.46875 471.550781 C 244.996094 470.765625 245.4375 469.9375 245.800781 469.066406 C 246.164062 468.195312 246.441406 467.292969 246.628906 466.367188 C 246.8125 465.441406 246.90625 464.503906 246.910156 463.558594 C 246.914062 462.613281 246.824219 461.679688 246.640625 460.75 C 245.269531 453.515625 244.511719 446.214844 244.363281 438.847656 C 244.214844 431.484375 244.683594 424.160156 245.761719 416.871094 C 246.839844 409.585938 248.519531 402.441406 250.796875 395.433594 C 253.070312 388.429688 255.914062 381.664062 259.324219 375.132812 C 260.46875 372.835938 261.691406 370.578125 262.988281 368.363281 C 264.28125 366.148438 265.648438 363.976562 267.089844 361.851562 C 268.527344 359.726562 270.035156 357.648438 271.613281 355.625 C 273.1875 353.597656 274.832031 351.625 276.539062 349.710938 C 278.246094 347.792969 280.015625 345.933594 281.847656 344.136719 C 283.675781 342.335938 285.566406 340.597656 287.511719 338.925781 C 289.457031 337.25 291.457031 335.640625 293.507812 334.101562 C 295.5625 332.558594 297.660156 331.085938 299.8125 329.683594 C 301.960938 328.28125 304.15625 326.953125 306.394531 325.695312 C 308.632812 324.4375 310.910156 323.253906 313.226562 322.148438 C 315.542969 321.042969 317.894531 320.015625 320.277344 319.066406 C 322.664062 318.113281 325.074219 317.242188 327.519531 316.453125 C 329.960938 315.664062 332.425781 314.953125 334.914062 314.328125 C 337.40625 313.699219 339.914062 313.15625 342.4375 312.695312 C 344.964844 312.234375 347.5 311.859375 350.050781 311.566406 C 352.601562 311.273438 355.160156 311.066406 357.722656 310.945312 Z M 357.722656 310.945312 " fill-opacity="1" fill-rule="nonzero"/><g clip-path="url(#a2b61e7502)"><path fill="#fc6a1f" d="M 941.386719 360.046875 C 939.734375 355.527344 937.917969 351.074219 935.941406 346.683594 C 933.964844 342.296875 931.832031 337.984375 929.539062 333.753906 C 927.25 329.519531 924.808594 325.375 922.214844 321.320312 C 919.621094 317.265625 916.886719 313.3125 914.007812 309.457031 C 911.125 305.597656 908.109375 301.851562 904.957031 298.21875 C 901.804688 294.582031 898.523438 291.0625 895.113281 287.667969 C 891.703125 284.269531 888.175781 281 884.527344 277.859375 C 880.882812 274.71875 877.125 271.714844 873.257812 268.847656 C 869.394531 265.980469 865.429688 263.257812 861.363281 260.679688 C 857.300781 258.101562 853.148438 255.675781 848.90625 253.398438 C 844.667969 251.125 840.347656 249.003906 835.953125 247.042969 C 831.558594 245.082031 827.097656 243.28125 822.570312 241.644531 C 818.046875 240.007812 813.464844 238.539062 808.832031 237.234375 C 804.199219 235.929688 799.527344 234.796875 794.8125 233.832031 C 790.09375 232.871094 785.351562 232.078125 780.578125 231.460938 C 775.804688 230.84375 771.015625 230.398438 766.210938 230.128906 C 761.503906 230.128906 756.601562 230.128906 751.894531 230.128906 C 747.277344 230.128906 742.667969 230.253906 738.0625 230.515625 C 733.457031 230.773438 728.863281 231.164062 724.277344 231.683594 C 719.691406 232.203125 715.128906 232.855469 710.578125 233.636719 C 706.03125 234.414062 701.511719 235.324219 697.015625 236.359375 C 692.519531 237.398438 688.058594 238.5625 683.628906 239.851562 C 679.199219 241.140625 674.808594 242.558594 670.460938 244.097656 C 666.113281 245.636719 661.808594 247.300781 657.554688 249.085938 C 653.300781 250.871094 649.101562 252.773438 644.953125 254.796875 C 640.808594 256.820312 636.722656 258.960938 632.699219 261.214844 C 628.671875 263.472656 624.714844 265.839844 620.824219 268.320312 C 616.9375 270.800781 613.121094 273.390625 609.375 276.085938 C 605.632812 278.785156 601.96875 281.585938 598.386719 284.492188 C 594.804688 287.398438 591.304688 290.402344 587.890625 293.507812 C 584.480469 296.613281 581.15625 299.808594 577.925781 303.105469 C 574.695312 306.398438 571.558594 309.78125 568.523438 313.25 C 565.484375 316.722656 562.546875 320.277344 559.707031 323.917969 C 556.871094 320.273438 553.933594 316.71875 550.894531 313.242188 C 547.855469 309.769531 544.71875 306.382812 541.488281 303.085938 C 538.257812 299.792969 534.933594 296.589844 531.519531 293.484375 C 528.105469 290.378906 524.605469 287.371094 521.019531 284.460938 C 517.4375 281.554688 513.769531 278.753906 510.027344 276.054688 C 506.28125 273.355469 502.464844 270.765625 498.570312 268.28125 C 494.679688 265.800781 490.71875 263.433594 486.691406 261.175781 C 482.667969 258.917969 478.578125 256.78125 474.429688 254.757812 C 470.28125 252.734375 466.078125 250.828125 461.820312 249.042969 C 457.5625 247.261719 453.257812 245.597656 448.90625 244.058594 C 444.554688 242.519531 440.164062 241.105469 435.730469 239.816406 C 431.300781 238.527344 426.835938 237.363281 422.335938 236.328125 C 417.839844 235.292969 413.3125 234.386719 408.765625 233.609375 C 404.214844 232.832031 399.644531 232.183594 395.058594 231.664062 C 390.472656 231.148438 385.875 230.761719 381.265625 230.503906 C 376.65625 230.25 372.042969 230.125 367.429688 230.128906 C 362.527344 230.128906 357.820312 230.128906 353.015625 230.128906 C 348.71875 230.339844 344.429688 230.6875 340.15625 231.179688 C 335.882812 231.667969 331.628906 232.300781 327.394531 233.074219 C 323.164062 233.84375 318.960938 234.753906 314.789062 235.804688 C 310.617188 236.855469 306.480469 238.042969 302.386719 239.363281 C 298.292969 240.6875 294.25 242.144531 290.25 243.734375 C 286.253906 245.324219 282.3125 247.046875 278.429688 248.898438 C 274.542969 250.75 270.726562 252.726562 266.972656 254.828125 C 263.21875 256.933594 259.539062 259.160156 255.933594 261.503906 C 252.328125 263.851562 248.800781 266.316406 245.359375 268.894531 C 241.914062 271.472656 238.5625 274.164062 235.296875 276.964844 C 232.03125 279.769531 228.859375 282.675781 225.789062 285.683594 C 222.714844 288.695312 219.742188 291.804688 216.875 295.011719 C 214.007812 298.21875 211.25 301.519531 208.597656 304.910156 C 205.949219 308.296875 203.414062 311.773438 200.992188 315.328125 C 198.574219 318.886719 196.273438 322.519531 194.09375 326.230469 C 191.914062 329.9375 189.859375 333.714844 187.929688 337.5625 C 185.839844 341.53125 183.878906 345.5625 182.050781 349.660156 C 180.21875 353.753906 178.523438 357.90625 176.960938 362.109375 C 175.398438 366.3125 173.96875 370.5625 172.679688 374.859375 C 171.386719 379.15625 170.238281 383.488281 169.222656 387.859375 C 168.210938 392.230469 167.339844 396.628906 166.609375 401.054688 C 165.878906 405.480469 165.292969 409.925781 164.847656 414.386719 C 164.402344 418.851562 164.101562 423.324219 163.941406 427.808594 C 163.785156 432.289062 163.769531 436.773438 163.898438 441.257812 C 164.027344 445.742188 164.300781 450.214844 164.71875 454.683594 C 165.136719 459.148438 165.695312 463.597656 166.398438 468.027344 C 167.101562 472.457031 167.945312 476.863281 168.929688 481.238281 C 169.914062 485.613281 171.039062 489.953125 172.304688 494.257812 C 173.566406 498.5625 174.96875 502.820312 176.503906 507.035156 C 178.042969 511.25 179.710938 515.410156 181.515625 519.519531 C 183.320312 523.625 185.253906 527.671875 187.316406 531.652344 C 189.382812 535.636719 191.570312 539.546875 193.886719 543.390625 C 194.523438 544.4375 195.28125 545.382812 196.164062 546.234375 C 197.046875 547.082031 198.023438 547.808594 199.089844 548.40625 C 200.160156 549.003906 201.289062 549.453125 202.472656 549.761719 C 203.660156 550.066406 204.863281 550.21875 206.089844 550.214844 C 208.792969 550.230469 211.289062 549.527344 213.585938 548.097656 C 214.410156 547.605469 215.179688 547.035156 215.894531 546.390625 C 216.605469 545.742188 217.246094 545.03125 217.816406 544.257812 C 218.386719 543.480469 218.875 542.65625 219.28125 541.785156 C 219.6875 540.910156 220 540.007812 220.222656 539.070312 C 220.449219 538.136719 220.578125 537.1875 220.609375 536.222656 C 220.644531 535.261719 220.582031 534.308594 220.425781 533.359375 C 220.269531 532.410156 220.015625 531.484375 219.675781 530.585938 C 219.332031 529.6875 218.902344 528.828125 218.390625 528.015625 C 216.398438 524.703125 214.515625 521.328125 212.738281 517.894531 C 210.964844 514.460938 209.300781 510.972656 207.75 507.433594 C 206.199219 503.894531 204.761719 500.304688 203.441406 496.671875 C 202.117188 493.039062 200.914062 489.367188 199.828125 485.660156 C 198.742188 481.949219 197.777344 478.207031 196.929688 474.4375 C 196.085938 470.664062 195.363281 466.867188 194.757812 463.050781 C 194.15625 459.230469 193.675781 455.398438 193.320312 451.546875 C 192.964844 447.699219 192.734375 443.84375 192.625 439.976562 C 192.515625 436.113281 192.53125 432.25 192.667969 428.386719 C 192.808594 424.523438 193.070312 420.667969 193.457031 416.824219 C 193.84375 412.976562 194.351562 409.148438 194.984375 405.332031 C 195.617188 401.519531 196.371094 397.730469 197.246094 393.964844 C 198.121094 390.199219 199.117188 386.464844 200.230469 382.765625 C 201.34375 379.0625 202.578125 375.402344 203.925781 371.777344 C 205.277344 368.15625 206.742188 364.582031 208.320312 361.050781 C 209.898438 357.523438 211.589844 354.050781 213.394531 350.628906 C 215.050781 347.34375 216.8125 344.117188 218.683594 340.949219 C 220.554688 337.777344 222.527344 334.675781 224.601562 331.636719 C 226.679688 328.597656 228.851562 325.628906 231.121094 322.734375 C 233.394531 319.839844 235.757812 317.019531 238.214844 314.28125 C 240.675781 311.542969 243.21875 308.886719 245.851562 306.316406 C 248.484375 303.746094 251.199219 301.265625 253.996094 298.871094 C 256.792969 296.480469 259.667969 294.183594 262.617188 291.984375 C 265.566406 289.78125 268.582031 287.679688 271.671875 285.675781 C 274.757812 283.675781 277.90625 281.777344 281.121094 279.980469 C 284.332031 278.1875 287.601562 276.5 290.925781 274.921875 C 294.25 273.34375 297.625 271.878906 301.046875 270.523438 C 304.464844 269.167969 307.929688 267.925781 311.433594 266.796875 C 314.9375 265.671875 318.472656 264.664062 322.042969 263.769531 C 325.613281 262.875 329.207031 262.101562 332.828125 261.445312 C 336.449219 260.789062 340.089844 260.253906 343.746094 259.839844 C 347.402344 259.425781 351.066406 259.132812 354.746094 258.957031 C 358.875 258.957031 363.105469 258.957031 367.429688 258.957031 C 371.878906 258.957031 376.324219 259.089844 380.765625 259.363281 C 385.210938 259.636719 389.636719 260.050781 394.054688 260.597656 C 398.472656 261.148438 402.867188 261.832031 407.242188 262.652344 C 411.613281 263.476562 415.957031 264.433594 420.273438 265.523438 C 424.585938 266.617188 428.863281 267.839844 433.101562 269.195312 C 437.339844 270.554688 441.53125 272.042969 445.679688 273.660156 C 449.824219 275.277344 453.917969 277.023438 457.953125 278.894531 C 461.992188 280.765625 465.96875 282.761719 469.882812 284.878906 C 473.796875 286.996094 477.640625 289.234375 481.414062 291.59375 C 485.191406 293.949219 488.886719 296.421875 492.507812 299.007812 C 496.128906 301.597656 499.667969 304.292969 503.121094 307.101562 C 506.574219 309.90625 509.9375 312.820312 513.210938 315.835938 C 516.484375 318.851562 519.660156 321.964844 522.738281 325.175781 C 525.820312 328.390625 528.796875 331.695312 531.667969 335.09375 C 534.542969 338.492188 537.308594 341.976562 539.96875 345.546875 C 542.625 349.113281 545.167969 352.765625 547.601562 356.492188 C 547.949219 356.957031 548.324219 357.402344 548.722656 357.824219 C 549.121094 358.246094 549.542969 358.644531 549.988281 359.015625 C 550.433594 359.390625 550.902344 359.734375 551.386719 360.054688 C 551.871094 360.375 552.375 360.664062 552.894531 360.921875 C 553.414062 361.183594 553.945312 361.414062 554.492188 361.613281 C 555.039062 361.808594 555.59375 361.976562 556.160156 362.109375 C 556.726562 362.246094 557.296875 362.34375 557.875 362.414062 C 558.453125 362.480469 559.03125 362.511719 559.613281 362.511719 C 560.195312 362.511719 560.773438 362.480469 561.351562 362.414062 C 561.925781 362.34375 562.5 362.246094 563.0625 362.109375 C 563.628906 361.976562 564.1875 361.808594 564.730469 361.613281 C 565.277344 361.414062 565.8125 361.183594 566.332031 360.921875 C 566.851562 360.664062 567.351562 360.375 567.839844 360.054688 C 568.324219 359.734375 568.789062 359.390625 569.234375 359.015625 C 569.683594 358.644531 570.105469 358.246094 570.503906 357.824219 C 570.902344 357.402344 571.277344 356.957031 571.625 356.492188 C 574.058594 352.761719 576.601562 349.113281 579.261719 345.542969 C 581.921875 341.972656 584.691406 338.488281 587.566406 335.089844 C 590.441406 331.691406 593.421875 328.382812 596.503906 325.171875 C 599.585938 321.957031 602.761719 318.84375 606.039062 315.824219 C 609.3125 312.808594 612.679688 309.898438 616.132812 307.089844 C 619.589844 304.285156 623.128906 301.585938 626.753906 299 C 630.375 296.410156 634.074219 293.9375 637.851562 291.582031 C 641.628906 289.222656 645.476562 286.984375 649.390625 284.867188 C 653.308594 282.75 657.285156 280.753906 661.324219 278.882812 C 665.363281 277.011719 669.457031 275.265625 673.605469 273.648438 C 677.753906 272.03125 681.949219 270.542969 686.191406 269.1875 C 690.429688 267.832031 694.707031 266.605469 699.023438 265.515625 C 703.339844 264.425781 707.6875 263.46875 712.0625 262.648438 C 716.441406 261.828125 720.835938 261.140625 725.253906 260.59375 C 729.671875 260.046875 734.105469 259.636719 738.546875 259.363281 C 742.992188 259.089844 747.441406 258.953125 751.894531 258.957031 C 756.121094 258.957031 760.347656 258.957031 764.578125 258.957031 C 768.703125 259.160156 772.8125 259.515625 776.910156 260.019531 C 781.007812 260.523438 785.082031 261.179688 789.132812 261.984375 C 793.183594 262.789062 797.195312 263.746094 801.175781 264.847656 C 805.15625 265.949219 809.089844 267.195312 812.976562 268.585938 C 816.863281 269.980469 820.695312 271.511719 824.46875 273.1875 C 828.242188 274.859375 831.953125 276.671875 835.59375 278.621094 C 839.234375 280.566406 842.796875 282.644531 846.285156 284.855469 C 849.773438 287.066406 853.175781 289.402344 856.488281 291.863281 C 859.804688 294.328125 863.023438 296.90625 866.148438 299.605469 C 869.273438 302.304688 872.296875 305.113281 875.214844 308.035156 C 878.132812 310.957031 880.9375 313.984375 883.632812 317.113281 C 886.328125 320.242188 888.902344 323.464844 891.359375 326.785156 C 893.816406 330.101562 896.148438 333.507812 898.351562 336.996094 C 900.558594 340.488281 902.632812 344.054688 904.574219 347.699219 C 906.519531 351.34375 908.324219 355.050781 909.992188 358.828125 C 911.664062 362.605469 913.191406 366.4375 914.578125 370.328125 C 916.160156 374.335938 917.59375 378.394531 918.878906 382.507812 C 920.167969 386.617188 921.300781 390.773438 922.285156 394.964844 C 923.269531 399.160156 924.101562 403.382812 924.78125 407.640625 C 925.457031 411.894531 925.980469 416.167969 926.34375 420.460938 C 926.710938 424.753906 926.921875 429.054688 926.976562 433.359375 C 927.027344 437.667969 926.925781 441.972656 926.667969 446.273438 C 926.40625 450.574219 925.992188 454.859375 925.421875 459.128906 C 924.847656 463.398438 924.125 467.644531 923.242188 471.859375 C 922.363281 476.078125 921.332031 480.257812 920.148438 484.402344 C 918.964844 488.542969 917.628906 492.636719 916.148438 496.683594 C 914.667969 500.726562 913.039062 504.714844 911.269531 508.640625 C 909.496094 512.566406 907.585938 516.425781 905.53125 520.214844 C 903.480469 524 901.292969 527.710938 898.96875 531.339844 C 896.648438 534.96875 894.195312 538.507812 891.617188 541.957031 C 889.039062 545.40625 886.335938 548.761719 883.511719 552.015625 C 880.6875 555.269531 877.75 558.414062 874.699219 561.457031 L 559.613281 878.558594 L 310.542969 627.855469 L 402.984375 627.855469 C 403.691406 627.851562 404.394531 627.796875 405.09375 627.691406 C 405.792969 627.582031 406.480469 627.425781 407.15625 627.214844 C 407.832031 627.007812 408.488281 626.75 409.128906 626.445312 C 409.765625 626.140625 410.378906 625.789062 410.964844 625.394531 C 411.550781 625 412.105469 624.5625 412.628906 624.085938 C 413.152344 623.609375 413.636719 623.097656 414.082031 622.546875 C 414.53125 622 414.933594 621.421875 415.296875 620.8125 C 415.660156 620.203125 415.972656 619.574219 416.242188 618.917969 L 465.921875 497.746094 L 538.375 701.65625 C 538.621094 702.335938 538.917969 702.996094 539.261719 703.632812 C 539.605469 704.269531 539.996094 704.878906 540.433594 705.457031 C 540.867188 706.035156 541.347656 706.578125 541.863281 707.085938 C 542.382812 707.589844 542.933594 708.054688 543.523438 708.480469 C 544.113281 708.902344 544.726562 709.277344 545.375 709.609375 C 546.019531 709.9375 546.683594 710.21875 547.371094 710.449219 C 548.058594 710.675781 548.757812 710.855469 549.472656 710.976562 C 550.1875 711.101562 550.90625 711.171875 551.632812 711.1875 C 552.355469 711.203125 553.078125 711.164062 553.796875 711.070312 C 554.515625 710.976562 555.222656 710.832031 555.917969 710.632812 C 556.613281 710.429688 557.292969 710.179688 557.949219 709.878906 C 558.609375 709.574219 559.242188 709.226562 559.847656 708.828125 C 560.453125 708.429688 561.023438 707.992188 561.566406 707.507812 C 562.105469 707.023438 562.605469 706.5 563.066406 705.941406 C 563.527344 705.382812 563.941406 704.792969 564.3125 704.171875 C 564.683594 703.546875 565.007812 702.902344 565.28125 702.230469 L 624.761719 554.25 L 721.527344 554.25 C 722.472656 554.25 723.410156 554.15625 724.339844 553.972656 C 725.269531 553.789062 726.167969 553.515625 727.042969 553.152344 C 727.917969 552.789062 728.75 552.347656 729.535156 551.820312 C 730.324219 551.292969 731.050781 550.695312 731.71875 550.027344 C 732.390625 549.359375 732.988281 548.628906 733.511719 547.84375 C 734.039062 547.054688 734.480469 546.226562 734.84375 545.351562 C 735.207031 544.476562 735.480469 543.574219 735.664062 542.648438 C 735.847656 541.71875 735.941406 540.78125 735.941406 539.835938 C 735.941406 538.890625 735.847656 537.953125 735.664062 537.023438 C 735.480469 536.09375 735.207031 535.195312 734.84375 534.320312 C 734.480469 533.445312 734.039062 532.613281 733.511719 531.828125 C 732.988281 531.039062 732.390625 530.3125 731.71875 529.644531 C 731.050781 528.972656 730.324219 528.375 729.535156 527.851562 C 728.75 527.324219 727.917969 526.878906 727.042969 526.519531 C 726.167969 526.15625 725.269531 525.882812 724.339844 525.699219 C 723.410156 525.515625 722.472656 525.421875 721.527344 525.421875 L 615.828125 525.421875 C 615.113281 525.421875 614.402344 525.476562 613.695312 525.582031 C 612.988281 525.6875 612.292969 525.847656 611.613281 526.054688 C 610.929688 526.265625 610.265625 526.523438 609.621094 526.832031 C 608.976562 527.140625 608.359375 527.496094 607.765625 527.894531 C 607.175781 528.296875 606.617188 528.738281 606.089844 529.21875 C 605.5625 529.703125 605.078125 530.222656 604.628906 530.777344 C 604.179688 531.335938 603.773438 531.921875 603.414062 532.535156 C 603.050781 533.152344 602.734375 533.792969 602.46875 534.453125 L 553.460938 656.300781 L 480.433594 452.777344 C 480.191406 452.09375 479.902344 451.433594 479.5625 450.796875 C 479.222656 450.15625 478.835938 449.546875 478.402344 448.96875 C 477.972656 448.386719 477.5 447.84375 476.984375 447.335938 C 476.472656 446.824219 475.921875 446.359375 475.339844 445.933594 C 474.753906 445.503906 474.140625 445.125 473.5 444.792969 C 472.859375 444.457031 472.195312 444.171875 471.511719 443.9375 C 470.828125 443.703125 470.132812 443.523438 469.417969 443.394531 C 468.707031 443.261719 467.992188 443.1875 467.269531 443.167969 L 467.269531 447.972656 L 467.269531 443.167969 C 466.558594 443.167969 465.855469 443.21875 465.15625 443.324219 C 464.453125 443.429688 463.765625 443.585938 463.089844 443.792969 C 462.410156 444 461.753906 444.253906 461.113281 444.558594 C 460.472656 444.863281 459.859375 445.214844 459.273438 445.609375 C 458.6875 446.007812 458.132812 446.445312 457.609375 446.921875 C 457.085938 447.398438 456.601562 447.914062 456.15625 448.464844 C 455.710938 449.015625 455.308594 449.59375 454.945312 450.203125 C 454.585938 450.8125 454.273438 451.445312 454.007812 452.101562 L 393.277344 599.125 L 169 599.125 C 168.050781 599.125 167.113281 599.214844 166.1875 599.402344 C 165.257812 599.585938 164.355469 599.859375 163.480469 600.222656 C 162.609375 600.582031 161.777344 601.027344 160.992188 601.554688 C 160.203125 602.078125 159.476562 602.675781 158.804688 603.347656 C 158.136719 604.015625 157.539062 604.742188 157.011719 605.53125 C 156.488281 606.316406 156.042969 607.148438 155.679688 608.023438 C 155.320312 608.894531 155.046875 609.796875 154.863281 610.726562 C 154.675781 611.652344 154.585938 612.589844 154.585938 613.539062 C 154.585938 614.484375 154.675781 615.421875 154.863281 616.351562 C 155.046875 617.277344 155.320312 618.179688 155.679688 619.054688 C 156.042969 619.929688 156.488281 620.757812 157.011719 621.546875 C 157.539062 622.332031 158.136719 623.0625 158.804688 623.730469 C 159.476562 624.398438 160.203125 624.996094 160.992188 625.523438 C 161.777344 626.046875 162.609375 626.492188 163.480469 626.855469 C 164.355469 627.214844 165.257812 627.488281 166.1875 627.675781 C 167.113281 627.859375 168.050781 627.953125 169 627.953125 L 269.894531 627.953125 L 549.425781 908.828125 C 550.097656 909.496094 550.824219 910.09375 551.609375 910.617188 C 552.398438 911.144531 553.226562 911.585938 554.101562 911.949219 C 554.972656 912.308594 555.875 912.582031 556.804688 912.769531 C 557.730469 912.953125 558.667969 913.042969 559.613281 913.042969 C 560.558594 913.042969 561.496094 912.953125 562.421875 912.769531 C 563.351562 912.582031 564.25 912.308594 565.125 911.949219 C 566 911.585938 566.828125 911.144531 567.613281 910.617188 C 568.402344 910.09375 569.128906 909.496094 569.796875 908.828125 L 895.070312 582.117188 C 898.621094 578.585938 902.039062 574.929688 905.324219 571.152344 C 908.605469 567.375 911.75 563.480469 914.75 559.472656 C 917.75 555.464844 920.601562 551.351562 923.300781 547.136719 C 926.003906 542.921875 928.546875 538.613281 930.933594 534.210938 C 933.320312 529.8125 935.542969 525.328125 937.605469 520.765625 C 939.664062 516.203125 941.558594 511.570312 943.28125 506.871094 C 945.003906 502.167969 946.550781 497.414062 947.929688 492.597656 C 949.304688 487.785156 950.503906 482.925781 951.527344 478.027344 C 952.546875 473.125 953.390625 468.191406 954.054688 463.230469 C 954.714844 458.269531 955.199219 453.289062 955.496094 448.289062 C 955.796875 443.292969 955.914062 438.289062 955.851562 433.285156 C 955.785156 428.277344 955.539062 423.28125 955.109375 418.292969 C 954.683594 413.304688 954.074219 408.339844 953.28125 403.394531 C 952.492188 398.449219 951.523438 393.542969 950.375 388.667969 C 949.226562 383.796875 947.902344 378.972656 946.402344 374.195312 C 944.902344 369.417969 943.230469 364.703125 941.386719 360.046875 Z M 941.386719 360.046875 " fill-opacity="1" fill-rule="nonzero"/></g><path fill="#fc6a1f" d="M 887.765625 461.617188 L 888.921875 461.617188 C 889.816406 461.613281 890.703125 461.527344 891.582031 461.359375 C 892.464844 461.191406 893.320312 460.941406 894.152344 460.613281 C 894.988281 460.285156 895.78125 459.882812 896.542969 459.40625 C 897.300781 458.929688 898.007812 458.386719 898.664062 457.777344 C 899.320312 457.167969 899.917969 456.503906 900.449219 455.785156 C 900.984375 455.066406 901.445312 454.300781 901.835938 453.496094 C 902.226562 452.691406 902.542969 451.855469 902.777344 450.992188 C 903.011719 450.128906 903.167969 449.25 903.238281 448.355469 C 904.105469 436.480469 903.683594 424.652344 901.964844 412.871094 C 900.246094 401.085938 897.277344 389.628906 893.050781 378.496094 C 891.847656 375.136719 890.519531 371.824219 889.070312 368.5625 C 887.625 365.300781 886.058594 362.097656 884.371094 358.949219 C 882.6875 355.800781 880.886719 352.722656 878.976562 349.707031 C 877.066406 346.695312 875.042969 343.753906 872.914062 340.886719 C 870.789062 338.023438 868.554688 335.238281 866.222656 332.539062 C 863.890625 329.835938 861.457031 327.226562 858.933594 324.703125 C 856.40625 322.183594 853.789062 319.757812 851.085938 317.429688 C 848.378906 315.097656 845.59375 312.871094 842.726562 310.75 C 839.855469 308.625 836.914062 306.609375 833.894531 304.703125 C 830.878906 302.796875 827.792969 301.003906 824.644531 299.324219 C 821.496094 297.644531 818.285156 296.082031 815.023438 294.640625 C 811.757812 293.199219 808.445312 291.875 805.082031 290.679688 C 801.71875 289.480469 798.316406 288.40625 794.875 287.457031 C 791.433594 286.507812 787.964844 285.6875 784.460938 284.996094 C 780.960938 284.304688 777.4375 283.742188 773.894531 283.308594 C 770.351562 282.875 766.796875 282.574219 763.230469 282.40625 L 752.277344 282.40625 C 748.335938 282.40625 744.398438 282.40625 740.363281 282.40625 C 726.371094 283.242188 712.636719 285.570312 699.152344 289.394531 C 685.671875 293.21875 672.757812 298.449219 660.414062 305.082031 C 659.726562 305.464844 659.070312 305.902344 658.457031 306.394531 C 657.839844 306.886719 657.265625 307.421875 656.738281 308.007812 C 656.207031 308.59375 655.730469 309.21875 655.304688 309.878906 C 654.878906 310.542969 654.511719 311.238281 654.199219 311.960938 C 653.886719 312.683594 653.632812 313.429688 653.445312 314.195312 C 653.253906 314.960938 653.128906 315.734375 653.0625 316.519531 C 653 317.304688 653.003906 318.09375 653.070312 318.878906 C 653.132812 319.664062 653.265625 320.4375 653.457031 321.203125 C 653.652344 321.96875 653.90625 322.710938 654.21875 323.433594 C 654.535156 324.15625 654.90625 324.847656 655.335938 325.507812 C 655.765625 326.171875 656.242188 326.792969 656.773438 327.375 C 657.304688 327.957031 657.878906 328.496094 658.5 328.984375 C 659.117188 329.472656 659.773438 329.90625 660.460938 330.289062 C 661.152344 330.667969 661.867188 330.992188 662.609375 331.253906 C 663.355469 331.519531 664.113281 331.71875 664.890625 331.859375 C 665.664062 332 666.449219 332.074219 667.234375 332.085938 C 669.695312 332.128906 672.003906 331.550781 674.15625 330.355469 C 680.15625 327.183594 686.328125 324.390625 692.675781 321.976562 C 699.019531 319.5625 705.488281 317.546875 712.082031 315.929688 C 718.671875 314.308594 725.339844 313.097656 732.078125 312.296875 C 738.820312 311.492188 745.585938 311.109375 752.375 311.136719 L 761.984375 311.136719 C 764.863281 311.277344 767.730469 311.527344 770.59375 311.882812 C 773.453125 312.238281 776.296875 312.699219 779.121094 313.261719 C 781.949219 313.828125 784.75 314.496094 787.527344 315.265625 C 790.304688 316.035156 793.050781 316.910156 795.765625 317.882812 C 798.476562 318.855469 801.152344 319.929688 803.785156 321.101562 C 806.417969 322.269531 809.007812 323.539062 811.546875 324.898438 C 814.085938 326.261719 816.574219 327.714844 819.007812 329.261719 C 821.441406 330.804688 823.8125 332.4375 826.128906 334.160156 C 828.441406 335.878906 830.6875 337.683594 832.867188 339.566406 C 835.046875 341.453125 837.152344 343.417969 839.1875 345.460938 C 841.222656 347.5 843.179688 349.613281 845.058594 351.800781 C 846.9375 353.988281 848.734375 356.238281 850.449219 358.558594 C 852.160156 360.875 853.785156 363.253906 855.324219 365.691406 C 856.859375 368.128906 858.308594 370.621094 859.660156 373.167969 C 861.015625 375.710938 862.273438 378.300781 863.433594 380.941406 C 864.597656 383.578125 865.660156 386.253906 866.625 388.96875 C 870.121094 398.15625 872.566406 407.613281 873.960938 417.339844 C 875.355469 427.066406 875.664062 436.828125 874.890625 446.625 C 874.855469 447.535156 874.902344 448.4375 875.039062 449.335938 C 875.171875 450.234375 875.386719 451.113281 875.6875 451.96875 C 875.984375 452.828125 876.363281 453.648438 876.816406 454.4375 C 877.269531 455.226562 877.789062 455.960938 878.382812 456.652344 C 878.976562 457.339844 879.625 457.96875 880.335938 458.535156 C 881.046875 459.101562 881.800781 459.597656 882.605469 460.023438 C 883.40625 460.449219 884.242188 460.792969 885.109375 461.0625 C 885.980469 461.328125 886.863281 461.515625 887.765625 461.617188 Z M 887.765625 461.617188 " fill-opacity="1" fill-rule="nonzero"/></svg>