<svg xmlns="http://www.w3.org/2000/svg" xmlns:xlink="http://www.w3.org/1999/xlink" width="1500" zoomAndPan="magnify" viewBox="0 0 1125 1124.99995" height="1500" preserveAspectRatio="xMidYMid meet" version="1.0"><defs><clipPath id="b45188a5e0"><path d="M 1053 146 L 1083.90625 146 L 1083.90625 999 L 1053 999 Z M 1053 146 " clip-rule="nonzero"/></clipPath><clipPath id="23634bcb90"><path d="M 40.65625 92.375 L 40.65625 1052.0625 C 40.65625 1075.257812 59.460938 1094.0625 82.65625 1094.0625 L 1042.34375 1094.0625 C 1065.539062 1094.0625 1084.34375 1075.257812 1084.34375 1052.0625 L 1084.34375 92.375 C 1084.34375 69.179688 1065.539062 50.375 1042.34375 50.375 L 82.65625 50.375 C 59.460938 50.375 40.65625 69.179688 40.65625 92.375 Z M 40.65625 92.375 " clip-rule="nonzero"/></clipPath><clipPath id="44db7707fb"><path d="M 83.558594 51.277344 L 1041.441406 51.277344 C 1064.636719 51.277344 1083.441406 70.078125 1083.441406 93.277344 L 1083.441406 1051.160156 C 1083.441406 1074.355469 1064.636719 1093.160156 1041.441406 1093.160156 L 83.558594 1093.160156 C 60.363281 1093.160156 41.558594 1074.355469 41.558594 1051.160156 L 41.558594 93.277344 C 41.558594 70.078125 60.363281 51.277344 83.558594 51.277344 Z M 83.558594 51.277344 " clip-rule="nonzero"/></clipPath><clipPath id="8a77373f3f"><path d="M 41.40625 146 L 72 146 L 72 999 L 41.40625 999 Z M 41.40625 146 " clip-rule="nonzero"/></clipPath><clipPath id="c7f0d8fff3"><path d="M 40.65625 92.375 L 40.65625 1052.0625 C 40.65625 1075.257812 59.460938 1094.0625 82.65625 1094.0625 L 1042.34375 1094.0625 C 1065.539062 1094.0625 1084.34375 1075.257812 1084.34375 1052.0625 L 1084.34375 92.375 C 1084.34375 69.179688 1065.539062 50.375 1042.34375 50.375 L 82.65625 50.375 C 59.460938 50.375 40.65625 69.179688 40.65625 92.375 Z M 40.65625 92.375 " clip-rule="nonzero"/></clipPath><clipPath id="a0aea0eeeb"><path d="M 83.558594 51.277344 L 1041.441406 51.277344 C 1064.636719 51.277344 1083.441406 70.078125 1083.441406 93.277344 L 1083.441406 1051.160156 C 1083.441406 1074.355469 1064.636719 1093.160156 1041.441406 1093.160156 L 83.558594 1093.160156 C 60.363281 1093.160156 41.558594 1074.355469 41.558594 1051.160156 L 41.558594 93.277344 C 41.558594 70.078125 60.363281 51.277344 83.558594 51.277344 Z M 83.558594 51.277344 " clip-rule="nonzero"/></clipPath><clipPath id="cd3da80589"><path d="M 136 51.125 L 989 51.125 L 989 82 L 136 82 Z M 136 51.125 " clip-rule="nonzero"/></clipPath><clipPath id="eab9a9e550"><path d="M 40.65625 92.375 L 40.65625 1052.0625 C 40.65625 1075.257812 59.460938 1094.0625 82.65625 1094.0625 L 1042.34375 1094.0625 C 1065.539062 1094.0625 1084.34375 1075.257812 1084.34375 1052.0625 L 1084.34375 92.375 C 1084.34375 69.179688 1065.539062 50.375 1042.34375 50.375 L 82.65625 50.375 C 59.460938 50.375 40.65625 69.179688 40.65625 92.375 Z M 40.65625 92.375 " clip-rule="nonzero"/></clipPath><clipPath id="3834151329"><path d="M 83.558594 51.277344 L 1041.441406 51.277344 C 1064.636719 51.277344 1083.441406 70.078125 1083.441406 93.277344 L 1083.441406 1051.160156 C 1083.441406 1074.355469 1064.636719 1093.160156 1041.441406 1093.160156 L 83.558594 1093.160156 C 60.363281 1093.160156 41.558594 1074.355469 41.558594 1051.160156 L 41.558594 93.277344 C 41.558594 70.078125 60.363281 51.277344 83.558594 51.277344 Z M 83.558594 51.277344 " clip-rule="nonzero"/></clipPath><clipPath id="483cfb92b5"><path d="M 136 1062 L 989 1062 L 989 1093.625 L 136 1093.625 Z M 136 1062 " clip-rule="nonzero"/></clipPath><clipPath id="b5bdaa0fb7"><path d="M 40.65625 92.375 L 40.65625 1052.0625 C 40.65625 1075.257812 59.460938 1094.0625 82.65625 1094.0625 L 1042.34375 1094.0625 C 1065.539062 1094.0625 1084.34375 1075.257812 1084.34375 1052.0625 L 1084.34375 92.375 C 1084.34375 69.179688 1065.539062 50.375 1042.34375 50.375 L 82.65625 50.375 C 59.460938 50.375 40.65625 69.179688 40.65625 92.375 Z M 40.65625 92.375 " clip-rule="nonzero"/></clipPath><clipPath id="57db17ccd4"><path d="M 83.558594 51.277344 L 1041.441406 51.277344 C 1064.636719 51.277344 1083.441406 70.078125 1083.441406 93.277344 L 1083.441406 1051.160156 C 1083.441406 1074.355469 1064.636719 1093.160156 1041.441406 1093.160156 L 83.558594 1093.160156 C 60.363281 1093.160156 41.558594 1074.355469 41.558594 1051.160156 L 41.558594 93.277344 C 41.558594 70.078125 60.363281 51.277344 83.558594 51.277344 Z M 83.558594 51.277344 " clip-rule="nonzero"/></clipPath><clipPath id="c1f1c20639"><path d="M 988 51.125 L 1083.90625 51.125 L 1083.90625 147 L 988 147 Z M 988 51.125 " clip-rule="nonzero"/></clipPath><clipPath id="32be9eab95"><path d="M 40.65625 92.375 L 40.65625 1052.0625 C 40.65625 1075.257812 59.460938 1094.0625 82.65625 1094.0625 L 1042.34375 1094.0625 C 1065.539062 1094.0625 1084.34375 1075.257812 1084.34375 1052.0625 L 1084.34375 92.375 C 1084.34375 69.179688 1065.539062 50.375 1042.34375 50.375 L 82.65625 50.375 C 59.460938 50.375 40.65625 69.179688 40.65625 92.375 Z M 40.65625 92.375 " clip-rule="nonzero"/></clipPath><clipPath id="b6e955578f"><path d="M 83.558594 51.277344 L 1041.441406 51.277344 C 1064.636719 51.277344 1083.441406 70.078125 1083.441406 93.277344 L 1083.441406 1051.160156 C 1083.441406 1074.355469 1064.636719 1093.160156 1041.441406 1093.160156 L 83.558594 1093.160156 C 60.363281 1093.160156 41.558594 1074.355469 41.558594 1051.160156 L 41.558594 93.277344 C 41.558594 70.078125 60.363281 51.277344 83.558594 51.277344 Z M 83.558594 51.277344 " clip-rule="nonzero"/></clipPath><clipPath id="28c11015f8"><path d="M 41.40625 51.125 L 137 51.125 L 137 147 L 41.40625 147 Z M 41.40625 51.125 " clip-rule="nonzero"/></clipPath><clipPath id="33f80cbb4a"><path d="M 40.65625 92.375 L 40.65625 1052.0625 C 40.65625 1075.257812 59.460938 1094.0625 82.65625 1094.0625 L 1042.34375 1094.0625 C 1065.539062 1094.0625 1084.34375 1075.257812 1084.34375 1052.0625 L 1084.34375 92.375 C 1084.34375 69.179688 1065.539062 50.375 1042.34375 50.375 L 82.65625 50.375 C 59.460938 50.375 40.65625 69.179688 40.65625 92.375 Z M 40.65625 92.375 " clip-rule="nonzero"/></clipPath><clipPath id="390cbf279c"><path d="M 83.558594 51.277344 L 1041.441406 51.277344 C 1064.636719 51.277344 1083.441406 70.078125 1083.441406 93.277344 L 1083.441406 1051.160156 C 1083.441406 1074.355469 1064.636719 1093.160156 1041.441406 1093.160156 L 83.558594 1093.160156 C 60.363281 1093.160156 41.558594 1074.355469 41.558594 1051.160156 L 41.558594 93.277344 C 41.558594 70.078125 60.363281 51.277344 83.558594 51.277344 Z M 83.558594 51.277344 " clip-rule="nonzero"/></clipPath><clipPath id="d51ba74bbf"><path d="M 988 998 L 1083.90625 998 L 1083.90625 1093.625 L 988 1093.625 Z M 988 998 " clip-rule="nonzero"/></clipPath><clipPath id="eff3a143c9"><path d="M 40.65625 92.375 L 40.65625 1052.0625 C 40.65625 1075.257812 59.460938 1094.0625 82.65625 1094.0625 L 1042.34375 1094.0625 C 1065.539062 1094.0625 1084.34375 1075.257812 1084.34375 1052.0625 L 1084.34375 92.375 C 1084.34375 69.179688 1065.539062 50.375 1042.34375 50.375 L 82.65625 50.375 C 59.460938 50.375 40.65625 69.179688 40.65625 92.375 Z M 40.65625 92.375 " clip-rule="nonzero"/></clipPath><clipPath id="241d90ae19"><path d="M 83.558594 51.277344 L 1041.441406 51.277344 C 1064.636719 51.277344 1083.441406 70.078125 1083.441406 93.277344 L 1083.441406 1051.160156 C 1083.441406 1074.355469 1064.636719 1093.160156 1041.441406 1093.160156 L 83.558594 1093.160156 C 60.363281 1093.160156 41.558594 1074.355469 41.558594 1051.160156 L 41.558594 93.277344 C 41.558594 70.078125 60.363281 51.277344 83.558594 51.277344 Z M 83.558594 51.277344 " clip-rule="nonzero"/></clipPath><clipPath id="403e8f6cda"><path d="M 41.40625 998 L 137 998 L 137 1093.625 L 41.40625 1093.625 Z M 41.40625 998 " clip-rule="nonzero"/></clipPath><clipPath id="d688f5ec01"><path d="M 40.65625 92.375 L 40.65625 1052.0625 C 40.65625 1075.257812 59.460938 1094.0625 82.65625 1094.0625 L 1042.34375 1094.0625 C 1065.539062 1094.0625 1084.34375 1075.257812 1084.34375 1052.0625 L 1084.34375 92.375 C 1084.34375 69.179688 1065.539062 50.375 1042.34375 50.375 L 82.65625 50.375 C 59.460938 50.375 40.65625 69.179688 40.65625 92.375 Z M 40.65625 92.375 " clip-rule="nonzero"/></clipPath><clipPath id="5bb83fda19"><path d="M 83.558594 51.277344 L 1041.441406 51.277344 C 1064.636719 51.277344 1083.441406 70.078125 1083.441406 93.277344 L 1083.441406 1051.160156 C 1083.441406 1074.355469 1064.636719 1093.160156 1041.441406 1093.160156 L 83.558594 1093.160156 C 60.363281 1093.160156 41.558594 1074.355469 41.558594 1051.160156 L 41.558594 93.277344 C 41.558594 70.078125 60.363281 51.277344 83.558594 51.277344 Z M 83.558594 51.277344 " clip-rule="nonzero"/></clipPath><clipPath id="aab91a5047"><path d="M 40.65625 50.375 L 1084.65625 50.375 L 1084.65625 1094.375 L 40.65625 1094.375 Z M 40.65625 50.375 " clip-rule="nonzero"/></clipPath><clipPath id="cb2875f012"><path d="M 40.65625 92.375 L 40.65625 1052.0625 C 40.65625 1075.257812 59.460938 1094.0625 82.65625 1094.0625 L 1042.34375 1094.0625 C 1065.539062 1094.0625 1084.34375 1075.257812 1084.34375 1052.0625 L 1084.34375 92.375 C 1084.34375 69.179688 1065.539062 50.375 1042.34375 50.375 L 82.65625 50.375 C 59.460938 50.375 40.65625 69.179688 40.65625 92.375 Z M 40.65625 92.375 " clip-rule="nonzero"/></clipPath><clipPath id="3712f45b13"><path d="M 40.65625 92.375 L 40.65625 1052.058594 C 40.65625 1075.253906 59.460938 1094.058594 82.65625 1094.058594 L 1042.339844 1094.058594 C 1065.535156 1094.058594 1084.339844 1075.253906 1084.339844 1052.058594 L 1084.339844 92.375 C 1084.339844 69.179688 1065.535156 50.375 1042.339844 50.375 L 82.65625 50.375 C 59.460938 50.375 40.65625 69.179688 40.65625 92.375 Z M 40.65625 92.375 " clip-rule="nonzero"/></clipPath><clipPath id="b016901a7b"><path d="M 133.816406 155.128906 L 991.066406 155.128906 L 991.066406 1012.378906 L 133.816406 1012.378906 Z M 133.816406 155.128906 " clip-rule="nonzero"/></clipPath></defs><g clip-path="url(#b45188a5e0)"><g clip-path="url(#23634bcb90)"><g clip-path="url(#44db7707fb)"><path fill="#fc6a1f" d="M 1053.15625 146.011719 L 1084.339844 146.011719 L 1084.339844 998.421875 L 1053.15625 998.421875 Z M 1053.15625 146.011719 " fill-opacity="1" fill-rule="nonzero"/></g></g></g><g clip-path="url(#8a77373f3f)"><g clip-path="url(#c7f0d8fff3)"><g clip-path="url(#a0aea0eeeb)"><path fill="#fc6a1f" d="M 40.65625 146.011719 L 71.84375 146.011719 L 71.84375 998.421875 L 40.65625 998.421875 Z M 40.65625 146.011719 " fill-opacity="1" fill-rule="nonzero"/></g></g></g><g clip-path="url(#cd3da80589)"><g clip-path="url(#eab9a9e550)"><g clip-path="url(#3834151329)"><path fill="#fc6a1f" d="M 136.292969 50.375 L 988.703125 50.375 L 988.703125 81.5625 L 136.292969 81.5625 Z M 136.292969 50.375 " fill-opacity="1" fill-rule="nonzero"/></g></g></g><g clip-path="url(#483cfb92b5)"><g clip-path="url(#b5bdaa0fb7)"><g clip-path="url(#57db17ccd4)"><path fill="#fc6a1f" d="M 136.292969 1062.875 L 988.703125 1062.875 L 988.703125 1094.058594 L 136.292969 1094.058594 Z M 136.292969 1062.875 " fill-opacity="1" fill-rule="nonzero"/></g></g></g><g clip-path="url(#c1f1c20639)"><g clip-path="url(#32be9eab95)"><g clip-path="url(#b6e955578f)"><path fill="#fc6a1f" d="M 1053.15625 81.5625 L 1053.15625 146.011719 L 1084.339844 146.011719 L 1084.339844 50.375 L 988.703125 50.375 L 988.703125 81.5625 Z M 1053.15625 81.5625 " fill-opacity="1" fill-rule="nonzero"/></g></g></g><g clip-path="url(#28c11015f8)"><g clip-path="url(#33f80cbb4a)"><g clip-path="url(#390cbf279c)"><path fill="#fc6a1f" d="M 71.84375 81.5625 L 136.292969 81.5625 L 136.292969 50.375 L 40.65625 50.375 L 40.65625 146.011719 L 71.84375 146.011719 Z M 71.84375 81.5625 " fill-opacity="1" fill-rule="nonzero"/></g></g></g><g clip-path="url(#d51ba74bbf)"><g clip-path="url(#eff3a143c9)"><g clip-path="url(#241d90ae19)"><path fill="#fc6a1f" d="M 1053.15625 1062.875 L 988.703125 1062.875 L 988.703125 1094.058594 L 1084.339844 1094.058594 L 1084.339844 998.421875 L 1053.15625 998.421875 Z M 1053.15625 1062.875 " fill-opacity="1" fill-rule="nonzero"/></g></g></g><g clip-path="url(#403e8f6cda)"><g clip-path="url(#d688f5ec01)"><g clip-path="url(#5bb83fda19)"><path fill="#fc6a1f" d="M 71.84375 1062.875 L 71.84375 998.421875 L 40.65625 998.421875 L 40.65625 1094.058594 L 136.292969 1094.058594 L 136.292969 1062.875 Z M 71.84375 1062.875 " fill-opacity="1" fill-rule="nonzero"/></g></g></g><g clip-path="url(#aab91a5047)"><g clip-path="url(#cb2875f012)"><g clip-path="url(#3712f45b13)"><path stroke-linecap="butt" transform="matrix(0.75, 0, 0, 0.75, 40.657485, 50.375868)" fill="none" stroke-linejoin="miter" d="M -0.00164733 55.998848 L -0.00164733 1335.577083 C -0.00164733 1366.504169 25.071271 1391.577088 55.998357 1391.577088 L 1335.576593 1391.577088 C 1366.503679 1391.577088 1391.576597 1366.504169 1391.576597 1335.577083 L 1391.576597 55.998848 C 1391.576597 25.071762 1366.503679 -0.00115688 1335.576593 -0.00115688 L 55.998357 -0.00115688 C 25.071271 -0.00115688 -0.00164733 25.071762 -0.00164733 55.998848 Z M -0.00164733 55.998848 " stroke="#fc6a1f" stroke-width="66" stroke-opacity="1" stroke-miterlimit="4"/></g></g></g><path fill="#fc6a1f" d="M 599.839844 354.933594 C 590.417969 354.933594 582.613281 362.003906 581.660156 371.382812 L 567.65625 513.039062 C 567.589844 513.730469 567.589844 514.328125 567.589844 515.21875 C 567.589844 527.3125 577.414062 537.136719 589.503906 537.136719 L 796.246094 537.136719 C 796.691406 537.136719 797.269531 537.089844 797.957031 536.980469 C 798.089844 536.957031 798.203125 536.933594 798.335938 536.933594 C 804.160156 536.378906 809.425781 533.578125 813.117188 529.042969 C 816.828125 524.53125 818.539062 518.84375 818.007812 513.019531 L 804.003906 371.339844 C 803.046875 361.980469 795.246094 354.914062 785.820312 354.914062 Z M 834.566406 515.730469 C 834.453125 524.398438 831.429688 532.710938 825.851562 539.515625 C 819.382812 547.425781 810.226562 552.316406 800.066406 553.363281 C 798.667969 553.539062 797.402344 553.652344 796.222656 553.652344 L 589.503906 553.652344 C 568.320312 553.652344 551.074219 536.425781 551.074219 515.21875 C 551.074219 514.019531 551.074219 512.816406 551.230469 511.328125 L 565.210938 369.738281 C 567.03125 351.890625 581.902344 338.441406 599.796875 338.441406 L 785.753906 338.441406 C 803.648438 338.441406 818.515625 351.890625 820.339844 369.714844 L 834.34375 511.417969 C 834.453125 512.53125 834.519531 513.640625 834.542969 514.753906 L 834.542969 515.730469 Z M 834.566406 515.730469 " fill-opacity="1" fill-rule="evenodd"/><path fill="#fc6a1f" d="M 614.042969 492.859375 L 771.707031 492.859375 L 766.636719 399.210938 L 619.132812 399.210938 Z M 780.417969 509.351562 L 605.332031 509.351562 C 603.0625 509.351562 600.90625 508.417969 599.351562 506.773438 C 597.796875 505.128906 596.972656 502.925781 597.105469 500.636719 L 603.0625 390.5 C 603.308594 386.121094 606.886719 382.71875 611.289062 382.71875 L 774.441406 382.71875 C 778.820312 382.71875 782.441406 386.144531 782.664062 390.5 L 788.621094 500.636719 C 788.753906 502.90625 787.933594 505.128906 786.355469 506.773438 C 784.777344 508.417969 782.6875 509.351562 780.417969 509.351562 Z M 780.417969 509.351562 " fill-opacity="1" fill-rule="evenodd"/><path fill="#fc6a1f" d="M 570.921875 634.515625 C 566.367188 634.515625 562.675781 630.824219 562.675781 626.269531 L 562.675781 538.980469 C 562.675781 534.421875 566.367188 530.734375 570.921875 530.734375 C 575.480469 530.734375 579.167969 534.402344 579.167969 538.980469 L 579.167969 626.269531 C 579.167969 630.824219 575.480469 634.515625 570.921875 634.515625 Z M 570.921875 634.515625 " fill-opacity="1" fill-rule="evenodd"/><path fill="#fc6a1f" d="M 814.828125 829.183594 L 570.921875 829.183594 C 566.367188 829.183594 562.675781 825.519531 562.675781 820.9375 L 562.675781 657.699219 C 562.675781 653.140625 566.367188 649.453125 570.921875 649.453125 C 575.480469 649.453125 579.167969 653.140625 579.167969 657.699219 L 579.167969 812.691406 L 806.582031 812.691406 L 806.582031 538.980469 C 806.582031 534.421875 810.269531 530.734375 814.828125 530.734375 C 819.382812 530.734375 823.074219 534.402344 823.074219 538.980469 L 823.074219 820.960938 C 823.074219 825.519531 819.363281 829.207031 814.828125 829.183594 Z M 814.828125 829.183594 " fill-opacity="1" fill-rule="evenodd"/><path fill="#fc6a1f" d="M 768.128906 802.46875 L 614.734375 802.46875 C 610.175781 802.46875 606.488281 798.777344 606.488281 794.222656 C 606.488281 789.664062 610.175781 785.972656 614.734375 785.972656 L 768.128906 785.972656 C 772.683594 785.972656 776.375 789.664062 776.375 794.222656 C 776.375 798.777344 772.683594 802.46875 768.128906 802.46875 Z M 768.128906 802.46875 " fill-opacity="1" fill-rule="evenodd"/><path fill="#fc6a1f" d="M 658.457031 584.035156 C 650.519531 584.035156 644.097656 590.480469 644.097656 598.394531 C 644.097656 606.308594 650.542969 612.730469 658.457031 612.730469 C 666.367188 612.730469 672.792969 606.285156 672.792969 598.394531 C 672.816406 590.460938 666.367188 584.035156 658.457031 584.035156 Z M 658.457031 629.246094 C 641.453125 629.246094 627.605469 615.398438 627.605469 598.394531 C 627.605469 581.390625 641.453125 567.542969 658.457031 567.542969 C 675.460938 567.542969 689.285156 581.390625 689.285156 598.394531 C 689.308594 615.398438 675.460938 629.246094 658.457031 629.246094 Z M 658.457031 629.246094 " fill-opacity="1" fill-rule="evenodd"/><path fill="#fc6a1f" d="M 724.316406 584.035156 C 716.382812 584.035156 709.957031 590.480469 709.957031 598.394531 C 709.957031 606.308594 716.402344 612.730469 724.316406 612.730469 C 732.230469 612.730469 738.652344 606.285156 738.652344 598.394531 C 738.675781 590.460938 732.230469 584.035156 724.316406 584.035156 Z M 724.316406 629.246094 C 707.3125 629.246094 693.464844 615.398438 693.464844 598.394531 C 693.464844 581.390625 707.3125 567.542969 724.316406 567.542969 C 741.320312 567.542969 755.167969 581.390625 755.167969 598.394531 C 755.144531 615.398438 741.320312 629.246094 724.316406 629.246094 Z M 724.316406 629.246094 " fill-opacity="1" fill-rule="evenodd"/><path fill="#fc6a1f" d="M 739.566406 703.578125 C 735.007812 703.578125 731.316406 699.886719 731.316406 695.328125 L 731.316406 648.050781 C 731.316406 643.496094 735.007812 639.804688 739.566406 639.804688 C 744.121094 639.804688 747.8125 643.496094 747.8125 648.050781 L 747.8125 695.328125 C 747.832031 699.886719 744.121094 703.578125 739.566406 703.578125 Z M 739.566406 703.578125 " fill-opacity="1" fill-rule="evenodd"/><path fill="#fc6a1f" d="M 769.0625 703.578125 C 764.503906 703.578125 760.8125 699.886719 760.8125 695.328125 L 760.8125 648.050781 C 760.8125 643.496094 764.503906 639.804688 769.0625 639.804688 C 773.617188 639.804688 777.308594 643.496094 777.308594 648.050781 L 777.308594 695.328125 C 777.308594 699.886719 773.617188 703.578125 769.0625 703.578125 Z M 769.0625 703.578125 " fill-opacity="1" fill-rule="evenodd"/><path fill="#fc6a1f" d="M 745.855469 726.292969 L 745.855469 757.5 C 745.855469 758.34375 746.523438 759.011719 747.367188 759.011719 L 761.238281 759.011719 C 762.101562 759.011719 762.746094 758.34375 762.746094 757.5 L 762.746094 726.292969 Z M 761.257812 775.503906 L 747.386719 775.503906 C 737.453125 775.503906 729.382812 767.4375 729.382812 757.5 L 729.382812 718.046875 C 729.382812 713.488281 733.074219 709.800781 737.628906 709.800781 L 771.015625 709.800781 C 775.574219 709.800781 779.261719 713.488281 779.261719 718.046875 L 779.261719 757.5 C 779.242188 767.4375 771.171875 775.527344 761.257812 775.503906 Z M 761.257812 775.503906 " fill-opacity="1" fill-rule="evenodd"/><path fill="#fc6a1f" d="M 561.410156 634.515625 C 560.921875 634.515625 560.453125 634.960938 560.453125 635.449219 L 560.453125 648.519531 C 560.453125 649.007812 560.898438 649.453125 561.386719 649.453125 L 596.152344 649.453125 C 596.640625 649.453125 597.085938 649.007812 597.085938 648.519531 L 597.085938 635.449219 C 597.085938 634.9375 596.640625 634.515625 596.128906 634.515625 Z M 596.171875 665.945312 L 561.410156 665.945312 C 551.808594 665.945312 543.984375 658.121094 543.984375 648.519531 L 543.984375 635.449219 C 543.984375 625.847656 551.785156 618.023438 561.410156 618.023438 L 596.171875 618.023438 C 605.777344 618.023438 613.601562 625.847656 613.601562 635.449219 L 613.601562 648.519531 C 613.601562 658.121094 605.777344 665.945312 596.171875 665.945312 Z M 596.171875 665.945312 " fill-opacity="1" fill-rule="evenodd"/><path fill="#fc6a1f" d="M 645.984375 756.011719 C 640.429688 756.011719 635.140625 753.921875 631.070312 750.121094 C 626.824219 746.121094 624.378906 740.695312 624.179688 734.828125 C 624.179688 734.738281 624.179688 734.652344 624.179688 734.585938 L 624.179688 647.296875 C 624.179688 640.207031 618.402344 634.425781 611.3125 634.425781 L 513.351562 634.425781 C 508.796875 634.425781 505.105469 630.734375 505.105469 626.179688 C 505.105469 621.621094 508.796875 617.933594 513.351562 617.933594 L 611.289062 617.933594 C 627.46875 617.933594 640.652344 631.113281 640.652344 647.296875 L 640.652344 734.449219 C 640.71875 735.851562 641.316406 737.140625 642.339844 738.117188 C 643.363281 739.097656 644.742188 739.609375 646.164062 739.5625 C 649.007812 739.472656 651.230469 737.296875 651.386719 734.449219 L 651.386719 620.867188 C 651.386719 616.308594 655.078125 612.621094 659.632812 612.621094 C 664.191406 612.621094 667.878906 616.308594 667.878906 620.867188 L 667.878906 734.5625 C 667.878906 734.652344 667.878906 734.738281 667.859375 734.828125 C 667.480469 746.34375 658.1875 755.632812 646.675781 756.011719 C 646.453125 756.011719 646.207031 756.011719 645.984375 756.011719 Z M 645.984375 756.011719 " fill-opacity="1" fill-rule="evenodd"/><path fill="#fc6a1f" d="M 371.984375 786.753906 C 357.515625 786.773438 343.355469 781.351562 332.597656 771.59375 C 320.949219 761.035156 314.28125 746.609375 313.835938 731.003906 C 313.835938 730.9375 313.816406 730.851562 313.816406 730.78125 L 313.816406 729.183594 C 313.816406 700.265625 334.574219 675.859375 363.183594 671.167969 C 367.695312 670.433594 371.917969 673.457031 372.652344 677.949219 C 373.386719 682.4375 370.363281 686.683594 365.871094 687.417969 C 345.289062 690.796875 330.332031 708.378906 330.332031 729.183594 L 330.332031 730.671875 C 330.6875 741.695312 335.421875 751.898438 343.6875 759.390625 C 352.113281 767.035156 363.449219 770.949219 374.808594 770.191406 C 380.921875 769.683594 388.34375 768.925781 389.8125 768.636719 C 439.734375 756.835938 474.675781 712.757812 474.675781 661.386719 L 474.675781 635.359375 C 474.675781 584.011719 439.734375 539.890625 389.699219 528.109375 C 388.34375 527.820312 380.875 527.089844 374.785156 526.597656 C 363.425781 525.820312 352.089844 529.753906 343.667969 537.402344 C 335.398438 544.894531 330.640625 555.09375 330.308594 566.140625 L 330.308594 567.632812 C 330.308594 588.460938 345.246094 606.019531 365.851562 609.398438 C 370.339844 610.132812 373.386719 614.375 372.628906 618.867188 C 371.894531 623.355469 367.652344 626.402344 363.160156 625.667969 C 334.574219 620.957031 313.792969 596.550781 313.792969 567.632812 L 313.792969 566.03125 C 313.792969 565.964844 313.792969 565.875 313.792969 565.808594 C 314.238281 550.226562 320.90625 535.800781 332.554688 525.242188 C 344.289062 514.597656 360.09375 509.128906 375.941406 510.238281 C 375.984375 510.238281 376.03125 510.238281 376.074219 510.261719 C 380.363281 510.617188 390.613281 511.527344 393.390625 512.152344 C 421.128906 518.6875 446.070312 534.558594 463.742188 556.851562 C 481.410156 579.144531 491.148438 607.0625 491.148438 635.492188 L 491.148438 661.523438 C 491.148438 689.929688 481.410156 717.890625 463.742188 740.164062 C 446.09375 762.457031 421.128906 778.304688 393.480469 784.839844 C 390.632812 785.484375 380.386719 786.398438 376.097656 786.773438 C 376.050781 786.773438 376.03125 786.773438 375.964844 786.773438 C 374.675781 786.707031 373.339844 786.753906 371.984375 786.753906 Z M 371.984375 786.753906 " fill-opacity="1" fill-rule="evenodd"/><path fill="#fc6a1f" d="M 298.699219 829.183594 C 294.144531 829.183594 290.453125 825.519531 290.453125 820.9375 L 290.453125 719.425781 C 290.453125 669.390625 331.152344 628.691406 381.1875 628.691406 L 413.417969 628.691406 C 417.972656 628.691406 421.664062 632.382812 421.664062 636.9375 C 421.664062 641.496094 417.996094 645.183594 413.417969 645.183594 L 381.1875 645.183594 C 340.265625 645.183594 306.945312 678.480469 306.945312 719.425781 L 306.945312 820.9375 C 306.945312 825.519531 303.257812 829.207031 298.699219 829.183594 Z M 298.699219 829.183594 " fill-opacity="1" fill-rule="evenodd"/><path fill="#fc6a1f" d="M 406.859375 711.023438 C 405.617188 711.023438 404.347656 710.734375 403.171875 710.15625 C 399.101562 708.132812 397.457031 703.175781 399.480469 699.085938 C 413.527344 671.011719 391.8125 653.386719 381.832031 647.117188 C 377.988281 644.695312 376.832031 639.605469 379.230469 635.738281 C 381.652344 631.871094 386.746094 630.714844 390.613281 633.136719 C 412.796875 647.074219 430.667969 673.636719 414.238281 706.445312 C 412.816406 709.355469 409.882812 711.023438 406.859375 711.023438 Z M 406.859375 711.023438 " fill-opacity="1" fill-rule="evenodd"/><path fill="#fc6a1f" d="M 394.480469 646.695312 C 393.125 646.695312 391.722656 646.339844 390.433594 645.628906 C 386.476562 643.382812 385.054688 638.382812 387.277344 634.425781 C 387.476562 634.070312 395.234375 619.6875 387.144531 614.886719 C 383.230469 612.554688 381.941406 607.53125 384.277344 603.597656 C 386.609375 599.683594 391.65625 598.371094 395.589844 600.730469 C 413.152344 611.152344 407.214844 632.601562 401.660156 642.496094 C 400.148438 645.160156 397.367188 646.695312 394.480469 646.695312 Z M 394.480469 646.695312 " fill-opacity="1" fill-rule="evenodd"/><g clip-path="url(#b016901a7b)"><path fill="#fc6a1f" d="M 562.5 155.128906 C 680.859375 155.128906 788.042969 203.097656 865.617188 280.695312 C 943.191406 358.292969 991.183594 465.449219 991.183594 583.8125 C 991.183594 702.175781 943.214844 809.359375 865.640625 886.933594 C 788.066406 964.507812 680.882812 1012.496094 562.519531 1012.496094 C 444.160156 1012.496094 336.953125 964.53125 259.378906 886.933594 C 181.804688 809.335938 133.816406 702.199219 133.816406 583.8125 C 133.816406 465.429688 181.804688 358.269531 259.378906 280.695312 C 336.953125 203.121094 444.136719 155.128906 562.5 155.128906 Z M 852.082031 294.230469 C 777.996094 220.125 675.59375 174.289062 562.5 174.289062 C 449.402344 174.289062 347.046875 220.125 272.917969 294.230469 C 198.808594 368.339844 152.976562 470.71875 152.976562 583.8125 C 152.976562 696.90625 198.808594 799.265625 272.917969 873.394531 C 347.023438 947.503906 449.402344 993.335938 562.5 993.335938 C 675.59375 993.335938 777.953125 947.503906 852.082031 873.394531 C 926.1875 799.289062 972.023438 696.90625 972.023438 583.8125 C 972.023438 470.71875 926.1875 368.359375 852.082031 294.230469 Z M 852.082031 294.230469 " fill-opacity="1" fill-rule="nonzero"/></g></svg>