<svg xmlns="http://www.w3.org/2000/svg" xmlns:xlink="http://www.w3.org/1999/xlink" width="1500" zoomAndPan="magnify" viewBox="0 0 1125 1124.99995" height="1500" preserveAspectRatio="xMidYMid meet" version="1.0"><defs><clipPath id="7e236e707a"><path d="M 1053 146 L 1083.90625 146 L 1083.90625 999 L 1053 999 Z M 1053 146 " clip-rule="nonzero"/></clipPath><clipPath id="9c57d7cc3a"><path d="M 40.65625 92.375 L 40.65625 1052.0625 C 40.65625 1075.257812 59.460938 1094.0625 82.65625 1094.0625 L 1042.34375 1094.0625 C 1065.539062 1094.0625 1084.34375 1075.257812 1084.34375 1052.0625 L 1084.34375 92.375 C 1084.34375 69.179688 1065.539062 50.375 1042.34375 50.375 L 82.65625 50.375 C 59.460938 50.375 40.65625 69.179688 40.65625 92.375 Z M 40.65625 92.375 " clip-rule="nonzero"/></clipPath><clipPath id="5a4ff3b2d2"><path d="M 83.558594 51.277344 L 1041.441406 51.277344 C 1064.636719 51.277344 1083.441406 70.082031 1083.441406 93.277344 L 1083.441406 1051.160156 C 1083.441406 1074.355469 1064.636719 1093.160156 1041.441406 1093.160156 L 83.558594 1093.160156 C 60.363281 1093.160156 41.558594 1074.355469 41.558594 1051.160156 L 41.558594 93.277344 C 41.558594 70.082031 60.363281 51.277344 83.558594 51.277344 Z M 83.558594 51.277344 " clip-rule="nonzero"/></clipPath><clipPath id="878248e6b8"><path d="M 41.40625 146 L 72 146 L 72 999 L 41.40625 999 Z M 41.40625 146 " clip-rule="nonzero"/></clipPath><clipPath id="112f924c9d"><path d="M 40.65625 92.375 L 40.65625 1052.0625 C 40.65625 1075.257812 59.460938 1094.0625 82.65625 1094.0625 L 1042.34375 1094.0625 C 1065.539062 1094.0625 1084.34375 1075.257812 1084.34375 1052.0625 L 1084.34375 92.375 C 1084.34375 69.179688 1065.539062 50.375 1042.34375 50.375 L 82.65625 50.375 C 59.460938 50.375 40.65625 69.179688 40.65625 92.375 Z M 40.65625 92.375 " clip-rule="nonzero"/></clipPath><clipPath id="9de85bd0e6"><path d="M 83.558594 51.277344 L 1041.441406 51.277344 C 1064.636719 51.277344 1083.441406 70.082031 1083.441406 93.277344 L 1083.441406 1051.160156 C 1083.441406 1074.355469 1064.636719 1093.160156 1041.441406 1093.160156 L 83.558594 1093.160156 C 60.363281 1093.160156 41.558594 1074.355469 41.558594 1051.160156 L 41.558594 93.277344 C 41.558594 70.082031 60.363281 51.277344 83.558594 51.277344 Z M 83.558594 51.277344 " clip-rule="nonzero"/></clipPath><clipPath id="e0b72cdb70"><path d="M 136 51.125 L 989 51.125 L 989 82 L 136 82 Z M 136 51.125 " clip-rule="nonzero"/></clipPath><clipPath id="830cb4d728"><path d="M 40.65625 92.375 L 40.65625 1052.0625 C 40.65625 1075.257812 59.460938 1094.0625 82.65625 1094.0625 L 1042.34375 1094.0625 C 1065.539062 1094.0625 1084.34375 1075.257812 1084.34375 1052.0625 L 1084.34375 92.375 C 1084.34375 69.179688 1065.539062 50.375 1042.34375 50.375 L 82.65625 50.375 C 59.460938 50.375 40.65625 69.179688 40.65625 92.375 Z M 40.65625 92.375 " clip-rule="nonzero"/></clipPath><clipPath id="88dfe554a5"><path d="M 83.558594 51.277344 L 1041.441406 51.277344 C 1064.636719 51.277344 1083.441406 70.082031 1083.441406 93.277344 L 1083.441406 1051.160156 C 1083.441406 1074.355469 1064.636719 1093.160156 1041.441406 1093.160156 L 83.558594 1093.160156 C 60.363281 1093.160156 41.558594 1074.355469 41.558594 1051.160156 L 41.558594 93.277344 C 41.558594 70.082031 60.363281 51.277344 83.558594 51.277344 Z M 83.558594 51.277344 " clip-rule="nonzero"/></clipPath><clipPath id="15f909ac03"><path d="M 136 1062 L 989 1062 L 989 1093.625 L 136 1093.625 Z M 136 1062 " clip-rule="nonzero"/></clipPath><clipPath id="6b6114981d"><path d="M 40.65625 92.375 L 40.65625 1052.0625 C 40.65625 1075.257812 59.460938 1094.0625 82.65625 1094.0625 L 1042.34375 1094.0625 C 1065.539062 1094.0625 1084.34375 1075.257812 1084.34375 1052.0625 L 1084.34375 92.375 C 1084.34375 69.179688 1065.539062 50.375 1042.34375 50.375 L 82.65625 50.375 C 59.460938 50.375 40.65625 69.179688 40.65625 92.375 Z M 40.65625 92.375 " clip-rule="nonzero"/></clipPath><clipPath id="152c30cc6f"><path d="M 83.558594 51.277344 L 1041.441406 51.277344 C 1064.636719 51.277344 1083.441406 70.082031 1083.441406 93.277344 L 1083.441406 1051.160156 C 1083.441406 1074.355469 1064.636719 1093.160156 1041.441406 1093.160156 L 83.558594 1093.160156 C 60.363281 1093.160156 41.558594 1074.355469 41.558594 1051.160156 L 41.558594 93.277344 C 41.558594 70.082031 60.363281 51.277344 83.558594 51.277344 Z M 83.558594 51.277344 " clip-rule="nonzero"/></clipPath><clipPath id="9c9f667672"><path d="M 988 51.125 L 1083.90625 51.125 L 1083.90625 147 L 988 147 Z M 988 51.125 " clip-rule="nonzero"/></clipPath><clipPath id="c42cf83e2a"><path d="M 40.65625 92.375 L 40.65625 1052.0625 C 40.65625 1075.257812 59.460938 1094.0625 82.65625 1094.0625 L 1042.34375 1094.0625 C 1065.539062 1094.0625 1084.34375 1075.257812 1084.34375 1052.0625 L 1084.34375 92.375 C 1084.34375 69.179688 1065.539062 50.375 1042.34375 50.375 L 82.65625 50.375 C 59.460938 50.375 40.65625 69.179688 40.65625 92.375 Z M 40.65625 92.375 " clip-rule="nonzero"/></clipPath><clipPath id="9705e30a4b"><path d="M 83.558594 51.277344 L 1041.441406 51.277344 C 1064.636719 51.277344 1083.441406 70.082031 1083.441406 93.277344 L 1083.441406 1051.160156 C 1083.441406 1074.355469 1064.636719 1093.160156 1041.441406 1093.160156 L 83.558594 1093.160156 C 60.363281 1093.160156 41.558594 1074.355469 41.558594 1051.160156 L 41.558594 93.277344 C 41.558594 70.082031 60.363281 51.277344 83.558594 51.277344 Z M 83.558594 51.277344 " clip-rule="nonzero"/></clipPath><clipPath id="d4b7ed1dff"><path d="M 41.40625 51.125 L 137 51.125 L 137 147 L 41.40625 147 Z M 41.40625 51.125 " clip-rule="nonzero"/></clipPath><clipPath id="54d1228fd6"><path d="M 40.65625 92.375 L 40.65625 1052.0625 C 40.65625 1075.257812 59.460938 1094.0625 82.65625 1094.0625 L 1042.34375 1094.0625 C 1065.539062 1094.0625 1084.34375 1075.257812 1084.34375 1052.0625 L 1084.34375 92.375 C 1084.34375 69.179688 1065.539062 50.375 1042.34375 50.375 L 82.65625 50.375 C 59.460938 50.375 40.65625 69.179688 40.65625 92.375 Z M 40.65625 92.375 " clip-rule="nonzero"/></clipPath><clipPath id="5474c4c36b"><path d="M 83.558594 51.277344 L 1041.441406 51.277344 C 1064.636719 51.277344 1083.441406 70.082031 1083.441406 93.277344 L 1083.441406 1051.160156 C 1083.441406 1074.355469 1064.636719 1093.160156 1041.441406 1093.160156 L 83.558594 1093.160156 C 60.363281 1093.160156 41.558594 1074.355469 41.558594 1051.160156 L 41.558594 93.277344 C 41.558594 70.082031 60.363281 51.277344 83.558594 51.277344 Z M 83.558594 51.277344 " clip-rule="nonzero"/></clipPath><clipPath id="34677653d2"><path d="M 988 998 L 1083.90625 998 L 1083.90625 1093.625 L 988 1093.625 Z M 988 998 " clip-rule="nonzero"/></clipPath><clipPath id="0d5459442a"><path d="M 40.65625 92.375 L 40.65625 1052.0625 C 40.65625 1075.257812 59.460938 1094.0625 82.65625 1094.0625 L 1042.34375 1094.0625 C 1065.539062 1094.0625 1084.34375 1075.257812 1084.34375 1052.0625 L 1084.34375 92.375 C 1084.34375 69.179688 1065.539062 50.375 1042.34375 50.375 L 82.65625 50.375 C 59.460938 50.375 40.65625 69.179688 40.65625 92.375 Z M 40.65625 92.375 " clip-rule="nonzero"/></clipPath><clipPath id="93e97a1752"><path d="M 83.558594 51.277344 L 1041.441406 51.277344 C 1064.636719 51.277344 1083.441406 70.082031 1083.441406 93.277344 L 1083.441406 1051.160156 C 1083.441406 1074.355469 1064.636719 1093.160156 1041.441406 1093.160156 L 83.558594 1093.160156 C 60.363281 1093.160156 41.558594 1074.355469 41.558594 1051.160156 L 41.558594 93.277344 C 41.558594 70.082031 60.363281 51.277344 83.558594 51.277344 Z M 83.558594 51.277344 " clip-rule="nonzero"/></clipPath><clipPath id="92b4d4413a"><path d="M 41.40625 998 L 137 998 L 137 1093.625 L 41.40625 1093.625 Z M 41.40625 998 " clip-rule="nonzero"/></clipPath><clipPath id="23b0ff3557"><path d="M 40.65625 92.375 L 40.65625 1052.0625 C 40.65625 1075.257812 59.460938 1094.0625 82.65625 1094.0625 L 1042.34375 1094.0625 C 1065.539062 1094.0625 1084.34375 1075.257812 1084.34375 1052.0625 L 1084.34375 92.375 C 1084.34375 69.179688 1065.539062 50.375 1042.34375 50.375 L 82.65625 50.375 C 59.460938 50.375 40.65625 69.179688 40.65625 92.375 Z M 40.65625 92.375 " clip-rule="nonzero"/></clipPath><clipPath id="07946f07e5"><path d="M 83.558594 51.277344 L 1041.441406 51.277344 C 1064.636719 51.277344 1083.441406 70.082031 1083.441406 93.277344 L 1083.441406 1051.160156 C 1083.441406 1074.355469 1064.636719 1093.160156 1041.441406 1093.160156 L 83.558594 1093.160156 C 60.363281 1093.160156 41.558594 1074.355469 41.558594 1051.160156 L 41.558594 93.277344 C 41.558594 70.082031 60.363281 51.277344 83.558594 51.277344 Z M 83.558594 51.277344 " clip-rule="nonzero"/></clipPath><clipPath id="acb12ab701"><path d="M 40.65625 50.375 L 1084.65625 50.375 L 1084.65625 1094.375 L 40.65625 1094.375 Z M 40.65625 50.375 " clip-rule="nonzero"/></clipPath><clipPath id="0f71720aa7"><path d="M 40.65625 92.375 L 40.65625 1052.0625 C 40.65625 1075.257812 59.460938 1094.0625 82.65625 1094.0625 L 1042.34375 1094.0625 C 1065.539062 1094.0625 1084.34375 1075.257812 1084.34375 1052.0625 L 1084.34375 92.375 C 1084.34375 69.179688 1065.539062 50.375 1042.34375 50.375 L 82.65625 50.375 C 59.460938 50.375 40.65625 69.179688 40.65625 92.375 Z M 40.65625 92.375 " clip-rule="nonzero"/></clipPath><clipPath id="5dff186c6a"><path d="M 40.65625 92.375 L 40.65625 1052.058594 C 40.65625 1075.253906 59.460938 1094.058594 82.65625 1094.058594 L 1042.339844 1094.058594 C 1065.535156 1094.058594 1084.339844 1075.253906 1084.339844 1052.058594 L 1084.339844 92.375 C 1084.339844 69.179688 1065.535156 50.375 1042.339844 50.375 L 82.65625 50.375 C 59.460938 50.375 40.65625 69.179688 40.65625 92.375 Z M 40.65625 92.375 " clip-rule="nonzero"/></clipPath><clipPath id="cb9c672c81"><path d="M 212.933594 192 L 911 192 L 911 1012.449219 L 212.933594 1012.449219 Z M 212.933594 192 " clip-rule="nonzero"/></clipPath></defs><g clip-path="url(#7e236e707a)"><g clip-path="url(#9c57d7cc3a)"><g clip-path="url(#5a4ff3b2d2)"><path fill="#fc6a1f" d="M 1053.15625 146.011719 L 1084.339844 146.011719 L 1084.339844 998.421875 L 1053.15625 998.421875 Z M 1053.15625 146.011719 " fill-opacity="1" fill-rule="nonzero"/></g></g></g><g clip-path="url(#878248e6b8)"><g clip-path="url(#112f924c9d)"><g clip-path="url(#9de85bd0e6)"><path fill="#fc6a1f" d="M 40.65625 146.011719 L 71.84375 146.011719 L 71.84375 998.421875 L 40.65625 998.421875 Z M 40.65625 146.011719 " fill-opacity="1" fill-rule="nonzero"/></g></g></g><g clip-path="url(#e0b72cdb70)"><g clip-path="url(#830cb4d728)"><g clip-path="url(#88dfe554a5)"><path fill="#fc6a1f" d="M 136.292969 50.375 L 988.703125 50.375 L 988.703125 81.5625 L 136.292969 81.5625 Z M 136.292969 50.375 " fill-opacity="1" fill-rule="nonzero"/></g></g></g><g clip-path="url(#15f909ac03)"><g clip-path="url(#6b6114981d)"><g clip-path="url(#152c30cc6f)"><path fill="#fc6a1f" d="M 136.292969 1062.875 L 988.703125 1062.875 L 988.703125 1094.058594 L 136.292969 1094.058594 Z M 136.292969 1062.875 " fill-opacity="1" fill-rule="nonzero"/></g></g></g><g clip-path="url(#9c9f667672)"><g clip-path="url(#c42cf83e2a)"><g clip-path="url(#9705e30a4b)"><path fill="#fc6a1f" d="M 1053.15625 81.5625 L 1053.15625 146.011719 L 1084.339844 146.011719 L 1084.339844 50.375 L 988.703125 50.375 L 988.703125 81.5625 Z M 1053.15625 81.5625 " fill-opacity="1" fill-rule="nonzero"/></g></g></g><g clip-path="url(#d4b7ed1dff)"><g clip-path="url(#54d1228fd6)"><g clip-path="url(#5474c4c36b)"><path fill="#fc6a1f" d="M 71.84375 81.5625 L 136.292969 81.5625 L 136.292969 50.375 L 40.65625 50.375 L 40.65625 146.011719 L 71.84375 146.011719 Z M 71.84375 81.5625 " fill-opacity="1" fill-rule="nonzero"/></g></g></g><g clip-path="url(#34677653d2)"><g clip-path="url(#0d5459442a)"><g clip-path="url(#93e97a1752)"><path fill="#fc6a1f" d="M 1053.15625 1062.875 L 988.703125 1062.875 L 988.703125 1094.058594 L 1084.339844 1094.058594 L 1084.339844 998.421875 L 1053.15625 998.421875 Z M 1053.15625 1062.875 " fill-opacity="1" fill-rule="nonzero"/></g></g></g><g clip-path="url(#92b4d4413a)"><g clip-path="url(#23b0ff3557)"><g clip-path="url(#07946f07e5)"><path fill="#fc6a1f" d="M 71.84375 1062.875 L 71.84375 998.421875 L 40.65625 998.421875 L 40.65625 1094.058594 L 136.292969 1094.058594 L 136.292969 1062.875 Z M 71.84375 1062.875 " fill-opacity="1" fill-rule="nonzero"/></g></g></g><g clip-path="url(#acb12ab701)"><g clip-path="url(#0f71720aa7)"><g clip-path="url(#5dff186c6a)"><path stroke-linecap="butt" transform="matrix(0.75, 0, 0, 0.75, 40.657485, 50.376069)" fill="none" stroke-linejoin="miter" d="M -0.00164733 55.998579 L -0.00164733 1335.576814 C -0.00164733 1366.5039 25.071271 1391.576819 55.998357 1391.576819 L 1335.576593 1391.576819 C 1366.503679 1391.576819 1391.576597 1366.5039 1391.576597 1335.576814 L 1391.576597 55.998579 C 1391.576597 25.071493 1366.503679 -0.00142568 1335.576593 -0.00142568 L 55.998357 -0.00142568 C 25.071271 -0.00142568 -0.00164733 25.071493 -0.00164733 55.998579 Z M -0.00164733 55.998579 " stroke="#fc6a1f" stroke-width="66" stroke-opacity="1" stroke-miterlimit="4"/></g></g></g><g clip-path="url(#cb9c672c81)"><path fill="#fc6a1f" d="M 340.957031 1012.140625 L 225.742188 1012.140625 C 218.671875 1012.140625 212.941406 1006.410156 212.941406 999.339844 L 212.941406 794.511719 C 212.941406 709.15625 256.777344 679.640625 275.621094 670.914062 C 290.933594 663.820312 303.964844 656.65625 315.453125 649 C 317.058594 647.929688 318.636719 646.859375 320.191406 645.789062 C 363.980469 615.597656 392.339844 569.824219 400.039062 516.90625 C 407.726562 464.070312 392.914062 409.914062 359.402344 368.320312 C 325.441406 326.179688 288.992188 299.472656 288.628906 299.207031 C 285.597656 297.003906 283.683594 293.585938 283.390625 289.851562 C 283.097656 286.121094 284.449219 282.445312 287.097656 279.796875 L 370.308594 196.585938 C 375.074219 191.820312 382.71875 191.566406 387.789062 196.003906 L 480.664062 277.269531 C 528.527344 227.511719 603.113281 206.980469 606.460938 206.078125 C 607.074219 205.914062 607.703125 205.792969 608.332031 205.722656 C 721.449219 192.773438 788.652344 230.292969 825.113281 264.054688 C 862.707031 298.863281 876.019531 336.441406 877.855469 342.054688 C 901.039062 398.320312 912.011719 456.1875 910.472656 514.070312 C 909.242188 560.488281 900 606.960938 883.007812 652.199219 C 854.09375 729.167969 813.085938 775.511719 811.355469 777.449219 C 730.328125 869.550781 641.1875 918.5 546.484375 922.847656 C 469.046875 926.40625 408.164062 898.519531 378.765625 881.582031 C 374.695312 879.238281 369.863281 878.871094 365.503906 880.578125 C 361.085938 882.304688 357.738281 885.914062 356.320312 890.480469 C 344.40625 928.753906 353.546875 996.917969 353.640625 997.601562 C 354.144531 1001.265625 353.035156 1004.96875 350.605469 1007.753906 C 348.171875 1010.542969 344.65625 1012.140625 340.957031 1012.140625 Z M 238.542969 986.539062 L 326.65625 986.539062 C 324.4375 962.777344 321.800781 915.234375 331.871094 882.871094 C 335.617188 870.839844 344.472656 861.3125 356.167969 856.734375 C 367.808594 852.175781 380.703125 853.148438 391.546875 859.398438 C 454.121094 895.453125 618.425781 957.984375 792.203125 760.453125 C 792.664062 759.941406 832.242188 715.03125 859.386719 642.265625 C 895.539062 545.351562 893.722656 447.472656 853.992188 351.347656 C 853.835938 350.972656 853.699219 350.585938 853.578125 350.195312 C 853.480469 349.875 842.0625 314.195312 806.761719 281.960938 C 759.695312 238.988281 694.25 221.855469 612.265625 231.042969 C 603.578125 233.558594 530.917969 255.714844 491.65625 303.386719 C 489.453125 306.058594 486.265625 307.726562 482.816406 308.007812 C 479.378906 308.289062 475.949219 307.164062 473.34375 304.882812 L 379.945312 223.160156 L 315.40625 287.695312 C 329.695312 299.453125 354.898438 321.925781 379.339844 352.257812 C 417.304688 399.375 434.085938 460.730469 425.375 520.59375 C 416.640625 580.636719 384.445312 632.585938 334.71875 666.867188 C 333.050781 668.019531 331.363281 669.164062 329.648438 670.304688 C 317.054688 678.695312 302.902344 686.492188 286.382812 694.140625 C 272 700.800781 238.542969 723.917969 238.542969 794.511719 Z M 344.09375 886.675781 L 344.109375 886.675781 Z M 344.09375 886.675781 " fill-opacity="1" fill-rule="nonzero"/></g><path fill="#fc6a1f" d="M 531.101562 863.199219 C 491.230469 863.199219 454.074219 852.132812 421.472656 830.257812 C 421.050781 829.976562 420.628906 829.699219 420.195312 829.429688 C 415.777344 826.6875 392.972656 811.734375 377.113281 786.105469 C 362.609375 762.660156 350.484375 724.542969 375.089844 676.09375 C 378.210938 669.949219 382.347656 664.121094 387.394531 658.765625 C 398.4375 647.035156 425.519531 617.621094 438.394531 597.960938 C 440.53125 594.695312 442.726562 591.808594 445.109375 589.132812 C 453.488281 579.703125 480.570312 542.1875 477.140625 455.292969 C 475.585938 415.882812 485.074219 378.007812 504.582031 345.761719 C 529.53125 304.515625 567.21875 278.085938 613.566406 269.332031 C 695.109375 253.933594 777.300781 292.328125 818.097656 364.871094 C 830.160156 386.320312 839.222656 410.613281 845.035156 437.078125 C 855.382812 484.207031 853.855469 534.808594 840.617188 583.410156 C 821.773438 652.589844 778.175781 749.347656 677.492188 817.425781 C 676.238281 818.296875 643.230469 840.980469 595.433594 854.128906 C 573.425781 860.1875 551.894531 863.199219 531.101562 863.199219 Z M 649.433594 291.574219 C 639.125 291.574219 628.71875 292.53125 618.316406 294.492188 C 578.765625 301.964844 547.871094 323.671875 526.488281 359.015625 C 509.585938 386.957031 501.367188 419.902344 502.722656 454.285156 C 506.527344 550.742188 474.230469 594.90625 464.242188 606.140625 C 464.242188 606.144531 464.242188 606.144531 464.242188 606.144531 C 462.707031 607.875 461.253906 609.785156 459.8125 611.988281 C 446.328125 632.578125 420.328125 661.128906 406.03125 676.316406 C 402.664062 679.894531 399.933594 683.71875 397.917969 687.6875 C 382.484375 718.070312 382.8125 746.652344 398.886719 772.632812 C 411.734375 793.398438 430.128906 805.460938 433.6875 807.671875 C 434.375 808.097656 435.054688 808.539062 435.734375 808.992188 C 479.386719 838.285156 530.578125 845.234375 587.890625 829.648438 C 631.664062 817.75 662.726562 796.507812 663.035156 796.292969 C 757.332031 732.53125 798.207031 641.679688 815.914062 576.679688 C 828.070312 532.050781 829.492188 485.675781 820.027344 442.566406 C 814.757812 418.578125 806.601562 396.660156 795.78125 377.421875 C 765.578125 323.722656 709.242188 291.574219 649.433594 291.574219 Z M 454.675781 597.640625 L 454.691406 597.640625 Z M 454.675781 597.640625 " fill-opacity="1" fill-rule="nonzero"/><path fill="#fc6a1f" d="M 579.375 589.6875 C 576.910156 589.6875 574.421875 588.980469 572.226562 587.496094 C 566.363281 583.542969 564.820312 575.585938 568.777344 569.726562 C 590.3125 537.816406 585.773438 495.324219 557.980469 468.6875 L 293.683594 214.871094 C 288.585938 209.972656 288.421875 201.871094 293.316406 196.769531 C 298.214844 191.671875 306.320312 191.507812 311.417969 196.402344 L 575.703125 450.210938 C 612.511719 485.488281 618.53125 541.777344 590 584.046875 C 587.523438 587.714844 583.484375 589.6875 579.375 589.6875 Z M 579.375 589.6875 " fill-opacity="1" fill-rule="nonzero"/><path fill="#fc6a1f" d="M 579.386719 692.101562 C 558.210938 692.101562 540.984375 674.871094 540.984375 653.695312 L 540.984375 602.488281 C 540.984375 581.3125 558.210938 564.085938 579.386719 564.085938 C 600.5625 564.085938 617.792969 581.3125 617.792969 602.488281 L 617.792969 653.695312 C 617.792969 674.871094 600.5625 692.101562 579.386719 692.101562 Z M 579.386719 589.6875 C 572.328125 589.6875 566.585938 595.429688 566.585938 602.488281 L 566.585938 653.695312 C 566.585938 660.753906 572.328125 666.496094 579.386719 666.496094 C 586.445312 666.496094 592.1875 660.753906 592.1875 653.695312 L 592.1875 602.488281 C 592.1875 595.429688 586.445312 589.6875 579.386719 589.6875 Z M 579.386719 589.6875 " fill-opacity="1" fill-rule="nonzero"/><path fill="#fc6a1f" d="M 579.382812 768.910156 C 572.3125 768.910156 566.578125 763.179688 566.578125 756.109375 L 566.578125 730.503906 C 566.578125 723.4375 572.3125 717.703125 579.382812 717.703125 C 586.449219 717.703125 592.183594 723.4375 592.183594 730.503906 L 592.183594 756.109375 C 592.183594 763.179688 586.449219 768.910156 579.382812 768.910156 Z M 579.382812 768.910156 " fill-opacity="1" fill-rule="nonzero"/><path fill="#fc6a1f" d="M 509.527344 752.359375 C 506.25 752.359375 502.972656 751.109375 500.476562 748.609375 C 495.476562 743.609375 495.472656 735.507812 500.476562 730.507812 L 518.578125 712.402344 C 523.578125 707.402344 531.683594 707.402344 536.683594 712.402344 C 541.683594 717.398438 541.683594 725.503906 536.683594 730.503906 L 518.578125 748.609375 C 516.078125 751.109375 512.804688 752.359375 509.527344 752.359375 Z M 509.527344 752.359375 " fill-opacity="1" fill-rule="nonzero"/><path fill="#fc6a1f" d="M 647.644531 752.359375 C 644.367188 752.359375 641.09375 751.109375 638.59375 748.609375 L 620.488281 730.503906 C 615.492188 725.503906 615.492188 717.398438 620.492188 712.402344 C 625.492188 707.402344 633.597656 707.402344 638.59375 712.402344 L 656.699219 730.507812 C 661.695312 735.507812 661.695312 743.609375 656.695312 748.609375 C 654.199219 751.109375 650.921875 752.359375 647.644531 752.359375 Z M 647.644531 752.359375 " fill-opacity="1" fill-rule="nonzero"/></svg>