<svg xmlns="http://www.w3.org/2000/svg" xmlns:xlink="http://www.w3.org/1999/xlink" width="1500" zoomAndPan="magnify" viewBox="0 0 1125 1124.99995" height="1500" preserveAspectRatio="xMidYMid meet" version="1.0"><defs><clipPath id="726531bc3f"><path d="M 1053 146 L 1083.90625 146 L 1083.90625 999 L 1053 999 Z M 1053 146 " clip-rule="nonzero"/></clipPath><clipPath id="32a3fc14a1"><path d="M 40.65625 92.375 L 40.65625 1052.0625 C 40.65625 1075.257812 59.460938 1094.0625 82.65625 1094.0625 L 1042.34375 1094.0625 C 1065.539062 1094.0625 1084.34375 1075.257812 1084.34375 1052.0625 L 1084.34375 92.375 C 1084.34375 69.179688 1065.539062 50.375 1042.34375 50.375 L 82.65625 50.375 C 59.460938 50.375 40.65625 69.179688 40.65625 92.375 Z M 40.65625 92.375 " clip-rule="nonzero"/></clipPath><clipPath id="af28728263"><path d="M 83.558594 51.277344 L 1041.441406 51.277344 C 1064.636719 51.277344 1083.441406 70.082031 1083.441406 93.277344 L 1083.441406 1051.160156 C 1083.441406 1074.355469 1064.636719 1093.160156 1041.441406 1093.160156 L 83.558594 1093.160156 C 60.363281 1093.160156 41.558594 1074.355469 41.558594 1051.160156 L 41.558594 93.277344 C 41.558594 70.082031 60.363281 51.277344 83.558594 51.277344 Z M 83.558594 51.277344 " clip-rule="nonzero"/></clipPath><clipPath id="9e4c3277ad"><path d="M 41.40625 146 L 72 146 L 72 999 L 41.40625 999 Z M 41.40625 146 " clip-rule="nonzero"/></clipPath><clipPath id="490ce0c0ef"><path d="M 40.65625 92.375 L 40.65625 1052.0625 C 40.65625 1075.257812 59.460938 1094.0625 82.65625 1094.0625 L 1042.34375 1094.0625 C 1065.539062 1094.0625 1084.34375 1075.257812 1084.34375 1052.0625 L 1084.34375 92.375 C 1084.34375 69.179688 1065.539062 50.375 1042.34375 50.375 L 82.65625 50.375 C 59.460938 50.375 40.65625 69.179688 40.65625 92.375 Z M 40.65625 92.375 " clip-rule="nonzero"/></clipPath><clipPath id="84a93523a4"><path d="M 83.558594 51.277344 L 1041.441406 51.277344 C 1064.636719 51.277344 1083.441406 70.082031 1083.441406 93.277344 L 1083.441406 1051.160156 C 1083.441406 1074.355469 1064.636719 1093.160156 1041.441406 1093.160156 L 83.558594 1093.160156 C 60.363281 1093.160156 41.558594 1074.355469 41.558594 1051.160156 L 41.558594 93.277344 C 41.558594 70.082031 60.363281 51.277344 83.558594 51.277344 Z M 83.558594 51.277344 " clip-rule="nonzero"/></clipPath><clipPath id="293de808a6"><path d="M 136 51.125 L 989 51.125 L 989 82 L 136 82 Z M 136 51.125 " clip-rule="nonzero"/></clipPath><clipPath id="2df4932ab2"><path d="M 40.65625 92.375 L 40.65625 1052.0625 C 40.65625 1075.257812 59.460938 1094.0625 82.65625 1094.0625 L 1042.34375 1094.0625 C 1065.539062 1094.0625 1084.34375 1075.257812 1084.34375 1052.0625 L 1084.34375 92.375 C 1084.34375 69.179688 1065.539062 50.375 1042.34375 50.375 L 82.65625 50.375 C 59.460938 50.375 40.65625 69.179688 40.65625 92.375 Z M 40.65625 92.375 " clip-rule="nonzero"/></clipPath><clipPath id="154580fd4d"><path d="M 83.558594 51.277344 L 1041.441406 51.277344 C 1064.636719 51.277344 1083.441406 70.082031 1083.441406 93.277344 L 1083.441406 1051.160156 C 1083.441406 1074.355469 1064.636719 1093.160156 1041.441406 1093.160156 L 83.558594 1093.160156 C 60.363281 1093.160156 41.558594 1074.355469 41.558594 1051.160156 L 41.558594 93.277344 C 41.558594 70.082031 60.363281 51.277344 83.558594 51.277344 Z M 83.558594 51.277344 " clip-rule="nonzero"/></clipPath><clipPath id="14d6655047"><path d="M 136 1062 L 989 1062 L 989 1093.625 L 136 1093.625 Z M 136 1062 " clip-rule="nonzero"/></clipPath><clipPath id="a276b70f7a"><path d="M 40.65625 92.375 L 40.65625 1052.0625 C 40.65625 1075.257812 59.460938 1094.0625 82.65625 1094.0625 L 1042.34375 1094.0625 C 1065.539062 1094.0625 1084.34375 1075.257812 1084.34375 1052.0625 L 1084.34375 92.375 C 1084.34375 69.179688 1065.539062 50.375 1042.34375 50.375 L 82.65625 50.375 C 59.460938 50.375 40.65625 69.179688 40.65625 92.375 Z M 40.65625 92.375 " clip-rule="nonzero"/></clipPath><clipPath id="7b8b448db5"><path d="M 83.558594 51.277344 L 1041.441406 51.277344 C 1064.636719 51.277344 1083.441406 70.082031 1083.441406 93.277344 L 1083.441406 1051.160156 C 1083.441406 1074.355469 1064.636719 1093.160156 1041.441406 1093.160156 L 83.558594 1093.160156 C 60.363281 1093.160156 41.558594 1074.355469 41.558594 1051.160156 L 41.558594 93.277344 C 41.558594 70.082031 60.363281 51.277344 83.558594 51.277344 Z M 83.558594 51.277344 " clip-rule="nonzero"/></clipPath><clipPath id="cd9561f8aa"><path d="M 988 51.125 L 1083.90625 51.125 L 1083.90625 147 L 988 147 Z M 988 51.125 " clip-rule="nonzero"/></clipPath><clipPath id="9955cc1700"><path d="M 40.65625 92.375 L 40.65625 1052.0625 C 40.65625 1075.257812 59.460938 1094.0625 82.65625 1094.0625 L 1042.34375 1094.0625 C 1065.539062 1094.0625 1084.34375 1075.257812 1084.34375 1052.0625 L 1084.34375 92.375 C 1084.34375 69.179688 1065.539062 50.375 1042.34375 50.375 L 82.65625 50.375 C 59.460938 50.375 40.65625 69.179688 40.65625 92.375 Z M 40.65625 92.375 " clip-rule="nonzero"/></clipPath><clipPath id="0ca7e323ae"><path d="M 83.558594 51.277344 L 1041.441406 51.277344 C 1064.636719 51.277344 1083.441406 70.082031 1083.441406 93.277344 L 1083.441406 1051.160156 C 1083.441406 1074.355469 1064.636719 1093.160156 1041.441406 1093.160156 L 83.558594 1093.160156 C 60.363281 1093.160156 41.558594 1074.355469 41.558594 1051.160156 L 41.558594 93.277344 C 41.558594 70.082031 60.363281 51.277344 83.558594 51.277344 Z M 83.558594 51.277344 " clip-rule="nonzero"/></clipPath><clipPath id="dd15409a5d"><path d="M 41.40625 51.125 L 137 51.125 L 137 147 L 41.40625 147 Z M 41.40625 51.125 " clip-rule="nonzero"/></clipPath><clipPath id="6901f6f9ce"><path d="M 40.65625 92.375 L 40.65625 1052.0625 C 40.65625 1075.257812 59.460938 1094.0625 82.65625 1094.0625 L 1042.34375 1094.0625 C 1065.539062 1094.0625 1084.34375 1075.257812 1084.34375 1052.0625 L 1084.34375 92.375 C 1084.34375 69.179688 1065.539062 50.375 1042.34375 50.375 L 82.65625 50.375 C 59.460938 50.375 40.65625 69.179688 40.65625 92.375 Z M 40.65625 92.375 " clip-rule="nonzero"/></clipPath><clipPath id="bc9a1a3c37"><path d="M 83.558594 51.277344 L 1041.441406 51.277344 C 1064.636719 51.277344 1083.441406 70.082031 1083.441406 93.277344 L 1083.441406 1051.160156 C 1083.441406 1074.355469 1064.636719 1093.160156 1041.441406 1093.160156 L 83.558594 1093.160156 C 60.363281 1093.160156 41.558594 1074.355469 41.558594 1051.160156 L 41.558594 93.277344 C 41.558594 70.082031 60.363281 51.277344 83.558594 51.277344 Z M 83.558594 51.277344 " clip-rule="nonzero"/></clipPath><clipPath id="0f299a7583"><path d="M 988 998 L 1083.90625 998 L 1083.90625 1093.625 L 988 1093.625 Z M 988 998 " clip-rule="nonzero"/></clipPath><clipPath id="240db434e5"><path d="M 40.65625 92.375 L 40.65625 1052.0625 C 40.65625 1075.257812 59.460938 1094.0625 82.65625 1094.0625 L 1042.34375 1094.0625 C 1065.539062 1094.0625 1084.34375 1075.257812 1084.34375 1052.0625 L 1084.34375 92.375 C 1084.34375 69.179688 1065.539062 50.375 1042.34375 50.375 L 82.65625 50.375 C 59.460938 50.375 40.65625 69.179688 40.65625 92.375 Z M 40.65625 92.375 " clip-rule="nonzero"/></clipPath><clipPath id="c296db1ae8"><path d="M 83.558594 51.277344 L 1041.441406 51.277344 C 1064.636719 51.277344 1083.441406 70.082031 1083.441406 93.277344 L 1083.441406 1051.160156 C 1083.441406 1074.355469 1064.636719 1093.160156 1041.441406 1093.160156 L 83.558594 1093.160156 C 60.363281 1093.160156 41.558594 1074.355469 41.558594 1051.160156 L 41.558594 93.277344 C 41.558594 70.082031 60.363281 51.277344 83.558594 51.277344 Z M 83.558594 51.277344 " clip-rule="nonzero"/></clipPath><clipPath id="5f176c2d0b"><path d="M 41.40625 998 L 137 998 L 137 1093.625 L 41.40625 1093.625 Z M 41.40625 998 " clip-rule="nonzero"/></clipPath><clipPath id="d64088db3e"><path d="M 40.65625 92.375 L 40.65625 1052.0625 C 40.65625 1075.257812 59.460938 1094.0625 82.65625 1094.0625 L 1042.34375 1094.0625 C 1065.539062 1094.0625 1084.34375 1075.257812 1084.34375 1052.0625 L 1084.34375 92.375 C 1084.34375 69.179688 1065.539062 50.375 1042.34375 50.375 L 82.65625 50.375 C 59.460938 50.375 40.65625 69.179688 40.65625 92.375 Z M 40.65625 92.375 " clip-rule="nonzero"/></clipPath><clipPath id="c1c8b1066a"><path d="M 83.558594 51.277344 L 1041.441406 51.277344 C 1064.636719 51.277344 1083.441406 70.082031 1083.441406 93.277344 L 1083.441406 1051.160156 C 1083.441406 1074.355469 1064.636719 1093.160156 1041.441406 1093.160156 L 83.558594 1093.160156 C 60.363281 1093.160156 41.558594 1074.355469 41.558594 1051.160156 L 41.558594 93.277344 C 41.558594 70.082031 60.363281 51.277344 83.558594 51.277344 Z M 83.558594 51.277344 " clip-rule="nonzero"/></clipPath><clipPath id="717ddac2b2"><path d="M 40.65625 50.375 L 1084.65625 50.375 L 1084.65625 1094.375 L 40.65625 1094.375 Z M 40.65625 50.375 " clip-rule="nonzero"/></clipPath><clipPath id="21d1f4d430"><path d="M 40.65625 92.375 L 40.65625 1052.0625 C 40.65625 1075.257812 59.460938 1094.0625 82.65625 1094.0625 L 1042.34375 1094.0625 C 1065.539062 1094.0625 1084.34375 1075.257812 1084.34375 1052.0625 L 1084.34375 92.375 C 1084.34375 69.179688 1065.539062 50.375 1042.34375 50.375 L 82.65625 50.375 C 59.460938 50.375 40.65625 69.179688 40.65625 92.375 Z M 40.65625 92.375 " clip-rule="nonzero"/></clipPath><clipPath id="0e088cb79a"><path d="M 40.65625 92.375 L 40.65625 1052.058594 C 40.65625 1075.253906 59.460938 1094.058594 82.65625 1094.058594 L 1042.339844 1094.058594 C 1065.535156 1094.058594 1084.339844 1075.253906 1084.339844 1052.058594 L 1084.339844 92.375 C 1084.339844 69.179688 1065.535156 50.375 1042.339844 50.375 L 82.65625 50.375 C 59.460938 50.375 40.65625 69.179688 40.65625 92.375 Z M 40.65625 92.375 " clip-rule="nonzero"/></clipPath><clipPath id="ad785d26d1"><path d="M 112.5 112.5 L 1000.5 112.5 L 1000.5 1000.5 L 112.5 1000.5 Z M 112.5 112.5 " clip-rule="nonzero"/></clipPath></defs><g clip-path="url(#726531bc3f)"><g clip-path="url(#32a3fc14a1)"><g clip-path="url(#af28728263)"><path fill="#fc6a1f" d="M 1053.15625 146.011719 L 1084.339844 146.011719 L 1084.339844 998.421875 L 1053.15625 998.421875 Z M 1053.15625 146.011719 " fill-opacity="1" fill-rule="nonzero"/></g></g></g><g clip-path="url(#9e4c3277ad)"><g clip-path="url(#490ce0c0ef)"><g clip-path="url(#84a93523a4)"><path fill="#fc6a1f" d="M 40.65625 146.011719 L 71.84375 146.011719 L 71.84375 998.421875 L 40.65625 998.421875 Z M 40.65625 146.011719 " fill-opacity="1" fill-rule="nonzero"/></g></g></g><g clip-path="url(#293de808a6)"><g clip-path="url(#2df4932ab2)"><g clip-path="url(#154580fd4d)"><path fill="#fc6a1f" d="M 136.292969 50.375 L 988.703125 50.375 L 988.703125 81.5625 L 136.292969 81.5625 Z M 136.292969 50.375 " fill-opacity="1" fill-rule="nonzero"/></g></g></g><g clip-path="url(#14d6655047)"><g clip-path="url(#a276b70f7a)"><g clip-path="url(#7b8b448db5)"><path fill="#fc6a1f" d="M 136.292969 1062.875 L 988.703125 1062.875 L 988.703125 1094.058594 L 136.292969 1094.058594 Z M 136.292969 1062.875 " fill-opacity="1" fill-rule="nonzero"/></g></g></g><g clip-path="url(#cd9561f8aa)"><g clip-path="url(#9955cc1700)"><g clip-path="url(#0ca7e323ae)"><path fill="#fc6a1f" d="M 1053.15625 81.5625 L 1053.15625 146.011719 L 1084.339844 146.011719 L 1084.339844 50.375 L 988.703125 50.375 L 988.703125 81.5625 Z M 1053.15625 81.5625 " fill-opacity="1" fill-rule="nonzero"/></g></g></g><g clip-path="url(#dd15409a5d)"><g clip-path="url(#6901f6f9ce)"><g clip-path="url(#bc9a1a3c37)"><path fill="#fc6a1f" d="M 71.84375 81.5625 L 136.292969 81.5625 L 136.292969 50.375 L 40.65625 50.375 L 40.65625 146.011719 L 71.84375 146.011719 Z M 71.84375 81.5625 " fill-opacity="1" fill-rule="nonzero"/></g></g></g><g clip-path="url(#0f299a7583)"><g clip-path="url(#240db434e5)"><g clip-path="url(#c296db1ae8)"><path fill="#fc6a1f" d="M 1053.15625 1062.875 L 988.703125 1062.875 L 988.703125 1094.058594 L 1084.339844 1094.058594 L 1084.339844 998.421875 L 1053.15625 998.421875 Z M 1053.15625 1062.875 " fill-opacity="1" fill-rule="nonzero"/></g></g></g><g clip-path="url(#5f176c2d0b)"><g clip-path="url(#d64088db3e)"><g clip-path="url(#c1c8b1066a)"><path fill="#fc6a1f" d="M 71.84375 1062.875 L 71.84375 998.421875 L 40.65625 998.421875 L 40.65625 1094.058594 L 136.292969 1094.058594 L 136.292969 1062.875 Z M 71.84375 1062.875 " fill-opacity="1" fill-rule="nonzero"/></g></g></g><g clip-path="url(#717ddac2b2)"><g clip-path="url(#21d1f4d430)"><g clip-path="url(#0e088cb79a)"><path stroke-linecap="butt" transform="matrix(0.75, 0, 0, 0.75, 40.657485, 50.376069)" fill="none" stroke-linejoin="miter" d="M -0.00164733 55.998579 L -0.00164733 1335.576814 C -0.00164733 1366.5039 25.071271 1391.576819 55.998357 1391.576819 L 1335.576593 1391.576819 C 1366.503679 1391.576819 1391.576597 1366.5039 1391.576597 1335.576814 L 1391.576597 55.998579 C 1391.576597 25.071493 1366.503679 -0.00142568 1335.576593 -0.00142568 L 55.998357 -0.00142568 C 25.071271 -0.00142568 -0.00164733 25.071493 -0.00164733 55.998579 Z M -0.00164733 55.998579 " stroke="#fc6a1f" stroke-width="66" stroke-opacity="1" stroke-miterlimit="4"/></g></g></g><path fill="#fc6a1f" d="M 659.828125 419.550781 L 453.769531 419.550781 C 438.789062 419.550781 426.765625 407.34375 426.765625 392.546875 L 426.765625 382.558594 C 426.765625 367.574219 438.972656 355.550781 453.769531 355.550781 L 659.828125 355.550781 C 674.8125 355.550781 686.832031 367.757812 686.832031 382.558594 L 686.832031 392.546875 C 686.832031 407.34375 674.8125 419.550781 659.828125 419.550781 Z M 453.769531 369.980469 C 446.925781 369.980469 441.378906 375.527344 441.378906 382.371094 L 441.378906 392.359375 C 441.378906 399.203125 446.925781 404.753906 453.769531 404.753906 L 659.828125 404.753906 C 666.671875 404.753906 672.222656 399.203125 672.222656 392.359375 L 672.222656 382.371094 C 672.222656 375.527344 666.671875 369.980469 659.828125 369.980469 Z M 453.769531 369.980469 " fill-opacity="1" fill-rule="nonzero"/><path fill="#fc6a1f" d="M 513.703125 454.511719 L 466.71875 454.511719 C 463.574219 454.511719 460.800781 452.476562 459.691406 449.515625 L 448.589844 414.558594 C 447.851562 412.335938 448.40625 409.933594 449.515625 408.082031 C 450.625 406.234375 453.03125 405.125 455.4375 405.125 L 524.613281 405.125 C 526.835938 405.125 529.238281 406.234375 530.535156 408.082031 C 531.828125 409.933594 532.382812 412.335938 531.457031 414.558594 L 520.359375 449.515625 C 519.621094 452.476562 516.847656 454.511719 513.703125 454.511719 Z M 472.082031 439.898438 L 508.152344 439.898438 L 514.625 419.550781 L 465.609375 419.550781 Z M 472.082031 439.898438 " fill-opacity="1" fill-rule="nonzero"/><path fill="#fc6a1f" d="M 646.695312 454.511719 L 599.710938 454.511719 C 596.566406 454.511719 593.792969 452.476562 592.683594 449.515625 L 581.585938 414.558594 C 580.847656 412.335938 581.402344 409.933594 582.511719 408.082031 C 583.804688 406.234375 586.023438 405.125 588.429688 405.125 L 657.421875 405.125 C 659.644531 405.125 662.046875 406.234375 663.34375 408.082031 C 664.636719 409.933594 665.191406 412.335938 664.269531 414.558594 L 653.167969 449.515625 C 652.613281 452.476562 649.839844 454.511719 646.695312 454.511719 Z M 605.261719 439.898438 L 641.332031 439.898438 L 647.804688 419.550781 L 598.789062 419.550781 Z M 605.261719 439.898438 " fill-opacity="1" fill-rule="nonzero"/><path fill="#fc6a1f" d="M 553.101562 369.980469 C 549.214844 369.980469 546.070312 367.019531 545.886719 363.136719 L 543.480469 324.660156 C 543.296875 320.59375 546.257812 317.261719 550.324219 316.890625 C 554.394531 316.707031 557.722656 319.667969 558.09375 323.738281 L 560.5 362.210938 C 560.683594 366.28125 557.722656 369.609375 553.65625 369.980469 C 553.46875 369.980469 553.285156 369.980469 553.101562 369.980469 Z M 528.3125 310.234375 C 528.128906 310.234375 527.757812 310.234375 527.574219 310.234375 C 505.746094 308.015625 467.644531 303.757812 456.359375 302.09375 C 452.476562 301.539062 449.703125 297.839844 450.070312 293.769531 C 450.625 289.886719 454.324219 287.113281 458.394531 287.480469 C 469.308594 289.148438 507.226562 293.214844 528.867188 295.4375 C 532.9375 295.804688 535.898438 299.503906 535.34375 303.390625 C 535.15625 307.460938 532.011719 310.234375 528.3125 310.234375 Z M 528.3125 310.234375 " fill-opacity="1" fill-rule="nonzero"/><path fill="#fc6a1f" d="M 547.734375 331.691406 C 532.9375 331.691406 521.101562 319.851562 521.101562 305.054688 C 521.101562 290.257812 532.9375 278.417969 547.734375 278.417969 C 562.535156 278.417969 574.371094 290.257812 574.371094 305.054688 C 574.371094 319.851562 562.347656 331.691406 547.734375 331.691406 Z M 547.734375 293.03125 C 541.078125 293.03125 535.714844 298.394531 535.714844 305.054688 C 535.714844 311.714844 541.078125 317.078125 547.734375 317.078125 C 554.394531 317.078125 559.757812 311.714844 559.757812 305.054688 C 559.757812 298.394531 554.210938 293.03125 547.734375 293.03125 Z M 547.734375 293.03125 " fill-opacity="1" fill-rule="nonzero"/><path fill="#fc6a1f" d="M 796.335938 620.058594 L 762.300781 620.058594 C 758.234375 620.058594 754.902344 616.730469 754.902344 612.660156 C 754.902344 608.589844 758.234375 605.261719 762.300781 605.261719 L 789.121094 605.261719 L 789.121094 585.285156 C 789.121094 574.371094 780.246094 565.308594 769.144531 565.308594 L 762.117188 565.308594 C 758.046875 565.308594 754.71875 561.980469 754.71875 557.910156 C 754.71875 553.839844 758.046875 550.511719 762.117188 550.511719 L 769.144531 550.511719 C 788.199219 550.511719 803.734375 566.046875 803.734375 585.101562 L 803.734375 612.289062 C 803.550781 616.730469 800.40625 620.058594 796.335938 620.058594 Z M 522.394531 620.058594 L 317.078125 620.058594 C 313.007812 620.058594 309.679688 616.730469 309.679688 612.660156 L 309.679688 585.46875 C 309.679688 566.417969 325.214844 550.878906 344.269531 550.878906 L 522.394531 550.878906 C 526.464844 550.878906 529.792969 554.210938 529.792969 558.277344 C 529.792969 562.347656 526.464844 565.679688 522.394531 565.679688 L 344.269531 565.679688 C 333.355469 565.679688 324.292969 574.558594 324.292969 585.65625 L 324.292969 605.632812 L 522.210938 605.632812 C 526.28125 605.632812 529.609375 608.960938 529.609375 613.03125 C 529.792969 616.730469 526.464844 620.058594 522.394531 620.058594 Z M 522.394531 620.058594 " fill-opacity="1" fill-rule="nonzero"/><path fill="#fc6a1f" d="M 809.285156 663.15625 L 762.300781 663.15625 C 758.234375 663.15625 754.902344 659.828125 754.902344 655.757812 C 754.902344 651.691406 758.234375 648.359375 762.300781 648.359375 L 809.285156 648.359375 C 817.238281 648.359375 823.527344 642.070312 823.527344 634.117188 C 823.527344 626.164062 817.238281 619.875 809.285156 619.875 L 762.300781 619.875 C 758.234375 619.875 754.902344 616.546875 754.902344 612.476562 C 754.902344 608.40625 758.234375 605.078125 762.300781 605.078125 L 809.285156 605.078125 C 825.191406 605.078125 838.140625 618.023438 838.140625 633.933594 C 838.140625 649.839844 825.007812 663.15625 809.285156 663.15625 Z M 522.394531 663.15625 L 304.316406 663.15625 C 288.40625 663.15625 275.460938 650.210938 275.460938 634.300781 C 275.460938 618.394531 288.40625 605.445312 304.316406 605.445312 L 522.394531 605.445312 C 526.464844 605.445312 529.792969 608.777344 529.792969 612.84375 C 529.792969 616.914062 526.464844 620.246094 522.394531 620.246094 L 304.316406 620.246094 C 296.359375 620.246094 290.070312 626.535156 290.070312 634.488281 C 290.070312 642.441406 296.359375 648.730469 304.316406 648.730469 L 522.394531 648.730469 C 526.464844 648.730469 529.792969 652.058594 529.792969 656.128906 C 529.792969 660.199219 526.464844 663.15625 522.394531 663.15625 Z M 522.394531 663.15625 " fill-opacity="1" fill-rule="nonzero"/><path fill="#fc6a1f" d="M 667.78125 740.660156 L 445.816406 740.660156 C 442.671875 740.660156 439.714844 738.441406 438.789062 735.480469 L 415.113281 657.980469 C 414.558594 655.757812 414.925781 653.355469 416.222656 651.503906 C 417.703125 649.65625 419.738281 648.546875 422.140625 648.546875 L 522.394531 648.546875 C 526.464844 648.546875 529.792969 651.875 529.792969 655.945312 C 529.792969 660.011719 526.464844 663.34375 522.394531 663.34375 L 431.945312 663.34375 L 451.179688 726.234375 L 662.417969 726.234375 L 676.105469 681.285156 C 677.214844 677.402344 681.285156 675.179688 685.167969 676.476562 C 689.054688 677.585938 691.273438 681.65625 689.976562 685.539062 L 674.8125 735.667969 C 673.699219 738.441406 670.925781 740.660156 667.78125 740.660156 Z M 667.78125 740.660156 " fill-opacity="1" fill-rule="nonzero"/><path fill="#fc6a1f" d="M 633.746094 836.289062 L 479.667969 836.289062 C 467.089844 836.289062 456.914062 825.933594 456.914062 813.539062 C 456.914062 801.144531 467.273438 790.789062 479.667969 790.789062 L 633.746094 790.789062 C 646.324219 790.789062 656.5 801.144531 656.5 813.539062 C 656.5 825.933594 646.511719 836.289062 633.746094 836.289062 Z M 479.667969 805.214844 C 475.042969 805.214844 471.34375 808.914062 471.34375 813.539062 C 471.34375 818.164062 475.042969 821.863281 479.667969 821.863281 L 633.746094 821.863281 C 638.371094 821.863281 642.070312 818.164062 642.070312 813.539062 C 642.070312 808.914062 638.371094 805.214844 633.746094 805.214844 Z M 479.667969 805.214844 " fill-opacity="1" fill-rule="nonzero"/><path fill="#fc6a1f" d="M 416.589844 565.492188 L 346.488281 565.492188 C 342.417969 565.492188 339.089844 562.164062 339.089844 558.09375 L 339.089844 539.78125 C 339.089844 525.722656 350.558594 514.070312 364.800781 514.070312 L 401.609375 514.070312 C 403.828125 514.070312 405.863281 514.996094 407.160156 516.660156 C 408.453125 518.324219 409.191406 520.546875 408.824219 522.578125 C 408.636719 524.246094 408.453125 525.910156 408.453125 527.574219 C 408.453125 537.191406 413.078125 546.441406 421.03125 552.359375 C 423.621094 554.210938 424.546875 557.539062 423.621094 560.5 C 422.695312 563.644531 419.738281 565.492188 416.589844 565.492188 Z M 354.070312 551.066406 L 400.5 551.066406 C 396.613281 544.40625 394.210938 536.824219 394.027344 529.054688 L 365.171875 529.054688 C 359.066406 529.054688 354.070312 534.046875 354.070312 540.152344 Z M 354.070312 551.066406 " fill-opacity="1" fill-rule="nonzero"/><path fill="#fc6a1f" d="M 586.765625 805.214844 L 526.835938 805.214844 C 522.765625 805.214844 519.433594 801.886719 519.433594 797.816406 L 519.433594 733.078125 C 519.433594 729.007812 522.765625 725.679688 526.835938 725.679688 L 586.765625 725.679688 C 590.835938 725.679688 594.164062 729.007812 594.164062 733.078125 L 594.164062 797.816406 C 593.980469 802.070312 590.835938 805.214844 586.765625 805.214844 Z M 534.046875 790.789062 L 579.367188 790.789062 L 579.367188 740.660156 L 534.046875 740.660156 Z M 534.046875 790.789062 " fill-opacity="1" fill-rule="nonzero"/><path fill="#fc6a1f" d="M 461.539062 565.492188 C 459.320312 565.492188 457.101562 564.566406 455.621094 562.535156 C 453.214844 559.203125 453.957031 554.578125 457.101562 552.175781 C 465.054688 546.441406 469.679688 537.191406 469.679688 527.390625 C 469.679688 510.558594 455.992188 496.867188 439.160156 496.867188 C 422.324219 496.867188 408.636719 510.558594 408.636719 527.390625 C 408.636719 537.007812 413.261719 546.257812 421.214844 552.175781 C 424.546875 554.578125 425.101562 559.203125 422.695312 562.535156 C 420.292969 565.863281 415.667969 566.417969 412.335938 564.011719 C 400.871094 555.503906 394.027344 542 394.027344 527.574219 C 394.027344 502.601562 414.371094 482.257812 439.34375 482.257812 C 464.3125 482.257812 484.660156 502.601562 484.660156 527.574219 C 484.660156 541.816406 477.816406 555.503906 466.347656 564.011719 C 464.683594 565.125 463.019531 565.492188 461.539062 565.492188 Z M 461.539062 565.492188 " fill-opacity="1" fill-rule="nonzero"/><path fill="#fc6a1f" d="M 522.394531 565.492188 L 461.539062 565.492188 C 458.394531 565.492188 455.621094 563.457031 454.511719 560.5 C 453.585938 557.539062 454.695312 554.210938 457.101562 552.359375 C 465.054688 546.625 469.679688 537.378906 469.679688 527.574219 C 469.679688 525.539062 469.492188 523.691406 469.125 521.65625 C 468.570312 519.433594 469.308594 517.03125 470.972656 515.367188 C 472.453125 513.703125 474.859375 512.777344 477.261719 513.148438 L 525.167969 518.511719 C 529.238281 518.878906 532.011719 522.578125 531.644531 526.648438 C 531.273438 530.71875 527.574219 533.492188 523.503906 533.125 L 484.476562 528.867188 C 484.292969 536.824219 482.070312 544.40625 478.003906 551.25 L 522.578125 551.25 C 526.648438 551.25 529.980469 554.578125 529.980469 558.648438 C 529.792969 562.347656 526.464844 565.492188 522.394531 565.492188 Z M 522.394531 565.492188 " fill-opacity="1" fill-rule="nonzero"/><path fill="#fc6a1f" d="M 762.117188 681.285156 L 522.394531 681.285156 C 518.324219 681.285156 514.996094 677.957031 514.996094 673.886719 L 514.996094 534.234375 C 514.996094 518.324219 528.128906 505.191406 544.035156 505.191406 L 740.289062 505.191406 C 756.199219 505.191406 769.332031 518.324219 769.332031 534.234375 L 769.332031 673.886719 C 769.515625 678.140625 766.1875 681.285156 762.117188 681.285156 Z M 529.792969 666.671875 L 754.902344 666.671875 L 754.902344 534.417969 C 754.902344 526.464844 748.429688 520.175781 740.660156 520.175781 L 544.035156 520.175781 C 536.082031 520.175781 529.792969 526.648438 529.792969 534.417969 Z M 529.792969 666.671875 " fill-opacity="1" fill-rule="nonzero"/><g clip-path="url(#ad785d26d1)"><path fill="#fc6a1f" d="M 556.429688 1000.359375 C 496.5 1000.359375 438.417969 988.707031 383.667969 965.398438 C 330.765625 943.019531 283.226562 911.019531 242.535156 870.324219 C 201.839844 829.632812 169.839844 782.09375 147.460938 729.191406 C 124.152344 674.441406 112.5 616.359375 112.5 556.429688 C 112.5 496.5 124.152344 438.417969 147.460938 383.667969 C 169.839844 330.765625 201.839844 283.226562 242.535156 242.535156 C 283.226562 201.839844 330.765625 169.839844 383.667969 147.460938 C 438.417969 124.152344 496.5 112.5 556.429688 112.5 C 616.359375 112.5 674.441406 124.152344 729.191406 147.460938 C 782.09375 169.839844 829.632812 201.839844 870.324219 242.535156 C 911.019531 283.226562 943.019531 330.765625 965.398438 383.667969 C 988.519531 438.417969 1000.359375 496.5 1000.359375 556.429688 C 1000.359375 616.359375 988.707031 674.441406 965.398438 729.191406 C 943.019531 782.09375 911.019531 829.445312 870.324219 870.324219 C 829.632812 911.203125 782.09375 943.019531 729.191406 965.398438 C 674.441406 988.707031 616.359375 1000.359375 556.429688 1000.359375 Z M 556.429688 127.484375 C 319.851562 127.484375 127.484375 319.851562 127.484375 556.429688 C 127.484375 793.007812 319.851562 985.375 556.429688 985.375 C 793.007812 985.375 985.375 793.007812 985.375 556.429688 C 985.375 319.851562 793.007812 127.484375 556.429688 127.484375 Z M 556.429688 127.484375 " fill-opacity="1" fill-rule="nonzero"/></g></svg>