<svg xmlns="http://www.w3.org/2000/svg" xmlns:xlink="http://www.w3.org/1999/xlink" width="1500" zoomAndPan="magnify" viewBox="0 0 1125 1124.99995" height="1500" preserveAspectRatio="xMidYMid meet" version="1.0"><defs><clipPath id="b7e8be6921"><path d="M 1053 146 L 1083.90625 146 L 1083.90625 999 L 1053 999 Z M 1053 146 " clip-rule="nonzero"/></clipPath><clipPath id="801868d05b"><path d="M 40.65625 92.375 L 40.65625 1052.0625 C 40.65625 1075.257812 59.460938 1094.0625 82.65625 1094.0625 L 1042.34375 1094.0625 C 1065.539062 1094.0625 1084.34375 1075.257812 1084.34375 1052.0625 L 1084.34375 92.375 C 1084.34375 69.179688 1065.539062 50.375 1042.34375 50.375 L 82.65625 50.375 C 59.460938 50.375 40.65625 69.179688 40.65625 92.375 Z M 40.65625 92.375 " clip-rule="nonzero"/></clipPath><clipPath id="c9106ea657"><path d="M 83.558594 51.277344 L 1041.441406 51.277344 C 1064.636719 51.277344 1083.441406 70.078125 1083.441406 93.277344 L 1083.441406 1051.160156 C 1083.441406 1074.355469 1064.636719 1093.160156 1041.441406 1093.160156 L 83.558594 1093.160156 C 60.363281 1093.160156 41.558594 1074.355469 41.558594 1051.160156 L 41.558594 93.277344 C 41.558594 70.078125 60.363281 51.277344 83.558594 51.277344 Z M 83.558594 51.277344 " clip-rule="nonzero"/></clipPath><clipPath id="c05af3c578"><path d="M 41.40625 146 L 72 146 L 72 999 L 41.40625 999 Z M 41.40625 146 " clip-rule="nonzero"/></clipPath><clipPath id="bea484966c"><path d="M 40.65625 92.375 L 40.65625 1052.0625 C 40.65625 1075.257812 59.460938 1094.0625 82.65625 1094.0625 L 1042.34375 1094.0625 C 1065.539062 1094.0625 1084.34375 1075.257812 1084.34375 1052.0625 L 1084.34375 92.375 C 1084.34375 69.179688 1065.539062 50.375 1042.34375 50.375 L 82.65625 50.375 C 59.460938 50.375 40.65625 69.179688 40.65625 92.375 Z M 40.65625 92.375 " clip-rule="nonzero"/></clipPath><clipPath id="dd83a93c7c"><path d="M 83.558594 51.277344 L 1041.441406 51.277344 C 1064.636719 51.277344 1083.441406 70.078125 1083.441406 93.277344 L 1083.441406 1051.160156 C 1083.441406 1074.355469 1064.636719 1093.160156 1041.441406 1093.160156 L 83.558594 1093.160156 C 60.363281 1093.160156 41.558594 1074.355469 41.558594 1051.160156 L 41.558594 93.277344 C 41.558594 70.078125 60.363281 51.277344 83.558594 51.277344 Z M 83.558594 51.277344 " clip-rule="nonzero"/></clipPath><clipPath id="91b97f0fbb"><path d="M 136 51.125 L 989 51.125 L 989 82 L 136 82 Z M 136 51.125 " clip-rule="nonzero"/></clipPath><clipPath id="9db620f1b0"><path d="M 40.65625 92.375 L 40.65625 1052.0625 C 40.65625 1075.257812 59.460938 1094.0625 82.65625 1094.0625 L 1042.34375 1094.0625 C 1065.539062 1094.0625 1084.34375 1075.257812 1084.34375 1052.0625 L 1084.34375 92.375 C 1084.34375 69.179688 1065.539062 50.375 1042.34375 50.375 L 82.65625 50.375 C 59.460938 50.375 40.65625 69.179688 40.65625 92.375 Z M 40.65625 92.375 " clip-rule="nonzero"/></clipPath><clipPath id="f4e81893b4"><path d="M 83.558594 51.277344 L 1041.441406 51.277344 C 1064.636719 51.277344 1083.441406 70.078125 1083.441406 93.277344 L 1083.441406 1051.160156 C 1083.441406 1074.355469 1064.636719 1093.160156 1041.441406 1093.160156 L 83.558594 1093.160156 C 60.363281 1093.160156 41.558594 1074.355469 41.558594 1051.160156 L 41.558594 93.277344 C 41.558594 70.078125 60.363281 51.277344 83.558594 51.277344 Z M 83.558594 51.277344 " clip-rule="nonzero"/></clipPath><clipPath id="3f7bacf50e"><path d="M 136 1062 L 989 1062 L 989 1093.625 L 136 1093.625 Z M 136 1062 " clip-rule="nonzero"/></clipPath><clipPath id="2e5ac54b27"><path d="M 40.65625 92.375 L 40.65625 1052.0625 C 40.65625 1075.257812 59.460938 1094.0625 82.65625 1094.0625 L 1042.34375 1094.0625 C 1065.539062 1094.0625 1084.34375 1075.257812 1084.34375 1052.0625 L 1084.34375 92.375 C 1084.34375 69.179688 1065.539062 50.375 1042.34375 50.375 L 82.65625 50.375 C 59.460938 50.375 40.65625 69.179688 40.65625 92.375 Z M 40.65625 92.375 " clip-rule="nonzero"/></clipPath><clipPath id="b8e96cfa0c"><path d="M 83.558594 51.277344 L 1041.441406 51.277344 C 1064.636719 51.277344 1083.441406 70.078125 1083.441406 93.277344 L 1083.441406 1051.160156 C 1083.441406 1074.355469 1064.636719 1093.160156 1041.441406 1093.160156 L 83.558594 1093.160156 C 60.363281 1093.160156 41.558594 1074.355469 41.558594 1051.160156 L 41.558594 93.277344 C 41.558594 70.078125 60.363281 51.277344 83.558594 51.277344 Z M 83.558594 51.277344 " clip-rule="nonzero"/></clipPath><clipPath id="60b7fed54d"><path d="M 988 51.125 L 1083.90625 51.125 L 1083.90625 147 L 988 147 Z M 988 51.125 " clip-rule="nonzero"/></clipPath><clipPath id="af05b37c1e"><path d="M 40.65625 92.375 L 40.65625 1052.0625 C 40.65625 1075.257812 59.460938 1094.0625 82.65625 1094.0625 L 1042.34375 1094.0625 C 1065.539062 1094.0625 1084.34375 1075.257812 1084.34375 1052.0625 L 1084.34375 92.375 C 1084.34375 69.179688 1065.539062 50.375 1042.34375 50.375 L 82.65625 50.375 C 59.460938 50.375 40.65625 69.179688 40.65625 92.375 Z M 40.65625 92.375 " clip-rule="nonzero"/></clipPath><clipPath id="7f11d44159"><path d="M 83.558594 51.277344 L 1041.441406 51.277344 C 1064.636719 51.277344 1083.441406 70.078125 1083.441406 93.277344 L 1083.441406 1051.160156 C 1083.441406 1074.355469 1064.636719 1093.160156 1041.441406 1093.160156 L 83.558594 1093.160156 C 60.363281 1093.160156 41.558594 1074.355469 41.558594 1051.160156 L 41.558594 93.277344 C 41.558594 70.078125 60.363281 51.277344 83.558594 51.277344 Z M 83.558594 51.277344 " clip-rule="nonzero"/></clipPath><clipPath id="7e3e97809b"><path d="M 41.40625 51.125 L 137 51.125 L 137 147 L 41.40625 147 Z M 41.40625 51.125 " clip-rule="nonzero"/></clipPath><clipPath id="2c3f1ae68f"><path d="M 40.65625 92.375 L 40.65625 1052.0625 C 40.65625 1075.257812 59.460938 1094.0625 82.65625 1094.0625 L 1042.34375 1094.0625 C 1065.539062 1094.0625 1084.34375 1075.257812 1084.34375 1052.0625 L 1084.34375 92.375 C 1084.34375 69.179688 1065.539062 50.375 1042.34375 50.375 L 82.65625 50.375 C 59.460938 50.375 40.65625 69.179688 40.65625 92.375 Z M 40.65625 92.375 " clip-rule="nonzero"/></clipPath><clipPath id="d4a0aeb90e"><path d="M 83.558594 51.277344 L 1041.441406 51.277344 C 1064.636719 51.277344 1083.441406 70.078125 1083.441406 93.277344 L 1083.441406 1051.160156 C 1083.441406 1074.355469 1064.636719 1093.160156 1041.441406 1093.160156 L 83.558594 1093.160156 C 60.363281 1093.160156 41.558594 1074.355469 41.558594 1051.160156 L 41.558594 93.277344 C 41.558594 70.078125 60.363281 51.277344 83.558594 51.277344 Z M 83.558594 51.277344 " clip-rule="nonzero"/></clipPath><clipPath id="72911ca699"><path d="M 988 998 L 1083.90625 998 L 1083.90625 1093.625 L 988 1093.625 Z M 988 998 " clip-rule="nonzero"/></clipPath><clipPath id="2766cf5c06"><path d="M 40.65625 92.375 L 40.65625 1052.0625 C 40.65625 1075.257812 59.460938 1094.0625 82.65625 1094.0625 L 1042.34375 1094.0625 C 1065.539062 1094.0625 1084.34375 1075.257812 1084.34375 1052.0625 L 1084.34375 92.375 C 1084.34375 69.179688 1065.539062 50.375 1042.34375 50.375 L 82.65625 50.375 C 59.460938 50.375 40.65625 69.179688 40.65625 92.375 Z M 40.65625 92.375 " clip-rule="nonzero"/></clipPath><clipPath id="b5b01301ad"><path d="M 83.558594 51.277344 L 1041.441406 51.277344 C 1064.636719 51.277344 1083.441406 70.078125 1083.441406 93.277344 L 1083.441406 1051.160156 C 1083.441406 1074.355469 1064.636719 1093.160156 1041.441406 1093.160156 L 83.558594 1093.160156 C 60.363281 1093.160156 41.558594 1074.355469 41.558594 1051.160156 L 41.558594 93.277344 C 41.558594 70.078125 60.363281 51.277344 83.558594 51.277344 Z M 83.558594 51.277344 " clip-rule="nonzero"/></clipPath><clipPath id="0dd5497d46"><path d="M 41.40625 998 L 137 998 L 137 1093.625 L 41.40625 1093.625 Z M 41.40625 998 " clip-rule="nonzero"/></clipPath><clipPath id="b3b64b349d"><path d="M 40.65625 92.375 L 40.65625 1052.0625 C 40.65625 1075.257812 59.460938 1094.0625 82.65625 1094.0625 L 1042.34375 1094.0625 C 1065.539062 1094.0625 1084.34375 1075.257812 1084.34375 1052.0625 L 1084.34375 92.375 C 1084.34375 69.179688 1065.539062 50.375 1042.34375 50.375 L 82.65625 50.375 C 59.460938 50.375 40.65625 69.179688 40.65625 92.375 Z M 40.65625 92.375 " clip-rule="nonzero"/></clipPath><clipPath id="f45ea7239c"><path d="M 83.558594 51.277344 L 1041.441406 51.277344 C 1064.636719 51.277344 1083.441406 70.078125 1083.441406 93.277344 L 1083.441406 1051.160156 C 1083.441406 1074.355469 1064.636719 1093.160156 1041.441406 1093.160156 L 83.558594 1093.160156 C 60.363281 1093.160156 41.558594 1074.355469 41.558594 1051.160156 L 41.558594 93.277344 C 41.558594 70.078125 60.363281 51.277344 83.558594 51.277344 Z M 83.558594 51.277344 " clip-rule="nonzero"/></clipPath><clipPath id="39d952e96e"><path d="M 40.65625 50.375 L 1084.65625 50.375 L 1084.65625 1094.375 L 40.65625 1094.375 Z M 40.65625 50.375 " clip-rule="nonzero"/></clipPath><clipPath id="7e7026baae"><path d="M 40.65625 92.375 L 40.65625 1052.0625 C 40.65625 1075.257812 59.460938 1094.0625 82.65625 1094.0625 L 1042.34375 1094.0625 C 1065.539062 1094.0625 1084.34375 1075.257812 1084.34375 1052.0625 L 1084.34375 92.375 C 1084.34375 69.179688 1065.539062 50.375 1042.34375 50.375 L 82.65625 50.375 C 59.460938 50.375 40.65625 69.179688 40.65625 92.375 Z M 40.65625 92.375 " clip-rule="nonzero"/></clipPath><clipPath id="c0a7de8d4e"><path d="M 40.65625 92.375 L 40.65625 1052.058594 C 40.65625 1075.253906 59.460938 1094.058594 82.65625 1094.058594 L 1042.339844 1094.058594 C 1065.535156 1094.058594 1084.339844 1075.253906 1084.339844 1052.058594 L 1084.339844 92.375 C 1084.339844 69.179688 1065.535156 50.375 1042.339844 50.375 L 82.65625 50.375 C 59.460938 50.375 40.65625 69.179688 40.65625 92.375 Z M 40.65625 92.375 " clip-rule="nonzero"/></clipPath><clipPath id="a6fb6d97ec"><path d="M 315 343 L 939 343 L 939 1024.773438 L 315 1024.773438 Z M 315 343 " clip-rule="nonzero"/></clipPath><clipPath id="70f05f78ee"><path d="M 184.5 338 L 375 338 L 375 570 L 184.5 570 Z M 184.5 338 " clip-rule="nonzero"/></clipPath></defs><g clip-path="url(#b7e8be6921)"><g clip-path="url(#801868d05b)"><g clip-path="url(#c9106ea657)"><path fill="#fc6a1f" d="M 1053.15625 146.011719 L 1084.339844 146.011719 L 1084.339844 998.421875 L 1053.15625 998.421875 Z M 1053.15625 146.011719 " fill-opacity="1" fill-rule="nonzero"/></g></g></g><g clip-path="url(#c05af3c578)"><g clip-path="url(#bea484966c)"><g clip-path="url(#dd83a93c7c)"><path fill="#fc6a1f" d="M 40.65625 146.011719 L 71.84375 146.011719 L 71.84375 998.421875 L 40.65625 998.421875 Z M 40.65625 146.011719 " fill-opacity="1" fill-rule="nonzero"/></g></g></g><g clip-path="url(#91b97f0fbb)"><g clip-path="url(#9db620f1b0)"><g clip-path="url(#f4e81893b4)"><path fill="#fc6a1f" d="M 136.292969 50.375 L 988.703125 50.375 L 988.703125 81.5625 L 136.292969 81.5625 Z M 136.292969 50.375 " fill-opacity="1" fill-rule="nonzero"/></g></g></g><g clip-path="url(#3f7bacf50e)"><g clip-path="url(#2e5ac54b27)"><g clip-path="url(#b8e96cfa0c)"><path fill="#fc6a1f" d="M 136.292969 1062.875 L 988.703125 1062.875 L 988.703125 1094.058594 L 136.292969 1094.058594 Z M 136.292969 1062.875 " fill-opacity="1" fill-rule="nonzero"/></g></g></g><g clip-path="url(#60b7fed54d)"><g clip-path="url(#af05b37c1e)"><g clip-path="url(#7f11d44159)"><path fill="#fc6a1f" d="M 1053.15625 81.5625 L 1053.15625 146.011719 L 1084.339844 146.011719 L 1084.339844 50.375 L 988.703125 50.375 L 988.703125 81.5625 Z M 1053.15625 81.5625 " fill-opacity="1" fill-rule="nonzero"/></g></g></g><g clip-path="url(#7e3e97809b)"><g clip-path="url(#2c3f1ae68f)"><g clip-path="url(#d4a0aeb90e)"><path fill="#fc6a1f" d="M 71.84375 81.5625 L 136.292969 81.5625 L 136.292969 50.375 L 40.65625 50.375 L 40.65625 146.011719 L 71.84375 146.011719 Z M 71.84375 81.5625 " fill-opacity="1" fill-rule="nonzero"/></g></g></g><g clip-path="url(#72911ca699)"><g clip-path="url(#2766cf5c06)"><g clip-path="url(#b5b01301ad)"><path fill="#fc6a1f" d="M 1053.15625 1062.875 L 988.703125 1062.875 L 988.703125 1094.058594 L 1084.339844 1094.058594 L 1084.339844 998.421875 L 1053.15625 998.421875 Z M 1053.15625 1062.875 " fill-opacity="1" fill-rule="nonzero"/></g></g></g><g clip-path="url(#0dd5497d46)"><g clip-path="url(#b3b64b349d)"><g clip-path="url(#f45ea7239c)"><path fill="#fc6a1f" d="M 71.84375 1062.875 L 71.84375 998.421875 L 40.65625 998.421875 L 40.65625 1094.058594 L 136.292969 1094.058594 L 136.292969 1062.875 Z M 71.84375 1062.875 " fill-opacity="1" fill-rule="nonzero"/></g></g></g><g clip-path="url(#39d952e96e)"><g clip-path="url(#7e7026baae)"><g clip-path="url(#c0a7de8d4e)"><path stroke-linecap="butt" transform="matrix(0.75, 0, 0, 0.75, 40.657485, 50.375834)" fill="none" stroke-linejoin="miter" d="M -0.00164733 55.998893 L -0.00164733 1335.577128 C -0.00164733 1366.504214 25.071271 1391.577133 55.998357 1391.577133 L 1335.576593 1391.577133 C 1366.503679 1391.577133 1391.576597 1366.504214 1391.576597 1335.577128 L 1391.576597 55.998893 C 1391.576597 25.071807 1366.503679 -0.00111208 1335.576593 -0.00111208 L 55.998357 -0.00111208 C 25.071271 -0.00111208 -0.00164733 25.071807 -0.00164733 55.998893 Z M -0.00164733 55.998893 " stroke="#fc6a1f" stroke-width="66" stroke-opacity="1" stroke-miterlimit="4"/></g></g></g><path fill="#fc6a1f" d="M 783.214844 938.515625 C 704.183594 938.511719 630.601562 905.152344 582.792969 877.171875 C 527.378906 844.738281 480.300781 799.859375 446.644531 747.382812 C 442.433594 740.816406 444.34375 732.082031 450.90625 727.871094 C 457.472656 723.664062 466.207031 725.570312 470.417969 732.136719 C 501.679688 780.878906 545.472656 822.605469 597.058594 852.796875 C 641.855469 879.015625 710.515625 910.269531 783.214844 910.273438 C 791.015625 910.273438 797.335938 916.597656 797.335938 924.394531 C 797.335938 932.195312 791.011719 938.515625 783.214844 938.515625 Z M 783.214844 938.515625 " fill-opacity="1" fill-rule="nonzero"/><g clip-path="url(#a6fb6d97ec)"><path fill="#fc6a1f" d="M 783.238281 1024.871094 C 742.488281 1024.871094 700.285156 1018.125 657.449219 1004.738281 C 618.058594 992.425781 578.261719 974.582031 539.171875 951.699219 C 505.832031 932.1875 474.90625 908.953125 447.253906 882.640625 C 419.242188 855.988281 394.582031 826.167969 373.953125 794.007812 C 331.066406 727.144531 311.777344 661.046875 316.617188 597.554688 C 320.113281 551.679688 335.976562 508.148438 363.761719 468.171875 C 368.214844 461.765625 377.015625 460.183594 383.417969 464.636719 C 389.820312 469.085938 391.40625 477.886719 386.953125 484.289062 C 344.695312 545.082031 312.265625 645.519531 397.726562 778.761719 C 436.304688 838.910156 490.148438 890.285156 553.4375 927.328125 C 608.671875 959.660156 691.847656 996.625 783.296875 996.628906 C 790.226562 996.628906 797.1875 996.417969 804.203125 995.972656 C 841.035156 993.652344 873.890625 970.257812 887.90625 936.375 C 903.632812 898.367188 919.277344 826.523438 904.503906 700.121094 C 892.890625 600.769531 869.363281 520.777344 834.574219 462.367188 C 800.429688 405.042969 762.65625 381.136719 736.980469 371.179688 C 729.710938 368.359375 726.101562 360.179688 728.921875 352.910156 C 731.742188 345.640625 739.921875 342.03125 747.195312 344.851562 C 777.007812 356.414062 820.578125 383.679688 858.835938 447.914062 C 895.675781 509.765625 920.480469 593.515625 932.554688 696.84375 C 939.308594 754.644531 940.515625 806.597656 936.136719 851.261719 C 932.519531 888.152344 925.070312 920.421875 914.003906 947.171875 C 905.042969 968.832031 890.175781 987.488281 871.003906 1001.125 C 851.890625 1014.71875 829.40625 1022.683594 805.980469 1024.160156 C 798.457031 1024.632812 790.871094 1024.871094 783.238281 1024.871094 Z M 783.238281 1024.871094 " fill-opacity="1" fill-rule="nonzero"/></g><path fill="#fc6a1f" d="M 659.609375 785.003906 C 658.515625 785.003906 657.402344 784.875 656.289062 784.609375 C 648.707031 782.78125 644.042969 775.152344 645.871094 767.570312 C 654.804688 730.515625 641.972656 696.199219 628.382812 659.867188 C 614.183594 621.894531 599.503906 582.632812 610.367188 539.078125 C 622.71875 489.566406 653.371094 451.722656 683.015625 415.121094 C 710.691406 380.949219 736.832031 348.671875 748.820312 307.882812 C 752.933594 293.886719 749.417969 278.742188 739.644531 268.363281 C 739.246094 267.9375 738.832031 267.511719 738.410156 267.085938 C 725.121094 253.753906 703.875 251.5625 687.890625 261.875 C 659.089844 280.457031 603.394531 327.371094 553.992188 432.796875 C 525.613281 493.363281 497.210938 539.292969 469.582031 569.3125 C 447.367188 593.445312 431.507812 600.8125 424.03125 603.054688 C 416.5625 605.292969 408.691406 601.054688 406.449219 593.585938 C 404.207031 586.117188 408.449219 578.242188 415.917969 576.003906 C 417.207031 575.617188 429.085938 571.605469 448.800781 550.183594 C 474.476562 522.292969 501.265625 478.765625 528.417969 420.816406 C 580.816406 308.996094 641.230469 258.367188 672.578125 238.144531 C 685.714844 229.671875 701.511719 225.886719 717.058594 227.484375 C 732.691406 229.09375 747.375 236.074219 758.410156 247.144531 C 759.019531 247.757812 759.617188 248.375 760.203125 248.996094 C 776.824219 266.652344 782.84375 292.265625 775.914062 315.847656 C 762.335938 362.058594 733.167969 398.070312 704.960938 432.894531 C 675.980469 468.679688 648.605469 502.476562 637.769531 545.914062 C 629.027344 580.957031 641.5625 614.480469 654.835938 649.972656 C 669.316406 688.691406 684.285156 728.722656 673.328125 774.1875 C 671.765625 780.660156 665.984375 785.003906 659.609375 785.003906 Z M 659.609375 785.003906 " fill-opacity="1" fill-rule="nonzero"/><path fill="#fc6a1f" d="M 781.40625 588.675781 C 777.265625 588.675781 773.160156 586.859375 770.371094 583.375 C 735.042969 539.207031 679.210938 520.167969 638.597656 511.96875 C 630.953125 510.425781 626.007812 502.976562 627.550781 495.332031 C 629.09375 487.6875 636.542969 482.742188 644.1875 484.285156 C 670.832031 489.664062 695.613281 497.78125 717.847656 508.410156 C 748.707031 523.164062 773.800781 542.449219 792.425781 565.734375 C 797.296875 571.824219 796.308594 580.710938 790.21875 585.582031 C 787.617188 587.664062 784.5 588.675781 781.40625 588.675781 Z M 781.40625 588.675781 " fill-opacity="1" fill-rule="nonzero"/><path fill="#fc6a1f" d="M 450.066406 583.171875 C 446.878906 583.171875 443.671875 582.097656 441.03125 579.898438 C 404.5 549.429688 378.074219 516.507812 362.492188 482.046875 C 342.292969 437.386719 344.082031 398.152344 349.136719 373.105469 C 352.363281 357.117188 357.308594 344.660156 360.960938 336.90625 L 322.210938 286.785156 C 317.675781 280.917969 318.449219 272.542969 323.980469 267.609375 L 371.253906 225.445312 C 374.195312 222.824219 378.097656 221.550781 382.023438 221.929688 C 385.945312 222.3125 389.53125 224.316406 391.910156 227.460938 L 429.863281 277.578125 L 449.585938 263.34375 L 421.074219 211.25 C 419.195312 207.8125 418.824219 203.753906 420.054688 200.035156 C 421.285156 196.316406 424.003906 193.277344 427.5625 191.640625 L 485.90625 164.808594 C 492.691406 161.6875 500.738281 164.394531 504.257812 170.984375 L 531.175781 221.351562 L 550.234375 212.808594 L 528.105469 161.089844 C 526.570312 157.496094 526.585938 153.429688 528.160156 149.851562 C 529.730469 146.277344 532.714844 143.511719 536.398438 142.214844 L 593.953125 121.949219 C 600.820312 119.535156 608.390625 122.726562 611.453125 129.324219 L 638.203125 186.972656 C 650.84375 192.429688 680.796875 207.855469 700.082031 238.191406 C 704.269531 244.773438 702.324219 253.5 695.746094 257.683594 C 689.164062 261.867188 680.4375 259.925781 676.25 253.34375 C 657.261719 223.480469 623.503906 211.480469 623.164062 211.363281 C 619.515625 210.121094 616.570312 207.453125 614.949219 203.953125 L 591.234375 152.847656 L 560 163.84375 L 581.65625 214.460938 C 584.6875 221.542969 581.480469 229.746094 574.453125 232.898438 L 530.710938 252.511719 C 523.941406 255.550781 515.976562 252.828125 512.480469 246.285156 L 485.621094 196.027344 L 453.117188 210.972656 L 480.34375 260.71875 C 483.761719 266.96875 481.996094 274.78125 476.21875 278.949219 L 435.199219 308.554688 C 428.980469 313.042969 420.3125 311.746094 415.679688 305.628906 L 378.632812 256.707031 L 352.601562 279.921875 L 388.84375 326.796875 C 392.488281 331.511719 392.84375 337.910156 389.636719 342.929688 C 389.226562 343.605469 380.886719 357.585938 376.585938 379.878906 C 370.769531 410.015625 374.6875 440.476562 388.222656 470.410156 C 402.035156 500.957031 425.886719 530.496094 459.117188 558.207031 C 465.109375 563.203125 465.914062 572.105469 460.917969 578.097656 C 458.128906 581.445312 454.113281 583.171875 450.066406 583.171875 Z M 450.066406 583.171875 " fill-opacity="1" fill-rule="nonzero"/><g clip-path="url(#70f05f78ee)"><path fill="#fc6a1f" d="M 239.285156 569.386719 C 236.828125 569.386719 234.363281 568.746094 232.160156 567.457031 C 190.230469 542.9375 185.191406 498.023438 184.996094 496.125 C 184.5 491.265625 186.550781 486.496094 190.414062 483.511719 C 203.84375 473.144531 219.261719 465.242188 233.753906 459.332031 C 209.027344 448.773438 195.441406 435.4375 194.566406 434.5625 C 192.113281 432.113281 190.648438 428.839844 190.453125 425.378906 C 187.636719 375.644531 211.976562 344.632812 213.015625 343.339844 C 217.308594 337.972656 224.84375 336.480469 230.859375 339.800781 C 271.714844 362.347656 315.710938 375.695312 361.617188 379.46875 C 369.390625 380.109375 375.171875 386.929688 374.535156 394.703125 C 373.894531 402.472656 367.082031 408.25 359.304688 407.617188 C 313.832031 403.875 270.105469 391.511719 229.132812 370.820312 C 224.308594 380.398438 218.351562 396.574219 218.464844 417.921875 C 227.640625 425.136719 252.359375 441.554688 289.46875 443.738281 C 296.644531 444.160156 302.359375 449.90625 302.742188 457.082031 C 303.121094 464.261719 298.050781 470.582031 290.960938 471.761719 C 290.507812 471.839844 247.234375 479.328125 214.730469 500.828125 C 215.613281 503.992188 216.933594 507.917969 218.878906 512.175781 C 223.847656 523.035156 230.875 531.921875 239.816406 538.679688 C 257.367188 529.207031 300.949219 509.085938 348.699219 512.773438 C 356.042969 513.269531 361.851562 519.386719 361.851562 526.859375 C 361.851562 534.660156 355.535156 540.980469 347.734375 540.980469 L 347.730469 540.980469 C 347.363281 540.980469 346.996094 540.96875 346.628906 540.9375 C 295.136719 536.910156 247.339844 566.878906 246.863281 567.183594 C 244.554688 568.648438 241.921875 569.386719 239.285156 569.386719 Z M 239.285156 569.386719 " fill-opacity="1" fill-rule="nonzero"/></g></svg>