<svg xmlns="http://www.w3.org/2000/svg" xmlns:xlink="http://www.w3.org/1999/xlink" width="1500" zoomAndPan="magnify" viewBox="0 0 1125 1124.99995" height="1500" preserveAspectRatio="xMidYMid meet" version="1.0"><defs><clipPath id="ef47960398"><path d="M 576 101.777344 L 1022 101.777344 L 1022 547 L 576 547 Z M 576 101.777344 " clip-rule="nonzero"/></clipPath><clipPath id="8a81bdca18"><path d="M 1053 146 L 1083.90625 146 L 1083.90625 999 L 1053 999 Z M 1053 146 " clip-rule="nonzero"/></clipPath><clipPath id="0ebd867ec6"><path d="M 40.65625 92.375 L 40.65625 1052.0625 C 40.65625 1075.257812 59.460938 1094.0625 82.65625 1094.0625 L 1042.34375 1094.0625 C 1065.539062 1094.0625 1084.34375 1075.257812 1084.34375 1052.0625 L 1084.34375 92.375 C 1084.34375 69.179688 1065.539062 50.375 1042.34375 50.375 L 82.65625 50.375 C 59.460938 50.375 40.65625 69.179688 40.65625 92.375 Z M 40.65625 92.375 " clip-rule="nonzero"/></clipPath><clipPath id="d97bb6e1c2"><path d="M 83.558594 51.277344 L 1041.441406 51.277344 C 1064.636719 51.277344 1083.441406 70.082031 1083.441406 93.277344 L 1083.441406 1051.160156 C 1083.441406 1074.355469 1064.636719 1093.160156 1041.441406 1093.160156 L 83.558594 1093.160156 C 60.363281 1093.160156 41.558594 1074.355469 41.558594 1051.160156 L 41.558594 93.277344 C 41.558594 70.082031 60.363281 51.277344 83.558594 51.277344 Z M 83.558594 51.277344 " clip-rule="nonzero"/></clipPath><clipPath id="dc8302fdc5"><path d="M 41.40625 146 L 72 146 L 72 999 L 41.40625 999 Z M 41.40625 146 " clip-rule="nonzero"/></clipPath><clipPath id="c5655bdf25"><path d="M 40.65625 92.375 L 40.65625 1052.0625 C 40.65625 1075.257812 59.460938 1094.0625 82.65625 1094.0625 L 1042.34375 1094.0625 C 1065.539062 1094.0625 1084.34375 1075.257812 1084.34375 1052.0625 L 1084.34375 92.375 C 1084.34375 69.179688 1065.539062 50.375 1042.34375 50.375 L 82.65625 50.375 C 59.460938 50.375 40.65625 69.179688 40.65625 92.375 Z M 40.65625 92.375 " clip-rule="nonzero"/></clipPath><clipPath id="3add4f2797"><path d="M 83.558594 51.277344 L 1041.441406 51.277344 C 1064.636719 51.277344 1083.441406 70.082031 1083.441406 93.277344 L 1083.441406 1051.160156 C 1083.441406 1074.355469 1064.636719 1093.160156 1041.441406 1093.160156 L 83.558594 1093.160156 C 60.363281 1093.160156 41.558594 1074.355469 41.558594 1051.160156 L 41.558594 93.277344 C 41.558594 70.082031 60.363281 51.277344 83.558594 51.277344 Z M 83.558594 51.277344 " clip-rule="nonzero"/></clipPath><clipPath id="35abc0c963"><path d="M 136 51.125 L 989 51.125 L 989 82 L 136 82 Z M 136 51.125 " clip-rule="nonzero"/></clipPath><clipPath id="0edf2851ac"><path d="M 40.65625 92.375 L 40.65625 1052.0625 C 40.65625 1075.257812 59.460938 1094.0625 82.65625 1094.0625 L 1042.34375 1094.0625 C 1065.539062 1094.0625 1084.34375 1075.257812 1084.34375 1052.0625 L 1084.34375 92.375 C 1084.34375 69.179688 1065.539062 50.375 1042.34375 50.375 L 82.65625 50.375 C 59.460938 50.375 40.65625 69.179688 40.65625 92.375 Z M 40.65625 92.375 " clip-rule="nonzero"/></clipPath><clipPath id="e71d807837"><path d="M 83.558594 51.277344 L 1041.441406 51.277344 C 1064.636719 51.277344 1083.441406 70.082031 1083.441406 93.277344 L 1083.441406 1051.160156 C 1083.441406 1074.355469 1064.636719 1093.160156 1041.441406 1093.160156 L 83.558594 1093.160156 C 60.363281 1093.160156 41.558594 1074.355469 41.558594 1051.160156 L 41.558594 93.277344 C 41.558594 70.082031 60.363281 51.277344 83.558594 51.277344 Z M 83.558594 51.277344 " clip-rule="nonzero"/></clipPath><clipPath id="c6d9e3aa9c"><path d="M 136 1062 L 989 1062 L 989 1093.625 L 136 1093.625 Z M 136 1062 " clip-rule="nonzero"/></clipPath><clipPath id="5b992ad532"><path d="M 40.65625 92.375 L 40.65625 1052.0625 C 40.65625 1075.257812 59.460938 1094.0625 82.65625 1094.0625 L 1042.34375 1094.0625 C 1065.539062 1094.0625 1084.34375 1075.257812 1084.34375 1052.0625 L 1084.34375 92.375 C 1084.34375 69.179688 1065.539062 50.375 1042.34375 50.375 L 82.65625 50.375 C 59.460938 50.375 40.65625 69.179688 40.65625 92.375 Z M 40.65625 92.375 " clip-rule="nonzero"/></clipPath><clipPath id="385a31c721"><path d="M 83.558594 51.277344 L 1041.441406 51.277344 C 1064.636719 51.277344 1083.441406 70.082031 1083.441406 93.277344 L 1083.441406 1051.160156 C 1083.441406 1074.355469 1064.636719 1093.160156 1041.441406 1093.160156 L 83.558594 1093.160156 C 60.363281 1093.160156 41.558594 1074.355469 41.558594 1051.160156 L 41.558594 93.277344 C 41.558594 70.082031 60.363281 51.277344 83.558594 51.277344 Z M 83.558594 51.277344 " clip-rule="nonzero"/></clipPath><clipPath id="e64c88f5bb"><path d="M 988 51.125 L 1083.90625 51.125 L 1083.90625 147 L 988 147 Z M 988 51.125 " clip-rule="nonzero"/></clipPath><clipPath id="7edc44782d"><path d="M 40.65625 92.375 L 40.65625 1052.0625 C 40.65625 1075.257812 59.460938 1094.0625 82.65625 1094.0625 L 1042.34375 1094.0625 C 1065.539062 1094.0625 1084.34375 1075.257812 1084.34375 1052.0625 L 1084.34375 92.375 C 1084.34375 69.179688 1065.539062 50.375 1042.34375 50.375 L 82.65625 50.375 C 59.460938 50.375 40.65625 69.179688 40.65625 92.375 Z M 40.65625 92.375 " clip-rule="nonzero"/></clipPath><clipPath id="c6f88105f3"><path d="M 83.558594 51.277344 L 1041.441406 51.277344 C 1064.636719 51.277344 1083.441406 70.082031 1083.441406 93.277344 L 1083.441406 1051.160156 C 1083.441406 1074.355469 1064.636719 1093.160156 1041.441406 1093.160156 L 83.558594 1093.160156 C 60.363281 1093.160156 41.558594 1074.355469 41.558594 1051.160156 L 41.558594 93.277344 C 41.558594 70.082031 60.363281 51.277344 83.558594 51.277344 Z M 83.558594 51.277344 " clip-rule="nonzero"/></clipPath><clipPath id="a3a1ad28a0"><path d="M 41.40625 51.125 L 137 51.125 L 137 147 L 41.40625 147 Z M 41.40625 51.125 " clip-rule="nonzero"/></clipPath><clipPath id="76c2c6ae2f"><path d="M 40.65625 92.375 L 40.65625 1052.0625 C 40.65625 1075.257812 59.460938 1094.0625 82.65625 1094.0625 L 1042.34375 1094.0625 C 1065.539062 1094.0625 1084.34375 1075.257812 1084.34375 1052.0625 L 1084.34375 92.375 C 1084.34375 69.179688 1065.539062 50.375 1042.34375 50.375 L 82.65625 50.375 C 59.460938 50.375 40.65625 69.179688 40.65625 92.375 Z M 40.65625 92.375 " clip-rule="nonzero"/></clipPath><clipPath id="8608dab3ee"><path d="M 83.558594 51.277344 L 1041.441406 51.277344 C 1064.636719 51.277344 1083.441406 70.082031 1083.441406 93.277344 L 1083.441406 1051.160156 C 1083.441406 1074.355469 1064.636719 1093.160156 1041.441406 1093.160156 L 83.558594 1093.160156 C 60.363281 1093.160156 41.558594 1074.355469 41.558594 1051.160156 L 41.558594 93.277344 C 41.558594 70.082031 60.363281 51.277344 83.558594 51.277344 Z M 83.558594 51.277344 " clip-rule="nonzero"/></clipPath><clipPath id="d514ff45e1"><path d="M 988 998 L 1083.90625 998 L 1083.90625 1093.625 L 988 1093.625 Z M 988 998 " clip-rule="nonzero"/></clipPath><clipPath id="fe8e8b58d5"><path d="M 40.65625 92.375 L 40.65625 1052.0625 C 40.65625 1075.257812 59.460938 1094.0625 82.65625 1094.0625 L 1042.34375 1094.0625 C 1065.539062 1094.0625 1084.34375 1075.257812 1084.34375 1052.0625 L 1084.34375 92.375 C 1084.34375 69.179688 1065.539062 50.375 1042.34375 50.375 L 82.65625 50.375 C 59.460938 50.375 40.65625 69.179688 40.65625 92.375 Z M 40.65625 92.375 " clip-rule="nonzero"/></clipPath><clipPath id="d04e478538"><path d="M 83.558594 51.277344 L 1041.441406 51.277344 C 1064.636719 51.277344 1083.441406 70.082031 1083.441406 93.277344 L 1083.441406 1051.160156 C 1083.441406 1074.355469 1064.636719 1093.160156 1041.441406 1093.160156 L 83.558594 1093.160156 C 60.363281 1093.160156 41.558594 1074.355469 41.558594 1051.160156 L 41.558594 93.277344 C 41.558594 70.082031 60.363281 51.277344 83.558594 51.277344 Z M 83.558594 51.277344 " clip-rule="nonzero"/></clipPath><clipPath id="eadf8dbe9f"><path d="M 41.40625 998 L 137 998 L 137 1093.625 L 41.40625 1093.625 Z M 41.40625 998 " clip-rule="nonzero"/></clipPath><clipPath id="45fbfcc7c6"><path d="M 40.65625 92.375 L 40.65625 1052.0625 C 40.65625 1075.257812 59.460938 1094.0625 82.65625 1094.0625 L 1042.34375 1094.0625 C 1065.539062 1094.0625 1084.34375 1075.257812 1084.34375 1052.0625 L 1084.34375 92.375 C 1084.34375 69.179688 1065.539062 50.375 1042.34375 50.375 L 82.65625 50.375 C 59.460938 50.375 40.65625 69.179688 40.65625 92.375 Z M 40.65625 92.375 " clip-rule="nonzero"/></clipPath><clipPath id="a258361793"><path d="M 83.558594 51.277344 L 1041.441406 51.277344 C 1064.636719 51.277344 1083.441406 70.082031 1083.441406 93.277344 L 1083.441406 1051.160156 C 1083.441406 1074.355469 1064.636719 1093.160156 1041.441406 1093.160156 L 83.558594 1093.160156 C 60.363281 1093.160156 41.558594 1074.355469 41.558594 1051.160156 L 41.558594 93.277344 C 41.558594 70.082031 60.363281 51.277344 83.558594 51.277344 Z M 83.558594 51.277344 " clip-rule="nonzero"/></clipPath><clipPath id="678f4566c9"><path d="M 40.65625 50.375 L 1084.65625 50.375 L 1084.65625 1094.375 L 40.65625 1094.375 Z M 40.65625 50.375 " clip-rule="nonzero"/></clipPath><clipPath id="45fb532c9c"><path d="M 40.65625 92.375 L 40.65625 1052.0625 C 40.65625 1075.257812 59.460938 1094.0625 82.65625 1094.0625 L 1042.34375 1094.0625 C 1065.539062 1094.0625 1084.34375 1075.257812 1084.34375 1052.0625 L 1084.34375 92.375 C 1084.34375 69.179688 1065.539062 50.375 1042.34375 50.375 L 82.65625 50.375 C 59.460938 50.375 40.65625 69.179688 40.65625 92.375 Z M 40.65625 92.375 " clip-rule="nonzero"/></clipPath><clipPath id="b63f3078bf"><path d="M 40.65625 92.375 L 40.65625 1052.058594 C 40.65625 1075.253906 59.460938 1094.058594 82.65625 1094.058594 L 1042.339844 1094.058594 C 1065.535156 1094.058594 1084.339844 1075.253906 1084.339844 1052.058594 L 1084.339844 92.375 C 1084.339844 69.179688 1065.535156 50.375 1042.339844 50.375 L 82.65625 50.375 C 59.460938 50.375 40.65625 69.179688 40.65625 92.375 Z M 40.65625 92.375 " clip-rule="nonzero"/></clipPath></defs><path fill="#fc6a1f" d="M 911.605469 546.613281 C 904.15625 545.835938 897.066406 551.128906 896.152344 558.773438 C 873.109375 751.570312 812.625 966.53125 712 991.671875 C 696.019531 995.675781 682.980469 988.921875 674.851562 982.570312 C 657.519531 969.046875 645.886719 944.613281 645.886719 921.765625 L 645.886719 796.683594 C 645.886719 760.824219 630.335938 726.59375 603.234375 702.730469 C 602.164062 701.785156 600.96875 701.0625 599.730469 700.535156 C 577.410156 681.980469 549.394531 671.738281 520.191406 671.597656 C 491.1875 671.738281 463.253906 681.925781 440.972656 700.382812 C 439.640625 700.953125 438.386719 701.730469 437.277344 702.714844 C 410.160156 726.59375 394.609375 760.824219 394.609375 796.683594 L 394.609375 921.765625 C 394.609375 944.390625 383.558594 967.851562 366.464844 981.539062 C 358.183594 988.183594 344.828125 995.3125 328.164062 991.589844 C 215.683594 966.378906 131.65625 677.117188 131.65625 435.332031 C 131.65625 320.378906 224.675781 226.859375 339.015625 226.859375 C 406.257812 226.859375 469.769531 259.742188 508.921875 314.820312 C 511.535156 318.503906 516.039062 321.15625 520.277344 320.671875 C 524.792969 320.65625 529.019531 318.460938 531.601562 314.765625 C 536.605469 307.648438 542.039062 300.949219 547.753906 294.875 C 553.007812 289.277344 552.714844 280.476562 547.128906 275.226562 C 541.539062 269.984375 532.742188 270.25 527.476562 275.851562 C 525.015625 278.476562 522.597656 281.199219 520.234375 284.007812 C 475.511719 230.5 409.050781 199.050781 339.015625 199.050781 C 209.347656 199.0625 103.859375 305.050781 103.859375 435.332031 C 103.859375 653.769531 181.566406 987.210938 322.074219 1018.71875 C 343.4375 1023.511719 365.382812 1018.023438 383.824219 1003.25 C 407.257812 984.488281 422.390625 952.507812 422.390625 921.777344 L 422.390625 796.695312 C 422.390625 770.34375 433.21875 745.078125 452.257812 726.691406 C 453.453125 726.121094 454.578125 725.382812 455.59375 724.46875 C 473.398438 708.414062 496.386719 699.519531 520.164062 699.410156 C 544.082031 699.519531 567.058594 708.414062 584.875 724.46875 C 585.863281 725.34375 586.929688 726.050781 588.070312 726.566406 C 607.207031 744.953125 618.089844 770.261719 618.089844 796.683594 L 618.089844 921.765625 C 618.089844 953.203125 633.65625 985.667969 657.757812 1004.472656 C 671.40625 1015.132812 686.859375 1020.648438 702.464844 1020.648438 C 707.902344 1020.648438 713.347656 1019.984375 718.753906 1018.636719 C 862.613281 982.667969 912.035156 660.078125 923.753906 562.054688 C 924.667969 554.4375 919.222656 547.53125 911.605469 546.613281 Z M 911.605469 546.613281 " fill-opacity="1" fill-rule="nonzero"/><g clip-path="url(#ef47960398)"><path fill="#fc6a1f" d="M 798.765625 101.777344 C 676.15625 101.777344 576.398438 201.535156 576.398438 324.144531 C 576.398438 446.753906 676.15625 546.515625 798.765625 546.515625 C 921.375 546.515625 1021.136719 446.753906 1021.136719 324.144531 C 1021.136719 201.535156 921.375 101.777344 798.765625 101.777344 Z M 798.765625 518.71875 C 691.472656 518.71875 604.191406 431.441406 604.191406 324.144531 C 604.191406 216.851562 691.472656 129.574219 798.765625 129.574219 C 906.058594 129.574219 993.339844 216.851562 993.339844 324.144531 C 993.339844 431.441406 906.058594 518.71875 798.765625 518.71875 Z M 798.765625 518.71875 " fill-opacity="1" fill-rule="nonzero"/></g><path fill="#fc6a1f" d="M 937.746094 268.554688 L 854.359375 268.554688 L 854.359375 185.164062 C 854.359375 177.492188 848.132812 171.265625 840.460938 171.265625 L 757.074219 171.265625 C 749.402344 171.265625 743.175781 177.492188 743.175781 185.164062 L 743.175781 268.554688 L 659.785156 268.554688 C 652.113281 268.554688 645.886719 274.78125 645.886719 282.453125 L 645.886719 365.839844 C 645.886719 373.511719 652.113281 379.738281 659.785156 379.738281 L 743.175781 379.738281 L 743.175781 463.128906 C 743.175781 470.800781 749.402344 477.023438 757.074219 477.023438 L 840.460938 477.023438 C 848.132812 477.023438 854.359375 470.800781 854.359375 463.128906 L 854.359375 379.738281 L 937.746094 379.738281 C 945.417969 379.738281 951.644531 373.511719 951.644531 365.839844 L 951.644531 282.453125 C 951.644531 274.78125 945.417969 268.554688 937.746094 268.554688 Z M 923.851562 351.941406 L 840.460938 351.941406 C 832.789062 351.941406 826.5625 358.167969 826.5625 365.839844 L 826.5625 449.230469 L 770.96875 449.230469 L 770.96875 365.839844 C 770.96875 358.167969 764.742188 351.941406 757.074219 351.941406 L 673.683594 351.941406 L 673.683594 296.351562 L 757.074219 296.351562 C 764.742188 296.351562 770.96875 290.125 770.96875 282.453125 L 770.96875 199.0625 L 826.5625 199.0625 L 826.5625 282.453125 C 826.5625 290.125 832.789062 296.351562 840.460938 296.351562 L 923.851562 296.351562 Z M 923.851562 351.941406 " fill-opacity="1" fill-rule="nonzero"/><path fill="#fc6a1f" d="M 159.453125 435.332031 C 159.453125 443.003906 165.679688 449.230469 173.351562 449.230469 C 181.023438 449.230469 187.25 443.003906 187.25 435.332031 C 187.25 351.039062 255.835938 282.453125 340.128906 282.453125 C 347.800781 282.453125 354.027344 276.226562 354.027344 268.554688 C 354.027344 260.882812 347.800781 254.65625 340.128906 254.65625 C 240.507812 254.65625 159.453125 335.710938 159.453125 435.332031 Z M 159.453125 435.332031 " fill-opacity="1" fill-rule="nonzero"/><g clip-path="url(#8a81bdca18)"><g clip-path="url(#0ebd867ec6)"><g clip-path="url(#d97bb6e1c2)"><path fill="#fc6a1f" d="M 1053.15625 146.011719 L 1084.339844 146.011719 L 1084.339844 998.421875 L 1053.15625 998.421875 Z M 1053.15625 146.011719 " fill-opacity="1" fill-rule="nonzero"/></g></g></g><g clip-path="url(#dc8302fdc5)"><g clip-path="url(#c5655bdf25)"><g clip-path="url(#3add4f2797)"><path fill="#fc6a1f" d="M 40.65625 146.011719 L 71.84375 146.011719 L 71.84375 998.421875 L 40.65625 998.421875 Z M 40.65625 146.011719 " fill-opacity="1" fill-rule="nonzero"/></g></g></g><g clip-path="url(#35abc0c963)"><g clip-path="url(#0edf2851ac)"><g clip-path="url(#e71d807837)"><path fill="#fc6a1f" d="M 136.292969 50.375 L 988.703125 50.375 L 988.703125 81.5625 L 136.292969 81.5625 Z M 136.292969 50.375 " fill-opacity="1" fill-rule="nonzero"/></g></g></g><g clip-path="url(#c6d9e3aa9c)"><g clip-path="url(#5b992ad532)"><g clip-path="url(#385a31c721)"><path fill="#fc6a1f" d="M 136.292969 1062.875 L 988.703125 1062.875 L 988.703125 1094.058594 L 136.292969 1094.058594 Z M 136.292969 1062.875 " fill-opacity="1" fill-rule="nonzero"/></g></g></g><g clip-path="url(#e64c88f5bb)"><g clip-path="url(#7edc44782d)"><g clip-path="url(#c6f88105f3)"><path fill="#fc6a1f" d="M 1053.15625 81.5625 L 1053.15625 146.011719 L 1084.339844 146.011719 L 1084.339844 50.375 L 988.703125 50.375 L 988.703125 81.5625 Z M 1053.15625 81.5625 " fill-opacity="1" fill-rule="nonzero"/></g></g></g><g clip-path="url(#a3a1ad28a0)"><g clip-path="url(#76c2c6ae2f)"><g clip-path="url(#8608dab3ee)"><path fill="#fc6a1f" d="M 71.84375 81.5625 L 136.292969 81.5625 L 136.292969 50.375 L 40.65625 50.375 L 40.65625 146.011719 L 71.84375 146.011719 Z M 71.84375 81.5625 " fill-opacity="1" fill-rule="nonzero"/></g></g></g><g clip-path="url(#d514ff45e1)"><g clip-path="url(#fe8e8b58d5)"><g clip-path="url(#d04e478538)"><path fill="#fc6a1f" d="M 1053.15625 1062.875 L 988.703125 1062.875 L 988.703125 1094.058594 L 1084.339844 1094.058594 L 1084.339844 998.421875 L 1053.15625 998.421875 Z M 1053.15625 1062.875 " fill-opacity="1" fill-rule="nonzero"/></g></g></g><g clip-path="url(#eadf8dbe9f)"><g clip-path="url(#45fbfcc7c6)"><g clip-path="url(#a258361793)"><path fill="#fc6a1f" d="M 71.84375 1062.875 L 71.84375 998.421875 L 40.65625 998.421875 L 40.65625 1094.058594 L 136.292969 1094.058594 L 136.292969 1062.875 Z M 71.84375 1062.875 " fill-opacity="1" fill-rule="nonzero"/></g></g></g><g clip-path="url(#678f4566c9)"><g clip-path="url(#45fb532c9c)"><g clip-path="url(#b63f3078bf)"><path stroke-linecap="butt" transform="matrix(0.75, 0, 0, 0.75, 40.657485, 50.376069)" fill="none" stroke-linejoin="miter" d="M -0.00164733 55.998579 L -0.00164733 1335.576814 C -0.00164733 1366.5039 25.071271 1391.576819 55.998357 1391.576819 L 1335.576593 1391.576819 C 1366.503679 1391.576819 1391.576597 1366.5039 1391.576597 1335.576814 L 1391.576597 55.998579 C 1391.576597 25.071493 1366.503679 -0.00142568 1335.576593 -0.00142568 L 55.998357 -0.00142568 C 25.071271 -0.00142568 -0.00164733 25.071493 -0.00164733 55.998579 Z M -0.00164733 55.998579 " stroke="#fc6a1f" stroke-width="66" stroke-opacity="1" stroke-miterlimit="4"/></g></g></g></svg>