<svg xmlns="http://www.w3.org/2000/svg" xmlns:xlink="http://www.w3.org/1999/xlink" width="1500" zoomAndPan="magnify" viewBox="0 0 1125 1124.99995" height="1500" preserveAspectRatio="xMidYMid meet" version="1.0"><defs><clipPath id="173e519511"><path d="M 163.644531 124.199219 L 961.644531 124.199219 L 961.644531 1000.949219 L 163.644531 1000.949219 Z M 163.644531 124.199219 " clip-rule="nonzero"/></clipPath><clipPath id="e59b742d73"><path d="M 1053 146 L 1083.90625 146 L 1083.90625 999 L 1053 999 Z M 1053 146 " clip-rule="nonzero"/></clipPath><clipPath id="78a7ab36c3"><path d="M 40.65625 92.375 L 40.65625 1052.0625 C 40.65625 1075.257812 59.460938 1094.0625 82.65625 1094.0625 L 1042.34375 1094.0625 C 1065.539062 1094.0625 1084.34375 1075.257812 1084.34375 1052.0625 L 1084.34375 92.375 C 1084.34375 69.179688 1065.539062 50.375 1042.34375 50.375 L 82.65625 50.375 C 59.460938 50.375 40.65625 69.179688 40.65625 92.375 Z M 40.65625 92.375 " clip-rule="nonzero"/></clipPath><clipPath id="52f209c14d"><path d="M 83.558594 51.277344 L 1041.441406 51.277344 C 1064.636719 51.277344 1083.441406 70.078125 1083.441406 93.277344 L 1083.441406 1051.160156 C 1083.441406 1074.355469 1064.636719 1093.160156 1041.441406 1093.160156 L 83.558594 1093.160156 C 60.363281 1093.160156 41.558594 1074.355469 41.558594 1051.160156 L 41.558594 93.277344 C 41.558594 70.078125 60.363281 51.277344 83.558594 51.277344 Z M 83.558594 51.277344 " clip-rule="nonzero"/></clipPath><clipPath id="44aba92641"><path d="M 41.40625 146 L 72 146 L 72 999 L 41.40625 999 Z M 41.40625 146 " clip-rule="nonzero"/></clipPath><clipPath id="0dc985aefe"><path d="M 40.65625 92.375 L 40.65625 1052.0625 C 40.65625 1075.257812 59.460938 1094.0625 82.65625 1094.0625 L 1042.34375 1094.0625 C 1065.539062 1094.0625 1084.34375 1075.257812 1084.34375 1052.0625 L 1084.34375 92.375 C 1084.34375 69.179688 1065.539062 50.375 1042.34375 50.375 L 82.65625 50.375 C 59.460938 50.375 40.65625 69.179688 40.65625 92.375 Z M 40.65625 92.375 " clip-rule="nonzero"/></clipPath><clipPath id="b5b711cf56"><path d="M 83.558594 51.277344 L 1041.441406 51.277344 C 1064.636719 51.277344 1083.441406 70.078125 1083.441406 93.277344 L 1083.441406 1051.160156 C 1083.441406 1074.355469 1064.636719 1093.160156 1041.441406 1093.160156 L 83.558594 1093.160156 C 60.363281 1093.160156 41.558594 1074.355469 41.558594 1051.160156 L 41.558594 93.277344 C 41.558594 70.078125 60.363281 51.277344 83.558594 51.277344 Z M 83.558594 51.277344 " clip-rule="nonzero"/></clipPath><clipPath id="066aeb80b9"><path d="M 136 51.125 L 989 51.125 L 989 82 L 136 82 Z M 136 51.125 " clip-rule="nonzero"/></clipPath><clipPath id="7a3f334d89"><path d="M 40.65625 92.375 L 40.65625 1052.0625 C 40.65625 1075.257812 59.460938 1094.0625 82.65625 1094.0625 L 1042.34375 1094.0625 C 1065.539062 1094.0625 1084.34375 1075.257812 1084.34375 1052.0625 L 1084.34375 92.375 C 1084.34375 69.179688 1065.539062 50.375 1042.34375 50.375 L 82.65625 50.375 C 59.460938 50.375 40.65625 69.179688 40.65625 92.375 Z M 40.65625 92.375 " clip-rule="nonzero"/></clipPath><clipPath id="7125130bea"><path d="M 83.558594 51.277344 L 1041.441406 51.277344 C 1064.636719 51.277344 1083.441406 70.078125 1083.441406 93.277344 L 1083.441406 1051.160156 C 1083.441406 1074.355469 1064.636719 1093.160156 1041.441406 1093.160156 L 83.558594 1093.160156 C 60.363281 1093.160156 41.558594 1074.355469 41.558594 1051.160156 L 41.558594 93.277344 C 41.558594 70.078125 60.363281 51.277344 83.558594 51.277344 Z M 83.558594 51.277344 " clip-rule="nonzero"/></clipPath><clipPath id="7f4db650a6"><path d="M 136 1062 L 989 1062 L 989 1093.625 L 136 1093.625 Z M 136 1062 " clip-rule="nonzero"/></clipPath><clipPath id="e92cd501b1"><path d="M 40.65625 92.375 L 40.65625 1052.0625 C 40.65625 1075.257812 59.460938 1094.0625 82.65625 1094.0625 L 1042.34375 1094.0625 C 1065.539062 1094.0625 1084.34375 1075.257812 1084.34375 1052.0625 L 1084.34375 92.375 C 1084.34375 69.179688 1065.539062 50.375 1042.34375 50.375 L 82.65625 50.375 C 59.460938 50.375 40.65625 69.179688 40.65625 92.375 Z M 40.65625 92.375 " clip-rule="nonzero"/></clipPath><clipPath id="ac13a0c3f8"><path d="M 83.558594 51.277344 L 1041.441406 51.277344 C 1064.636719 51.277344 1083.441406 70.078125 1083.441406 93.277344 L 1083.441406 1051.160156 C 1083.441406 1074.355469 1064.636719 1093.160156 1041.441406 1093.160156 L 83.558594 1093.160156 C 60.363281 1093.160156 41.558594 1074.355469 41.558594 1051.160156 L 41.558594 93.277344 C 41.558594 70.078125 60.363281 51.277344 83.558594 51.277344 Z M 83.558594 51.277344 " clip-rule="nonzero"/></clipPath><clipPath id="762199f62e"><path d="M 988 51.125 L 1083.90625 51.125 L 1083.90625 147 L 988 147 Z M 988 51.125 " clip-rule="nonzero"/></clipPath><clipPath id="2d3d71a22e"><path d="M 40.65625 92.375 L 40.65625 1052.0625 C 40.65625 1075.257812 59.460938 1094.0625 82.65625 1094.0625 L 1042.34375 1094.0625 C 1065.539062 1094.0625 1084.34375 1075.257812 1084.34375 1052.0625 L 1084.34375 92.375 C 1084.34375 69.179688 1065.539062 50.375 1042.34375 50.375 L 82.65625 50.375 C 59.460938 50.375 40.65625 69.179688 40.65625 92.375 Z M 40.65625 92.375 " clip-rule="nonzero"/></clipPath><clipPath id="a04a127ca5"><path d="M 83.558594 51.277344 L 1041.441406 51.277344 C 1064.636719 51.277344 1083.441406 70.078125 1083.441406 93.277344 L 1083.441406 1051.160156 C 1083.441406 1074.355469 1064.636719 1093.160156 1041.441406 1093.160156 L 83.558594 1093.160156 C 60.363281 1093.160156 41.558594 1074.355469 41.558594 1051.160156 L 41.558594 93.277344 C 41.558594 70.078125 60.363281 51.277344 83.558594 51.277344 Z M 83.558594 51.277344 " clip-rule="nonzero"/></clipPath><clipPath id="18294c14c8"><path d="M 41.40625 51.125 L 137 51.125 L 137 147 L 41.40625 147 Z M 41.40625 51.125 " clip-rule="nonzero"/></clipPath><clipPath id="a57b9d93e4"><path d="M 40.65625 92.375 L 40.65625 1052.0625 C 40.65625 1075.257812 59.460938 1094.0625 82.65625 1094.0625 L 1042.34375 1094.0625 C 1065.539062 1094.0625 1084.34375 1075.257812 1084.34375 1052.0625 L 1084.34375 92.375 C 1084.34375 69.179688 1065.539062 50.375 1042.34375 50.375 L 82.65625 50.375 C 59.460938 50.375 40.65625 69.179688 40.65625 92.375 Z M 40.65625 92.375 " clip-rule="nonzero"/></clipPath><clipPath id="6e19c3b4e6"><path d="M 83.558594 51.277344 L 1041.441406 51.277344 C 1064.636719 51.277344 1083.441406 70.078125 1083.441406 93.277344 L 1083.441406 1051.160156 C 1083.441406 1074.355469 1064.636719 1093.160156 1041.441406 1093.160156 L 83.558594 1093.160156 C 60.363281 1093.160156 41.558594 1074.355469 41.558594 1051.160156 L 41.558594 93.277344 C 41.558594 70.078125 60.363281 51.277344 83.558594 51.277344 Z M 83.558594 51.277344 " clip-rule="nonzero"/></clipPath><clipPath id="ac8888a727"><path d="M 988 998 L 1083.90625 998 L 1083.90625 1093.625 L 988 1093.625 Z M 988 998 " clip-rule="nonzero"/></clipPath><clipPath id="f0c88625ae"><path d="M 40.65625 92.375 L 40.65625 1052.0625 C 40.65625 1075.257812 59.460938 1094.0625 82.65625 1094.0625 L 1042.34375 1094.0625 C 1065.539062 1094.0625 1084.34375 1075.257812 1084.34375 1052.0625 L 1084.34375 92.375 C 1084.34375 69.179688 1065.539062 50.375 1042.34375 50.375 L 82.65625 50.375 C 59.460938 50.375 40.65625 69.179688 40.65625 92.375 Z M 40.65625 92.375 " clip-rule="nonzero"/></clipPath><clipPath id="dad8df7ad1"><path d="M 83.558594 51.277344 L 1041.441406 51.277344 C 1064.636719 51.277344 1083.441406 70.078125 1083.441406 93.277344 L 1083.441406 1051.160156 C 1083.441406 1074.355469 1064.636719 1093.160156 1041.441406 1093.160156 L 83.558594 1093.160156 C 60.363281 1093.160156 41.558594 1074.355469 41.558594 1051.160156 L 41.558594 93.277344 C 41.558594 70.078125 60.363281 51.277344 83.558594 51.277344 Z M 83.558594 51.277344 " clip-rule="nonzero"/></clipPath><clipPath id="c2730eac77"><path d="M 41.40625 998 L 137 998 L 137 1093.625 L 41.40625 1093.625 Z M 41.40625 998 " clip-rule="nonzero"/></clipPath><clipPath id="e891225cb0"><path d="M 40.65625 92.375 L 40.65625 1052.0625 C 40.65625 1075.257812 59.460938 1094.0625 82.65625 1094.0625 L 1042.34375 1094.0625 C 1065.539062 1094.0625 1084.34375 1075.257812 1084.34375 1052.0625 L 1084.34375 92.375 C 1084.34375 69.179688 1065.539062 50.375 1042.34375 50.375 L 82.65625 50.375 C 59.460938 50.375 40.65625 69.179688 40.65625 92.375 Z M 40.65625 92.375 " clip-rule="nonzero"/></clipPath><clipPath id="4e070441c9"><path d="M 83.558594 51.277344 L 1041.441406 51.277344 C 1064.636719 51.277344 1083.441406 70.078125 1083.441406 93.277344 L 1083.441406 1051.160156 C 1083.441406 1074.355469 1064.636719 1093.160156 1041.441406 1093.160156 L 83.558594 1093.160156 C 60.363281 1093.160156 41.558594 1074.355469 41.558594 1051.160156 L 41.558594 93.277344 C 41.558594 70.078125 60.363281 51.277344 83.558594 51.277344 Z M 83.558594 51.277344 " clip-rule="nonzero"/></clipPath><clipPath id="e9d797d05a"><path d="M 40.65625 50.375 L 1084.65625 50.375 L 1084.65625 1094.375 L 40.65625 1094.375 Z M 40.65625 50.375 " clip-rule="nonzero"/></clipPath><clipPath id="c96a0247d5"><path d="M 40.65625 92.375 L 40.65625 1052.0625 C 40.65625 1075.257812 59.460938 1094.0625 82.65625 1094.0625 L 1042.34375 1094.0625 C 1065.539062 1094.0625 1084.34375 1075.257812 1084.34375 1052.0625 L 1084.34375 92.375 C 1084.34375 69.179688 1065.539062 50.375 1042.34375 50.375 L 82.65625 50.375 C 59.460938 50.375 40.65625 69.179688 40.65625 92.375 Z M 40.65625 92.375 " clip-rule="nonzero"/></clipPath><clipPath id="3197c87865"><path d="M 40.65625 92.375 L 40.65625 1052.058594 C 40.65625 1075.253906 59.460938 1094.058594 82.65625 1094.058594 L 1042.339844 1094.058594 C 1065.535156 1094.058594 1084.339844 1075.253906 1084.339844 1052.058594 L 1084.339844 92.375 C 1084.339844 69.179688 1065.535156 50.375 1042.339844 50.375 L 82.65625 50.375 C 59.460938 50.375 40.65625 69.179688 40.65625 92.375 Z M 40.65625 92.375 " clip-rule="nonzero"/></clipPath></defs><g clip-path="url(#173e519511)"><path fill="#fc6a1f" d="M 872.3125 818.808594 L 566.589844 818.808594 C 570.527344 768.875 551.738281 722.628906 513.867188 689.824219 L 784.617188 689.824219 C 804.757812 689.824219 821.128906 673.488281 821.128906 653.378906 L 821.128906 461.332031 C 821.128906 441.226562 804.757812 424.890625 784.617188 424.890625 L 343.878906 424.890625 C 323.738281 424.890625 307.355469 441.226562 307.355469 461.332031 L 307.355469 548.960938 C 292.253906 541.515625 273.792969 537.496094 256.183594 539.132812 L 256.183594 389.242188 L 872.3125 389.242188 Z M 934.507812 847.484375 L 934.507812 878.785156 C 934.507812 879.929688 933.5 880.957031 932.347656 880.957031 L 547.421875 880.957031 C 553.785156 869.761719 558.671875 857.765625 561.972656 845.3125 L 932.347656 845.3125 C 933.5 845.3125 934.507812 846.339844 934.507812 847.484375 Z M 414.289062 932.027344 C 446.644531 932.027344 478.976562 919.6875 503.597656 895.125 C 549.46875 849.296875 553.0625 776.347656 512.507812 726.382812 L 334.867188 904.035156 C 357.941406 922.660156 386.117188 932.027344 414.289062 932.027344 Z M 263.621094 974.296875 C 292.011719 974.296875 317.304688 957.960938 329.425781 932.941406 C 279.148438 899.328125 254.613281 840.695312 263.171875 783.046875 L 190.492188 783.046875 L 190.492188 901.179688 C 190.492188 941.394531 223.316406 974.296875 263.621094 974.296875 Z M 363.300781 661.71875 C 397.644531 649.609375 435.46875 650.183594 469.503906 663.320312 L 784.617188 663.320312 C 790.113281 663.320312 794.570312 658.746094 794.570312 653.378906 L 794.570312 461.332031 C 794.570312 455.847656 790.113281 451.394531 784.617188 451.394531 L 343.878906 451.394531 C 338.382812 451.394531 333.929688 455.847656 333.929688 461.332031 L 333.929688 567.808594 C 352.0625 585.976562 363.300781 610.882812 363.300781 638.414062 Z M 316.070312 885.183594 L 493.710938 707.53125 C 444.164062 667.433594 371.058594 670.402344 324.980469 716.441406 C 278.898438 762.484375 275.949219 835.601562 316.070312 885.183594 Z M 263.621094 565.296875 C 223.316406 565.296875 190.492188 598.203125 190.492188 638.414062 L 190.492188 756.546875 L 269.609375 756.546875 C 281.253906 722.230469 304.988281 692.679688 336.742188 674.0625 L 336.742188 638.414062 C 336.738281 598.199219 303.953125 565.296875 263.621094 565.296875 Z M 193.96875 326.980469 L 934.507812 326.980469 L 934.507812 362.625 L 193.96875 362.625 Z M 342.175781 150.816406 L 470.476562 150.816406 L 426.457031 300.476562 L 210.121094 300.476562 Z M 674.347656 300.476562 L 630.328125 150.816406 L 498.179688 150.816406 L 454.152344 300.476562 Z M 918.363281 300.476562 L 702.039062 300.476562 L 658.019531 150.816406 L 786.316406 150.816406 Z M 947.792969 389.246094 C 955.140625 389.246094 961.066406 383.304688 961.066406 375.878906 L 961.066406 313.730469 C 961.066406 310.53125 959.9375 307.445312 957.753906 304.933594 L 802.253906 128.765625 C 799.742188 125.910156 796.109375 124.195312 792.304688 124.195312 L 336.191406 124.195312 C 332.386719 124.195312 328.753906 125.910156 326.242188 128.765625 L 170.742188 304.929688 C 168.558594 307.445312 167.425781 310.53125 167.425781 313.726562 L 167.40625 313.726562 L 167.40625 375.875 C 167.40625 383.304688 173.355469 389.242188 180.691406 389.242188 L 229.621094 389.242188 L 229.621094 544.730469 C 191.351562 558.671875 163.933594 595.457031 163.933594 638.414062 L 163.933594 901.179688 C 163.933594 956.132812 208.671875 1000.800781 263.625 1000.800781 C 301.886719 1000.800781 336.054688 979.210938 352.769531 945.734375 C 409.65625 970.667969 477.078125 958.929688 522.378906 913.859375 C 524.457031 911.804688 526.445312 909.632812 528.378906 907.578125 L 932.351562 907.578125 C 948.195312 907.578125 961.070312 894.667969 961.070312 878.785156 L 961.070312 847.484375 C 961.070312 831.601562 948.195312 818.808594 932.351562 818.808594 L 898.890625 818.808594 L 898.890625 389.242188 L 947.792969 389.242188 Z M 619.738281 567.46875 L 619.738281 547.246094 L 587.597656 547.246094 C 580.25 547.246094 574.324219 541.308594 574.324219 533.992188 L 574.324219 501.890625 L 554.171875 501.890625 L 554.171875 533.992188 C 554.171875 541.308594 548.21875 547.246094 540.886719 547.246094 L 508.769531 547.246094 L 508.769531 567.46875 L 540.886719 567.46875 C 548.21875 567.46875 554.171875 573.410156 554.171875 580.722656 L 554.171875 612.824219 L 574.324219 612.824219 L 574.324219 580.722656 C 574.324219 573.410156 580.253906 567.46875 587.597656 567.46875 Z M 625.242188 520.742188 L 600.886719 520.742188 L 600.886719 496.40625 C 600.886719 484.753906 591.4375 475.273438 579.804688 475.273438 L 548.671875 475.273438 C 537.066406 475.273438 527.605469 484.753906 527.605469 496.40625 L 527.605469 520.742188 L 503.261719 520.742188 C 491.640625 520.742188 482.191406 530.109375 482.191406 541.761719 L 482.191406 572.949219 C 482.191406 584.488281 491.640625 593.972656 503.261719 593.972656 L 527.605469 593.972656 L 527.605469 618.308594 C 527.605469 629.960938 537.066406 639.441406 548.671875 639.441406 L 579.804688 639.441406 C 591.4375 639.441406 600.886719 629.960938 600.886719 618.308594 L 600.886719 593.972656 L 625.242188 593.972656 C 636.851562 593.972656 646.296875 584.488281 646.296875 572.949219 L 646.296875 541.761719 C 646.296875 530.109375 636.851562 520.742188 625.242188 520.742188 Z M 625.242188 520.742188 " fill-opacity="1" fill-rule="evenodd"/></g><g clip-path="url(#e59b742d73)"><g clip-path="url(#78a7ab36c3)"><g clip-path="url(#52f209c14d)"><path fill="#fc6a1f" d="M 1053.15625 146.011719 L 1084.339844 146.011719 L 1084.339844 998.421875 L 1053.15625 998.421875 Z M 1053.15625 146.011719 " fill-opacity="1" fill-rule="nonzero"/></g></g></g><g clip-path="url(#44aba92641)"><g clip-path="url(#0dc985aefe)"><g clip-path="url(#b5b711cf56)"><path fill="#fc6a1f" d="M 40.65625 146.011719 L 71.84375 146.011719 L 71.84375 998.421875 L 40.65625 998.421875 Z M 40.65625 146.011719 " fill-opacity="1" fill-rule="nonzero"/></g></g></g><g clip-path="url(#066aeb80b9)"><g clip-path="url(#7a3f334d89)"><g clip-path="url(#7125130bea)"><path fill="#fc6a1f" d="M 136.292969 50.375 L 988.703125 50.375 L 988.703125 81.5625 L 136.292969 81.5625 Z M 136.292969 50.375 " fill-opacity="1" fill-rule="nonzero"/></g></g></g><g clip-path="url(#7f4db650a6)"><g clip-path="url(#e92cd501b1)"><g clip-path="url(#ac13a0c3f8)"><path fill="#fc6a1f" d="M 136.292969 1062.875 L 988.703125 1062.875 L 988.703125 1094.058594 L 136.292969 1094.058594 Z M 136.292969 1062.875 " fill-opacity="1" fill-rule="nonzero"/></g></g></g><g clip-path="url(#762199f62e)"><g clip-path="url(#2d3d71a22e)"><g clip-path="url(#a04a127ca5)"><path fill="#fc6a1f" d="M 1053.15625 81.5625 L 1053.15625 146.011719 L 1084.339844 146.011719 L 1084.339844 50.375 L 988.703125 50.375 L 988.703125 81.5625 Z M 1053.15625 81.5625 " fill-opacity="1" fill-rule="nonzero"/></g></g></g><g clip-path="url(#18294c14c8)"><g clip-path="url(#a57b9d93e4)"><g clip-path="url(#6e19c3b4e6)"><path fill="#fc6a1f" d="M 71.84375 81.5625 L 136.292969 81.5625 L 136.292969 50.375 L 40.65625 50.375 L 40.65625 146.011719 L 71.84375 146.011719 Z M 71.84375 81.5625 " fill-opacity="1" fill-rule="nonzero"/></g></g></g><g clip-path="url(#ac8888a727)"><g clip-path="url(#f0c88625ae)"><g clip-path="url(#dad8df7ad1)"><path fill="#fc6a1f" d="M 1053.15625 1062.875 L 988.703125 1062.875 L 988.703125 1094.058594 L 1084.339844 1094.058594 L 1084.339844 998.421875 L 1053.15625 998.421875 Z M 1053.15625 1062.875 " fill-opacity="1" fill-rule="nonzero"/></g></g></g><g clip-path="url(#c2730eac77)"><g clip-path="url(#e891225cb0)"><g clip-path="url(#4e070441c9)"><path fill="#fc6a1f" d="M 71.84375 1062.875 L 71.84375 998.421875 L 40.65625 998.421875 L 40.65625 1094.058594 L 136.292969 1094.058594 L 136.292969 1062.875 Z M 71.84375 1062.875 " fill-opacity="1" fill-rule="nonzero"/></g></g></g><g clip-path="url(#e9d797d05a)"><g clip-path="url(#c96a0247d5)"><g clip-path="url(#3197c87865)"><path stroke-linecap="butt" transform="matrix(0.75, 0, 0, 0.75, 40.657485, 50.375868)" fill="none" stroke-linejoin="miter" d="M -0.00164733 55.998848 L -0.00164733 1335.577083 C -0.00164733 1366.504169 25.071271 1391.577088 55.998357 1391.577088 L 1335.576593 1391.577088 C 1366.503679 1391.577088 1391.576597 1366.504169 1391.576597 1335.577083 L 1391.576597 55.998848 C 1391.576597 25.071762 1366.503679 -0.00115688 1335.576593 -0.00115688 L 55.998357 -0.00115688 C 25.071271 -0.00115688 -0.00164733 25.071762 -0.00164733 55.998848 Z M -0.00164733 55.998848 " stroke="#fc6a1f" stroke-width="66" stroke-opacity="1" stroke-miterlimit="4"/></g></g></g></svg>