<svg xmlns="http://www.w3.org/2000/svg" xmlns:xlink="http://www.w3.org/1999/xlink" width="1500" zoomAndPan="magnify" viewBox="0 0 1125 1124.99995" height="1500" preserveAspectRatio="xMidYMid meet" version="1.0"><defs><clipPath id="1974776596"><path d="M 1053 146 L 1083.90625 146 L 1083.90625 999 L 1053 999 Z M 1053 146 " clip-rule="nonzero"/></clipPath><clipPath id="a5800cbd0f"><path d="M 40.65625 92.375 L 40.65625 1052.0625 C 40.65625 1075.257812 59.460938 1094.0625 82.65625 1094.0625 L 1042.34375 1094.0625 C 1065.539062 1094.0625 1084.34375 1075.257812 1084.34375 1052.0625 L 1084.34375 92.375 C 1084.34375 69.179688 1065.539062 50.375 1042.34375 50.375 L 82.65625 50.375 C 59.460938 50.375 40.65625 69.179688 40.65625 92.375 Z M 40.65625 92.375 " clip-rule="nonzero"/></clipPath><clipPath id="d54017b21f"><path d="M 83.558594 51.277344 L 1041.441406 51.277344 C 1064.636719 51.277344 1083.441406 70.082031 1083.441406 93.277344 L 1083.441406 1051.160156 C 1083.441406 1074.355469 1064.636719 1093.160156 1041.441406 1093.160156 L 83.558594 1093.160156 C 60.363281 1093.160156 41.558594 1074.355469 41.558594 1051.160156 L 41.558594 93.277344 C 41.558594 70.082031 60.363281 51.277344 83.558594 51.277344 Z M 83.558594 51.277344 " clip-rule="nonzero"/></clipPath><clipPath id="68a45c8449"><path d="M 41.40625 146 L 72 146 L 72 999 L 41.40625 999 Z M 41.40625 146 " clip-rule="nonzero"/></clipPath><clipPath id="b77fe22ba2"><path d="M 40.65625 92.375 L 40.65625 1052.0625 C 40.65625 1075.257812 59.460938 1094.0625 82.65625 1094.0625 L 1042.34375 1094.0625 C 1065.539062 1094.0625 1084.34375 1075.257812 1084.34375 1052.0625 L 1084.34375 92.375 C 1084.34375 69.179688 1065.539062 50.375 1042.34375 50.375 L 82.65625 50.375 C 59.460938 50.375 40.65625 69.179688 40.65625 92.375 Z M 40.65625 92.375 " clip-rule="nonzero"/></clipPath><clipPath id="7ddc1cc7b0"><path d="M 83.558594 51.277344 L 1041.441406 51.277344 C 1064.636719 51.277344 1083.441406 70.082031 1083.441406 93.277344 L 1083.441406 1051.160156 C 1083.441406 1074.355469 1064.636719 1093.160156 1041.441406 1093.160156 L 83.558594 1093.160156 C 60.363281 1093.160156 41.558594 1074.355469 41.558594 1051.160156 L 41.558594 93.277344 C 41.558594 70.082031 60.363281 51.277344 83.558594 51.277344 Z M 83.558594 51.277344 " clip-rule="nonzero"/></clipPath><clipPath id="ff07536031"><path d="M 136 51.125 L 989 51.125 L 989 82 L 136 82 Z M 136 51.125 " clip-rule="nonzero"/></clipPath><clipPath id="191d20a526"><path d="M 40.65625 92.375 L 40.65625 1052.0625 C 40.65625 1075.257812 59.460938 1094.0625 82.65625 1094.0625 L 1042.34375 1094.0625 C 1065.539062 1094.0625 1084.34375 1075.257812 1084.34375 1052.0625 L 1084.34375 92.375 C 1084.34375 69.179688 1065.539062 50.375 1042.34375 50.375 L 82.65625 50.375 C 59.460938 50.375 40.65625 69.179688 40.65625 92.375 Z M 40.65625 92.375 " clip-rule="nonzero"/></clipPath><clipPath id="7785db87cb"><path d="M 83.558594 51.277344 L 1041.441406 51.277344 C 1064.636719 51.277344 1083.441406 70.082031 1083.441406 93.277344 L 1083.441406 1051.160156 C 1083.441406 1074.355469 1064.636719 1093.160156 1041.441406 1093.160156 L 83.558594 1093.160156 C 60.363281 1093.160156 41.558594 1074.355469 41.558594 1051.160156 L 41.558594 93.277344 C 41.558594 70.082031 60.363281 51.277344 83.558594 51.277344 Z M 83.558594 51.277344 " clip-rule="nonzero"/></clipPath><clipPath id="e17312ae0e"><path d="M 136 1062 L 989 1062 L 989 1093.625 L 136 1093.625 Z M 136 1062 " clip-rule="nonzero"/></clipPath><clipPath id="95b4988221"><path d="M 40.65625 92.375 L 40.65625 1052.0625 C 40.65625 1075.257812 59.460938 1094.0625 82.65625 1094.0625 L 1042.34375 1094.0625 C 1065.539062 1094.0625 1084.34375 1075.257812 1084.34375 1052.0625 L 1084.34375 92.375 C 1084.34375 69.179688 1065.539062 50.375 1042.34375 50.375 L 82.65625 50.375 C 59.460938 50.375 40.65625 69.179688 40.65625 92.375 Z M 40.65625 92.375 " clip-rule="nonzero"/></clipPath><clipPath id="fd6b901125"><path d="M 83.558594 51.277344 L 1041.441406 51.277344 C 1064.636719 51.277344 1083.441406 70.082031 1083.441406 93.277344 L 1083.441406 1051.160156 C 1083.441406 1074.355469 1064.636719 1093.160156 1041.441406 1093.160156 L 83.558594 1093.160156 C 60.363281 1093.160156 41.558594 1074.355469 41.558594 1051.160156 L 41.558594 93.277344 C 41.558594 70.082031 60.363281 51.277344 83.558594 51.277344 Z M 83.558594 51.277344 " clip-rule="nonzero"/></clipPath><clipPath id="cf228858f0"><path d="M 988 51.125 L 1083.90625 51.125 L 1083.90625 147 L 988 147 Z M 988 51.125 " clip-rule="nonzero"/></clipPath><clipPath id="60368784a4"><path d="M 40.65625 92.375 L 40.65625 1052.0625 C 40.65625 1075.257812 59.460938 1094.0625 82.65625 1094.0625 L 1042.34375 1094.0625 C 1065.539062 1094.0625 1084.34375 1075.257812 1084.34375 1052.0625 L 1084.34375 92.375 C 1084.34375 69.179688 1065.539062 50.375 1042.34375 50.375 L 82.65625 50.375 C 59.460938 50.375 40.65625 69.179688 40.65625 92.375 Z M 40.65625 92.375 " clip-rule="nonzero"/></clipPath><clipPath id="9ebccf8acf"><path d="M 83.558594 51.277344 L 1041.441406 51.277344 C 1064.636719 51.277344 1083.441406 70.082031 1083.441406 93.277344 L 1083.441406 1051.160156 C 1083.441406 1074.355469 1064.636719 1093.160156 1041.441406 1093.160156 L 83.558594 1093.160156 C 60.363281 1093.160156 41.558594 1074.355469 41.558594 1051.160156 L 41.558594 93.277344 C 41.558594 70.082031 60.363281 51.277344 83.558594 51.277344 Z M 83.558594 51.277344 " clip-rule="nonzero"/></clipPath><clipPath id="067673b561"><path d="M 41.40625 51.125 L 137 51.125 L 137 147 L 41.40625 147 Z M 41.40625 51.125 " clip-rule="nonzero"/></clipPath><clipPath id="f84db5e5e8"><path d="M 40.65625 92.375 L 40.65625 1052.0625 C 40.65625 1075.257812 59.460938 1094.0625 82.65625 1094.0625 L 1042.34375 1094.0625 C 1065.539062 1094.0625 1084.34375 1075.257812 1084.34375 1052.0625 L 1084.34375 92.375 C 1084.34375 69.179688 1065.539062 50.375 1042.34375 50.375 L 82.65625 50.375 C 59.460938 50.375 40.65625 69.179688 40.65625 92.375 Z M 40.65625 92.375 " clip-rule="nonzero"/></clipPath><clipPath id="1e1101fb30"><path d="M 83.558594 51.277344 L 1041.441406 51.277344 C 1064.636719 51.277344 1083.441406 70.082031 1083.441406 93.277344 L 1083.441406 1051.160156 C 1083.441406 1074.355469 1064.636719 1093.160156 1041.441406 1093.160156 L 83.558594 1093.160156 C 60.363281 1093.160156 41.558594 1074.355469 41.558594 1051.160156 L 41.558594 93.277344 C 41.558594 70.082031 60.363281 51.277344 83.558594 51.277344 Z M 83.558594 51.277344 " clip-rule="nonzero"/></clipPath><clipPath id="8a86a467d8"><path d="M 988 998 L 1083.90625 998 L 1083.90625 1093.625 L 988 1093.625 Z M 988 998 " clip-rule="nonzero"/></clipPath><clipPath id="d51c6490ba"><path d="M 40.65625 92.375 L 40.65625 1052.0625 C 40.65625 1075.257812 59.460938 1094.0625 82.65625 1094.0625 L 1042.34375 1094.0625 C 1065.539062 1094.0625 1084.34375 1075.257812 1084.34375 1052.0625 L 1084.34375 92.375 C 1084.34375 69.179688 1065.539062 50.375 1042.34375 50.375 L 82.65625 50.375 C 59.460938 50.375 40.65625 69.179688 40.65625 92.375 Z M 40.65625 92.375 " clip-rule="nonzero"/></clipPath><clipPath id="fe9bdf975f"><path d="M 83.558594 51.277344 L 1041.441406 51.277344 C 1064.636719 51.277344 1083.441406 70.082031 1083.441406 93.277344 L 1083.441406 1051.160156 C 1083.441406 1074.355469 1064.636719 1093.160156 1041.441406 1093.160156 L 83.558594 1093.160156 C 60.363281 1093.160156 41.558594 1074.355469 41.558594 1051.160156 L 41.558594 93.277344 C 41.558594 70.082031 60.363281 51.277344 83.558594 51.277344 Z M 83.558594 51.277344 " clip-rule="nonzero"/></clipPath><clipPath id="61b2cb6cd6"><path d="M 41.40625 998 L 137 998 L 137 1093.625 L 41.40625 1093.625 Z M 41.40625 998 " clip-rule="nonzero"/></clipPath><clipPath id="d041184ead"><path d="M 40.65625 92.375 L 40.65625 1052.0625 C 40.65625 1075.257812 59.460938 1094.0625 82.65625 1094.0625 L 1042.34375 1094.0625 C 1065.539062 1094.0625 1084.34375 1075.257812 1084.34375 1052.0625 L 1084.34375 92.375 C 1084.34375 69.179688 1065.539062 50.375 1042.34375 50.375 L 82.65625 50.375 C 59.460938 50.375 40.65625 69.179688 40.65625 92.375 Z M 40.65625 92.375 " clip-rule="nonzero"/></clipPath><clipPath id="5d3dfd9637"><path d="M 83.558594 51.277344 L 1041.441406 51.277344 C 1064.636719 51.277344 1083.441406 70.082031 1083.441406 93.277344 L 1083.441406 1051.160156 C 1083.441406 1074.355469 1064.636719 1093.160156 1041.441406 1093.160156 L 83.558594 1093.160156 C 60.363281 1093.160156 41.558594 1074.355469 41.558594 1051.160156 L 41.558594 93.277344 C 41.558594 70.082031 60.363281 51.277344 83.558594 51.277344 Z M 83.558594 51.277344 " clip-rule="nonzero"/></clipPath><clipPath id="b658568f62"><path d="M 40.65625 50.375 L 1084.65625 50.375 L 1084.65625 1094.375 L 40.65625 1094.375 Z M 40.65625 50.375 " clip-rule="nonzero"/></clipPath><clipPath id="2bf26a0dda"><path d="M 40.65625 92.375 L 40.65625 1052.0625 C 40.65625 1075.257812 59.460938 1094.0625 82.65625 1094.0625 L 1042.34375 1094.0625 C 1065.539062 1094.0625 1084.34375 1075.257812 1084.34375 1052.0625 L 1084.34375 92.375 C 1084.34375 69.179688 1065.539062 50.375 1042.34375 50.375 L 82.65625 50.375 C 59.460938 50.375 40.65625 69.179688 40.65625 92.375 Z M 40.65625 92.375 " clip-rule="nonzero"/></clipPath><clipPath id="c6f36ae3e8"><path d="M 40.65625 92.375 L 40.65625 1052.058594 C 40.65625 1075.253906 59.460938 1094.058594 82.65625 1094.058594 L 1042.339844 1094.058594 C 1065.535156 1094.058594 1084.339844 1075.253906 1084.339844 1052.058594 L 1084.339844 92.375 C 1084.339844 69.179688 1065.535156 50.375 1042.339844 50.375 L 82.65625 50.375 C 59.460938 50.375 40.65625 69.179688 40.65625 92.375 Z M 40.65625 92.375 " clip-rule="nonzero"/></clipPath><clipPath id="635ef938bb"><path d="M 406 107.140625 L 1042 107.140625 L 1042 1037 L 406 1037 Z M 406 107.140625 " clip-rule="nonzero"/></clipPath><clipPath id="8f6bb6553a"><path d="M 112.5 540 L 392 540 L 392 758 L 112.5 758 Z M 112.5 540 " clip-rule="nonzero"/></clipPath></defs><g clip-path="url(#1974776596)"><g clip-path="url(#a5800cbd0f)"><g clip-path="url(#d54017b21f)"><path fill="#fc6a1f" d="M 1053.15625 146.011719 L 1084.339844 146.011719 L 1084.339844 998.421875 L 1053.15625 998.421875 Z M 1053.15625 146.011719 " fill-opacity="1" fill-rule="nonzero"/></g></g></g><g clip-path="url(#68a45c8449)"><g clip-path="url(#b77fe22ba2)"><g clip-path="url(#7ddc1cc7b0)"><path fill="#fc6a1f" d="M 40.65625 146.011719 L 71.84375 146.011719 L 71.84375 998.421875 L 40.65625 998.421875 Z M 40.65625 146.011719 " fill-opacity="1" fill-rule="nonzero"/></g></g></g><g clip-path="url(#ff07536031)"><g clip-path="url(#191d20a526)"><g clip-path="url(#7785db87cb)"><path fill="#fc6a1f" d="M 136.292969 50.375 L 988.703125 50.375 L 988.703125 81.5625 L 136.292969 81.5625 Z M 136.292969 50.375 " fill-opacity="1" fill-rule="nonzero"/></g></g></g><g clip-path="url(#e17312ae0e)"><g clip-path="url(#95b4988221)"><g clip-path="url(#fd6b901125)"><path fill="#fc6a1f" d="M 136.292969 1062.875 L 988.703125 1062.875 L 988.703125 1094.058594 L 136.292969 1094.058594 Z M 136.292969 1062.875 " fill-opacity="1" fill-rule="nonzero"/></g></g></g><g clip-path="url(#cf228858f0)"><g clip-path="url(#60368784a4)"><g clip-path="url(#9ebccf8acf)"><path fill="#fc6a1f" d="M 1053.15625 81.5625 L 1053.15625 146.011719 L 1084.339844 146.011719 L 1084.339844 50.375 L 988.703125 50.375 L 988.703125 81.5625 Z M 1053.15625 81.5625 " fill-opacity="1" fill-rule="nonzero"/></g></g></g><g clip-path="url(#067673b561)"><g clip-path="url(#f84db5e5e8)"><g clip-path="url(#1e1101fb30)"><path fill="#fc6a1f" d="M 71.84375 81.5625 L 136.292969 81.5625 L 136.292969 50.375 L 40.65625 50.375 L 40.65625 146.011719 L 71.84375 146.011719 Z M 71.84375 81.5625 " fill-opacity="1" fill-rule="nonzero"/></g></g></g><g clip-path="url(#8a86a467d8)"><g clip-path="url(#d51c6490ba)"><g clip-path="url(#fe9bdf975f)"><path fill="#fc6a1f" d="M 1053.15625 1062.875 L 988.703125 1062.875 L 988.703125 1094.058594 L 1084.339844 1094.058594 L 1084.339844 998.421875 L 1053.15625 998.421875 Z M 1053.15625 1062.875 " fill-opacity="1" fill-rule="nonzero"/></g></g></g><g clip-path="url(#61b2cb6cd6)"><g clip-path="url(#d041184ead)"><g clip-path="url(#5d3dfd9637)"><path fill="#fc6a1f" d="M 71.84375 1062.875 L 71.84375 998.421875 L 40.65625 998.421875 L 40.65625 1094.058594 L 136.292969 1094.058594 L 136.292969 1062.875 Z M 71.84375 1062.875 " fill-opacity="1" fill-rule="nonzero"/></g></g></g><g clip-path="url(#b658568f62)"><g clip-path="url(#2bf26a0dda)"><g clip-path="url(#c6f36ae3e8)"><path stroke-linecap="butt" transform="matrix(0.75, 0, 0, 0.75, 40.657485, 50.376069)" fill="none" stroke-linejoin="miter" d="M -0.00164733 55.998579 L -0.00164733 1335.576814 C -0.00164733 1366.5039 25.071271 1391.576819 55.998357 1391.576819 L 1335.576593 1391.576819 C 1366.503679 1391.576819 1391.576597 1366.5039 1391.576597 1335.576814 L 1391.576597 55.998579 C 1391.576597 25.071493 1366.503679 -0.00142568 1335.576593 -0.00142568 L 55.998357 -0.00142568 C 25.071271 -0.00142568 -0.00164733 25.071493 -0.00164733 55.998579 Z M -0.00164733 55.998579 " stroke="#fc6a1f" stroke-width="66" stroke-opacity="1" stroke-miterlimit="4"/></g></g></g><path fill="#fc6a1f" d="M 503.867188 556.40625 C 500.375 556.40625 496.851562 555.222656 493.960938 552.796875 C 476.035156 537.832031 450.257812 536.789062 431.34375 550.316406 C 424.382812 555.292969 414.699219 553.671875 409.738281 546.710938 C 404.765625 539.761719 406.386719 530.078125 413.347656 525.105469 C 443.71875 503.386719 485.054688 505.007812 513.820312 529.007812 C 520.386719 534.492188 521.273438 544.257812 515.792969 550.824219 C 512.734375 554.503906 508.335938 556.40625 503.882812 556.40625 Z M 503.867188 556.40625 " fill-opacity="1" fill-rule="nonzero"/><path fill="#fc6a1f" d="M 592.359375 943.671875 L 592.007812 943.671875 C 541.144531 943.292969 499.796875 900.84375 499.796875 849.066406 L 499.796875 773.273438 C 499.796875 764.71875 506.730469 757.769531 515.296875 757.769531 C 523.867188 757.769531 530.800781 764.703125 530.800781 773.273438 L 530.800781 849.066406 C 530.800781 883.890625 558.339844 912.429688 592.175781 912.683594 L 592.445312 912.683594 C 628.101562 912.683594 649.269531 885.988281 653.835938 861.144531 C 676.949219 735.445312 745.441406 683.835938 805.871094 638.300781 C 866.0625 592.933594 918.066406 553.753906 918.066406 447.945312 C 918.066406 328.6875 820.769531 231.386719 701.144531 231.0625 C 681.371094 231.0625 661.867188 233.601562 643.25 238.617188 C 635.035156 240.800781 626.480469 235.953125 624.253906 227.695312 C 622.027344 219.421875 626.917969 210.9375 635.175781 208.699219 C 656.425781 202.976562 678.636719 200.074219 701.1875 200.074219 C 837.878906 200.453125 949.058594 311.648438 949.058594 447.945312 C 949.058594 569.203125 885.738281 616.90625 824.515625 663.046875 C 765.875 707.230469 705.234375 752.921875 684.304688 866.75 C 675.960938 912.089844 638.191406 943.660156 592.375 943.671875 Z M 592.359375 943.671875 " fill-opacity="1" fill-rule="nonzero"/><g clip-path="url(#635ef938bb)"><path fill="#fc6a1f" d="M 592.65625 1036.632812 L 591.203125 1036.632812 C 489.535156 1035.828125 406.824219 951.707031 406.824219 849.066406 L 406.824219 773.273438 C 406.824219 764.71875 413.757812 757.769531 422.324219 757.769531 C 430.894531 757.769531 437.828125 764.703125 437.828125 773.273438 L 437.828125 849.066406 C 437.828125 934.738281 506.742188 1004.976562 591.457031 1005.625 C 591.867188 1005.625 592.316406 1005.625 592.742188 1005.625 C 677.453125 1005.625 733.53125 941.558594 745.230469 877.914062 C 762.140625 785.914062 819.007812 743.507812 874 702.496094 C 944.449219 649.957031 1011 600.332031 1011 447.929688 C 1011 278.007812 872.773438 139.019531 702.878906 138.117188 C 702.441406 138.117188 702.003906 138.117188 701.554688 138.117188 C 624.945312 138.117188 535.550781 173.957031 483.660156 225.566406 C 453.667969 255.386719 437.828125 288.4375 437.828125 321.117188 C 437.828125 338.691406 450.46875 347.390625 461.308594 349.488281 C 472.496094 351.6875 486.828125 348.261719 493.3125 332.152344 C 506.125 299.445312 525.714844 272.398438 551.898438 250.851562 C 558.535156 245.382812 568.273438 246.367188 573.699219 252.964844 C 579.140625 259.574219 578.183594 269.328125 571.585938 274.765625 C 549.542969 292.90625 533.042969 315.691406 522.542969 342.527344 C 522.484375 342.667969 522.019531 343.851562 521.964844 343.992188 C 511.097656 370.96875 484.292969 385.484375 455.402344 379.914062 C 431.230469 375.238281 406.835938 355.238281 406.835938 321.132812 C 406.835938 280.023438 425.863281 239.378906 461.8125 203.609375 C 520.289062 145.445312 617.542969 107.28125 703.035156 107.140625 C 889.9375 108.140625 1041.988281 261.039062 1041.988281 447.957031 C 1041.988281 615.90625 962.574219 675.125 892.53125 727.371094 C 840.019531 766.519531 790.441406 803.515625 775.710938 883.566406 C 759.363281 972.480469 682.515625 1036.632812 592.671875 1036.632812 Z M 592.65625 1036.632812 " fill-opacity="1" fill-rule="nonzero"/></g><path fill="#fc6a1f" d="M 763.15625 587.945312 C 757.8125 587.945312 752.628906 585.183594 749.753906 580.222656 C 745.441406 572.839844 747.964844 563.351562 755.363281 559.054688 C 797.726562 534.449219 825.09375 490.828125 825.09375 447.945312 C 825.09375 373.914062 771.570312 343.753906 721.46875 340.214844 C 647.773438 334.902344 562.1875 382.648438 548.21875 481.089844 C 547.035156 489.5625 539.355469 495.507812 530.714844 494.253906 C 522.230469 493.054688 516.339844 485.207031 517.554688 476.75 C 534.140625 359.707031 635.949219 303.121094 723.652344 309.308594 C 804.097656 314.988281 856.070312 369.417969 856.070312 447.945312 C 856.070312 501.667969 822.644531 555.785156 770.894531 585.832031 C 768.441406 587.269531 765.777344 587.933594 763.128906 587.933594 Z M 763.15625 587.945312 " fill-opacity="1" fill-rule="nonzero"/><path fill="#fc6a1f" d="M 732.152344 525.414062 C 724.78125 525.414062 718.242188 520.113281 716.902344 512.605469 C 710.152344 474.242188 683.894531 442.503906 650.015625 431.75 C 616.769531 421.179688 578.886719 430.804688 551.265625 456.894531 C 545.035156 462.785156 535.226562 462.472656 529.363281 456.273438 C 523.488281 450.058594 523.769531 440.234375 529.984375 434.371094 C 565.824219 400.546875 615.417969 388.246094 659.402344 402.210938 C 704.839844 416.644531 738.5625 456.878906 747.425781 507.234375 C 748.894531 515.660156 743.269531 523.695312 734.84375 525.175781 C 733.941406 525.328125 733.023438 525.414062 732.152344 525.414062 Z M 732.152344 525.414062 " fill-opacity="1" fill-rule="nonzero"/><g clip-path="url(#8f6bb6553a)"><path fill="#fc6a1f" d="M 317.753906 757.785156 L 220.933594 757.785156 C 161.136719 757.785156 112.5 709.132812 112.5 649.351562 C 112.5 589.566406 161.136719 540.902344 220.933594 540.902344 L 317.753906 540.902344 C 358.328125 540.902344 391.347656 573.921875 391.347656 614.496094 L 391.347656 684.203125 C 391.347656 724.777344 358.328125 757.796875 317.753906 757.796875 Z M 220.933594 571.894531 C 178.230469 571.894531 143.476562 606.632812 143.476562 649.351562 C 143.476562 692.066406 178.230469 726.792969 220.933594 726.792969 L 317.753906 726.792969 C 341.246094 726.792969 360.34375 707.695312 360.34375 684.203125 L 360.34375 614.496094 C 360.34375 591.003906 341.246094 571.90625 317.753906 571.90625 L 220.933594 571.90625 Z M 220.933594 571.894531 " fill-opacity="1" fill-rule="nonzero"/></g><path fill="#fc6a1f" d="M 372.378906 719.492188 C 364.671875 719.492188 357.988281 713.757812 357.015625 705.921875 C 355.960938 697.421875 361.976562 689.683594 370.460938 688.613281 L 529.066406 668.785156 C 538.863281 667.558594 546.246094 659.199219 546.246094 649.335938 C 546.246094 639.46875 538.875 631.097656 529.066406 629.875 L 370.460938 610.058594 C 361.976562 609 355.960938 601.25 357.015625 592.75 C 358.074219 584.265625 365.640625 578.25 374.324219 579.308594 L 532.929688 599.121094 C 558.183594 602.292969 577.253906 623.871094 577.253906 649.320312 C 577.253906 674.773438 558.183594 696.363281 532.914062 699.523438 L 374.324219 719.351562 C 373.660156 719.4375 373.011719 719.476562 372.378906 719.476562 Z M 372.378906 719.492188 " fill-opacity="1" fill-rule="nonzero"/><path fill="#fc6a1f" d="M 205.457031 857.4375 C 196.902344 857.4375 189.957031 850.503906 189.957031 841.933594 L 189.957031 742.28125 C 189.957031 733.726562 196.890625 726.777344 205.457031 726.777344 C 214.027344 726.777344 220.960938 733.710938 220.960938 742.28125 L 220.960938 841.933594 C 220.960938 850.488281 214.027344 857.4375 205.457031 857.4375 Z M 205.457031 857.4375 " fill-opacity="1" fill-rule="nonzero"/><path fill="#fc6a1f" d="M 298.390625 857.4375 C 289.835938 857.4375 282.886719 850.503906 282.886719 841.933594 L 282.886719 742.28125 C 282.886719 733.726562 289.820312 726.777344 298.390625 726.777344 C 306.957031 726.777344 313.890625 733.710938 313.890625 742.28125 L 313.890625 841.933594 C 313.890625 850.488281 306.957031 857.4375 298.390625 857.4375 Z M 298.390625 857.4375 " fill-opacity="1" fill-rule="nonzero"/><path fill="#fc6a1f" d="M 329.378906 1036.632812 C 320.824219 1036.632812 313.878906 1029.699219 313.878906 1021.128906 L 313.878906 893.332031 C 313.878906 869.839844 294.78125 850.742188 271.289062 850.742188 L 232.558594 850.742188 C 209.066406 850.742188 189.96875 869.839844 189.96875 893.332031 L 189.96875 1021.128906 C 189.96875 1029.683594 183.035156 1036.632812 174.46875 1036.632812 C 165.898438 1036.632812 158.964844 1029.699219 158.964844 1021.128906 L 158.964844 893.332031 C 158.964844 852.757812 191.984375 819.738281 232.558594 819.738281 L 271.289062 819.738281 C 311.863281 819.738281 344.882812 852.757812 344.882812 893.332031 L 344.882812 1021.128906 C 344.882812 1029.683594 337.949219 1036.632812 329.378906 1036.632812 Z M 329.378906 1036.632812 " fill-opacity="1" fill-rule="nonzero"/><path fill="#fc6a1f" d="M 282.914062 633.863281 L 236.4375 633.863281 C 227.882812 633.863281 220.933594 626.925781 220.933594 618.359375 C 220.933594 609.789062 227.867188 602.855469 236.4375 602.855469 L 282.914062 602.855469 C 291.46875 602.855469 298.417969 609.789062 298.417969 618.359375 C 298.417969 626.925781 291.484375 633.863281 282.914062 633.863281 Z M 282.914062 633.863281 " fill-opacity="1" fill-rule="nonzero"/><path fill="#fc6a1f" d="M 654.707031 664.839844 L 639.207031 664.839844 C 630.652344 664.839844 623.703125 657.90625 623.703125 649.335938 C 623.703125 640.765625 630.636719 633.832031 639.207031 633.832031 L 654.707031 633.832031 C 663.261719 633.832031 670.210938 640.765625 670.210938 649.335938 C 670.210938 657.90625 663.277344 664.839844 654.707031 664.839844 Z M 654.707031 664.839844 " fill-opacity="1" fill-rule="nonzero"/><path fill="#fc6a1f" d="M 608.230469 618.359375 C 604.269531 618.359375 600.308594 616.851562 597.277344 613.820312 C 591.234375 607.761719 591.234375 597.964844 597.277344 591.90625 L 612.78125 576.402344 C 618.839844 570.34375 628.636719 570.34375 634.695312 576.402344 C 640.742188 582.464844 640.742188 592.257812 634.695312 598.320312 L 619.195312 613.820312 C 616.164062 616.851562 612.203125 618.359375 608.242188 618.359375 Z M 608.230469 618.359375 " fill-opacity="1" fill-rule="nonzero"/><path fill="#fc6a1f" d="M 623.71875 726.804688 C 619.757812 726.804688 615.796875 725.296875 612.765625 722.269531 L 597.265625 706.78125 C 591.21875 700.734375 591.203125 690.925781 597.265625 684.863281 C 603.324219 678.804688 613.121094 678.804688 619.179688 684.863281 L 634.683594 700.351562 C 640.726562 706.398438 640.742188 716.207031 634.683594 722.269531 C 631.652344 725.296875 627.691406 726.804688 623.730469 726.804688 Z M 623.71875 726.804688 " fill-opacity="1" fill-rule="nonzero"/></svg>