<svg xmlns="http://www.w3.org/2000/svg" xmlns:xlink="http://www.w3.org/1999/xlink" width="1500" zoomAndPan="magnify" viewBox="0 0 1125 1124.99995" height="1500" preserveAspectRatio="xMidYMid meet" version="1.0"><defs><clipPath id="2a26deb575"><path d="M 1053 146 L 1083.90625 146 L 1083.90625 999 L 1053 999 Z M 1053 146 " clip-rule="nonzero"/></clipPath><clipPath id="03ecdcd648"><path d="M 40.65625 92.375 L 40.65625 1052.0625 C 40.65625 1075.257812 59.460938 1094.0625 82.65625 1094.0625 L 1042.34375 1094.0625 C 1065.539062 1094.0625 1084.34375 1075.257812 1084.34375 1052.0625 L 1084.34375 92.375 C 1084.34375 69.179688 1065.539062 50.375 1042.34375 50.375 L 82.65625 50.375 C 59.460938 50.375 40.65625 69.179688 40.65625 92.375 Z M 40.65625 92.375 " clip-rule="nonzero"/></clipPath><clipPath id="d9293cddac"><path d="M 83.558594 51.277344 L 1041.441406 51.277344 C 1064.636719 51.277344 1083.441406 70.078125 1083.441406 93.277344 L 1083.441406 1051.160156 C 1083.441406 1074.355469 1064.636719 1093.160156 1041.441406 1093.160156 L 83.558594 1093.160156 C 60.363281 1093.160156 41.558594 1074.355469 41.558594 1051.160156 L 41.558594 93.277344 C 41.558594 70.078125 60.363281 51.277344 83.558594 51.277344 Z M 83.558594 51.277344 " clip-rule="nonzero"/></clipPath><clipPath id="c1e91063b6"><path d="M 41.40625 146 L 72 146 L 72 999 L 41.40625 999 Z M 41.40625 146 " clip-rule="nonzero"/></clipPath><clipPath id="0a41b1be10"><path d="M 40.65625 92.375 L 40.65625 1052.0625 C 40.65625 1075.257812 59.460938 1094.0625 82.65625 1094.0625 L 1042.34375 1094.0625 C 1065.539062 1094.0625 1084.34375 1075.257812 1084.34375 1052.0625 L 1084.34375 92.375 C 1084.34375 69.179688 1065.539062 50.375 1042.34375 50.375 L 82.65625 50.375 C 59.460938 50.375 40.65625 69.179688 40.65625 92.375 Z M 40.65625 92.375 " clip-rule="nonzero"/></clipPath><clipPath id="17b974f2bb"><path d="M 83.558594 51.277344 L 1041.441406 51.277344 C 1064.636719 51.277344 1083.441406 70.078125 1083.441406 93.277344 L 1083.441406 1051.160156 C 1083.441406 1074.355469 1064.636719 1093.160156 1041.441406 1093.160156 L 83.558594 1093.160156 C 60.363281 1093.160156 41.558594 1074.355469 41.558594 1051.160156 L 41.558594 93.277344 C 41.558594 70.078125 60.363281 51.277344 83.558594 51.277344 Z M 83.558594 51.277344 " clip-rule="nonzero"/></clipPath><clipPath id="fe7fc71648"><path d="M 136 51.125 L 989 51.125 L 989 82 L 136 82 Z M 136 51.125 " clip-rule="nonzero"/></clipPath><clipPath id="932a732f3a"><path d="M 40.65625 92.375 L 40.65625 1052.0625 C 40.65625 1075.257812 59.460938 1094.0625 82.65625 1094.0625 L 1042.34375 1094.0625 C 1065.539062 1094.0625 1084.34375 1075.257812 1084.34375 1052.0625 L 1084.34375 92.375 C 1084.34375 69.179688 1065.539062 50.375 1042.34375 50.375 L 82.65625 50.375 C 59.460938 50.375 40.65625 69.179688 40.65625 92.375 Z M 40.65625 92.375 " clip-rule="nonzero"/></clipPath><clipPath id="619c0744b9"><path d="M 83.558594 51.277344 L 1041.441406 51.277344 C 1064.636719 51.277344 1083.441406 70.078125 1083.441406 93.277344 L 1083.441406 1051.160156 C 1083.441406 1074.355469 1064.636719 1093.160156 1041.441406 1093.160156 L 83.558594 1093.160156 C 60.363281 1093.160156 41.558594 1074.355469 41.558594 1051.160156 L 41.558594 93.277344 C 41.558594 70.078125 60.363281 51.277344 83.558594 51.277344 Z M 83.558594 51.277344 " clip-rule="nonzero"/></clipPath><clipPath id="6abd1dbb50"><path d="M 136 1062 L 989 1062 L 989 1093.625 L 136 1093.625 Z M 136 1062 " clip-rule="nonzero"/></clipPath><clipPath id="48321b8678"><path d="M 40.65625 92.375 L 40.65625 1052.0625 C 40.65625 1075.257812 59.460938 1094.0625 82.65625 1094.0625 L 1042.34375 1094.0625 C 1065.539062 1094.0625 1084.34375 1075.257812 1084.34375 1052.0625 L 1084.34375 92.375 C 1084.34375 69.179688 1065.539062 50.375 1042.34375 50.375 L 82.65625 50.375 C 59.460938 50.375 40.65625 69.179688 40.65625 92.375 Z M 40.65625 92.375 " clip-rule="nonzero"/></clipPath><clipPath id="699603511e"><path d="M 83.558594 51.277344 L 1041.441406 51.277344 C 1064.636719 51.277344 1083.441406 70.078125 1083.441406 93.277344 L 1083.441406 1051.160156 C 1083.441406 1074.355469 1064.636719 1093.160156 1041.441406 1093.160156 L 83.558594 1093.160156 C 60.363281 1093.160156 41.558594 1074.355469 41.558594 1051.160156 L 41.558594 93.277344 C 41.558594 70.078125 60.363281 51.277344 83.558594 51.277344 Z M 83.558594 51.277344 " clip-rule="nonzero"/></clipPath><clipPath id="d0cbecaca4"><path d="M 988 51.125 L 1083.90625 51.125 L 1083.90625 147 L 988 147 Z M 988 51.125 " clip-rule="nonzero"/></clipPath><clipPath id="a2f56501d4"><path d="M 40.65625 92.375 L 40.65625 1052.0625 C 40.65625 1075.257812 59.460938 1094.0625 82.65625 1094.0625 L 1042.34375 1094.0625 C 1065.539062 1094.0625 1084.34375 1075.257812 1084.34375 1052.0625 L 1084.34375 92.375 C 1084.34375 69.179688 1065.539062 50.375 1042.34375 50.375 L 82.65625 50.375 C 59.460938 50.375 40.65625 69.179688 40.65625 92.375 Z M 40.65625 92.375 " clip-rule="nonzero"/></clipPath><clipPath id="d37829f485"><path d="M 83.558594 51.277344 L 1041.441406 51.277344 C 1064.636719 51.277344 1083.441406 70.078125 1083.441406 93.277344 L 1083.441406 1051.160156 C 1083.441406 1074.355469 1064.636719 1093.160156 1041.441406 1093.160156 L 83.558594 1093.160156 C 60.363281 1093.160156 41.558594 1074.355469 41.558594 1051.160156 L 41.558594 93.277344 C 41.558594 70.078125 60.363281 51.277344 83.558594 51.277344 Z M 83.558594 51.277344 " clip-rule="nonzero"/></clipPath><clipPath id="4a88b6fe78"><path d="M 41.40625 51.125 L 137 51.125 L 137 147 L 41.40625 147 Z M 41.40625 51.125 " clip-rule="nonzero"/></clipPath><clipPath id="cde1f5ca07"><path d="M 40.65625 92.375 L 40.65625 1052.0625 C 40.65625 1075.257812 59.460938 1094.0625 82.65625 1094.0625 L 1042.34375 1094.0625 C 1065.539062 1094.0625 1084.34375 1075.257812 1084.34375 1052.0625 L 1084.34375 92.375 C 1084.34375 69.179688 1065.539062 50.375 1042.34375 50.375 L 82.65625 50.375 C 59.460938 50.375 40.65625 69.179688 40.65625 92.375 Z M 40.65625 92.375 " clip-rule="nonzero"/></clipPath><clipPath id="69796d3bc2"><path d="M 83.558594 51.277344 L 1041.441406 51.277344 C 1064.636719 51.277344 1083.441406 70.078125 1083.441406 93.277344 L 1083.441406 1051.160156 C 1083.441406 1074.355469 1064.636719 1093.160156 1041.441406 1093.160156 L 83.558594 1093.160156 C 60.363281 1093.160156 41.558594 1074.355469 41.558594 1051.160156 L 41.558594 93.277344 C 41.558594 70.078125 60.363281 51.277344 83.558594 51.277344 Z M 83.558594 51.277344 " clip-rule="nonzero"/></clipPath><clipPath id="9e71c1a0c9"><path d="M 988 998 L 1083.90625 998 L 1083.90625 1093.625 L 988 1093.625 Z M 988 998 " clip-rule="nonzero"/></clipPath><clipPath id="7b1ac17b93"><path d="M 40.65625 92.375 L 40.65625 1052.0625 C 40.65625 1075.257812 59.460938 1094.0625 82.65625 1094.0625 L 1042.34375 1094.0625 C 1065.539062 1094.0625 1084.34375 1075.257812 1084.34375 1052.0625 L 1084.34375 92.375 C 1084.34375 69.179688 1065.539062 50.375 1042.34375 50.375 L 82.65625 50.375 C 59.460938 50.375 40.65625 69.179688 40.65625 92.375 Z M 40.65625 92.375 " clip-rule="nonzero"/></clipPath><clipPath id="fc7405b51b"><path d="M 83.558594 51.277344 L 1041.441406 51.277344 C 1064.636719 51.277344 1083.441406 70.078125 1083.441406 93.277344 L 1083.441406 1051.160156 C 1083.441406 1074.355469 1064.636719 1093.160156 1041.441406 1093.160156 L 83.558594 1093.160156 C 60.363281 1093.160156 41.558594 1074.355469 41.558594 1051.160156 L 41.558594 93.277344 C 41.558594 70.078125 60.363281 51.277344 83.558594 51.277344 Z M 83.558594 51.277344 " clip-rule="nonzero"/></clipPath><clipPath id="b7da68d9a4"><path d="M 41.40625 998 L 137 998 L 137 1093.625 L 41.40625 1093.625 Z M 41.40625 998 " clip-rule="nonzero"/></clipPath><clipPath id="327756bdf8"><path d="M 40.65625 92.375 L 40.65625 1052.0625 C 40.65625 1075.257812 59.460938 1094.0625 82.65625 1094.0625 L 1042.34375 1094.0625 C 1065.539062 1094.0625 1084.34375 1075.257812 1084.34375 1052.0625 L 1084.34375 92.375 C 1084.34375 69.179688 1065.539062 50.375 1042.34375 50.375 L 82.65625 50.375 C 59.460938 50.375 40.65625 69.179688 40.65625 92.375 Z M 40.65625 92.375 " clip-rule="nonzero"/></clipPath><clipPath id="bb08a56ac4"><path d="M 83.558594 51.277344 L 1041.441406 51.277344 C 1064.636719 51.277344 1083.441406 70.078125 1083.441406 93.277344 L 1083.441406 1051.160156 C 1083.441406 1074.355469 1064.636719 1093.160156 1041.441406 1093.160156 L 83.558594 1093.160156 C 60.363281 1093.160156 41.558594 1074.355469 41.558594 1051.160156 L 41.558594 93.277344 C 41.558594 70.078125 60.363281 51.277344 83.558594 51.277344 Z M 83.558594 51.277344 " clip-rule="nonzero"/></clipPath><clipPath id="2c7799d373"><path d="M 40.65625 50.375 L 1084.65625 50.375 L 1084.65625 1094.375 L 40.65625 1094.375 Z M 40.65625 50.375 " clip-rule="nonzero"/></clipPath><clipPath id="2938f408e3"><path d="M 40.65625 92.375 L 40.65625 1052.0625 C 40.65625 1075.257812 59.460938 1094.0625 82.65625 1094.0625 L 1042.34375 1094.0625 C 1065.539062 1094.0625 1084.34375 1075.257812 1084.34375 1052.0625 L 1084.34375 92.375 C 1084.34375 69.179688 1065.539062 50.375 1042.34375 50.375 L 82.65625 50.375 C 59.460938 50.375 40.65625 69.179688 40.65625 92.375 Z M 40.65625 92.375 " clip-rule="nonzero"/></clipPath><clipPath id="bdc9e61437"><path d="M 40.65625 92.375 L 40.65625 1052.058594 C 40.65625 1075.253906 59.460938 1094.058594 82.65625 1094.058594 L 1042.339844 1094.058594 C 1065.535156 1094.058594 1084.339844 1075.253906 1084.339844 1052.058594 L 1084.339844 92.375 C 1084.339844 69.179688 1065.535156 50.375 1042.339844 50.375 L 82.65625 50.375 C 59.460938 50.375 40.65625 69.179688 40.65625 92.375 Z M 40.65625 92.375 " clip-rule="nonzero"/></clipPath><clipPath id="e15fc2dd0c"><path d="M 132.554688 260 L 830 260 L 830 713 L 132.554688 713 Z M 132.554688 260 " clip-rule="nonzero"/></clipPath><clipPath id="6933a16b9b"><path d="M 132.554688 691 L 830 691 L 830 844 L 132.554688 844 Z M 132.554688 691 " clip-rule="nonzero"/></clipPath><clipPath id="b5f5583c93"><path d="M 875 458 L 1014.554688 458 L 1014.554688 637 L 875 637 Z M 875 458 " clip-rule="nonzero"/></clipPath><clipPath id="f886472e96"><path d="M 875 499 L 1014.554688 499 L 1014.554688 554 L 875 554 Z M 875 499 " clip-rule="nonzero"/></clipPath></defs><g clip-path="url(#2a26deb575)"><g clip-path="url(#03ecdcd648)"><g clip-path="url(#d9293cddac)"><path fill="#fc6a1f" d="M 1053.15625 146.011719 L 1084.339844 146.011719 L 1084.339844 998.421875 L 1053.15625 998.421875 Z M 1053.15625 146.011719 " fill-opacity="1" fill-rule="nonzero"/></g></g></g><g clip-path="url(#c1e91063b6)"><g clip-path="url(#0a41b1be10)"><g clip-path="url(#17b974f2bb)"><path fill="#fc6a1f" d="M 40.65625 146.011719 L 71.84375 146.011719 L 71.84375 998.421875 L 40.65625 998.421875 Z M 40.65625 146.011719 " fill-opacity="1" fill-rule="nonzero"/></g></g></g><g clip-path="url(#fe7fc71648)"><g clip-path="url(#932a732f3a)"><g clip-path="url(#619c0744b9)"><path fill="#fc6a1f" d="M 136.292969 50.375 L 988.703125 50.375 L 988.703125 81.5625 L 136.292969 81.5625 Z M 136.292969 50.375 " fill-opacity="1" fill-rule="nonzero"/></g></g></g><g clip-path="url(#6abd1dbb50)"><g clip-path="url(#48321b8678)"><g clip-path="url(#699603511e)"><path fill="#fc6a1f" d="M 136.292969 1062.875 L 988.703125 1062.875 L 988.703125 1094.058594 L 136.292969 1094.058594 Z M 136.292969 1062.875 " fill-opacity="1" fill-rule="nonzero"/></g></g></g><g clip-path="url(#d0cbecaca4)"><g clip-path="url(#a2f56501d4)"><g clip-path="url(#d37829f485)"><path fill="#fc6a1f" d="M 1053.15625 81.5625 L 1053.15625 146.011719 L 1084.339844 146.011719 L 1084.339844 50.375 L 988.703125 50.375 L 988.703125 81.5625 Z M 1053.15625 81.5625 " fill-opacity="1" fill-rule="nonzero"/></g></g></g><g clip-path="url(#4a88b6fe78)"><g clip-path="url(#cde1f5ca07)"><g clip-path="url(#69796d3bc2)"><path fill="#fc6a1f" d="M 71.84375 81.5625 L 136.292969 81.5625 L 136.292969 50.375 L 40.65625 50.375 L 40.65625 146.011719 L 71.84375 146.011719 Z M 71.84375 81.5625 " fill-opacity="1" fill-rule="nonzero"/></g></g></g><g clip-path="url(#9e71c1a0c9)"><g clip-path="url(#7b1ac17b93)"><g clip-path="url(#fc7405b51b)"><path fill="#fc6a1f" d="M 1053.15625 1062.875 L 988.703125 1062.875 L 988.703125 1094.058594 L 1084.339844 1094.058594 L 1084.339844 998.421875 L 1053.15625 998.421875 Z M 1053.15625 1062.875 " fill-opacity="1" fill-rule="nonzero"/></g></g></g><g clip-path="url(#b7da68d9a4)"><g clip-path="url(#327756bdf8)"><g clip-path="url(#bb08a56ac4)"><path fill="#fc6a1f" d="M 71.84375 1062.875 L 71.84375 998.421875 L 40.65625 998.421875 L 40.65625 1094.058594 L 136.292969 1094.058594 L 136.292969 1062.875 Z M 71.84375 1062.875 " fill-opacity="1" fill-rule="nonzero"/></g></g></g><g clip-path="url(#2c7799d373)"><g clip-path="url(#2938f408e3)"><g clip-path="url(#bdc9e61437)"><path stroke-linecap="butt" transform="matrix(0.75, 0, 0, 0.75, 40.657485, 50.375834)" fill="none" stroke-linejoin="miter" d="M -0.00164733 55.998893 L -0.00164733 1335.577128 C -0.00164733 1366.504214 25.071271 1391.577133 55.998357 1391.577133 L 1335.576593 1391.577133 C 1366.503679 1391.577133 1391.576597 1366.504214 1391.576597 1335.577128 L 1391.576597 55.998893 C 1391.576597 25.071807 1366.503679 -0.00111208 1335.576593 -0.00111208 L 55.998357 -0.00111208 C 25.071271 -0.00111208 -0.00164733 25.071807 -0.00164733 55.998893 Z M -0.00164733 55.998893 " stroke="#fc6a1f" stroke-width="66" stroke-opacity="1" stroke-miterlimit="4"/></g></g></g><path fill="#fc6a1f" d="M 762.246094 712.136719 L 199.820312 712.136719 C 194.128906 712.136719 189.472656 707.480469 189.472656 701.789062 L 189.472656 327.699219 C 189.472656 322.007812 194.128906 317.351562 199.820312 317.351562 L 762.246094 317.351562 C 767.9375 317.351562 772.59375 322.007812 772.59375 327.699219 L 772.59375 701.789062 C 772.59375 707.480469 767.9375 712.136719 762.246094 712.136719 Z M 210.167969 691.4375 L 751.898438 691.4375 L 751.898438 338.046875 L 210.167969 338.046875 Z M 210.167969 691.4375 " fill-opacity="1" fill-rule="evenodd"/><g clip-path="url(#e15fc2dd0c)"><path fill="#fc6a1f" d="M 819.160156 712.136719 L 142.902344 712.136719 C 137.210938 712.136719 132.554688 707.480469 132.554688 701.789062 L 132.554688 297.6875 C 132.554688 276.992188 149.113281 260.433594 169.292969 260.433594 L 792.773438 260.433594 C 812.953125 260.433594 829.507812 276.992188 829.507812 297.6875 L 829.507812 701.789062 C 829.507812 707.480469 824.851562 712.136719 819.160156 712.136719 Z M 153.253906 691.4375 L 808.8125 691.4375 L 808.8125 297.6875 C 808.8125 288.375 801.570312 281.132812 792.773438 281.132812 L 169.292969 281.132812 C 160.496094 281.132812 153.253906 288.375 153.253906 297.6875 Z M 153.253906 691.4375 " fill-opacity="1" fill-rule="evenodd"/></g><g clip-path="url(#6933a16b9b)"><path fill="#fc6a1f" d="M 358.148438 843.558594 L 169.292969 843.558594 C 149.113281 843.558594 132.554688 827 132.554688 806.304688 L 132.554688 701.789062 C 132.554688 696.09375 137.210938 691.4375 142.902344 691.4375 L 819.160156 691.4375 C 824.851562 691.4375 829.507812 696.09375 829.507812 701.789062 L 829.507812 732.316406 C 829.507812 752.492188 812.953125 769.566406 792.773438 769.566406 L 436.277344 769.566406 C 432.65625 775.777344 429.03125 782.503906 425.410156 788.710938 C 409.886719 816.652344 395.402344 843.558594 358.148438 843.558594 Z M 153.253906 712.136719 L 153.253906 806.304688 C 153.253906 815.617188 160.496094 822.863281 169.292969 822.863281 L 358.148438 822.863281 C 382.464844 822.863281 391.777344 807.855469 407.300781 778.882812 C 411.957031 770.601562 416.613281 761.808594 421.789062 753.527344 C 423.859375 750.425781 426.964844 748.871094 430.585938 748.871094 L 792.773438 748.871094 C 801.570312 748.871094 808.8125 741.109375 808.8125 732.316406 L 808.8125 712.136719 Z M 153.253906 712.136719 " fill-opacity="1" fill-rule="evenodd"/></g><path fill="#fc6a1f" d="M 203.957031 801.648438 C 198.265625 801.648438 193.609375 796.992188 193.609375 791.300781 L 193.609375 745.25 C 193.609375 739.558594 198.265625 734.902344 203.957031 734.902344 C 209.648438 734.902344 214.308594 739.558594 214.308594 745.25 L 214.308594 791.300781 C 214.308594 796.992188 209.648438 801.648438 203.957031 801.648438 Z M 203.957031 801.648438 " fill-opacity="1" fill-rule="evenodd"/><path fill="#fc6a1f" d="M 250.007812 801.128906 C 244.316406 801.128906 239.660156 796.472656 239.660156 790.78125 L 239.660156 744.730469 C 239.660156 739.039062 244.316406 734.382812 250.007812 734.382812 C 255.699219 734.382812 260.355469 739.039062 260.355469 744.730469 L 260.355469 790.78125 C 260.355469 796.472656 255.699219 801.128906 250.007812 801.128906 Z M 250.007812 801.128906 " fill-opacity="1" fill-rule="evenodd"/><path fill="#fc6a1f" d="M 296.058594 800.613281 C 290.367188 800.613281 285.710938 795.957031 285.710938 790.265625 L 285.710938 744.214844 C 285.710938 738.523438 290.367188 733.867188 296.058594 733.867188 C 301.75 733.867188 306.40625 738.523438 306.40625 744.214844 L 306.40625 790.265625 C 306.40625 795.957031 301.75 800.613281 296.058594 800.613281 Z M 296.058594 800.613281 " fill-opacity="1" fill-rule="evenodd"/><path fill="#fc6a1f" d="M 342.109375 800.09375 C 336.417969 800.09375 331.757812 795.4375 331.757812 789.746094 L 331.757812 743.699219 C 331.757812 738.007812 336.417969 733.347656 342.109375 733.347656 C 347.800781 733.347656 352.457031 738.007812 352.457031 743.699219 L 352.457031 789.746094 C 352.457031 795.4375 347.800781 800.09375 342.109375 800.09375 Z M 342.109375 800.09375 " fill-opacity="1" fill-rule="evenodd"/><path fill="#fc6a1f" d="M 869.351562 882.363281 L 629.789062 882.363281 C 582.1875 882.363281 543.898438 844.074219 543.898438 796.472656 L 543.898438 759.21875 C 543.898438 753.527344 548.554688 748.871094 554.246094 748.871094 C 559.9375 748.871094 564.59375 753.527344 564.59375 759.21875 L 564.59375 796.472656 C 564.59375 832.691406 593.570312 861.667969 629.789062 861.667969 L 869.351562 861.667969 C 905.570312 861.667969 934.542969 832.691406 934.542969 796.472656 L 934.542969 626.246094 C 934.542969 620.554688 939.199219 615.898438 944.890625 615.898438 C 950.585938 615.898438 955.242188 620.554688 955.242188 626.246094 L 955.242188 796.472656 C 955.242188 844.074219 916.953125 882.363281 869.351562 882.363281 Z M 869.351562 882.363281 " fill-opacity="1" fill-rule="evenodd"/><g clip-path="url(#b5f5583c93)"><path fill="#fc6a1f" d="M 944.890625 636.59375 C 906.605469 636.59375 875.558594 605.546875 875.558594 567.261719 L 875.558594 485.507812 C 875.558594 470.503906 887.460938 458.605469 901.949219 458.605469 L 987.835938 458.605469 C 1002.84375 458.605469 1014.742188 470.503906 1014.742188 485.507812 L 1014.742188 567.261719 C 1014.742188 605.546875 983.179688 636.59375 944.890625 636.59375 Z M 901.949219 479.300781 C 898.84375 479.300781 896.253906 482.40625 896.253906 485.507812 L 896.253906 567.261719 C 896.253906 594.164062 917.988281 615.898438 944.890625 615.898438 C 971.796875 615.898438 994.046875 594.164062 994.046875 567.261719 L 994.046875 485.507812 C 994.046875 482.40625 991.460938 479.300781 987.835938 479.300781 Z M 901.949219 479.300781 " fill-opacity="1" fill-rule="evenodd"/></g><g clip-path="url(#f886472e96)"><path fill="#fc6a1f" d="M 1004.394531 553.808594 L 885.90625 553.808594 C 879.699219 553.808594 875.558594 549.152344 875.558594 543.460938 L 875.558594 510.34375 C 875.558594 504.652344 880.214844 499.996094 885.90625 499.996094 L 1004.394531 499.996094 C 1010.085938 499.996094 1014.742188 504.652344 1014.742188 510.34375 L 1014.742188 543.460938 C 1014.742188 549.152344 1010.085938 553.808594 1004.394531 553.808594 Z M 896.253906 533.109375 L 994.046875 533.109375 L 994.046875 520.691406 L 896.253906 520.691406 Z M 896.253906 533.109375 " fill-opacity="1" fill-rule="evenodd"/></g><path fill="#fc6a1f" d="M 1000.773438 420.316406 C 998.1875 420.316406 995.597656 419.28125 993.527344 417.210938 C 966.625 390.824219 923.160156 390.824219 896.253906 417.210938 C 892.117188 421.351562 885.90625 421.351562 881.769531 417.210938 C 877.628906 413.589844 877.628906 406.863281 881.769531 402.722656 C 916.433594 368.054688 973.351562 368.054688 1008.015625 402.722656 C 1012.15625 406.863281 1012.15625 413.589844 1008.015625 417.210938 C 1006.464844 419.28125 1003.359375 420.316406 1000.773438 420.316406 Z M 1000.773438 420.316406 " fill-opacity="1" fill-rule="evenodd"/><path fill="#fc6a1f" d="M 981.628906 445.152344 C 978.523438 445.152344 975.9375 444.117188 973.867188 442.046875 C 957.828125 426.007812 931.957031 426.007812 915.917969 442.046875 C 911.777344 446.1875 905.570312 446.1875 901.429688 442.046875 C 897.289062 437.90625 897.289062 431.699219 901.429688 427.558594 C 925.230469 403.242188 964.554688 403.242188 988.871094 427.558594 C 992.496094 431.699219 992.496094 437.90625 988.871094 442.046875 C 986.804688 444.117188 984.214844 445.152344 981.628906 445.152344 Z M 981.628906 445.152344 " fill-opacity="1" fill-rule="evenodd"/><path fill="#fc6a1f" d="M 412.992188 465.847656 C 411.441406 465.847656 409.886719 465.847656 408.855469 464.8125 C 405.75 463.777344 403.679688 461.191406 402.644531 458.085938 L 395.402344 430.144531 C 393.332031 422.382812 396.4375 414.105469 402.644531 409.96875 L 394.367188 378.40625 C 392.8125 372.714844 395.917969 367.023438 401.609375 365.988281 L 432.136719 357.707031 C 437.3125 356.15625 443.003906 359.261719 444.554688 364.953125 L 453.351562 396.515625 C 460.59375 397.550781 466.804688 403.242188 468.875 410.484375 L 477.152344 441.011719 C 478.1875 444.117188 477.667969 447.738281 475.601562 450.324219 C 473.53125 452.910156 470.425781 454.464844 467.320312 454.464844 C 449.730469 454.464844 433.171875 457.570312 420.753906 463.261719 C 419.71875 463.777344 418.683594 464.296875 417.648438 464.8125 C 416.097656 465.328125 414.546875 465.847656 412.992188 465.847656 Z M 415.582031 426.523438 L 419.71875 441.527344 C 430.066406 437.390625 441.449219 435.320312 453.867188 434.285156 L 449.210938 417.210938 L 448.175781 417.726562 C 442.484375 419.28125 436.792969 416.175781 435.242188 410.484375 L 427.480469 380.472656 L 417.132812 383.0625 L 424.894531 413.070312 C 426.445312 418.761719 423.339844 424.453125 417.648438 426.007812 Z M 415.582031 426.523438 " fill-opacity="1" fill-rule="evenodd"/><path fill="#fc6a1f" d="M 470.425781 672.8125 C 450.246094 672.8125 430.066406 659.359375 410.40625 632.972656 C 390.746094 606.582031 377.808594 573.46875 370.046875 532.59375 C 362.285156 491.71875 377.292969 460.671875 412.476562 444.117188 C 432.136719 435.320312 460.078125 431.699219 486.984375 434.800781 C 503.539062 412.035156 529.410156 399.101562 557.351562 399.101562 C 559.421875 399.101562 561.492188 399.617188 563.042969 400.652344 L 589.429688 417.726562 C 593.050781 420.316406 595.121094 424.972656 593.570312 429.628906 C 592.535156 433.769531 588.394531 436.871094 583.738281 436.871094 C 568.214844 436.871094 553.210938 442.5625 541.3125 452.394531 C 545.449219 455.5 549.074219 458.085938 552.175781 461.191406 C 600.8125 508.792969 554.765625 593.128906 532.515625 627.796875 C 512.855469 657.289062 492.15625 672.8125 470.425781 672.8125 Z M 467.320312 454.464844 C 449.730469 454.464844 433.171875 457.570312 420.753906 463.261719 C 394.882812 475.160156 384.535156 497.410156 390.226562 528.972656 C 397.46875 566.742188 409.371094 596.753906 426.964844 620.554688 C 442.484375 641.25 456.972656 652.117188 470.425781 652.117188 C 484.394531 652.117188 499.402344 639.699219 514.921875 616.414062 C 529.929688 593.128906 576.496094 513.964844 537.6875 476.195312 C 533.03125 471.539062 527.339844 467.917969 519.578125 464.296875 C 516.992188 463.261719 514.921875 460.671875 513.886719 457.570312 C 513.371094 453.945312 513.886719 450.84375 515.957031 448.253906 C 526.824219 435.320312 540.792969 426.007812 555.796875 420.832031 L 554.246094 419.796875 C 532.515625 420.832031 512.855469 432.214844 500.4375 451.359375 C 498.367188 454.980469 494.226562 456.535156 490.085938 456.015625 C 482.84375 454.980469 475.082031 454.464844 467.320312 454.464844 Z M 467.320312 454.464844 " fill-opacity="1" fill-rule="evenodd"/><path fill="#fc6a1f" d="M 505.609375 584.851562 C 505.09375 584.851562 504.574219 584.335938 504.058594 584.335938 C 485.429688 581.230469 473.53125 568.8125 471.460938 550.703125 C 470.425781 546.046875 470.941406 542.941406 471.460938 540.871094 C 470.941406 540.355469 470.425781 539.320312 469.390625 538.285156 C 457.492188 520.691406 441.96875 528.972656 438.863281 530.523438 C 433.691406 533.628906 427.480469 532.074219 424.375 527.417969 C 421.789062 522.246094 422.824219 516.035156 427.996094 512.933594 C 439.898438 505.6875 467.839844 498.445312 486.464844 526.382812 C 491.121094 533.628906 492.675781 537.25 491.640625 543.460938 C 491.640625 544.492188 491.640625 546.046875 491.640625 548.632812 C 492.675781 557.429688 497.847656 562.601562 507.679688 564.15625 C 512.855469 565.191406 516.992188 570.363281 515.957031 576.054688 C 514.921875 581.230469 510.785156 584.851562 505.609375 584.851562 Z M 505.609375 584.851562 " fill-opacity="1" fill-rule="evenodd"/><path fill="#fc6a1f" d="M 456.457031 586.921875 C 456.457031 586.921875 455.9375 586.921875 455.9375 586.921875 C 450.246094 586.40625 446.105469 581.746094 446.105469 576.054688 C 448.175781 544.492188 468.875 532.59375 479.738281 530.523438 C 485.429688 529.488281 490.605469 533.109375 491.640625 538.800781 C 492.675781 544.492188 489.050781 549.667969 483.878906 550.703125 C 481.808594 551.21875 468.355469 554.84375 466.804688 577.089844 C 466.804688 582.265625 462.148438 586.921875 456.457031 586.921875 Z M 456.457031 586.921875 " fill-opacity="1" fill-rule="evenodd"/></svg>