<svg xmlns="http://www.w3.org/2000/svg" xmlns:xlink="http://www.w3.org/1999/xlink" width="1500" zoomAndPan="magnify" viewBox="0 0 1125 1124.99995" height="1500" preserveAspectRatio="xMidYMid meet" version="1.0"><defs><clipPath id="1edb7e1e96"><path d="M 1053 146 L 1083.90625 146 L 1083.90625 999 L 1053 999 Z M 1053 146 " clip-rule="nonzero"/></clipPath><clipPath id="c92800eb27"><path d="M 40.65625 92.375 L 40.65625 1052.0625 C 40.65625 1075.257812 59.460938 1094.0625 82.65625 1094.0625 L 1042.34375 1094.0625 C 1065.539062 1094.0625 1084.34375 1075.257812 1084.34375 1052.0625 L 1084.34375 92.375 C 1084.34375 69.179688 1065.539062 50.375 1042.34375 50.375 L 82.65625 50.375 C 59.460938 50.375 40.65625 69.179688 40.65625 92.375 Z M 40.65625 92.375 " clip-rule="nonzero"/></clipPath><clipPath id="cd157ba067"><path d="M 83.558594 51.277344 L 1041.441406 51.277344 C 1064.636719 51.277344 1083.441406 70.078125 1083.441406 93.277344 L 1083.441406 1051.160156 C 1083.441406 1074.355469 1064.636719 1093.160156 1041.441406 1093.160156 L 83.558594 1093.160156 C 60.363281 1093.160156 41.558594 1074.355469 41.558594 1051.160156 L 41.558594 93.277344 C 41.558594 70.078125 60.363281 51.277344 83.558594 51.277344 Z M 83.558594 51.277344 " clip-rule="nonzero"/></clipPath><clipPath id="f480d68798"><path d="M 41.40625 146 L 72 146 L 72 999 L 41.40625 999 Z M 41.40625 146 " clip-rule="nonzero"/></clipPath><clipPath id="992e8c61f0"><path d="M 40.65625 92.375 L 40.65625 1052.0625 C 40.65625 1075.257812 59.460938 1094.0625 82.65625 1094.0625 L 1042.34375 1094.0625 C 1065.539062 1094.0625 1084.34375 1075.257812 1084.34375 1052.0625 L 1084.34375 92.375 C 1084.34375 69.179688 1065.539062 50.375 1042.34375 50.375 L 82.65625 50.375 C 59.460938 50.375 40.65625 69.179688 40.65625 92.375 Z M 40.65625 92.375 " clip-rule="nonzero"/></clipPath><clipPath id="e077cbd0fa"><path d="M 83.558594 51.277344 L 1041.441406 51.277344 C 1064.636719 51.277344 1083.441406 70.078125 1083.441406 93.277344 L 1083.441406 1051.160156 C 1083.441406 1074.355469 1064.636719 1093.160156 1041.441406 1093.160156 L 83.558594 1093.160156 C 60.363281 1093.160156 41.558594 1074.355469 41.558594 1051.160156 L 41.558594 93.277344 C 41.558594 70.078125 60.363281 51.277344 83.558594 51.277344 Z M 83.558594 51.277344 " clip-rule="nonzero"/></clipPath><clipPath id="b2cff869df"><path d="M 136 51.125 L 989 51.125 L 989 82 L 136 82 Z M 136 51.125 " clip-rule="nonzero"/></clipPath><clipPath id="4529747a64"><path d="M 40.65625 92.375 L 40.65625 1052.0625 C 40.65625 1075.257812 59.460938 1094.0625 82.65625 1094.0625 L 1042.34375 1094.0625 C 1065.539062 1094.0625 1084.34375 1075.257812 1084.34375 1052.0625 L 1084.34375 92.375 C 1084.34375 69.179688 1065.539062 50.375 1042.34375 50.375 L 82.65625 50.375 C 59.460938 50.375 40.65625 69.179688 40.65625 92.375 Z M 40.65625 92.375 " clip-rule="nonzero"/></clipPath><clipPath id="53df240f55"><path d="M 83.558594 51.277344 L 1041.441406 51.277344 C 1064.636719 51.277344 1083.441406 70.078125 1083.441406 93.277344 L 1083.441406 1051.160156 C 1083.441406 1074.355469 1064.636719 1093.160156 1041.441406 1093.160156 L 83.558594 1093.160156 C 60.363281 1093.160156 41.558594 1074.355469 41.558594 1051.160156 L 41.558594 93.277344 C 41.558594 70.078125 60.363281 51.277344 83.558594 51.277344 Z M 83.558594 51.277344 " clip-rule="nonzero"/></clipPath><clipPath id="dfe59273f7"><path d="M 136 1062 L 989 1062 L 989 1093.625 L 136 1093.625 Z M 136 1062 " clip-rule="nonzero"/></clipPath><clipPath id="3e3e0b18e4"><path d="M 40.65625 92.375 L 40.65625 1052.0625 C 40.65625 1075.257812 59.460938 1094.0625 82.65625 1094.0625 L 1042.34375 1094.0625 C 1065.539062 1094.0625 1084.34375 1075.257812 1084.34375 1052.0625 L 1084.34375 92.375 C 1084.34375 69.179688 1065.539062 50.375 1042.34375 50.375 L 82.65625 50.375 C 59.460938 50.375 40.65625 69.179688 40.65625 92.375 Z M 40.65625 92.375 " clip-rule="nonzero"/></clipPath><clipPath id="05fec430a3"><path d="M 83.558594 51.277344 L 1041.441406 51.277344 C 1064.636719 51.277344 1083.441406 70.078125 1083.441406 93.277344 L 1083.441406 1051.160156 C 1083.441406 1074.355469 1064.636719 1093.160156 1041.441406 1093.160156 L 83.558594 1093.160156 C 60.363281 1093.160156 41.558594 1074.355469 41.558594 1051.160156 L 41.558594 93.277344 C 41.558594 70.078125 60.363281 51.277344 83.558594 51.277344 Z M 83.558594 51.277344 " clip-rule="nonzero"/></clipPath><clipPath id="0ef0012501"><path d="M 988 51.125 L 1083.90625 51.125 L 1083.90625 147 L 988 147 Z M 988 51.125 " clip-rule="nonzero"/></clipPath><clipPath id="ecc52a7b2a"><path d="M 40.65625 92.375 L 40.65625 1052.0625 C 40.65625 1075.257812 59.460938 1094.0625 82.65625 1094.0625 L 1042.34375 1094.0625 C 1065.539062 1094.0625 1084.34375 1075.257812 1084.34375 1052.0625 L 1084.34375 92.375 C 1084.34375 69.179688 1065.539062 50.375 1042.34375 50.375 L 82.65625 50.375 C 59.460938 50.375 40.65625 69.179688 40.65625 92.375 Z M 40.65625 92.375 " clip-rule="nonzero"/></clipPath><clipPath id="3cf4bbcec7"><path d="M 83.558594 51.277344 L 1041.441406 51.277344 C 1064.636719 51.277344 1083.441406 70.078125 1083.441406 93.277344 L 1083.441406 1051.160156 C 1083.441406 1074.355469 1064.636719 1093.160156 1041.441406 1093.160156 L 83.558594 1093.160156 C 60.363281 1093.160156 41.558594 1074.355469 41.558594 1051.160156 L 41.558594 93.277344 C 41.558594 70.078125 60.363281 51.277344 83.558594 51.277344 Z M 83.558594 51.277344 " clip-rule="nonzero"/></clipPath><clipPath id="0ae0dc8551"><path d="M 41.40625 51.125 L 137 51.125 L 137 147 L 41.40625 147 Z M 41.40625 51.125 " clip-rule="nonzero"/></clipPath><clipPath id="be0c14c749"><path d="M 40.65625 92.375 L 40.65625 1052.0625 C 40.65625 1075.257812 59.460938 1094.0625 82.65625 1094.0625 L 1042.34375 1094.0625 C 1065.539062 1094.0625 1084.34375 1075.257812 1084.34375 1052.0625 L 1084.34375 92.375 C 1084.34375 69.179688 1065.539062 50.375 1042.34375 50.375 L 82.65625 50.375 C 59.460938 50.375 40.65625 69.179688 40.65625 92.375 Z M 40.65625 92.375 " clip-rule="nonzero"/></clipPath><clipPath id="2dd1b61f4f"><path d="M 83.558594 51.277344 L 1041.441406 51.277344 C 1064.636719 51.277344 1083.441406 70.078125 1083.441406 93.277344 L 1083.441406 1051.160156 C 1083.441406 1074.355469 1064.636719 1093.160156 1041.441406 1093.160156 L 83.558594 1093.160156 C 60.363281 1093.160156 41.558594 1074.355469 41.558594 1051.160156 L 41.558594 93.277344 C 41.558594 70.078125 60.363281 51.277344 83.558594 51.277344 Z M 83.558594 51.277344 " clip-rule="nonzero"/></clipPath><clipPath id="30a563a227"><path d="M 988 998 L 1083.90625 998 L 1083.90625 1093.625 L 988 1093.625 Z M 988 998 " clip-rule="nonzero"/></clipPath><clipPath id="badc983f84"><path d="M 40.65625 92.375 L 40.65625 1052.0625 C 40.65625 1075.257812 59.460938 1094.0625 82.65625 1094.0625 L 1042.34375 1094.0625 C 1065.539062 1094.0625 1084.34375 1075.257812 1084.34375 1052.0625 L 1084.34375 92.375 C 1084.34375 69.179688 1065.539062 50.375 1042.34375 50.375 L 82.65625 50.375 C 59.460938 50.375 40.65625 69.179688 40.65625 92.375 Z M 40.65625 92.375 " clip-rule="nonzero"/></clipPath><clipPath id="26cccf9e93"><path d="M 83.558594 51.277344 L 1041.441406 51.277344 C 1064.636719 51.277344 1083.441406 70.078125 1083.441406 93.277344 L 1083.441406 1051.160156 C 1083.441406 1074.355469 1064.636719 1093.160156 1041.441406 1093.160156 L 83.558594 1093.160156 C 60.363281 1093.160156 41.558594 1074.355469 41.558594 1051.160156 L 41.558594 93.277344 C 41.558594 70.078125 60.363281 51.277344 83.558594 51.277344 Z M 83.558594 51.277344 " clip-rule="nonzero"/></clipPath><clipPath id="1fb4982dfe"><path d="M 41.40625 998 L 137 998 L 137 1093.625 L 41.40625 1093.625 Z M 41.40625 998 " clip-rule="nonzero"/></clipPath><clipPath id="9296738f34"><path d="M 40.65625 92.375 L 40.65625 1052.0625 C 40.65625 1075.257812 59.460938 1094.0625 82.65625 1094.0625 L 1042.34375 1094.0625 C 1065.539062 1094.0625 1084.34375 1075.257812 1084.34375 1052.0625 L 1084.34375 92.375 C 1084.34375 69.179688 1065.539062 50.375 1042.34375 50.375 L 82.65625 50.375 C 59.460938 50.375 40.65625 69.179688 40.65625 92.375 Z M 40.65625 92.375 " clip-rule="nonzero"/></clipPath><clipPath id="a3efba4ebb"><path d="M 83.558594 51.277344 L 1041.441406 51.277344 C 1064.636719 51.277344 1083.441406 70.078125 1083.441406 93.277344 L 1083.441406 1051.160156 C 1083.441406 1074.355469 1064.636719 1093.160156 1041.441406 1093.160156 L 83.558594 1093.160156 C 60.363281 1093.160156 41.558594 1074.355469 41.558594 1051.160156 L 41.558594 93.277344 C 41.558594 70.078125 60.363281 51.277344 83.558594 51.277344 Z M 83.558594 51.277344 " clip-rule="nonzero"/></clipPath><clipPath id="d371a0b7d9"><path d="M 40.65625 50.375 L 1084.65625 50.375 L 1084.65625 1094.375 L 40.65625 1094.375 Z M 40.65625 50.375 " clip-rule="nonzero"/></clipPath><clipPath id="6cea654c0f"><path d="M 40.65625 92.375 L 40.65625 1052.0625 C 40.65625 1075.257812 59.460938 1094.0625 82.65625 1094.0625 L 1042.34375 1094.0625 C 1065.539062 1094.0625 1084.34375 1075.257812 1084.34375 1052.0625 L 1084.34375 92.375 C 1084.34375 69.179688 1065.539062 50.375 1042.34375 50.375 L 82.65625 50.375 C 59.460938 50.375 40.65625 69.179688 40.65625 92.375 Z M 40.65625 92.375 " clip-rule="nonzero"/></clipPath><clipPath id="f05dc785b7"><path d="M 40.65625 92.375 L 40.65625 1052.058594 C 40.65625 1075.253906 59.460938 1094.058594 82.65625 1094.058594 L 1042.339844 1094.058594 C 1065.535156 1094.058594 1084.339844 1075.253906 1084.339844 1052.058594 L 1084.339844 92.375 C 1084.339844 69.179688 1065.535156 50.375 1042.339844 50.375 L 82.65625 50.375 C 59.460938 50.375 40.65625 69.179688 40.65625 92.375 Z M 40.65625 92.375 " clip-rule="nonzero"/></clipPath><clipPath id="dcaeefc6f8"><path d="M 211.234375 818 L 918.300781 818 L 918.300781 979.773438 L 211.234375 979.773438 Z M 211.234375 818 " clip-rule="nonzero"/></clipPath><clipPath id="e182682fb7"><path d="M 552 145.191406 L 577 145.191406 L 577 254 L 552 254 Z M 552 145.191406 " clip-rule="nonzero"/></clipPath><clipPath id="7cb9f8c2ab"><path d="M 127.238281 565 L 236 565 L 236 590 L 127.238281 590 Z M 127.238281 565 " clip-rule="nonzero"/></clipPath><clipPath id="df23e90163"><path d="M 889 570 L 997.988281 570 L 997.988281 595 L 889 595 Z M 889 570 " clip-rule="nonzero"/></clipPath></defs><g clip-path="url(#1edb7e1e96)"><g clip-path="url(#c92800eb27)"><g clip-path="url(#cd157ba067)"><path fill="#fc6a1f" d="M 1053.15625 146.011719 L 1084.339844 146.011719 L 1084.339844 998.421875 L 1053.15625 998.421875 Z M 1053.15625 146.011719 " fill-opacity="1" fill-rule="nonzero"/></g></g></g><g clip-path="url(#f480d68798)"><g clip-path="url(#992e8c61f0)"><g clip-path="url(#e077cbd0fa)"><path fill="#fc6a1f" d="M 40.65625 146.011719 L 71.84375 146.011719 L 71.84375 998.421875 L 40.65625 998.421875 Z M 40.65625 146.011719 " fill-opacity="1" fill-rule="nonzero"/></g></g></g><g clip-path="url(#b2cff869df)"><g clip-path="url(#4529747a64)"><g clip-path="url(#53df240f55)"><path fill="#fc6a1f" d="M 136.292969 50.375 L 988.703125 50.375 L 988.703125 81.5625 L 136.292969 81.5625 Z M 136.292969 50.375 " fill-opacity="1" fill-rule="nonzero"/></g></g></g><g clip-path="url(#dfe59273f7)"><g clip-path="url(#3e3e0b18e4)"><g clip-path="url(#05fec430a3)"><path fill="#fc6a1f" d="M 136.292969 1062.875 L 988.703125 1062.875 L 988.703125 1094.058594 L 136.292969 1094.058594 Z M 136.292969 1062.875 " fill-opacity="1" fill-rule="nonzero"/></g></g></g><g clip-path="url(#0ef0012501)"><g clip-path="url(#ecc52a7b2a)"><g clip-path="url(#3cf4bbcec7)"><path fill="#fc6a1f" d="M 1053.15625 81.5625 L 1053.15625 146.011719 L 1084.339844 146.011719 L 1084.339844 50.375 L 988.703125 50.375 L 988.703125 81.5625 Z M 1053.15625 81.5625 " fill-opacity="1" fill-rule="nonzero"/></g></g></g><g clip-path="url(#0ae0dc8551)"><g clip-path="url(#be0c14c749)"><g clip-path="url(#2dd1b61f4f)"><path fill="#fc6a1f" d="M 71.84375 81.5625 L 136.292969 81.5625 L 136.292969 50.375 L 40.65625 50.375 L 40.65625 146.011719 L 71.84375 146.011719 Z M 71.84375 81.5625 " fill-opacity="1" fill-rule="nonzero"/></g></g></g><g clip-path="url(#30a563a227)"><g clip-path="url(#badc983f84)"><g clip-path="url(#26cccf9e93)"><path fill="#fc6a1f" d="M 1053.15625 1062.875 L 988.703125 1062.875 L 988.703125 1094.058594 L 1084.339844 1094.058594 L 1084.339844 998.421875 L 1053.15625 998.421875 Z M 1053.15625 1062.875 " fill-opacity="1" fill-rule="nonzero"/></g></g></g><g clip-path="url(#1fb4982dfe)"><g clip-path="url(#9296738f34)"><g clip-path="url(#a3efba4ebb)"><path fill="#fc6a1f" d="M 71.84375 1062.875 L 71.84375 998.421875 L 40.65625 998.421875 L 40.65625 1094.058594 L 136.292969 1094.058594 L 136.292969 1062.875 Z M 71.84375 1062.875 " fill-opacity="1" fill-rule="nonzero"/></g></g></g><g clip-path="url(#d371a0b7d9)"><g clip-path="url(#6cea654c0f)"><g clip-path="url(#f05dc785b7)"><path stroke-linecap="butt" transform="matrix(0.75, 0, 0, 0.75, 40.657485, 50.375868)" fill="none" stroke-linejoin="miter" d="M -0.00164733 55.998848 L -0.00164733 1335.577083 C -0.00164733 1366.504169 25.071271 1391.577088 55.998357 1391.577088 L 1335.576593 1391.577088 C 1366.503679 1391.577088 1391.576597 1366.504169 1391.576597 1335.577083 L 1391.576597 55.998848 C 1391.576597 25.071762 1366.503679 -0.00115688 1335.576593 -0.00115688 L 55.998357 -0.00115688 C 25.071271 -0.00115688 -0.00164733 25.071762 -0.00164733 55.998848 Z M -0.00164733 55.998848 " stroke="#fc6a1f" stroke-width="66" stroke-opacity="1" stroke-miterlimit="4"/></g></g></g><path fill="#fc6a1f" d="M 341.367188 818.085938 L 788.425781 818.085938 L 788.425781 567.988281 C 788.425781 444.734375 688.152344 344.460938 564.898438 344.460938 C 441.644531 344.460938 341.367188 444.734375 341.367188 567.988281 Z M 800.363281 841.957031 L 329.433594 841.957031 C 322.839844 841.957031 317.496094 836.613281 317.496094 830.019531 L 317.496094 567.988281 C 317.496094 534.59375 324.039062 502.195312 336.941406 471.6875 C 349.40625 442.222656 367.242188 415.765625 389.957031 393.050781 C 412.675781 370.332031 439.132812 352.496094 468.59375 340.035156 C 499.101562 327.128906 531.503906 320.585938 564.898438 320.585938 C 598.292969 320.585938 630.691406 327.128906 661.199219 340.035156 C 690.660156 352.496094 717.117188 370.332031 739.835938 393.050781 C 762.554688 415.765625 780.386719 442.222656 792.851562 471.6875 C 805.753906 502.195312 812.296875 534.59375 812.296875 567.988281 L 812.296875 830.019531 C 812.296875 836.613281 806.957031 841.957031 800.363281 841.957031 " fill-opacity="1" fill-rule="nonzero"/><g clip-path="url(#dcaeefc6f8)"><path fill="#fc6a1f" d="M 239.171875 955.902344 L 890.621094 955.902344 L 860.824219 841.957031 L 268.972656 841.957031 Z M 906.082031 979.773438 L 223.714844 979.773438 C 220.015625 979.773438 216.527344 978.0625 214.265625 975.136719 C 212.007812 972.207031 211.230469 968.394531 212.164062 964.816406 L 248.207031 827.003906 C 249.582031 821.75 254.324219 818.085938 259.753906 818.085938 L 870.039062 818.085938 C 875.46875 818.085938 880.210938 821.75 881.589844 827.003906 L 917.628906 964.816406 C 918.5625 968.394531 917.789062 972.207031 915.527344 975.136719 C 913.269531 978.0625 909.78125 979.773438 906.082031 979.773438 " fill-opacity="1" fill-rule="nonzero"/></g><g clip-path="url(#e182682fb7)"><path fill="#fc6a1f" d="M 564.898438 253.160156 C 558.304688 253.160156 552.960938 247.8125 552.960938 241.226562 L 552.960938 157.128906 C 552.960938 150.535156 558.304688 145.191406 564.898438 145.191406 C 571.488281 145.191406 576.832031 150.535156 576.832031 157.128906 L 576.832031 241.226562 C 576.832031 247.8125 571.488281 253.160156 564.898438 253.160156 " fill-opacity="1" fill-rule="nonzero"/></g><path fill="#fc6a1f" d="M 395.195312 297.347656 C 391.070312 297.347656 387.058594 295.203125 384.847656 291.378906 L 342.800781 218.546875 C 339.503906 212.839844 341.460938 205.542969 347.167969 202.246094 C 352.878906 198.949219 360.179688 200.902344 363.476562 206.609375 L 405.523438 279.441406 C 408.820312 285.148438 406.863281 292.445312 401.152344 295.742188 C 399.273438 296.828125 397.21875 297.347656 395.195312 297.347656 " fill-opacity="1" fill-rule="nonzero"/><path fill="#fc6a1f" d="M 270.292969 420.46875 C 268.265625 420.46875 266.214844 419.953125 264.335938 418.867188 L 191.507812 376.824219 C 185.796875 373.527344 183.84375 366.222656 187.140625 360.515625 C 190.433594 354.804688 197.734375 352.851562 203.441406 356.144531 L 276.269531 398.195312 C 281.980469 401.492188 283.9375 408.789062 280.640625 414.5 C 278.429688 418.328125 274.417969 420.46875 270.292969 420.46875 " fill-opacity="1" fill-rule="nonzero"/><g clip-path="url(#7cb9f8c2ab)"><path fill="#fc6a1f" d="M 223.714844 589.535156 L 139.621094 589.535156 C 133.027344 589.535156 127.683594 584.191406 127.683594 577.601562 C 127.683594 571.007812 133.027344 565.664062 139.621094 565.664062 L 223.714844 565.664062 C 230.308594 565.664062 235.648438 571.007812 235.648438 577.601562 C 235.648438 584.191406 230.308594 589.535156 223.714844 589.535156 " fill-opacity="1" fill-rule="nonzero"/></g><g clip-path="url(#df23e90163)"><path fill="#fc6a1f" d="M 985.371094 594.339844 L 901.277344 594.339844 C 894.683594 594.339844 889.34375 588.996094 889.34375 582.40625 C 889.34375 575.8125 894.683594 570.46875 901.277344 570.46875 L 985.371094 570.46875 C 991.964844 570.46875 997.304688 575.8125 997.304688 582.40625 C 997.304688 588.996094 991.964844 594.339844 985.371094 594.339844 " fill-opacity="1" fill-rule="nonzero"/></g><path fill="#fc6a1f" d="M 857.097656 424.628906 C 852.976562 424.628906 848.964844 422.488281 846.753906 418.660156 C 843.457031 412.953125 845.414062 405.652344 851.117188 402.355469 L 923.949219 360.304688 C 929.65625 357.015625 936.953125 358.972656 940.253906 364.675781 C 943.550781 370.390625 941.59375 377.6875 935.886719 380.984375 L 863.054688 423.03125 C 861.179688 424.113281 859.125 424.628906 857.097656 424.628906 " fill-opacity="1" fill-rule="nonzero"/><path fill="#fc6a1f" d="M 733.953125 299.75 C 731.929688 299.75 729.875 299.234375 727.996094 298.148438 C 722.289062 294.851562 720.332031 287.554688 723.628906 281.84375 L 765.671875 209.015625 C 768.96875 203.308594 776.273438 201.351562 781.980469 204.644531 C 787.691406 207.941406 789.648438 215.246094 786.351562 220.949219 L 744.304688 293.777344 C 742.089844 297.609375 738.078125 299.75 733.953125 299.75 " fill-opacity="1" fill-rule="nonzero"/><path fill="#fc6a1f" d="M 599.4375 841.957031 C 592.847656 841.957031 587.503906 836.609375 587.503906 830.019531 L 587.503906 675.988281 C 587.503906 671.703125 589.800781 667.746094 593.523438 665.625 C 611.546875 655.332031 622.742188 636.066406 622.742188 615.339844 C 622.742188 583.445312 596.796875 557.496094 564.898438 557.496094 C 533 557.496094 507.046875 583.445312 507.046875 615.339844 C 507.046875 636.066406 518.246094 655.332031 536.269531 665.625 C 539.992188 667.746094 542.289062 671.703125 542.289062 675.988281 L 542.289062 830.019531 C 542.289062 836.609375 536.945312 841.957031 530.351562 841.957031 C 523.761719 841.957031 518.417969 836.609375 518.417969 830.019531 L 518.417969 682.558594 C 496.519531 667.382812 483.175781 642.234375 483.175781 615.339844 C 483.175781 570.28125 519.835938 533.625 564.898438 533.625 C 609.957031 533.625 646.613281 570.28125 646.613281 615.339844 C 646.613281 642.234375 633.277344 667.382812 611.375 682.558594 L 611.375 830.019531 C 611.375 836.609375 606.03125 841.957031 599.4375 841.957031 " fill-opacity="1" fill-rule="nonzero"/></svg>