<svg xmlns="http://www.w3.org/2000/svg" xmlns:xlink="http://www.w3.org/1999/xlink" width="1500" zoomAndPan="magnify" viewBox="0 0 1125 1124.99995" height="1500" preserveAspectRatio="xMidYMid meet" version="1.0"><defs><clipPath id="f0700ed11b"><path d="M 156.304688 155.289062 L 963 155.289062 L 963 969.789062 L 156.304688 969.789062 Z M 156.304688 155.289062 " clip-rule="nonzero"/></clipPath><clipPath id="a1def051b4"><path d="M 1053 146 L 1083.90625 146 L 1083.90625 999 L 1053 999 Z M 1053 146 " clip-rule="nonzero"/></clipPath><clipPath id="572bdfebf4"><path d="M 40.65625 92.375 L 40.65625 1052.0625 C 40.65625 1075.257812 59.460938 1094.0625 82.65625 1094.0625 L 1042.34375 1094.0625 C 1065.539062 1094.0625 1084.34375 1075.257812 1084.34375 1052.0625 L 1084.34375 92.375 C 1084.34375 69.179688 1065.539062 50.375 1042.34375 50.375 L 82.65625 50.375 C 59.460938 50.375 40.65625 69.179688 40.65625 92.375 Z M 40.65625 92.375 " clip-rule="nonzero"/></clipPath><clipPath id="521c128f0e"><path d="M 83.558594 51.277344 L 1041.441406 51.277344 C 1064.636719 51.277344 1083.441406 70.082031 1083.441406 93.277344 L 1083.441406 1051.160156 C 1083.441406 1074.355469 1064.636719 1093.160156 1041.441406 1093.160156 L 83.558594 1093.160156 C 60.363281 1093.160156 41.558594 1074.355469 41.558594 1051.160156 L 41.558594 93.277344 C 41.558594 70.082031 60.363281 51.277344 83.558594 51.277344 Z M 83.558594 51.277344 " clip-rule="nonzero"/></clipPath><clipPath id="c197c3e375"><path d="M 41.40625 146 L 72 146 L 72 999 L 41.40625 999 Z M 41.40625 146 " clip-rule="nonzero"/></clipPath><clipPath id="4b41dd95e3"><path d="M 40.65625 92.375 L 40.65625 1052.0625 C 40.65625 1075.257812 59.460938 1094.0625 82.65625 1094.0625 L 1042.34375 1094.0625 C 1065.539062 1094.0625 1084.34375 1075.257812 1084.34375 1052.0625 L 1084.34375 92.375 C 1084.34375 69.179688 1065.539062 50.375 1042.34375 50.375 L 82.65625 50.375 C 59.460938 50.375 40.65625 69.179688 40.65625 92.375 Z M 40.65625 92.375 " clip-rule="nonzero"/></clipPath><clipPath id="09838c37da"><path d="M 83.558594 51.277344 L 1041.441406 51.277344 C 1064.636719 51.277344 1083.441406 70.082031 1083.441406 93.277344 L 1083.441406 1051.160156 C 1083.441406 1074.355469 1064.636719 1093.160156 1041.441406 1093.160156 L 83.558594 1093.160156 C 60.363281 1093.160156 41.558594 1074.355469 41.558594 1051.160156 L 41.558594 93.277344 C 41.558594 70.082031 60.363281 51.277344 83.558594 51.277344 Z M 83.558594 51.277344 " clip-rule="nonzero"/></clipPath><clipPath id="8845030af9"><path d="M 136 51.125 L 989 51.125 L 989 82 L 136 82 Z M 136 51.125 " clip-rule="nonzero"/></clipPath><clipPath id="4f3a7f0016"><path d="M 40.65625 92.375 L 40.65625 1052.0625 C 40.65625 1075.257812 59.460938 1094.0625 82.65625 1094.0625 L 1042.34375 1094.0625 C 1065.539062 1094.0625 1084.34375 1075.257812 1084.34375 1052.0625 L 1084.34375 92.375 C 1084.34375 69.179688 1065.539062 50.375 1042.34375 50.375 L 82.65625 50.375 C 59.460938 50.375 40.65625 69.179688 40.65625 92.375 Z M 40.65625 92.375 " clip-rule="nonzero"/></clipPath><clipPath id="353d75cac9"><path d="M 83.558594 51.277344 L 1041.441406 51.277344 C 1064.636719 51.277344 1083.441406 70.082031 1083.441406 93.277344 L 1083.441406 1051.160156 C 1083.441406 1074.355469 1064.636719 1093.160156 1041.441406 1093.160156 L 83.558594 1093.160156 C 60.363281 1093.160156 41.558594 1074.355469 41.558594 1051.160156 L 41.558594 93.277344 C 41.558594 70.082031 60.363281 51.277344 83.558594 51.277344 Z M 83.558594 51.277344 " clip-rule="nonzero"/></clipPath><clipPath id="60e15387b1"><path d="M 136 1062 L 989 1062 L 989 1093.625 L 136 1093.625 Z M 136 1062 " clip-rule="nonzero"/></clipPath><clipPath id="8108bf3d35"><path d="M 40.65625 92.375 L 40.65625 1052.0625 C 40.65625 1075.257812 59.460938 1094.0625 82.65625 1094.0625 L 1042.34375 1094.0625 C 1065.539062 1094.0625 1084.34375 1075.257812 1084.34375 1052.0625 L 1084.34375 92.375 C 1084.34375 69.179688 1065.539062 50.375 1042.34375 50.375 L 82.65625 50.375 C 59.460938 50.375 40.65625 69.179688 40.65625 92.375 Z M 40.65625 92.375 " clip-rule="nonzero"/></clipPath><clipPath id="cd222c385b"><path d="M 83.558594 51.277344 L 1041.441406 51.277344 C 1064.636719 51.277344 1083.441406 70.082031 1083.441406 93.277344 L 1083.441406 1051.160156 C 1083.441406 1074.355469 1064.636719 1093.160156 1041.441406 1093.160156 L 83.558594 1093.160156 C 60.363281 1093.160156 41.558594 1074.355469 41.558594 1051.160156 L 41.558594 93.277344 C 41.558594 70.082031 60.363281 51.277344 83.558594 51.277344 Z M 83.558594 51.277344 " clip-rule="nonzero"/></clipPath><clipPath id="ede8bf472c"><path d="M 988 51.125 L 1083.90625 51.125 L 1083.90625 147 L 988 147 Z M 988 51.125 " clip-rule="nonzero"/></clipPath><clipPath id="0f4e16e5c5"><path d="M 40.65625 92.375 L 40.65625 1052.0625 C 40.65625 1075.257812 59.460938 1094.0625 82.65625 1094.0625 L 1042.34375 1094.0625 C 1065.539062 1094.0625 1084.34375 1075.257812 1084.34375 1052.0625 L 1084.34375 92.375 C 1084.34375 69.179688 1065.539062 50.375 1042.34375 50.375 L 82.65625 50.375 C 59.460938 50.375 40.65625 69.179688 40.65625 92.375 Z M 40.65625 92.375 " clip-rule="nonzero"/></clipPath><clipPath id="d07b06cccd"><path d="M 83.558594 51.277344 L 1041.441406 51.277344 C 1064.636719 51.277344 1083.441406 70.082031 1083.441406 93.277344 L 1083.441406 1051.160156 C 1083.441406 1074.355469 1064.636719 1093.160156 1041.441406 1093.160156 L 83.558594 1093.160156 C 60.363281 1093.160156 41.558594 1074.355469 41.558594 1051.160156 L 41.558594 93.277344 C 41.558594 70.082031 60.363281 51.277344 83.558594 51.277344 Z M 83.558594 51.277344 " clip-rule="nonzero"/></clipPath><clipPath id="18dfe1c09a"><path d="M 41.40625 51.125 L 137 51.125 L 137 147 L 41.40625 147 Z M 41.40625 51.125 " clip-rule="nonzero"/></clipPath><clipPath id="6aced17c49"><path d="M 40.65625 92.375 L 40.65625 1052.0625 C 40.65625 1075.257812 59.460938 1094.0625 82.65625 1094.0625 L 1042.34375 1094.0625 C 1065.539062 1094.0625 1084.34375 1075.257812 1084.34375 1052.0625 L 1084.34375 92.375 C 1084.34375 69.179688 1065.539062 50.375 1042.34375 50.375 L 82.65625 50.375 C 59.460938 50.375 40.65625 69.179688 40.65625 92.375 Z M 40.65625 92.375 " clip-rule="nonzero"/></clipPath><clipPath id="dd52193c27"><path d="M 83.558594 51.277344 L 1041.441406 51.277344 C 1064.636719 51.277344 1083.441406 70.082031 1083.441406 93.277344 L 1083.441406 1051.160156 C 1083.441406 1074.355469 1064.636719 1093.160156 1041.441406 1093.160156 L 83.558594 1093.160156 C 60.363281 1093.160156 41.558594 1074.355469 41.558594 1051.160156 L 41.558594 93.277344 C 41.558594 70.082031 60.363281 51.277344 83.558594 51.277344 Z M 83.558594 51.277344 " clip-rule="nonzero"/></clipPath><clipPath id="9ae71dd8a5"><path d="M 988 998 L 1083.90625 998 L 1083.90625 1093.625 L 988 1093.625 Z M 988 998 " clip-rule="nonzero"/></clipPath><clipPath id="89c082c944"><path d="M 40.65625 92.375 L 40.65625 1052.0625 C 40.65625 1075.257812 59.460938 1094.0625 82.65625 1094.0625 L 1042.34375 1094.0625 C 1065.539062 1094.0625 1084.34375 1075.257812 1084.34375 1052.0625 L 1084.34375 92.375 C 1084.34375 69.179688 1065.539062 50.375 1042.34375 50.375 L 82.65625 50.375 C 59.460938 50.375 40.65625 69.179688 40.65625 92.375 Z M 40.65625 92.375 " clip-rule="nonzero"/></clipPath><clipPath id="7aee98a81e"><path d="M 83.558594 51.277344 L 1041.441406 51.277344 C 1064.636719 51.277344 1083.441406 70.082031 1083.441406 93.277344 L 1083.441406 1051.160156 C 1083.441406 1074.355469 1064.636719 1093.160156 1041.441406 1093.160156 L 83.558594 1093.160156 C 60.363281 1093.160156 41.558594 1074.355469 41.558594 1051.160156 L 41.558594 93.277344 C 41.558594 70.082031 60.363281 51.277344 83.558594 51.277344 Z M 83.558594 51.277344 " clip-rule="nonzero"/></clipPath><clipPath id="5b5bed137f"><path d="M 41.40625 998 L 137 998 L 137 1093.625 L 41.40625 1093.625 Z M 41.40625 998 " clip-rule="nonzero"/></clipPath><clipPath id="7425588db3"><path d="M 40.65625 92.375 L 40.65625 1052.0625 C 40.65625 1075.257812 59.460938 1094.0625 82.65625 1094.0625 L 1042.34375 1094.0625 C 1065.539062 1094.0625 1084.34375 1075.257812 1084.34375 1052.0625 L 1084.34375 92.375 C 1084.34375 69.179688 1065.539062 50.375 1042.34375 50.375 L 82.65625 50.375 C 59.460938 50.375 40.65625 69.179688 40.65625 92.375 Z M 40.65625 92.375 " clip-rule="nonzero"/></clipPath><clipPath id="5d36a7cea6"><path d="M 83.558594 51.277344 L 1041.441406 51.277344 C 1064.636719 51.277344 1083.441406 70.082031 1083.441406 93.277344 L 1083.441406 1051.160156 C 1083.441406 1074.355469 1064.636719 1093.160156 1041.441406 1093.160156 L 83.558594 1093.160156 C 60.363281 1093.160156 41.558594 1074.355469 41.558594 1051.160156 L 41.558594 93.277344 C 41.558594 70.082031 60.363281 51.277344 83.558594 51.277344 Z M 83.558594 51.277344 " clip-rule="nonzero"/></clipPath><clipPath id="726d7f98f9"><path d="M 40.65625 50.375 L 1084.65625 50.375 L 1084.65625 1094.375 L 40.65625 1094.375 Z M 40.65625 50.375 " clip-rule="nonzero"/></clipPath><clipPath id="73d66a2d79"><path d="M 40.65625 92.375 L 40.65625 1052.0625 C 40.65625 1075.257812 59.460938 1094.0625 82.65625 1094.0625 L 1042.34375 1094.0625 C 1065.539062 1094.0625 1084.34375 1075.257812 1084.34375 1052.0625 L 1084.34375 92.375 C 1084.34375 69.179688 1065.539062 50.375 1042.34375 50.375 L 82.65625 50.375 C 59.460938 50.375 40.65625 69.179688 40.65625 92.375 Z M 40.65625 92.375 " clip-rule="nonzero"/></clipPath><clipPath id="ccadf29910"><path d="M 40.65625 92.375 L 40.65625 1052.058594 C 40.65625 1075.253906 59.460938 1094.058594 82.65625 1094.058594 L 1042.339844 1094.058594 C 1065.535156 1094.058594 1084.339844 1075.253906 1084.339844 1052.058594 L 1084.339844 92.375 C 1084.339844 69.179688 1065.535156 50.375 1042.339844 50.375 L 82.65625 50.375 C 59.460938 50.375 40.65625 69.179688 40.65625 92.375 Z M 40.65625 92.375 " clip-rule="nonzero"/></clipPath></defs><g clip-path="url(#f0700ed11b)"><path fill="#fc6a1f" d="M 397.0625 656.417969 L 295.515625 656.417969 C 285.027344 656.417969 276.445312 647.835938 276.445312 637.347656 L 276.445312 559.636719 L 196.828125 559.636719 C 186.339844 559.636719 177.757812 551.054688 177.757812 540.566406 L 177.757812 438.542969 C 177.757812 428.054688 186.339844 419.472656 196.828125 419.472656 L 276.445312 419.472656 L 276.445312 339.855469 C 276.445312 329.367188 285.027344 320.785156 295.515625 320.785156 L 397.0625 320.785156 C 407.550781 320.785156 416.132812 329.367188 416.132812 339.855469 L 416.132812 419.472656 L 494.320312 419.472656 C 504.808594 419.472656 513.390625 428.054688 513.390625 438.542969 L 513.390625 540.566406 C 513.390625 551.054688 504.808594 559.636719 494.320312 559.636719 L 416.132812 559.636719 L 416.132812 637.347656 C 416.132812 647.835938 407.550781 656.417969 397.0625 656.417969 Z M 589.671875 969.640625 C 426.621094 969.640625 359.878906 815.648438 318.878906 845.683594 C 278.832031 874.765625 302.191406 905.277344 289.320312 921.488281 C 286.457031 925.300781 281.691406 928.164062 276.445312 928.640625 C 272.632812 928.640625 179.667969 937.222656 157.734375 870.953125 C 156.78125 867.617188 156.304688 863.800781 157.257812 860.464844 C 176.804688 777.035156 212.5625 726.5 265.480469 706 C 360.355469 669.289062 479.542969 741.753906 536.75 693.125 C 564.878906 669.289062 578.703125 616.847656 579.660156 531.984375 C 580.136719 482.878906 559.15625 444.261719 536.75 402.785156 C 505.285156 343.191406 468.574219 275.972656 496.226562 169.65625 C 498.609375 161.550781 506.238281 155.355469 514.820312 155.355469 L 608.738281 155.355469 C 619.707031 155.355469 628.761719 165.367188 627.808594 176.808594 C 624.472656 201.597656 621.613281 265.007812 637.820312 306.007812 C 749.855469 195.878906 869.519531 281.214844 926.730469 414.703125 C 956.765625 483.832031 968.683594 561.542969 960.101562 627.8125 C 958.671875 677.394531 942.464844 728.882812 912.429688 776.558594 C 845.207031 885.730469 714.101562 969.640625 589.671875 969.640625 Z M 330.320312 803.253906 C 388.960938 803.253906 433.296875 894.3125 529.601562 922.917969 C 603.972656 945.324219 696.9375 923.394531 778.9375 863.800781 C 864.753906 801.824219 919.578125 710.289062 921.964844 625.90625 C 921.964844 625.425781 921.964844 624.472656 921.964844 623.996094 C 930.066406 563.925781 919.101562 493.367188 891.929688 429.484375 C 864.753906 366.554688 825.660156 320.308594 784.660156 302.191406 C 737.9375 281.691406 692.648438 297.902344 648.785156 350.34375 C 640.683594 359.878906 626.378906 359.402344 619.226562 349.867188 C 585.855469 307.4375 585.378906 231.15625 587.761719 193.492188 L 530.078125 193.492188 C 498.132812 344.144531 619.707031 399.925781 618.273438 532.460938 C 613.984375 873.8125 396.585938 696.464844 279.785156 741.753906 C 240.214844 756.535156 213.039062 796.582031 196.351562 863.324219 C 206.839844 884.300781 235.921875 889.546875 255.46875 890.5 C 258.328125 836.628906 298.855469 803.253906 330.320312 803.253906 Z M 581.089844 865.230469 C 562.972656 865.230469 544.855469 862.847656 528.644531 857.605469 C 504.332031 850.453125 515.296875 814.21875 539.132812 821.371094 C 595.390625 837.582031 666.425781 818.511719 725.542969 772.265625 C 745.566406 756.535156 769.402344 786.570312 749.378906 802.300781 C 697.414062 842.824219 636.867188 865.230469 581.089844 865.230469 Z M 314.585938 618.277344 L 377.992188 618.277344 L 377.992188 540.566406 C 377.992188 530.078125 386.574219 521.496094 397.0625 521.496094 L 475.25 521.496094 L 475.25 457.613281 L 397.0625 457.613281 C 386.574219 457.613281 377.992188 449.03125 377.992188 438.542969 L 377.992188 358.925781 L 314.585938 358.925781 L 314.585938 438.542969 C 314.585938 449.03125 306.003906 457.613281 295.515625 457.613281 L 215.898438 457.613281 L 215.898438 521.496094 L 295.515625 521.496094 C 306.003906 521.496094 314.585938 530.078125 314.585938 540.566406 Z M 314.585938 618.277344 " fill-opacity="1" fill-rule="evenodd"/></g><g clip-path="url(#a1def051b4)"><g clip-path="url(#572bdfebf4)"><g clip-path="url(#521c128f0e)"><path fill="#fc6a1f" d="M 1053.15625 146.011719 L 1084.339844 146.011719 L 1084.339844 998.421875 L 1053.15625 998.421875 Z M 1053.15625 146.011719 " fill-opacity="1" fill-rule="nonzero"/></g></g></g><g clip-path="url(#c197c3e375)"><g clip-path="url(#4b41dd95e3)"><g clip-path="url(#09838c37da)"><path fill="#fc6a1f" d="M 40.65625 146.011719 L 71.84375 146.011719 L 71.84375 998.421875 L 40.65625 998.421875 Z M 40.65625 146.011719 " fill-opacity="1" fill-rule="nonzero"/></g></g></g><g clip-path="url(#8845030af9)"><g clip-path="url(#4f3a7f0016)"><g clip-path="url(#353d75cac9)"><path fill="#fc6a1f" d="M 136.292969 50.375 L 988.703125 50.375 L 988.703125 81.5625 L 136.292969 81.5625 Z M 136.292969 50.375 " fill-opacity="1" fill-rule="nonzero"/></g></g></g><g clip-path="url(#60e15387b1)"><g clip-path="url(#8108bf3d35)"><g clip-path="url(#cd222c385b)"><path fill="#fc6a1f" d="M 136.292969 1062.875 L 988.703125 1062.875 L 988.703125 1094.058594 L 136.292969 1094.058594 Z M 136.292969 1062.875 " fill-opacity="1" fill-rule="nonzero"/></g></g></g><g clip-path="url(#ede8bf472c)"><g clip-path="url(#0f4e16e5c5)"><g clip-path="url(#d07b06cccd)"><path fill="#fc6a1f" d="M 1053.15625 81.5625 L 1053.15625 146.011719 L 1084.339844 146.011719 L 1084.339844 50.375 L 988.703125 50.375 L 988.703125 81.5625 Z M 1053.15625 81.5625 " fill-opacity="1" fill-rule="nonzero"/></g></g></g><g clip-path="url(#18dfe1c09a)"><g clip-path="url(#6aced17c49)"><g clip-path="url(#dd52193c27)"><path fill="#fc6a1f" d="M 71.84375 81.5625 L 136.292969 81.5625 L 136.292969 50.375 L 40.65625 50.375 L 40.65625 146.011719 L 71.84375 146.011719 Z M 71.84375 81.5625 " fill-opacity="1" fill-rule="nonzero"/></g></g></g><g clip-path="url(#9ae71dd8a5)"><g clip-path="url(#89c082c944)"><g clip-path="url(#7aee98a81e)"><path fill="#fc6a1f" d="M 1053.15625 1062.875 L 988.703125 1062.875 L 988.703125 1094.058594 L 1084.339844 1094.058594 L 1084.339844 998.421875 L 1053.15625 998.421875 Z M 1053.15625 1062.875 " fill-opacity="1" fill-rule="nonzero"/></g></g></g><g clip-path="url(#5b5bed137f)"><g clip-path="url(#7425588db3)"><g clip-path="url(#5d36a7cea6)"><path fill="#fc6a1f" d="M 71.84375 1062.875 L 71.84375 998.421875 L 40.65625 998.421875 L 40.65625 1094.058594 L 136.292969 1094.058594 L 136.292969 1062.875 Z M 71.84375 1062.875 " fill-opacity="1" fill-rule="nonzero"/></g></g></g><g clip-path="url(#726d7f98f9)"><g clip-path="url(#73d66a2d79)"><g clip-path="url(#ccadf29910)"><path stroke-linecap="butt" transform="matrix(0.75, 0, 0, 0.75, 40.657485, 50.376069)" fill="none" stroke-linejoin="miter" d="M -0.00164733 55.998579 L -0.00164733 1335.576814 C -0.00164733 1366.5039 25.071271 1391.576819 55.998357 1391.576819 L 1335.576593 1391.576819 C 1366.503679 1391.576819 1391.576597 1366.5039 1391.576597 1335.576814 L 1391.576597 55.998579 C 1391.576597 25.071493 1366.503679 -0.00142568 1335.576593 -0.00142568 L 55.998357 -0.00142568 C 25.071271 -0.00142568 -0.00164733 25.071493 -0.00164733 55.998579 Z M -0.00164733 55.998579 " stroke="#fc6a1f" stroke-width="66" stroke-opacity="1" stroke-miterlimit="4"/></g></g></g></svg>