<svg xmlns="http://www.w3.org/2000/svg" xmlns:xlink="http://www.w3.org/1999/xlink" width="1500" zoomAndPan="magnify" viewBox="0 0 1125 1124.99995" height="1500" preserveAspectRatio="xMidYMid meet" version="1.0"><defs><clipPath id="d2fb4280c5"><path d="M 526 878 L 769 878 L 769 974.367188 L 526 974.367188 Z M 526 878 " clip-rule="nonzero"/></clipPath><clipPath id="8b35c1b695"><path d="M 813 821 L 967 821 L 967 974.367188 L 813 974.367188 Z M 813 821 " clip-rule="nonzero"/></clipPath><clipPath id="4e8178709b"><path d="M 188.433594 150.867188 L 674 150.867188 L 674 868 L 188.433594 868 Z M 188.433594 150.867188 " clip-rule="nonzero"/></clipPath><clipPath id="4f5feb2ee6"><path d="M 1053 146 L 1083.90625 146 L 1083.90625 999 L 1053 999 Z M 1053 146 " clip-rule="nonzero"/></clipPath><clipPath id="203d5d445d"><path d="M 40.65625 92.375 L 40.65625 1052.0625 C 40.65625 1075.257812 59.460938 1094.0625 82.65625 1094.0625 L 1042.34375 1094.0625 C 1065.539062 1094.0625 1084.34375 1075.257812 1084.34375 1052.0625 L 1084.34375 92.375 C 1084.34375 69.179688 1065.539062 50.375 1042.34375 50.375 L 82.65625 50.375 C 59.460938 50.375 40.65625 69.179688 40.65625 92.375 Z M 40.65625 92.375 " clip-rule="nonzero"/></clipPath><clipPath id="1e292b5eff"><path d="M 83.558594 51.277344 L 1041.441406 51.277344 C 1064.636719 51.277344 1083.441406 70.078125 1083.441406 93.277344 L 1083.441406 1051.160156 C 1083.441406 1074.355469 1064.636719 1093.160156 1041.441406 1093.160156 L 83.558594 1093.160156 C 60.363281 1093.160156 41.558594 1074.355469 41.558594 1051.160156 L 41.558594 93.277344 C 41.558594 70.078125 60.363281 51.277344 83.558594 51.277344 Z M 83.558594 51.277344 " clip-rule="nonzero"/></clipPath><clipPath id="9b77482834"><path d="M 41.40625 146 L 72 146 L 72 999 L 41.40625 999 Z M 41.40625 146 " clip-rule="nonzero"/></clipPath><clipPath id="58ddbc3393"><path d="M 40.65625 92.375 L 40.65625 1052.0625 C 40.65625 1075.257812 59.460938 1094.0625 82.65625 1094.0625 L 1042.34375 1094.0625 C 1065.539062 1094.0625 1084.34375 1075.257812 1084.34375 1052.0625 L 1084.34375 92.375 C 1084.34375 69.179688 1065.539062 50.375 1042.34375 50.375 L 82.65625 50.375 C 59.460938 50.375 40.65625 69.179688 40.65625 92.375 Z M 40.65625 92.375 " clip-rule="nonzero"/></clipPath><clipPath id="27665644b0"><path d="M 83.558594 51.277344 L 1041.441406 51.277344 C 1064.636719 51.277344 1083.441406 70.078125 1083.441406 93.277344 L 1083.441406 1051.160156 C 1083.441406 1074.355469 1064.636719 1093.160156 1041.441406 1093.160156 L 83.558594 1093.160156 C 60.363281 1093.160156 41.558594 1074.355469 41.558594 1051.160156 L 41.558594 93.277344 C 41.558594 70.078125 60.363281 51.277344 83.558594 51.277344 Z M 83.558594 51.277344 " clip-rule="nonzero"/></clipPath><clipPath id="ee02671e87"><path d="M 136 51.125 L 989 51.125 L 989 82 L 136 82 Z M 136 51.125 " clip-rule="nonzero"/></clipPath><clipPath id="a83294c572"><path d="M 40.65625 92.375 L 40.65625 1052.0625 C 40.65625 1075.257812 59.460938 1094.0625 82.65625 1094.0625 L 1042.34375 1094.0625 C 1065.539062 1094.0625 1084.34375 1075.257812 1084.34375 1052.0625 L 1084.34375 92.375 C 1084.34375 69.179688 1065.539062 50.375 1042.34375 50.375 L 82.65625 50.375 C 59.460938 50.375 40.65625 69.179688 40.65625 92.375 Z M 40.65625 92.375 " clip-rule="nonzero"/></clipPath><clipPath id="c115d8cd97"><path d="M 83.558594 51.277344 L 1041.441406 51.277344 C 1064.636719 51.277344 1083.441406 70.078125 1083.441406 93.277344 L 1083.441406 1051.160156 C 1083.441406 1074.355469 1064.636719 1093.160156 1041.441406 1093.160156 L 83.558594 1093.160156 C 60.363281 1093.160156 41.558594 1074.355469 41.558594 1051.160156 L 41.558594 93.277344 C 41.558594 70.078125 60.363281 51.277344 83.558594 51.277344 Z M 83.558594 51.277344 " clip-rule="nonzero"/></clipPath><clipPath id="b78d80193f"><path d="M 136 1062 L 989 1062 L 989 1093.625 L 136 1093.625 Z M 136 1062 " clip-rule="nonzero"/></clipPath><clipPath id="6322a37a1e"><path d="M 40.65625 92.375 L 40.65625 1052.0625 C 40.65625 1075.257812 59.460938 1094.0625 82.65625 1094.0625 L 1042.34375 1094.0625 C 1065.539062 1094.0625 1084.34375 1075.257812 1084.34375 1052.0625 L 1084.34375 92.375 C 1084.34375 69.179688 1065.539062 50.375 1042.34375 50.375 L 82.65625 50.375 C 59.460938 50.375 40.65625 69.179688 40.65625 92.375 Z M 40.65625 92.375 " clip-rule="nonzero"/></clipPath><clipPath id="fd282418fa"><path d="M 83.558594 51.277344 L 1041.441406 51.277344 C 1064.636719 51.277344 1083.441406 70.078125 1083.441406 93.277344 L 1083.441406 1051.160156 C 1083.441406 1074.355469 1064.636719 1093.160156 1041.441406 1093.160156 L 83.558594 1093.160156 C 60.363281 1093.160156 41.558594 1074.355469 41.558594 1051.160156 L 41.558594 93.277344 C 41.558594 70.078125 60.363281 51.277344 83.558594 51.277344 Z M 83.558594 51.277344 " clip-rule="nonzero"/></clipPath><clipPath id="8bdd4e1872"><path d="M 988 51.125 L 1083.90625 51.125 L 1083.90625 147 L 988 147 Z M 988 51.125 " clip-rule="nonzero"/></clipPath><clipPath id="ad7ae0f156"><path d="M 40.65625 92.375 L 40.65625 1052.0625 C 40.65625 1075.257812 59.460938 1094.0625 82.65625 1094.0625 L 1042.34375 1094.0625 C 1065.539062 1094.0625 1084.34375 1075.257812 1084.34375 1052.0625 L 1084.34375 92.375 C 1084.34375 69.179688 1065.539062 50.375 1042.34375 50.375 L 82.65625 50.375 C 59.460938 50.375 40.65625 69.179688 40.65625 92.375 Z M 40.65625 92.375 " clip-rule="nonzero"/></clipPath><clipPath id="5291a16ccc"><path d="M 83.558594 51.277344 L 1041.441406 51.277344 C 1064.636719 51.277344 1083.441406 70.078125 1083.441406 93.277344 L 1083.441406 1051.160156 C 1083.441406 1074.355469 1064.636719 1093.160156 1041.441406 1093.160156 L 83.558594 1093.160156 C 60.363281 1093.160156 41.558594 1074.355469 41.558594 1051.160156 L 41.558594 93.277344 C 41.558594 70.078125 60.363281 51.277344 83.558594 51.277344 Z M 83.558594 51.277344 " clip-rule="nonzero"/></clipPath><clipPath id="5afb7e3c46"><path d="M 41.40625 51.125 L 137 51.125 L 137 147 L 41.40625 147 Z M 41.40625 51.125 " clip-rule="nonzero"/></clipPath><clipPath id="b25a8e1430"><path d="M 40.65625 92.375 L 40.65625 1052.0625 C 40.65625 1075.257812 59.460938 1094.0625 82.65625 1094.0625 L 1042.34375 1094.0625 C 1065.539062 1094.0625 1084.34375 1075.257812 1084.34375 1052.0625 L 1084.34375 92.375 C 1084.34375 69.179688 1065.539062 50.375 1042.34375 50.375 L 82.65625 50.375 C 59.460938 50.375 40.65625 69.179688 40.65625 92.375 Z M 40.65625 92.375 " clip-rule="nonzero"/></clipPath><clipPath id="ad89e819d2"><path d="M 83.558594 51.277344 L 1041.441406 51.277344 C 1064.636719 51.277344 1083.441406 70.078125 1083.441406 93.277344 L 1083.441406 1051.160156 C 1083.441406 1074.355469 1064.636719 1093.160156 1041.441406 1093.160156 L 83.558594 1093.160156 C 60.363281 1093.160156 41.558594 1074.355469 41.558594 1051.160156 L 41.558594 93.277344 C 41.558594 70.078125 60.363281 51.277344 83.558594 51.277344 Z M 83.558594 51.277344 " clip-rule="nonzero"/></clipPath><clipPath id="54f0dd3288"><path d="M 988 998 L 1083.90625 998 L 1083.90625 1093.625 L 988 1093.625 Z M 988 998 " clip-rule="nonzero"/></clipPath><clipPath id="098dbcc32d"><path d="M 40.65625 92.375 L 40.65625 1052.0625 C 40.65625 1075.257812 59.460938 1094.0625 82.65625 1094.0625 L 1042.34375 1094.0625 C 1065.539062 1094.0625 1084.34375 1075.257812 1084.34375 1052.0625 L 1084.34375 92.375 C 1084.34375 69.179688 1065.539062 50.375 1042.34375 50.375 L 82.65625 50.375 C 59.460938 50.375 40.65625 69.179688 40.65625 92.375 Z M 40.65625 92.375 " clip-rule="nonzero"/></clipPath><clipPath id="27f02962a4"><path d="M 83.558594 51.277344 L 1041.441406 51.277344 C 1064.636719 51.277344 1083.441406 70.078125 1083.441406 93.277344 L 1083.441406 1051.160156 C 1083.441406 1074.355469 1064.636719 1093.160156 1041.441406 1093.160156 L 83.558594 1093.160156 C 60.363281 1093.160156 41.558594 1074.355469 41.558594 1051.160156 L 41.558594 93.277344 C 41.558594 70.078125 60.363281 51.277344 83.558594 51.277344 Z M 83.558594 51.277344 " clip-rule="nonzero"/></clipPath><clipPath id="78b0767496"><path d="M 41.40625 998 L 137 998 L 137 1093.625 L 41.40625 1093.625 Z M 41.40625 998 " clip-rule="nonzero"/></clipPath><clipPath id="5d26d8aa24"><path d="M 40.65625 92.375 L 40.65625 1052.0625 C 40.65625 1075.257812 59.460938 1094.0625 82.65625 1094.0625 L 1042.34375 1094.0625 C 1065.539062 1094.0625 1084.34375 1075.257812 1084.34375 1052.0625 L 1084.34375 92.375 C 1084.34375 69.179688 1065.539062 50.375 1042.34375 50.375 L 82.65625 50.375 C 59.460938 50.375 40.65625 69.179688 40.65625 92.375 Z M 40.65625 92.375 " clip-rule="nonzero"/></clipPath><clipPath id="7b67a6ddad"><path d="M 83.558594 51.277344 L 1041.441406 51.277344 C 1064.636719 51.277344 1083.441406 70.078125 1083.441406 93.277344 L 1083.441406 1051.160156 C 1083.441406 1074.355469 1064.636719 1093.160156 1041.441406 1093.160156 L 83.558594 1093.160156 C 60.363281 1093.160156 41.558594 1074.355469 41.558594 1051.160156 L 41.558594 93.277344 C 41.558594 70.078125 60.363281 51.277344 83.558594 51.277344 Z M 83.558594 51.277344 " clip-rule="nonzero"/></clipPath><clipPath id="2bf97b4880"><path d="M 40.65625 50.375 L 1084.65625 50.375 L 1084.65625 1094.375 L 40.65625 1094.375 Z M 40.65625 50.375 " clip-rule="nonzero"/></clipPath><clipPath id="c9a659babd"><path d="M 40.65625 92.375 L 40.65625 1052.0625 C 40.65625 1075.257812 59.460938 1094.0625 82.65625 1094.0625 L 1042.34375 1094.0625 C 1065.539062 1094.0625 1084.34375 1075.257812 1084.34375 1052.0625 L 1084.34375 92.375 C 1084.34375 69.179688 1065.539062 50.375 1042.34375 50.375 L 82.65625 50.375 C 59.460938 50.375 40.65625 69.179688 40.65625 92.375 Z M 40.65625 92.375 " clip-rule="nonzero"/></clipPath><clipPath id="baa2c5399f"><path d="M 40.65625 92.375 L 40.65625 1052.058594 C 40.65625 1075.253906 59.460938 1094.058594 82.65625 1094.058594 L 1042.339844 1094.058594 C 1065.535156 1094.058594 1084.339844 1075.253906 1084.339844 1052.058594 L 1084.339844 92.375 C 1084.339844 69.179688 1065.535156 50.375 1042.339844 50.375 L 82.65625 50.375 C 59.460938 50.375 40.65625 69.179688 40.65625 92.375 Z M 40.65625 92.375 " clip-rule="nonzero"/></clipPath></defs><path fill="#fc6a1f" d="M 541.863281 839.0625 L 485.824219 861.265625 L 469.660156 820.464844 L 525.703125 798.261719 C 528.316406 797.226562 531.0625 796.703125 533.792969 796.703125 C 536.738281 796.703125 539.703125 797.308594 542.5 798.519531 C 547.875 800.851562 552.035156 805.132812 554.195312 810.574219 C 558.648438 821.828125 553.101562 834.609375 541.863281 839.0625 Z M 405.863281 892.949219 C 400.417969 895.113281 394.4375 895.039062 389.082031 892.691406 C 383.6875 890.359375 379.554688 886.082031 377.390625 880.628906 C 375.226562 875.179688 375.3125 869.210938 377.636719 863.835938 C 379.96875 858.453125 384.257812 854.308594 389.695312 852.148438 L 445.742188 829.945312 L 461.910156 870.746094 Z M 578.113281 801.101562 C 573.421875 789.261719 564.394531 779.964844 552.699219 774.910156 C 541.0625 769.886719 528.117188 769.664062 516.226562 774.34375 L 380.21875 828.230469 C 368.378906 832.921875 359.082031 841.933594 354.027344 853.628906 C 348.984375 865.3125 348.78125 878.277344 353.472656 890.101562 C 358.140625 901.941406 367.171875 911.242188 378.863281 916.300781 C 384.921875 918.925781 391.34375 920.25 397.773438 920.25 C 403.703125 920.25 409.644531 919.113281 415.339844 916.867188 L 551.34375 862.980469 C 575.769531 853.300781 587.777344 825.546875 578.113281 801.101562 " fill-opacity="1" fill-rule="nonzero"/><path fill="#fc6a1f" d="M 757.546875 842.027344 C 750.140625 851.601562 736.320312 853.382812 726.742188 845.953125 L 679.058594 809.070312 L 705.910156 774.359375 L 753.59375 811.246094 C 763.171875 818.652344 764.933594 832.46875 757.546875 842.027344 Z M 611.035156 756.449219 C 601.476562 749.046875 599.71875 735.238281 607.125 725.65625 C 610.703125 721.027344 615.878906 718.0625 621.6875 717.320312 C 622.632812 717.199219 623.566406 717.136719 624.503906 717.136719 C 629.34375 717.136719 634.003906 718.726562 637.886719 721.734375 L 685.570312 758.625 L 658.722656 793.339844 Z M 769.335938 790.894531 L 711.492188 746.15625 C 711.488281 746.148438 711.488281 746.144531 711.480469 746.144531 C 711.480469 746.136719 711.476562 746.136719 711.46875 746.136719 L 653.632812 701.398438 C 643.585938 693.597656 631.121094 690.167969 618.421875 691.792969 C 605.796875 693.414062 594.542969 699.847656 586.753906 709.925781 C 570.695312 730.722656 574.511719 760.722656 595.296875 776.800781 L 710.996094 866.308594 C 719.660156 873.003906 729.929688 876.257812 740.109375 876.257812 C 754.378906 876.257812 768.5 869.902344 777.894531 857.769531 C 793.957031 836.976562 790.117188 806.980469 769.335938 790.894531 " fill-opacity="1" fill-rule="nonzero"/><g clip-path="url(#d2fb4280c5)"><path fill="#fc6a1f" d="M 720.925781 948.394531 L 660.648438 948.394531 L 660.648438 904.503906 L 720.925781 904.503906 C 733.023438 904.503906 742.875 914.351562 742.875 926.457031 C 742.875 938.554688 733.023438 948.394531 720.925781 948.394531 Z M 634.921875 948.394531 L 574.644531 948.394531 C 562.546875 948.394531 552.699219 938.554688 552.699219 926.457031 C 552.699219 914.351562 562.546875 904.503906 574.644531 904.503906 L 634.921875 904.503906 Z M 720.925781 878.777344 L 574.644531 878.777344 C 548.367188 878.777344 526.972656 900.164062 526.972656 926.457031 C 526.972656 952.742188 548.367188 974.121094 574.644531 974.121094 L 720.925781 974.121094 C 747.214844 974.121094 768.601562 952.742188 768.601562 926.457031 C 768.601562 900.164062 747.214844 878.777344 720.925781 878.777344 " fill-opacity="1" fill-rule="nonzero"/></g><g clip-path="url(#8b35c1b695)"><path fill="#fc6a1f" d="M 923.324219 935.757812 C 913.144531 944.707031 900.027344 949.28125 886.582031 948.289062 C 877.46875 947.703125 868.988281 944.578125 861.621094 939.601562 L 935.03125 875.058594 C 945.070312 895.160156 940.972656 920.246094 923.324219 935.757812 Z M 839.199219 894.40625 C 840.070312 880.882812 846.144531 868.507812 856.332031 859.566406 C 865.949219 851.109375 877.902344 846.953125 889.796875 846.953125 C 899.746094 846.953125 909.582031 850.003906 918.066406 855.707031 L 844.628906 920.277344 C 840.636719 912.332031 838.621094 903.519531 839.199219 894.40625 Z M 947.261719 847.179688 C 919.410156 815.523438 870.984375 812.425781 839.347656 840.238281 C 824.003906 853.730469 814.839844 872.378906 813.539062 892.753906 C 812.214844 913.140625 818.929688 932.8125 832.414062 948.144531 C 845.898438 963.488281 864.539062 972.660156 884.921875 973.964844 C 886.59375 974.070312 888.269531 974.121094 889.929688 974.121094 C 908.5 974.121094 926.246094 967.457031 940.3125 955.085938 C 971.964844 927.261719 975.085938 878.851562 947.261719 847.179688 " fill-opacity="1" fill-rule="nonzero"/></g><path fill="#fc6a1f" d="M 794.855469 744.371094 L 892.050781 733.933594 C 890.738281 742.734375 887.304688 751.097656 881.570312 758.203125 C 873.0625 768.753906 860.953125 775.363281 847.488281 776.808594 C 834.003906 778.21875 820.777344 774.363281 810.234375 765.867188 C 803.125 760.132812 798.007812 752.683594 794.855469 744.371094 Z M 792.101562 718.796875 C 793.414062 709.996094 796.851562 701.628906 802.578125 694.527344 C 811.089844 683.976562 823.199219 677.367188 836.667969 675.917969 C 838.492188 675.726562 840.304688 675.628906 842.113281 675.628906 C 863.296875 675.628906 881.902344 689.019531 889.289062 708.363281 Z M 850.234375 802.382812 C 870.53125 800.210938 888.792969 790.25 901.605469 774.34375 C 914.417969 758.453125 920.277344 738.511719 918.097656 718.207031 C 913.59375 676.285156 875.691406 645.9375 833.921875 650.347656 C 813.621094 652.519531 795.363281 662.480469 782.550781 678.386719 C 769.738281 694.277344 763.875 714.21875 766.054688 734.515625 C 766.054688 734.523438 766.054688 734.523438 766.054688 734.523438 C 766.054688 734.53125 766.054688 734.535156 766.054688 734.542969 C 768.242188 754.84375 778.183594 773.082031 794.085938 785.890625 C 807.804688 796.949219 824.542969 802.828125 841.921875 802.828125 C 844.691406 802.828125 847.457031 802.683594 850.234375 802.382812 " fill-opacity="1" fill-rule="nonzero"/><path fill="#fc6a1f" d="M 590.804688 867.195312 C 608.277344 867.195312 624.992188 861.8125 639.144531 851.621094 C 644.910156 847.472656 646.210938 839.433594 642.058594 833.660156 C 637.917969 827.925781 629.917969 826.589844 624.101562 830.746094 C 614.371094 837.757812 602.851562 841.46875 590.804688 841.46875 C 583.703125 841.46875 577.941406 847.230469 577.941406 854.332031 C 577.941406 861.429688 583.703125 867.195312 590.804688 867.195312 " fill-opacity="1" fill-rule="nonzero"/><g clip-path="url(#4e8178709b)"><path fill="#fc6a1f" d="M 267.59375 233.304688 L 267.59375 176.59375 L 594.976562 176.59375 L 594.976562 233.304688 L 510.140625 233.304688 C 503.042969 233.304688 497.277344 239.070312 497.277344 246.167969 C 497.277344 253.273438 503.042969 259.03125 510.140625 259.03125 L 518.75 259.03125 L 518.75 300.199219 L 343.828125 300.199219 L 343.828125 259.03125 L 466.996094 259.03125 C 474.101562 259.03125 479.859375 253.273438 479.859375 246.167969 C 479.859375 239.070312 474.101562 233.304688 466.996094 233.304688 Z M 323.539062 841.46875 L 271.773438 841.46875 C 240.316406 841.46875 214.722656 815.875 214.722656 784.417969 L 214.722656 752.800781 L 551.851562 752.800781 C 558.949219 752.800781 564.714844 747.035156 564.714844 739.9375 C 564.714844 732.835938 558.949219 727.074219 551.851562 727.074219 L 214.722656 727.074219 L 214.722656 466.226562 L 272.289062 466.226562 C 279.390625 466.226562 285.152344 460.46875 285.152344 453.363281 C 285.152344 446.265625 279.390625 440.5 272.289062 440.5 L 214.722656 440.5 L 214.722656 382.96875 C 214.722656 351.511719 240.316406 325.925781 271.773438 325.925781 L 590.804688 325.925781 C 622.261719 325.925781 647.855469 351.511719 647.855469 382.96875 L 647.855469 440.5 L 316.421875 440.5 C 309.320312 440.5 303.558594 446.265625 303.558594 453.363281 C 303.558594 460.46875 309.320312 466.226562 316.421875 466.226562 L 647.855469 466.226562 L 647.855469 670.910156 C 647.855469 678.015625 653.613281 683.773438 660.71875 683.773438 C 667.824219 683.773438 673.582031 678.015625 673.582031 670.910156 L 673.582031 382.96875 C 673.582031 337.332031 636.449219 300.199219 590.804688 300.199219 L 544.476562 300.199219 L 544.476562 259.03125 L 607.839844 259.03125 C 614.941406 259.03125 620.703125 253.273438 620.703125 246.167969 L 620.703125 163.730469 C 620.703125 156.632812 614.941406 150.867188 607.839844 150.867188 L 254.730469 150.867188 C 247.632812 150.867188 241.867188 156.632812 241.867188 163.730469 L 241.867188 246.167969 C 241.867188 253.273438 247.632812 259.03125 254.730469 259.03125 L 318.101562 259.03125 L 318.101562 300.199219 L 271.773438 300.199219 C 226.128906 300.199219 188.996094 337.332031 188.996094 382.96875 L 188.996094 784.417969 C 188.996094 830.0625 226.128906 867.195312 271.773438 867.195312 L 323.539062 867.195312 C 330.644531 867.195312 336.402344 861.429688 336.402344 854.332031 C 336.402344 847.230469 330.644531 841.46875 323.539062 841.46875 " fill-opacity="1" fill-rule="nonzero"/></g><path fill="#fc6a1f" d="M 366.03125 615.035156 L 366.03125 577.574219 L 399.703125 577.574219 C 406.800781 577.574219 412.566406 571.816406 412.566406 564.710938 L 412.566406 531.046875 L 450.011719 531.046875 L 450.011719 564.710938 C 450.011719 571.816406 455.777344 577.574219 462.875 577.574219 L 496.542969 577.574219 L 496.542969 615.035156 L 462.875 615.035156 C 455.777344 615.035156 450.011719 620.796875 450.011719 627.898438 L 450.011719 661.558594 L 412.566406 661.558594 L 412.566406 627.898438 C 412.566406 620.796875 406.800781 615.035156 399.703125 615.035156 Z M 399.703125 687.285156 L 462.875 687.285156 C 469.980469 687.285156 475.738281 681.519531 475.738281 674.421875 L 475.738281 640.761719 L 509.40625 640.761719 C 516.507812 640.761719 522.269531 635.003906 522.269531 627.898438 L 522.269531 564.710938 C 522.269531 557.609375 516.507812 551.847656 509.40625 551.847656 L 475.738281 551.847656 L 475.738281 518.183594 C 475.738281 511.078125 469.980469 505.320312 462.875 505.320312 L 399.703125 505.320312 C 392.597656 505.320312 386.839844 511.078125 386.839844 518.183594 L 386.839844 551.847656 L 353.167969 551.847656 C 346.070312 551.847656 340.304688 557.609375 340.304688 564.710938 L 340.304688 627.898438 C 340.304688 635.003906 346.070312 640.761719 353.167969 640.761719 L 386.839844 640.761719 L 386.839844 674.421875 C 386.839844 681.519531 392.597656 687.285156 399.703125 687.285156 " fill-opacity="1" fill-rule="nonzero"/><g clip-path="url(#4f5feb2ee6)"><g clip-path="url(#203d5d445d)"><g clip-path="url(#1e292b5eff)"><path fill="#fc6a1f" d="M 1053.15625 146.011719 L 1084.339844 146.011719 L 1084.339844 998.421875 L 1053.15625 998.421875 Z M 1053.15625 146.011719 " fill-opacity="1" fill-rule="nonzero"/></g></g></g><g clip-path="url(#9b77482834)"><g clip-path="url(#58ddbc3393)"><g clip-path="url(#27665644b0)"><path fill="#fc6a1f" d="M 40.65625 146.011719 L 71.84375 146.011719 L 71.84375 998.421875 L 40.65625 998.421875 Z M 40.65625 146.011719 " fill-opacity="1" fill-rule="nonzero"/></g></g></g><g clip-path="url(#ee02671e87)"><g clip-path="url(#a83294c572)"><g clip-path="url(#c115d8cd97)"><path fill="#fc6a1f" d="M 136.292969 50.375 L 988.703125 50.375 L 988.703125 81.5625 L 136.292969 81.5625 Z M 136.292969 50.375 " fill-opacity="1" fill-rule="nonzero"/></g></g></g><g clip-path="url(#b78d80193f)"><g clip-path="url(#6322a37a1e)"><g clip-path="url(#fd282418fa)"><path fill="#fc6a1f" d="M 136.292969 1062.875 L 988.703125 1062.875 L 988.703125 1094.058594 L 136.292969 1094.058594 Z M 136.292969 1062.875 " fill-opacity="1" fill-rule="nonzero"/></g></g></g><g clip-path="url(#8bdd4e1872)"><g clip-path="url(#ad7ae0f156)"><g clip-path="url(#5291a16ccc)"><path fill="#fc6a1f" d="M 1053.15625 81.5625 L 1053.15625 146.011719 L 1084.339844 146.011719 L 1084.339844 50.375 L 988.703125 50.375 L 988.703125 81.5625 Z M 1053.15625 81.5625 " fill-opacity="1" fill-rule="nonzero"/></g></g></g><g clip-path="url(#5afb7e3c46)"><g clip-path="url(#b25a8e1430)"><g clip-path="url(#ad89e819d2)"><path fill="#fc6a1f" d="M 71.84375 81.5625 L 136.292969 81.5625 L 136.292969 50.375 L 40.65625 50.375 L 40.65625 146.011719 L 71.84375 146.011719 Z M 71.84375 81.5625 " fill-opacity="1" fill-rule="nonzero"/></g></g></g><g clip-path="url(#54f0dd3288)"><g clip-path="url(#098dbcc32d)"><g clip-path="url(#27f02962a4)"><path fill="#fc6a1f" d="M 1053.15625 1062.875 L 988.703125 1062.875 L 988.703125 1094.058594 L 1084.339844 1094.058594 L 1084.339844 998.421875 L 1053.15625 998.421875 Z M 1053.15625 1062.875 " fill-opacity="1" fill-rule="nonzero"/></g></g></g><g clip-path="url(#78b0767496)"><g clip-path="url(#5d26d8aa24)"><g clip-path="url(#7b67a6ddad)"><path fill="#fc6a1f" d="M 71.84375 1062.875 L 71.84375 998.421875 L 40.65625 998.421875 L 40.65625 1094.058594 L 136.292969 1094.058594 L 136.292969 1062.875 Z M 71.84375 1062.875 " fill-opacity="1" fill-rule="nonzero"/></g></g></g><g clip-path="url(#2bf97b4880)"><g clip-path="url(#c9a659babd)"><g clip-path="url(#baa2c5399f)"><path stroke-linecap="butt" transform="matrix(0.75, 0, 0, 0.75, 40.657485, 50.375834)" fill="none" stroke-linejoin="miter" d="M -0.00164733 55.998893 L -0.00164733 1335.577128 C -0.00164733 1366.504214 25.071271 1391.577133 55.998357 1391.577133 L 1335.576593 1391.577133 C 1366.503679 1391.577133 1391.576597 1366.504214 1391.576597 1335.577128 L 1391.576597 55.998893 C 1391.576597 25.071807 1366.503679 -0.00111208 1335.576593 -0.00111208 L 55.998357 -0.00111208 C 25.071271 -0.00111208 -0.00164733 25.071807 -0.00164733 55.998893 Z M -0.00164733 55.998893 " stroke="#fc6a1f" stroke-width="66" stroke-opacity="1" stroke-miterlimit="4"/></g></g></g></svg>