<svg xmlns="http://www.w3.org/2000/svg" xmlns:xlink="http://www.w3.org/1999/xlink" width="1500" zoomAndPan="magnify" viewBox="0 0 1125 1124.99995" height="1500" preserveAspectRatio="xMidYMid meet" version="1.0"><defs><clipPath id="dfd65a1586"><path d="M 182 103.875 L 944.195312 103.875 L 944.195312 1021.125 L 182 1021.125 Z M 182 103.875 " clip-rule="nonzero"/></clipPath><clipPath id="42bd3ac8bb"><path d="M 1053 146 L 1083.90625 146 L 1083.90625 999 L 1053 999 Z M 1053 146 " clip-rule="nonzero"/></clipPath><clipPath id="bb250d9fc0"><path d="M 40.65625 92.375 L 40.65625 1052.0625 C 40.65625 1075.257812 59.460938 1094.0625 82.65625 1094.0625 L 1042.34375 1094.0625 C 1065.539062 1094.0625 1084.34375 1075.257812 1084.34375 1052.0625 L 1084.34375 92.375 C 1084.34375 69.179688 1065.539062 50.375 1042.34375 50.375 L 82.65625 50.375 C 59.460938 50.375 40.65625 69.179688 40.65625 92.375 Z M 40.65625 92.375 " clip-rule="nonzero"/></clipPath><clipPath id="51a9833add"><path d="M 83.558594 51.277344 L 1041.441406 51.277344 C 1064.636719 51.277344 1083.441406 70.082031 1083.441406 93.277344 L 1083.441406 1051.160156 C 1083.441406 1074.355469 1064.636719 1093.160156 1041.441406 1093.160156 L 83.558594 1093.160156 C 60.363281 1093.160156 41.558594 1074.355469 41.558594 1051.160156 L 41.558594 93.277344 C 41.558594 70.082031 60.363281 51.277344 83.558594 51.277344 Z M 83.558594 51.277344 " clip-rule="nonzero"/></clipPath><clipPath id="2e2f9db73c"><path d="M 41.40625 146 L 72 146 L 72 999 L 41.40625 999 Z M 41.40625 146 " clip-rule="nonzero"/></clipPath><clipPath id="84c567ce9b"><path d="M 40.65625 92.375 L 40.65625 1052.0625 C 40.65625 1075.257812 59.460938 1094.0625 82.65625 1094.0625 L 1042.34375 1094.0625 C 1065.539062 1094.0625 1084.34375 1075.257812 1084.34375 1052.0625 L 1084.34375 92.375 C 1084.34375 69.179688 1065.539062 50.375 1042.34375 50.375 L 82.65625 50.375 C 59.460938 50.375 40.65625 69.179688 40.65625 92.375 Z M 40.65625 92.375 " clip-rule="nonzero"/></clipPath><clipPath id="da7d6aa458"><path d="M 83.558594 51.277344 L 1041.441406 51.277344 C 1064.636719 51.277344 1083.441406 70.082031 1083.441406 93.277344 L 1083.441406 1051.160156 C 1083.441406 1074.355469 1064.636719 1093.160156 1041.441406 1093.160156 L 83.558594 1093.160156 C 60.363281 1093.160156 41.558594 1074.355469 41.558594 1051.160156 L 41.558594 93.277344 C 41.558594 70.082031 60.363281 51.277344 83.558594 51.277344 Z M 83.558594 51.277344 " clip-rule="nonzero"/></clipPath><clipPath id="f4cef00363"><path d="M 136 51.125 L 989 51.125 L 989 82 L 136 82 Z M 136 51.125 " clip-rule="nonzero"/></clipPath><clipPath id="194fdf9554"><path d="M 40.65625 92.375 L 40.65625 1052.0625 C 40.65625 1075.257812 59.460938 1094.0625 82.65625 1094.0625 L 1042.34375 1094.0625 C 1065.539062 1094.0625 1084.34375 1075.257812 1084.34375 1052.0625 L 1084.34375 92.375 C 1084.34375 69.179688 1065.539062 50.375 1042.34375 50.375 L 82.65625 50.375 C 59.460938 50.375 40.65625 69.179688 40.65625 92.375 Z M 40.65625 92.375 " clip-rule="nonzero"/></clipPath><clipPath id="cc19d84ec2"><path d="M 83.558594 51.277344 L 1041.441406 51.277344 C 1064.636719 51.277344 1083.441406 70.082031 1083.441406 93.277344 L 1083.441406 1051.160156 C 1083.441406 1074.355469 1064.636719 1093.160156 1041.441406 1093.160156 L 83.558594 1093.160156 C 60.363281 1093.160156 41.558594 1074.355469 41.558594 1051.160156 L 41.558594 93.277344 C 41.558594 70.082031 60.363281 51.277344 83.558594 51.277344 Z M 83.558594 51.277344 " clip-rule="nonzero"/></clipPath><clipPath id="9e7fb9037f"><path d="M 136 1062 L 989 1062 L 989 1093.625 L 136 1093.625 Z M 136 1062 " clip-rule="nonzero"/></clipPath><clipPath id="a22b39f50f"><path d="M 40.65625 92.375 L 40.65625 1052.0625 C 40.65625 1075.257812 59.460938 1094.0625 82.65625 1094.0625 L 1042.34375 1094.0625 C 1065.539062 1094.0625 1084.34375 1075.257812 1084.34375 1052.0625 L 1084.34375 92.375 C 1084.34375 69.179688 1065.539062 50.375 1042.34375 50.375 L 82.65625 50.375 C 59.460938 50.375 40.65625 69.179688 40.65625 92.375 Z M 40.65625 92.375 " clip-rule="nonzero"/></clipPath><clipPath id="b145e7f046"><path d="M 83.558594 51.277344 L 1041.441406 51.277344 C 1064.636719 51.277344 1083.441406 70.082031 1083.441406 93.277344 L 1083.441406 1051.160156 C 1083.441406 1074.355469 1064.636719 1093.160156 1041.441406 1093.160156 L 83.558594 1093.160156 C 60.363281 1093.160156 41.558594 1074.355469 41.558594 1051.160156 L 41.558594 93.277344 C 41.558594 70.082031 60.363281 51.277344 83.558594 51.277344 Z M 83.558594 51.277344 " clip-rule="nonzero"/></clipPath><clipPath id="b0804bbee2"><path d="M 988 51.125 L 1083.90625 51.125 L 1083.90625 147 L 988 147 Z M 988 51.125 " clip-rule="nonzero"/></clipPath><clipPath id="632ab9a6f6"><path d="M 40.65625 92.375 L 40.65625 1052.0625 C 40.65625 1075.257812 59.460938 1094.0625 82.65625 1094.0625 L 1042.34375 1094.0625 C 1065.539062 1094.0625 1084.34375 1075.257812 1084.34375 1052.0625 L 1084.34375 92.375 C 1084.34375 69.179688 1065.539062 50.375 1042.34375 50.375 L 82.65625 50.375 C 59.460938 50.375 40.65625 69.179688 40.65625 92.375 Z M 40.65625 92.375 " clip-rule="nonzero"/></clipPath><clipPath id="0e8bc1ffc9"><path d="M 83.558594 51.277344 L 1041.441406 51.277344 C 1064.636719 51.277344 1083.441406 70.082031 1083.441406 93.277344 L 1083.441406 1051.160156 C 1083.441406 1074.355469 1064.636719 1093.160156 1041.441406 1093.160156 L 83.558594 1093.160156 C 60.363281 1093.160156 41.558594 1074.355469 41.558594 1051.160156 L 41.558594 93.277344 C 41.558594 70.082031 60.363281 51.277344 83.558594 51.277344 Z M 83.558594 51.277344 " clip-rule="nonzero"/></clipPath><clipPath id="3f2ecb28ae"><path d="M 41.40625 51.125 L 137 51.125 L 137 147 L 41.40625 147 Z M 41.40625 51.125 " clip-rule="nonzero"/></clipPath><clipPath id="e21fec6b0a"><path d="M 40.65625 92.375 L 40.65625 1052.0625 C 40.65625 1075.257812 59.460938 1094.0625 82.65625 1094.0625 L 1042.34375 1094.0625 C 1065.539062 1094.0625 1084.34375 1075.257812 1084.34375 1052.0625 L 1084.34375 92.375 C 1084.34375 69.179688 1065.539062 50.375 1042.34375 50.375 L 82.65625 50.375 C 59.460938 50.375 40.65625 69.179688 40.65625 92.375 Z M 40.65625 92.375 " clip-rule="nonzero"/></clipPath><clipPath id="2a5042f4aa"><path d="M 83.558594 51.277344 L 1041.441406 51.277344 C 1064.636719 51.277344 1083.441406 70.082031 1083.441406 93.277344 L 1083.441406 1051.160156 C 1083.441406 1074.355469 1064.636719 1093.160156 1041.441406 1093.160156 L 83.558594 1093.160156 C 60.363281 1093.160156 41.558594 1074.355469 41.558594 1051.160156 L 41.558594 93.277344 C 41.558594 70.082031 60.363281 51.277344 83.558594 51.277344 Z M 83.558594 51.277344 " clip-rule="nonzero"/></clipPath><clipPath id="16945f2d59"><path d="M 988 998 L 1083.90625 998 L 1083.90625 1093.625 L 988 1093.625 Z M 988 998 " clip-rule="nonzero"/></clipPath><clipPath id="0482c201ef"><path d="M 40.65625 92.375 L 40.65625 1052.0625 C 40.65625 1075.257812 59.460938 1094.0625 82.65625 1094.0625 L 1042.34375 1094.0625 C 1065.539062 1094.0625 1084.34375 1075.257812 1084.34375 1052.0625 L 1084.34375 92.375 C 1084.34375 69.179688 1065.539062 50.375 1042.34375 50.375 L 82.65625 50.375 C 59.460938 50.375 40.65625 69.179688 40.65625 92.375 Z M 40.65625 92.375 " clip-rule="nonzero"/></clipPath><clipPath id="c71f05bb3a"><path d="M 83.558594 51.277344 L 1041.441406 51.277344 C 1064.636719 51.277344 1083.441406 70.082031 1083.441406 93.277344 L 1083.441406 1051.160156 C 1083.441406 1074.355469 1064.636719 1093.160156 1041.441406 1093.160156 L 83.558594 1093.160156 C 60.363281 1093.160156 41.558594 1074.355469 41.558594 1051.160156 L 41.558594 93.277344 C 41.558594 70.082031 60.363281 51.277344 83.558594 51.277344 Z M 83.558594 51.277344 " clip-rule="nonzero"/></clipPath><clipPath id="0e5de2da2d"><path d="M 41.40625 998 L 137 998 L 137 1093.625 L 41.40625 1093.625 Z M 41.40625 998 " clip-rule="nonzero"/></clipPath><clipPath id="b8ca90a820"><path d="M 40.65625 92.375 L 40.65625 1052.0625 C 40.65625 1075.257812 59.460938 1094.0625 82.65625 1094.0625 L 1042.34375 1094.0625 C 1065.539062 1094.0625 1084.34375 1075.257812 1084.34375 1052.0625 L 1084.34375 92.375 C 1084.34375 69.179688 1065.539062 50.375 1042.34375 50.375 L 82.65625 50.375 C 59.460938 50.375 40.65625 69.179688 40.65625 92.375 Z M 40.65625 92.375 " clip-rule="nonzero"/></clipPath><clipPath id="06c417c8f1"><path d="M 83.558594 51.277344 L 1041.441406 51.277344 C 1064.636719 51.277344 1083.441406 70.082031 1083.441406 93.277344 L 1083.441406 1051.160156 C 1083.441406 1074.355469 1064.636719 1093.160156 1041.441406 1093.160156 L 83.558594 1093.160156 C 60.363281 1093.160156 41.558594 1074.355469 41.558594 1051.160156 L 41.558594 93.277344 C 41.558594 70.082031 60.363281 51.277344 83.558594 51.277344 Z M 83.558594 51.277344 " clip-rule="nonzero"/></clipPath><clipPath id="00c9576d19"><path d="M 40.65625 50.375 L 1084.65625 50.375 L 1084.65625 1094.375 L 40.65625 1094.375 Z M 40.65625 50.375 " clip-rule="nonzero"/></clipPath><clipPath id="cc73339303"><path d="M 40.65625 92.375 L 40.65625 1052.0625 C 40.65625 1075.257812 59.460938 1094.0625 82.65625 1094.0625 L 1042.34375 1094.0625 C 1065.539062 1094.0625 1084.34375 1075.257812 1084.34375 1052.0625 L 1084.34375 92.375 C 1084.34375 69.179688 1065.539062 50.375 1042.34375 50.375 L 82.65625 50.375 C 59.460938 50.375 40.65625 69.179688 40.65625 92.375 Z M 40.65625 92.375 " clip-rule="nonzero"/></clipPath><clipPath id="264fbbda0f"><path d="M 40.65625 92.375 L 40.65625 1052.058594 C 40.65625 1075.253906 59.460938 1094.058594 82.65625 1094.058594 L 1042.339844 1094.058594 C 1065.535156 1094.058594 1084.339844 1075.253906 1084.339844 1052.058594 L 1084.339844 92.375 C 1084.339844 69.179688 1065.535156 50.375 1042.339844 50.375 L 82.65625 50.375 C 59.460938 50.375 40.65625 69.179688 40.65625 92.375 Z M 40.65625 92.375 " clip-rule="nonzero"/></clipPath></defs><g clip-path="url(#dfd65a1586)"><path fill="#fc6a1f" d="M 686.050781 270.898438 L 623.703125 270.898438 L 623.703125 208.550781 C 623.703125 201.375 617.886719 195.554688 610.710938 195.554688 L 515.585938 195.554688 C 508.40625 195.554688 502.589844 201.375 502.589844 208.550781 L 502.589844 270.894531 L 440.242188 270.894531 C 433.066406 270.894531 427.25 276.714844 427.25 283.890625 L 427.25 379.019531 C 427.25 386.195312 433.066406 392.011719 440.242188 392.011719 L 502.589844 392.011719 L 502.589844 454.359375 C 502.589844 461.535156 508.40625 467.355469 515.585938 467.355469 L 610.710938 467.355469 C 617.886719 467.355469 623.703125 461.535156 623.703125 454.359375 L 623.703125 392.011719 L 686.050781 392.011719 C 693.230469 392.011719 699.046875 386.195312 699.046875 379.019531 L 699.046875 283.890625 C 699.046875 276.714844 693.230469 270.898438 686.050781 270.898438 Z M 673.058594 366.023438 L 610.710938 366.023438 C 603.53125 366.023438 597.714844 371.839844 597.714844 379.019531 L 597.714844 441.363281 L 528.578125 441.363281 L 528.578125 379.019531 C 528.578125 371.839844 522.761719 366.023438 515.585938 366.023438 L 453.238281 366.023438 L 453.238281 296.886719 L 515.585938 296.886719 C 522.761719 296.886719 528.578125 291.066406 528.578125 283.890625 L 528.578125 221.546875 L 597.714844 221.546875 L 597.714844 283.890625 C 597.714844 291.066406 603.53125 296.886719 610.710938 296.886719 L 673.058594 296.886719 Z M 923.246094 306.96875 C 909.789062 293.507812 891.832031 286.097656 872.691406 286.097656 C 853.550781 286.097656 835.59375 293.507812 822.136719 306.96875 L 790.679688 338.421875 C 790.75 336.101562 790.796875 333.777344 790.796875 331.457031 C 790.796875 205.929688 688.671875 103.804688 563.148438 103.804688 C 437.621094 103.804688 335.496094 205.929688 335.496094 331.457031 C 335.496094 456.980469 437.621094 559.105469 563.148438 559.105469 C 565.46875 559.105469 567.792969 559.054688 570.113281 558.984375 L 446.523438 682.574219 C 441.449219 687.652344 441.449219 695.878906 446.523438 700.953125 L 454.421875 708.847656 L 185.988281 977.285156 C 180.910156 982.359375 180.910156 990.585938 185.988281 995.660156 C 202.417969 1012.089844 232.359375 1021.007812 264.445312 1021.007812 C 301.011719 1021.003906 340.367188 1009.417969 365.617188 984.160156 L 455.617188 894.164062 C 460.308594 889.476562 460.472656 885.078125 461.546875 856.445312 C 461.835938 848.683594 462.160156 840.128906 462.566406 834.585938 L 521.363281 775.792969 L 529.261719 783.6875 C 531.695312 786.125 535.003906 787.496094 538.449219 787.496094 C 541.894531 787.496094 545.199219 786.125 547.636719 783.6875 L 923.242188 408.082031 C 936.703125 394.621094 944.113281 376.667969 944.113281 357.523438 C 944.113281 338.378906 936.703125 320.425781 923.246094 306.96875 Z M 563.148438 533.113281 C 451.953125 533.113281 361.488281 442.652344 361.488281 331.457031 C 361.488281 220.257812 451.953125 129.796875 563.148438 129.796875 C 674.34375 129.796875 764.804688 220.257812 764.804688 331.457031 C 764.804688 343.574219 763.71875 355.683594 761.582031 367.519531 L 599.210938 529.890625 C 587.378906 532.023438 575.265625 533.113281 563.148438 533.113281 Z M 440.910156 819.492188 C 438.910156 821.492188 437.617188 824.089844 437.226562 826.890625 C 436.4375 832.566406 436.019531 843.691406 435.578125 855.46875 C 435.296875 862.886719 434.90625 873.410156 434.449219 878.578125 L 347.242188 965.789062 C 313.558594 999.46875 246.769531 1001.007812 215.167969 984.855469 L 472.796875 727.222656 L 502.988281 757.414062 Z M 538.449219 756.121094 L 474.089844 691.765625 L 504.703125 661.152344 L 569.0625 725.507812 Z M 904.867188 389.703125 L 587.441406 707.132812 L 523.082031 642.773438 L 840.507812 325.34375 C 849.058594 316.796875 860.488281 312.085938 872.691406 312.085938 C 884.890625 312.085938 896.320312 316.796875 904.867188 325.34375 C 913.417969 333.894531 918.128906 345.320312 918.128906 357.523438 C 918.128906 369.726562 913.417969 381.152344 904.867188 389.703125 Z M 879.765625 350.449219 C 884.839844 355.523438 884.839844 363.75 879.765625 368.824219 L 749.320312 499.269531 C 746.78125 501.808594 743.457031 503.078125 740.132812 503.078125 C 736.804688 503.078125 733.480469 501.804688 730.945312 499.269531 C 725.867188 494.195312 725.867188 485.96875 730.945312 480.894531 L 861.390625 350.449219 C 866.460938 345.371094 874.691406 345.371094 879.765625 350.449219 Z M 879.765625 350.449219 " fill-opacity="1" fill-rule="nonzero"/></g><g clip-path="url(#42bd3ac8bb)"><g clip-path="url(#bb250d9fc0)"><g clip-path="url(#51a9833add)"><path fill="#fc6a1f" d="M 1053.15625 146.011719 L 1084.339844 146.011719 L 1084.339844 998.421875 L 1053.15625 998.421875 Z M 1053.15625 146.011719 " fill-opacity="1" fill-rule="nonzero"/></g></g></g><g clip-path="url(#2e2f9db73c)"><g clip-path="url(#84c567ce9b)"><g clip-path="url(#da7d6aa458)"><path fill="#fc6a1f" d="M 40.65625 146.011719 L 71.84375 146.011719 L 71.84375 998.421875 L 40.65625 998.421875 Z M 40.65625 146.011719 " fill-opacity="1" fill-rule="nonzero"/></g></g></g><g clip-path="url(#f4cef00363)"><g clip-path="url(#194fdf9554)"><g clip-path="url(#cc19d84ec2)"><path fill="#fc6a1f" d="M 136.292969 50.375 L 988.703125 50.375 L 988.703125 81.5625 L 136.292969 81.5625 Z M 136.292969 50.375 " fill-opacity="1" fill-rule="nonzero"/></g></g></g><g clip-path="url(#9e7fb9037f)"><g clip-path="url(#a22b39f50f)"><g clip-path="url(#b145e7f046)"><path fill="#fc6a1f" d="M 136.292969 1062.875 L 988.703125 1062.875 L 988.703125 1094.058594 L 136.292969 1094.058594 Z M 136.292969 1062.875 " fill-opacity="1" fill-rule="nonzero"/></g></g></g><g clip-path="url(#b0804bbee2)"><g clip-path="url(#632ab9a6f6)"><g clip-path="url(#0e8bc1ffc9)"><path fill="#fc6a1f" d="M 1053.15625 81.5625 L 1053.15625 146.011719 L 1084.339844 146.011719 L 1084.339844 50.375 L 988.703125 50.375 L 988.703125 81.5625 Z M 1053.15625 81.5625 " fill-opacity="1" fill-rule="nonzero"/></g></g></g><g clip-path="url(#3f2ecb28ae)"><g clip-path="url(#e21fec6b0a)"><g clip-path="url(#2a5042f4aa)"><path fill="#fc6a1f" d="M 71.84375 81.5625 L 136.292969 81.5625 L 136.292969 50.375 L 40.65625 50.375 L 40.65625 146.011719 L 71.84375 146.011719 Z M 71.84375 81.5625 " fill-opacity="1" fill-rule="nonzero"/></g></g></g><g clip-path="url(#16945f2d59)"><g clip-path="url(#0482c201ef)"><g clip-path="url(#c71f05bb3a)"><path fill="#fc6a1f" d="M 1053.15625 1062.875 L 988.703125 1062.875 L 988.703125 1094.058594 L 1084.339844 1094.058594 L 1084.339844 998.421875 L 1053.15625 998.421875 Z M 1053.15625 1062.875 " fill-opacity="1" fill-rule="nonzero"/></g></g></g><g clip-path="url(#0e5de2da2d)"><g clip-path="url(#b8ca90a820)"><g clip-path="url(#06c417c8f1)"><path fill="#fc6a1f" d="M 71.84375 1062.875 L 71.84375 998.421875 L 40.65625 998.421875 L 40.65625 1094.058594 L 136.292969 1094.058594 L 136.292969 1062.875 Z M 71.84375 1062.875 " fill-opacity="1" fill-rule="nonzero"/></g></g></g><g clip-path="url(#00c9576d19)"><g clip-path="url(#cc73339303)"><g clip-path="url(#264fbbda0f)"><path stroke-linecap="butt" transform="matrix(0.75, 0, 0, 0.75, 40.657485, 50.376069)" fill="none" stroke-linejoin="miter" d="M -0.00164733 55.998579 L -0.00164733 1335.576814 C -0.00164733 1366.5039 25.071271 1391.576819 55.998357 1391.576819 L 1335.576593 1391.576819 C 1366.503679 1391.576819 1391.576597 1366.5039 1391.576597 1335.576814 L 1391.576597 55.998579 C 1391.576597 25.071493 1366.503679 -0.00142568 1335.576593 -0.00142568 L 55.998357 -0.00142568 C 25.071271 -0.00142568 -0.00164733 25.071493 -0.00164733 55.998579 Z M -0.00164733 55.998579 " stroke="#fc6a1f" stroke-width="66" stroke-opacity="1" stroke-miterlimit="4"/></g></g></g></svg>