<svg xmlns="http://www.w3.org/2000/svg" xmlns:xlink="http://www.w3.org/1999/xlink" width="1500" zoomAndPan="magnify" viewBox="0 0 1125 1124.99995" height="1500" preserveAspectRatio="xMidYMid meet" version="1.0"><defs><clipPath id="025f46d673"><path d="M 589 802 L 634 802 L 634 983.554688 L 589 983.554688 Z M 589 802 " clip-rule="nonzero"/></clipPath><clipPath id="25cb3eefee"><path d="M 89 170 L 1037 170 L 1037 983.554688 L 89 983.554688 Z M 89 170 " clip-rule="nonzero"/></clipPath><clipPath id="0b45699bea"><path d="M 1053 146 L 1083.90625 146 L 1083.90625 999 L 1053 999 Z M 1053 146 " clip-rule="nonzero"/></clipPath><clipPath id="8ea5f5ebe0"><path d="M 40.65625 92.375 L 40.65625 1052.0625 C 40.65625 1075.257812 59.460938 1094.0625 82.65625 1094.0625 L 1042.34375 1094.0625 C 1065.539062 1094.0625 1084.34375 1075.257812 1084.34375 1052.0625 L 1084.34375 92.375 C 1084.34375 69.179688 1065.539062 50.375 1042.34375 50.375 L 82.65625 50.375 C 59.460938 50.375 40.65625 69.179688 40.65625 92.375 Z M 40.65625 92.375 " clip-rule="nonzero"/></clipPath><clipPath id="1f2b642be1"><path d="M 83.558594 51.277344 L 1041.441406 51.277344 C 1064.636719 51.277344 1083.441406 70.082031 1083.441406 93.277344 L 1083.441406 1051.160156 C 1083.441406 1074.355469 1064.636719 1093.160156 1041.441406 1093.160156 L 83.558594 1093.160156 C 60.363281 1093.160156 41.558594 1074.355469 41.558594 1051.160156 L 41.558594 93.277344 C 41.558594 70.082031 60.363281 51.277344 83.558594 51.277344 Z M 83.558594 51.277344 " clip-rule="nonzero"/></clipPath><clipPath id="4c9843137c"><path d="M 41.40625 146 L 72 146 L 72 999 L 41.40625 999 Z M 41.40625 146 " clip-rule="nonzero"/></clipPath><clipPath id="8c85d7018e"><path d="M 40.65625 92.375 L 40.65625 1052.0625 C 40.65625 1075.257812 59.460938 1094.0625 82.65625 1094.0625 L 1042.34375 1094.0625 C 1065.539062 1094.0625 1084.34375 1075.257812 1084.34375 1052.0625 L 1084.34375 92.375 C 1084.34375 69.179688 1065.539062 50.375 1042.34375 50.375 L 82.65625 50.375 C 59.460938 50.375 40.65625 69.179688 40.65625 92.375 Z M 40.65625 92.375 " clip-rule="nonzero"/></clipPath><clipPath id="80422bf760"><path d="M 83.558594 51.277344 L 1041.441406 51.277344 C 1064.636719 51.277344 1083.441406 70.082031 1083.441406 93.277344 L 1083.441406 1051.160156 C 1083.441406 1074.355469 1064.636719 1093.160156 1041.441406 1093.160156 L 83.558594 1093.160156 C 60.363281 1093.160156 41.558594 1074.355469 41.558594 1051.160156 L 41.558594 93.277344 C 41.558594 70.082031 60.363281 51.277344 83.558594 51.277344 Z M 83.558594 51.277344 " clip-rule="nonzero"/></clipPath><clipPath id="60df553493"><path d="M 136 51.125 L 989 51.125 L 989 82 L 136 82 Z M 136 51.125 " clip-rule="nonzero"/></clipPath><clipPath id="edbac69343"><path d="M 40.65625 92.375 L 40.65625 1052.0625 C 40.65625 1075.257812 59.460938 1094.0625 82.65625 1094.0625 L 1042.34375 1094.0625 C 1065.539062 1094.0625 1084.34375 1075.257812 1084.34375 1052.0625 L 1084.34375 92.375 C 1084.34375 69.179688 1065.539062 50.375 1042.34375 50.375 L 82.65625 50.375 C 59.460938 50.375 40.65625 69.179688 40.65625 92.375 Z M 40.65625 92.375 " clip-rule="nonzero"/></clipPath><clipPath id="78eb7ebbce"><path d="M 83.558594 51.277344 L 1041.441406 51.277344 C 1064.636719 51.277344 1083.441406 70.082031 1083.441406 93.277344 L 1083.441406 1051.160156 C 1083.441406 1074.355469 1064.636719 1093.160156 1041.441406 1093.160156 L 83.558594 1093.160156 C 60.363281 1093.160156 41.558594 1074.355469 41.558594 1051.160156 L 41.558594 93.277344 C 41.558594 70.082031 60.363281 51.277344 83.558594 51.277344 Z M 83.558594 51.277344 " clip-rule="nonzero"/></clipPath><clipPath id="081760fd36"><path d="M 136 1062 L 989 1062 L 989 1093.625 L 136 1093.625 Z M 136 1062 " clip-rule="nonzero"/></clipPath><clipPath id="a5ee5ecf06"><path d="M 40.65625 92.375 L 40.65625 1052.0625 C 40.65625 1075.257812 59.460938 1094.0625 82.65625 1094.0625 L 1042.34375 1094.0625 C 1065.539062 1094.0625 1084.34375 1075.257812 1084.34375 1052.0625 L 1084.34375 92.375 C 1084.34375 69.179688 1065.539062 50.375 1042.34375 50.375 L 82.65625 50.375 C 59.460938 50.375 40.65625 69.179688 40.65625 92.375 Z M 40.65625 92.375 " clip-rule="nonzero"/></clipPath><clipPath id="f457567e69"><path d="M 83.558594 51.277344 L 1041.441406 51.277344 C 1064.636719 51.277344 1083.441406 70.082031 1083.441406 93.277344 L 1083.441406 1051.160156 C 1083.441406 1074.355469 1064.636719 1093.160156 1041.441406 1093.160156 L 83.558594 1093.160156 C 60.363281 1093.160156 41.558594 1074.355469 41.558594 1051.160156 L 41.558594 93.277344 C 41.558594 70.082031 60.363281 51.277344 83.558594 51.277344 Z M 83.558594 51.277344 " clip-rule="nonzero"/></clipPath><clipPath id="f0f6633c06"><path d="M 988 51.125 L 1083.90625 51.125 L 1083.90625 147 L 988 147 Z M 988 51.125 " clip-rule="nonzero"/></clipPath><clipPath id="45d846f63f"><path d="M 40.65625 92.375 L 40.65625 1052.0625 C 40.65625 1075.257812 59.460938 1094.0625 82.65625 1094.0625 L 1042.34375 1094.0625 C 1065.539062 1094.0625 1084.34375 1075.257812 1084.34375 1052.0625 L 1084.34375 92.375 C 1084.34375 69.179688 1065.539062 50.375 1042.34375 50.375 L 82.65625 50.375 C 59.460938 50.375 40.65625 69.179688 40.65625 92.375 Z M 40.65625 92.375 " clip-rule="nonzero"/></clipPath><clipPath id="c2ef306899"><path d="M 83.558594 51.277344 L 1041.441406 51.277344 C 1064.636719 51.277344 1083.441406 70.082031 1083.441406 93.277344 L 1083.441406 1051.160156 C 1083.441406 1074.355469 1064.636719 1093.160156 1041.441406 1093.160156 L 83.558594 1093.160156 C 60.363281 1093.160156 41.558594 1074.355469 41.558594 1051.160156 L 41.558594 93.277344 C 41.558594 70.082031 60.363281 51.277344 83.558594 51.277344 Z M 83.558594 51.277344 " clip-rule="nonzero"/></clipPath><clipPath id="b5f96501a2"><path d="M 41.40625 51.125 L 137 51.125 L 137 147 L 41.40625 147 Z M 41.40625 51.125 " clip-rule="nonzero"/></clipPath><clipPath id="18dc44c56b"><path d="M 40.65625 92.375 L 40.65625 1052.0625 C 40.65625 1075.257812 59.460938 1094.0625 82.65625 1094.0625 L 1042.34375 1094.0625 C 1065.539062 1094.0625 1084.34375 1075.257812 1084.34375 1052.0625 L 1084.34375 92.375 C 1084.34375 69.179688 1065.539062 50.375 1042.34375 50.375 L 82.65625 50.375 C 59.460938 50.375 40.65625 69.179688 40.65625 92.375 Z M 40.65625 92.375 " clip-rule="nonzero"/></clipPath><clipPath id="24e30ed75f"><path d="M 83.558594 51.277344 L 1041.441406 51.277344 C 1064.636719 51.277344 1083.441406 70.082031 1083.441406 93.277344 L 1083.441406 1051.160156 C 1083.441406 1074.355469 1064.636719 1093.160156 1041.441406 1093.160156 L 83.558594 1093.160156 C 60.363281 1093.160156 41.558594 1074.355469 41.558594 1051.160156 L 41.558594 93.277344 C 41.558594 70.082031 60.363281 51.277344 83.558594 51.277344 Z M 83.558594 51.277344 " clip-rule="nonzero"/></clipPath><clipPath id="a114f190a5"><path d="M 988 998 L 1083.90625 998 L 1083.90625 1093.625 L 988 1093.625 Z M 988 998 " clip-rule="nonzero"/></clipPath><clipPath id="86df20fd94"><path d="M 40.65625 92.375 L 40.65625 1052.0625 C 40.65625 1075.257812 59.460938 1094.0625 82.65625 1094.0625 L 1042.34375 1094.0625 C 1065.539062 1094.0625 1084.34375 1075.257812 1084.34375 1052.0625 L 1084.34375 92.375 C 1084.34375 69.179688 1065.539062 50.375 1042.34375 50.375 L 82.65625 50.375 C 59.460938 50.375 40.65625 69.179688 40.65625 92.375 Z M 40.65625 92.375 " clip-rule="nonzero"/></clipPath><clipPath id="56bb1e29cc"><path d="M 83.558594 51.277344 L 1041.441406 51.277344 C 1064.636719 51.277344 1083.441406 70.082031 1083.441406 93.277344 L 1083.441406 1051.160156 C 1083.441406 1074.355469 1064.636719 1093.160156 1041.441406 1093.160156 L 83.558594 1093.160156 C 60.363281 1093.160156 41.558594 1074.355469 41.558594 1051.160156 L 41.558594 93.277344 C 41.558594 70.082031 60.363281 51.277344 83.558594 51.277344 Z M 83.558594 51.277344 " clip-rule="nonzero"/></clipPath><clipPath id="92fe508115"><path d="M 41.40625 998 L 137 998 L 137 1093.625 L 41.40625 1093.625 Z M 41.40625 998 " clip-rule="nonzero"/></clipPath><clipPath id="b10cf10b45"><path d="M 40.65625 92.375 L 40.65625 1052.0625 C 40.65625 1075.257812 59.460938 1094.0625 82.65625 1094.0625 L 1042.34375 1094.0625 C 1065.539062 1094.0625 1084.34375 1075.257812 1084.34375 1052.0625 L 1084.34375 92.375 C 1084.34375 69.179688 1065.539062 50.375 1042.34375 50.375 L 82.65625 50.375 C 59.460938 50.375 40.65625 69.179688 40.65625 92.375 Z M 40.65625 92.375 " clip-rule="nonzero"/></clipPath><clipPath id="befc370c5d"><path d="M 83.558594 51.277344 L 1041.441406 51.277344 C 1064.636719 51.277344 1083.441406 70.082031 1083.441406 93.277344 L 1083.441406 1051.160156 C 1083.441406 1074.355469 1064.636719 1093.160156 1041.441406 1093.160156 L 83.558594 1093.160156 C 60.363281 1093.160156 41.558594 1074.355469 41.558594 1051.160156 L 41.558594 93.277344 C 41.558594 70.082031 60.363281 51.277344 83.558594 51.277344 Z M 83.558594 51.277344 " clip-rule="nonzero"/></clipPath><clipPath id="8e3030256f"><path d="M 40.65625 50.375 L 1084.65625 50.375 L 1084.65625 1094.375 L 40.65625 1094.375 Z M 40.65625 50.375 " clip-rule="nonzero"/></clipPath><clipPath id="238a855c95"><path d="M 40.65625 92.375 L 40.65625 1052.0625 C 40.65625 1075.257812 59.460938 1094.0625 82.65625 1094.0625 L 1042.34375 1094.0625 C 1065.539062 1094.0625 1084.34375 1075.257812 1084.34375 1052.0625 L 1084.34375 92.375 C 1084.34375 69.179688 1065.539062 50.375 1042.34375 50.375 L 82.65625 50.375 C 59.460938 50.375 40.65625 69.179688 40.65625 92.375 Z M 40.65625 92.375 " clip-rule="nonzero"/></clipPath><clipPath id="6b54ca3f68"><path d="M 40.65625 92.375 L 40.65625 1052.058594 C 40.65625 1075.253906 59.460938 1094.058594 82.65625 1094.058594 L 1042.339844 1094.058594 C 1065.535156 1094.058594 1084.339844 1075.253906 1084.339844 1052.058594 L 1084.339844 92.375 C 1084.339844 69.179688 1065.535156 50.375 1042.339844 50.375 L 82.65625 50.375 C 59.460938 50.375 40.65625 69.179688 40.65625 92.375 Z M 40.65625 92.375 " clip-rule="nonzero"/></clipPath></defs><g clip-path="url(#025f46d673)"><path fill="#fc6a1f" d="M 616.460938 802.378906 C 614.242188 811.25 610.546875 819.382812 607.589844 827.511719 C 595.761719 857.082031 583.9375 887.390625 592.804688 970.183594 C 593.546875 977.578125 600.199219 983.492188 607.589844 983.492188 C 608.332031 983.492188 608.332031 983.492188 609.070312 983.492188 C 617.199219 982.75 623.113281 975.359375 622.375 967.226562 C 614.984375 896.261719 623.113281 868.910156 633.464844 843.035156 C 626.070312 830.46875 620.15625 816.425781 616.460938 802.378906 Z M 616.460938 802.378906 " fill-opacity="1" fill-rule="nonzero"/></g><g clip-path="url(#25cb3eefee)"><path fill="#fc6a1f" d="M 90.128906 337.402344 C 92.347656 381.757812 108.609375 440.894531 172.183594 471.941406 C 237.238281 503.730469 278.632812 492.640625 302.289062 477.855469 C 322.25 465.289062 331.117188 440.894531 324.464844 417.980469 C 318.550781 400.238281 306.722656 386.191406 289.722656 378.800781 C 266.804688 368.449219 236.496094 369.929688 200.273438 383.234375 C 176.621094 354.40625 173.664062 311.53125 195.101562 284.917969 C 225.410156 247.957031 291.199219 258.304688 370.296875 312.269531 C 370.296875 312.269531 371.039062 312.269531 371.039062 313.007812 C 371.039062 313.007812 371.777344 313.746094 371.777344 313.746094 C 372.515625 314.488281 373.996094 314.488281 374.734375 315.226562 C 373.253906 352.1875 371.039062 478.597656 407.257812 511.121094 C 414.652344 517.773438 420.566406 523.6875 425.742188 530.34375 C 439.046875 548.824219 453.832031 578.390625 450.136719 613.875 C 444.960938 670.054688 437.566406 746.9375 486.355469 766.894531 C 487.835938 800.160156 495.226562 819.382812 502.621094 838.601562 C 513.707031 865.953125 523.320312 891.824219 515.1875 967.226562 C 514.449219 975.359375 520.363281 982.75 528.492188 983.488281 C 529.234375 983.488281 529.234375 983.488281 529.972656 983.488281 C 537.363281 983.488281 544.015625 977.578125 544.757812 970.183594 C 553.628906 887.390625 541.800781 857.082031 529.972656 827.511719 C 523.320312 811.25 517.40625 795.726562 515.925781 769.113281 L 548.453125 769.113281 C 556.585938 769.113281 563.238281 762.460938 563.238281 754.328125 L 563.238281 558.433594 C 563.238281 554.738281 562.496094 517.773438 497.445312 450.503906 C 497.445312 450.503906 497.445312 450.503906 496.707031 449.765625 C 496.707031 449.765625 480.445312 433.503906 481.921875 383.234375 C 481.921875 363.277344 477.488281 344.054688 468.617188 327.054688 C 459.003906 310.050781 440.523438 304.875 421.304688 298.960938 C 410.214844 296.007812 398.390625 292.308594 385.820312 286.394531 C 249.0625 193.992188 187.707031 247.957031 172.183594 266.4375 C 138.917969 307.09375 144.832031 371.40625 185.492188 411.324219 C 185.492188 411.324219 186.230469 412.066406 186.96875 412.066406 C 188.449219 413.542969 190.664062 414.28125 192.882812 415.023438 C 192.882812 415.023438 193.621094 415.023438 193.621094 415.023438 C 194.359375 415.023438 194.359375 415.023438 195.101562 415.023438 C 196.578125 415.023438 197.316406 415.023438 198.796875 415.023438 C 198.796875 415.023438 199.535156 415.023438 199.535156 415.023438 C 199.535156 415.023438 200.273438 415.023438 200.273438 415.023438 C 201.015625 415.023438 201.753906 415.023438 202.492188 414.28125 C 235.019531 400.238281 260.890625 397.28125 277.894531 405.410156 C 289.722656 410.585938 294.898438 420.195312 296.375 426.851562 C 299.332031 436.460938 295.636719 447.546875 286.765625 452.722656 C 269.761719 463.8125 237.976562 471.203125 184.75 445.332031 C 134.484375 420.9375 121.917969 372.148438 119.699219 335.925781 C 118.21875 301.917969 130.789062 269.394531 153.703125 245.738281 C 192.882812 206.558594 240.933594 195.46875 297.855469 212.472656 C 311.898438 216.910156 326.683594 223.5625 345.164062 235.390625 C 362.90625 245.738281 401.347656 259.042969 464.179688 227.257812 C 464.917969 226.519531 465.660156 226.519531 466.398438 225.777344 C 467.136719 225.039062 538.101562 172.554688 640.855469 219.863281 C 649.726562 224.300781 659.335938 229.476562 670.425781 237.605469 C 685.949219 248.695312 729.5625 270.871094 793.878906 237.605469 C 794.617188 237.605469 795.355469 236.867188 795.355469 236.867188 C 796.09375 236.128906 872.976562 182.164062 942.460938 220.605469 C 976.46875 239.824219 1004.558594 283.4375 1005.296875 319.660156 C 1006.777344 362.535156 997.90625 397.28125 949.117188 435.71875 C 895.152344 478.597656 859.667969 467.507812 843.40625 457.160156 C 832.316406 450.503906 827.140625 435.71875 831.578125 422.414062 C 833.054688 416.5 837.492188 409.109375 847.839844 403.933594 C 859.667969 398.757812 883.324219 395.800781 926.199219 415.023438 C 926.9375 415.023438 926.9375 415.023438 927.679688 415.761719 C 928.417969 415.761719 928.417969 415.761719 929.15625 416.5 C 929.15625 416.5 929.894531 416.5 929.894531 416.5 C 930.632812 416.5 931.375 416.5 931.375 416.5 C 931.375 416.5 932.113281 416.5 932.113281 416.5 C 932.851562 416.5 932.851562 416.5 933.589844 416.5 C 934.332031 416.5 934.332031 416.5 935.070312 416.5 C 935.808594 416.5 935.808594 416.5 936.546875 415.761719 C 937.289062 415.761719 937.289062 415.023438 938.027344 415.023438 C 938.765625 415.023438 938.765625 414.28125 939.503906 414.28125 C 939.503906 414.28125 940.246094 413.542969 940.246094 413.542969 C 940.984375 412.804688 940.984375 412.804688 941.722656 412.066406 C 982.378906 372.148438 988.292969 307.09375 955.027344 267.175781 C 939.503906 248.695312 878.886719 194.730469 741.390625 288.613281 C 735.476562 291.570312 730.304688 293.789062 725.128906 296.007812 C 700.734375 307.09375 682.253906 315.964844 671.164062 335.925781 C 661.554688 352.925781 657.121094 372.148438 657.859375 392.105469 C 658.597656 434.242188 647.507812 446.808594 645.292969 449.027344 C 643.8125 449.765625 643.8125 449.765625 642.335938 451.984375 C 577.28125 518.515625 575.804688 555.476562 576.542969 559.171875 L 576.542969 754.328125 C 576.542969 762.460938 583.195312 769.113281 591.328125 769.113281 L 609.070312 769.113281 C 608.328125 763.199219 608.328125 756.546875 608.328125 750.632812 C 608.328125 746.9375 608.328125 743.242188 608.328125 739.542969 L 607.589844 739.542969 L 607.589844 558.433594 C 607.589844 558.433594 609.808594 528.863281 664.511719 472.683594 C 672.644531 466.769531 690.386719 447.546875 689.644531 390.628906 C 689.644531 375.84375 692.601562 361.796875 699.996094 349.230469 C 705.910156 338.882812 715.519531 333.707031 736.957031 323.359375 C 739.175781 386.929688 733.261719 471.941406 714.78125 488.945312 C 706.648438 496.335938 698.515625 503.730469 691.863281 513.339844 C 675.601562 536.257812 657.859375 572.476562 662.292969 616.832031 C 662.292969 617.570312 662.292969 618.308594 662.292969 619.050781 C 671.164062 609.441406 680.773438 601.308594 691.125 593.914062 C 693.34375 567.304688 705.167969 545.125 715.519531 530.34375 C 719.953125 523.6875 726.605469 517.773438 734 511.121094 C 770.960938 477.855469 767.265625 344.054688 765.785156 308.574219 C 841.925781 258.304688 904.761719 249.433594 934.332031 285.65625 C 955.769531 311.53125 952.8125 354.40625 929.15625 383.972656 C 891.457031 369.191406 860.40625 366.972656 836.753906 377.320312 C 821.230469 384.714844 809.402344 397.28125 804.226562 413.542969 C 796.09375 439.417969 805.703125 467.507812 828.621094 482.292969 C 839.710938 488.945312 856.710938 496.335938 878.148438 496.335938 C 902.542969 496.335938 932.851562 487.464844 969.074219 458.636719 C 1030.429688 409.847656 1037.085938 362.535156 1036.34375 318.921875 C 1034.867188 270.871094 1001.601562 219.125 957.988281 194.730469 C 875.933594 149.636719 790.179688 205.082031 779.832031 211.734375 C 732.519531 236.128906 702.210938 223.5625 688.167969 213.210938 C 675.601562 204.339844 664.511719 197.6875 653.421875 192.515625 C 541.058594 141.507812 460.484375 193.253906 450.136719 200.644531 C 401.347656 225.777344 373.253906 216.910156 360.6875 209.515625 C 339.988281 196.949219 322.988281 188.816406 305.984375 183.644531 C 221.714844 157.769531 164.792969 191.773438 132.265625 224.300781 C 103.4375 253.871094 87.910156 295.265625 90.128906 337.402344 Z M 404.300781 326.3125 C 407.257812 327.054688 410.214844 327.792969 413.171875 328.53125 C 429.4375 332.96875 439.046875 335.925781 442.742188 341.839844 C 449.394531 354.40625 453.09375 368.449219 453.09375 383.234375 C 451.613281 443.851562 473.050781 466.769531 477.488281 471.203125 C 532.929688 528.125 535.148438 557.695312 535.148438 557.695312 L 535.148438 739.542969 L 498.183594 739.542969 C 472.3125 727.714844 475.269531 670.054688 481.183594 616.832031 C 485.617188 572.476562 467.136719 536.253906 451.613281 513.339844 C 444.960938 503.730469 436.828125 496.335938 428.699219 488.945312 C 408 471.941406 402.824219 388.410156 404.300781 326.3125 Z M 404.300781 326.3125 " fill-opacity="1" fill-rule="nonzero"/></g><path fill="#fc6a1f" d="M 218.015625 435.71875 C 218.015625 436.207031 217.96875 436.6875 217.875 437.164062 C 217.78125 437.636719 217.640625 438.101562 217.453125 438.550781 C 217.269531 438.996094 217.039062 439.421875 216.769531 439.828125 C 216.5 440.230469 216.195312 440.605469 215.851562 440.949219 C 215.507812 441.289062 215.136719 441.597656 214.730469 441.867188 C 214.328125 442.136719 213.902344 442.363281 213.453125 442.550781 C 213.003906 442.734375 212.542969 442.875 212.066406 442.972656 C 211.589844 443.066406 211.109375 443.113281 210.625 443.113281 C 210.140625 443.113281 209.65625 443.066406 209.183594 442.972656 C 208.707031 442.875 208.242188 442.734375 207.796875 442.550781 C 207.347656 442.363281 206.921875 442.136719 206.515625 441.867188 C 206.113281 441.597656 205.742188 441.289062 205.398438 440.949219 C 205.054688 440.605469 204.746094 440.230469 204.476562 439.828125 C 204.207031 439.421875 203.980469 438.996094 203.792969 438.550781 C 203.609375 438.101562 203.46875 437.640625 203.375 437.164062 C 203.28125 436.6875 203.230469 436.207031 203.230469 435.71875 C 203.230469 435.234375 203.28125 434.753906 203.375 434.277344 C 203.46875 433.800781 203.609375 433.339844 203.792969 432.890625 C 203.980469 432.441406 204.207031 432.015625 204.476562 431.613281 C 204.746094 431.210938 205.054688 430.835938 205.398438 430.492188 C 205.742188 430.148438 206.113281 429.84375 206.515625 429.574219 C 206.921875 429.304688 207.347656 429.078125 207.796875 428.890625 C 208.242188 428.707031 208.707031 428.566406 209.183594 428.46875 C 209.65625 428.375 210.140625 428.328125 210.625 428.328125 C 211.109375 428.328125 211.589844 428.375 212.066406 428.46875 C 212.542969 428.566406 213.003906 428.707031 213.453125 428.890625 C 213.902344 429.078125 214.328125 429.304688 214.730469 429.574219 C 215.136719 429.84375 215.507812 430.148438 215.851562 430.492188 C 216.195312 430.835938 216.5 431.210938 216.769531 431.613281 C 217.039062 432.015625 217.269531 432.441406 217.453125 432.890625 C 217.640625 433.339844 217.78125 433.800781 217.875 434.277344 C 217.96875 434.753906 218.015625 435.234375 218.015625 435.71875 Z M 218.015625 435.71875 " fill-opacity="1" fill-rule="nonzero"/><path fill="#fc6a1f" d="M 245.367188 418.71875 C 245.367188 419.203125 245.320312 419.683594 245.226562 420.160156 C 245.132812 420.636719 244.992188 421.097656 244.804688 421.546875 C 244.621094 421.996094 244.390625 422.421875 244.121094 422.824219 C 243.851562 423.230469 243.546875 423.601562 243.203125 423.945312 C 242.859375 424.289062 242.488281 424.59375 242.082031 424.863281 C 241.679688 425.132812 241.253906 425.363281 240.804688 425.546875 C 240.355469 425.734375 239.894531 425.875 239.417969 425.96875 C 238.941406 426.0625 238.460938 426.109375 237.976562 426.109375 C 237.492188 426.109375 237.007812 426.0625 236.535156 425.96875 C 236.058594 425.875 235.59375 425.734375 235.148438 425.546875 C 234.699219 425.363281 234.273438 425.132812 233.867188 424.863281 C 233.464844 424.59375 233.09375 424.289062 232.75 423.945312 C 232.40625 423.601562 232.097656 423.230469 231.828125 422.824219 C 231.558594 422.421875 231.332031 421.996094 231.144531 421.546875 C 230.960938 421.097656 230.820312 420.636719 230.726562 420.160156 C 230.632812 419.683594 230.582031 419.203125 230.582031 418.71875 C 230.582031 418.234375 230.632812 417.753906 230.726562 417.277344 C 230.820312 416.800781 230.960938 416.335938 231.144531 415.890625 C 231.332031 415.441406 231.558594 415.015625 231.828125 414.609375 C 232.097656 414.207031 232.40625 413.835938 232.75 413.492188 C 233.09375 413.148438 233.464844 412.839844 233.867188 412.570312 C 234.273438 412.300781 234.699219 412.074219 235.148438 411.886719 C 235.59375 411.703125 236.058594 411.5625 236.535156 411.46875 C 237.007812 411.375 237.492188 411.324219 237.976562 411.324219 C 238.460938 411.324219 238.941406 411.375 239.417969 411.46875 C 239.894531 411.5625 240.355469 411.703125 240.804688 411.886719 C 241.253906 412.074219 241.679688 412.300781 242.082031 412.570312 C 242.488281 412.839844 242.859375 413.148438 243.203125 413.492188 C 243.546875 413.835938 243.851562 414.207031 244.121094 414.609375 C 244.390625 415.015625 244.621094 415.441406 244.804688 415.890625 C 244.992188 416.335938 245.132812 416.800781 245.226562 417.277344 C 245.320312 417.753906 245.367188 418.234375 245.367188 418.71875 Z M 245.367188 418.71875 " fill-opacity="1" fill-rule="nonzero"/><path fill="#fc6a1f" d="M 274.199219 418.71875 C 274.199219 419.203125 274.152344 419.683594 274.054688 420.160156 C 273.960938 420.636719 273.820312 421.097656 273.636719 421.546875 C 273.449219 421.996094 273.222656 422.421875 272.953125 422.824219 C 272.683594 423.230469 272.375 423.601562 272.03125 423.945312 C 271.691406 424.289062 271.316406 424.59375 270.914062 424.863281 C 270.507812 425.132812 270.082031 425.363281 269.632812 425.546875 C 269.1875 425.734375 268.722656 425.875 268.246094 425.96875 C 267.773438 426.0625 267.292969 426.109375 266.804688 426.109375 C 266.320312 426.109375 265.839844 426.0625 265.363281 425.96875 C 264.886719 425.875 264.425781 425.734375 263.976562 425.546875 C 263.527344 425.363281 263.101562 425.132812 262.699219 424.863281 C 262.296875 424.59375 261.921875 424.289062 261.578125 423.945312 C 261.234375 423.601562 260.929688 423.230469 260.660156 422.824219 C 260.390625 422.421875 260.160156 421.996094 259.976562 421.546875 C 259.789062 421.097656 259.648438 420.636719 259.554688 420.160156 C 259.460938 419.683594 259.414062 419.203125 259.414062 418.71875 C 259.414062 418.234375 259.460938 417.753906 259.554688 417.277344 C 259.648438 416.800781 259.789062 416.335938 259.976562 415.890625 C 260.160156 415.441406 260.390625 415.015625 260.660156 414.609375 C 260.929688 414.207031 261.234375 413.835938 261.578125 413.492188 C 261.921875 413.148438 262.296875 412.839844 262.699219 412.570312 C 263.101562 412.300781 263.527344 412.074219 263.976562 411.886719 C 264.425781 411.703125 264.886719 411.5625 265.363281 411.46875 C 265.839844 411.375 266.320312 411.324219 266.804688 411.324219 C 267.292969 411.324219 267.773438 411.375 268.246094 411.46875 C 268.722656 411.5625 269.1875 411.703125 269.632812 411.886719 C 270.082031 412.074219 270.507812 412.300781 270.914062 412.570312 C 271.316406 412.839844 271.691406 413.148438 272.03125 413.492188 C 272.375 413.835938 272.683594 414.207031 272.953125 414.609375 C 273.222656 415.015625 273.449219 415.441406 273.636719 415.890625 C 273.820312 416.335938 273.960938 416.800781 274.054688 417.277344 C 274.152344 417.753906 274.199219 418.234375 274.199219 418.71875 Z M 274.199219 418.71875 " fill-opacity="1" fill-rule="nonzero"/><path fill="#fc6a1f" d="M 281.589844 443.113281 C 281.589844 443.597656 281.542969 444.078125 281.449219 444.554688 C 281.355469 445.03125 281.214844 445.492188 281.027344 445.941406 C 280.84375 446.390625 280.613281 446.816406 280.34375 447.21875 C 280.074219 447.625 279.769531 447.996094 279.425781 448.339844 C 279.082031 448.683594 278.707031 448.988281 278.304688 449.257812 C 277.902344 449.527344 277.476562 449.757812 277.027344 449.941406 C 276.578125 450.128906 276.117188 450.269531 275.640625 450.363281 C 275.164062 450.457031 274.683594 450.503906 274.199219 450.503906 C 273.710938 450.503906 273.230469 450.457031 272.757812 450.363281 C 272.28125 450.269531 271.816406 450.128906 271.371094 449.941406 C 270.921875 449.757812 270.496094 449.527344 270.089844 449.257812 C 269.6875 448.988281 269.3125 448.683594 268.972656 448.339844 C 268.628906 447.996094 268.320312 447.625 268.050781 447.21875 C 267.78125 446.816406 267.554688 446.390625 267.367188 445.941406 C 267.183594 445.492188 267.042969 445.03125 266.949219 444.554688 C 266.851562 444.078125 266.804688 443.597656 266.804688 443.113281 C 266.804688 442.628906 266.851562 442.148438 266.949219 441.671875 C 267.042969 441.195312 267.183594 440.730469 267.367188 440.285156 C 267.554688 439.835938 267.78125 439.410156 268.050781 439.003906 C 268.320312 438.601562 268.628906 438.230469 268.972656 437.886719 C 269.3125 437.542969 269.6875 437.234375 270.089844 436.964844 C 270.496094 436.695312 270.921875 436.46875 271.371094 436.285156 C 271.816406 436.097656 272.28125 435.957031 272.757812 435.863281 C 273.230469 435.769531 273.710938 435.71875 274.199219 435.71875 C 274.683594 435.71875 275.164062 435.769531 275.640625 435.863281 C 276.117188 435.957031 276.578125 436.097656 277.027344 436.28125 C 277.476562 436.46875 277.902344 436.695312 278.304688 436.964844 C 278.707031 437.234375 279.082031 437.542969 279.425781 437.886719 C 279.769531 438.230469 280.074219 438.601562 280.34375 439.003906 C 280.613281 439.410156 280.84375 439.835938 281.027344 440.285156 C 281.214844 440.730469 281.355469 441.195312 281.449219 441.671875 C 281.542969 442.148438 281.589844 442.628906 281.589844 443.113281 Z M 281.589844 443.113281 " fill-opacity="1" fill-rule="nonzero"/><path fill="#fc6a1f" d="M 252.761719 443.113281 C 252.761719 443.597656 252.714844 444.078125 252.617188 444.554688 C 252.523438 445.03125 252.382812 445.492188 252.199219 445.941406 C 252.011719 446.390625 251.785156 446.816406 251.515625 447.21875 C 251.246094 447.625 250.9375 447.996094 250.59375 448.339844 C 250.253906 448.683594 249.878906 448.988281 249.476562 449.257812 C 249.070312 449.527344 248.644531 449.757812 248.195312 449.941406 C 247.75 450.128906 247.285156 450.269531 246.808594 450.363281 C 246.335938 450.457031 245.855469 450.503906 245.367188 450.503906 C 244.882812 450.503906 244.402344 450.457031 243.925781 450.363281 C 243.449219 450.269531 242.988281 450.128906 242.539062 449.941406 C 242.089844 449.757812 241.664062 449.527344 241.261719 449.257812 C 240.859375 448.988281 240.484375 448.683594 240.140625 448.339844 C 239.796875 447.996094 239.492188 447.625 239.222656 447.21875 C 238.953125 446.816406 238.722656 446.390625 238.539062 445.941406 C 238.351562 445.492188 238.210938 445.03125 238.117188 444.554688 C 238.023438 444.078125 237.976562 443.597656 237.976562 443.113281 C 237.976562 442.628906 238.023438 442.148438 238.117188 441.671875 C 238.210938 441.195312 238.351562 440.730469 238.539062 440.285156 C 238.722656 439.835938 238.953125 439.410156 239.222656 439.003906 C 239.492188 438.601562 239.796875 438.230469 240.140625 437.886719 C 240.484375 437.542969 240.859375 437.234375 241.261719 436.964844 C 241.664062 436.695312 242.089844 436.46875 242.539062 436.285156 C 242.988281 436.097656 243.449219 435.957031 243.925781 435.863281 C 244.402344 435.769531 244.882812 435.71875 245.367188 435.71875 C 245.855469 435.71875 246.335938 435.769531 246.808594 435.863281 C 247.285156 435.957031 247.75 436.097656 248.195312 436.28125 C 248.644531 436.46875 249.070312 436.695312 249.476562 436.964844 C 249.878906 437.234375 250.253906 437.542969 250.59375 437.886719 C 250.9375 438.230469 251.246094 438.601562 251.515625 439.003906 C 251.785156 439.410156 252.011719 439.835938 252.199219 440.285156 C 252.382812 440.730469 252.523438 441.195312 252.617188 441.671875 C 252.714844 442.148438 252.761719 442.628906 252.761719 443.113281 Z M 252.761719 443.113281 " fill-opacity="1" fill-rule="nonzero"/><path fill="#fc6a1f" d="M 924.722656 435.71875 C 924.722656 436.207031 924.671875 436.6875 924.578125 437.164062 C 924.484375 437.636719 924.34375 438.101562 924.15625 438.550781 C 923.972656 438.996094 923.746094 439.421875 923.476562 439.828125 C 923.207031 440.230469 922.898438 440.605469 922.554688 440.949219 C 922.210938 441.289062 921.839844 441.597656 921.433594 441.867188 C 921.03125 442.136719 920.605469 442.363281 920.15625 442.550781 C 919.710938 442.734375 919.246094 442.875 918.769531 442.972656 C 918.292969 443.066406 917.8125 443.113281 917.328125 443.113281 C 916.84375 443.113281 916.363281 443.066406 915.886719 442.972656 C 915.410156 442.875 914.949219 442.734375 914.5 442.550781 C 914.050781 442.363281 913.625 442.136719 913.222656 441.867188 C 912.816406 441.597656 912.445312 441.289062 912.101562 440.949219 C 911.757812 440.605469 911.453125 440.230469 911.183594 439.828125 C 910.914062 439.421875 910.683594 438.996094 910.5 438.550781 C 910.3125 438.101562 910.171875 437.640625 910.078125 437.164062 C 909.984375 436.6875 909.9375 436.207031 909.9375 435.71875 C 909.9375 435.234375 909.984375 434.753906 910.078125 434.277344 C 910.171875 433.800781 910.3125 433.339844 910.5 432.890625 C 910.683594 432.441406 910.914062 432.015625 911.183594 431.613281 C 911.453125 431.210938 911.757812 430.835938 912.101562 430.492188 C 912.445312 430.148438 912.816406 429.84375 913.222656 429.574219 C 913.625 429.304688 914.050781 429.078125 914.5 428.890625 C 914.949219 428.707031 915.410156 428.566406 915.886719 428.46875 C 916.363281 428.375 916.84375 428.328125 917.328125 428.328125 C 917.8125 428.328125 918.292969 428.375 918.769531 428.46875 C 919.246094 428.566406 919.710938 428.707031 920.15625 428.890625 C 920.605469 429.078125 921.03125 429.304688 921.433594 429.574219 C 921.839844 429.84375 922.210938 430.148438 922.554688 430.492188 C 922.898438 430.835938 923.207031 431.210938 923.476562 431.613281 C 923.746094 432.015625 923.972656 432.441406 924.15625 432.890625 C 924.34375 433.339844 924.484375 433.800781 924.578125 434.277344 C 924.671875 434.753906 924.722656 435.234375 924.722656 435.71875 Z M 924.722656 435.71875 " fill-opacity="1" fill-rule="nonzero"/><path fill="#fc6a1f" d="M 897.371094 418.71875 C 897.371094 419.203125 897.320312 419.683594 897.226562 420.160156 C 897.132812 420.636719 896.992188 421.097656 896.804688 421.546875 C 896.621094 421.996094 896.394531 422.421875 896.125 422.824219 C 895.855469 423.230469 895.546875 423.601562 895.203125 423.945312 C 894.859375 424.289062 894.488281 424.59375 894.082031 424.863281 C 893.679688 425.132812 893.253906 425.363281 892.804688 425.546875 C 892.359375 425.734375 891.894531 425.875 891.417969 425.96875 C 890.941406 426.0625 890.460938 426.109375 889.976562 426.109375 C 889.492188 426.109375 889.011719 426.0625 888.535156 425.96875 C 888.058594 425.875 887.597656 425.734375 887.148438 425.546875 C 886.699219 425.363281 886.273438 425.132812 885.871094 424.863281 C 885.464844 424.59375 885.09375 424.289062 884.75 423.945312 C 884.40625 423.601562 884.101562 423.230469 883.832031 422.824219 C 883.5625 422.421875 883.332031 421.996094 883.148438 421.546875 C 882.960938 421.097656 882.820312 420.636719 882.726562 420.160156 C 882.632812 419.683594 882.585938 419.203125 882.585938 418.71875 C 882.585938 418.234375 882.632812 417.753906 882.726562 417.277344 C 882.820312 416.800781 882.960938 416.335938 883.148438 415.890625 C 883.332031 415.441406 883.5625 415.015625 883.832031 414.609375 C 884.101562 414.207031 884.40625 413.835938 884.75 413.492188 C 885.09375 413.148438 885.464844 412.839844 885.871094 412.570312 C 886.273438 412.300781 886.699219 412.074219 887.148438 411.886719 C 887.597656 411.703125 888.058594 411.5625 888.535156 411.46875 C 889.011719 411.375 889.492188 411.324219 889.976562 411.324219 C 890.460938 411.324219 890.941406 411.375 891.417969 411.46875 C 891.894531 411.5625 892.359375 411.703125 892.804688 411.886719 C 893.253906 412.074219 893.679688 412.300781 894.082031 412.570312 C 894.488281 412.839844 894.859375 413.148438 895.203125 413.492188 C 895.546875 413.835938 895.855469 414.207031 896.125 414.609375 C 896.394531 415.015625 896.621094 415.441406 896.804688 415.890625 C 896.992188 416.335938 897.132812 416.800781 897.226562 417.277344 C 897.320312 417.753906 897.371094 418.234375 897.371094 418.71875 Z M 897.371094 418.71875 " fill-opacity="1" fill-rule="nonzero"/><path fill="#fc6a1f" d="M 868.539062 418.71875 C 868.539062 419.203125 868.492188 419.683594 868.398438 420.160156 C 868.300781 420.636719 868.164062 421.097656 867.976562 421.546875 C 867.789062 421.996094 867.5625 422.421875 867.292969 422.824219 C 867.023438 423.230469 866.71875 423.601562 866.375 423.945312 C 866.03125 424.289062 865.65625 424.59375 865.253906 424.863281 C 864.851562 425.132812 864.425781 425.363281 863.976562 425.546875 C 863.527344 425.734375 863.066406 425.875 862.589844 425.96875 C 862.113281 426.0625 861.632812 426.109375 861.148438 426.109375 C 860.660156 426.109375 860.179688 426.0625 859.703125 425.96875 C 859.230469 425.875 858.765625 425.734375 858.316406 425.546875 C 857.871094 425.363281 857.445312 425.132812 857.039062 424.863281 C 856.636719 424.59375 856.261719 424.289062 855.917969 423.945312 C 855.578125 423.601562 855.269531 423.230469 855 422.824219 C 854.730469 422.421875 854.503906 421.996094 854.316406 421.546875 C 854.132812 421.097656 853.992188 420.636719 853.898438 420.160156 C 853.800781 419.683594 853.753906 419.203125 853.753906 418.71875 C 853.753906 418.234375 853.800781 417.753906 853.898438 417.277344 C 853.992188 416.800781 854.132812 416.335938 854.316406 415.890625 C 854.503906 415.441406 854.730469 415.015625 855 414.609375 C 855.269531 414.207031 855.578125 413.835938 855.917969 413.492188 C 856.261719 413.148438 856.636719 412.839844 857.039062 412.570312 C 857.445312 412.300781 857.871094 412.074219 858.316406 411.886719 C 858.765625 411.703125 859.230469 411.5625 859.703125 411.46875 C 860.179688 411.375 860.660156 411.324219 861.148438 411.324219 C 861.632812 411.324219 862.113281 411.375 862.589844 411.46875 C 863.066406 411.5625 863.527344 411.703125 863.976562 411.886719 C 864.425781 412.074219 864.851562 412.300781 865.253906 412.570312 C 865.65625 412.839844 866.03125 413.148438 866.375 413.492188 C 866.71875 413.835938 867.023438 414.207031 867.292969 414.609375 C 867.5625 415.015625 867.789062 415.441406 867.976562 415.890625 C 868.164062 416.335938 868.300781 416.800781 868.398438 417.277344 C 868.492188 417.753906 868.539062 418.234375 868.539062 418.71875 Z M 868.539062 418.71875 " fill-opacity="1" fill-rule="nonzero"/><path fill="#fc6a1f" d="M 861.148438 443.113281 C 861.148438 443.597656 861.101562 444.078125 861.003906 444.554688 C 860.910156 445.03125 860.769531 445.492188 860.585938 445.941406 C 860.398438 446.390625 860.171875 446.816406 859.902344 447.21875 C 859.632812 447.625 859.324219 447.996094 858.980469 448.339844 C 858.636719 448.683594 858.265625 448.988281 857.863281 449.257812 C 857.457031 449.527344 857.03125 449.757812 856.582031 449.941406 C 856.136719 450.128906 855.671875 450.269531 855.195312 450.363281 C 854.722656 450.457031 854.238281 450.503906 853.753906 450.503906 C 853.269531 450.503906 852.789062 450.457031 852.3125 450.363281 C 851.835938 450.269531 851.375 450.128906 850.925781 449.941406 C 850.476562 449.757812 850.050781 449.527344 849.648438 449.257812 C 849.246094 448.988281 848.871094 448.683594 848.527344 448.339844 C 848.183594 447.996094 847.878906 447.625 847.609375 447.21875 C 847.339844 446.816406 847.109375 446.390625 846.925781 445.941406 C 846.738281 445.492188 846.597656 445.03125 846.503906 444.554688 C 846.410156 444.078125 846.363281 443.597656 846.363281 443.113281 C 846.363281 442.628906 846.410156 442.148438 846.503906 441.671875 C 846.597656 441.195312 846.738281 440.730469 846.925781 440.285156 C 847.109375 439.835938 847.339844 439.410156 847.609375 439.003906 C 847.878906 438.601562 848.183594 438.230469 848.527344 437.886719 C 848.871094 437.542969 849.246094 437.234375 849.648438 436.964844 C 850.050781 436.695312 850.476562 436.46875 850.925781 436.285156 C 851.375 436.097656 851.835938 435.957031 852.3125 435.863281 C 852.789062 435.769531 853.269531 435.71875 853.753906 435.71875 C 854.238281 435.71875 854.722656 435.769531 855.195312 435.863281 C 855.671875 435.957031 856.136719 436.097656 856.582031 436.28125 C 857.03125 436.46875 857.457031 436.695312 857.863281 436.964844 C 858.265625 437.234375 858.636719 437.542969 858.980469 437.886719 C 859.324219 438.230469 859.632812 438.601562 859.902344 439.003906 C 860.171875 439.410156 860.398438 439.835938 860.585938 440.285156 C 860.769531 440.730469 860.910156 441.195312 861.003906 441.671875 C 861.101562 442.148438 861.148438 442.628906 861.148438 443.113281 Z M 861.148438 443.113281 " fill-opacity="1" fill-rule="nonzero"/><path fill="#fc6a1f" d="M 889.976562 443.113281 C 889.976562 443.597656 889.929688 444.078125 889.835938 444.554688 C 889.742188 445.03125 889.601562 445.492188 889.414062 445.941406 C 889.230469 446.390625 889 446.816406 888.730469 447.21875 C 888.460938 447.625 888.15625 447.996094 887.8125 448.339844 C 887.46875 448.683594 887.09375 448.988281 886.691406 449.257812 C 886.289062 449.527344 885.863281 449.757812 885.414062 449.941406 C 884.964844 450.128906 884.503906 450.269531 884.027344 450.363281 C 883.550781 450.457031 883.070312 450.503906 882.585938 450.503906 C 882.097656 450.503906 881.617188 450.457031 881.140625 450.363281 C 880.667969 450.269531 880.203125 450.128906 879.753906 449.941406 C 879.308594 449.757812 878.882812 449.527344 878.476562 449.257812 C 878.074219 448.988281 877.699219 448.683594 877.359375 448.339844 C 877.015625 447.996094 876.707031 447.625 876.4375 447.21875 C 876.167969 446.816406 875.941406 446.390625 875.753906 445.941406 C 875.570312 445.492188 875.429688 445.03125 875.335938 444.554688 C 875.238281 444.078125 875.191406 443.597656 875.191406 443.113281 C 875.191406 442.628906 875.238281 442.148438 875.335938 441.671875 C 875.429688 441.195312 875.570312 440.730469 875.753906 440.285156 C 875.941406 439.835938 876.167969 439.410156 876.4375 439.003906 C 876.707031 438.601562 877.015625 438.230469 877.359375 437.886719 C 877.699219 437.542969 878.074219 437.234375 878.476562 436.964844 C 878.882812 436.695312 879.308594 436.46875 879.753906 436.285156 C 880.203125 436.097656 880.667969 435.957031 881.140625 435.863281 C 881.617188 435.769531 882.097656 435.71875 882.585938 435.71875 C 883.070312 435.71875 883.550781 435.769531 884.027344 435.863281 C 884.503906 435.957031 884.964844 436.097656 885.414062 436.28125 C 885.863281 436.46875 886.289062 436.695312 886.691406 436.964844 C 887.09375 437.234375 887.46875 437.542969 887.8125 437.886719 C 888.15625 438.230469 888.460938 438.601562 888.730469 439.003906 C 889 439.410156 889.230469 439.835938 889.414062 440.285156 C 889.601562 440.730469 889.742188 441.195312 889.835938 441.671875 C 889.929688 442.148438 889.976562 442.628906 889.976562 443.113281 Z M 889.976562 443.113281 " fill-opacity="1" fill-rule="nonzero"/><path fill="#fc6a1f" d="M 639.378906 750.632812 C 639.378906 840.078125 712.5625 913.261719 802.007812 913.261719 C 891.457031 913.261719 964.640625 840.078125 964.640625 750.632812 C 964.640625 661.1875 891.457031 588.003906 802.007812 588.003906 C 712.5625 588.003906 639.378906 661.1875 639.378906 750.632812 Z M 935.070312 750.632812 C 935.070312 823.816406 875.191406 883.695312 802.007812 883.695312 C 728.824219 883.695312 668.945312 823.816406 668.945312 750.632812 C 668.945312 677.449219 728.824219 617.570312 802.007812 617.570312 C 875.191406 617.570312 935.070312 677.449219 935.070312 750.632812 Z M 935.070312 750.632812 " fill-opacity="1" fill-rule="nonzero"/><path fill="#fc6a1f" d="M 757.65625 676.710938 L 757.65625 706.277344 L 728.085938 706.277344 C 711.824219 706.277344 698.515625 719.585938 698.515625 735.847656 L 698.515625 765.417969 C 698.515625 781.679688 711.824219 794.988281 728.085938 794.988281 L 757.65625 794.988281 L 757.65625 824.554688 C 757.65625 840.820312 770.960938 854.125 787.222656 854.125 L 816.792969 854.125 C 833.054688 854.125 846.363281 840.820312 846.363281 824.554688 L 846.363281 794.988281 L 875.933594 794.988281 C 892.195312 794.988281 905.5 781.679688 905.5 765.417969 L 905.5 735.847656 C 905.5 719.585938 892.195312 706.277344 875.933594 706.277344 L 846.363281 706.277344 L 846.363281 676.710938 C 846.363281 660.445312 833.054688 647.140625 816.792969 647.140625 L 787.222656 647.140625 C 770.222656 647.140625 757.65625 660.445312 757.65625 676.710938 Z M 831.578125 735.847656 L 875.933594 735.847656 L 875.933594 765.417969 L 831.578125 765.417969 C 823.445312 765.417969 816.792969 772.070312 816.792969 780.203125 L 816.792969 824.554688 L 787.222656 824.554688 L 787.222656 780.203125 C 787.222656 772.070312 780.570312 765.417969 772.441406 765.417969 L 728.085938 765.417969 L 728.085938 735.847656 L 772.441406 735.847656 C 780.570312 735.847656 787.222656 729.195312 787.222656 721.0625 L 787.222656 676.710938 L 816.792969 676.710938 L 816.792969 721.0625 C 816.792969 729.195312 822.707031 735.847656 831.578125 735.847656 Z M 831.578125 735.847656 " fill-opacity="1" fill-rule="nonzero"/><g clip-path="url(#0b45699bea)"><g clip-path="url(#8ea5f5ebe0)"><g clip-path="url(#1f2b642be1)"><path fill="#fc6a1f" d="M 1053.15625 146.011719 L 1084.339844 146.011719 L 1084.339844 998.421875 L 1053.15625 998.421875 Z M 1053.15625 146.011719 " fill-opacity="1" fill-rule="nonzero"/></g></g></g><g clip-path="url(#4c9843137c)"><g clip-path="url(#8c85d7018e)"><g clip-path="url(#80422bf760)"><path fill="#fc6a1f" d="M 40.65625 146.011719 L 71.84375 146.011719 L 71.84375 998.421875 L 40.65625 998.421875 Z M 40.65625 146.011719 " fill-opacity="1" fill-rule="nonzero"/></g></g></g><g clip-path="url(#60df553493)"><g clip-path="url(#edbac69343)"><g clip-path="url(#78eb7ebbce)"><path fill="#fc6a1f" d="M 136.292969 50.375 L 988.703125 50.375 L 988.703125 81.5625 L 136.292969 81.5625 Z M 136.292969 50.375 " fill-opacity="1" fill-rule="nonzero"/></g></g></g><g clip-path="url(#081760fd36)"><g clip-path="url(#a5ee5ecf06)"><g clip-path="url(#f457567e69)"><path fill="#fc6a1f" d="M 136.292969 1062.875 L 988.703125 1062.875 L 988.703125 1094.058594 L 136.292969 1094.058594 Z M 136.292969 1062.875 " fill-opacity="1" fill-rule="nonzero"/></g></g></g><g clip-path="url(#f0f6633c06)"><g clip-path="url(#45d846f63f)"><g clip-path="url(#c2ef306899)"><path fill="#fc6a1f" d="M 1053.15625 81.5625 L 1053.15625 146.011719 L 1084.339844 146.011719 L 1084.339844 50.375 L 988.703125 50.375 L 988.703125 81.5625 Z M 1053.15625 81.5625 " fill-opacity="1" fill-rule="nonzero"/></g></g></g><g clip-path="url(#b5f96501a2)"><g clip-path="url(#18dc44c56b)"><g clip-path="url(#24e30ed75f)"><path fill="#fc6a1f" d="M 71.84375 81.5625 L 136.292969 81.5625 L 136.292969 50.375 L 40.65625 50.375 L 40.65625 146.011719 L 71.84375 146.011719 Z M 71.84375 81.5625 " fill-opacity="1" fill-rule="nonzero"/></g></g></g><g clip-path="url(#a114f190a5)"><g clip-path="url(#86df20fd94)"><g clip-path="url(#56bb1e29cc)"><path fill="#fc6a1f" d="M 1053.15625 1062.875 L 988.703125 1062.875 L 988.703125 1094.058594 L 1084.339844 1094.058594 L 1084.339844 998.421875 L 1053.15625 998.421875 Z M 1053.15625 1062.875 " fill-opacity="1" fill-rule="nonzero"/></g></g></g><g clip-path="url(#92fe508115)"><g clip-path="url(#b10cf10b45)"><g clip-path="url(#befc370c5d)"><path fill="#fc6a1f" d="M 71.84375 1062.875 L 71.84375 998.421875 L 40.65625 998.421875 L 40.65625 1094.058594 L 136.292969 1094.058594 L 136.292969 1062.875 Z M 71.84375 1062.875 " fill-opacity="1" fill-rule="nonzero"/></g></g></g><g clip-path="url(#8e3030256f)"><g clip-path="url(#238a855c95)"><g clip-path="url(#6b54ca3f68)"><path stroke-linecap="butt" transform="matrix(0.75, 0, 0, 0.75, 40.657485, 50.376069)" fill="none" stroke-linejoin="miter" d="M -0.00164733 55.998579 L -0.00164733 1335.576814 C -0.00164733 1366.5039 25.071271 1391.576819 55.998357 1391.576819 L 1335.576593 1391.576819 C 1366.503679 1391.576819 1391.576597 1366.5039 1391.576597 1335.576814 L 1391.576597 55.998579 C 1391.576597 25.071493 1366.503679 -0.00142568 1335.576593 -0.00142568 L 55.998357 -0.00142568 C 25.071271 -0.00142568 -0.00164733 25.071493 -0.00164733 55.998579 Z M -0.00164733 55.998579 " stroke="#fc6a1f" stroke-width="66" stroke-opacity="1" stroke-miterlimit="4"/></g></g></g></svg>