<svg xmlns="http://www.w3.org/2000/svg" xmlns:xlink="http://www.w3.org/1999/xlink" width="1500" zoomAndPan="magnify" viewBox="0 0 1125 1124.99995" height="1500" preserveAspectRatio="xMidYMid meet" version="1.0"><defs><clipPath id="51b9d02670"><path d="M 171.164062 112.5 L 954 112.5 L 954 1021.5 L 171.164062 1021.5 Z M 171.164062 112.5 " clip-rule="nonzero"/></clipPath><clipPath id="555c58c17b"><path d="M 1053 146 L 1083.90625 146 L 1083.90625 999 L 1053 999 Z M 1053 146 " clip-rule="nonzero"/></clipPath><clipPath id="00ded32537"><path d="M 40.65625 92.375 L 40.65625 1052.0625 C 40.65625 1075.257812 59.460938 1094.0625 82.65625 1094.0625 L 1042.34375 1094.0625 C 1065.539062 1094.0625 1084.34375 1075.257812 1084.34375 1052.0625 L 1084.34375 92.375 C 1084.34375 69.179688 1065.539062 50.375 1042.34375 50.375 L 82.65625 50.375 C 59.460938 50.375 40.65625 69.179688 40.65625 92.375 Z M 40.65625 92.375 " clip-rule="nonzero"/></clipPath><clipPath id="bb64e877eb"><path d="M 83.558594 51.277344 L 1041.441406 51.277344 C 1064.636719 51.277344 1083.441406 70.082031 1083.441406 93.277344 L 1083.441406 1051.160156 C 1083.441406 1074.355469 1064.636719 1093.160156 1041.441406 1093.160156 L 83.558594 1093.160156 C 60.363281 1093.160156 41.558594 1074.355469 41.558594 1051.160156 L 41.558594 93.277344 C 41.558594 70.082031 60.363281 51.277344 83.558594 51.277344 Z M 83.558594 51.277344 " clip-rule="nonzero"/></clipPath><clipPath id="a570d08a88"><path d="M 41.40625 146 L 72 146 L 72 999 L 41.40625 999 Z M 41.40625 146 " clip-rule="nonzero"/></clipPath><clipPath id="d1719d0ecf"><path d="M 40.65625 92.375 L 40.65625 1052.0625 C 40.65625 1075.257812 59.460938 1094.0625 82.65625 1094.0625 L 1042.34375 1094.0625 C 1065.539062 1094.0625 1084.34375 1075.257812 1084.34375 1052.0625 L 1084.34375 92.375 C 1084.34375 69.179688 1065.539062 50.375 1042.34375 50.375 L 82.65625 50.375 C 59.460938 50.375 40.65625 69.179688 40.65625 92.375 Z M 40.65625 92.375 " clip-rule="nonzero"/></clipPath><clipPath id="39f2f663b6"><path d="M 83.558594 51.277344 L 1041.441406 51.277344 C 1064.636719 51.277344 1083.441406 70.082031 1083.441406 93.277344 L 1083.441406 1051.160156 C 1083.441406 1074.355469 1064.636719 1093.160156 1041.441406 1093.160156 L 83.558594 1093.160156 C 60.363281 1093.160156 41.558594 1074.355469 41.558594 1051.160156 L 41.558594 93.277344 C 41.558594 70.082031 60.363281 51.277344 83.558594 51.277344 Z M 83.558594 51.277344 " clip-rule="nonzero"/></clipPath><clipPath id="651ad423c1"><path d="M 136 51.125 L 989 51.125 L 989 82 L 136 82 Z M 136 51.125 " clip-rule="nonzero"/></clipPath><clipPath id="e09827e45d"><path d="M 40.65625 92.375 L 40.65625 1052.0625 C 40.65625 1075.257812 59.460938 1094.0625 82.65625 1094.0625 L 1042.34375 1094.0625 C 1065.539062 1094.0625 1084.34375 1075.257812 1084.34375 1052.0625 L 1084.34375 92.375 C 1084.34375 69.179688 1065.539062 50.375 1042.34375 50.375 L 82.65625 50.375 C 59.460938 50.375 40.65625 69.179688 40.65625 92.375 Z M 40.65625 92.375 " clip-rule="nonzero"/></clipPath><clipPath id="eb133acdc3"><path d="M 83.558594 51.277344 L 1041.441406 51.277344 C 1064.636719 51.277344 1083.441406 70.082031 1083.441406 93.277344 L 1083.441406 1051.160156 C 1083.441406 1074.355469 1064.636719 1093.160156 1041.441406 1093.160156 L 83.558594 1093.160156 C 60.363281 1093.160156 41.558594 1074.355469 41.558594 1051.160156 L 41.558594 93.277344 C 41.558594 70.082031 60.363281 51.277344 83.558594 51.277344 Z M 83.558594 51.277344 " clip-rule="nonzero"/></clipPath><clipPath id="e3ec496cef"><path d="M 136 1062 L 989 1062 L 989 1093.625 L 136 1093.625 Z M 136 1062 " clip-rule="nonzero"/></clipPath><clipPath id="355bfb37ef"><path d="M 40.65625 92.375 L 40.65625 1052.0625 C 40.65625 1075.257812 59.460938 1094.0625 82.65625 1094.0625 L 1042.34375 1094.0625 C 1065.539062 1094.0625 1084.34375 1075.257812 1084.34375 1052.0625 L 1084.34375 92.375 C 1084.34375 69.179688 1065.539062 50.375 1042.34375 50.375 L 82.65625 50.375 C 59.460938 50.375 40.65625 69.179688 40.65625 92.375 Z M 40.65625 92.375 " clip-rule="nonzero"/></clipPath><clipPath id="ddf90e0619"><path d="M 83.558594 51.277344 L 1041.441406 51.277344 C 1064.636719 51.277344 1083.441406 70.082031 1083.441406 93.277344 L 1083.441406 1051.160156 C 1083.441406 1074.355469 1064.636719 1093.160156 1041.441406 1093.160156 L 83.558594 1093.160156 C 60.363281 1093.160156 41.558594 1074.355469 41.558594 1051.160156 L 41.558594 93.277344 C 41.558594 70.082031 60.363281 51.277344 83.558594 51.277344 Z M 83.558594 51.277344 " clip-rule="nonzero"/></clipPath><clipPath id="f2e2782593"><path d="M 988 51.125 L 1083.90625 51.125 L 1083.90625 147 L 988 147 Z M 988 51.125 " clip-rule="nonzero"/></clipPath><clipPath id="8e951a84e5"><path d="M 40.65625 92.375 L 40.65625 1052.0625 C 40.65625 1075.257812 59.460938 1094.0625 82.65625 1094.0625 L 1042.34375 1094.0625 C 1065.539062 1094.0625 1084.34375 1075.257812 1084.34375 1052.0625 L 1084.34375 92.375 C 1084.34375 69.179688 1065.539062 50.375 1042.34375 50.375 L 82.65625 50.375 C 59.460938 50.375 40.65625 69.179688 40.65625 92.375 Z M 40.65625 92.375 " clip-rule="nonzero"/></clipPath><clipPath id="a7b4f0dfbe"><path d="M 83.558594 51.277344 L 1041.441406 51.277344 C 1064.636719 51.277344 1083.441406 70.082031 1083.441406 93.277344 L 1083.441406 1051.160156 C 1083.441406 1074.355469 1064.636719 1093.160156 1041.441406 1093.160156 L 83.558594 1093.160156 C 60.363281 1093.160156 41.558594 1074.355469 41.558594 1051.160156 L 41.558594 93.277344 C 41.558594 70.082031 60.363281 51.277344 83.558594 51.277344 Z M 83.558594 51.277344 " clip-rule="nonzero"/></clipPath><clipPath id="bfa3d09aa0"><path d="M 41.40625 51.125 L 137 51.125 L 137 147 L 41.40625 147 Z M 41.40625 51.125 " clip-rule="nonzero"/></clipPath><clipPath id="9aac603976"><path d="M 40.65625 92.375 L 40.65625 1052.0625 C 40.65625 1075.257812 59.460938 1094.0625 82.65625 1094.0625 L 1042.34375 1094.0625 C 1065.539062 1094.0625 1084.34375 1075.257812 1084.34375 1052.0625 L 1084.34375 92.375 C 1084.34375 69.179688 1065.539062 50.375 1042.34375 50.375 L 82.65625 50.375 C 59.460938 50.375 40.65625 69.179688 40.65625 92.375 Z M 40.65625 92.375 " clip-rule="nonzero"/></clipPath><clipPath id="016de1c80c"><path d="M 83.558594 51.277344 L 1041.441406 51.277344 C 1064.636719 51.277344 1083.441406 70.082031 1083.441406 93.277344 L 1083.441406 1051.160156 C 1083.441406 1074.355469 1064.636719 1093.160156 1041.441406 1093.160156 L 83.558594 1093.160156 C 60.363281 1093.160156 41.558594 1074.355469 41.558594 1051.160156 L 41.558594 93.277344 C 41.558594 70.082031 60.363281 51.277344 83.558594 51.277344 Z M 83.558594 51.277344 " clip-rule="nonzero"/></clipPath><clipPath id="f3cc76b371"><path d="M 988 998 L 1083.90625 998 L 1083.90625 1093.625 L 988 1093.625 Z M 988 998 " clip-rule="nonzero"/></clipPath><clipPath id="99a15aa963"><path d="M 40.65625 92.375 L 40.65625 1052.0625 C 40.65625 1075.257812 59.460938 1094.0625 82.65625 1094.0625 L 1042.34375 1094.0625 C 1065.539062 1094.0625 1084.34375 1075.257812 1084.34375 1052.0625 L 1084.34375 92.375 C 1084.34375 69.179688 1065.539062 50.375 1042.34375 50.375 L 82.65625 50.375 C 59.460938 50.375 40.65625 69.179688 40.65625 92.375 Z M 40.65625 92.375 " clip-rule="nonzero"/></clipPath><clipPath id="ce1e593d6a"><path d="M 83.558594 51.277344 L 1041.441406 51.277344 C 1064.636719 51.277344 1083.441406 70.082031 1083.441406 93.277344 L 1083.441406 1051.160156 C 1083.441406 1074.355469 1064.636719 1093.160156 1041.441406 1093.160156 L 83.558594 1093.160156 C 60.363281 1093.160156 41.558594 1074.355469 41.558594 1051.160156 L 41.558594 93.277344 C 41.558594 70.082031 60.363281 51.277344 83.558594 51.277344 Z M 83.558594 51.277344 " clip-rule="nonzero"/></clipPath><clipPath id="3a76992095"><path d="M 41.40625 998 L 137 998 L 137 1093.625 L 41.40625 1093.625 Z M 41.40625 998 " clip-rule="nonzero"/></clipPath><clipPath id="86e782180b"><path d="M 40.65625 92.375 L 40.65625 1052.0625 C 40.65625 1075.257812 59.460938 1094.0625 82.65625 1094.0625 L 1042.34375 1094.0625 C 1065.539062 1094.0625 1084.34375 1075.257812 1084.34375 1052.0625 L 1084.34375 92.375 C 1084.34375 69.179688 1065.539062 50.375 1042.34375 50.375 L 82.65625 50.375 C 59.460938 50.375 40.65625 69.179688 40.65625 92.375 Z M 40.65625 92.375 " clip-rule="nonzero"/></clipPath><clipPath id="b558132358"><path d="M 83.558594 51.277344 L 1041.441406 51.277344 C 1064.636719 51.277344 1083.441406 70.082031 1083.441406 93.277344 L 1083.441406 1051.160156 C 1083.441406 1074.355469 1064.636719 1093.160156 1041.441406 1093.160156 L 83.558594 1093.160156 C 60.363281 1093.160156 41.558594 1074.355469 41.558594 1051.160156 L 41.558594 93.277344 C 41.558594 70.082031 60.363281 51.277344 83.558594 51.277344 Z M 83.558594 51.277344 " clip-rule="nonzero"/></clipPath><clipPath id="838cad81df"><path d="M 40.65625 50.375 L 1084.65625 50.375 L 1084.65625 1094.375 L 40.65625 1094.375 Z M 40.65625 50.375 " clip-rule="nonzero"/></clipPath><clipPath id="ff80852428"><path d="M 40.65625 92.375 L 40.65625 1052.0625 C 40.65625 1075.257812 59.460938 1094.0625 82.65625 1094.0625 L 1042.34375 1094.0625 C 1065.539062 1094.0625 1084.34375 1075.257812 1084.34375 1052.0625 L 1084.34375 92.375 C 1084.34375 69.179688 1065.539062 50.375 1042.34375 50.375 L 82.65625 50.375 C 59.460938 50.375 40.65625 69.179688 40.65625 92.375 Z M 40.65625 92.375 " clip-rule="nonzero"/></clipPath><clipPath id="8c80d55911"><path d="M 40.65625 92.375 L 40.65625 1052.058594 C 40.65625 1075.253906 59.460938 1094.058594 82.65625 1094.058594 L 1042.339844 1094.058594 C 1065.535156 1094.058594 1084.339844 1075.253906 1084.339844 1052.058594 L 1084.339844 92.375 C 1084.339844 69.179688 1065.535156 50.375 1042.339844 50.375 L 82.65625 50.375 C 59.460938 50.375 40.65625 69.179688 40.65625 92.375 Z M 40.65625 92.375 " clip-rule="nonzero"/></clipPath></defs><g clip-path="url(#51b9d02670)"><path fill="#fc6a1f" d="M 731.042969 564.949219 C 781.726562 564.949219 822.964844 523.714844 822.964844 473.03125 C 822.964844 439.847656 805.277344 410.714844 778.84375 394.558594 C 781.21875 380.886719 782.445312 366.953125 782.445312 353 C 782.445312 220.488281 674.648438 112.695312 542.15625 112.695312 C 409.660156 112.695312 301.867188 220.488281 301.867188 352.980469 C 301.867188 485.476562 409.660156 593.269531 542.15625 593.269531 C 592.160156 593.269531 639.730469 578.1875 680.285156 549.601562 C 694.824219 559.292969 712.285156 564.949219 731.042969 564.949219 Z M 800.335938 473.03125 C 800.335938 511.230469 769.246094 542.324219 731.042969 542.324219 C 692.84375 542.324219 661.753906 511.230469 661.753906 473.03125 C 661.753906 434.832031 692.84375 403.738281 731.042969 403.738281 C 769.246094 403.738281 800.335938 434.832031 800.335938 473.03125 Z M 324.472656 352.980469 C 324.472656 232.96875 422.125 135.320312 542.15625 135.320312 C 662.1875 135.320312 759.816406 232.96875 759.816406 352.980469 C 759.816406 363.710938 759.007812 374.4375 757.460938 384.996094 C 749.089844 382.472656 740.226562 381.113281 731.042969 381.113281 C 680.363281 381.113281 639.125 422.347656 639.125 473.03125 C 639.125 496.542969 648.007812 518.019531 662.582031 534.292969 C 626.890625 558.105469 585.539062 570.664062 542.15625 570.664062 C 422.125 570.664062 324.472656 473.011719 324.472656 352.980469 Z M 717.863281 486.703125 L 762.738281 441.828125 C 767.152344 437.414062 774.316406 437.414062 778.746094 441.828125 C 783.160156 446.238281 783.160156 453.402344 778.746094 457.835938 L 725.878906 510.703125 C 723.671875 512.910156 720.769531 514.023438 717.882812 514.023438 C 715 514.023438 712.09375 512.910156 709.890625 510.703125 L 679.742188 480.554688 C 675.328125 476.144531 675.328125 468.976562 679.742188 464.546875 C 684.152344 460.136719 691.316406 460.136719 695.75 464.546875 Z M 663.183594 390.917969 L 663.183594 315.066406 C 663.183594 308.824219 658.113281 303.75 651.871094 303.75 L 591.386719 303.75 L 591.386719 243.265625 C 591.386719 237.023438 586.3125 231.953125 580.074219 231.953125 L 504.21875 231.953125 C 497.976562 231.953125 492.90625 237.023438 492.90625 243.265625 L 492.90625 303.75 L 432.417969 303.75 C 426.179688 303.75 421.105469 308.824219 421.105469 315.066406 L 421.105469 390.917969 C 421.105469 397.160156 426.179688 402.230469 432.417969 402.230469 L 492.90625 402.230469 L 492.90625 462.71875 C 492.90625 468.960938 497.976562 474.03125 504.21875 474.03125 L 580.074219 474.03125 C 586.3125 474.03125 591.386719 468.960938 591.386719 462.71875 L 591.386719 402.230469 L 651.871094 402.230469 C 658.113281 402.230469 663.183594 397.160156 663.183594 390.917969 Z M 640.558594 379.605469 L 580.074219 379.605469 C 573.832031 379.605469 568.757812 384.675781 568.757812 390.917969 L 568.757812 451.40625 L 515.53125 451.40625 L 515.53125 390.917969 C 515.53125 384.675781 510.460938 379.605469 504.21875 379.605469 L 443.730469 379.605469 L 443.730469 326.378906 L 504.21875 326.378906 C 510.460938 326.378906 515.53125 321.304688 515.53125 315.066406 L 515.53125 254.578125 L 568.757812 254.578125 L 568.757812 315.066406 C 568.757812 321.304688 573.832031 326.378906 580.074219 326.378906 L 640.558594 326.378906 Z M 512.457031 866.613281 L 512.457031 786.402344 C 512.457031 756.875 500.65625 731.0625 478.332031 711.738281 L 322.511719 576.867188 C 308.222656 563.101562 288.707031 559.691406 271.320312 566.402344 L 271.320312 439.488281 C 271.320312 411.488281 249.355469 390.371094 220.222656 390.371094 C 193.128906 390.371094 171.105469 412.414062 171.105469 439.488281 L 171.105469 654.664062 C 171.105469 678.175781 178.574219 698.273438 193.941406 716.074219 L 276.714844 812.027344 L 276.714844 866.59375 C 265.742188 871.082031 257.972656 881.847656 257.972656 894.402344 L 257.972656 1010.191406 C 257.972656 1016.433594 263.042969 1021.503906 269.285156 1021.503906 L 519.867188 1021.503906 C 526.109375 1021.503906 531.179688 1016.433594 531.179688 1010.191406 L 531.179688 894.441406 C 531.179688 881.863281 523.433594 871.097656 512.457031 866.613281 Z M 280.597656 894.441406 C 280.597656 890.425781 283.992188 887.011719 288.027344 887.011719 L 501.144531 887.011719 C 505.160156 887.011719 508.574219 890.40625 508.574219 894.441406 L 508.574219 941.011719 L 280.617188 941.011719 L 280.617188 894.441406 Z M 211.0625 701.308594 C 199.390625 687.789062 193.734375 672.535156 193.734375 654.679688 L 193.734375 439.507812 C 193.734375 424.894531 205.613281 413.015625 220.222656 413.015625 C 234.382812 413.015625 248.695312 422.125 248.695312 439.507812 L 248.695312 583.03125 C 233.121094 602.507812 234.535156 631.074219 252.75 648.855469 L 341.460938 735.4375 C 345.929688 739.792969 353.097656 739.71875 357.453125 735.25 C 361.808594 730.78125 361.730469 723.613281 357.261719 719.257812 L 268.550781 632.675781 C 258.085938 622.476562 257.898438 605.65625 268.097656 595.210938 C 277.976562 585.085938 294.496094 581.183594 306.957031 593.347656 C 307.128906 593.496094 307.277344 593.648438 307.449219 593.796875 L 463.511719 728.875 C 480.96875 743.980469 489.8125 763.34375 489.8125 786.421875 L 489.8125 864.40625 L 299.339844 864.40625 L 299.339844 807.859375 C 299.339844 805.144531 298.359375 802.523438 296.585938 800.46875 Z M 280.597656 998.878906 L 280.597656 963.621094 L 508.554688 963.621094 L 508.554688 998.878906 Z M 904.585938 390.390625 C 875.457031 390.390625 853.488281 411.507812 853.488281 439.507812 L 853.488281 566.421875 C 836.125 559.707031 816.609375 563.101562 802.296875 576.886719 L 646.480469 711.753906 C 624.15625 731.082031 612.351562 756.894531 612.351562 786.421875 L 612.351562 866.628906 C 601.378906 871.117188 593.609375 881.882812 593.609375 894.441406 L 593.609375 1010.191406 C 593.609375 1016.433594 598.683594 1021.503906 604.921875 1021.503906 L 855.507812 1021.503906 C 861.746094 1021.503906 866.820312 1016.433594 866.820312 1010.191406 L 866.820312 894.441406 C 866.820312 881.882812 859.050781 871.097656 848.078125 866.628906 L 848.078125 812.0625 L 930.851562 716.109375 C 946.21875 698.3125 953.683594 678.210938 953.683594 654.699219 L 953.683594 439.507812 C 953.703125 412.414062 931.660156 390.390625 904.585938 390.390625 Z M 836.785156 887.011719 C 840.800781 887.011719 844.210938 890.40625 844.210938 894.441406 L 844.210938 941.011719 L 616.253906 941.011719 L 616.253906 894.441406 C 616.253906 890.425781 619.648438 887.011719 623.683594 887.011719 Z M 616.253906 998.878906 L 616.253906 963.621094 L 844.210938 963.621094 L 844.210938 998.878906 Z M 931.078125 654.679688 C 931.078125 672.535156 925.402344 687.789062 913.75 701.308594 L 828.242188 800.449219 C 826.46875 802.503906 825.488281 805.125 825.488281 807.839844 L 825.488281 864.386719 L 634.976562 864.386719 L 634.976562 786.402344 C 634.976562 763.324219 643.820312 743.960938 661.28125 728.855469 L 817.34375 593.78125 C 817.515625 593.628906 817.683594 593.476562 817.835938 593.328125 C 830.277344 581.183594 846.796875 585.070312 856.695312 595.195312 C 866.894531 605.65625 866.6875 622.457031 856.242188 632.660156 L 767.527344 719.242188 C 763.0625 723.597656 762.964844 730.761719 767.339844 735.230469 C 771.695312 739.699219 778.859375 739.792969 783.328125 735.417969 L 872.042969 648.835938 C 890.257812 631.054688 891.691406 602.472656 876.097656 583.011719 L 876.097656 439.488281 C 876.097656 422.085938 890.425781 412.996094 904.566406 412.996094 C 919.179688 412.996094 931.058594 424.875 931.058594 439.488281 L 931.058594 654.679688 Z M 931.078125 654.679688 " fill-opacity="1" fill-rule="nonzero"/></g><g clip-path="url(#555c58c17b)"><g clip-path="url(#00ded32537)"><g clip-path="url(#bb64e877eb)"><path fill="#fc6a1f" d="M 1053.15625 146.011719 L 1084.339844 146.011719 L 1084.339844 998.421875 L 1053.15625 998.421875 Z M 1053.15625 146.011719 " fill-opacity="1" fill-rule="nonzero"/></g></g></g><g clip-path="url(#a570d08a88)"><g clip-path="url(#d1719d0ecf)"><g clip-path="url(#39f2f663b6)"><path fill="#fc6a1f" d="M 40.65625 146.011719 L 71.84375 146.011719 L 71.84375 998.421875 L 40.65625 998.421875 Z M 40.65625 146.011719 " fill-opacity="1" fill-rule="nonzero"/></g></g></g><g clip-path="url(#651ad423c1)"><g clip-path="url(#e09827e45d)"><g clip-path="url(#eb133acdc3)"><path fill="#fc6a1f" d="M 136.292969 50.375 L 988.703125 50.375 L 988.703125 81.5625 L 136.292969 81.5625 Z M 136.292969 50.375 " fill-opacity="1" fill-rule="nonzero"/></g></g></g><g clip-path="url(#e3ec496cef)"><g clip-path="url(#355bfb37ef)"><g clip-path="url(#ddf90e0619)"><path fill="#fc6a1f" d="M 136.292969 1062.875 L 988.703125 1062.875 L 988.703125 1094.058594 L 136.292969 1094.058594 Z M 136.292969 1062.875 " fill-opacity="1" fill-rule="nonzero"/></g></g></g><g clip-path="url(#f2e2782593)"><g clip-path="url(#8e951a84e5)"><g clip-path="url(#a7b4f0dfbe)"><path fill="#fc6a1f" d="M 1053.15625 81.5625 L 1053.15625 146.011719 L 1084.339844 146.011719 L 1084.339844 50.375 L 988.703125 50.375 L 988.703125 81.5625 Z M 1053.15625 81.5625 " fill-opacity="1" fill-rule="nonzero"/></g></g></g><g clip-path="url(#bfa3d09aa0)"><g clip-path="url(#9aac603976)"><g clip-path="url(#016de1c80c)"><path fill="#fc6a1f" d="M 71.84375 81.5625 L 136.292969 81.5625 L 136.292969 50.375 L 40.65625 50.375 L 40.65625 146.011719 L 71.84375 146.011719 Z M 71.84375 81.5625 " fill-opacity="1" fill-rule="nonzero"/></g></g></g><g clip-path="url(#f3cc76b371)"><g clip-path="url(#99a15aa963)"><g clip-path="url(#ce1e593d6a)"><path fill="#fc6a1f" d="M 1053.15625 1062.875 L 988.703125 1062.875 L 988.703125 1094.058594 L 1084.339844 1094.058594 L 1084.339844 998.421875 L 1053.15625 998.421875 Z M 1053.15625 1062.875 " fill-opacity="1" fill-rule="nonzero"/></g></g></g><g clip-path="url(#3a76992095)"><g clip-path="url(#86e782180b)"><g clip-path="url(#b558132358)"><path fill="#fc6a1f" d="M 71.84375 1062.875 L 71.84375 998.421875 L 40.65625 998.421875 L 40.65625 1094.058594 L 136.292969 1094.058594 L 136.292969 1062.875 Z M 71.84375 1062.875 " fill-opacity="1" fill-rule="nonzero"/></g></g></g><g clip-path="url(#838cad81df)"><g clip-path="url(#ff80852428)"><g clip-path="url(#8c80d55911)"><path stroke-linecap="butt" transform="matrix(0.75, 0, 0, 0.75, 40.657485, 50.376069)" fill="none" stroke-linejoin="miter" d="M -0.00164733 55.998579 L -0.00164733 1335.576814 C -0.00164733 1366.5039 25.071271 1391.576819 55.998357 1391.576819 L 1335.576593 1391.576819 C 1366.503679 1391.576819 1391.576597 1366.5039 1391.576597 1335.576814 L 1391.576597 55.998579 C 1391.576597 25.071493 1366.503679 -0.00142568 1335.576593 -0.00142568 L 55.998357 -0.00142568 C 25.071271 -0.00142568 -0.00164733 25.071493 -0.00164733 55.998579 Z M -0.00164733 55.998579 " stroke="#fc6a1f" stroke-width="66" stroke-opacity="1" stroke-miterlimit="4"/></g></g></g></svg>