<svg xmlns="http://www.w3.org/2000/svg" xmlns:xlink="http://www.w3.org/1999/xlink" width="1500" zoomAndPan="magnify" viewBox="0 0 1125 1124.99995" height="1500" preserveAspectRatio="xMidYMid meet" version="1.0"><defs><clipPath id="308b6fa680"><path d="M 1053 146 L 1083.90625 146 L 1083.90625 999 L 1053 999 Z M 1053 146 " clip-rule="nonzero"/></clipPath><clipPath id="226e45f706"><path d="M 40.65625 92.375 L 40.65625 1052.0625 C 40.65625 1075.257812 59.460938 1094.0625 82.65625 1094.0625 L 1042.34375 1094.0625 C 1065.539062 1094.0625 1084.34375 1075.257812 1084.34375 1052.0625 L 1084.34375 92.375 C 1084.34375 69.179688 1065.539062 50.375 1042.34375 50.375 L 82.65625 50.375 C 59.460938 50.375 40.65625 69.179688 40.65625 92.375 Z M 40.65625 92.375 " clip-rule="nonzero"/></clipPath><clipPath id="52d60e3dc0"><path d="M 83.558594 51.277344 L 1041.441406 51.277344 C 1064.636719 51.277344 1083.441406 70.082031 1083.441406 93.277344 L 1083.441406 1051.160156 C 1083.441406 1074.355469 1064.636719 1093.160156 1041.441406 1093.160156 L 83.558594 1093.160156 C 60.363281 1093.160156 41.558594 1074.355469 41.558594 1051.160156 L 41.558594 93.277344 C 41.558594 70.082031 60.363281 51.277344 83.558594 51.277344 Z M 83.558594 51.277344 " clip-rule="nonzero"/></clipPath><clipPath id="dc7d5b388a"><path d="M 41.40625 146 L 72 146 L 72 999 L 41.40625 999 Z M 41.40625 146 " clip-rule="nonzero"/></clipPath><clipPath id="2417bfda01"><path d="M 40.65625 92.375 L 40.65625 1052.0625 C 40.65625 1075.257812 59.460938 1094.0625 82.65625 1094.0625 L 1042.34375 1094.0625 C 1065.539062 1094.0625 1084.34375 1075.257812 1084.34375 1052.0625 L 1084.34375 92.375 C 1084.34375 69.179688 1065.539062 50.375 1042.34375 50.375 L 82.65625 50.375 C 59.460938 50.375 40.65625 69.179688 40.65625 92.375 Z M 40.65625 92.375 " clip-rule="nonzero"/></clipPath><clipPath id="fbd6ca8047"><path d="M 83.558594 51.277344 L 1041.441406 51.277344 C 1064.636719 51.277344 1083.441406 70.082031 1083.441406 93.277344 L 1083.441406 1051.160156 C 1083.441406 1074.355469 1064.636719 1093.160156 1041.441406 1093.160156 L 83.558594 1093.160156 C 60.363281 1093.160156 41.558594 1074.355469 41.558594 1051.160156 L 41.558594 93.277344 C 41.558594 70.082031 60.363281 51.277344 83.558594 51.277344 Z M 83.558594 51.277344 " clip-rule="nonzero"/></clipPath><clipPath id="84ac87f777"><path d="M 136 51.125 L 989 51.125 L 989 82 L 136 82 Z M 136 51.125 " clip-rule="nonzero"/></clipPath><clipPath id="e9fe66a6c7"><path d="M 40.65625 92.375 L 40.65625 1052.0625 C 40.65625 1075.257812 59.460938 1094.0625 82.65625 1094.0625 L 1042.34375 1094.0625 C 1065.539062 1094.0625 1084.34375 1075.257812 1084.34375 1052.0625 L 1084.34375 92.375 C 1084.34375 69.179688 1065.539062 50.375 1042.34375 50.375 L 82.65625 50.375 C 59.460938 50.375 40.65625 69.179688 40.65625 92.375 Z M 40.65625 92.375 " clip-rule="nonzero"/></clipPath><clipPath id="885c6c701a"><path d="M 83.558594 51.277344 L 1041.441406 51.277344 C 1064.636719 51.277344 1083.441406 70.082031 1083.441406 93.277344 L 1083.441406 1051.160156 C 1083.441406 1074.355469 1064.636719 1093.160156 1041.441406 1093.160156 L 83.558594 1093.160156 C 60.363281 1093.160156 41.558594 1074.355469 41.558594 1051.160156 L 41.558594 93.277344 C 41.558594 70.082031 60.363281 51.277344 83.558594 51.277344 Z M 83.558594 51.277344 " clip-rule="nonzero"/></clipPath><clipPath id="d59ed0aaea"><path d="M 136 1062 L 989 1062 L 989 1093.625 L 136 1093.625 Z M 136 1062 " clip-rule="nonzero"/></clipPath><clipPath id="552b0a29f4"><path d="M 40.65625 92.375 L 40.65625 1052.0625 C 40.65625 1075.257812 59.460938 1094.0625 82.65625 1094.0625 L 1042.34375 1094.0625 C 1065.539062 1094.0625 1084.34375 1075.257812 1084.34375 1052.0625 L 1084.34375 92.375 C 1084.34375 69.179688 1065.539062 50.375 1042.34375 50.375 L 82.65625 50.375 C 59.460938 50.375 40.65625 69.179688 40.65625 92.375 Z M 40.65625 92.375 " clip-rule="nonzero"/></clipPath><clipPath id="ab4e23ffd7"><path d="M 83.558594 51.277344 L 1041.441406 51.277344 C 1064.636719 51.277344 1083.441406 70.082031 1083.441406 93.277344 L 1083.441406 1051.160156 C 1083.441406 1074.355469 1064.636719 1093.160156 1041.441406 1093.160156 L 83.558594 1093.160156 C 60.363281 1093.160156 41.558594 1074.355469 41.558594 1051.160156 L 41.558594 93.277344 C 41.558594 70.082031 60.363281 51.277344 83.558594 51.277344 Z M 83.558594 51.277344 " clip-rule="nonzero"/></clipPath><clipPath id="b6ca893d1b"><path d="M 988 51.125 L 1083.90625 51.125 L 1083.90625 147 L 988 147 Z M 988 51.125 " clip-rule="nonzero"/></clipPath><clipPath id="78b7d4789a"><path d="M 40.65625 92.375 L 40.65625 1052.0625 C 40.65625 1075.257812 59.460938 1094.0625 82.65625 1094.0625 L 1042.34375 1094.0625 C 1065.539062 1094.0625 1084.34375 1075.257812 1084.34375 1052.0625 L 1084.34375 92.375 C 1084.34375 69.179688 1065.539062 50.375 1042.34375 50.375 L 82.65625 50.375 C 59.460938 50.375 40.65625 69.179688 40.65625 92.375 Z M 40.65625 92.375 " clip-rule="nonzero"/></clipPath><clipPath id="2bd670d538"><path d="M 83.558594 51.277344 L 1041.441406 51.277344 C 1064.636719 51.277344 1083.441406 70.082031 1083.441406 93.277344 L 1083.441406 1051.160156 C 1083.441406 1074.355469 1064.636719 1093.160156 1041.441406 1093.160156 L 83.558594 1093.160156 C 60.363281 1093.160156 41.558594 1074.355469 41.558594 1051.160156 L 41.558594 93.277344 C 41.558594 70.082031 60.363281 51.277344 83.558594 51.277344 Z M 83.558594 51.277344 " clip-rule="nonzero"/></clipPath><clipPath id="d4cdf4137f"><path d="M 41.40625 51.125 L 137 51.125 L 137 147 L 41.40625 147 Z M 41.40625 51.125 " clip-rule="nonzero"/></clipPath><clipPath id="1c401e352b"><path d="M 40.65625 92.375 L 40.65625 1052.0625 C 40.65625 1075.257812 59.460938 1094.0625 82.65625 1094.0625 L 1042.34375 1094.0625 C 1065.539062 1094.0625 1084.34375 1075.257812 1084.34375 1052.0625 L 1084.34375 92.375 C 1084.34375 69.179688 1065.539062 50.375 1042.34375 50.375 L 82.65625 50.375 C 59.460938 50.375 40.65625 69.179688 40.65625 92.375 Z M 40.65625 92.375 " clip-rule="nonzero"/></clipPath><clipPath id="7675613912"><path d="M 83.558594 51.277344 L 1041.441406 51.277344 C 1064.636719 51.277344 1083.441406 70.082031 1083.441406 93.277344 L 1083.441406 1051.160156 C 1083.441406 1074.355469 1064.636719 1093.160156 1041.441406 1093.160156 L 83.558594 1093.160156 C 60.363281 1093.160156 41.558594 1074.355469 41.558594 1051.160156 L 41.558594 93.277344 C 41.558594 70.082031 60.363281 51.277344 83.558594 51.277344 Z M 83.558594 51.277344 " clip-rule="nonzero"/></clipPath><clipPath id="122553d923"><path d="M 988 998 L 1083.90625 998 L 1083.90625 1093.625 L 988 1093.625 Z M 988 998 " clip-rule="nonzero"/></clipPath><clipPath id="704ed67bf9"><path d="M 40.65625 92.375 L 40.65625 1052.0625 C 40.65625 1075.257812 59.460938 1094.0625 82.65625 1094.0625 L 1042.34375 1094.0625 C 1065.539062 1094.0625 1084.34375 1075.257812 1084.34375 1052.0625 L 1084.34375 92.375 C 1084.34375 69.179688 1065.539062 50.375 1042.34375 50.375 L 82.65625 50.375 C 59.460938 50.375 40.65625 69.179688 40.65625 92.375 Z M 40.65625 92.375 " clip-rule="nonzero"/></clipPath><clipPath id="b1f93196c0"><path d="M 83.558594 51.277344 L 1041.441406 51.277344 C 1064.636719 51.277344 1083.441406 70.082031 1083.441406 93.277344 L 1083.441406 1051.160156 C 1083.441406 1074.355469 1064.636719 1093.160156 1041.441406 1093.160156 L 83.558594 1093.160156 C 60.363281 1093.160156 41.558594 1074.355469 41.558594 1051.160156 L 41.558594 93.277344 C 41.558594 70.082031 60.363281 51.277344 83.558594 51.277344 Z M 83.558594 51.277344 " clip-rule="nonzero"/></clipPath><clipPath id="762b2f5a51"><path d="M 41.40625 998 L 137 998 L 137 1093.625 L 41.40625 1093.625 Z M 41.40625 998 " clip-rule="nonzero"/></clipPath><clipPath id="e371732a2d"><path d="M 40.65625 92.375 L 40.65625 1052.0625 C 40.65625 1075.257812 59.460938 1094.0625 82.65625 1094.0625 L 1042.34375 1094.0625 C 1065.539062 1094.0625 1084.34375 1075.257812 1084.34375 1052.0625 L 1084.34375 92.375 C 1084.34375 69.179688 1065.539062 50.375 1042.34375 50.375 L 82.65625 50.375 C 59.460938 50.375 40.65625 69.179688 40.65625 92.375 Z M 40.65625 92.375 " clip-rule="nonzero"/></clipPath><clipPath id="e07d3b2173"><path d="M 83.558594 51.277344 L 1041.441406 51.277344 C 1064.636719 51.277344 1083.441406 70.082031 1083.441406 93.277344 L 1083.441406 1051.160156 C 1083.441406 1074.355469 1064.636719 1093.160156 1041.441406 1093.160156 L 83.558594 1093.160156 C 60.363281 1093.160156 41.558594 1074.355469 41.558594 1051.160156 L 41.558594 93.277344 C 41.558594 70.082031 60.363281 51.277344 83.558594 51.277344 Z M 83.558594 51.277344 " clip-rule="nonzero"/></clipPath><clipPath id="49c8e6f82a"><path d="M 40.65625 50.375 L 1084.65625 50.375 L 1084.65625 1094.375 L 40.65625 1094.375 Z M 40.65625 50.375 " clip-rule="nonzero"/></clipPath><clipPath id="045ea99a22"><path d="M 40.65625 92.375 L 40.65625 1052.0625 C 40.65625 1075.257812 59.460938 1094.0625 82.65625 1094.0625 L 1042.34375 1094.0625 C 1065.539062 1094.0625 1084.34375 1075.257812 1084.34375 1052.0625 L 1084.34375 92.375 C 1084.34375 69.179688 1065.539062 50.375 1042.34375 50.375 L 82.65625 50.375 C 59.460938 50.375 40.65625 69.179688 40.65625 92.375 Z M 40.65625 92.375 " clip-rule="nonzero"/></clipPath><clipPath id="9ec8378a74"><path d="M 40.65625 92.375 L 40.65625 1052.058594 C 40.65625 1075.253906 59.460938 1094.058594 82.65625 1094.058594 L 1042.339844 1094.058594 C 1065.535156 1094.058594 1084.339844 1075.253906 1084.339844 1052.058594 L 1084.339844 92.375 C 1084.339844 69.179688 1065.535156 50.375 1042.339844 50.375 L 82.65625 50.375 C 59.460938 50.375 40.65625 69.179688 40.65625 92.375 Z M 40.65625 92.375 " clip-rule="nonzero"/></clipPath><clipPath id="89ecebddf3"><path d="M 503 426 L 838 426 L 838 1018.5 L 503 1018.5 Z M 503 426 " clip-rule="nonzero"/></clipPath><clipPath id="946bdea0c5"><path d="M 293 114 L 705 114 L 705 1018.5 L 293 1018.5 Z M 293 114 " clip-rule="nonzero"/></clipPath></defs><g clip-path="url(#308b6fa680)"><g clip-path="url(#226e45f706)"><g clip-path="url(#52d60e3dc0)"><path fill="#fc6a1f" d="M 1053.15625 146.011719 L 1084.339844 146.011719 L 1084.339844 998.421875 L 1053.15625 998.421875 Z M 1053.15625 146.011719 " fill-opacity="1" fill-rule="nonzero"/></g></g></g><g clip-path="url(#dc7d5b388a)"><g clip-path="url(#2417bfda01)"><g clip-path="url(#fbd6ca8047)"><path fill="#fc6a1f" d="M 40.65625 146.011719 L 71.84375 146.011719 L 71.84375 998.421875 L 40.65625 998.421875 Z M 40.65625 146.011719 " fill-opacity="1" fill-rule="nonzero"/></g></g></g><g clip-path="url(#84ac87f777)"><g clip-path="url(#e9fe66a6c7)"><g clip-path="url(#885c6c701a)"><path fill="#fc6a1f" d="M 136.292969 50.375 L 988.703125 50.375 L 988.703125 81.5625 L 136.292969 81.5625 Z M 136.292969 50.375 " fill-opacity="1" fill-rule="nonzero"/></g></g></g><g clip-path="url(#d59ed0aaea)"><g clip-path="url(#552b0a29f4)"><g clip-path="url(#ab4e23ffd7)"><path fill="#fc6a1f" d="M 136.292969 1062.875 L 988.703125 1062.875 L 988.703125 1094.058594 L 136.292969 1094.058594 Z M 136.292969 1062.875 " fill-opacity="1" fill-rule="nonzero"/></g></g></g><g clip-path="url(#b6ca893d1b)"><g clip-path="url(#78b7d4789a)"><g clip-path="url(#2bd670d538)"><path fill="#fc6a1f" d="M 1053.15625 81.5625 L 1053.15625 146.011719 L 1084.339844 146.011719 L 1084.339844 50.375 L 988.703125 50.375 L 988.703125 81.5625 Z M 1053.15625 81.5625 " fill-opacity="1" fill-rule="nonzero"/></g></g></g><g clip-path="url(#d4cdf4137f)"><g clip-path="url(#1c401e352b)"><g clip-path="url(#7675613912)"><path fill="#fc6a1f" d="M 71.84375 81.5625 L 136.292969 81.5625 L 136.292969 50.375 L 40.65625 50.375 L 40.65625 146.011719 L 71.84375 146.011719 Z M 71.84375 81.5625 " fill-opacity="1" fill-rule="nonzero"/></g></g></g><g clip-path="url(#122553d923)"><g clip-path="url(#704ed67bf9)"><g clip-path="url(#b1f93196c0)"><path fill="#fc6a1f" d="M 1053.15625 1062.875 L 988.703125 1062.875 L 988.703125 1094.058594 L 1084.339844 1094.058594 L 1084.339844 998.421875 L 1053.15625 998.421875 Z M 1053.15625 1062.875 " fill-opacity="1" fill-rule="nonzero"/></g></g></g><g clip-path="url(#762b2f5a51)"><g clip-path="url(#e371732a2d)"><g clip-path="url(#e07d3b2173)"><path fill="#fc6a1f" d="M 71.84375 1062.875 L 71.84375 998.421875 L 40.65625 998.421875 L 40.65625 1094.058594 L 136.292969 1094.058594 L 136.292969 1062.875 Z M 71.84375 1062.875 " fill-opacity="1" fill-rule="nonzero"/></g></g></g><g clip-path="url(#49c8e6f82a)"><g clip-path="url(#045ea99a22)"><g clip-path="url(#9ec8378a74)"><path stroke-linecap="butt" transform="matrix(0.75, 0, 0, 0.75, 40.657485, 50.376069)" fill="none" stroke-linejoin="miter" d="M -0.00164733 55.998579 L -0.00164733 1335.576814 C -0.00164733 1366.5039 25.071271 1391.576819 55.998357 1391.576819 L 1335.576593 1391.576819 C 1366.503679 1391.576819 1391.576597 1366.5039 1391.576597 1335.576814 L 1391.576597 55.998579 C 1391.576597 25.071493 1366.503679 -0.00142568 1335.576593 -0.00142568 L 55.998357 -0.00142568 C 25.071271 -0.00142568 -0.00164733 25.071493 -0.00164733 55.998579 Z M -0.00164733 55.998579 " stroke="#fc6a1f" stroke-width="66" stroke-opacity="1" stroke-miterlimit="4"/></g></g></g><g clip-path="url(#89ecebddf3)"><path fill="#fc6a1f" d="M 827.347656 567.515625 C 814.921875 521.996094 795.488281 494.199219 794.753906 493.160156 C 778.410156 469.519531 763.035156 451.832031 739.914062 430.078125 C 734.304688 424.800781 725.476562 425.066406 720.191406 430.679688 C 714.910156 436.292969 715.179688 445.121094 720.789062 450.402344 C 742.363281 470.699219 756.664062 487.136719 771.882812 509.152344 C 772.585938 510.148438 841.714844 610.207031 790.878906 739.625 C 753.960938 833.605469 659.503906 886.828125 530.636719 886.824219 C 526.394531 886.824219 522.105469 886.765625 517.792969 886.648438 C 510.167969 886.402344 503.675781 892.519531 503.472656 900.222656 C 503.265625 907.925781 509.339844 914.335938 517.042969 914.542969 C 521.746094 914.671875 526.40625 914.734375 531.027344 914.734375 C 578.5625 914.734375 621.671875 908.019531 659.949219 894.761719 L 674.371094 1006.378906 C 675.277344 1013.417969 681.28125 1018.546875 688.191406 1018.546875 C 688.785156 1018.546875 689.390625 1018.507812 689.996094 1018.433594 C 697.636719 1017.445312 703.035156 1010.449219 702.046875 1002.808594 L 686.707031 884.066406 C 695.792969 879.914062 704.589844 875.378906 713.03125 870.386719 C 761.136719 841.960938 797.039062 800.273438 816.855469 749.828125 C 846.238281 675.019531 838.78125 609.390625 827.347656 567.515625 Z M 827.347656 567.515625 " fill-opacity="1" fill-rule="nonzero"/></g><g clip-path="url(#946bdea0c5)"><path fill="#fc6a1f" d="M 372.375 928.183594 C 324.078125 872.980469 308.457031 795.449219 331.605469 725.851562 L 369.734375 611.203125 C 369.964844 610.511719 370.140625 609.804688 370.257812 609.082031 C 373.375 590.296875 373.933594 571.175781 371.917969 552.242188 L 368.746094 514.089844 C 370.953125 514.292969 373.164062 514.40625 375.386719 514.40625 C 387.085938 514.40625 398.867188 511.59375 409.640625 505.800781 L 638.71875 382.597656 L 679.523438 415.148438 C 683.585938 418.390625 689.105469 419.105469 693.859375 417.007812 C 698.609375 414.910156 701.804688 410.347656 702.144531 405.164062 L 703.964844 377.777344 C 705.164062 359.671875 697.421875 342.097656 683.25 330.761719 L 669.125 319.464844 C 664.421875 315.703125 659.320312 312.644531 653.96875 310.246094 C 665.730469 286.65625 665.226562 263.0625 665.191406 261.832031 C 665.113281 259.203125 664.292969 256.644531 662.824219 254.460938 L 572.847656 120.59375 C 568.546875 114.199219 559.878906 112.496094 553.488281 116.796875 C 547.089844 121.097656 545.390625 129.765625 549.691406 136.160156 L 637.171875 266.320312 C 636.726562 273.523438 634.660156 289.894531 625.414062 304.0625 C 616.160156 304.035156 606.839844 305.828125 598.007812 309.53125 L 440.960938 375.367188 L 478.015625 226.800781 C 482.691406 207.214844 478.210938 186.914062 465.734375 171.109375 C 453.257812 155.304688 434.550781 146.238281 414.414062 146.238281 C 383.011719 146.238281 356.003906 168.613281 350.167969 199.460938 L 303.996094 428.3125 C 303.984375 428.375 303.972656 428.433594 303.960938 428.5 C 299.636719 451.507812 306.746094 475.320312 322.976562 492.195312 C 328.058594 497.480469 333.820312 501.839844 340.011719 505.269531 L 344.125 554.71875 C 344.132812 554.832031 344.144531 554.941406 344.160156 555.050781 C 345.886719 571.167969 345.464844 587.449219 342.90625 603.457031 L 305.128906 717.042969 C 278.875 795.992188 296.59375 883.9375 351.375 946.558594 L 410.1875 1013.78125 C 412.945312 1016.933594 416.808594 1018.546875 420.691406 1018.546875 C 423.953125 1018.546875 427.226562 1017.414062 429.875 1015.097656 C 435.671875 1010.019531 436.261719 1001.207031 431.1875 995.40625 Z M 331.367188 433.734375 L 377.535156 204.890625 C 377.546875 204.832031 377.5625 204.769531 377.574219 204.707031 C 380.898438 187 396.390625 174.144531 414.410156 174.144531 C 425.953125 174.144531 436.675781 179.34375 443.828125 188.402344 C 450.984375 197.460938 453.546875 209.097656 450.902344 220.1875 L 407.148438 395.621094 C 405.867188 400.742188 407.59375 406.148438 411.601562 409.589844 C 415.609375 413.027344 421.210938 413.902344 426.078125 411.867188 L 608.792969 335.269531 C 623.117188 329.261719 639.558594 331.558594 651.691406 341.265625 L 665.820312 352.558594 C 672.863281 358.195312 676.714844 366.933594 676.117188 375.933594 L 676.066406 376.699219 L 648.917969 355.042969 C 644.550781 351.558594 638.53125 351.019531 633.609375 353.660156 L 396.421875 481.226562 C 378.855469 490.675781 356.921875 487.230469 343.085938 472.851562 C 333.117188 462.488281 328.738281 447.871094 331.367188 433.734375 Z M 331.367188 433.734375 " fill-opacity="1" fill-rule="nonzero"/></g><path fill="#fc6a1f" d="M 585.195312 763.71875 C 585.238281 763.71875 585.28125 763.71875 585.320312 763.71875 C 588.976562 763.71875 592.488281 762.285156 595.097656 759.722656 L 682.164062 674.1875 C 695.558594 661.03125 703.023438 643.449219 703.191406 624.675781 C 703.359375 605.902344 696.203125 588.191406 683.050781 574.796875 C 669.894531 561.40625 652.3125 553.9375 633.539062 553.773438 C 616.242188 553.585938 599.816406 559.691406 586.863281 570.953125 C 574.261719 559.984375 558.335938 553.925781 541.445312 553.773438 C 522.710938 553.640625 504.960938 560.75 491.566406 573.90625 C 478.171875 587.058594 470.699219 604.640625 470.53125 623.414062 C 470.359375 642.183594 477.511719 659.898438 490.664062 673.292969 L 575.367188 759.539062 C 577.960938 762.183594 581.496094 763.683594 585.195312 763.71875 Z M 498.433594 623.667969 C 498.539062 612.347656 503.042969 601.75 511.117188 593.816406 C 519.101562 585.976562 529.625 581.675781 540.796875 581.675781 C 540.925781 581.675781 541.0625 581.675781 541.191406 581.675781 C 552.511719 581.78125 563.109375 586.285156 571.042969 594.359375 L 576.796875 600.214844 C 582.199219 605.714844 591.03125 605.792969 596.523438 600.390625 L 603.214844 593.824219 C 611.289062 585.890625 621.953125 581.546875 633.289062 581.679688 C 644.605469 581.777344 655.210938 586.28125 663.140625 594.351562 C 671.074219 602.429688 675.386719 613.109375 675.285156 624.425781 C 675.183594 635.746094 670.683594 646.347656 662.609375 654.28125 L 585.496094 730.03125 L 510.574219 653.742188 C 502.644531 645.667969 498.335938 634.984375 498.433594 623.667969 Z M 498.433594 623.667969 " fill-opacity="1" fill-rule="nonzero"/></svg>