<svg xmlns="http://www.w3.org/2000/svg" xmlns:xlink="http://www.w3.org/1999/xlink" width="1500" zoomAndPan="magnify" viewBox="0 0 1125 1124.99995" height="1500" preserveAspectRatio="xMidYMid meet" version="1.0"><defs><clipPath id="91a4063045"><path d="M 1053 146 L 1083.90625 146 L 1083.90625 999 L 1053 999 Z M 1053 146 " clip-rule="nonzero"/></clipPath><clipPath id="72bdebe599"><path d="M 40.65625 92.375 L 40.65625 1052.0625 C 40.65625 1075.257812 59.460938 1094.0625 82.65625 1094.0625 L 1042.34375 1094.0625 C 1065.539062 1094.0625 1084.34375 1075.257812 1084.34375 1052.0625 L 1084.34375 92.375 C 1084.34375 69.179688 1065.539062 50.375 1042.34375 50.375 L 82.65625 50.375 C 59.460938 50.375 40.65625 69.179688 40.65625 92.375 Z M 40.65625 92.375 " clip-rule="nonzero"/></clipPath><clipPath id="d349d98802"><path d="M 83.558594 51.277344 L 1041.441406 51.277344 C 1064.636719 51.277344 1083.441406 70.082031 1083.441406 93.277344 L 1083.441406 1051.160156 C 1083.441406 1074.355469 1064.636719 1093.160156 1041.441406 1093.160156 L 83.558594 1093.160156 C 60.363281 1093.160156 41.558594 1074.355469 41.558594 1051.160156 L 41.558594 93.277344 C 41.558594 70.082031 60.363281 51.277344 83.558594 51.277344 Z M 83.558594 51.277344 " clip-rule="nonzero"/></clipPath><clipPath id="4ff80e26ef"><path d="M 41.40625 146 L 72 146 L 72 999 L 41.40625 999 Z M 41.40625 146 " clip-rule="nonzero"/></clipPath><clipPath id="a4f923827a"><path d="M 40.65625 92.375 L 40.65625 1052.0625 C 40.65625 1075.257812 59.460938 1094.0625 82.65625 1094.0625 L 1042.34375 1094.0625 C 1065.539062 1094.0625 1084.34375 1075.257812 1084.34375 1052.0625 L 1084.34375 92.375 C 1084.34375 69.179688 1065.539062 50.375 1042.34375 50.375 L 82.65625 50.375 C 59.460938 50.375 40.65625 69.179688 40.65625 92.375 Z M 40.65625 92.375 " clip-rule="nonzero"/></clipPath><clipPath id="e81f92a863"><path d="M 83.558594 51.277344 L 1041.441406 51.277344 C 1064.636719 51.277344 1083.441406 70.082031 1083.441406 93.277344 L 1083.441406 1051.160156 C 1083.441406 1074.355469 1064.636719 1093.160156 1041.441406 1093.160156 L 83.558594 1093.160156 C 60.363281 1093.160156 41.558594 1074.355469 41.558594 1051.160156 L 41.558594 93.277344 C 41.558594 70.082031 60.363281 51.277344 83.558594 51.277344 Z M 83.558594 51.277344 " clip-rule="nonzero"/></clipPath><clipPath id="86e30d2e92"><path d="M 136 51.125 L 989 51.125 L 989 82 L 136 82 Z M 136 51.125 " clip-rule="nonzero"/></clipPath><clipPath id="0b5bfc4e96"><path d="M 40.65625 92.375 L 40.65625 1052.0625 C 40.65625 1075.257812 59.460938 1094.0625 82.65625 1094.0625 L 1042.34375 1094.0625 C 1065.539062 1094.0625 1084.34375 1075.257812 1084.34375 1052.0625 L 1084.34375 92.375 C 1084.34375 69.179688 1065.539062 50.375 1042.34375 50.375 L 82.65625 50.375 C 59.460938 50.375 40.65625 69.179688 40.65625 92.375 Z M 40.65625 92.375 " clip-rule="nonzero"/></clipPath><clipPath id="4d80a865a7"><path d="M 83.558594 51.277344 L 1041.441406 51.277344 C 1064.636719 51.277344 1083.441406 70.082031 1083.441406 93.277344 L 1083.441406 1051.160156 C 1083.441406 1074.355469 1064.636719 1093.160156 1041.441406 1093.160156 L 83.558594 1093.160156 C 60.363281 1093.160156 41.558594 1074.355469 41.558594 1051.160156 L 41.558594 93.277344 C 41.558594 70.082031 60.363281 51.277344 83.558594 51.277344 Z M 83.558594 51.277344 " clip-rule="nonzero"/></clipPath><clipPath id="3bf4cb7b0e"><path d="M 136 1062 L 989 1062 L 989 1093.625 L 136 1093.625 Z M 136 1062 " clip-rule="nonzero"/></clipPath><clipPath id="2c09dabd23"><path d="M 40.65625 92.375 L 40.65625 1052.0625 C 40.65625 1075.257812 59.460938 1094.0625 82.65625 1094.0625 L 1042.34375 1094.0625 C 1065.539062 1094.0625 1084.34375 1075.257812 1084.34375 1052.0625 L 1084.34375 92.375 C 1084.34375 69.179688 1065.539062 50.375 1042.34375 50.375 L 82.65625 50.375 C 59.460938 50.375 40.65625 69.179688 40.65625 92.375 Z M 40.65625 92.375 " clip-rule="nonzero"/></clipPath><clipPath id="c34c22ca40"><path d="M 83.558594 51.277344 L 1041.441406 51.277344 C 1064.636719 51.277344 1083.441406 70.082031 1083.441406 93.277344 L 1083.441406 1051.160156 C 1083.441406 1074.355469 1064.636719 1093.160156 1041.441406 1093.160156 L 83.558594 1093.160156 C 60.363281 1093.160156 41.558594 1074.355469 41.558594 1051.160156 L 41.558594 93.277344 C 41.558594 70.082031 60.363281 51.277344 83.558594 51.277344 Z M 83.558594 51.277344 " clip-rule="nonzero"/></clipPath><clipPath id="19f9ad5255"><path d="M 988 51.125 L 1083.90625 51.125 L 1083.90625 147 L 988 147 Z M 988 51.125 " clip-rule="nonzero"/></clipPath><clipPath id="fd04424d14"><path d="M 40.65625 92.375 L 40.65625 1052.0625 C 40.65625 1075.257812 59.460938 1094.0625 82.65625 1094.0625 L 1042.34375 1094.0625 C 1065.539062 1094.0625 1084.34375 1075.257812 1084.34375 1052.0625 L 1084.34375 92.375 C 1084.34375 69.179688 1065.539062 50.375 1042.34375 50.375 L 82.65625 50.375 C 59.460938 50.375 40.65625 69.179688 40.65625 92.375 Z M 40.65625 92.375 " clip-rule="nonzero"/></clipPath><clipPath id="b3ca81e36a"><path d="M 83.558594 51.277344 L 1041.441406 51.277344 C 1064.636719 51.277344 1083.441406 70.082031 1083.441406 93.277344 L 1083.441406 1051.160156 C 1083.441406 1074.355469 1064.636719 1093.160156 1041.441406 1093.160156 L 83.558594 1093.160156 C 60.363281 1093.160156 41.558594 1074.355469 41.558594 1051.160156 L 41.558594 93.277344 C 41.558594 70.082031 60.363281 51.277344 83.558594 51.277344 Z M 83.558594 51.277344 " clip-rule="nonzero"/></clipPath><clipPath id="d7d32bdd6f"><path d="M 41.40625 51.125 L 137 51.125 L 137 147 L 41.40625 147 Z M 41.40625 51.125 " clip-rule="nonzero"/></clipPath><clipPath id="710bd391a7"><path d="M 40.65625 92.375 L 40.65625 1052.0625 C 40.65625 1075.257812 59.460938 1094.0625 82.65625 1094.0625 L 1042.34375 1094.0625 C 1065.539062 1094.0625 1084.34375 1075.257812 1084.34375 1052.0625 L 1084.34375 92.375 C 1084.34375 69.179688 1065.539062 50.375 1042.34375 50.375 L 82.65625 50.375 C 59.460938 50.375 40.65625 69.179688 40.65625 92.375 Z M 40.65625 92.375 " clip-rule="nonzero"/></clipPath><clipPath id="9fb650854b"><path d="M 83.558594 51.277344 L 1041.441406 51.277344 C 1064.636719 51.277344 1083.441406 70.082031 1083.441406 93.277344 L 1083.441406 1051.160156 C 1083.441406 1074.355469 1064.636719 1093.160156 1041.441406 1093.160156 L 83.558594 1093.160156 C 60.363281 1093.160156 41.558594 1074.355469 41.558594 1051.160156 L 41.558594 93.277344 C 41.558594 70.082031 60.363281 51.277344 83.558594 51.277344 Z M 83.558594 51.277344 " clip-rule="nonzero"/></clipPath><clipPath id="e2b18ca3af"><path d="M 988 998 L 1083.90625 998 L 1083.90625 1093.625 L 988 1093.625 Z M 988 998 " clip-rule="nonzero"/></clipPath><clipPath id="03273130a9"><path d="M 40.65625 92.375 L 40.65625 1052.0625 C 40.65625 1075.257812 59.460938 1094.0625 82.65625 1094.0625 L 1042.34375 1094.0625 C 1065.539062 1094.0625 1084.34375 1075.257812 1084.34375 1052.0625 L 1084.34375 92.375 C 1084.34375 69.179688 1065.539062 50.375 1042.34375 50.375 L 82.65625 50.375 C 59.460938 50.375 40.65625 69.179688 40.65625 92.375 Z M 40.65625 92.375 " clip-rule="nonzero"/></clipPath><clipPath id="38faaa58a4"><path d="M 83.558594 51.277344 L 1041.441406 51.277344 C 1064.636719 51.277344 1083.441406 70.082031 1083.441406 93.277344 L 1083.441406 1051.160156 C 1083.441406 1074.355469 1064.636719 1093.160156 1041.441406 1093.160156 L 83.558594 1093.160156 C 60.363281 1093.160156 41.558594 1074.355469 41.558594 1051.160156 L 41.558594 93.277344 C 41.558594 70.082031 60.363281 51.277344 83.558594 51.277344 Z M 83.558594 51.277344 " clip-rule="nonzero"/></clipPath><clipPath id="548040d254"><path d="M 41.40625 998 L 137 998 L 137 1093.625 L 41.40625 1093.625 Z M 41.40625 998 " clip-rule="nonzero"/></clipPath><clipPath id="bd37ae9b1e"><path d="M 40.65625 92.375 L 40.65625 1052.0625 C 40.65625 1075.257812 59.460938 1094.0625 82.65625 1094.0625 L 1042.34375 1094.0625 C 1065.539062 1094.0625 1084.34375 1075.257812 1084.34375 1052.0625 L 1084.34375 92.375 C 1084.34375 69.179688 1065.539062 50.375 1042.34375 50.375 L 82.65625 50.375 C 59.460938 50.375 40.65625 69.179688 40.65625 92.375 Z M 40.65625 92.375 " clip-rule="nonzero"/></clipPath><clipPath id="07f32b992f"><path d="M 83.558594 51.277344 L 1041.441406 51.277344 C 1064.636719 51.277344 1083.441406 70.082031 1083.441406 93.277344 L 1083.441406 1051.160156 C 1083.441406 1074.355469 1064.636719 1093.160156 1041.441406 1093.160156 L 83.558594 1093.160156 C 60.363281 1093.160156 41.558594 1074.355469 41.558594 1051.160156 L 41.558594 93.277344 C 41.558594 70.082031 60.363281 51.277344 83.558594 51.277344 Z M 83.558594 51.277344 " clip-rule="nonzero"/></clipPath><clipPath id="ea47e2b63b"><path d="M 40.65625 50.375 L 1084.65625 50.375 L 1084.65625 1094.375 L 40.65625 1094.375 Z M 40.65625 50.375 " clip-rule="nonzero"/></clipPath><clipPath id="873a6d5a5b"><path d="M 40.65625 92.375 L 40.65625 1052.0625 C 40.65625 1075.257812 59.460938 1094.0625 82.65625 1094.0625 L 1042.34375 1094.0625 C 1065.539062 1094.0625 1084.34375 1075.257812 1084.34375 1052.0625 L 1084.34375 92.375 C 1084.34375 69.179688 1065.539062 50.375 1042.34375 50.375 L 82.65625 50.375 C 59.460938 50.375 40.65625 69.179688 40.65625 92.375 Z M 40.65625 92.375 " clip-rule="nonzero"/></clipPath><clipPath id="a134b5d76e"><path d="M 40.65625 92.375 L 40.65625 1052.058594 C 40.65625 1075.253906 59.460938 1094.058594 82.65625 1094.058594 L 1042.339844 1094.058594 C 1065.535156 1094.058594 1084.339844 1075.253906 1084.339844 1052.058594 L 1084.339844 92.375 C 1084.339844 69.179688 1065.535156 50.375 1042.339844 50.375 L 82.65625 50.375 C 59.460938 50.375 40.65625 69.179688 40.65625 92.375 Z M 40.65625 92.375 " clip-rule="nonzero"/></clipPath><clipPath id="055bad622b"><path d="M 854 165 L 974.21875 165 L 974.21875 933 L 854 933 Z M 854 165 " clip-rule="nonzero"/></clipPath><clipPath id="102b419c6c"><path d="M 152 112.5 L 811 112.5 L 811 1034 L 152 1034 Z M 152 112.5 " clip-rule="nonzero"/></clipPath></defs><g clip-path="url(#91a4063045)"><g clip-path="url(#72bdebe599)"><g clip-path="url(#d349d98802)"><path fill="#fc6a1f" d="M 1053.15625 146.011719 L 1084.339844 146.011719 L 1084.339844 998.421875 L 1053.15625 998.421875 Z M 1053.15625 146.011719 " fill-opacity="1" fill-rule="nonzero"/></g></g></g><g clip-path="url(#4ff80e26ef)"><g clip-path="url(#a4f923827a)"><g clip-path="url(#e81f92a863)"><path fill="#fc6a1f" d="M 40.65625 146.011719 L 71.84375 146.011719 L 71.84375 998.421875 L 40.65625 998.421875 Z M 40.65625 146.011719 " fill-opacity="1" fill-rule="nonzero"/></g></g></g><g clip-path="url(#86e30d2e92)"><g clip-path="url(#0b5bfc4e96)"><g clip-path="url(#4d80a865a7)"><path fill="#fc6a1f" d="M 136.292969 50.375 L 988.703125 50.375 L 988.703125 81.5625 L 136.292969 81.5625 Z M 136.292969 50.375 " fill-opacity="1" fill-rule="nonzero"/></g></g></g><g clip-path="url(#3bf4cb7b0e)"><g clip-path="url(#2c09dabd23)"><g clip-path="url(#c34c22ca40)"><path fill="#fc6a1f" d="M 136.292969 1062.875 L 988.703125 1062.875 L 988.703125 1094.058594 L 136.292969 1094.058594 Z M 136.292969 1062.875 " fill-opacity="1" fill-rule="nonzero"/></g></g></g><g clip-path="url(#19f9ad5255)"><g clip-path="url(#fd04424d14)"><g clip-path="url(#b3ca81e36a)"><path fill="#fc6a1f" d="M 1053.15625 81.5625 L 1053.15625 146.011719 L 1084.339844 146.011719 L 1084.339844 50.375 L 988.703125 50.375 L 988.703125 81.5625 Z M 1053.15625 81.5625 " fill-opacity="1" fill-rule="nonzero"/></g></g></g><g clip-path="url(#d7d32bdd6f)"><g clip-path="url(#710bd391a7)"><g clip-path="url(#9fb650854b)"><path fill="#fc6a1f" d="M 71.84375 81.5625 L 136.292969 81.5625 L 136.292969 50.375 L 40.65625 50.375 L 40.65625 146.011719 L 71.84375 146.011719 Z M 71.84375 81.5625 " fill-opacity="1" fill-rule="nonzero"/></g></g></g><g clip-path="url(#e2b18ca3af)"><g clip-path="url(#03273130a9)"><g clip-path="url(#38faaa58a4)"><path fill="#fc6a1f" d="M 1053.15625 1062.875 L 988.703125 1062.875 L 988.703125 1094.058594 L 1084.339844 1094.058594 L 1084.339844 998.421875 L 1053.15625 998.421875 Z M 1053.15625 1062.875 " fill-opacity="1" fill-rule="nonzero"/></g></g></g><g clip-path="url(#548040d254)"><g clip-path="url(#bd37ae9b1e)"><g clip-path="url(#07f32b992f)"><path fill="#fc6a1f" d="M 71.84375 1062.875 L 71.84375 998.421875 L 40.65625 998.421875 L 40.65625 1094.058594 L 136.292969 1094.058594 L 136.292969 1062.875 Z M 71.84375 1062.875 " fill-opacity="1" fill-rule="nonzero"/></g></g></g><g clip-path="url(#ea47e2b63b)"><g clip-path="url(#873a6d5a5b)"><g clip-path="url(#a134b5d76e)"><path stroke-linecap="butt" transform="matrix(0.75, 0, 0, 0.75, 40.657485, 50.376069)" fill="none" stroke-linejoin="miter" d="M -0.00164733 55.998579 L -0.00164733 1335.576814 C -0.00164733 1366.5039 25.071271 1391.576819 55.998357 1391.576819 L 1335.576593 1391.576819 C 1366.503679 1391.576819 1391.576597 1366.5039 1391.576597 1335.576814 L 1391.576597 55.998579 C 1391.576597 25.071493 1366.503679 -0.00142568 1335.576593 -0.00142568 L 55.998357 -0.00142568 C 25.071271 -0.00142568 -0.00164733 25.071493 -0.00164733 55.998579 Z M -0.00164733 55.998579 " stroke="#fc6a1f" stroke-width="66" stroke-opacity="1" stroke-miterlimit="4"/></g></g></g><g clip-path="url(#055bad622b)"><path fill="#fc6a1f" d="M 874.640625 166.3125 C 870.125 164.269531 864.875 164.652344 860.707031 167.34375 C 856.539062 170.035156 854.019531 174.65625 854.019531 179.617188 L 854.019531 891.355469 C 854.019531 914.109375 872.53125 932.617188 895.28125 932.617188 C 918.03125 932.617188 936.539062 914.105469 936.539062 891.355469 L 936.539062 624.910156 C 936.539062 614.019531 941.417969 603.871094 949.921875 597.066406 C 965.394531 584.695312 974.265625 566.230469 974.265625 546.417969 L 974.265625 320.738281 C 974.269531 254.3125 935.164062 193.695312 874.640625 166.3125 Z M 945.0625 546.417969 C 945.0625 557.3125 940.1875 567.460938 931.679688 574.265625 C 916.210938 586.640625 907.335938 605.101562 907.335938 624.914062 L 907.335938 891.359375 C 907.335938 898.007812 901.929688 903.414062 895.28125 903.414062 C 888.636719 903.414062 883.226562 898.007812 883.226562 891.359375 L 883.226562 204.441406 C 921.402344 230.234375 945.066406 273.726562 945.066406 320.738281 L 945.066406 546.417969 Z M 945.0625 546.417969 " fill-opacity="1" fill-rule="nonzero"/></g><path fill="#fc6a1f" d="M 771.53125 599.523438 C 775.402344 592.445312 772.800781 583.574219 765.722656 579.703125 L 743.886719 567.761719 C 705.3125 546.679688 659.316406 542.695312 617.519531 556.910156 L 608.492188 560.113281 C 572.117188 572.476562 547.683594 606.589844 547.683594 645.007812 L 547.683594 746.414062 C 547.683594 754.480469 554.21875 761.015625 562.285156 761.015625 C 570.347656 761.015625 576.886719 754.480469 576.886719 746.414062 L 576.886719 645.007812 C 576.886719 619.105469 593.363281 596.101562 618.074219 587.699219 L 627.101562 584.496094 C 661 572.976562 698.460938 576.214844 729.878906 593.390625 L 751.71875 605.328125 C 758.792969 609.199219 767.664062 606.597656 771.53125 599.523438 Z M 771.53125 599.523438 " fill-opacity="1" fill-rule="nonzero"/><path fill="#fc6a1f" d="M 485.464844 594.78125 C 493.105469 597.378906 501.394531 593.289062 503.992188 585.65625 C 506.585938 578.019531 502.5 569.726562 494.863281 567.128906 L 464.597656 556.847656 C 422.976562 542.695312 376.984375 546.679688 338.414062 567.761719 L 316.574219 579.703125 C 309.5 583.574219 306.898438 592.445312 310.769531 599.523438 C 313.421875 604.375 318.425781 607.121094 323.59375 607.121094 C 325.960938 607.121094 328.359375 606.542969 330.582031 605.328125 L 352.421875 593.390625 C 383.839844 576.214844 421.296875 572.972656 455.199219 584.496094 Z M 485.464844 594.78125 " fill-opacity="1" fill-rule="nonzero"/><path fill="#fc6a1f" d="M 382.285156 645.03125 L 366.1875 639.820312 C 358.515625 637.339844 350.28125 641.542969 347.796875 649.214844 C 345.3125 656.886719 349.519531 665.121094 357.191406 667.605469 L 371.84375 672.347656 C 372.996094 690.714844 388.21875 705.261719 406.871094 705.261719 C 426.277344 705.261719 442.011719 689.53125 442.011719 670.121094 C 442.011719 650.714844 426.277344 634.980469 406.871094 634.980469 C 397.296875 634.976562 388.625 638.820312 382.285156 645.03125 Z M 382.285156 645.03125 " fill-opacity="1" fill-rule="nonzero"/><path fill="#fc6a1f" d="M 715.917969 639.816406 L 699.496094 645.136719 C 693.148438 638.859375 684.429688 634.976562 674.796875 634.976562 C 655.390625 634.976562 639.65625 650.710938 639.65625 670.117188 C 639.65625 689.527344 655.390625 705.257812 674.796875 705.257812 C 693.40625 705.257812 708.59375 690.785156 709.820312 672.488281 L 724.914062 667.601562 C 732.585938 665.117188 736.792969 656.886719 734.308594 649.210938 C 731.824219 641.539062 723.589844 637.335938 715.917969 639.816406 Z M 715.917969 639.816406 " fill-opacity="1" fill-rule="nonzero"/><g clip-path="url(#102b419c6c)"><path fill="#fc6a1f" d="M 544.289062 112.609375 C 448.804688 112.609375 357.269531 153.195312 293.160156 223.957031 C 229.050781 294.71875 197.667969 389.800781 207.066406 484.820312 C 207.09375 485.09375 207.128906 485.359375 207.171875 485.628906 L 215.144531 536.886719 C 197.289062 541.648438 181.582031 552.085938 170.175781 567.007812 C 156.535156 584.851562 150.664062 606.9375 153.632812 629.195312 L 164.582031 711.238281 C 170.214844 753.4375 206.402344 784.199219 247.867188 784.199219 C 249.625 784.199219 251.390625 784.136719 253.164062 784.023438 C 274.246094 848.867188 316.101562 906.28125 381.777344 962.304688 C 434.914062 1007.628906 493.003906 1033.621094 541.148438 1033.621094 C 589.296875 1033.621094 647.386719 1007.628906 700.519531 962.304688 C 743.417969 925.710938 775.496094 889.175781 798.589844 850.609375 C 802.730469 843.691406 800.480469 834.726562 793.558594 830.582031 C 786.644531 826.441406 777.675781 828.683594 773.53125 835.609375 C 752.097656 871.410156 722.011719 905.585938 681.566406 940.085938 C 633.632812 980.96875 582.453125 1004.417969 541.148438 1004.417969 C 499.839844 1004.417969 448.660156 980.96875 400.726562 940.085938 C 307.480469 860.546875 265.902344 778.566406 265.902344 674.273438 C 265.902344 673.523438 265.84375 672.773438 265.726562 672.03125 L 255.480469 606.167969 C 256.066406 605.34375 256.601562 604.476562 257.015625 603.511719 C 279.800781 550.632812 315.363281 503.328125 362.71875 462.910156 C 400.925781 430.300781 446.867188 402.042969 499.265625 378.929688 C 589.128906 339.285156 667.726562 328.449219 668.507812 328.34375 C 676.5 327.277344 682.117188 319.941406 681.054688 311.949219 C 679.992188 303.953125 672.65625 298.328125 664.65625 299.394531 C 661.316406 299.839844 581.792969 310.734375 488.234375 351.875 C 433.09375 376.125 384.605469 405.902344 344.125 440.382812 C 303.96875 474.59375 271.691406 513.519531 247.742188 556.449219 L 236.089844 481.550781 C 227.628906 394.851562 256.304688 308.132812 314.800781 243.570312 C 373.386719 178.90625 457.03125 141.816406 544.289062 141.816406 C 637.78125 141.816406 725.292969 183.40625 784.382812 255.917969 C 789.480469 262.171875 798.675781 263.105469 804.929688 258.011719 C 811.179688 252.917969 812.117188 243.71875 807.023438 237.464844 C 742.359375 158.117188 646.597656 112.609375 544.289062 112.609375 Z M 193.53125 707.375 L 182.582031 625.332031 C 180.640625 610.800781 184.476562 596.390625 193.378906 584.746094 C 200.167969 575.863281 209.285156 569.414062 219.675781 565.988281 L 236.703125 675.410156 C 236.777344 703.300781 239.570312 729.691406 245.21875 754.914062 C 219.296875 753.652344 197.085938 734 193.53125 707.375 Z M 193.53125 707.375 " fill-opacity="1" fill-rule="nonzero"/></g><path fill="#fc6a1f" d="M 790.457031 497.925781 C 796.820312 492.96875 797.960938 483.792969 793.003906 477.433594 C 723.453125 388.128906 646.09375 370.023438 642.835938 369.296875 C 634.988281 367.554688 627.21875 372.480469 625.441406 380.328125 C 623.664062 388.171875 628.589844 395.984375 636.429688 397.789062 C 637.132812 397.949219 707.25 414.855469 769.964844 495.378906 C 772.84375 499.074219 777.144531 501.007812 781.496094 501.007812 C 784.632812 501.007812 787.792969 500 790.457031 497.925781 Z M 790.457031 497.925781 " fill-opacity="1" fill-rule="nonzero"/><path fill="#fc6a1f" d="M 628.535156 834.933594 C 634.78125 829.835938 635.714844 820.632812 630.613281 814.390625 C 625.511719 808.140625 616.3125 807.210938 610.066406 812.3125 C 600.617188 820.027344 592.144531 819.722656 577.984375 818.511719 C 567.199219 817.585938 554.320312 816.488281 541.609375 822.496094 C 528.914062 815.867188 514.835938 817.304688 503.042969 818.507812 C 488.570312 819.988281 480.058594 820.488281 473.386719 813.523438 C 467.808594 807.703125 458.566406 807.5 452.742188 813.078125 C 446.917969 818.65625 446.722656 827.902344 452.300781 833.722656 C 469.160156 851.328125 490.464844 849.148438 506.015625 847.558594 C 518.679688 846.265625 526.078125 845.757812 530.863281 850.4375 C 533.6875 853.199219 537.375 854.601562 541.074219 854.601562 C 544.328125 854.601562 547.59375 853.515625 550.289062 851.324219 C 556.53125 846.246094 563.226562 846.554688 575.5 847.605469 C 589.835938 848.835938 609.460938 850.507812 628.535156 834.933594 Z M 628.535156 834.933594 " fill-opacity="1" fill-rule="nonzero"/><path fill="#fc6a1f" d="M 561.195312 881.601562 L 520.953125 881.601562 C 512.886719 881.601562 506.351562 888.136719 506.351562 896.203125 C 506.351562 904.269531 512.886719 910.804688 520.953125 910.804688 L 561.195312 910.804688 C 569.261719 910.804688 575.796875 904.269531 575.796875 896.203125 C 575.796875 888.136719 569.261719 881.601562 561.195312 881.601562 Z M 561.195312 881.601562 " fill-opacity="1" fill-rule="nonzero"/></svg>