<svg xmlns="http://www.w3.org/2000/svg" xmlns:xlink="http://www.w3.org/1999/xlink" width="1500" zoomAndPan="magnify" viewBox="0 0 1125 1124.99995" height="1500" preserveAspectRatio="xMidYMid meet" version="1.0"><defs><clipPath id="6347a59df3"><path d="M 1053 146 L 1083.90625 146 L 1083.90625 999 L 1053 999 Z M 1053 146 " clip-rule="nonzero"/></clipPath><clipPath id="6dfda5c3b8"><path d="M 40.65625 92.375 L 40.65625 1052.0625 C 40.65625 1075.257812 59.460938 1094.0625 82.65625 1094.0625 L 1042.34375 1094.0625 C 1065.539062 1094.0625 1084.34375 1075.257812 1084.34375 1052.0625 L 1084.34375 92.375 C 1084.34375 69.179688 1065.539062 50.375 1042.34375 50.375 L 82.65625 50.375 C 59.460938 50.375 40.65625 69.179688 40.65625 92.375 Z M 40.65625 92.375 " clip-rule="nonzero"/></clipPath><clipPath id="0f588615f6"><path d="M 83.558594 51.277344 L 1041.441406 51.277344 C 1064.636719 51.277344 1083.441406 70.082031 1083.441406 93.277344 L 1083.441406 1051.160156 C 1083.441406 1074.355469 1064.636719 1093.160156 1041.441406 1093.160156 L 83.558594 1093.160156 C 60.363281 1093.160156 41.558594 1074.355469 41.558594 1051.160156 L 41.558594 93.277344 C 41.558594 70.082031 60.363281 51.277344 83.558594 51.277344 Z M 83.558594 51.277344 " clip-rule="nonzero"/></clipPath><clipPath id="4d019d7494"><path d="M 41.40625 146 L 72 146 L 72 999 L 41.40625 999 Z M 41.40625 146 " clip-rule="nonzero"/></clipPath><clipPath id="d568d4f8b4"><path d="M 40.65625 92.375 L 40.65625 1052.0625 C 40.65625 1075.257812 59.460938 1094.0625 82.65625 1094.0625 L 1042.34375 1094.0625 C 1065.539062 1094.0625 1084.34375 1075.257812 1084.34375 1052.0625 L 1084.34375 92.375 C 1084.34375 69.179688 1065.539062 50.375 1042.34375 50.375 L 82.65625 50.375 C 59.460938 50.375 40.65625 69.179688 40.65625 92.375 Z M 40.65625 92.375 " clip-rule="nonzero"/></clipPath><clipPath id="bd1a3c58c7"><path d="M 83.558594 51.277344 L 1041.441406 51.277344 C 1064.636719 51.277344 1083.441406 70.082031 1083.441406 93.277344 L 1083.441406 1051.160156 C 1083.441406 1074.355469 1064.636719 1093.160156 1041.441406 1093.160156 L 83.558594 1093.160156 C 60.363281 1093.160156 41.558594 1074.355469 41.558594 1051.160156 L 41.558594 93.277344 C 41.558594 70.082031 60.363281 51.277344 83.558594 51.277344 Z M 83.558594 51.277344 " clip-rule="nonzero"/></clipPath><clipPath id="90460b1f92"><path d="M 136 51.125 L 989 51.125 L 989 82 L 136 82 Z M 136 51.125 " clip-rule="nonzero"/></clipPath><clipPath id="db07e30ab1"><path d="M 40.65625 92.375 L 40.65625 1052.0625 C 40.65625 1075.257812 59.460938 1094.0625 82.65625 1094.0625 L 1042.34375 1094.0625 C 1065.539062 1094.0625 1084.34375 1075.257812 1084.34375 1052.0625 L 1084.34375 92.375 C 1084.34375 69.179688 1065.539062 50.375 1042.34375 50.375 L 82.65625 50.375 C 59.460938 50.375 40.65625 69.179688 40.65625 92.375 Z M 40.65625 92.375 " clip-rule="nonzero"/></clipPath><clipPath id="c3bf5bc2b8"><path d="M 83.558594 51.277344 L 1041.441406 51.277344 C 1064.636719 51.277344 1083.441406 70.082031 1083.441406 93.277344 L 1083.441406 1051.160156 C 1083.441406 1074.355469 1064.636719 1093.160156 1041.441406 1093.160156 L 83.558594 1093.160156 C 60.363281 1093.160156 41.558594 1074.355469 41.558594 1051.160156 L 41.558594 93.277344 C 41.558594 70.082031 60.363281 51.277344 83.558594 51.277344 Z M 83.558594 51.277344 " clip-rule="nonzero"/></clipPath><clipPath id="cec7b75ccd"><path d="M 136 1062 L 989 1062 L 989 1093.625 L 136 1093.625 Z M 136 1062 " clip-rule="nonzero"/></clipPath><clipPath id="a0ff6ac74f"><path d="M 40.65625 92.375 L 40.65625 1052.0625 C 40.65625 1075.257812 59.460938 1094.0625 82.65625 1094.0625 L 1042.34375 1094.0625 C 1065.539062 1094.0625 1084.34375 1075.257812 1084.34375 1052.0625 L 1084.34375 92.375 C 1084.34375 69.179688 1065.539062 50.375 1042.34375 50.375 L 82.65625 50.375 C 59.460938 50.375 40.65625 69.179688 40.65625 92.375 Z M 40.65625 92.375 " clip-rule="nonzero"/></clipPath><clipPath id="40eeb42be9"><path d="M 83.558594 51.277344 L 1041.441406 51.277344 C 1064.636719 51.277344 1083.441406 70.082031 1083.441406 93.277344 L 1083.441406 1051.160156 C 1083.441406 1074.355469 1064.636719 1093.160156 1041.441406 1093.160156 L 83.558594 1093.160156 C 60.363281 1093.160156 41.558594 1074.355469 41.558594 1051.160156 L 41.558594 93.277344 C 41.558594 70.082031 60.363281 51.277344 83.558594 51.277344 Z M 83.558594 51.277344 " clip-rule="nonzero"/></clipPath><clipPath id="85cbe7454b"><path d="M 988 51.125 L 1083.90625 51.125 L 1083.90625 147 L 988 147 Z M 988 51.125 " clip-rule="nonzero"/></clipPath><clipPath id="223bb2c41a"><path d="M 40.65625 92.375 L 40.65625 1052.0625 C 40.65625 1075.257812 59.460938 1094.0625 82.65625 1094.0625 L 1042.34375 1094.0625 C 1065.539062 1094.0625 1084.34375 1075.257812 1084.34375 1052.0625 L 1084.34375 92.375 C 1084.34375 69.179688 1065.539062 50.375 1042.34375 50.375 L 82.65625 50.375 C 59.460938 50.375 40.65625 69.179688 40.65625 92.375 Z M 40.65625 92.375 " clip-rule="nonzero"/></clipPath><clipPath id="3ea68cabb3"><path d="M 83.558594 51.277344 L 1041.441406 51.277344 C 1064.636719 51.277344 1083.441406 70.082031 1083.441406 93.277344 L 1083.441406 1051.160156 C 1083.441406 1074.355469 1064.636719 1093.160156 1041.441406 1093.160156 L 83.558594 1093.160156 C 60.363281 1093.160156 41.558594 1074.355469 41.558594 1051.160156 L 41.558594 93.277344 C 41.558594 70.082031 60.363281 51.277344 83.558594 51.277344 Z M 83.558594 51.277344 " clip-rule="nonzero"/></clipPath><clipPath id="586db01faf"><path d="M 41.40625 51.125 L 137 51.125 L 137 147 L 41.40625 147 Z M 41.40625 51.125 " clip-rule="nonzero"/></clipPath><clipPath id="08f83e30c6"><path d="M 40.65625 92.375 L 40.65625 1052.0625 C 40.65625 1075.257812 59.460938 1094.0625 82.65625 1094.0625 L 1042.34375 1094.0625 C 1065.539062 1094.0625 1084.34375 1075.257812 1084.34375 1052.0625 L 1084.34375 92.375 C 1084.34375 69.179688 1065.539062 50.375 1042.34375 50.375 L 82.65625 50.375 C 59.460938 50.375 40.65625 69.179688 40.65625 92.375 Z M 40.65625 92.375 " clip-rule="nonzero"/></clipPath><clipPath id="4201ce6926"><path d="M 83.558594 51.277344 L 1041.441406 51.277344 C 1064.636719 51.277344 1083.441406 70.082031 1083.441406 93.277344 L 1083.441406 1051.160156 C 1083.441406 1074.355469 1064.636719 1093.160156 1041.441406 1093.160156 L 83.558594 1093.160156 C 60.363281 1093.160156 41.558594 1074.355469 41.558594 1051.160156 L 41.558594 93.277344 C 41.558594 70.082031 60.363281 51.277344 83.558594 51.277344 Z M 83.558594 51.277344 " clip-rule="nonzero"/></clipPath><clipPath id="5b7dc5537d"><path d="M 988 998 L 1083.90625 998 L 1083.90625 1093.625 L 988 1093.625 Z M 988 998 " clip-rule="nonzero"/></clipPath><clipPath id="352aa6d26c"><path d="M 40.65625 92.375 L 40.65625 1052.0625 C 40.65625 1075.257812 59.460938 1094.0625 82.65625 1094.0625 L 1042.34375 1094.0625 C 1065.539062 1094.0625 1084.34375 1075.257812 1084.34375 1052.0625 L 1084.34375 92.375 C 1084.34375 69.179688 1065.539062 50.375 1042.34375 50.375 L 82.65625 50.375 C 59.460938 50.375 40.65625 69.179688 40.65625 92.375 Z M 40.65625 92.375 " clip-rule="nonzero"/></clipPath><clipPath id="a04aae9b76"><path d="M 83.558594 51.277344 L 1041.441406 51.277344 C 1064.636719 51.277344 1083.441406 70.082031 1083.441406 93.277344 L 1083.441406 1051.160156 C 1083.441406 1074.355469 1064.636719 1093.160156 1041.441406 1093.160156 L 83.558594 1093.160156 C 60.363281 1093.160156 41.558594 1074.355469 41.558594 1051.160156 L 41.558594 93.277344 C 41.558594 70.082031 60.363281 51.277344 83.558594 51.277344 Z M 83.558594 51.277344 " clip-rule="nonzero"/></clipPath><clipPath id="1a63ef7524"><path d="M 41.40625 998 L 137 998 L 137 1093.625 L 41.40625 1093.625 Z M 41.40625 998 " clip-rule="nonzero"/></clipPath><clipPath id="5666746e7d"><path d="M 40.65625 92.375 L 40.65625 1052.0625 C 40.65625 1075.257812 59.460938 1094.0625 82.65625 1094.0625 L 1042.34375 1094.0625 C 1065.539062 1094.0625 1084.34375 1075.257812 1084.34375 1052.0625 L 1084.34375 92.375 C 1084.34375 69.179688 1065.539062 50.375 1042.34375 50.375 L 82.65625 50.375 C 59.460938 50.375 40.65625 69.179688 40.65625 92.375 Z M 40.65625 92.375 " clip-rule="nonzero"/></clipPath><clipPath id="ddc71d5195"><path d="M 83.558594 51.277344 L 1041.441406 51.277344 C 1064.636719 51.277344 1083.441406 70.082031 1083.441406 93.277344 L 1083.441406 1051.160156 C 1083.441406 1074.355469 1064.636719 1093.160156 1041.441406 1093.160156 L 83.558594 1093.160156 C 60.363281 1093.160156 41.558594 1074.355469 41.558594 1051.160156 L 41.558594 93.277344 C 41.558594 70.082031 60.363281 51.277344 83.558594 51.277344 Z M 83.558594 51.277344 " clip-rule="nonzero"/></clipPath><clipPath id="ed136c98d3"><path d="M 40.65625 50.375 L 1084.65625 50.375 L 1084.65625 1094.375 L 40.65625 1094.375 Z M 40.65625 50.375 " clip-rule="nonzero"/></clipPath><clipPath id="bb63521a64"><path d="M 40.65625 92.375 L 40.65625 1052.0625 C 40.65625 1075.257812 59.460938 1094.0625 82.65625 1094.0625 L 1042.34375 1094.0625 C 1065.539062 1094.0625 1084.34375 1075.257812 1084.34375 1052.0625 L 1084.34375 92.375 C 1084.34375 69.179688 1065.539062 50.375 1042.34375 50.375 L 82.65625 50.375 C 59.460938 50.375 40.65625 69.179688 40.65625 92.375 Z M 40.65625 92.375 " clip-rule="nonzero"/></clipPath><clipPath id="aced9687dd"><path d="M 40.65625 92.375 L 40.65625 1052.058594 C 40.65625 1075.253906 59.460938 1094.058594 82.65625 1094.058594 L 1042.339844 1094.058594 C 1065.535156 1094.058594 1084.339844 1075.253906 1084.339844 1052.058594 L 1084.339844 92.375 C 1084.339844 69.179688 1065.535156 50.375 1042.339844 50.375 L 82.65625 50.375 C 59.460938 50.375 40.65625 69.179688 40.65625 92.375 Z M 40.65625 92.375 " clip-rule="nonzero"/></clipPath><clipPath id="6996dbe4cb"><path d="M 773 817 L 976 817 L 976 1001.15625 L 773 1001.15625 Z M 773 817 " clip-rule="nonzero"/></clipPath><clipPath id="8d4ba66243"><path d="M 461 619 L 789 619 L 789 1001.15625 L 461 1001.15625 Z M 461 619 " clip-rule="nonzero"/></clipPath></defs><g clip-path="url(#6347a59df3)"><g clip-path="url(#6dfda5c3b8)"><g clip-path="url(#0f588615f6)"><path fill="#fc6a1f" d="M 1053.15625 146.011719 L 1084.339844 146.011719 L 1084.339844 998.421875 L 1053.15625 998.421875 Z M 1053.15625 146.011719 " fill-opacity="1" fill-rule="nonzero"/></g></g></g><g clip-path="url(#4d019d7494)"><g clip-path="url(#d568d4f8b4)"><g clip-path="url(#bd1a3c58c7)"><path fill="#fc6a1f" d="M 40.65625 146.011719 L 71.84375 146.011719 L 71.84375 998.421875 L 40.65625 998.421875 Z M 40.65625 146.011719 " fill-opacity="1" fill-rule="nonzero"/></g></g></g><g clip-path="url(#90460b1f92)"><g clip-path="url(#db07e30ab1)"><g clip-path="url(#c3bf5bc2b8)"><path fill="#fc6a1f" d="M 136.292969 50.375 L 988.703125 50.375 L 988.703125 81.5625 L 136.292969 81.5625 Z M 136.292969 50.375 " fill-opacity="1" fill-rule="nonzero"/></g></g></g><g clip-path="url(#cec7b75ccd)"><g clip-path="url(#a0ff6ac74f)"><g clip-path="url(#40eeb42be9)"><path fill="#fc6a1f" d="M 136.292969 1062.875 L 988.703125 1062.875 L 988.703125 1094.058594 L 136.292969 1094.058594 Z M 136.292969 1062.875 " fill-opacity="1" fill-rule="nonzero"/></g></g></g><g clip-path="url(#85cbe7454b)"><g clip-path="url(#223bb2c41a)"><g clip-path="url(#3ea68cabb3)"><path fill="#fc6a1f" d="M 1053.15625 81.5625 L 1053.15625 146.011719 L 1084.339844 146.011719 L 1084.339844 50.375 L 988.703125 50.375 L 988.703125 81.5625 Z M 1053.15625 81.5625 " fill-opacity="1" fill-rule="nonzero"/></g></g></g><g clip-path="url(#586db01faf)"><g clip-path="url(#08f83e30c6)"><g clip-path="url(#4201ce6926)"><path fill="#fc6a1f" d="M 71.84375 81.5625 L 136.292969 81.5625 L 136.292969 50.375 L 40.65625 50.375 L 40.65625 146.011719 L 71.84375 146.011719 Z M 71.84375 81.5625 " fill-opacity="1" fill-rule="nonzero"/></g></g></g><g clip-path="url(#5b7dc5537d)"><g clip-path="url(#352aa6d26c)"><g clip-path="url(#a04aae9b76)"><path fill="#fc6a1f" d="M 1053.15625 1062.875 L 988.703125 1062.875 L 988.703125 1094.058594 L 1084.339844 1094.058594 L 1084.339844 998.421875 L 1053.15625 998.421875 Z M 1053.15625 1062.875 " fill-opacity="1" fill-rule="nonzero"/></g></g></g><g clip-path="url(#1a63ef7524)"><g clip-path="url(#5666746e7d)"><g clip-path="url(#ddc71d5195)"><path fill="#fc6a1f" d="M 71.84375 1062.875 L 71.84375 998.421875 L 40.65625 998.421875 L 40.65625 1094.058594 L 136.292969 1094.058594 L 136.292969 1062.875 Z M 71.84375 1062.875 " fill-opacity="1" fill-rule="nonzero"/></g></g></g><g clip-path="url(#ed136c98d3)"><g clip-path="url(#bb63521a64)"><g clip-path="url(#aced9687dd)"><path stroke-linecap="butt" transform="matrix(0.75, 0, 0, 0.75, 40.657485, 50.376069)" fill="none" stroke-linejoin="miter" d="M -0.00164733 55.998579 L -0.00164733 1335.576814 C -0.00164733 1366.5039 25.071271 1391.576819 55.998357 1391.576819 L 1335.576593 1391.576819 C 1366.503679 1391.576819 1391.576597 1366.5039 1391.576597 1335.576814 L 1391.576597 55.998579 C 1391.576597 25.071493 1366.503679 -0.00142568 1335.576593 -0.00142568 L 55.998357 -0.00142568 C 25.071271 -0.00142568 -0.00164733 25.071493 -0.00164733 55.998579 Z M -0.00164733 55.998579 " stroke="#fc6a1f" stroke-width="66" stroke-opacity="1" stroke-miterlimit="4"/></g></g></g><path fill="#fc6a1f" d="M 966.078125 817.199219 Z M 785.074219 817.820312 C 817.316406 818.488281 946.441406 819.914062 964.675781 817.453125 C 979.671875 800.894531 989.925781 788.890625 989.882812 767.6875 C 958.191406 768.101562 925.949219 767.894531 894.675781 767.6875 C 851.394531 767.390625 806.714844 767.089844 763.894531 768.492188 C 764.332031 784.914062 771.4375 801.472656 785.074219 817.820312 Z M 890.582031 833.644531 C 839.117188 833.644531 782.289062 832.492188 781.277344 832.46875 C 780.820312 832.46875 780.289062 832.449219 779.96875 832.425781 C 775.714844 832.355469 762.972656 825.25 591.441406 714.453125 L 489.773438 648.65625 C 489.75 648.636719 489.703125 648.613281 489.660156 648.589844 C 475.628906 639.527344 467.628906 634.378906 465.8125 633.25 C 465.167969 632.929688 464.59375 632.539062 464.085938 632.078125 C 461.097656 629.296875 460.9375 624.648438 463.695312 621.660156 C 465.742188 619.476562 468.800781 618.808594 471.46875 619.707031 C 471.953125 619.867188 472.410156 620.074219 472.871094 620.328125 C 473.722656 620.808594 477.332031 623.085938 497.660156 636.238281 C 497.707031 636.261719 497.753906 636.285156 497.800781 636.332031 L 599.421875 702.078125 C 632.238281 723.28125 716.40625 777.644531 758.304688 803.792969 C 751.292969 789.582031 748.253906 775.023438 749.382812 760.789062 C 749.703125 757.0625 752.738281 754.167969 756.464844 754.027344 C 801.675781 752.328125 849.003906 752.671875 894.765625 752.972656 C 928.296875 753.179688 962.976562 753.429688 996.757812 752.878906 C 1000.460938 752.765625 1003.863281 755.730469 1004.207031 759.546875 C 1007.289062 792.386719 992.617188 808.554688 974.035156 829.019531 C 973.554688 829.574219 972.957031 830.054688 972.335938 830.421875 C 968.082031 832.929688 930.988281 833.644531 890.582031 833.644531 " fill-opacity="1" fill-rule="nonzero"/><path fill="#fc6a1f" d="M 469.078125 803.195312 C 469.054688 803.195312 469.03125 803.195312 469.007812 803.195312 L 424.714844 802.757812 C 377.34375 802.320312 332.589844 801.886719 315.4375 801.265625 C 304.03125 800.871094 291.128906 799.285156 282.207031 790.59375 C 281.585938 790.019531 280.894531 789.28125 280.207031 788.476562 C 273.375 780.359375 272.386719 769.691406 271.652344 761.894531 C 265.1875 694.144531 258.519531 624.097656 257.828125 554.53125 C 257.414062 512.355469 258.773438 457.003906 273.191406 403.125 C 287.769531 348.714844 314.125 302.902344 349.355469 270.730469 C 404.753906 220.117188 478.941406 205.097656 531.398438 201.417969 C 572.835938 198.453125 611.769531 201.417969 647.09375 210.179688 C 657.097656 212.640625 667.191406 215.722656 677.105469 219.3125 C 787.535156 259.441406 841.207031 358.992188 841.207031 523.695312 C 841.207031 541.011719 840.105469 558.671875 838.839844 579.09375 C 837.550781 599.972656 836.078125 623.613281 835.550781 651.53125 C 835.480469 655.601562 832.332031 658.660156 828.054688 658.753906 C 824.007812 658.683594 820.765625 655.328125 820.832031 651.257812 C 821.363281 623.015625 822.855469 599.214844 824.144531 578.195312 C 825.410156 558.003906 826.492188 540.550781 826.492188 523.695312 C 826.492188 363.730469 777.414062 271.421875 672.066406 233.132812 C 662.664062 229.726562 653.050781 226.808594 643.550781 224.460938 C 609.722656 216.070312 572.355469 213.238281 532.433594 216.113281 C 482.300781 219.609375 411.5625 233.820312 359.289062 281.585938 C 326.105469 311.871094 301.269531 355.222656 287.402344 406.941406 C 273.445312 459.097656 272.132812 513.140625 272.546875 554.394531 C 273.214844 623.316406 279.859375 693.066406 286.300781 760.515625 C 287.035156 768.378906 287.886719 774.75 291.40625 778.933594 C 291.65625 779.234375 291.980469 779.578125 292.324219 779.921875 C 297.820312 785.234375 307.339844 786.246094 315.964844 786.546875 C 332.9375 787.167969 377.574219 787.605469 424.855469 788.039062 L 469.167969 788.476562 C 473.214844 788.523438 476.480469 791.835938 476.433594 795.90625 C 476.414062 799.953125 473.125 803.195312 469.078125 803.195312 " fill-opacity="1" fill-rule="nonzero"/><path fill="#fc6a1f" d="M 292.417969 796.367188 C 290.921875 796.367188 289.425781 795.929688 288.117188 794.984375 C 268.730469 781.097656 251.527344 768.953125 236.304688 758.191406 C 143.46875 692.652344 121.414062 677.082031 119.273438 628.859375 C 117.871094 597.628906 118.746094 461.003906 121.113281 409.054688 C 123.828125 349.679688 137.144531 303.546875 161.820312 268.0625 C 178.652344 243.800781 271.71875 124.75 449.046875 161.496094 C 513.828125 174.949219 583.738281 192.289062 662.777344 214.550781 C 666.6875 215.632812 668.964844 219.703125 667.859375 223.609375 C 666.753906 227.519531 662.683594 229.796875 658.777344 228.695312 C 580.082031 206.546875 510.492188 189.300781 446.058594 175.917969 C 277.769531 141.007812 189.804688 253.53125 173.890625 276.457031 C 150.847656 309.597656 138.40625 353.199219 135.832031 409.722656 C 133.507812 460.132812 132.636719 597.996094 133.96875 628.191406 C 135.808594 669.21875 154.574219 682.464844 244.789062 746.164062 C 260.039062 756.949219 277.261719 769.113281 296.695312 783.027344 C 300.003906 785.394531 300.765625 789.996094 298.394531 793.308594 C 296.945312 795.308594 294.691406 796.367188 292.417969 796.367188 " fill-opacity="1" fill-rule="nonzero"/><path fill="#fc6a1f" d="M 468.617188 704.125 C 467.558594 704.125 466.476562 703.894531 465.441406 703.414062 C 399.398438 671.90625 356.691406 604.273438 356.691406 531.097656 C 356.691406 425.867188 442.308594 340.273438 547.542969 340.273438 C 652.773438 340.273438 738.390625 425.867188 738.390625 531.097656 C 738.390625 550.554688 735.445312 569.78125 729.699219 588.246094 C 728.480469 592.132812 724.363281 594.292969 720.476562 593.074219 C 716.589844 591.855469 714.429688 587.738281 715.648438 583.855469 C 720.957031 566.8125 723.671875 549.058594 723.671875 531.097656 C 723.671875 433.984375 644.65625 354.992188 547.542969 354.992188 C 450.425781 354.992188 371.410156 433.984375 371.410156 531.097656 C 371.410156 598.640625 410.804688 661.054688 471.789062 690.121094 C 475.445312 691.867188 477.011719 696.261719 475.261719 699.941406 C 473.996094 702.585938 471.351562 704.125 468.617188 704.125 " fill-opacity="1" fill-rule="nonzero"/><path fill="#fc6a1f" d="M 493.773438 649.855469 C 492.488281 649.855469 491.199219 649.507812 490.074219 648.84375 C 481.082031 644.449219 472.6875 639.070312 465.050781 632.8125 C 464.707031 632.582031 464.386719 632.355469 464.085938 632.078125 C 434.007812 607.308594 416.550781 570.402344 416.550781 531.097656 C 416.550781 458.890625 475.308594 400.109375 547.542969 400.109375 C 619.773438 400.109375 678.53125 458.890625 678.53125 531.097656 C 678.53125 538.640625 677.910156 546.140625 676.667969 553.359375 C 675.976562 557.363281 672.160156 560.050781 668.160156 559.363281 C 664.15625 558.671875 661.464844 554.855469 662.15625 550.851562 C 663.261719 544.460938 663.8125 537.8125 663.8125 531.097656 C 663.8125 466.984375 611.65625 414.828125 547.542969 414.828125 C 483.425781 414.828125 431.269531 466.984375 431.269531 531.097656 C 431.269531 565.753906 446.5625 598.320312 473.238281 620.554688 C 473.46875 620.695312 473.675781 620.855469 473.882812 621.039062 C 480.875 626.8125 488.601562 631.753906 496.878906 635.804688 C 497.730469 636.21875 498.511719 636.792969 499.15625 637.480469 C 501.9375 640.472656 501.753906 645.117188 498.789062 647.875 C 497.363281 649.210938 495.570312 649.855469 493.773438 649.855469 " fill-opacity="1" fill-rule="nonzero"/><path fill="#fc6a1f" d="M 665.929688 545.609375 Z M 665.929688 545.609375 C 665.929688 545.609375 665.929688 545.609375 665.929688 545.632812 C 665.929688 545.609375 665.929688 545.609375 665.929688 545.609375 Z M 756.742188 768.722656 C 755.222656 768.722656 753.730469 768.265625 752.417969 767.320312 C 647.164062 690.855469 536.296875 619.75 422.945312 555.957031 C 420.1875 554.417969 418.738281 551.3125 419.3125 548.230469 C 419.863281 545.148438 422.324219 542.757812 425.429688 542.277344 C 426.878906 542.046875 430.648438 542.089844 478.757812 543.125 C 536.363281 544.367188 655.71875 546.921875 667.101562 545.128906 C 669.171875 544.414062 671.492188 544.714844 673.378906 545.910156 C 727.304688 580.519531 783.003906 615.589844 836.863281 649.484375 C 890.8125 683.476562 946.578125 718.589844 1000.621094 753.269531 C 1004.046875 755.476562 1005.035156 760.03125 1002.851562 763.433594 C 1000.644531 766.859375 996.089844 767.851562 992.6875 765.664062 C 938.691406 731.007812 882.925781 695.917969 829.019531 661.949219 C 775.898438 628.488281 720.980469 593.925781 667.722656 559.753906 C 656.316406 560.902344 619.105469 560.855469 478.4375 557.84375 C 470.132812 557.660156 462.199219 557.476562 455.140625 557.339844 C 560.304688 617.703125 663.097656 684.257812 761.066406 755.410156 C 764.351562 757.800781 765.089844 762.398438 762.699219 765.6875 C 761.25 767.6875 759.019531 768.722656 756.742188 768.722656 " fill-opacity="1" fill-rule="nonzero"/><g clip-path="url(#6996dbe4cb)"><path fill="#fc6a1f" d="M 781.234375 1001.035156 C 779.277344 1001.035156 777.414062 1000.277344 776.035156 998.898438 C 774.65625 997.515625 773.851562 995.632812 773.875 993.675781 L 774.105469 825.089844 C 774.105469 821.039062 777.390625 817.683594 781.464844 817.683594 C 785.535156 817.683594 788.820312 820.925781 788.820312 824.996094 L 788.59375 986.25 L 960.078125 984.683594 L 960.769531 825.824219 C 960.769531 821.777344 964.054688 818.488281 968.125 818.488281 C 968.125 818.488281 968.148438 818.488281 968.148438 818.488281 C 972.21875 818.511719 975.484375 821.824219 975.484375 825.894531 L 974.773438 992.019531 C 974.75 996.046875 971.507812 999.3125 967.484375 999.355469 L 781.277344 1001.035156 C 781.257812 1001.035156 781.257812 1001.035156 781.234375 1001.035156 " fill-opacity="1" fill-rule="nonzero"/></g><g clip-path="url(#8d4ba66243)"><path fill="#fc6a1f" d="M 781.210938 1001.035156 C 779.785156 1001.035156 778.335938 1000.621094 777.070312 999.746094 C 676.898438 931.308594 467.351562 803.402344 465.257812 802.113281 C 463.074219 800.78125 461.742188 798.433594 461.71875 795.882812 C 461.71875 795.882812 461.371094 743.359375 461.257812 696.789062 C 461.027344 630.191406 461.601562 626.742188 461.832031 625.453125 C 462.5 621.453125 466.292969 618.714844 470.296875 619.429688 C 474.273438 620.074219 476.964844 623.820312 476.367188 627.777344 C 476.066406 630.445312 475.816406 649.921875 475.976562 696.746094 C 476.066406 735.539062 476.34375 778.472656 476.414062 791.695312 C 504.375 808.785156 692.050781 923.835938 785.371094 987.605469 C 788.730469 989.882812 789.582031 994.480469 787.304688 997.839844 C 785.878906 999.910156 783.554688 1001.035156 781.210938 1001.035156 " fill-opacity="1" fill-rule="nonzero"/></g><path fill="#fc6a1f" d="M 517.347656 265.832031 C 515.988281 271.972656 514.585938 278.296875 515.300781 284.023438 C 515.945312 289.152344 518.566406 293.453125 521.992188 294.96875 C 524.222656 295.957031 527.375 296.121094 530.429688 296.257812 L 589.140625 299.109375 C 594.203125 299.339844 598.640625 299.410156 601.46875 297.683594 C 606.480469 294.625 607.171875 285.472656 607.242188 277.859375 C 607.261719 271.742188 606.894531 265.71875 603.90625 263.234375 C 601.492188 261.1875 596.867188 261.027344 591.992188 261.074219 L 531.167969 261.394531 C 527.328125 261.417969 523.371094 261.441406 520.429688 262.707031 C 518.726562 263.417969 517.554688 265.1875 517.347656 265.832031 Z M 593.488281 313.964844 C 591.671875 313.964844 589.96875 313.875 588.429688 313.804688 L 529.71875 310.953125 C 525.742188 310.769531 520.773438 310.539062 516.011719 308.421875 C 507.847656 304.789062 501.984375 296.144531 500.695312 285.839844 C 499.664062 277.585938 501.433594 269.605469 502.972656 262.589844 C 503.984375 258.105469 508.054688 251.988281 514.65625 249.160156 C 520.335938 246.746094 526.292969 246.699219 531.097656 246.675781 L 591.925781 246.355469 C 597.765625 246.285156 606.597656 246.285156 613.378906 251.941406 C 622.074219 259.257812 621.980469 271.398438 621.957031 277.929688 C 621.914062 285.289062 621.796875 302.511719 609.125 310.238281 C 604.042969 313.34375 598.410156 313.964844 593.488281 313.964844 " fill-opacity="1" fill-rule="nonzero"/><path fill="#fc6a1f" d="M 435.523438 287.519531 C 426.738281 287.519531 419.585938 294.671875 419.585938 303.457031 C 419.585938 312.261719 426.738281 319.390625 435.523438 319.390625 C 444.332031 319.390625 451.460938 312.261719 451.460938 303.457031 C 451.460938 294.671875 444.332031 287.519531 435.523438 287.519531 Z M 435.523438 334.109375 C 418.621094 334.109375 404.871094 320.359375 404.871094 303.457031 C 404.871094 286.554688 418.621094 272.800781 435.523438 272.800781 C 452.425781 272.800781 466.179688 286.554688 466.179688 303.457031 C 466.179688 320.359375 452.425781 334.109375 435.523438 334.109375 " fill-opacity="1" fill-rule="nonzero"/><path fill="#fc6a1f" d="M 684.070312 290.648438 C 675.289062 290.648438 668.136719 297.796875 668.136719 306.605469 C 668.136719 315.390625 675.289062 322.542969 684.070312 322.542969 C 692.878906 322.542969 700.03125 315.390625 700.03125 306.605469 C 700.03125 297.796875 692.878906 290.648438 684.070312 290.648438 Z M 684.070312 337.261719 C 667.167969 337.261719 653.417969 323.507812 653.417969 306.605469 C 653.417969 289.679688 667.167969 275.929688 684.070312 275.929688 C 700.996094 275.929688 714.75 289.679688 714.75 306.605469 C 714.75 323.507812 700.996094 337.261719 684.070312 337.261719 " fill-opacity="1" fill-rule="nonzero"/></svg>