<svg xmlns="http://www.w3.org/2000/svg" xmlns:xlink="http://www.w3.org/1999/xlink" width="1500" zoomAndPan="magnify" viewBox="0 0 1125 1124.99995" height="1500" preserveAspectRatio="xMidYMid meet" version="1.0"><defs><clipPath id="a1e1b8f3f0"><path d="M 113 186.671875 L 1027 186.671875 L 1027 935 L 113 935 Z M 113 186.671875 " clip-rule="nonzero"/></clipPath><clipPath id="67a7fc4490"><path d="M 1053 146 L 1083.90625 146 L 1083.90625 999 L 1053 999 Z M 1053 146 " clip-rule="nonzero"/></clipPath><clipPath id="8bab0f17da"><path d="M 40.65625 92.375 L 40.65625 1052.0625 C 40.65625 1075.257812 59.460938 1094.0625 82.65625 1094.0625 L 1042.34375 1094.0625 C 1065.539062 1094.0625 1084.34375 1075.257812 1084.34375 1052.0625 L 1084.34375 92.375 C 1084.34375 69.179688 1065.539062 50.375 1042.34375 50.375 L 82.65625 50.375 C 59.460938 50.375 40.65625 69.179688 40.65625 92.375 Z M 40.65625 92.375 " clip-rule="nonzero"/></clipPath><clipPath id="a700237979"><path d="M 83.558594 51.277344 L 1041.441406 51.277344 C 1064.636719 51.277344 1083.441406 70.078125 1083.441406 93.277344 L 1083.441406 1051.160156 C 1083.441406 1074.355469 1064.636719 1093.160156 1041.441406 1093.160156 L 83.558594 1093.160156 C 60.363281 1093.160156 41.558594 1074.355469 41.558594 1051.160156 L 41.558594 93.277344 C 41.558594 70.078125 60.363281 51.277344 83.558594 51.277344 Z M 83.558594 51.277344 " clip-rule="nonzero"/></clipPath><clipPath id="b008086286"><path d="M 41.40625 146 L 72 146 L 72 999 L 41.40625 999 Z M 41.40625 146 " clip-rule="nonzero"/></clipPath><clipPath id="0e8079bb63"><path d="M 40.65625 92.375 L 40.65625 1052.0625 C 40.65625 1075.257812 59.460938 1094.0625 82.65625 1094.0625 L 1042.34375 1094.0625 C 1065.539062 1094.0625 1084.34375 1075.257812 1084.34375 1052.0625 L 1084.34375 92.375 C 1084.34375 69.179688 1065.539062 50.375 1042.34375 50.375 L 82.65625 50.375 C 59.460938 50.375 40.65625 69.179688 40.65625 92.375 Z M 40.65625 92.375 " clip-rule="nonzero"/></clipPath><clipPath id="5a8c63b028"><path d="M 83.558594 51.277344 L 1041.441406 51.277344 C 1064.636719 51.277344 1083.441406 70.078125 1083.441406 93.277344 L 1083.441406 1051.160156 C 1083.441406 1074.355469 1064.636719 1093.160156 1041.441406 1093.160156 L 83.558594 1093.160156 C 60.363281 1093.160156 41.558594 1074.355469 41.558594 1051.160156 L 41.558594 93.277344 C 41.558594 70.078125 60.363281 51.277344 83.558594 51.277344 Z M 83.558594 51.277344 " clip-rule="nonzero"/></clipPath><clipPath id="fe6e910a7c"><path d="M 136 51.125 L 989 51.125 L 989 82 L 136 82 Z M 136 51.125 " clip-rule="nonzero"/></clipPath><clipPath id="8412832bdc"><path d="M 40.65625 92.375 L 40.65625 1052.0625 C 40.65625 1075.257812 59.460938 1094.0625 82.65625 1094.0625 L 1042.34375 1094.0625 C 1065.539062 1094.0625 1084.34375 1075.257812 1084.34375 1052.0625 L 1084.34375 92.375 C 1084.34375 69.179688 1065.539062 50.375 1042.34375 50.375 L 82.65625 50.375 C 59.460938 50.375 40.65625 69.179688 40.65625 92.375 Z M 40.65625 92.375 " clip-rule="nonzero"/></clipPath><clipPath id="15aa14ccbe"><path d="M 83.558594 51.277344 L 1041.441406 51.277344 C 1064.636719 51.277344 1083.441406 70.078125 1083.441406 93.277344 L 1083.441406 1051.160156 C 1083.441406 1074.355469 1064.636719 1093.160156 1041.441406 1093.160156 L 83.558594 1093.160156 C 60.363281 1093.160156 41.558594 1074.355469 41.558594 1051.160156 L 41.558594 93.277344 C 41.558594 70.078125 60.363281 51.277344 83.558594 51.277344 Z M 83.558594 51.277344 " clip-rule="nonzero"/></clipPath><clipPath id="8486588201"><path d="M 136 1062 L 989 1062 L 989 1093.625 L 136 1093.625 Z M 136 1062 " clip-rule="nonzero"/></clipPath><clipPath id="7d521c05ca"><path d="M 40.65625 92.375 L 40.65625 1052.0625 C 40.65625 1075.257812 59.460938 1094.0625 82.65625 1094.0625 L 1042.34375 1094.0625 C 1065.539062 1094.0625 1084.34375 1075.257812 1084.34375 1052.0625 L 1084.34375 92.375 C 1084.34375 69.179688 1065.539062 50.375 1042.34375 50.375 L 82.65625 50.375 C 59.460938 50.375 40.65625 69.179688 40.65625 92.375 Z M 40.65625 92.375 " clip-rule="nonzero"/></clipPath><clipPath id="130d176f0c"><path d="M 83.558594 51.277344 L 1041.441406 51.277344 C 1064.636719 51.277344 1083.441406 70.078125 1083.441406 93.277344 L 1083.441406 1051.160156 C 1083.441406 1074.355469 1064.636719 1093.160156 1041.441406 1093.160156 L 83.558594 1093.160156 C 60.363281 1093.160156 41.558594 1074.355469 41.558594 1051.160156 L 41.558594 93.277344 C 41.558594 70.078125 60.363281 51.277344 83.558594 51.277344 Z M 83.558594 51.277344 " clip-rule="nonzero"/></clipPath><clipPath id="d23cdc09ef"><path d="M 988 51.125 L 1083.90625 51.125 L 1083.90625 147 L 988 147 Z M 988 51.125 " clip-rule="nonzero"/></clipPath><clipPath id="3693f617da"><path d="M 40.65625 92.375 L 40.65625 1052.0625 C 40.65625 1075.257812 59.460938 1094.0625 82.65625 1094.0625 L 1042.34375 1094.0625 C 1065.539062 1094.0625 1084.34375 1075.257812 1084.34375 1052.0625 L 1084.34375 92.375 C 1084.34375 69.179688 1065.539062 50.375 1042.34375 50.375 L 82.65625 50.375 C 59.460938 50.375 40.65625 69.179688 40.65625 92.375 Z M 40.65625 92.375 " clip-rule="nonzero"/></clipPath><clipPath id="6928f89d06"><path d="M 83.558594 51.277344 L 1041.441406 51.277344 C 1064.636719 51.277344 1083.441406 70.078125 1083.441406 93.277344 L 1083.441406 1051.160156 C 1083.441406 1074.355469 1064.636719 1093.160156 1041.441406 1093.160156 L 83.558594 1093.160156 C 60.363281 1093.160156 41.558594 1074.355469 41.558594 1051.160156 L 41.558594 93.277344 C 41.558594 70.078125 60.363281 51.277344 83.558594 51.277344 Z M 83.558594 51.277344 " clip-rule="nonzero"/></clipPath><clipPath id="a4f4f5482f"><path d="M 41.40625 51.125 L 137 51.125 L 137 147 L 41.40625 147 Z M 41.40625 51.125 " clip-rule="nonzero"/></clipPath><clipPath id="8da29bdb38"><path d="M 40.65625 92.375 L 40.65625 1052.0625 C 40.65625 1075.257812 59.460938 1094.0625 82.65625 1094.0625 L 1042.34375 1094.0625 C 1065.539062 1094.0625 1084.34375 1075.257812 1084.34375 1052.0625 L 1084.34375 92.375 C 1084.34375 69.179688 1065.539062 50.375 1042.34375 50.375 L 82.65625 50.375 C 59.460938 50.375 40.65625 69.179688 40.65625 92.375 Z M 40.65625 92.375 " clip-rule="nonzero"/></clipPath><clipPath id="476cd8864a"><path d="M 83.558594 51.277344 L 1041.441406 51.277344 C 1064.636719 51.277344 1083.441406 70.078125 1083.441406 93.277344 L 1083.441406 1051.160156 C 1083.441406 1074.355469 1064.636719 1093.160156 1041.441406 1093.160156 L 83.558594 1093.160156 C 60.363281 1093.160156 41.558594 1074.355469 41.558594 1051.160156 L 41.558594 93.277344 C 41.558594 70.078125 60.363281 51.277344 83.558594 51.277344 Z M 83.558594 51.277344 " clip-rule="nonzero"/></clipPath><clipPath id="5e3ff87991"><path d="M 988 998 L 1083.90625 998 L 1083.90625 1093.625 L 988 1093.625 Z M 988 998 " clip-rule="nonzero"/></clipPath><clipPath id="739e629903"><path d="M 40.65625 92.375 L 40.65625 1052.0625 C 40.65625 1075.257812 59.460938 1094.0625 82.65625 1094.0625 L 1042.34375 1094.0625 C 1065.539062 1094.0625 1084.34375 1075.257812 1084.34375 1052.0625 L 1084.34375 92.375 C 1084.34375 69.179688 1065.539062 50.375 1042.34375 50.375 L 82.65625 50.375 C 59.460938 50.375 40.65625 69.179688 40.65625 92.375 Z M 40.65625 92.375 " clip-rule="nonzero"/></clipPath><clipPath id="54919b3e97"><path d="M 83.558594 51.277344 L 1041.441406 51.277344 C 1064.636719 51.277344 1083.441406 70.078125 1083.441406 93.277344 L 1083.441406 1051.160156 C 1083.441406 1074.355469 1064.636719 1093.160156 1041.441406 1093.160156 L 83.558594 1093.160156 C 60.363281 1093.160156 41.558594 1074.355469 41.558594 1051.160156 L 41.558594 93.277344 C 41.558594 70.078125 60.363281 51.277344 83.558594 51.277344 Z M 83.558594 51.277344 " clip-rule="nonzero"/></clipPath><clipPath id="0d252b5cb8"><path d="M 41.40625 998 L 137 998 L 137 1093.625 L 41.40625 1093.625 Z M 41.40625 998 " clip-rule="nonzero"/></clipPath><clipPath id="d6f6d7a7cd"><path d="M 40.65625 92.375 L 40.65625 1052.0625 C 40.65625 1075.257812 59.460938 1094.0625 82.65625 1094.0625 L 1042.34375 1094.0625 C 1065.539062 1094.0625 1084.34375 1075.257812 1084.34375 1052.0625 L 1084.34375 92.375 C 1084.34375 69.179688 1065.539062 50.375 1042.34375 50.375 L 82.65625 50.375 C 59.460938 50.375 40.65625 69.179688 40.65625 92.375 Z M 40.65625 92.375 " clip-rule="nonzero"/></clipPath><clipPath id="3e8c84a360"><path d="M 83.558594 51.277344 L 1041.441406 51.277344 C 1064.636719 51.277344 1083.441406 70.078125 1083.441406 93.277344 L 1083.441406 1051.160156 C 1083.441406 1074.355469 1064.636719 1093.160156 1041.441406 1093.160156 L 83.558594 1093.160156 C 60.363281 1093.160156 41.558594 1074.355469 41.558594 1051.160156 L 41.558594 93.277344 C 41.558594 70.078125 60.363281 51.277344 83.558594 51.277344 Z M 83.558594 51.277344 " clip-rule="nonzero"/></clipPath><clipPath id="94bf624e3a"><path d="M 40.65625 50.375 L 1084.65625 50.375 L 1084.65625 1094.375 L 40.65625 1094.375 Z M 40.65625 50.375 " clip-rule="nonzero"/></clipPath><clipPath id="81595ab801"><path d="M 40.65625 92.375 L 40.65625 1052.0625 C 40.65625 1075.257812 59.460938 1094.0625 82.65625 1094.0625 L 1042.34375 1094.0625 C 1065.539062 1094.0625 1084.34375 1075.257812 1084.34375 1052.0625 L 1084.34375 92.375 C 1084.34375 69.179688 1065.539062 50.375 1042.34375 50.375 L 82.65625 50.375 C 59.460938 50.375 40.65625 69.179688 40.65625 92.375 Z M 40.65625 92.375 " clip-rule="nonzero"/></clipPath><clipPath id="3b5947bcd8"><path d="M 40.65625 92.375 L 40.65625 1052.058594 C 40.65625 1075.253906 59.460938 1094.058594 82.65625 1094.058594 L 1042.339844 1094.058594 C 1065.535156 1094.058594 1084.339844 1075.253906 1084.339844 1052.058594 L 1084.339844 92.375 C 1084.339844 69.179688 1065.535156 50.375 1042.339844 50.375 L 82.65625 50.375 C 59.460938 50.375 40.65625 69.179688 40.65625 92.375 Z M 40.65625 92.375 " clip-rule="nonzero"/></clipPath></defs><g clip-path="url(#a1e1b8f3f0)"><path fill="#fc6a1f" d="M 649.085938 667.171875 C 605.609375 710.636719 534.855469 710.636719 491.367188 667.171875 C 447.886719 623.683594 447.886719 552.929688 491.367188 509.453125 C 534.863281 465.957031 605.59375 465.957031 649.085938 509.453125 C 692.566406 552.929688 692.566406 623.683594 649.085938 667.171875 Z M 668.660156 489.882812 C 614.386719 435.605469 526.070312 435.605469 471.796875 489.882812 C 417.519531 544.144531 417.519531 632.46875 471.796875 686.746094 C 526.066406 741.003906 614.390625 741.003906 668.660156 686.746094 C 722.9375 632.46875 722.9375 544.144531 668.660156 489.882812 Z M 825.261719 754.617188 C 891.382812 713.746094 950.265625 656.550781 996.496094 588.3125 C 964.433594 540.917969 926.882812 499.414062 884.574219 464.542969 C 881.324219 477.140625 869.90625 486.496094 856.285156 486.496094 L 794.664062 486.496094 C 778.53125 486.496094 765.414062 473.378906 765.414062 457.246094 L 765.414062 396.601562 L 704.78125 396.601562 C 688.648438 396.601562 675.527344 383.480469 675.527344 367.359375 L 675.527344 360.265625 C 641.039062 352.433594 605.65625 348.453125 570.226562 348.453125 C 401.980469 348.453125 247.09375 435.730469 143.960938 588.308594 C 247.09375 740.867188 401.980469 828.15625 570.226562 828.15625 C 617.132812 828.15625 663.550781 821.238281 708.445312 807.609375 C 706.628906 799.6875 707.398438 791.863281 710.769531 784.5 L 685.734375 759.4375 C 604.457031 814.496094 494.578125 804.546875 424.269531 734.257812 C 343.601562 653.617188 343.636719 522.984375 424.269531 442.351562 C 504.945312 361.675781 635.507812 361.703125 716.183594 442.351562 C 786.457031 512.605469 796.417969 622.609375 741.351562 703.792969 L 766.414062 728.855469 C 779.628906 722.78125 795.796875 725.152344 806.664062 736.019531 Z M 886.726562 866.65625 L 848.570312 904.800781 C 845.464844 907.898438 840.226562 907.898438 837.140625 904.800781 L 737.507812 805.191406 C 734.378906 802.054688 734.375 796.882812 737.507812 793.75 L 775.664062 755.59375 C 778.761719 752.492188 784.015625 752.503906 787.101562 755.59375 L 886.726562 855.214844 C 889.835938 858.3125 889.835938 863.550781 886.726562 866.65625 Z M 716.1875 734.257812 C 718.949219 731.496094 721.601562 728.675781 724.1875 725.78125 L 745.246094 746.855469 L 728.769531 763.332031 L 707.710938 742.269531 C 710.589844 739.6875 713.410156 737.011719 716.1875 734.257812 Z M 696.601562 714.6875 C 766.46875 644.867188 766.4375 531.753906 696.601562 461.914062 C 626.777344 392.09375 513.671875 392.09375 443.851562 461.914062 C 374.003906 531.761719 373.992188 644.851562 443.851562 714.6875 C 513.726562 784.539062 626.730469 784.554688 696.601562 714.6875 Z M 703.207031 305.71875 C 703.207031 304.898438 703.945312 304.160156 704.78125 304.160156 L 779.257812 304.160156 C 786.890625 304.160156 793.09375 297.96875 793.09375 290.3125 L 793.09375 215.859375 C 793.09375 215 793.820312 214.289062 794.664062 214.289062 L 856.285156 214.289062 C 857.132812 214.289062 857.855469 215.003906 857.855469 215.859375 L 857.855469 290.3125 C 857.855469 297.96875 864.058594 304.160156 871.691406 304.160156 L 946.171875 304.160156 C 947.003906 304.160156 947.742188 304.894531 947.742188 305.71875 L 947.742188 367.363281 C 947.742188 368.1875 947.003906 368.925781 946.171875 368.925781 L 871.691406 368.925781 C 864.058594 368.925781 857.855469 375.128906 857.855469 382.769531 L 857.855469 457.25 C 857.855469 458.085938 857.128906 458.820312 856.285156 458.820312 L 794.664062 458.820312 C 793.820312 458.820312 793.09375 458.085938 793.09375 457.25 L 793.09375 382.769531 C 793.09375 375.128906 786.890625 368.925781 779.257812 368.925781 L 704.78125 368.925781 C 703.949219 368.925781 703.207031 368.1875 703.207031 367.363281 Z M 1024.699219 580.730469 C 985.957031 521.632812 939.148438 470.960938 885.539062 429.972656 L 885.539062 396.601562 L 946.171875 396.601562 C 962.300781 396.601562 975.421875 383.484375 975.421875 367.363281 L 975.421875 305.714844 C 975.421875 289.597656 962.304688 276.476562 946.171875 276.476562 L 885.539062 276.476562 L 885.539062 215.859375 C 885.539062 199.726562 872.417969 186.605469 856.285156 186.605469 L 794.664062 186.605469 C 778.53125 186.605469 765.414062 199.726562 765.414062 215.859375 L 765.414062 276.480469 L 704.78125 276.480469 C 688.648438 276.480469 675.527344 289.597656 675.527344 305.71875 L 675.527344 331.933594 C 550.828125 305.21875 423.230469 326.5 311.742188 391.757812 C 235.214844 436.542969 167.425781 501.894531 115.757812 580.730469 C 112.734375 585.328125 112.734375 591.28125 115.757812 595.898438 C 218.574219 752.875 383.390625 855.847656 570.226562 855.847656 C 622.726562 855.847656 674.660156 847.644531 724.707031 831.511719 L 817.570312 924.386719 C 831.527344 938.34375 854.195312 938.332031 868.144531 924.386719 L 906.300781 886.230469 C 920.253906 872.277344 920.253906 849.585938 906.300781 835.644531 L 845.359375 774.703125 C 915.0625 730.453125 976.804688 668.9375 1024.699219 595.898438 C 1027.722656 591.277344 1027.722656 585.324219 1024.699219 580.730469 Z M 1024.699219 580.730469 " fill-opacity="1" fill-rule="evenodd"/></g><g clip-path="url(#67a7fc4490)"><g clip-path="url(#8bab0f17da)"><g clip-path="url(#a700237979)"><path fill="#fc6a1f" d="M 1053.15625 146.011719 L 1084.339844 146.011719 L 1084.339844 998.421875 L 1053.15625 998.421875 Z M 1053.15625 146.011719 " fill-opacity="1" fill-rule="nonzero"/></g></g></g><g clip-path="url(#b008086286)"><g clip-path="url(#0e8079bb63)"><g clip-path="url(#5a8c63b028)"><path fill="#fc6a1f" d="M 40.65625 146.011719 L 71.84375 146.011719 L 71.84375 998.421875 L 40.65625 998.421875 Z M 40.65625 146.011719 " fill-opacity="1" fill-rule="nonzero"/></g></g></g><g clip-path="url(#fe6e910a7c)"><g clip-path="url(#8412832bdc)"><g clip-path="url(#15aa14ccbe)"><path fill="#fc6a1f" d="M 136.292969 50.375 L 988.703125 50.375 L 988.703125 81.5625 L 136.292969 81.5625 Z M 136.292969 50.375 " fill-opacity="1" fill-rule="nonzero"/></g></g></g><g clip-path="url(#8486588201)"><g clip-path="url(#7d521c05ca)"><g clip-path="url(#130d176f0c)"><path fill="#fc6a1f" d="M 136.292969 1062.875 L 988.703125 1062.875 L 988.703125 1094.058594 L 136.292969 1094.058594 Z M 136.292969 1062.875 " fill-opacity="1" fill-rule="nonzero"/></g></g></g><g clip-path="url(#d23cdc09ef)"><g clip-path="url(#3693f617da)"><g clip-path="url(#6928f89d06)"><path fill="#fc6a1f" d="M 1053.15625 81.5625 L 1053.15625 146.011719 L 1084.339844 146.011719 L 1084.339844 50.375 L 988.703125 50.375 L 988.703125 81.5625 Z M 1053.15625 81.5625 " fill-opacity="1" fill-rule="nonzero"/></g></g></g><g clip-path="url(#a4f4f5482f)"><g clip-path="url(#8da29bdb38)"><g clip-path="url(#476cd8864a)"><path fill="#fc6a1f" d="M 71.84375 81.5625 L 136.292969 81.5625 L 136.292969 50.375 L 40.65625 50.375 L 40.65625 146.011719 L 71.84375 146.011719 Z M 71.84375 81.5625 " fill-opacity="1" fill-rule="nonzero"/></g></g></g><g clip-path="url(#5e3ff87991)"><g clip-path="url(#739e629903)"><g clip-path="url(#54919b3e97)"><path fill="#fc6a1f" d="M 1053.15625 1062.875 L 988.703125 1062.875 L 988.703125 1094.058594 L 1084.339844 1094.058594 L 1084.339844 998.421875 L 1053.15625 998.421875 Z M 1053.15625 1062.875 " fill-opacity="1" fill-rule="nonzero"/></g></g></g><g clip-path="url(#0d252b5cb8)"><g clip-path="url(#d6f6d7a7cd)"><g clip-path="url(#3e8c84a360)"><path fill="#fc6a1f" d="M 71.84375 1062.875 L 71.84375 998.421875 L 40.65625 998.421875 L 40.65625 1094.058594 L 136.292969 1094.058594 L 136.292969 1062.875 Z M 71.84375 1062.875 " fill-opacity="1" fill-rule="nonzero"/></g></g></g><g clip-path="url(#94bf624e3a)"><g clip-path="url(#81595ab801)"><g clip-path="url(#3b5947bcd8)"><path stroke-linecap="butt" transform="matrix(0.75, 0, 0, 0.75, 40.657485, 50.375834)" fill="none" stroke-linejoin="miter" d="M -0.00164733 55.998893 L -0.00164733 1335.577128 C -0.00164733 1366.504214 25.071271 1391.577133 55.998357 1391.577133 L 1335.576593 1391.577133 C 1366.503679 1391.577133 1391.576597 1366.504214 1391.576597 1335.577128 L 1391.576597 55.998893 C 1391.576597 25.071807 1366.503679 -0.00111208 1335.576593 -0.00111208 L 55.998357 -0.00111208 C 25.071271 -0.00111208 -0.00164733 25.071807 -0.00164733 55.998893 Z M -0.00164733 55.998893 " stroke="#fc6a1f" stroke-width="66" stroke-opacity="1" stroke-miterlimit="4"/></g></g></g></svg>