<svg xmlns="http://www.w3.org/2000/svg" xmlns:xlink="http://www.w3.org/1999/xlink" width="1500" zoomAndPan="magnify" viewBox="0 0 1125 1124.99995" height="1500" preserveAspectRatio="xMidYMid meet" version="1.0"><defs><clipPath id="023e5966ab"><path d="M 124.113281 124.113281 L 1000.863281 124.113281 L 1000.863281 1000.863281 L 124.113281 1000.863281 Z M 124.113281 124.113281 " clip-rule="nonzero"/></clipPath><clipPath id="b8c4f056a2"><path d="M 1053 146 L 1083.90625 146 L 1083.90625 999 L 1053 999 Z M 1053 146 " clip-rule="nonzero"/></clipPath><clipPath id="902ded718f"><path d="M 40.65625 92.375 L 40.65625 1052.0625 C 40.65625 1075.257812 59.460938 1094.0625 82.65625 1094.0625 L 1042.34375 1094.0625 C 1065.539062 1094.0625 1084.34375 1075.257812 1084.34375 1052.0625 L 1084.34375 92.375 C 1084.34375 69.179688 1065.539062 50.375 1042.34375 50.375 L 82.65625 50.375 C 59.460938 50.375 40.65625 69.179688 40.65625 92.375 Z M 40.65625 92.375 " clip-rule="nonzero"/></clipPath><clipPath id="fd31772301"><path d="M 83.558594 51.277344 L 1041.441406 51.277344 C 1064.636719 51.277344 1083.441406 70.078125 1083.441406 93.277344 L 1083.441406 1051.160156 C 1083.441406 1074.355469 1064.636719 1093.160156 1041.441406 1093.160156 L 83.558594 1093.160156 C 60.363281 1093.160156 41.558594 1074.355469 41.558594 1051.160156 L 41.558594 93.277344 C 41.558594 70.078125 60.363281 51.277344 83.558594 51.277344 Z M 83.558594 51.277344 " clip-rule="nonzero"/></clipPath><clipPath id="aaa4c63a3c"><path d="M 41.40625 146 L 72 146 L 72 999 L 41.40625 999 Z M 41.40625 146 " clip-rule="nonzero"/></clipPath><clipPath id="26f96ab013"><path d="M 40.65625 92.375 L 40.65625 1052.0625 C 40.65625 1075.257812 59.460938 1094.0625 82.65625 1094.0625 L 1042.34375 1094.0625 C 1065.539062 1094.0625 1084.34375 1075.257812 1084.34375 1052.0625 L 1084.34375 92.375 C 1084.34375 69.179688 1065.539062 50.375 1042.34375 50.375 L 82.65625 50.375 C 59.460938 50.375 40.65625 69.179688 40.65625 92.375 Z M 40.65625 92.375 " clip-rule="nonzero"/></clipPath><clipPath id="fb64380e63"><path d="M 83.558594 51.277344 L 1041.441406 51.277344 C 1064.636719 51.277344 1083.441406 70.078125 1083.441406 93.277344 L 1083.441406 1051.160156 C 1083.441406 1074.355469 1064.636719 1093.160156 1041.441406 1093.160156 L 83.558594 1093.160156 C 60.363281 1093.160156 41.558594 1074.355469 41.558594 1051.160156 L 41.558594 93.277344 C 41.558594 70.078125 60.363281 51.277344 83.558594 51.277344 Z M 83.558594 51.277344 " clip-rule="nonzero"/></clipPath><clipPath id="00b8ab6d97"><path d="M 136 51.125 L 989 51.125 L 989 82 L 136 82 Z M 136 51.125 " clip-rule="nonzero"/></clipPath><clipPath id="073dcd4a13"><path d="M 40.65625 92.375 L 40.65625 1052.0625 C 40.65625 1075.257812 59.460938 1094.0625 82.65625 1094.0625 L 1042.34375 1094.0625 C 1065.539062 1094.0625 1084.34375 1075.257812 1084.34375 1052.0625 L 1084.34375 92.375 C 1084.34375 69.179688 1065.539062 50.375 1042.34375 50.375 L 82.65625 50.375 C 59.460938 50.375 40.65625 69.179688 40.65625 92.375 Z M 40.65625 92.375 " clip-rule="nonzero"/></clipPath><clipPath id="5069c94f3d"><path d="M 83.558594 51.277344 L 1041.441406 51.277344 C 1064.636719 51.277344 1083.441406 70.078125 1083.441406 93.277344 L 1083.441406 1051.160156 C 1083.441406 1074.355469 1064.636719 1093.160156 1041.441406 1093.160156 L 83.558594 1093.160156 C 60.363281 1093.160156 41.558594 1074.355469 41.558594 1051.160156 L 41.558594 93.277344 C 41.558594 70.078125 60.363281 51.277344 83.558594 51.277344 Z M 83.558594 51.277344 " clip-rule="nonzero"/></clipPath><clipPath id="75d76a48ef"><path d="M 136 1062 L 989 1062 L 989 1093.625 L 136 1093.625 Z M 136 1062 " clip-rule="nonzero"/></clipPath><clipPath id="cf262bb032"><path d="M 40.65625 92.375 L 40.65625 1052.0625 C 40.65625 1075.257812 59.460938 1094.0625 82.65625 1094.0625 L 1042.34375 1094.0625 C 1065.539062 1094.0625 1084.34375 1075.257812 1084.34375 1052.0625 L 1084.34375 92.375 C 1084.34375 69.179688 1065.539062 50.375 1042.34375 50.375 L 82.65625 50.375 C 59.460938 50.375 40.65625 69.179688 40.65625 92.375 Z M 40.65625 92.375 " clip-rule="nonzero"/></clipPath><clipPath id="0de7d63ef1"><path d="M 83.558594 51.277344 L 1041.441406 51.277344 C 1064.636719 51.277344 1083.441406 70.078125 1083.441406 93.277344 L 1083.441406 1051.160156 C 1083.441406 1074.355469 1064.636719 1093.160156 1041.441406 1093.160156 L 83.558594 1093.160156 C 60.363281 1093.160156 41.558594 1074.355469 41.558594 1051.160156 L 41.558594 93.277344 C 41.558594 70.078125 60.363281 51.277344 83.558594 51.277344 Z M 83.558594 51.277344 " clip-rule="nonzero"/></clipPath><clipPath id="0f38cc320a"><path d="M 988 51.125 L 1083.90625 51.125 L 1083.90625 147 L 988 147 Z M 988 51.125 " clip-rule="nonzero"/></clipPath><clipPath id="9767596717"><path d="M 40.65625 92.375 L 40.65625 1052.0625 C 40.65625 1075.257812 59.460938 1094.0625 82.65625 1094.0625 L 1042.34375 1094.0625 C 1065.539062 1094.0625 1084.34375 1075.257812 1084.34375 1052.0625 L 1084.34375 92.375 C 1084.34375 69.179688 1065.539062 50.375 1042.34375 50.375 L 82.65625 50.375 C 59.460938 50.375 40.65625 69.179688 40.65625 92.375 Z M 40.65625 92.375 " clip-rule="nonzero"/></clipPath><clipPath id="b5beb380de"><path d="M 83.558594 51.277344 L 1041.441406 51.277344 C 1064.636719 51.277344 1083.441406 70.078125 1083.441406 93.277344 L 1083.441406 1051.160156 C 1083.441406 1074.355469 1064.636719 1093.160156 1041.441406 1093.160156 L 83.558594 1093.160156 C 60.363281 1093.160156 41.558594 1074.355469 41.558594 1051.160156 L 41.558594 93.277344 C 41.558594 70.078125 60.363281 51.277344 83.558594 51.277344 Z M 83.558594 51.277344 " clip-rule="nonzero"/></clipPath><clipPath id="2e7e0a362d"><path d="M 41.40625 51.125 L 137 51.125 L 137 147 L 41.40625 147 Z M 41.40625 51.125 " clip-rule="nonzero"/></clipPath><clipPath id="6d1da897bc"><path d="M 40.65625 92.375 L 40.65625 1052.0625 C 40.65625 1075.257812 59.460938 1094.0625 82.65625 1094.0625 L 1042.34375 1094.0625 C 1065.539062 1094.0625 1084.34375 1075.257812 1084.34375 1052.0625 L 1084.34375 92.375 C 1084.34375 69.179688 1065.539062 50.375 1042.34375 50.375 L 82.65625 50.375 C 59.460938 50.375 40.65625 69.179688 40.65625 92.375 Z M 40.65625 92.375 " clip-rule="nonzero"/></clipPath><clipPath id="ef5a1c3a9f"><path d="M 83.558594 51.277344 L 1041.441406 51.277344 C 1064.636719 51.277344 1083.441406 70.078125 1083.441406 93.277344 L 1083.441406 1051.160156 C 1083.441406 1074.355469 1064.636719 1093.160156 1041.441406 1093.160156 L 83.558594 1093.160156 C 60.363281 1093.160156 41.558594 1074.355469 41.558594 1051.160156 L 41.558594 93.277344 C 41.558594 70.078125 60.363281 51.277344 83.558594 51.277344 Z M 83.558594 51.277344 " clip-rule="nonzero"/></clipPath><clipPath id="25c803160d"><path d="M 988 998 L 1083.90625 998 L 1083.90625 1093.625 L 988 1093.625 Z M 988 998 " clip-rule="nonzero"/></clipPath><clipPath id="21644828db"><path d="M 40.65625 92.375 L 40.65625 1052.0625 C 40.65625 1075.257812 59.460938 1094.0625 82.65625 1094.0625 L 1042.34375 1094.0625 C 1065.539062 1094.0625 1084.34375 1075.257812 1084.34375 1052.0625 L 1084.34375 92.375 C 1084.34375 69.179688 1065.539062 50.375 1042.34375 50.375 L 82.65625 50.375 C 59.460938 50.375 40.65625 69.179688 40.65625 92.375 Z M 40.65625 92.375 " clip-rule="nonzero"/></clipPath><clipPath id="cb87b633cb"><path d="M 83.558594 51.277344 L 1041.441406 51.277344 C 1064.636719 51.277344 1083.441406 70.078125 1083.441406 93.277344 L 1083.441406 1051.160156 C 1083.441406 1074.355469 1064.636719 1093.160156 1041.441406 1093.160156 L 83.558594 1093.160156 C 60.363281 1093.160156 41.558594 1074.355469 41.558594 1051.160156 L 41.558594 93.277344 C 41.558594 70.078125 60.363281 51.277344 83.558594 51.277344 Z M 83.558594 51.277344 " clip-rule="nonzero"/></clipPath><clipPath id="986181dfbd"><path d="M 41.40625 998 L 137 998 L 137 1093.625 L 41.40625 1093.625 Z M 41.40625 998 " clip-rule="nonzero"/></clipPath><clipPath id="7d5b4b08ef"><path d="M 40.65625 92.375 L 40.65625 1052.0625 C 40.65625 1075.257812 59.460938 1094.0625 82.65625 1094.0625 L 1042.34375 1094.0625 C 1065.539062 1094.0625 1084.34375 1075.257812 1084.34375 1052.0625 L 1084.34375 92.375 C 1084.34375 69.179688 1065.539062 50.375 1042.34375 50.375 L 82.65625 50.375 C 59.460938 50.375 40.65625 69.179688 40.65625 92.375 Z M 40.65625 92.375 " clip-rule="nonzero"/></clipPath><clipPath id="b1b6c2e806"><path d="M 83.558594 51.277344 L 1041.441406 51.277344 C 1064.636719 51.277344 1083.441406 70.078125 1083.441406 93.277344 L 1083.441406 1051.160156 C 1083.441406 1074.355469 1064.636719 1093.160156 1041.441406 1093.160156 L 83.558594 1093.160156 C 60.363281 1093.160156 41.558594 1074.355469 41.558594 1051.160156 L 41.558594 93.277344 C 41.558594 70.078125 60.363281 51.277344 83.558594 51.277344 Z M 83.558594 51.277344 " clip-rule="nonzero"/></clipPath><clipPath id="7bebe80bdc"><path d="M 40.65625 50.375 L 1084.65625 50.375 L 1084.65625 1094.375 L 40.65625 1094.375 Z M 40.65625 50.375 " clip-rule="nonzero"/></clipPath><clipPath id="0b434b9c38"><path d="M 40.65625 92.375 L 40.65625 1052.0625 C 40.65625 1075.257812 59.460938 1094.0625 82.65625 1094.0625 L 1042.34375 1094.0625 C 1065.539062 1094.0625 1084.34375 1075.257812 1084.34375 1052.0625 L 1084.34375 92.375 C 1084.34375 69.179688 1065.539062 50.375 1042.34375 50.375 L 82.65625 50.375 C 59.460938 50.375 40.65625 69.179688 40.65625 92.375 Z M 40.65625 92.375 " clip-rule="nonzero"/></clipPath><clipPath id="ba39ed77c0"><path d="M 40.65625 92.375 L 40.65625 1052.058594 C 40.65625 1075.253906 59.460938 1094.058594 82.65625 1094.058594 L 1042.339844 1094.058594 C 1065.535156 1094.058594 1084.339844 1075.253906 1084.339844 1052.058594 L 1084.339844 92.375 C 1084.339844 69.179688 1065.535156 50.375 1042.339844 50.375 L 82.65625 50.375 C 59.460938 50.375 40.65625 69.179688 40.65625 92.375 Z M 40.65625 92.375 " clip-rule="nonzero"/></clipPath></defs><g clip-path="url(#023e5966ab)"><path fill="#fc6a1f" d="M 974.308594 658.738281 C 974.308594 677.957031 958.6875 693.578125 939.46875 693.578125 L 706.867188 693.578125 C 699.527344 693.578125 693.589844 699.53125 693.589844 706.867188 L 693.589844 939.480469 C 693.589844 956.78125 680.894531 971.1875 664.335938 973.863281 L 664.335938 716.269531 C 705.128906 671.101562 728.566406 640.660156 734.015625 625.761719 C 739.890625 609.753906 740.667969 574.636719 728.621094 553.828125 C 721.136719 540.90625 711.027344 536.699219 703.839844 535.445312 C 673.375 530.132812 661.367188 551.613281 653.414062 565.816406 C 647.871094 575.726562 644.078125 581.882812 638.191406 583.871094 C 629.941406 586.671875 627.816406 584.589844 620.730469 577.746094 C 615.578125 572.742188 609.167969 566.546875 599.417969 564.03125 C 583.855469 560.042969 563.445312 566.445312 552.957031 578.613281 C 546.386719 586.234375 544.675781 595.011719 543.304688 602.039062 C 541.417969 611.71875 540.847656 614.621094 532.46875 617.042969 C 526.503906 618.78125 519.878906 615.890625 509.675781 610.929688 C 495.046875 603.8125 472.902344 593.058594 450.917969 614.8125 C 441.535156 624.113281 438.953125 637.039062 443.671875 651.207031 C 454.765625 684.527344 504.53125 721.265625 528.265625 724.542969 C 535.28125 725.515625 542.226562 726.203125 548.890625 726.601562 C 554.023438 726.898438 558.066406 731.183594 558.066406 736.335938 L 558.066406 974.320312 L 466.242188 974.320312 C 447.023438 974.320312 431.402344 958.675781 431.402344 939.480469 L 431.402344 706.867188 C 431.402344 699.527344 425.449219 693.574219 418.125 693.574219 L 185.523438 693.574219 C 166.359375 693.574219 150.679688 677.90625 150.679688 658.734375 L 150.679688 466.242188 C 150.679688 447.035156 166.300781 431.402344 185.523438 431.402344 L 418.125 431.402344 C 425.449219 431.402344 431.402344 425.46875 431.402344 418.113281 L 431.402344 325.234375 L 472.960938 458.585938 C 475.667969 467.269531 473.703125 475.679688 467.417969 482.25 C 466.171875 483.542969 464.917969 484.820312 463.660156 486.113281 C 450.394531 499.664062 432.238281 518.222656 443.289062 549.863281 C 453.753906 579.832031 486.664062 595.695312 516.613281 585.226562 C 540.585938 576.851562 546.984375 561.003906 551.636719 549.417969 C 555.484375 539.886719 557.167969 536.46875 564.191406 534.128906 C 582.855469 527.929688 604.980469 554.359375 633.679688 544.332031 C 663.5625 533.890625 679.472656 500.878906 669.03125 471.007812 C 656.691406 435.652344 632.25 434.714844 616.09375 434.074219 C 605.671875 433.664062 597.285156 427.242188 594.175781 417.277344 L 511.101562 150.679688 L 658.738281 150.679688 C 677.957031 150.679688 693.589844 166.3125 693.589844 185.511719 L 693.589844 418.113281 C 693.589844 425.4375 699.519531 431.402344 706.867188 431.402344 L 939.46875 431.402344 C 958.6875 431.402344 974.308594 447.035156 974.308594 466.242188 Z M 939.46875 404.835938 L 720.15625 404.835938 L 720.15625 185.511719 C 720.15625 151.667969 692.605469 124.105469 658.734375 124.105469 L 493.058594 124.105469 C 484.117188 124.105469 477.703125 132.785156 480.375 141.359375 L 568.820312 425.199219 C 575.261719 445.871094 593.398438 459.773438 615.050781 460.632812 C 630.042969 461.214844 637.574219 461.488281 643.949219 479.773438 C 649.566406 495.859375 641.007812 513.625 624.914062 519.253906 C 609.449219 524.660156 585.988281 498.921875 555.816406 508.925781 C 536.753906 515.253906 531.097656 529.265625 526.996094 539.480469 C 523.042969 549.285156 520.4375 555.738281 507.867188 560.152344 C 491.734375 565.785156 474.023438 557.226562 468.367188 541.113281 C 462.984375 525.667969 468.847656 518.796875 482.640625 504.695312 C 483.976562 503.335938 485.300781 501.988281 486.617188 500.605469 C 499.492188 487.144531 503.859375 468.5 498.316406 450.695312 L 430.796875 233.992188 C 426.320312 219.582031 404.835938 222.863281 404.835938 237.949219 L 404.835938 404.835938 L 185.523438 404.835938 C 151.652344 404.835938 124.113281 432.382812 124.113281 466.242188 L 124.113281 658.734375 C 124.113281 692.5625 151.628906 720.144531 185.523438 720.144531 L 404.835938 720.144531 L 404.835938 939.480469 C 404.835938 973.324219 432.371094 1000.886719 466.242188 1000.886719 L 571.34375 1000.886719 C 578.679688 1000.886719 584.632812 994.933594 584.632812 987.597656 L 584.632812 736.335938 C 584.632812 717.113281 569.609375 701.199219 550.445312 700.078125 C 544.480469 699.726562 538.242188 699.105469 531.902344 698.238281 C 517.984375 696.308594 476.664062 666.164062 468.882812 642.820312 C 466.78125 636.511719 468.628906 634.683594 469.625 633.691406 C 477.382812 626.023438 482.242188 627.144531 498.054688 634.820312 C 509.460938 640.375 523.675781 647.277344 539.878906 642.566406 C 573.011719 632.945312 566.523438 603.597656 573.105469 595.945312 C 577.015625 591.398438 586.976562 588.257812 592.816406 589.765625 C 595.742188 590.53125 598.769531 593.445312 602.253906 596.816406 C 610.046875 604.378906 623.109375 617.007812 646.695312 609.03125 C 662.714844 603.640625 670.414062 589.859375 676.597656 578.808594 C 685.191406 563.453125 688.539062 559.75 699.28125 561.625 C 700.238281 561.785156 702.789062 562.230469 705.621094 567.132812 C 713.378906 580.546875 712.5 607.273438 709.0625 616.644531 C 707.542969 620.835938 698.265625 639.222656 643.175781 700.046875 C 640.171875 703.394531 637.769531 706.035156 637.769531 711.164062 L 637.769531 987.601562 C 637.769531 994.9375 643.722656 1000.890625 651.058594 1000.890625 L 658.738281 1000.890625 C 692.605469 1000.890625 720.15625 973.328125 720.15625 939.484375 L 720.15625 720.144531 L 939.46875 720.144531 C 973.339844 720.144531 1000.875 692.605469 1000.875 658.738281 L 1000.875 466.242188 C 1000.875 432.382812 973.339844 404.835938 939.46875 404.835938 Z M 939.46875 404.835938 " fill-opacity="1" fill-rule="evenodd"/></g><g clip-path="url(#b8c4f056a2)"><g clip-path="url(#902ded718f)"><g clip-path="url(#fd31772301)"><path fill="#fc6a1f" d="M 1053.15625 146.011719 L 1084.339844 146.011719 L 1084.339844 998.421875 L 1053.15625 998.421875 Z M 1053.15625 146.011719 " fill-opacity="1" fill-rule="nonzero"/></g></g></g><g clip-path="url(#aaa4c63a3c)"><g clip-path="url(#26f96ab013)"><g clip-path="url(#fb64380e63)"><path fill="#fc6a1f" d="M 40.65625 146.011719 L 71.84375 146.011719 L 71.84375 998.421875 L 40.65625 998.421875 Z M 40.65625 146.011719 " fill-opacity="1" fill-rule="nonzero"/></g></g></g><g clip-path="url(#00b8ab6d97)"><g clip-path="url(#073dcd4a13)"><g clip-path="url(#5069c94f3d)"><path fill="#fc6a1f" d="M 136.292969 50.375 L 988.703125 50.375 L 988.703125 81.5625 L 136.292969 81.5625 Z M 136.292969 50.375 " fill-opacity="1" fill-rule="nonzero"/></g></g></g><g clip-path="url(#75d76a48ef)"><g clip-path="url(#cf262bb032)"><g clip-path="url(#0de7d63ef1)"><path fill="#fc6a1f" d="M 136.292969 1062.875 L 988.703125 1062.875 L 988.703125 1094.058594 L 136.292969 1094.058594 Z M 136.292969 1062.875 " fill-opacity="1" fill-rule="nonzero"/></g></g></g><g clip-path="url(#0f38cc320a)"><g clip-path="url(#9767596717)"><g clip-path="url(#b5beb380de)"><path fill="#fc6a1f" d="M 1053.15625 81.5625 L 1053.15625 146.011719 L 1084.339844 146.011719 L 1084.339844 50.375 L 988.703125 50.375 L 988.703125 81.5625 Z M 1053.15625 81.5625 " fill-opacity="1" fill-rule="nonzero"/></g></g></g><g clip-path="url(#2e7e0a362d)"><g clip-path="url(#6d1da897bc)"><g clip-path="url(#ef5a1c3a9f)"><path fill="#fc6a1f" d="M 71.84375 81.5625 L 136.292969 81.5625 L 136.292969 50.375 L 40.65625 50.375 L 40.65625 146.011719 L 71.84375 146.011719 Z M 71.84375 81.5625 " fill-opacity="1" fill-rule="nonzero"/></g></g></g><g clip-path="url(#25c803160d)"><g clip-path="url(#21644828db)"><g clip-path="url(#cb87b633cb)"><path fill="#fc6a1f" d="M 1053.15625 1062.875 L 988.703125 1062.875 L 988.703125 1094.058594 L 1084.339844 1094.058594 L 1084.339844 998.421875 L 1053.15625 998.421875 Z M 1053.15625 1062.875 " fill-opacity="1" fill-rule="nonzero"/></g></g></g><g clip-path="url(#986181dfbd)"><g clip-path="url(#7d5b4b08ef)"><g clip-path="url(#b1b6c2e806)"><path fill="#fc6a1f" d="M 71.84375 1062.875 L 71.84375 998.421875 L 40.65625 998.421875 L 40.65625 1094.058594 L 136.292969 1094.058594 L 136.292969 1062.875 Z M 71.84375 1062.875 " fill-opacity="1" fill-rule="nonzero"/></g></g></g><g clip-path="url(#7bebe80bdc)"><g clip-path="url(#0b434b9c38)"><g clip-path="url(#ba39ed77c0)"><path stroke-linecap="butt" transform="matrix(0.75, 0, 0, 0.75, 40.657485, 50.375868)" fill="none" stroke-linejoin="miter" d="M -0.00164733 55.998848 L -0.00164733 1335.577083 C -0.00164733 1366.504169 25.071271 1391.577088 55.998357 1391.577088 L 1335.576593 1391.577088 C 1366.503679 1391.577088 1391.576597 1366.504169 1391.576597 1335.577083 L 1391.576597 55.998848 C 1391.576597 25.071762 1366.503679 -0.00115688 1335.576593 -0.00115688 L 55.998357 -0.00115688 C 25.071271 -0.00115688 -0.00164733 25.071762 -0.00164733 55.998848 Z M -0.00164733 55.998848 " stroke="#fc6a1f" stroke-width="66" stroke-opacity="1" stroke-miterlimit="4"/></g></g></g></svg>