<svg xmlns="http://www.w3.org/2000/svg" xmlns:xlink="http://www.w3.org/1999/xlink" width="1500" zoomAndPan="magnify" viewBox="0 0 1125 1124.99995" height="1500" preserveAspectRatio="xMidYMid meet" version="1.0"><defs><clipPath id="56c2b6c129"><path d="M 1053 146 L 1083.90625 146 L 1083.90625 999 L 1053 999 Z M 1053 146 " clip-rule="nonzero"/></clipPath><clipPath id="f72c5a1fa8"><path d="M 40.65625 92.375 L 40.65625 1052.0625 C 40.65625 1075.257812 59.460938 1094.0625 82.65625 1094.0625 L 1042.34375 1094.0625 C 1065.539062 1094.0625 1084.34375 1075.257812 1084.34375 1052.0625 L 1084.34375 92.375 C 1084.34375 69.179688 1065.539062 50.375 1042.34375 50.375 L 82.65625 50.375 C 59.460938 50.375 40.65625 69.179688 40.65625 92.375 Z M 40.65625 92.375 " clip-rule="nonzero"/></clipPath><clipPath id="f72e758f70"><path d="M 83.558594 51.277344 L 1041.441406 51.277344 C 1064.636719 51.277344 1083.441406 70.078125 1083.441406 93.277344 L 1083.441406 1051.160156 C 1083.441406 1074.355469 1064.636719 1093.160156 1041.441406 1093.160156 L 83.558594 1093.160156 C 60.363281 1093.160156 41.558594 1074.355469 41.558594 1051.160156 L 41.558594 93.277344 C 41.558594 70.078125 60.363281 51.277344 83.558594 51.277344 Z M 83.558594 51.277344 " clip-rule="nonzero"/></clipPath><clipPath id="7dc61b31d3"><path d="M 41.40625 146 L 72 146 L 72 999 L 41.40625 999 Z M 41.40625 146 " clip-rule="nonzero"/></clipPath><clipPath id="00854a7314"><path d="M 40.65625 92.375 L 40.65625 1052.0625 C 40.65625 1075.257812 59.460938 1094.0625 82.65625 1094.0625 L 1042.34375 1094.0625 C 1065.539062 1094.0625 1084.34375 1075.257812 1084.34375 1052.0625 L 1084.34375 92.375 C 1084.34375 69.179688 1065.539062 50.375 1042.34375 50.375 L 82.65625 50.375 C 59.460938 50.375 40.65625 69.179688 40.65625 92.375 Z M 40.65625 92.375 " clip-rule="nonzero"/></clipPath><clipPath id="64b14dac98"><path d="M 83.558594 51.277344 L 1041.441406 51.277344 C 1064.636719 51.277344 1083.441406 70.078125 1083.441406 93.277344 L 1083.441406 1051.160156 C 1083.441406 1074.355469 1064.636719 1093.160156 1041.441406 1093.160156 L 83.558594 1093.160156 C 60.363281 1093.160156 41.558594 1074.355469 41.558594 1051.160156 L 41.558594 93.277344 C 41.558594 70.078125 60.363281 51.277344 83.558594 51.277344 Z M 83.558594 51.277344 " clip-rule="nonzero"/></clipPath><clipPath id="de5f1bdcbe"><path d="M 136 51.125 L 989 51.125 L 989 82 L 136 82 Z M 136 51.125 " clip-rule="nonzero"/></clipPath><clipPath id="765874cd1f"><path d="M 40.65625 92.375 L 40.65625 1052.0625 C 40.65625 1075.257812 59.460938 1094.0625 82.65625 1094.0625 L 1042.34375 1094.0625 C 1065.539062 1094.0625 1084.34375 1075.257812 1084.34375 1052.0625 L 1084.34375 92.375 C 1084.34375 69.179688 1065.539062 50.375 1042.34375 50.375 L 82.65625 50.375 C 59.460938 50.375 40.65625 69.179688 40.65625 92.375 Z M 40.65625 92.375 " clip-rule="nonzero"/></clipPath><clipPath id="a7f0acc530"><path d="M 83.558594 51.277344 L 1041.441406 51.277344 C 1064.636719 51.277344 1083.441406 70.078125 1083.441406 93.277344 L 1083.441406 1051.160156 C 1083.441406 1074.355469 1064.636719 1093.160156 1041.441406 1093.160156 L 83.558594 1093.160156 C 60.363281 1093.160156 41.558594 1074.355469 41.558594 1051.160156 L 41.558594 93.277344 C 41.558594 70.078125 60.363281 51.277344 83.558594 51.277344 Z M 83.558594 51.277344 " clip-rule="nonzero"/></clipPath><clipPath id="add538799d"><path d="M 136 1062 L 989 1062 L 989 1093.625 L 136 1093.625 Z M 136 1062 " clip-rule="nonzero"/></clipPath><clipPath id="0ad18a1476"><path d="M 40.65625 92.375 L 40.65625 1052.0625 C 40.65625 1075.257812 59.460938 1094.0625 82.65625 1094.0625 L 1042.34375 1094.0625 C 1065.539062 1094.0625 1084.34375 1075.257812 1084.34375 1052.0625 L 1084.34375 92.375 C 1084.34375 69.179688 1065.539062 50.375 1042.34375 50.375 L 82.65625 50.375 C 59.460938 50.375 40.65625 69.179688 40.65625 92.375 Z M 40.65625 92.375 " clip-rule="nonzero"/></clipPath><clipPath id="a2ba15f529"><path d="M 83.558594 51.277344 L 1041.441406 51.277344 C 1064.636719 51.277344 1083.441406 70.078125 1083.441406 93.277344 L 1083.441406 1051.160156 C 1083.441406 1074.355469 1064.636719 1093.160156 1041.441406 1093.160156 L 83.558594 1093.160156 C 60.363281 1093.160156 41.558594 1074.355469 41.558594 1051.160156 L 41.558594 93.277344 C 41.558594 70.078125 60.363281 51.277344 83.558594 51.277344 Z M 83.558594 51.277344 " clip-rule="nonzero"/></clipPath><clipPath id="9b4c02a4c5"><path d="M 988 51.125 L 1083.90625 51.125 L 1083.90625 147 L 988 147 Z M 988 51.125 " clip-rule="nonzero"/></clipPath><clipPath id="e23b60fb86"><path d="M 40.65625 92.375 L 40.65625 1052.0625 C 40.65625 1075.257812 59.460938 1094.0625 82.65625 1094.0625 L 1042.34375 1094.0625 C 1065.539062 1094.0625 1084.34375 1075.257812 1084.34375 1052.0625 L 1084.34375 92.375 C 1084.34375 69.179688 1065.539062 50.375 1042.34375 50.375 L 82.65625 50.375 C 59.460938 50.375 40.65625 69.179688 40.65625 92.375 Z M 40.65625 92.375 " clip-rule="nonzero"/></clipPath><clipPath id="9d98fd7ae0"><path d="M 83.558594 51.277344 L 1041.441406 51.277344 C 1064.636719 51.277344 1083.441406 70.078125 1083.441406 93.277344 L 1083.441406 1051.160156 C 1083.441406 1074.355469 1064.636719 1093.160156 1041.441406 1093.160156 L 83.558594 1093.160156 C 60.363281 1093.160156 41.558594 1074.355469 41.558594 1051.160156 L 41.558594 93.277344 C 41.558594 70.078125 60.363281 51.277344 83.558594 51.277344 Z M 83.558594 51.277344 " clip-rule="nonzero"/></clipPath><clipPath id="7a5a35bf9b"><path d="M 41.40625 51.125 L 137 51.125 L 137 147 L 41.40625 147 Z M 41.40625 51.125 " clip-rule="nonzero"/></clipPath><clipPath id="81412c3e08"><path d="M 40.65625 92.375 L 40.65625 1052.0625 C 40.65625 1075.257812 59.460938 1094.0625 82.65625 1094.0625 L 1042.34375 1094.0625 C 1065.539062 1094.0625 1084.34375 1075.257812 1084.34375 1052.0625 L 1084.34375 92.375 C 1084.34375 69.179688 1065.539062 50.375 1042.34375 50.375 L 82.65625 50.375 C 59.460938 50.375 40.65625 69.179688 40.65625 92.375 Z M 40.65625 92.375 " clip-rule="nonzero"/></clipPath><clipPath id="96995f565d"><path d="M 83.558594 51.277344 L 1041.441406 51.277344 C 1064.636719 51.277344 1083.441406 70.078125 1083.441406 93.277344 L 1083.441406 1051.160156 C 1083.441406 1074.355469 1064.636719 1093.160156 1041.441406 1093.160156 L 83.558594 1093.160156 C 60.363281 1093.160156 41.558594 1074.355469 41.558594 1051.160156 L 41.558594 93.277344 C 41.558594 70.078125 60.363281 51.277344 83.558594 51.277344 Z M 83.558594 51.277344 " clip-rule="nonzero"/></clipPath><clipPath id="e42a16aecf"><path d="M 988 998 L 1083.90625 998 L 1083.90625 1093.625 L 988 1093.625 Z M 988 998 " clip-rule="nonzero"/></clipPath><clipPath id="cfe6aadf47"><path d="M 40.65625 92.375 L 40.65625 1052.0625 C 40.65625 1075.257812 59.460938 1094.0625 82.65625 1094.0625 L 1042.34375 1094.0625 C 1065.539062 1094.0625 1084.34375 1075.257812 1084.34375 1052.0625 L 1084.34375 92.375 C 1084.34375 69.179688 1065.539062 50.375 1042.34375 50.375 L 82.65625 50.375 C 59.460938 50.375 40.65625 69.179688 40.65625 92.375 Z M 40.65625 92.375 " clip-rule="nonzero"/></clipPath><clipPath id="cc007fd69e"><path d="M 83.558594 51.277344 L 1041.441406 51.277344 C 1064.636719 51.277344 1083.441406 70.078125 1083.441406 93.277344 L 1083.441406 1051.160156 C 1083.441406 1074.355469 1064.636719 1093.160156 1041.441406 1093.160156 L 83.558594 1093.160156 C 60.363281 1093.160156 41.558594 1074.355469 41.558594 1051.160156 L 41.558594 93.277344 C 41.558594 70.078125 60.363281 51.277344 83.558594 51.277344 Z M 83.558594 51.277344 " clip-rule="nonzero"/></clipPath><clipPath id="b5be506985"><path d="M 41.40625 998 L 137 998 L 137 1093.625 L 41.40625 1093.625 Z M 41.40625 998 " clip-rule="nonzero"/></clipPath><clipPath id="800c6f3b26"><path d="M 40.65625 92.375 L 40.65625 1052.0625 C 40.65625 1075.257812 59.460938 1094.0625 82.65625 1094.0625 L 1042.34375 1094.0625 C 1065.539062 1094.0625 1084.34375 1075.257812 1084.34375 1052.0625 L 1084.34375 92.375 C 1084.34375 69.179688 1065.539062 50.375 1042.34375 50.375 L 82.65625 50.375 C 59.460938 50.375 40.65625 69.179688 40.65625 92.375 Z M 40.65625 92.375 " clip-rule="nonzero"/></clipPath><clipPath id="2696c1ac53"><path d="M 83.558594 51.277344 L 1041.441406 51.277344 C 1064.636719 51.277344 1083.441406 70.078125 1083.441406 93.277344 L 1083.441406 1051.160156 C 1083.441406 1074.355469 1064.636719 1093.160156 1041.441406 1093.160156 L 83.558594 1093.160156 C 60.363281 1093.160156 41.558594 1074.355469 41.558594 1051.160156 L 41.558594 93.277344 C 41.558594 70.078125 60.363281 51.277344 83.558594 51.277344 Z M 83.558594 51.277344 " clip-rule="nonzero"/></clipPath><clipPath id="bb0ced914a"><path d="M 40.65625 50.375 L 1084.65625 50.375 L 1084.65625 1094.375 L 40.65625 1094.375 Z M 40.65625 50.375 " clip-rule="nonzero"/></clipPath><clipPath id="57e872b4a0"><path d="M 40.65625 92.375 L 40.65625 1052.0625 C 40.65625 1075.257812 59.460938 1094.0625 82.65625 1094.0625 L 1042.34375 1094.0625 C 1065.539062 1094.0625 1084.34375 1075.257812 1084.34375 1052.0625 L 1084.34375 92.375 C 1084.34375 69.179688 1065.539062 50.375 1042.34375 50.375 L 82.65625 50.375 C 59.460938 50.375 40.65625 69.179688 40.65625 92.375 Z M 40.65625 92.375 " clip-rule="nonzero"/></clipPath><clipPath id="6b4185ca57"><path d="M 40.65625 92.375 L 40.65625 1052.058594 C 40.65625 1075.253906 59.460938 1094.058594 82.65625 1094.058594 L 1042.339844 1094.058594 C 1065.535156 1094.058594 1084.339844 1075.253906 1084.339844 1052.058594 L 1084.339844 92.375 C 1084.339844 69.179688 1065.535156 50.375 1042.339844 50.375 L 82.65625 50.375 C 59.460938 50.375 40.65625 69.179688 40.65625 92.375 Z M 40.65625 92.375 " clip-rule="nonzero"/></clipPath><clipPath id="87a5b4615c"><path d="M 168 918 L 695 918 L 695 1012.8125 L 168 1012.8125 Z M 168 918 " clip-rule="nonzero"/></clipPath></defs><g clip-path="url(#56c2b6c129)"><g clip-path="url(#f72c5a1fa8)"><g clip-path="url(#f72e758f70)"><path fill="#fc6a1f" d="M 1053.15625 146.011719 L 1084.339844 146.011719 L 1084.339844 998.421875 L 1053.15625 998.421875 Z M 1053.15625 146.011719 " fill-opacity="1" fill-rule="nonzero"/></g></g></g><g clip-path="url(#7dc61b31d3)"><g clip-path="url(#00854a7314)"><g clip-path="url(#64b14dac98)"><path fill="#fc6a1f" d="M 40.65625 146.011719 L 71.84375 146.011719 L 71.84375 998.421875 L 40.65625 998.421875 Z M 40.65625 146.011719 " fill-opacity="1" fill-rule="nonzero"/></g></g></g><g clip-path="url(#de5f1bdcbe)"><g clip-path="url(#765874cd1f)"><g clip-path="url(#a7f0acc530)"><path fill="#fc6a1f" d="M 136.292969 50.375 L 988.703125 50.375 L 988.703125 81.5625 L 136.292969 81.5625 Z M 136.292969 50.375 " fill-opacity="1" fill-rule="nonzero"/></g></g></g><g clip-path="url(#add538799d)"><g clip-path="url(#0ad18a1476)"><g clip-path="url(#a2ba15f529)"><path fill="#fc6a1f" d="M 136.292969 1062.875 L 988.703125 1062.875 L 988.703125 1094.058594 L 136.292969 1094.058594 Z M 136.292969 1062.875 " fill-opacity="1" fill-rule="nonzero"/></g></g></g><g clip-path="url(#9b4c02a4c5)"><g clip-path="url(#e23b60fb86)"><g clip-path="url(#9d98fd7ae0)"><path fill="#fc6a1f" d="M 1053.15625 81.5625 L 1053.15625 146.011719 L 1084.339844 146.011719 L 1084.339844 50.375 L 988.703125 50.375 L 988.703125 81.5625 Z M 1053.15625 81.5625 " fill-opacity="1" fill-rule="nonzero"/></g></g></g><g clip-path="url(#7a5a35bf9b)"><g clip-path="url(#81412c3e08)"><g clip-path="url(#96995f565d)"><path fill="#fc6a1f" d="M 71.84375 81.5625 L 136.292969 81.5625 L 136.292969 50.375 L 40.65625 50.375 L 40.65625 146.011719 L 71.84375 146.011719 Z M 71.84375 81.5625 " fill-opacity="1" fill-rule="nonzero"/></g></g></g><g clip-path="url(#e42a16aecf)"><g clip-path="url(#cfe6aadf47)"><g clip-path="url(#cc007fd69e)"><path fill="#fc6a1f" d="M 1053.15625 1062.875 L 988.703125 1062.875 L 988.703125 1094.058594 L 1084.339844 1094.058594 L 1084.339844 998.421875 L 1053.15625 998.421875 Z M 1053.15625 1062.875 " fill-opacity="1" fill-rule="nonzero"/></g></g></g><g clip-path="url(#b5be506985)"><g clip-path="url(#800c6f3b26)"><g clip-path="url(#2696c1ac53)"><path fill="#fc6a1f" d="M 71.84375 1062.875 L 71.84375 998.421875 L 40.65625 998.421875 L 40.65625 1094.058594 L 136.292969 1094.058594 L 136.292969 1062.875 Z M 71.84375 1062.875 " fill-opacity="1" fill-rule="nonzero"/></g></g></g><g clip-path="url(#bb0ced914a)"><g clip-path="url(#57e872b4a0)"><g clip-path="url(#6b4185ca57)"><path stroke-linecap="butt" transform="matrix(0.75, 0, 0, 0.75, 40.657485, 50.375868)" fill="none" stroke-linejoin="miter" d="M -0.00164733 55.998848 L -0.00164733 1335.577083 C -0.00164733 1366.504169 25.071271 1391.577088 55.998357 1391.577088 L 1335.576593 1391.577088 C 1366.503679 1391.577088 1391.576597 1366.504169 1391.576597 1335.577083 L 1391.576597 55.998848 C 1391.576597 25.071762 1366.503679 -0.00115688 1335.576593 -0.00115688 L 55.998357 -0.00115688 C 25.071271 -0.00115688 -0.00164733 25.071762 -0.00164733 55.998848 Z M -0.00164733 55.998848 " stroke="#fc6a1f" stroke-width="66" stroke-opacity="1" stroke-miterlimit="4"/></g></g></g><path fill="#fc6a1f" d="M 455.945312 468.375 C 456.101562 476.871094 442.410156 476.714844 442.882812 468.21875 C 444.300781 396.148438 474.355469 331.007812 522.347656 283.957031 C 683.316406 120.3125 976.460938 240.527344 973.15625 473.253906 C 977.878906 664.90625 761.207031 798.8125 592.050781 711.796875 C 555.703125 694.171875 523.917969 668.367188 499.214844 636.898438 C 497.011719 634.066406 497.484375 629.972656 500.316406 627.613281 C 503.148438 625.410156 507.238281 625.882812 509.601562 628.714844 C 533.046875 658.613281 563.257812 683.160156 597.875 699.996094 C 758.53125 782.449219 964.503906 655.464844 959.941406 473.253906 C 950.027344 143.128906 471.992188 138.722656 455.945312 468.375 Z M 455.945312 468.375 " fill-opacity="1" fill-rule="evenodd"/><path fill="#fc6a1f" d="M 255.164062 500.316406 C 261.140625 494.335938 270.582031 503.777344 264.289062 509.757812 C 169.722656 597.246094 182.152344 763.722656 287.890625 836.578125 C 294.816406 841.453125 286.949219 852.3125 280.183594 847.121094 C 167.988281 770.015625 154.929688 593.152344 255.164062 500.316406 Z M 401.5 890.546875 C 393.003906 890.234375 393.632812 876.859375 402.128906 877.488281 C 405.117188 877.644531 411.253906 877.804688 414.246094 877.804688 C 435.488281 877.804688 455.945312 874.65625 476.242188 868.675781 C 483.636719 865.6875 503.464844 864.429688 499.371094 851.839844 C 496.539062 842.085938 492.765625 824.460938 488.515625 816.121094 C 486.628906 812.972656 487.726562 808.882812 490.875 807.152344 C 494.023438 805.265625 498.113281 806.367188 499.84375 809.511719 C 505.351562 820.527344 508.5 836.105469 511.960938 847.90625 C 518.253906 869.148438 496.855469 877.804688 480.019531 881.265625 C 454.84375 888.816406 427.621094 891.964844 401.5 890.546875 Z M 451.066406 805.734375 C 434.699219 809.984375 416.605469 811.402344 399.769531 809.667969 C 392.84375 810.140625 380.730469 802.902344 377.898438 812.816406 C 377.109375 823.515625 391.273438 821.15625 398.511719 822.730469 C 417.234375 824.617188 436.117188 823.042969 454.371094 818.480469 C 462.710938 816.4375 459.40625 803.53125 451.066406 805.734375 Z M 344.539062 792.832031 C 269.007812 754.753906 243.203125 649.171875 292.457031 580.410156 C 296.230469 569.707031 321.722656 555.390625 314.328125 545.949219 C 311.808594 543.273438 307.71875 543.117188 305.042969 545.632812 C 224.953125 615.65625 243.046875 757.113281 338.246094 804.476562 C 345.796875 808.566406 352.089844 796.925781 344.539062 792.832031 Z M 344.539062 792.832031 " fill-opacity="1" fill-rule="evenodd"/><g clip-path="url(#87a5b4615c)"><path fill="#fc6a1f" d="M 649.328125 931.300781 L 213.621094 931.300781 C 196.15625 931.300781 181.835938 945.621094 181.835938 963.085938 L 181.835938 990.464844 C 181.835938 995.1875 185.769531 999.121094 190.492188 999.121094 L 672.300781 999.121094 C 677.179688 999.121094 680.957031 995.1875 680.957031 990.464844 L 680.957031 963.085938 C 681.113281 945.621094 666.792969 931.300781 649.328125 931.300781 Z M 213.621094 918.242188 L 649.171875 918.242188 C 661.445312 918.242188 672.773438 923.277344 680.957031 931.460938 C 689.136719 939.640625 694.171875 950.972656 694.171875 963.246094 C 692.441406 974.101562 698.265625 998.175781 687.722656 1006.042969 C 683.789062 1009.976562 678.28125 1012.496094 672.300781 1012.496094 L 190.492188 1012.496094 C 163.425781 1011.550781 168.933594 981.65625 168.621094 963.246094 C 168.777344 938.382812 188.917969 918.085938 213.621094 918.242188 Z M 213.621094 918.242188 " fill-opacity="1" fill-rule="evenodd"/></g><path fill="#fc6a1f" d="M 311.808594 819.582031 L 227.941406 918.085938 L 395.207031 918.085938 C 393.316406 898.101562 400.871094 843.65625 387.179688 827.292969 C 371.601562 803.21875 331.320312 796.292969 311.808594 819.582031 Z M 208.742188 920.445312 L 301.738281 811.085938 C 310.078125 801.332031 320.777344 795.507812 332.578125 793.148438 C 369.871094 785.28125 409.683594 815.492188 408.421875 854.671875 L 408.421875 924.695312 C 408.421875 928.3125 405.433594 931.300781 401.816406 931.300781 L 213.621094 931.300781 C 208.429688 931.460938 204.96875 924.535156 208.742188 920.445312 Z M 208.742188 920.445312 " fill-opacity="1" fill-rule="evenodd"/><path fill="#fc6a1f" d="M 664.90625 766.871094 L 456.414062 766.871094 C 454.527344 766.871094 452.796875 767.65625 451.539062 769.074219 C 448.234375 770.960938 450.59375 796.453125 449.964844 799.597656 C 449.964844 803.21875 452.796875 806.050781 456.414062 806.050781 L 664.90625 806.050781 C 668.527344 806.050781 671.359375 803.21875 671.359375 799.597656 C 670.257812 788.742188 675.605469 766.242188 664.90625 766.871094 Z M 456.414062 753.652344 L 664.90625 753.652344 C 689.453125 753.96875 684.261719 783.234375 684.574219 799.597656 C 684.574219 810.300781 675.761719 819.269531 664.90625 819.269531 L 456.414062 819.269531 C 451.066406 819.269531 446.03125 817.066406 442.570312 813.445312 C 433.285156 806.367188 437.847656 783.078125 436.746094 773.320312 C 436.746094 762.621094 445.558594 753.652344 456.414062 753.652344 Z M 456.414062 753.652344 " fill-opacity="1" fill-rule="evenodd"/><path fill="#fc6a1f" d="M 330.21875 552.085938 C 325.8125 544.691406 337.457031 538.082031 341.550781 545.476562 C 345.167969 549.410156 367.984375 597.71875 374.90625 596.773438 C 377.425781 603.382812 468.847656 544.691406 472.464844 544.21875 C 477.816406 541.226562 479.546875 534.148438 476.554688 528.796875 L 353.820312 316.058594 C 350.675781 310.707031 343.75 308.820312 338.402344 311.964844 L 249.5 363.261719 C 244.148438 366.410156 242.261719 373.332031 245.40625 378.683594 L 282.542969 442.882812 C 286.949219 450.277344 275.304688 456.886719 271.210938 449.492188 L 234.078125 385.292969 C 227.3125 373.648438 231.402344 358.699219 243.046875 351.933594 L 332.109375 300.480469 C 343.75 293.714844 358.699219 297.804688 365.308594 309.449219 L 488.199219 522.347656 C 494.964844 533.988281 490.875 548.9375 479.230469 555.546875 L 390.171875 607 C 378.683594 613.609375 364.050781 609.832031 357.125 598.503906 Z M 330.21875 552.085938 " fill-opacity="1" fill-rule="evenodd"/><path fill="#fc6a1f" d="M 492.292969 611.878906 L 432.339844 646.496094 C 421.167969 652.949219 406.851562 649.171875 400.398438 638 L 381.203125 604.796875 C 379.3125 601.652344 380.414062 597.558594 383.5625 595.828125 L 472.621094 544.375 C 475.769531 542.488281 479.859375 543.589844 481.589844 546.734375 C 490.402344 564.671875 519.671875 595.515625 492.292969 611.878906 Z M 425.730469 635.167969 C 429.035156 631.863281 492.765625 600.078125 490.402344 594.253906 C 493.550781 588.433594 475.453125 564.042969 473.410156 558.851562 L 395.679688 603.695312 C 404.332031 615.183594 411.886719 643.347656 425.730469 635.167969 Z M 425.730469 635.167969 " fill-opacity="1" fill-rule="evenodd"/><path fill="#fc6a1f" d="M 512.90625 676.234375 C 495.597656 683.632812 465.070312 714.945312 449.335938 689.296875 L 423.214844 644.136719 C 421.484375 640.988281 422.425781 636.898438 425.574219 635.167969 L 485.527344 600.550781 C 488.671875 598.820312 492.605469 599.761719 494.496094 602.910156 L 520.773438 648.542969 C 526.4375 658.296875 522.816406 670.726562 512.90625 676.234375 Z M 470.734375 685.363281 C 473.566406 682.84375 510.859375 664.75 510.074219 660.1875 C 513.375 657.511719 487.414062 618.171875 486.628906 615.183594 L 438.003906 643.191406 L 460.820312 682.6875 C 462.867188 686.148438 467.429688 687.25 470.734375 685.363281 Z M 470.734375 685.363281 " fill-opacity="1" fill-rule="evenodd"/><path fill="#fc6a1f" d="M 261.773438 223.535156 C 251.699219 230.929688 203.078125 252.960938 203.707031 262.085938 C 202.765625 265.707031 203.078125 269.480469 204.808594 272.945312 L 248.554688 348.628906 L 326.285156 303.785156 L 282.699219 228.253906 C 278.292969 221.175781 268.851562 218.972656 261.773438 223.535156 Z M 204.023438 241.628906 C 221.015625 234.078125 261.300781 201.820312 277.191406 208.902344 C 284.117188 210.789062 290.253906 215.195312 294.1875 221.804688 L 340.917969 302.839844 C 342.808594 305.988281 341.707031 310.078125 338.558594 311.808594 L 249.5 363.421875 C 246.351562 365.308594 242.261719 364.207031 240.527344 361.058594 L 193.796875 280.023438 C 186.085938 266.648438 190.648438 249.339844 204.023438 241.628906 Z M 204.023438 241.628906 " fill-opacity="1" fill-rule="evenodd"/><path fill="#fc6a1f" d="M 319.046875 435.644531 C 247.453125 436.902344 247.453125 543.273438 319.046875 544.53125 C 390.640625 543.429688 390.484375 436.902344 319.046875 435.644531 Z M 271.210938 442.410156 C 335.097656 380.570312 428.5625 474.195312 366.882812 538.082031 C 302.996094 599.761719 209.375 506.136719 271.210938 442.410156 Z M 271.210938 442.410156 " fill-opacity="1" fill-rule="evenodd"/><path fill="#fc6a1f" d="M 667.265625 367.355469 C 627.300781 365.152344 610.460938 310.394531 641.460938 286.003906 C 650.585938 278.292969 662.703125 274.046875 675.449219 275.144531 C 691.8125 273.574219 772.21875 298.59375 794.09375 327.542969 C 823.515625 355.082031 801.015625 407.949219 761.363281 406.535156 C 749.5625 406.535156 737.601562 401.972656 728.632812 393.003906 C 706.605469 371.132812 671.828125 367.828125 667.265625 367.355469 Z M 646.179688 342.648438 C 669.785156 366.410156 693.703125 344.066406 738.074219 383.71875 C 744.527344 390.171875 753.023438 393.476562 761.519531 393.476562 C 789.6875 394.417969 805.894531 356.96875 785.28125 337.144531 C 753.652344 305.359375 676.707031 274.046875 650.117188 295.917969 C 636.425781 306.617188 634.539062 329.90625 646.179688 342.648438 Z M 646.179688 342.648438 " fill-opacity="1" fill-rule="evenodd"/><path fill="#fc6a1f" d="M 844.128906 452.480469 C 894.011719 430.609375 928.3125 504.09375 879.375 528.167969 C 878.746094 528.484375 821 555.863281 764.195312 540.757812 C 741.851562 534.777344 728.476562 511.644531 734.769531 489.144531 C 740.90625 467.117188 763.722656 453.898438 785.910156 459.878906 C 812.03125 466.800781 839.09375 454.683594 844.128906 452.480469 Z M 871.195312 463.496094 C 842.871094 455.945312 834.6875 483.480469 782.289062 472.621094 C 767.027344 468.53125 751.449219 477.5 747.359375 492.605469 C 735.871094 562.3125 877.804688 518.882812 873.554688 516.367188 C 896.527344 506.769531 894.640625 470.890625 871.195312 463.496094 Z M 871.195312 463.496094 " fill-opacity="1" fill-rule="evenodd"/><path fill="#fc6a1f" d="M 625.097656 514.007812 C 639.574219 538.710938 677.023438 516.523438 662.390625 491.976562 C 647.753906 467.902344 611.09375 489.460938 625.097656 514.007812 Z M 634.851562 536.820312 C 590.949219 524.863281 608.890625 457.832031 652.949219 469.476562 C 696.847656 482.0625 679.226562 547.835938 634.851562 536.820312 Z M 634.851562 536.820312 " fill-opacity="1" fill-rule="evenodd"/><path fill="#fc6a1f" d="M 559.796875 565.617188 C 559.636719 557.121094 573.171875 557.121094 573.011719 565.617188 C 574.585938 581.511719 598.976562 598.1875 598.03125 615.65625 C 598.1875 624.152344 584.65625 624.152344 584.8125 615.65625 C 583.242188 599.761719 558.851562 583.242188 559.796875 565.617188 Z M 559.796875 565.617188 " fill-opacity="1" fill-rule="evenodd"/><path fill="#fc6a1f" d="M 879.691406 377.425781 C 887.875 375.066406 891.335938 388.125 883.152344 390.171875 C 868.363281 395.835938 858.449219 423.6875 841.296875 427.304688 C 833.113281 429.664062 829.652344 416.605469 837.835938 414.558594 C 852.785156 408.894531 862.539062 381.042969 879.691406 377.425781 Z M 879.691406 377.425781 " fill-opacity="1" fill-rule="evenodd"/><path fill="#fc6a1f" d="M 749.246094 644.292969 C 770.332031 648.855469 776.941406 616.757812 755.699219 612.664062 C 762.464844 611.25 666.792969 605.742188 683.316406 644.765625 C 687.722656 652.476562 697.636719 655.152344 705.34375 650.746094 C 722.65625 640.832031 745 643.664062 749.246094 644.292969 Z M 769.386719 652.632812 C 749.5625 665.691406 741.851562 648.070312 711.796875 662.230469 C 678.4375 680.796875 649.644531 631.863281 682.058594 611.722656 C 714.472656 592.367188 758.058594 599.605469 757.902344 599.761719 C 765.769531 601.179688 772.378906 605.742188 776.625 611.878906 C 786.066406 624.152344 782.289062 644.449219 769.386719 652.632812 Z M 769.386719 652.632812 " fill-opacity="1" fill-rule="evenodd"/><path fill="#fc6a1f" d="M 542.328125 431.082031 C 567.035156 473.410156 631.707031 436.117188 607.316406 393.632812 C 581.980469 351.148438 518.410156 387.808594 542.328125 431.082031 Z M 561.839844 461.292969 C 497.800781 443.039062 523.449219 347.214844 588.117188 363.261719 C 652.003906 381.515625 626.355469 477.34375 561.839844 461.292969 Z M 561.839844 461.292969 " fill-opacity="1" fill-rule="evenodd"/><path fill="#fc6a1f" d="M 666.792969 594.097656 C 662.546875 586.703125 674.191406 580.25 678.28125 587.648438 L 692.601562 613.296875 C 696.847656 620.691406 685.203125 627.140625 681.113281 619.746094 Z M 666.792969 594.097656 " fill-opacity="1" fill-rule="evenodd"/><path fill="#fc6a1f" d="M 712.742188 577.261719 C 711.640625 568.765625 725.015625 567.191406 725.800781 575.84375 C 726.117188 589.691406 734.296875 611.722656 723.441406 612.351562 C 712.742188 614.082031 715.574219 590.636719 712.742188 577.261719 Z M 712.742188 577.261719 " fill-opacity="1" fill-rule="evenodd"/><path fill="#fc6a1f" d="M 771.117188 584.34375 C 773.792969 576.160156 786.382812 580.566406 783.550781 588.589844 C 778.671875 599.132812 776.46875 622.578125 766.398438 618.488281 C 756.011719 615.65625 768.601562 595.671875 771.117188 584.34375 Z M 771.117188 584.34375 " fill-opacity="1" fill-rule="evenodd"/><path fill="#fc6a1f" d="M 803.53125 621.949219 C 812.03125 620.691406 813.761719 633.90625 805.265625 635.007812 C 791.257812 635.796875 769.386719 644.292969 768.445312 633.59375 C 766.398438 622.894531 790 625.097656 803.53125 621.949219 Z M 803.53125 621.949219 " fill-opacity="1" fill-rule="evenodd"/><path fill="#fc6a1f" d="M 774.109375 669.15625 C 778.355469 676.550781 766.710938 683 762.621094 675.605469 C 759.160156 667.109375 743.582031 649.957031 753.179688 645.238281 C 762.308594 639.414062 768.601562 661.757812 774.109375 669.15625 Z M 774.109375 669.15625 " fill-opacity="1" fill-rule="evenodd"/><path fill="#fc6a1f" d="M 729.890625 678.4375 C 730.207031 686.933594 716.832031 687.25 716.675781 678.753906 L 715.886719 651.375 C 715.574219 642.878906 728.949219 642.5625 729.105469 651.058594 Z M 729.890625 678.4375 " fill-opacity="1" fill-rule="evenodd"/><path fill="#fc6a1f" d="M 684.261719 682.058594 C 680.957031 689.925781 668.683594 684.417969 672.300781 676.707031 C 677.023438 669.15625 681.113281 646.8125 690.710938 651.6875 C 700.625 655.308594 686.777344 673.5625 684.261719 682.058594 Z M 684.261719 682.058594 " fill-opacity="1" fill-rule="evenodd"/><path fill="#fc6a1f" d="M 647.753906 646.179688 C 639.257812 646.8125 638.472656 633.4375 646.96875 633.121094 C 659.085938 633.59375 681.113281 626.984375 681.113281 637.84375 C 682.371094 648.382812 659.871094 644.292969 647.753906 646.179688 Z M 647.753906 646.179688 " fill-opacity="1" fill-rule="evenodd"/><path fill="#fc6a1f" d="M 319.046875 472.9375 C 296.390625 472.9375 296.390625 507.398438 319.046875 507.554688 C 341.707031 507.398438 341.550781 472.9375 319.046875 472.9375 Z M 297.492188 468.6875 C 325.65625 440.523438 368.613281 483.480469 340.605469 511.804688 C 312.28125 539.8125 269.324219 496.855469 297.492188 468.6875 Z M 297.492188 468.6875 " fill-opacity="1" fill-rule="evenodd"/><path fill="#fc6a1f" d="M 345.011719 840.351562 C 322.039062 840.351562 322.039062 875.441406 345.011719 875.601562 C 367.984375 875.441406 367.984375 840.351562 345.011719 840.351562 Z M 323.296875 836.105469 C 351.777344 807.78125 395.207031 851.054688 366.882812 879.535156 C 337.773438 907.855469 294.972656 865.214844 323.296875 836.105469 Z M 323.296875 836.105469 " fill-opacity="1" fill-rule="evenodd"/></svg>