<svg xmlns="http://www.w3.org/2000/svg" xmlns:xlink="http://www.w3.org/1999/xlink" width="1500" zoomAndPan="magnify" viewBox="0 0 1125 1124.99995" height="1500" preserveAspectRatio="xMidYMid meet" version="1.0"><defs><clipPath id="db894870a4"><path d="M 167.640625 118 L 957.390625 118 L 957.390625 1041.75 L 167.640625 1041.75 Z M 167.640625 118 " clip-rule="nonzero"/></clipPath><clipPath id="302089890f"><path d="M 1053 146 L 1083.90625 146 L 1083.90625 999 L 1053 999 Z M 1053 146 " clip-rule="nonzero"/></clipPath><clipPath id="2277d03acc"><path d="M 40.65625 92.375 L 40.65625 1052.0625 C 40.65625 1075.257812 59.460938 1094.0625 82.65625 1094.0625 L 1042.34375 1094.0625 C 1065.539062 1094.0625 1084.34375 1075.257812 1084.34375 1052.0625 L 1084.34375 92.375 C 1084.34375 69.179688 1065.539062 50.375 1042.34375 50.375 L 82.65625 50.375 C 59.460938 50.375 40.65625 69.179688 40.65625 92.375 Z M 40.65625 92.375 " clip-rule="nonzero"/></clipPath><clipPath id="65c3cfab74"><path d="M 83.558594 51.277344 L 1041.441406 51.277344 C 1064.636719 51.277344 1083.441406 70.078125 1083.441406 93.277344 L 1083.441406 1051.160156 C 1083.441406 1074.355469 1064.636719 1093.160156 1041.441406 1093.160156 L 83.558594 1093.160156 C 60.363281 1093.160156 41.558594 1074.355469 41.558594 1051.160156 L 41.558594 93.277344 C 41.558594 70.078125 60.363281 51.277344 83.558594 51.277344 Z M 83.558594 51.277344 " clip-rule="nonzero"/></clipPath><clipPath id="dd63d2110e"><path d="M 41.40625 146 L 72 146 L 72 999 L 41.40625 999 Z M 41.40625 146 " clip-rule="nonzero"/></clipPath><clipPath id="13567ae4a4"><path d="M 40.65625 92.375 L 40.65625 1052.0625 C 40.65625 1075.257812 59.460938 1094.0625 82.65625 1094.0625 L 1042.34375 1094.0625 C 1065.539062 1094.0625 1084.34375 1075.257812 1084.34375 1052.0625 L 1084.34375 92.375 C 1084.34375 69.179688 1065.539062 50.375 1042.34375 50.375 L 82.65625 50.375 C 59.460938 50.375 40.65625 69.179688 40.65625 92.375 Z M 40.65625 92.375 " clip-rule="nonzero"/></clipPath><clipPath id="1992235038"><path d="M 83.558594 51.277344 L 1041.441406 51.277344 C 1064.636719 51.277344 1083.441406 70.078125 1083.441406 93.277344 L 1083.441406 1051.160156 C 1083.441406 1074.355469 1064.636719 1093.160156 1041.441406 1093.160156 L 83.558594 1093.160156 C 60.363281 1093.160156 41.558594 1074.355469 41.558594 1051.160156 L 41.558594 93.277344 C 41.558594 70.078125 60.363281 51.277344 83.558594 51.277344 Z M 83.558594 51.277344 " clip-rule="nonzero"/></clipPath><clipPath id="b5433742c2"><path d="M 136 51.125 L 989 51.125 L 989 82 L 136 82 Z M 136 51.125 " clip-rule="nonzero"/></clipPath><clipPath id="bb972078f5"><path d="M 40.65625 92.375 L 40.65625 1052.0625 C 40.65625 1075.257812 59.460938 1094.0625 82.65625 1094.0625 L 1042.34375 1094.0625 C 1065.539062 1094.0625 1084.34375 1075.257812 1084.34375 1052.0625 L 1084.34375 92.375 C 1084.34375 69.179688 1065.539062 50.375 1042.34375 50.375 L 82.65625 50.375 C 59.460938 50.375 40.65625 69.179688 40.65625 92.375 Z M 40.65625 92.375 " clip-rule="nonzero"/></clipPath><clipPath id="557b48db8e"><path d="M 83.558594 51.277344 L 1041.441406 51.277344 C 1064.636719 51.277344 1083.441406 70.078125 1083.441406 93.277344 L 1083.441406 1051.160156 C 1083.441406 1074.355469 1064.636719 1093.160156 1041.441406 1093.160156 L 83.558594 1093.160156 C 60.363281 1093.160156 41.558594 1074.355469 41.558594 1051.160156 L 41.558594 93.277344 C 41.558594 70.078125 60.363281 51.277344 83.558594 51.277344 Z M 83.558594 51.277344 " clip-rule="nonzero"/></clipPath><clipPath id="681b074222"><path d="M 136 1062 L 989 1062 L 989 1093.625 L 136 1093.625 Z M 136 1062 " clip-rule="nonzero"/></clipPath><clipPath id="fd4dfe8077"><path d="M 40.65625 92.375 L 40.65625 1052.0625 C 40.65625 1075.257812 59.460938 1094.0625 82.65625 1094.0625 L 1042.34375 1094.0625 C 1065.539062 1094.0625 1084.34375 1075.257812 1084.34375 1052.0625 L 1084.34375 92.375 C 1084.34375 69.179688 1065.539062 50.375 1042.34375 50.375 L 82.65625 50.375 C 59.460938 50.375 40.65625 69.179688 40.65625 92.375 Z M 40.65625 92.375 " clip-rule="nonzero"/></clipPath><clipPath id="1b4892668b"><path d="M 83.558594 51.277344 L 1041.441406 51.277344 C 1064.636719 51.277344 1083.441406 70.078125 1083.441406 93.277344 L 1083.441406 1051.160156 C 1083.441406 1074.355469 1064.636719 1093.160156 1041.441406 1093.160156 L 83.558594 1093.160156 C 60.363281 1093.160156 41.558594 1074.355469 41.558594 1051.160156 L 41.558594 93.277344 C 41.558594 70.078125 60.363281 51.277344 83.558594 51.277344 Z M 83.558594 51.277344 " clip-rule="nonzero"/></clipPath><clipPath id="3710c7e056"><path d="M 988 51.125 L 1083.90625 51.125 L 1083.90625 147 L 988 147 Z M 988 51.125 " clip-rule="nonzero"/></clipPath><clipPath id="b7cafd81a3"><path d="M 40.65625 92.375 L 40.65625 1052.0625 C 40.65625 1075.257812 59.460938 1094.0625 82.65625 1094.0625 L 1042.34375 1094.0625 C 1065.539062 1094.0625 1084.34375 1075.257812 1084.34375 1052.0625 L 1084.34375 92.375 C 1084.34375 69.179688 1065.539062 50.375 1042.34375 50.375 L 82.65625 50.375 C 59.460938 50.375 40.65625 69.179688 40.65625 92.375 Z M 40.65625 92.375 " clip-rule="nonzero"/></clipPath><clipPath id="d24c884c9f"><path d="M 83.558594 51.277344 L 1041.441406 51.277344 C 1064.636719 51.277344 1083.441406 70.078125 1083.441406 93.277344 L 1083.441406 1051.160156 C 1083.441406 1074.355469 1064.636719 1093.160156 1041.441406 1093.160156 L 83.558594 1093.160156 C 60.363281 1093.160156 41.558594 1074.355469 41.558594 1051.160156 L 41.558594 93.277344 C 41.558594 70.078125 60.363281 51.277344 83.558594 51.277344 Z M 83.558594 51.277344 " clip-rule="nonzero"/></clipPath><clipPath id="7b58595c46"><path d="M 41.40625 51.125 L 137 51.125 L 137 147 L 41.40625 147 Z M 41.40625 51.125 " clip-rule="nonzero"/></clipPath><clipPath id="84ffdb097e"><path d="M 40.65625 92.375 L 40.65625 1052.0625 C 40.65625 1075.257812 59.460938 1094.0625 82.65625 1094.0625 L 1042.34375 1094.0625 C 1065.539062 1094.0625 1084.34375 1075.257812 1084.34375 1052.0625 L 1084.34375 92.375 C 1084.34375 69.179688 1065.539062 50.375 1042.34375 50.375 L 82.65625 50.375 C 59.460938 50.375 40.65625 69.179688 40.65625 92.375 Z M 40.65625 92.375 " clip-rule="nonzero"/></clipPath><clipPath id="da41b15c8a"><path d="M 83.558594 51.277344 L 1041.441406 51.277344 C 1064.636719 51.277344 1083.441406 70.078125 1083.441406 93.277344 L 1083.441406 1051.160156 C 1083.441406 1074.355469 1064.636719 1093.160156 1041.441406 1093.160156 L 83.558594 1093.160156 C 60.363281 1093.160156 41.558594 1074.355469 41.558594 1051.160156 L 41.558594 93.277344 C 41.558594 70.078125 60.363281 51.277344 83.558594 51.277344 Z M 83.558594 51.277344 " clip-rule="nonzero"/></clipPath><clipPath id="29ae4e410f"><path d="M 988 998 L 1083.90625 998 L 1083.90625 1093.625 L 988 1093.625 Z M 988 998 " clip-rule="nonzero"/></clipPath><clipPath id="797a563b72"><path d="M 40.65625 92.375 L 40.65625 1052.0625 C 40.65625 1075.257812 59.460938 1094.0625 82.65625 1094.0625 L 1042.34375 1094.0625 C 1065.539062 1094.0625 1084.34375 1075.257812 1084.34375 1052.0625 L 1084.34375 92.375 C 1084.34375 69.179688 1065.539062 50.375 1042.34375 50.375 L 82.65625 50.375 C 59.460938 50.375 40.65625 69.179688 40.65625 92.375 Z M 40.65625 92.375 " clip-rule="nonzero"/></clipPath><clipPath id="c1d171902a"><path d="M 83.558594 51.277344 L 1041.441406 51.277344 C 1064.636719 51.277344 1083.441406 70.078125 1083.441406 93.277344 L 1083.441406 1051.160156 C 1083.441406 1074.355469 1064.636719 1093.160156 1041.441406 1093.160156 L 83.558594 1093.160156 C 60.363281 1093.160156 41.558594 1074.355469 41.558594 1051.160156 L 41.558594 93.277344 C 41.558594 70.078125 60.363281 51.277344 83.558594 51.277344 Z M 83.558594 51.277344 " clip-rule="nonzero"/></clipPath><clipPath id="bc458e2638"><path d="M 41.40625 998 L 137 998 L 137 1093.625 L 41.40625 1093.625 Z M 41.40625 998 " clip-rule="nonzero"/></clipPath><clipPath id="bb3061d638"><path d="M 40.65625 92.375 L 40.65625 1052.0625 C 40.65625 1075.257812 59.460938 1094.0625 82.65625 1094.0625 L 1042.34375 1094.0625 C 1065.539062 1094.0625 1084.34375 1075.257812 1084.34375 1052.0625 L 1084.34375 92.375 C 1084.34375 69.179688 1065.539062 50.375 1042.34375 50.375 L 82.65625 50.375 C 59.460938 50.375 40.65625 69.179688 40.65625 92.375 Z M 40.65625 92.375 " clip-rule="nonzero"/></clipPath><clipPath id="f2effe7a58"><path d="M 83.558594 51.277344 L 1041.441406 51.277344 C 1064.636719 51.277344 1083.441406 70.078125 1083.441406 93.277344 L 1083.441406 1051.160156 C 1083.441406 1074.355469 1064.636719 1093.160156 1041.441406 1093.160156 L 83.558594 1093.160156 C 60.363281 1093.160156 41.558594 1074.355469 41.558594 1051.160156 L 41.558594 93.277344 C 41.558594 70.078125 60.363281 51.277344 83.558594 51.277344 Z M 83.558594 51.277344 " clip-rule="nonzero"/></clipPath><clipPath id="35b2c5a96a"><path d="M 40.65625 50.375 L 1084.65625 50.375 L 1084.65625 1094.375 L 40.65625 1094.375 Z M 40.65625 50.375 " clip-rule="nonzero"/></clipPath><clipPath id="020ca5098a"><path d="M 40.65625 92.375 L 40.65625 1052.0625 C 40.65625 1075.257812 59.460938 1094.0625 82.65625 1094.0625 L 1042.34375 1094.0625 C 1065.539062 1094.0625 1084.34375 1075.257812 1084.34375 1052.0625 L 1084.34375 92.375 C 1084.34375 69.179688 1065.539062 50.375 1042.34375 50.375 L 82.65625 50.375 C 59.460938 50.375 40.65625 69.179688 40.65625 92.375 Z M 40.65625 92.375 " clip-rule="nonzero"/></clipPath><clipPath id="fb4e812b88"><path d="M 40.65625 92.375 L 40.65625 1052.058594 C 40.65625 1075.253906 59.460938 1094.058594 82.65625 1094.058594 L 1042.339844 1094.058594 C 1065.535156 1094.058594 1084.339844 1075.253906 1084.339844 1052.058594 L 1084.339844 92.375 C 1084.339844 69.179688 1065.535156 50.375 1042.339844 50.375 L 82.65625 50.375 C 59.460938 50.375 40.65625 69.179688 40.65625 92.375 Z M 40.65625 92.375 " clip-rule="nonzero"/></clipPath></defs><g clip-path="url(#db894870a4)"><path fill="#fc6a1f" d="M 562.910156 839.09375 C 562.910156 851.21875 553.042969 861.089844 540.914062 861.089844 C 528.816406 861.089844 518.96875 851.21875 518.96875 839.09375 C 518.96875 826.964844 528.8125 817.097656 540.914062 817.097656 C 553.042969 817.097656 562.910156 826.964844 562.910156 839.09375 Z M 593.671875 476.046875 C 587.054688 484.050781 576.25 493.59375 562.34375 493.59375 C 548.480469 493.59375 537.679688 484.050781 531.066406 476.046875 C 526.601562 470.640625 518.597656 469.882812 513.195312 474.351562 C 507.789062 478.816406 507.03125 486.816406 511.5 492.222656 C 525.96875 509.726562 543.550781 518.980469 562.34375 518.980469 C 580.902344 518.980469 598.976562 509.476562 613.238281 492.222656 C 617.707031 486.816406 616.945312 478.816406 611.542969 474.351562 C 606.140625 469.886719 598.140625 470.644531 593.671875 476.046875 Z M 420.09375 385.257812 C 398.328125 385.257812 380.625 402.964844 380.625 424.726562 C 380.625 431.738281 386.304688 437.421875 393.316406 437.421875 C 400.328125 437.421875 406.011719 431.738281 406.011719 424.726562 C 406.011719 416.960938 412.328125 410.644531 420.089844 410.644531 C 427.855469 410.644531 434.171875 416.960938 434.171875 424.726562 C 434.171875 431.738281 439.855469 437.421875 446.863281 437.421875 C 453.875 437.421875 459.558594 431.738281 459.558594 424.726562 C 459.5625 402.964844 441.855469 385.257812 420.09375 385.257812 Z M 690.566406 424.726562 C 690.566406 416.960938 696.882812 410.644531 704.644531 410.644531 C 712.410156 410.644531 718.726562 416.960938 718.726562 424.726562 C 718.726562 431.738281 724.410156 437.421875 731.417969 437.421875 C 738.429688 437.421875 744.113281 431.738281 744.113281 424.726562 C 744.113281 402.964844 726.40625 385.257812 704.644531 385.257812 C 682.878906 385.257812 665.175781 402.964844 665.175781 424.726562 C 665.175781 431.738281 670.859375 437.421875 677.867188 437.421875 C 684.878906 437.421875 690.566406 431.738281 690.566406 424.726562 Z M 957.128906 770.332031 L 957.128906 890.484375 C 957.128906 891.574219 956.988281 892.65625 956.710938 893.710938 C 937.957031 965.054688 892.0625 1013.167969 816.40625 1040.800781 C 815 1041.316406 813.527344 1041.570312 812.050781 1041.570312 C 810.578125 1041.570312 809.101562 1041.3125 807.695312 1040.800781 C 767.304688 1026.039062 735.410156 1005.429688 711.59375 978.570312 C 672.28125 1018.773438 618.699219 1041.570312 562.34375 1041.570312 C 447.039062 1041.570312 353.234375 947.761719 353.234375 832.460938 L 353.234375 672.09375 C 310.367188 634.710938 277.574219 586.058594 259.496094 530.800781 C 208.503906 528.042969 167.867188 485.695312 167.867188 434.027344 C 167.867188 382.882812 207.695312 340.890625 257.964844 337.371094 C 268.636719 302.921875 285.226562 270.394531 307.371094 240.875 C 347.605469 187.25 404.875 146.921875 468.628906 127.320312 C 516.726562 112.570312 566.132812 119.0625 600.796875 144.6875 C 630.878906 166.925781 647.449219 201.898438 647.449219 243.164062 C 647.449219 308.300781 591.402344 349.066406 537.21875 350.847656 C 488.707031 352.402344 454.113281 323.359375 451.160156 278.476562 C 449.9375 259.820312 456.542969 241.773438 469.761719 227.660156 C 483.996094 212.464844 504.140625 203.746094 525.035156 203.746094 C 546.824219 203.746094 567.417969 213.328125 581.546875 230.035156 C 586.070312 235.386719 585.402344 243.394531 580.046875 247.925781 C 574.695312 252.449219 566.6875 251.777344 562.160156 246.425781 C 552.867188 235.4375 539.335938 229.136719 525.035156 229.136719 C 511.136719 229.136719 497.742188 234.921875 488.289062 245.015625 C 479.925781 253.945312 475.734375 265.242188 476.496094 276.816406 C 478.941406 314.0625 509.027344 326.367188 536.382812 325.472656 C 578.496094 324.089844 622.0625 292.925781 622.0625 243.164062 C 622.0625 209.679688 609.488281 182.6875 585.703125 165.101562 C 557.488281 144.242188 516.507812 139.191406 476.082031 151.59375 C 352.316406 189.640625 269.160156 302.296875 269.160156 431.921875 C 269.160156 593.613281 400.683594 725.15625 562.34375 725.15625 C 724.035156 725.15625 855.582031 593.613281 855.582031 431.921875 C 855.582031 290.125 754.492188 168.8125 615.214844 143.464844 C 608.316406 142.210938 603.742188 135.601562 605 128.703125 C 606.253906 121.808594 612.867188 117.238281 619.757812 118.488281 C 738.898438 140.167969 832.308594 226.46875 866.679688 337.367188 C 916.992188 340.839844 956.871094 382.851562 956.871094 434.03125 C 956.871094 485.699219 916.234375 528.046875 865.242188 530.804688 C 847.152344 586.074219 814.34375 634.738281 771.453125 672.125 L 771.453125 718.953125 L 807.230469 704.265625 C 810.320312 703 813.785156 703 816.871094 704.265625 L 949.253906 758.585938 C 954.019531 760.542969 957.128906 765.179688 957.128906 770.332031 Z M 873.648438 363.824219 C 878.4375 385.828125 880.96875 408.617188 880.96875 431.921875 C 880.96875 456.851562 878.082031 481.117188 872.640625 504.414062 C 906.050781 498.402344 931.484375 469.140625 931.484375 434.027344 C 931.484375 399.269531 906.5625 370.234375 873.648438 363.824219 Z M 252.09375 504.414062 C 246.65625 481.117188 243.769531 456.851562 243.769531 431.921875 C 243.769531 408.753906 246.226562 385.96875 251.023438 363.835938 C 218.144531 370.269531 193.253906 399.289062 193.253906 434.027344 C 193.253906 469.140625 218.6875 498.402344 252.09375 504.414062 Z M 562.34375 1016.1875 C 592.101562 1016.1875 620.984375 1008.933594 646.800781 995.476562 L 496.921875 887.949219 C 481.15625 876.675781 472.460938 859.757812 472.460938 840.328125 C 472.460938 820.925781 481.144531 803.996094 496.910156 792.660156 L 555.734375 750.460938 C 489.890625 749.113281 428.894531 727.699219 378.621094 692.078125 L 378.621094 832.460938 C 378.621094 933.769531 461.039062 1016.1875 562.34375 1016.1875 Z M 695.917969 958.261719 C 683.257812 939.332031 673.789062 917.855469 667.445312 893.710938 C 667.167969 892.660156 667.027344 891.574219 667.027344 890.484375 L 667.027344 770.332031 C 667.027344 765.183594 670.136719 760.542969 674.902344 758.589844 L 746.066406 729.378906 L 746.066406 692.101562 C 704.507812 721.535156 655.621094 741.28125 602.726562 748 L 511.722656 813.28125 C 502.648438 819.804688 497.847656 829.160156 497.847656 840.332031 C 497.847656 851.503906 502.640625 860.832031 511.703125 867.3125 L 670.15625 980.992188 C 679.351562 974.28125 687.988281 966.6875 695.917969 958.261719 Z M 931.742188 778.84375 L 812.054688 729.734375 L 692.414062 778.84375 L 692.414062 888.820312 C 708.792969 949.300781 747.964844 990.734375 812.054688 1015.328125 C 876.171875 990.742188 915.363281 949.308594 931.742188 888.820312 Z M 787.691406 784.71875 L 836.464844 784.71875 C 843.472656 784.71875 849.15625 790.402344 849.15625 797.414062 L 849.15625 835.34375 L 887.082031 835.34375 C 894.09375 835.34375 899.777344 841.023438 899.777344 848.035156 L 899.777344 896.859375 C 899.777344 903.867188 894.09375 909.550781 887.082031 909.550781 L 849.15625 909.550781 L 849.15625 947.476562 C 849.15625 954.488281 843.472656 960.171875 836.464844 960.171875 L 787.691406 960.171875 C 780.683594 960.171875 775 954.488281 775 947.476562 L 775 909.550781 L 737.023438 909.550781 C 730.011719 909.550781 724.328125 903.871094 724.328125 896.859375 L 724.328125 848.035156 C 724.328125 841.027344 730.011719 835.34375 737.023438 835.34375 L 775 835.34375 L 775 797.414062 C 775 790.402344 780.683594 784.71875 787.691406 784.71875 Z M 787.691406 860.730469 L 749.714844 860.730469 L 749.714844 884.164062 L 787.691406 884.164062 C 794.703125 884.164062 800.386719 889.84375 800.386719 896.859375 L 800.386719 934.78125 L 823.769531 934.78125 L 823.769531 896.859375 C 823.769531 889.847656 829.453125 884.164062 836.464844 884.164062 L 874.390625 884.164062 L 874.390625 860.730469 L 836.464844 860.730469 C 829.453125 860.730469 823.769531 855.046875 823.769531 848.035156 L 823.769531 810.109375 L 800.386719 810.109375 L 800.386719 848.035156 C 800.386719 855.046875 794.703125 860.730469 787.691406 860.730469 Z M 787.691406 860.730469 " fill-opacity="1" fill-rule="nonzero"/></g><g clip-path="url(#302089890f)"><g clip-path="url(#2277d03acc)"><g clip-path="url(#65c3cfab74)"><path fill="#fc6a1f" d="M 1053.15625 146.011719 L 1084.339844 146.011719 L 1084.339844 998.421875 L 1053.15625 998.421875 Z M 1053.15625 146.011719 " fill-opacity="1" fill-rule="nonzero"/></g></g></g><g clip-path="url(#dd63d2110e)"><g clip-path="url(#13567ae4a4)"><g clip-path="url(#1992235038)"><path fill="#fc6a1f" d="M 40.65625 146.011719 L 71.84375 146.011719 L 71.84375 998.421875 L 40.65625 998.421875 Z M 40.65625 146.011719 " fill-opacity="1" fill-rule="nonzero"/></g></g></g><g clip-path="url(#b5433742c2)"><g clip-path="url(#bb972078f5)"><g clip-path="url(#557b48db8e)"><path fill="#fc6a1f" d="M 136.292969 50.375 L 988.703125 50.375 L 988.703125 81.5625 L 136.292969 81.5625 Z M 136.292969 50.375 " fill-opacity="1" fill-rule="nonzero"/></g></g></g><g clip-path="url(#681b074222)"><g clip-path="url(#fd4dfe8077)"><g clip-path="url(#1b4892668b)"><path fill="#fc6a1f" d="M 136.292969 1062.875 L 988.703125 1062.875 L 988.703125 1094.058594 L 136.292969 1094.058594 Z M 136.292969 1062.875 " fill-opacity="1" fill-rule="nonzero"/></g></g></g><g clip-path="url(#3710c7e056)"><g clip-path="url(#b7cafd81a3)"><g clip-path="url(#d24c884c9f)"><path fill="#fc6a1f" d="M 1053.15625 81.5625 L 1053.15625 146.011719 L 1084.339844 146.011719 L 1084.339844 50.375 L 988.703125 50.375 L 988.703125 81.5625 Z M 1053.15625 81.5625 " fill-opacity="1" fill-rule="nonzero"/></g></g></g><g clip-path="url(#7b58595c46)"><g clip-path="url(#84ffdb097e)"><g clip-path="url(#da41b15c8a)"><path fill="#fc6a1f" d="M 71.84375 81.5625 L 136.292969 81.5625 L 136.292969 50.375 L 40.65625 50.375 L 40.65625 146.011719 L 71.84375 146.011719 Z M 71.84375 81.5625 " fill-opacity="1" fill-rule="nonzero"/></g></g></g><g clip-path="url(#29ae4e410f)"><g clip-path="url(#797a563b72)"><g clip-path="url(#c1d171902a)"><path fill="#fc6a1f" d="M 1053.15625 1062.875 L 988.703125 1062.875 L 988.703125 1094.058594 L 1084.339844 1094.058594 L 1084.339844 998.421875 L 1053.15625 998.421875 Z M 1053.15625 1062.875 " fill-opacity="1" fill-rule="nonzero"/></g></g></g><g clip-path="url(#bc458e2638)"><g clip-path="url(#bb3061d638)"><g clip-path="url(#f2effe7a58)"><path fill="#fc6a1f" d="M 71.84375 1062.875 L 71.84375 998.421875 L 40.65625 998.421875 L 40.65625 1094.058594 L 136.292969 1094.058594 L 136.292969 1062.875 Z M 71.84375 1062.875 " fill-opacity="1" fill-rule="nonzero"/></g></g></g><g clip-path="url(#35b2c5a96a)"><g clip-path="url(#020ca5098a)"><g clip-path="url(#fb4e812b88)"><path stroke-linecap="butt" transform="matrix(0.75, 0, 0, 0.75, 40.657485, 50.375868)" fill="none" stroke-linejoin="miter" d="M -0.00164733 55.998848 L -0.00164733 1335.577083 C -0.00164733 1366.504169 25.071271 1391.577088 55.998357 1391.577088 L 1335.576593 1391.577088 C 1366.503679 1391.577088 1391.576597 1366.504169 1391.576597 1335.577083 L 1391.576597 55.998848 C 1391.576597 25.071762 1366.503679 -0.00115688 1335.576593 -0.00115688 L 55.998357 -0.00115688 C 25.071271 -0.00115688 -0.00164733 25.071762 -0.00164733 55.998848 Z M -0.00164733 55.998848 " stroke="#fc6a1f" stroke-width="66" stroke-opacity="1" stroke-miterlimit="4"/></g></g></g></svg>