<svg xmlns="http://www.w3.org/2000/svg" xmlns:xlink="http://www.w3.org/1999/xlink" width="1500" zoomAndPan="magnify" viewBox="0 0 1125 1124.99995" height="1500" preserveAspectRatio="xMidYMid meet" version="1.0"><defs><clipPath id="a9b8b8e735"><path d="M 1053 146 L 1083.90625 146 L 1083.90625 999 L 1053 999 Z M 1053 146 " clip-rule="nonzero"/></clipPath><clipPath id="feb4fbfb19"><path d="M 40.65625 92.375 L 40.65625 1052.0625 C 40.65625 1075.257812 59.460938 1094.0625 82.65625 1094.0625 L 1042.34375 1094.0625 C 1065.539062 1094.0625 1084.34375 1075.257812 1084.34375 1052.0625 L 1084.34375 92.375 C 1084.34375 69.179688 1065.539062 50.375 1042.34375 50.375 L 82.65625 50.375 C 59.460938 50.375 40.65625 69.179688 40.65625 92.375 Z M 40.65625 92.375 " clip-rule="nonzero"/></clipPath><clipPath id="a4aaf98716"><path d="M 83.558594 51.277344 L 1041.441406 51.277344 C 1064.636719 51.277344 1083.441406 70.078125 1083.441406 93.277344 L 1083.441406 1051.160156 C 1083.441406 1074.355469 1064.636719 1093.160156 1041.441406 1093.160156 L 83.558594 1093.160156 C 60.363281 1093.160156 41.558594 1074.355469 41.558594 1051.160156 L 41.558594 93.277344 C 41.558594 70.078125 60.363281 51.277344 83.558594 51.277344 Z M 83.558594 51.277344 " clip-rule="nonzero"/></clipPath><clipPath id="7a1a538134"><path d="M 41.40625 146 L 72 146 L 72 999 L 41.40625 999 Z M 41.40625 146 " clip-rule="nonzero"/></clipPath><clipPath id="224c806903"><path d="M 40.65625 92.375 L 40.65625 1052.0625 C 40.65625 1075.257812 59.460938 1094.0625 82.65625 1094.0625 L 1042.34375 1094.0625 C 1065.539062 1094.0625 1084.34375 1075.257812 1084.34375 1052.0625 L 1084.34375 92.375 C 1084.34375 69.179688 1065.539062 50.375 1042.34375 50.375 L 82.65625 50.375 C 59.460938 50.375 40.65625 69.179688 40.65625 92.375 Z M 40.65625 92.375 " clip-rule="nonzero"/></clipPath><clipPath id="179c4af18e"><path d="M 83.558594 51.277344 L 1041.441406 51.277344 C 1064.636719 51.277344 1083.441406 70.078125 1083.441406 93.277344 L 1083.441406 1051.160156 C 1083.441406 1074.355469 1064.636719 1093.160156 1041.441406 1093.160156 L 83.558594 1093.160156 C 60.363281 1093.160156 41.558594 1074.355469 41.558594 1051.160156 L 41.558594 93.277344 C 41.558594 70.078125 60.363281 51.277344 83.558594 51.277344 Z M 83.558594 51.277344 " clip-rule="nonzero"/></clipPath><clipPath id="6816b6cc7f"><path d="M 136 51.125 L 989 51.125 L 989 82 L 136 82 Z M 136 51.125 " clip-rule="nonzero"/></clipPath><clipPath id="bbd6684ca3"><path d="M 40.65625 92.375 L 40.65625 1052.0625 C 40.65625 1075.257812 59.460938 1094.0625 82.65625 1094.0625 L 1042.34375 1094.0625 C 1065.539062 1094.0625 1084.34375 1075.257812 1084.34375 1052.0625 L 1084.34375 92.375 C 1084.34375 69.179688 1065.539062 50.375 1042.34375 50.375 L 82.65625 50.375 C 59.460938 50.375 40.65625 69.179688 40.65625 92.375 Z M 40.65625 92.375 " clip-rule="nonzero"/></clipPath><clipPath id="2abce7e0fb"><path d="M 83.558594 51.277344 L 1041.441406 51.277344 C 1064.636719 51.277344 1083.441406 70.078125 1083.441406 93.277344 L 1083.441406 1051.160156 C 1083.441406 1074.355469 1064.636719 1093.160156 1041.441406 1093.160156 L 83.558594 1093.160156 C 60.363281 1093.160156 41.558594 1074.355469 41.558594 1051.160156 L 41.558594 93.277344 C 41.558594 70.078125 60.363281 51.277344 83.558594 51.277344 Z M 83.558594 51.277344 " clip-rule="nonzero"/></clipPath><clipPath id="de503bee25"><path d="M 136 1062 L 989 1062 L 989 1093.625 L 136 1093.625 Z M 136 1062 " clip-rule="nonzero"/></clipPath><clipPath id="24836cb3f9"><path d="M 40.65625 92.375 L 40.65625 1052.0625 C 40.65625 1075.257812 59.460938 1094.0625 82.65625 1094.0625 L 1042.34375 1094.0625 C 1065.539062 1094.0625 1084.34375 1075.257812 1084.34375 1052.0625 L 1084.34375 92.375 C 1084.34375 69.179688 1065.539062 50.375 1042.34375 50.375 L 82.65625 50.375 C 59.460938 50.375 40.65625 69.179688 40.65625 92.375 Z M 40.65625 92.375 " clip-rule="nonzero"/></clipPath><clipPath id="b6a29d66ae"><path d="M 83.558594 51.277344 L 1041.441406 51.277344 C 1064.636719 51.277344 1083.441406 70.078125 1083.441406 93.277344 L 1083.441406 1051.160156 C 1083.441406 1074.355469 1064.636719 1093.160156 1041.441406 1093.160156 L 83.558594 1093.160156 C 60.363281 1093.160156 41.558594 1074.355469 41.558594 1051.160156 L 41.558594 93.277344 C 41.558594 70.078125 60.363281 51.277344 83.558594 51.277344 Z M 83.558594 51.277344 " clip-rule="nonzero"/></clipPath><clipPath id="3fb3455f86"><path d="M 988 51.125 L 1083.90625 51.125 L 1083.90625 147 L 988 147 Z M 988 51.125 " clip-rule="nonzero"/></clipPath><clipPath id="283c4c2a56"><path d="M 40.65625 92.375 L 40.65625 1052.0625 C 40.65625 1075.257812 59.460938 1094.0625 82.65625 1094.0625 L 1042.34375 1094.0625 C 1065.539062 1094.0625 1084.34375 1075.257812 1084.34375 1052.0625 L 1084.34375 92.375 C 1084.34375 69.179688 1065.539062 50.375 1042.34375 50.375 L 82.65625 50.375 C 59.460938 50.375 40.65625 69.179688 40.65625 92.375 Z M 40.65625 92.375 " clip-rule="nonzero"/></clipPath><clipPath id="416a84c142"><path d="M 83.558594 51.277344 L 1041.441406 51.277344 C 1064.636719 51.277344 1083.441406 70.078125 1083.441406 93.277344 L 1083.441406 1051.160156 C 1083.441406 1074.355469 1064.636719 1093.160156 1041.441406 1093.160156 L 83.558594 1093.160156 C 60.363281 1093.160156 41.558594 1074.355469 41.558594 1051.160156 L 41.558594 93.277344 C 41.558594 70.078125 60.363281 51.277344 83.558594 51.277344 Z M 83.558594 51.277344 " clip-rule="nonzero"/></clipPath><clipPath id="80a8f94d9c"><path d="M 41.40625 51.125 L 137 51.125 L 137 147 L 41.40625 147 Z M 41.40625 51.125 " clip-rule="nonzero"/></clipPath><clipPath id="094688f8ca"><path d="M 40.65625 92.375 L 40.65625 1052.0625 C 40.65625 1075.257812 59.460938 1094.0625 82.65625 1094.0625 L 1042.34375 1094.0625 C 1065.539062 1094.0625 1084.34375 1075.257812 1084.34375 1052.0625 L 1084.34375 92.375 C 1084.34375 69.179688 1065.539062 50.375 1042.34375 50.375 L 82.65625 50.375 C 59.460938 50.375 40.65625 69.179688 40.65625 92.375 Z M 40.65625 92.375 " clip-rule="nonzero"/></clipPath><clipPath id="a4e2e5d8c7"><path d="M 83.558594 51.277344 L 1041.441406 51.277344 C 1064.636719 51.277344 1083.441406 70.078125 1083.441406 93.277344 L 1083.441406 1051.160156 C 1083.441406 1074.355469 1064.636719 1093.160156 1041.441406 1093.160156 L 83.558594 1093.160156 C 60.363281 1093.160156 41.558594 1074.355469 41.558594 1051.160156 L 41.558594 93.277344 C 41.558594 70.078125 60.363281 51.277344 83.558594 51.277344 Z M 83.558594 51.277344 " clip-rule="nonzero"/></clipPath><clipPath id="6dba958410"><path d="M 988 998 L 1083.90625 998 L 1083.90625 1093.625 L 988 1093.625 Z M 988 998 " clip-rule="nonzero"/></clipPath><clipPath id="7470a61cb5"><path d="M 40.65625 92.375 L 40.65625 1052.0625 C 40.65625 1075.257812 59.460938 1094.0625 82.65625 1094.0625 L 1042.34375 1094.0625 C 1065.539062 1094.0625 1084.34375 1075.257812 1084.34375 1052.0625 L 1084.34375 92.375 C 1084.34375 69.179688 1065.539062 50.375 1042.34375 50.375 L 82.65625 50.375 C 59.460938 50.375 40.65625 69.179688 40.65625 92.375 Z M 40.65625 92.375 " clip-rule="nonzero"/></clipPath><clipPath id="665e43422b"><path d="M 83.558594 51.277344 L 1041.441406 51.277344 C 1064.636719 51.277344 1083.441406 70.078125 1083.441406 93.277344 L 1083.441406 1051.160156 C 1083.441406 1074.355469 1064.636719 1093.160156 1041.441406 1093.160156 L 83.558594 1093.160156 C 60.363281 1093.160156 41.558594 1074.355469 41.558594 1051.160156 L 41.558594 93.277344 C 41.558594 70.078125 60.363281 51.277344 83.558594 51.277344 Z M 83.558594 51.277344 " clip-rule="nonzero"/></clipPath><clipPath id="cfb56324ee"><path d="M 41.40625 998 L 137 998 L 137 1093.625 L 41.40625 1093.625 Z M 41.40625 998 " clip-rule="nonzero"/></clipPath><clipPath id="ddc1b402cc"><path d="M 40.65625 92.375 L 40.65625 1052.0625 C 40.65625 1075.257812 59.460938 1094.0625 82.65625 1094.0625 L 1042.34375 1094.0625 C 1065.539062 1094.0625 1084.34375 1075.257812 1084.34375 1052.0625 L 1084.34375 92.375 C 1084.34375 69.179688 1065.539062 50.375 1042.34375 50.375 L 82.65625 50.375 C 59.460938 50.375 40.65625 69.179688 40.65625 92.375 Z M 40.65625 92.375 " clip-rule="nonzero"/></clipPath><clipPath id="98220c2a3b"><path d="M 83.558594 51.277344 L 1041.441406 51.277344 C 1064.636719 51.277344 1083.441406 70.078125 1083.441406 93.277344 L 1083.441406 1051.160156 C 1083.441406 1074.355469 1064.636719 1093.160156 1041.441406 1093.160156 L 83.558594 1093.160156 C 60.363281 1093.160156 41.558594 1074.355469 41.558594 1051.160156 L 41.558594 93.277344 C 41.558594 70.078125 60.363281 51.277344 83.558594 51.277344 Z M 83.558594 51.277344 " clip-rule="nonzero"/></clipPath><clipPath id="5b3b01f058"><path d="M 40.65625 50.375 L 1084.65625 50.375 L 1084.65625 1094.375 L 40.65625 1094.375 Z M 40.65625 50.375 " clip-rule="nonzero"/></clipPath><clipPath id="decb57a687"><path d="M 40.65625 92.375 L 40.65625 1052.0625 C 40.65625 1075.257812 59.460938 1094.0625 82.65625 1094.0625 L 1042.34375 1094.0625 C 1065.539062 1094.0625 1084.34375 1075.257812 1084.34375 1052.0625 L 1084.34375 92.375 C 1084.34375 69.179688 1065.539062 50.375 1042.34375 50.375 L 82.65625 50.375 C 59.460938 50.375 40.65625 69.179688 40.65625 92.375 Z M 40.65625 92.375 " clip-rule="nonzero"/></clipPath><clipPath id="aa9cec32eb"><path d="M 40.65625 92.375 L 40.65625 1052.058594 C 40.65625 1075.253906 59.460938 1094.058594 82.65625 1094.058594 L 1042.339844 1094.058594 C 1065.535156 1094.058594 1084.339844 1075.253906 1084.339844 1052.058594 L 1084.339844 92.375 C 1084.339844 69.179688 1065.535156 50.375 1042.339844 50.375 L 82.65625 50.375 C 59.460938 50.375 40.65625 69.179688 40.65625 92.375 Z M 40.65625 92.375 " clip-rule="nonzero"/></clipPath><clipPath id="e0842cefee"><path d="M 406 185.542969 L 870 185.542969 L 870 899 L 406 899 Z M 406 185.542969 " clip-rule="nonzero"/></clipPath><clipPath id="77f7f36eea"><path d="M 192.261719 415 L 932.511719 415 L 932.511719 958.792969 L 192.261719 958.792969 Z M 192.261719 415 " clip-rule="nonzero"/></clipPath></defs><g clip-path="url(#a9b8b8e735)"><g clip-path="url(#feb4fbfb19)"><g clip-path="url(#a4aaf98716)"><path fill="#fc6a1f" d="M 1053.15625 146.011719 L 1084.339844 146.011719 L 1084.339844 998.421875 L 1053.15625 998.421875 Z M 1053.15625 146.011719 " fill-opacity="1" fill-rule="nonzero"/></g></g></g><g clip-path="url(#7a1a538134)"><g clip-path="url(#224c806903)"><g clip-path="url(#179c4af18e)"><path fill="#fc6a1f" d="M 40.65625 146.011719 L 71.84375 146.011719 L 71.84375 998.421875 L 40.65625 998.421875 Z M 40.65625 146.011719 " fill-opacity="1" fill-rule="nonzero"/></g></g></g><g clip-path="url(#6816b6cc7f)"><g clip-path="url(#bbd6684ca3)"><g clip-path="url(#2abce7e0fb)"><path fill="#fc6a1f" d="M 136.292969 50.375 L 988.703125 50.375 L 988.703125 81.5625 L 136.292969 81.5625 Z M 136.292969 50.375 " fill-opacity="1" fill-rule="nonzero"/></g></g></g><g clip-path="url(#de503bee25)"><g clip-path="url(#24836cb3f9)"><g clip-path="url(#b6a29d66ae)"><path fill="#fc6a1f" d="M 136.292969 1062.875 L 988.703125 1062.875 L 988.703125 1094.058594 L 136.292969 1094.058594 Z M 136.292969 1062.875 " fill-opacity="1" fill-rule="nonzero"/></g></g></g><g clip-path="url(#3fb3455f86)"><g clip-path="url(#283c4c2a56)"><g clip-path="url(#416a84c142)"><path fill="#fc6a1f" d="M 1053.15625 81.5625 L 1053.15625 146.011719 L 1084.339844 146.011719 L 1084.339844 50.375 L 988.703125 50.375 L 988.703125 81.5625 Z M 1053.15625 81.5625 " fill-opacity="1" fill-rule="nonzero"/></g></g></g><g clip-path="url(#80a8f94d9c)"><g clip-path="url(#094688f8ca)"><g clip-path="url(#a4e2e5d8c7)"><path fill="#fc6a1f" d="M 71.84375 81.5625 L 136.292969 81.5625 L 136.292969 50.375 L 40.65625 50.375 L 40.65625 146.011719 L 71.84375 146.011719 Z M 71.84375 81.5625 " fill-opacity="1" fill-rule="nonzero"/></g></g></g><g clip-path="url(#6dba958410)"><g clip-path="url(#7470a61cb5)"><g clip-path="url(#665e43422b)"><path fill="#fc6a1f" d="M 1053.15625 1062.875 L 988.703125 1062.875 L 988.703125 1094.058594 L 1084.339844 1094.058594 L 1084.339844 998.421875 L 1053.15625 998.421875 Z M 1053.15625 1062.875 " fill-opacity="1" fill-rule="nonzero"/></g></g></g><g clip-path="url(#cfb56324ee)"><g clip-path="url(#ddc1b402cc)"><g clip-path="url(#98220c2a3b)"><path fill="#fc6a1f" d="M 71.84375 1062.875 L 71.84375 998.421875 L 40.65625 998.421875 L 40.65625 1094.058594 L 136.292969 1094.058594 L 136.292969 1062.875 Z M 71.84375 1062.875 " fill-opacity="1" fill-rule="nonzero"/></g></g></g><g clip-path="url(#5b3b01f058)"><g clip-path="url(#decb57a687)"><g clip-path="url(#aa9cec32eb)"><path stroke-linecap="butt" transform="matrix(0.75, 0, 0, 0.75, 40.657485, 50.375868)" fill="none" stroke-linejoin="miter" d="M -0.00164733 55.998848 L -0.00164733 1335.577083 C -0.00164733 1366.504169 25.071271 1391.577088 55.998357 1391.577088 L 1335.576593 1391.577088 C 1366.503679 1391.577088 1391.576597 1366.504169 1391.576597 1335.577083 L 1391.576597 55.998848 C 1391.576597 25.071762 1366.503679 -0.00115688 1335.576593 -0.00115688 L 55.998357 -0.00115688 C 25.071271 -0.00115688 -0.00164733 25.071762 -0.00164733 55.998848 Z M -0.00164733 55.998848 " stroke="#fc6a1f" stroke-width="66" stroke-opacity="1" stroke-miterlimit="4"/></g></g></g><g clip-path="url(#e0842cefee)"><path fill="#fc6a1f" d="M 644.976562 612.308594 L 679.179688 705.222656 C 680.035156 707.4375 681.746094 709.171875 684.050781 710.027344 L 837.027344 766.582031 C 843.457031 768.976562 848.261719 772.398438 850.652344 776.171875 C 852.980469 779.945312 853.835938 784.070312 851.332031 791.175781 L 834.550781 839.332031 C 832.488281 845.34375 828.714844 847.558594 823.492188 847.824219 C 818.269531 848.152344 811.753906 845.761719 806.601562 839.683594 L 784.417969 813.445312 C 783.476562 812.4375 782.269531 811.582031 780.910156 811.140625 L 646.007812 761.1875 C 637.605469 758.003906 631 751.488281 627.929688 743.023438 L 596.644531 658.074219 Z M 654.234375 438.445312 L 665.796875 443.664062 L 659.367188 466.636719 Z M 459.351562 419.246094 C 462.445312 419.335938 465.539062 420.015625 468.519531 421.464844 L 523.542969 448.382812 L 532.890625 500.222656 L 449.9375 459.679688 C 439.210938 454.460938 434.84375 441.953125 440.15625 431.3125 C 443.929688 423.613281 451.386719 419.246094 459.351562 419.246094 Z M 576 341.695312 C 588.328125 341.519531 599.5625 348.714844 613.953125 355.230469 L 719.699219 403.121094 C 729.398438 407.511719 734.289062 418.039062 731.371094 428.242188 L 696.226562 553.863281 C 693.066406 565.273438 681.480469 571.789062 670.097656 568.609375 C 658.6875 565.449219 652.082031 553.863281 655.265625 542.390625 L 683.632812 441.273438 C 684.75 437.324219 682.777344 433.199219 679.089844 431.488281 L 605.8125 398.339844 C 601.710938 396.453125 596.734375 398.339844 594.933594 402.441406 C 593.046875 406.632812 594.84375 411.523438 598.96875 413.410156 L 636.070312 430.21875 L 649.1875 502.789062 L 639.402344 537.9375 C 634.09375 556.78125 645.0625 572.644531 654.585938 579.488281 C 653.203125 581.464844 651.753906 583.261719 650.285156 584.734375 L 643.351562 591.25 C 604.871094 627.578125 566.390625 663.910156 527.910156 700.242188 C 526.550781 701.535156 525.605469 703.335938 525.429688 705.222656 L 506.234375 859.386719 C 505.292969 866.757812 503.40625 872.835938 500.75 876.367188 C 498.09375 879.875 495.089844 881.761719 487.628906 881.851562 C 474.359375 881.851562 453.691406 881.761719 436.644531 881.761719 C 430.390625 881.761719 426.707031 878.757812 424.644531 873.863281 C 422.515625 869.082031 422.667969 862.304688 426.882812 855.875 L 448.050781 824.085938 C 448.734375 823.054688 449.148438 821.847656 449.324219 820.574219 L 466.394531 683.875 C 467.25 676.765625 470.585938 670.25 475.71875 665.359375 L 561.082031 584.644531 C 563.054688 582.757812 564.085938 579.929688 563.5625 577.183594 L 531.355469 399.109375 C 526.550781 372.453125 544.035156 347.089844 570.667969 342.199219 C 572.488281 341.847656 574.441406 341.695312 576 341.695312 Z M 538.464844 201.746094 C 542.238281 201.746094 545.988281 201.988281 549.761719 202.6875 C 584.644531 208.765625 607.703125 241.675781 601.710938 276.292969 C 595.613281 311 562.707031 333.972656 527.910156 327.980469 C 493.027344 321.882812 469.816406 289.0625 475.890625 254.441406 C 481.289062 223.507812 508.121094 201.832031 538.464844 201.746094 Z M 538.464844 185.378906 C 500.3125 185.445312 466.546875 212.867188 459.789062 251.613281 C 452.15625 295.074219 481.464844 336.625 525.078125 344.171875 C 527.492188 344.589844 529.882812 344.941406 532.363281 345.117188 C 518.410156 359.769531 511.367188 380.679688 515.230469 402.027344 L 519.945312 428.15625 L 475.890625 406.632812 C 457.222656 397.550781 434.496094 405.359375 425.324219 423.964844 C 416.175781 442.632812 423.964844 465.429688 442.65625 474.511719 L 536.578125 520.363281 L 546.601562 575.738281 L 464.417969 653.378906 C 456.519531 660.816406 451.386719 670.84375 450.003906 681.746094 L 433.308594 816.539062 L 413.257812 846.792969 C 406.125 857.5 405.117188 870.265625 409.484375 880.46875 C 413.761719 890.671875 424.140625 898.304688 436.644531 898.304688 C 453.691406 898.304688 474.445312 898.394531 487.804688 898.304688 C 499.214844 898.304688 508.539062 893.5 514.023438 886.214844 C 519.507812 878.933594 521.570312 870.179688 522.601562 861.449219 L 541.445312 710.179688 L 583.613281 670.339844 L 612.507812 748.746094 C 617.222656 761.691406 627.335938 771.894531 640.257812 776.699219 L 773.273438 825.796875 L 794.183594 850.390625 C 802.320312 860 813.554688 864.871094 824.523438 864.277344 C 835.40625 863.597656 846.023438 856.46875 850.148438 844.730469 L 866.933594 796.574219 C 870.707031 785.867188 869.519531 775.226562 864.453125 767.351562 C 859.496094 759.476562 851.507812 754.320312 842.777344 751.074219 L 693.21875 695.789062 L 658.007812 600.066406 L 661.605469 596.734375 C 665.113281 593.375 668.121094 589.601562 670.425781 585.5 C 685.34375 587.300781 706.074219 580.101562 712.175781 558.339844 L 747.300781 432.785156 C 752.367188 414.859375 743.527344 395.839844 726.566406 388.226562 L 620.820312 340.222656 C 611.5625 336.121094 601.539062 330.023438 589.953125 327.039062 C 604.191406 315.28125 614.394531 298.671875 617.816406 279.125 C 625.449219 235.683594 596.226562 194.109375 552.679688 186.476562 C 547.875 185.707031 543.09375 185.292969 538.464844 185.292969 Z M 538.464844 185.378906 " fill-opacity="1" fill-rule="nonzero"/></g><g clip-path="url(#77f7f36eea)"><path fill="#fc6a1f" d="M 218.375 924.433594 L 906.707031 924.433594 C 911.925781 924.433594 916.054688 928.382812 916.054688 933.515625 C 916.054688 938.652344 911.925781 942.597656 906.707031 942.597656 L 218.375 942.597656 C 213.152344 942.597656 209.117188 938.652344 209.117188 933.515625 C 209.117188 928.382812 213.152344 924.433594 218.375 924.433594 Z M 293.097656 500.664062 L 304.242188 508.976562 L 311.878906 514.703125 C 262.757812 620.625 236.453125 788.347656 267.648438 907.890625 L 244.085938 907.890625 C 212.449219 779.441406 240.730469 610.179688 293.097656 500.664062 Z M 262.339844 432.105469 C 264.90625 431.929688 267.472656 432.695312 269.710938 434.40625 C 277.234375 440.066406 308.433594 463.367188 327.804688 477.867188 C 347.179688 492.4375 378.375 515.824219 385.921875 521.394531 C 390.96875 525.167969 392 532.101562 388.136719 537.167969 C 384.363281 542.214844 377.34375 543.160156 372.210938 539.296875 L 256 452.398438 C 250.84375 448.558594 249.902344 441.601562 253.675781 436.644531 C 255.824219 433.726562 259.070312 432.191406 262.339844 432.105469 Z M 263.019531 415.648438 C 254.53125 415.648438 246.0625 419.421875 240.578125 426.621094 C 231.320312 438.859375 233.972656 456.347656 246.214844 465.515625 L 279.648438 490.546875 C 224.976562 602.808594 195.230469 773.515625 227.019531 907.890625 L 218.375 907.890625 C 204.3125 907.890625 192.574219 919.386719 192.574219 933.515625 C 192.574219 947.667969 204.3125 959.140625 218.375 959.140625 L 906.707031 959.140625 C 920.769531 959.140625 932.417969 947.667969 932.417969 933.515625 C 932.417969 919.386719 920.769531 907.890625 906.707031 907.890625 L 284.957031 907.890625 C 254.023438 795.28125 278.707031 628.347656 325.414062 524.90625 L 362.25 552.503906 C 374.511719 561.585938 392.085938 559.347656 401.34375 547.105469 C 410.601562 534.929688 408.011719 517.269531 395.683594 508.101562 C 388.402344 502.703125 357.027344 479.316406 337.65625 464.75 C 318.304688 450.269531 287.023438 426.773438 279.738281 421.289062 C 274.757812 417.535156 268.855469 415.738281 263.019531 415.648438 Z M 263.019531 415.648438 " fill-opacity="1" fill-rule="nonzero"/></g></svg>