<svg xmlns="http://www.w3.org/2000/svg" xmlns:xlink="http://www.w3.org/1999/xlink" width="1500" zoomAndPan="magnify" viewBox="0 0 1125 1124.99995" height="1500" preserveAspectRatio="xMidYMid meet" version="1.0"><defs><clipPath id="cd1b7d8438"><path d="M 1053 146 L 1083.90625 146 L 1083.90625 999 L 1053 999 Z M 1053 146 " clip-rule="nonzero"/></clipPath><clipPath id="675748d36c"><path d="M 40.65625 92.375 L 40.65625 1052.0625 C 40.65625 1075.257812 59.460938 1094.0625 82.65625 1094.0625 L 1042.34375 1094.0625 C 1065.539062 1094.0625 1084.34375 1075.257812 1084.34375 1052.0625 L 1084.34375 92.375 C 1084.34375 69.179688 1065.539062 50.375 1042.34375 50.375 L 82.65625 50.375 C 59.460938 50.375 40.65625 69.179688 40.65625 92.375 Z M 40.65625 92.375 " clip-rule="nonzero"/></clipPath><clipPath id="30bc938f05"><path d="M 83.558594 51.277344 L 1041.441406 51.277344 C 1064.636719 51.277344 1083.441406 70.082031 1083.441406 93.277344 L 1083.441406 1051.160156 C 1083.441406 1074.355469 1064.636719 1093.160156 1041.441406 1093.160156 L 83.558594 1093.160156 C 60.363281 1093.160156 41.558594 1074.355469 41.558594 1051.160156 L 41.558594 93.277344 C 41.558594 70.082031 60.363281 51.277344 83.558594 51.277344 Z M 83.558594 51.277344 " clip-rule="nonzero"/></clipPath><clipPath id="c249f9b12b"><path d="M 41.40625 146 L 72 146 L 72 999 L 41.40625 999 Z M 41.40625 146 " clip-rule="nonzero"/></clipPath><clipPath id="d7c76e01af"><path d="M 40.65625 92.375 L 40.65625 1052.0625 C 40.65625 1075.257812 59.460938 1094.0625 82.65625 1094.0625 L 1042.34375 1094.0625 C 1065.539062 1094.0625 1084.34375 1075.257812 1084.34375 1052.0625 L 1084.34375 92.375 C 1084.34375 69.179688 1065.539062 50.375 1042.34375 50.375 L 82.65625 50.375 C 59.460938 50.375 40.65625 69.179688 40.65625 92.375 Z M 40.65625 92.375 " clip-rule="nonzero"/></clipPath><clipPath id="971c735d2f"><path d="M 83.558594 51.277344 L 1041.441406 51.277344 C 1064.636719 51.277344 1083.441406 70.082031 1083.441406 93.277344 L 1083.441406 1051.160156 C 1083.441406 1074.355469 1064.636719 1093.160156 1041.441406 1093.160156 L 83.558594 1093.160156 C 60.363281 1093.160156 41.558594 1074.355469 41.558594 1051.160156 L 41.558594 93.277344 C 41.558594 70.082031 60.363281 51.277344 83.558594 51.277344 Z M 83.558594 51.277344 " clip-rule="nonzero"/></clipPath><clipPath id="99eb41b78f"><path d="M 136 51.125 L 989 51.125 L 989 82 L 136 82 Z M 136 51.125 " clip-rule="nonzero"/></clipPath><clipPath id="5f1924fe93"><path d="M 40.65625 92.375 L 40.65625 1052.0625 C 40.65625 1075.257812 59.460938 1094.0625 82.65625 1094.0625 L 1042.34375 1094.0625 C 1065.539062 1094.0625 1084.34375 1075.257812 1084.34375 1052.0625 L 1084.34375 92.375 C 1084.34375 69.179688 1065.539062 50.375 1042.34375 50.375 L 82.65625 50.375 C 59.460938 50.375 40.65625 69.179688 40.65625 92.375 Z M 40.65625 92.375 " clip-rule="nonzero"/></clipPath><clipPath id="111b0aa9ce"><path d="M 83.558594 51.277344 L 1041.441406 51.277344 C 1064.636719 51.277344 1083.441406 70.082031 1083.441406 93.277344 L 1083.441406 1051.160156 C 1083.441406 1074.355469 1064.636719 1093.160156 1041.441406 1093.160156 L 83.558594 1093.160156 C 60.363281 1093.160156 41.558594 1074.355469 41.558594 1051.160156 L 41.558594 93.277344 C 41.558594 70.082031 60.363281 51.277344 83.558594 51.277344 Z M 83.558594 51.277344 " clip-rule="nonzero"/></clipPath><clipPath id="9d655fc6de"><path d="M 136 1062 L 989 1062 L 989 1093.625 L 136 1093.625 Z M 136 1062 " clip-rule="nonzero"/></clipPath><clipPath id="477113cee8"><path d="M 40.65625 92.375 L 40.65625 1052.0625 C 40.65625 1075.257812 59.460938 1094.0625 82.65625 1094.0625 L 1042.34375 1094.0625 C 1065.539062 1094.0625 1084.34375 1075.257812 1084.34375 1052.0625 L 1084.34375 92.375 C 1084.34375 69.179688 1065.539062 50.375 1042.34375 50.375 L 82.65625 50.375 C 59.460938 50.375 40.65625 69.179688 40.65625 92.375 Z M 40.65625 92.375 " clip-rule="nonzero"/></clipPath><clipPath id="1f31d02221"><path d="M 83.558594 51.277344 L 1041.441406 51.277344 C 1064.636719 51.277344 1083.441406 70.082031 1083.441406 93.277344 L 1083.441406 1051.160156 C 1083.441406 1074.355469 1064.636719 1093.160156 1041.441406 1093.160156 L 83.558594 1093.160156 C 60.363281 1093.160156 41.558594 1074.355469 41.558594 1051.160156 L 41.558594 93.277344 C 41.558594 70.082031 60.363281 51.277344 83.558594 51.277344 Z M 83.558594 51.277344 " clip-rule="nonzero"/></clipPath><clipPath id="02eb7fcec9"><path d="M 988 51.125 L 1083.90625 51.125 L 1083.90625 147 L 988 147 Z M 988 51.125 " clip-rule="nonzero"/></clipPath><clipPath id="257067a150"><path d="M 40.65625 92.375 L 40.65625 1052.0625 C 40.65625 1075.257812 59.460938 1094.0625 82.65625 1094.0625 L 1042.34375 1094.0625 C 1065.539062 1094.0625 1084.34375 1075.257812 1084.34375 1052.0625 L 1084.34375 92.375 C 1084.34375 69.179688 1065.539062 50.375 1042.34375 50.375 L 82.65625 50.375 C 59.460938 50.375 40.65625 69.179688 40.65625 92.375 Z M 40.65625 92.375 " clip-rule="nonzero"/></clipPath><clipPath id="9117105535"><path d="M 83.558594 51.277344 L 1041.441406 51.277344 C 1064.636719 51.277344 1083.441406 70.082031 1083.441406 93.277344 L 1083.441406 1051.160156 C 1083.441406 1074.355469 1064.636719 1093.160156 1041.441406 1093.160156 L 83.558594 1093.160156 C 60.363281 1093.160156 41.558594 1074.355469 41.558594 1051.160156 L 41.558594 93.277344 C 41.558594 70.082031 60.363281 51.277344 83.558594 51.277344 Z M 83.558594 51.277344 " clip-rule="nonzero"/></clipPath><clipPath id="0e537dfea5"><path d="M 41.40625 51.125 L 137 51.125 L 137 147 L 41.40625 147 Z M 41.40625 51.125 " clip-rule="nonzero"/></clipPath><clipPath id="f80585cf99"><path d="M 40.65625 92.375 L 40.65625 1052.0625 C 40.65625 1075.257812 59.460938 1094.0625 82.65625 1094.0625 L 1042.34375 1094.0625 C 1065.539062 1094.0625 1084.34375 1075.257812 1084.34375 1052.0625 L 1084.34375 92.375 C 1084.34375 69.179688 1065.539062 50.375 1042.34375 50.375 L 82.65625 50.375 C 59.460938 50.375 40.65625 69.179688 40.65625 92.375 Z M 40.65625 92.375 " clip-rule="nonzero"/></clipPath><clipPath id="1a80e4fcb1"><path d="M 83.558594 51.277344 L 1041.441406 51.277344 C 1064.636719 51.277344 1083.441406 70.082031 1083.441406 93.277344 L 1083.441406 1051.160156 C 1083.441406 1074.355469 1064.636719 1093.160156 1041.441406 1093.160156 L 83.558594 1093.160156 C 60.363281 1093.160156 41.558594 1074.355469 41.558594 1051.160156 L 41.558594 93.277344 C 41.558594 70.082031 60.363281 51.277344 83.558594 51.277344 Z M 83.558594 51.277344 " clip-rule="nonzero"/></clipPath><clipPath id="b9fa39e0a3"><path d="M 988 998 L 1083.90625 998 L 1083.90625 1093.625 L 988 1093.625 Z M 988 998 " clip-rule="nonzero"/></clipPath><clipPath id="8cee7c3dfe"><path d="M 40.65625 92.375 L 40.65625 1052.0625 C 40.65625 1075.257812 59.460938 1094.0625 82.65625 1094.0625 L 1042.34375 1094.0625 C 1065.539062 1094.0625 1084.34375 1075.257812 1084.34375 1052.0625 L 1084.34375 92.375 C 1084.34375 69.179688 1065.539062 50.375 1042.34375 50.375 L 82.65625 50.375 C 59.460938 50.375 40.65625 69.179688 40.65625 92.375 Z M 40.65625 92.375 " clip-rule="nonzero"/></clipPath><clipPath id="1678dc0a0e"><path d="M 83.558594 51.277344 L 1041.441406 51.277344 C 1064.636719 51.277344 1083.441406 70.082031 1083.441406 93.277344 L 1083.441406 1051.160156 C 1083.441406 1074.355469 1064.636719 1093.160156 1041.441406 1093.160156 L 83.558594 1093.160156 C 60.363281 1093.160156 41.558594 1074.355469 41.558594 1051.160156 L 41.558594 93.277344 C 41.558594 70.082031 60.363281 51.277344 83.558594 51.277344 Z M 83.558594 51.277344 " clip-rule="nonzero"/></clipPath><clipPath id="8e3d0389fd"><path d="M 41.40625 998 L 137 998 L 137 1093.625 L 41.40625 1093.625 Z M 41.40625 998 " clip-rule="nonzero"/></clipPath><clipPath id="0c64d6032e"><path d="M 40.65625 92.375 L 40.65625 1052.0625 C 40.65625 1075.257812 59.460938 1094.0625 82.65625 1094.0625 L 1042.34375 1094.0625 C 1065.539062 1094.0625 1084.34375 1075.257812 1084.34375 1052.0625 L 1084.34375 92.375 C 1084.34375 69.179688 1065.539062 50.375 1042.34375 50.375 L 82.65625 50.375 C 59.460938 50.375 40.65625 69.179688 40.65625 92.375 Z M 40.65625 92.375 " clip-rule="nonzero"/></clipPath><clipPath id="4f3305c69f"><path d="M 83.558594 51.277344 L 1041.441406 51.277344 C 1064.636719 51.277344 1083.441406 70.082031 1083.441406 93.277344 L 1083.441406 1051.160156 C 1083.441406 1074.355469 1064.636719 1093.160156 1041.441406 1093.160156 L 83.558594 1093.160156 C 60.363281 1093.160156 41.558594 1074.355469 41.558594 1051.160156 L 41.558594 93.277344 C 41.558594 70.082031 60.363281 51.277344 83.558594 51.277344 Z M 83.558594 51.277344 " clip-rule="nonzero"/></clipPath><clipPath id="2dce16fb2a"><path d="M 40.65625 50.375 L 1084.65625 50.375 L 1084.65625 1094.375 L 40.65625 1094.375 Z M 40.65625 50.375 " clip-rule="nonzero"/></clipPath><clipPath id="e360f2a0b2"><path d="M 40.65625 92.375 L 40.65625 1052.0625 C 40.65625 1075.257812 59.460938 1094.0625 82.65625 1094.0625 L 1042.34375 1094.0625 C 1065.539062 1094.0625 1084.34375 1075.257812 1084.34375 1052.0625 L 1084.34375 92.375 C 1084.34375 69.179688 1065.539062 50.375 1042.34375 50.375 L 82.65625 50.375 C 59.460938 50.375 40.65625 69.179688 40.65625 92.375 Z M 40.65625 92.375 " clip-rule="nonzero"/></clipPath><clipPath id="587bc931bf"><path d="M 40.65625 92.375 L 40.65625 1052.058594 C 40.65625 1075.253906 59.460938 1094.058594 82.65625 1094.058594 L 1042.339844 1094.058594 C 1065.535156 1094.058594 1084.339844 1075.253906 1084.339844 1052.058594 L 1084.339844 92.375 C 1084.339844 69.179688 1065.535156 50.375 1042.339844 50.375 L 82.65625 50.375 C 59.460938 50.375 40.65625 69.179688 40.65625 92.375 Z M 40.65625 92.375 " clip-rule="nonzero"/></clipPath><clipPath id="b4e7d0d70d"><path d="M 132.277344 133.890625 L 1014.277344 133.890625 L 1014.277344 844 L 132.277344 844 Z M 132.277344 133.890625 " clip-rule="nonzero"/></clipPath><clipPath id="99cbd1a9fe"><path d="M 354 919 L 792 919 L 792 1012.140625 L 354 1012.140625 Z M 354 919 " clip-rule="nonzero"/></clipPath></defs><g clip-path="url(#cd1b7d8438)"><g clip-path="url(#675748d36c)"><g clip-path="url(#30bc938f05)"><path fill="#fc6a1f" d="M 1053.15625 146.011719 L 1084.339844 146.011719 L 1084.339844 998.421875 L 1053.15625 998.421875 Z M 1053.15625 146.011719 " fill-opacity="1" fill-rule="nonzero"/></g></g></g><g clip-path="url(#c249f9b12b)"><g clip-path="url(#d7c76e01af)"><g clip-path="url(#971c735d2f)"><path fill="#fc6a1f" d="M 40.65625 146.011719 L 71.84375 146.011719 L 71.84375 998.421875 L 40.65625 998.421875 Z M 40.65625 146.011719 " fill-opacity="1" fill-rule="nonzero"/></g></g></g><g clip-path="url(#99eb41b78f)"><g clip-path="url(#5f1924fe93)"><g clip-path="url(#111b0aa9ce)"><path fill="#fc6a1f" d="M 136.292969 50.375 L 988.703125 50.375 L 988.703125 81.5625 L 136.292969 81.5625 Z M 136.292969 50.375 " fill-opacity="1" fill-rule="nonzero"/></g></g></g><g clip-path="url(#9d655fc6de)"><g clip-path="url(#477113cee8)"><g clip-path="url(#1f31d02221)"><path fill="#fc6a1f" d="M 136.292969 1062.875 L 988.703125 1062.875 L 988.703125 1094.058594 L 136.292969 1094.058594 Z M 136.292969 1062.875 " fill-opacity="1" fill-rule="nonzero"/></g></g></g><g clip-path="url(#02eb7fcec9)"><g clip-path="url(#257067a150)"><g clip-path="url(#9117105535)"><path fill="#fc6a1f" d="M 1053.15625 81.5625 L 1053.15625 146.011719 L 1084.339844 146.011719 L 1084.339844 50.375 L 988.703125 50.375 L 988.703125 81.5625 Z M 1053.15625 81.5625 " fill-opacity="1" fill-rule="nonzero"/></g></g></g><g clip-path="url(#0e537dfea5)"><g clip-path="url(#f80585cf99)"><g clip-path="url(#1a80e4fcb1)"><path fill="#fc6a1f" d="M 71.84375 81.5625 L 136.292969 81.5625 L 136.292969 50.375 L 40.65625 50.375 L 40.65625 146.011719 L 71.84375 146.011719 Z M 71.84375 81.5625 " fill-opacity="1" fill-rule="nonzero"/></g></g></g><g clip-path="url(#b9fa39e0a3)"><g clip-path="url(#8cee7c3dfe)"><g clip-path="url(#1678dc0a0e)"><path fill="#fc6a1f" d="M 1053.15625 1062.875 L 988.703125 1062.875 L 988.703125 1094.058594 L 1084.339844 1094.058594 L 1084.339844 998.421875 L 1053.15625 998.421875 Z M 1053.15625 1062.875 " fill-opacity="1" fill-rule="nonzero"/></g></g></g><g clip-path="url(#8e3d0389fd)"><g clip-path="url(#0c64d6032e)"><g clip-path="url(#4f3305c69f)"><path fill="#fc6a1f" d="M 71.84375 1062.875 L 71.84375 998.421875 L 40.65625 998.421875 L 40.65625 1094.058594 L 136.292969 1094.058594 L 136.292969 1062.875 Z M 71.84375 1062.875 " fill-opacity="1" fill-rule="nonzero"/></g></g></g><g clip-path="url(#2dce16fb2a)"><g clip-path="url(#e360f2a0b2)"><g clip-path="url(#587bc931bf)"><path stroke-linecap="butt" transform="matrix(0.75, 0, 0, 0.75, 40.657485, 50.376069)" fill="none" stroke-linejoin="miter" d="M -0.00164733 55.998579 L -0.00164733 1335.576814 C -0.00164733 1366.5039 25.071271 1391.576819 55.998357 1391.576819 L 1335.576593 1391.576819 C 1366.503679 1391.576819 1391.576597 1366.5039 1391.576597 1335.576814 L 1391.576597 55.998579 C 1391.576597 25.071493 1366.503679 -0.00142568 1335.576593 -0.00142568 L 55.998357 -0.00142568 C 25.071271 -0.00142568 -0.00164733 25.071493 -0.00164733 55.998579 Z M -0.00164733 55.998579 " stroke="#fc6a1f" stroke-width="66" stroke-opacity="1" stroke-miterlimit="4"/></g></g></g><g clip-path="url(#b4e7d0d70d)"><path fill="#fc6a1f" d="M 974.578125 843.621094 L 171.894531 843.621094 C 149.5 843.621094 132.277344 826.398438 132.277344 805.726562 L 132.277344 171.847656 C 132.277344 151.179688 149.5 133.953125 171.894531 133.953125 L 974.578125 133.953125 C 996.96875 133.953125 1014.195312 151.179688 1014.195312 171.847656 L 1014.195312 805.726562 C 1014.195312 826.398438 996.96875 843.621094 974.578125 843.621094 Z M 171.894531 158.070312 C 163.28125 158.070312 156.390625 164.957031 156.390625 171.847656 L 156.390625 805.726562 C 156.390625 812.617188 163.28125 819.507812 171.894531 819.507812 L 974.578125 819.507812 C 983.1875 819.507812 990.078125 812.617188 990.078125 805.726562 L 990.078125 171.847656 C 990.078125 164.957031 983.1875 158.070312 974.578125 158.070312 Z M 171.894531 158.070312 " fill-opacity="1" fill-rule="evenodd"/></g><path fill="#fc6a1f" d="M 688.640625 943.527344 C 681.753906 943.527344 676.585938 938.359375 676.585938 931.46875 L 676.585938 831.5625 C 676.585938 824.675781 681.753906 819.507812 688.640625 819.507812 C 695.53125 819.507812 700.699219 824.675781 700.699219 831.5625 L 700.699219 931.46875 C 700.699219 938.359375 695.53125 943.527344 688.640625 943.527344 Z M 457.828125 943.527344 C 450.9375 943.527344 445.769531 938.359375 445.769531 931.46875 L 445.769531 831.5625 C 445.769531 824.675781 450.9375 819.507812 457.828125 819.507812 C 464.71875 819.507812 469.886719 824.675781 469.886719 831.5625 L 469.886719 931.46875 C 469.886719 938.359375 464.71875 943.527344 457.828125 943.527344 Z M 457.828125 943.527344 " fill-opacity="1" fill-rule="evenodd"/><g clip-path="url(#99cbd1a9fe)"><path fill="#fc6a1f" d="M 779.933594 1012.425781 L 366.535156 1012.425781 C 359.644531 1012.425781 354.476562 1007.257812 354.476562 1000.367188 L 354.476562 946.972656 C 354.476562 931.46875 366.535156 919.410156 382.039062 919.410156 L 764.433594 919.410156 C 779.933594 919.410156 791.992188 931.46875 791.992188 946.972656 L 791.992188 1000.367188 C 791.992188 1007.257812 786.824219 1012.425781 779.933594 1012.425781 Z M 378.59375 988.3125 L 767.875 988.3125 L 767.875 946.972656 C 767.875 945.25 766.15625 943.527344 764.433594 943.527344 L 382.039062 943.527344 C 380.316406 943.527344 378.59375 945.25 378.59375 946.972656 Z M 378.59375 988.3125 " fill-opacity="1" fill-rule="evenodd"/></g><path fill="#fc6a1f" d="M 573.234375 735.105469 C 490.554688 735.105469 413.042969 716.15625 347.585938 679.984375 C 283.855469 645.535156 235.625 595.582031 213.234375 540.460938 C 211.511719 537.019531 213.234375 531.851562 214.957031 528.40625 L 476.773438 247.636719 C 480.21875 242.472656 487.109375 242.472656 490.554688 244.191406 C 516.390625 256.25 543.953125 261.417969 573.234375 261.417969 C 602.515625 261.417969 630.078125 256.25 654.191406 244.191406 C 659.359375 242.472656 664.527344 244.191406 667.972656 247.636719 L 931.515625 530.128906 C 933.238281 533.574219 934.957031 538.738281 933.238281 542.183594 C 910.84375 597.304688 862.613281 647.257812 798.882812 681.707031 C 733.425781 716.15625 655.914062 735.105469 573.234375 735.105469 Z M 239.070312 538.738281 C 283.855469 640.367188 419.933594 710.988281 573.234375 710.988281 C 724.8125 710.988281 860.890625 640.367188 907.398438 540.460938 L 655.914062 270.03125 C 631.800781 280.367188 602.515625 285.53125 573.234375 285.53125 C 543.953125 285.53125 514.667969 280.367188 488.832031 270.03125 Z M 239.070312 538.738281 " fill-opacity="1" fill-rule="evenodd"/><path fill="#fc6a1f" d="M 669.695312 457.78125 C 659.359375 457.78125 649.023438 456.058594 642.132812 450.894531 C 628.355469 444.003906 619.742188 431.945312 616.296875 418.164062 C 612.851562 402.664062 614.574219 388.882812 621.464844 375.101562 C 631.800781 359.601562 649.023438 349.265625 669.695312 349.265625 C 678.308594 349.265625 688.640625 350.988281 695.53125 356.15625 C 709.3125 363.046875 717.925781 375.101562 721.371094 388.882812 C 724.8125 402.664062 723.09375 418.164062 716.203125 430.222656 C 705.867188 447.449219 688.640625 457.78125 669.695312 457.78125 Z M 669.695312 373.378906 C 657.636719 373.378906 647.300781 378.546875 642.132812 387.160156 C 638.691406 395.773438 636.96875 402.664062 638.691406 411.277344 C 642.132812 419.886719 647.300781 425.054688 654.191406 430.222656 C 657.636719 431.945312 662.804688 433.667969 669.695312 433.667969 C 680.03125 433.667969 690.363281 428.5 695.53125 418.164062 C 698.976562 411.277344 700.699219 402.664062 698.976562 395.773438 C 695.53125 387.160156 692.085938 380.269531 683.472656 376.824219 C 680.03125 373.378906 674.863281 373.378906 669.695312 373.378906 Z M 669.695312 373.378906 " fill-opacity="1" fill-rule="evenodd"/><path fill="#fc6a1f" d="M 592.183594 630.03125 C 557.730469 630.03125 526.726562 586.96875 509.503906 566.300781 C 507.78125 562.855469 504.335938 559.410156 504.335938 557.6875 C 502.613281 557.6875 500.890625 557.6875 500.890625 559.410156 L 487.109375 581.800781 C 480.21875 593.859375 468.164062 600.75 456.105469 600.75 C 450.9375 600.75 444.046875 599.027344 438.878906 595.582031 C 431.988281 592.136719 425.101562 583.523438 423.378906 574.914062 C 421.65625 566.300781 423.378906 555.964844 428.546875 547.351562 L 456.105469 500.84375 C 461.273438 490.511719 471.609375 485.34375 483.664062 485.34375 C 490.554688 485.34375 497.445312 487.066406 502.613281 490.511719 L 557.730469 521.515625 L 568.066406 506.011719 L 509.503906 449.171875 C 494 433.667969 494 407.832031 509.503906 392.328125 C 516.390625 385.4375 526.726562 380.269531 537.0625 380.269531 C 549.121094 380.269531 557.730469 385.4375 566.34375 392.328125 C 569.789062 397.496094 574.957031 400.941406 578.402344 404.386719 C 609.40625 435.390625 624.910156 450.894531 666.25 475.007812 C 681.753906 485.34375 686.917969 504.289062 678.308594 519.792969 L 631.800781 602.472656 C 618.019531 624.863281 602.515625 630.03125 592.183594 630.03125 Z M 502.613281 533.574219 C 507.78125 533.574219 512.949219 535.296875 516.390625 537.019531 C 519.835938 538.738281 523.28125 542.183594 528.449219 550.796875 C 540.507812 566.300781 569.789062 605.917969 592.183594 605.917969 C 593.90625 605.917969 600.792969 605.917969 609.40625 590.414062 L 657.636719 507.734375 C 659.359375 504.289062 659.359375 499.121094 654.191406 497.398438 C 609.40625 469.839844 592.183594 452.617188 561.175781 421.609375 C 557.730469 418.164062 552.566406 414.71875 549.121094 409.554688 C 545.675781 406.109375 542.230469 404.386719 537.0625 404.386719 C 533.617188 404.386719 530.171875 406.109375 526.726562 409.554688 C 519.835938 416.441406 519.835938 425.054688 526.726562 431.945312 L 587.015625 492.234375 C 593.90625 497.398438 595.628906 506.011719 590.460938 512.902344 L 576.679688 540.460938 C 573.234375 545.628906 566.34375 549.074219 561.175781 549.074219 C 557.730469 549.074219 556.011719 547.351562 552.566406 545.628906 L 490.554688 511.179688 C 488.832031 509.457031 487.109375 509.457031 483.664062 509.457031 C 480.21875 509.457031 478.496094 509.457031 476.773438 512.902344 L 449.214844 559.410156 C 447.492188 562.855469 445.769531 566.300781 447.492188 569.746094 C 447.492188 571.46875 449.214844 573.191406 450.9375 574.914062 C 452.660156 576.636719 454.382812 576.636719 456.105469 576.636719 C 459.550781 576.636719 464.71875 574.914062 466.441406 569.746094 L 480.21875 547.351562 C 485.386719 538.738281 494 533.574219 502.613281 533.574219 Z M 502.613281 533.574219 " fill-opacity="1" fill-rule="evenodd"/></svg>