<svg xmlns="http://www.w3.org/2000/svg" xmlns:xlink="http://www.w3.org/1999/xlink" width="1500" zoomAndPan="magnify" viewBox="0 0 1125 1124.99995" height="1500" preserveAspectRatio="xMidYMid meet" version="1.0"><defs><clipPath id="f5f84c5e77"><path d="M 731 610 L 1073.730469 610 L 1073.730469 954 L 731 954 Z M 731 610 " clip-rule="nonzero"/></clipPath><clipPath id="cb2e7e28a7"><path d="M 1053 146 L 1083.90625 146 L 1083.90625 999 L 1053 999 Z M 1053 146 " clip-rule="nonzero"/></clipPath><clipPath id="8931393486"><path d="M 40.65625 92.375 L 40.65625 1052.0625 C 40.65625 1075.257812 59.460938 1094.0625 82.65625 1094.0625 L 1042.34375 1094.0625 C 1065.539062 1094.0625 1084.34375 1075.257812 1084.34375 1052.0625 L 1084.34375 92.375 C 1084.34375 69.179688 1065.539062 50.375 1042.34375 50.375 L 82.65625 50.375 C 59.460938 50.375 40.65625 69.179688 40.65625 92.375 Z M 40.65625 92.375 " clip-rule="nonzero"/></clipPath><clipPath id="da42208084"><path d="M 83.558594 51.277344 L 1041.441406 51.277344 C 1064.636719 51.277344 1083.441406 70.082031 1083.441406 93.277344 L 1083.441406 1051.160156 C 1083.441406 1074.355469 1064.636719 1093.160156 1041.441406 1093.160156 L 83.558594 1093.160156 C 60.363281 1093.160156 41.558594 1074.355469 41.558594 1051.160156 L 41.558594 93.277344 C 41.558594 70.082031 60.363281 51.277344 83.558594 51.277344 Z M 83.558594 51.277344 " clip-rule="nonzero"/></clipPath><clipPath id="06a99313fd"><path d="M 41.40625 146 L 72 146 L 72 999 L 41.40625 999 Z M 41.40625 146 " clip-rule="nonzero"/></clipPath><clipPath id="1b8bb7df92"><path d="M 40.65625 92.375 L 40.65625 1052.0625 C 40.65625 1075.257812 59.460938 1094.0625 82.65625 1094.0625 L 1042.34375 1094.0625 C 1065.539062 1094.0625 1084.34375 1075.257812 1084.34375 1052.0625 L 1084.34375 92.375 C 1084.34375 69.179688 1065.539062 50.375 1042.34375 50.375 L 82.65625 50.375 C 59.460938 50.375 40.65625 69.179688 40.65625 92.375 Z M 40.65625 92.375 " clip-rule="nonzero"/></clipPath><clipPath id="9de186ed1d"><path d="M 83.558594 51.277344 L 1041.441406 51.277344 C 1064.636719 51.277344 1083.441406 70.082031 1083.441406 93.277344 L 1083.441406 1051.160156 C 1083.441406 1074.355469 1064.636719 1093.160156 1041.441406 1093.160156 L 83.558594 1093.160156 C 60.363281 1093.160156 41.558594 1074.355469 41.558594 1051.160156 L 41.558594 93.277344 C 41.558594 70.082031 60.363281 51.277344 83.558594 51.277344 Z M 83.558594 51.277344 " clip-rule="nonzero"/></clipPath><clipPath id="307925b157"><path d="M 136 51.125 L 989 51.125 L 989 82 L 136 82 Z M 136 51.125 " clip-rule="nonzero"/></clipPath><clipPath id="577810cb0a"><path d="M 40.65625 92.375 L 40.65625 1052.0625 C 40.65625 1075.257812 59.460938 1094.0625 82.65625 1094.0625 L 1042.34375 1094.0625 C 1065.539062 1094.0625 1084.34375 1075.257812 1084.34375 1052.0625 L 1084.34375 92.375 C 1084.34375 69.179688 1065.539062 50.375 1042.34375 50.375 L 82.65625 50.375 C 59.460938 50.375 40.65625 69.179688 40.65625 92.375 Z M 40.65625 92.375 " clip-rule="nonzero"/></clipPath><clipPath id="5271419c00"><path d="M 83.558594 51.277344 L 1041.441406 51.277344 C 1064.636719 51.277344 1083.441406 70.082031 1083.441406 93.277344 L 1083.441406 1051.160156 C 1083.441406 1074.355469 1064.636719 1093.160156 1041.441406 1093.160156 L 83.558594 1093.160156 C 60.363281 1093.160156 41.558594 1074.355469 41.558594 1051.160156 L 41.558594 93.277344 C 41.558594 70.082031 60.363281 51.277344 83.558594 51.277344 Z M 83.558594 51.277344 " clip-rule="nonzero"/></clipPath><clipPath id="eef857fb75"><path d="M 136 1062 L 989 1062 L 989 1093.625 L 136 1093.625 Z M 136 1062 " clip-rule="nonzero"/></clipPath><clipPath id="550f5c22f4"><path d="M 40.65625 92.375 L 40.65625 1052.0625 C 40.65625 1075.257812 59.460938 1094.0625 82.65625 1094.0625 L 1042.34375 1094.0625 C 1065.539062 1094.0625 1084.34375 1075.257812 1084.34375 1052.0625 L 1084.34375 92.375 C 1084.34375 69.179688 1065.539062 50.375 1042.34375 50.375 L 82.65625 50.375 C 59.460938 50.375 40.65625 69.179688 40.65625 92.375 Z M 40.65625 92.375 " clip-rule="nonzero"/></clipPath><clipPath id="9e2fdaef1e"><path d="M 83.558594 51.277344 L 1041.441406 51.277344 C 1064.636719 51.277344 1083.441406 70.082031 1083.441406 93.277344 L 1083.441406 1051.160156 C 1083.441406 1074.355469 1064.636719 1093.160156 1041.441406 1093.160156 L 83.558594 1093.160156 C 60.363281 1093.160156 41.558594 1074.355469 41.558594 1051.160156 L 41.558594 93.277344 C 41.558594 70.082031 60.363281 51.277344 83.558594 51.277344 Z M 83.558594 51.277344 " clip-rule="nonzero"/></clipPath><clipPath id="5ac89a7b6f"><path d="M 988 51.125 L 1083.90625 51.125 L 1083.90625 147 L 988 147 Z M 988 51.125 " clip-rule="nonzero"/></clipPath><clipPath id="a06ec3ec97"><path d="M 40.65625 92.375 L 40.65625 1052.0625 C 40.65625 1075.257812 59.460938 1094.0625 82.65625 1094.0625 L 1042.34375 1094.0625 C 1065.539062 1094.0625 1084.34375 1075.257812 1084.34375 1052.0625 L 1084.34375 92.375 C 1084.34375 69.179688 1065.539062 50.375 1042.34375 50.375 L 82.65625 50.375 C 59.460938 50.375 40.65625 69.179688 40.65625 92.375 Z M 40.65625 92.375 " clip-rule="nonzero"/></clipPath><clipPath id="0899fb76a1"><path d="M 83.558594 51.277344 L 1041.441406 51.277344 C 1064.636719 51.277344 1083.441406 70.082031 1083.441406 93.277344 L 1083.441406 1051.160156 C 1083.441406 1074.355469 1064.636719 1093.160156 1041.441406 1093.160156 L 83.558594 1093.160156 C 60.363281 1093.160156 41.558594 1074.355469 41.558594 1051.160156 L 41.558594 93.277344 C 41.558594 70.082031 60.363281 51.277344 83.558594 51.277344 Z M 83.558594 51.277344 " clip-rule="nonzero"/></clipPath><clipPath id="665b344863"><path d="M 41.40625 51.125 L 137 51.125 L 137 147 L 41.40625 147 Z M 41.40625 51.125 " clip-rule="nonzero"/></clipPath><clipPath id="f1412a1e34"><path d="M 40.65625 92.375 L 40.65625 1052.0625 C 40.65625 1075.257812 59.460938 1094.0625 82.65625 1094.0625 L 1042.34375 1094.0625 C 1065.539062 1094.0625 1084.34375 1075.257812 1084.34375 1052.0625 L 1084.34375 92.375 C 1084.34375 69.179688 1065.539062 50.375 1042.34375 50.375 L 82.65625 50.375 C 59.460938 50.375 40.65625 69.179688 40.65625 92.375 Z M 40.65625 92.375 " clip-rule="nonzero"/></clipPath><clipPath id="b6bf65c345"><path d="M 83.558594 51.277344 L 1041.441406 51.277344 C 1064.636719 51.277344 1083.441406 70.082031 1083.441406 93.277344 L 1083.441406 1051.160156 C 1083.441406 1074.355469 1064.636719 1093.160156 1041.441406 1093.160156 L 83.558594 1093.160156 C 60.363281 1093.160156 41.558594 1074.355469 41.558594 1051.160156 L 41.558594 93.277344 C 41.558594 70.082031 60.363281 51.277344 83.558594 51.277344 Z M 83.558594 51.277344 " clip-rule="nonzero"/></clipPath><clipPath id="08e1a16f32"><path d="M 988 998 L 1083.90625 998 L 1083.90625 1093.625 L 988 1093.625 Z M 988 998 " clip-rule="nonzero"/></clipPath><clipPath id="19fe29ea35"><path d="M 40.65625 92.375 L 40.65625 1052.0625 C 40.65625 1075.257812 59.460938 1094.0625 82.65625 1094.0625 L 1042.34375 1094.0625 C 1065.539062 1094.0625 1084.34375 1075.257812 1084.34375 1052.0625 L 1084.34375 92.375 C 1084.34375 69.179688 1065.539062 50.375 1042.34375 50.375 L 82.65625 50.375 C 59.460938 50.375 40.65625 69.179688 40.65625 92.375 Z M 40.65625 92.375 " clip-rule="nonzero"/></clipPath><clipPath id="e257af1ba8"><path d="M 83.558594 51.277344 L 1041.441406 51.277344 C 1064.636719 51.277344 1083.441406 70.082031 1083.441406 93.277344 L 1083.441406 1051.160156 C 1083.441406 1074.355469 1064.636719 1093.160156 1041.441406 1093.160156 L 83.558594 1093.160156 C 60.363281 1093.160156 41.558594 1074.355469 41.558594 1051.160156 L 41.558594 93.277344 C 41.558594 70.082031 60.363281 51.277344 83.558594 51.277344 Z M 83.558594 51.277344 " clip-rule="nonzero"/></clipPath><clipPath id="8fba3e3442"><path d="M 41.40625 998 L 137 998 L 137 1093.625 L 41.40625 1093.625 Z M 41.40625 998 " clip-rule="nonzero"/></clipPath><clipPath id="2325c13ae9"><path d="M 40.65625 92.375 L 40.65625 1052.0625 C 40.65625 1075.257812 59.460938 1094.0625 82.65625 1094.0625 L 1042.34375 1094.0625 C 1065.539062 1094.0625 1084.34375 1075.257812 1084.34375 1052.0625 L 1084.34375 92.375 C 1084.34375 69.179688 1065.539062 50.375 1042.34375 50.375 L 82.65625 50.375 C 59.460938 50.375 40.65625 69.179688 40.65625 92.375 Z M 40.65625 92.375 " clip-rule="nonzero"/></clipPath><clipPath id="f849c3bd0a"><path d="M 83.558594 51.277344 L 1041.441406 51.277344 C 1064.636719 51.277344 1083.441406 70.082031 1083.441406 93.277344 L 1083.441406 1051.160156 C 1083.441406 1074.355469 1064.636719 1093.160156 1041.441406 1093.160156 L 83.558594 1093.160156 C 60.363281 1093.160156 41.558594 1074.355469 41.558594 1051.160156 L 41.558594 93.277344 C 41.558594 70.082031 60.363281 51.277344 83.558594 51.277344 Z M 83.558594 51.277344 " clip-rule="nonzero"/></clipPath><clipPath id="2f7e72cb02"><path d="M 40.65625 50.375 L 1084.65625 50.375 L 1084.65625 1094.375 L 40.65625 1094.375 Z M 40.65625 50.375 " clip-rule="nonzero"/></clipPath><clipPath id="acfd45eb6a"><path d="M 40.65625 92.375 L 40.65625 1052.0625 C 40.65625 1075.257812 59.460938 1094.0625 82.65625 1094.0625 L 1042.34375 1094.0625 C 1065.539062 1094.0625 1084.34375 1075.257812 1084.34375 1052.0625 L 1084.34375 92.375 C 1084.34375 69.179688 1065.539062 50.375 1042.34375 50.375 L 82.65625 50.375 C 59.460938 50.375 40.65625 69.179688 40.65625 92.375 Z M 40.65625 92.375 " clip-rule="nonzero"/></clipPath><clipPath id="2f4b222628"><path d="M 40.65625 92.375 L 40.65625 1052.058594 C 40.65625 1075.253906 59.460938 1094.058594 82.65625 1094.058594 L 1042.339844 1094.058594 C 1065.535156 1094.058594 1084.339844 1075.253906 1084.339844 1052.058594 L 1084.339844 92.375 C 1084.339844 69.179688 1065.535156 50.375 1042.339844 50.375 L 82.65625 50.375 C 59.460938 50.375 40.65625 69.179688 40.65625 92.375 Z M 40.65625 92.375 " clip-rule="nonzero"/></clipPath></defs><path fill="#fc6a1f" d="M 742.945312 765.566406 C 721.929688 765.566406 699.777344 761.023438 677.625 751.933594 C 650.925781 741.140625 631.042969 713.875 623.660156 676.953125 C 614.570312 633.214844 623.660156 571.296875 662.285156 529.265625 L 658.308594 486.660156 C 628.203125 448.601562 616.84375 398.046875 628.773438 353.742188 C 640.132812 313.410156 668.535156 282.738281 710 267.96875 C 812.816406 231.046875 858.824219 303.753906 894.042969 388.390625 C 905.972656 418.496094 943.464844 524.152344 907.675781 625.828125 C 905.40625 631.511719 899.15625 634.917969 892.90625 632.644531 C 887.226562 630.375 883.820312 624.125 886.089844 618.445312 C 919.605469 524.152344 884.386719 425.3125 873.027344 396.914062 C 836.671875 308.867188 798.046875 260.585938 717.953125 288.984375 C 683.871094 301.484375 660.015625 326.476562 650.925781 359.421875 C 640.132812 398.046875 650.925781 442.355469 678.191406 475.300781 C 679.894531 477.003906 680.464844 479.277344 681.03125 481.550781 L 685.574219 532.671875 C 685.574219 536.082031 684.441406 538.921875 682.167969 541.761719 C 645.8125 577.546875 637.859375 633.214844 645.8125 672.410156 C 651.492188 701.945312 666.261719 722.964844 686.144531 730.917969 C 706.023438 738.867188 725.90625 742.84375 744.652344 742.84375 C 750.898438 742.84375 756.011719 747.957031 756.011719 754.207031 C 756.011719 760.453125 750.898438 765.566406 744.652344 765.566406 C 744.082031 765.566406 743.515625 765.566406 742.945312 765.566406 Z M 742.945312 765.566406 " fill-opacity="1" fill-rule="evenodd"/><path fill="#fc6a1f" d="M 297.039062 766.132812 C 239.101562 766.132812 168.664062 724.667969 143.105469 674.679688 C 94.820312 581.523438 91.980469 486.660156 135.152344 385.550781 C 160.144531 326.476562 204.453125 255.472656 270.910156 255.472656 C 291.359375 255.472656 311.808594 262.289062 332.828125 274.785156 C 374.292969 300.347656 398.152344 332.15625 404.398438 369.648438 C 412.917969 424.746094 378.835938 474.164062 369.179688 486.660156 L 365.203125 529.265625 C 378.269531 542.898438 388.496094 557.097656 396.445312 571.296875 C 440.753906 654.800781 378.269531 724.667969 358.386719 743.980469 C 343.050781 758.75 322.035156 766.132812 297.039062 766.132812 Z M 270.910156 278.191406 C 216.949219 278.191406 178.320312 341.8125 156.167969 394.640625 C 115.269531 490.636719 117.542969 576.410156 162.984375 664.457031 C 184.570312 706.492188 247.621094 743.414062 297.039062 743.414062 C 316.355469 743.414062 331.691406 738.300781 342.484375 727.507812 C 364.636719 706.492188 412.351562 649.6875 375.996094 581.523438 C 369.179688 568.457031 358.957031 554.824219 345.890625 541.761719 C 343.050781 539.488281 341.914062 536.082031 342.484375 532.671875 L 346.460938 480.980469 C 347.027344 478.710938 347.597656 476.4375 349.300781 474.734375 C 349.867188 474.164062 390.199219 425.3125 381.679688 373.054688 C 376.566406 342.382812 356.117188 316.25 320.898438 294.097656 C 303.289062 283.875 286.816406 278.191406 270.910156 278.191406 Z M 270.910156 278.191406 " fill-opacity="1" fill-rule="evenodd"/><path fill="#fc6a1f" d="M 467.449219 833.164062 C 449.273438 833.164062 431.097656 820.097656 431.097656 795.105469 L 431.097656 621.855469 C 431.097656 612.765625 426.550781 604.246094 418.601562 596.859375 C 409.511719 588.90625 397.582031 584.929688 386.789062 586.066406 C 380.542969 586.636719 374.863281 582.089844 374.292969 575.84375 C 373.15625 569.59375 377.703125 563.914062 383.949219 563.347656 C 401.558594 561.640625 419.734375 567.890625 433.9375 579.820312 C 446.433594 591.179688 453.816406 606.515625 453.816406 621.855469 L 453.816406 795.105469 C 453.816406 809.304688 465.179688 810.441406 467.449219 810.441406 C 473.699219 810.441406 480.515625 806.464844 480.515625 796.238281 L 480.515625 608.789062 C 480.515625 587.773438 474.265625 571.867188 461.203125 560.507812 C 431.664062 535.511719 377.132812 541.191406 355.546875 544.601562 C 349.300781 545.738281 343.621094 541.761719 342.484375 535.511719 C 341.347656 529.265625 345.890625 523.582031 351.570312 522.449219 C 382.8125 517.335938 440.183594 513.359375 475.972656 543.464844 C 494.148438 558.800781 503.238281 580.957031 503.238281 608.789062 L 503.238281 796.238281 C 503.238281 820.097656 484.492188 833.164062 467.449219 833.164062 Z M 467.449219 833.164062 " fill-opacity="1" fill-rule="evenodd"/><path fill="#fc6a1f" d="M 577.648438 833.730469 C 559.472656 833.730469 539.589844 816.6875 539.589844 784.878906 L 539.589844 612.195312 C 539.589844 583.796875 548.113281 561.074219 565.71875 545.167969 C 589.011719 524.71875 626.5 516.765625 675.351562 522.449219 C 681.597656 523.015625 686.144531 528.695312 685.574219 534.945312 C 685.007812 541.191406 679.328125 545.738281 673.078125 544.601562 C 643.542969 541.761719 603.777344 541.761719 581.058594 562.210938 C 568.5625 573.570312 562.3125 590.042969 562.3125 612.195312 L 562.3125 784.878906 C 562.3125 803.054688 571.402344 811.007812 577.648438 811.007812 C 580.488281 811.007812 582.761719 809.871094 584.464844 807.601562 C 587.304688 803.625 589.011719 797.375 589.011719 789.421875 L 589.011719 621.285156 C 589.011719 596.292969 614.003906 567.890625 640.699219 563.914062 C 646.949219 562.777344 652.628906 566.753906 653.765625 573.003906 C 654.332031 579.25 650.359375 584.929688 644.109375 586.066406 C 628.773438 588.90625 611.730469 607.085938 611.730469 621.285156 L 611.730469 789.421875 C 611.730469 802.488281 608.324219 813.28125 602.644531 821.234375 C 596.394531 829.1875 587.304688 833.730469 577.648438 833.730469 Z M 577.648438 833.730469 " fill-opacity="1" fill-rule="evenodd"/><path fill="#fc6a1f" d="M 669.671875 493.476562 C 593.554688 493.476562 534.480469 429.859375 534.480469 348.628906 L 534.480469 217.414062 C 534.480469 206.621094 531.640625 200.941406 529.367188 198.101562 C 527.09375 195.828125 524.253906 194.125 520.847656 194.125 C 513.460938 194.125 503.238281 201.507812 503.238281 216.84375 L 503.238281 356.582031 C 503.238281 430.996094 446.433594 484.957031 358.957031 493.476562 C 352.707031 494.046875 347.027344 489.5 346.460938 483.253906 C 345.890625 477.003906 350.4375 471.324219 356.683594 470.757812 C 416.894531 465.078125 480.515625 431.5625 480.515625 356.582031 L 480.515625 216.84375 C 480.515625 188.445312 500.964844 171.402344 520.847656 171.402344 C 531.070312 171.402344 540.160156 175.945312 546.976562 183.898438 C 553.792969 191.851562 557.199219 203.78125 557.199219 217.414062 L 557.199219 348.628906 C 557.199219 408.839844 599.234375 470.757812 669.671875 470.757812 C 675.917969 470.757812 681.03125 475.867188 681.03125 482.117188 C 681.03125 488.367188 675.917969 493.476562 669.671875 493.476562 Z M 669.671875 493.476562 " fill-opacity="1" fill-rule="evenodd"/><path fill="#fc6a1f" d="M 353.84375 545.167969 C 348.164062 545.167969 343.621094 541.191406 342.484375 535.511719 C 341.347656 529.265625 345.324219 523.582031 351.570312 522.449219 C 394.175781 514.496094 504.941406 479.84375 504.941406 419.066406 C 504.941406 413.953125 508.347656 409.410156 513.460938 408.273438 C 518.574219 407.136719 523.6875 409.410156 526.527344 413.386719 C 582.761719 511.65625 674.214844 521.878906 675.351562 522.449219 C 681.597656 523.015625 686.144531 528.695312 685.574219 534.945312 C 685.007812 541.191406 679.328125 545.738281 673.078125 544.601562 C 669.101562 544.601562 583.898438 534.945312 521.980469 448.601562 C 492.445312 517.902344 361.796875 543.464844 355.546875 544.601562 C 354.980469 544.601562 354.414062 545.167969 353.84375 545.167969 Z M 353.84375 545.167969 " fill-opacity="1" fill-rule="evenodd"/><g clip-path="url(#f5f84c5e77)"><path fill="#fc6a1f" d="M 901.996094 953.585938 C 807.703125 953.585938 731.019531 876.332031 731.019531 782.039062 C 731.019531 687.175781 807.703125 610.492188 901.996094 610.492188 C 996.859375 610.492188 1073.542969 687.175781 1073.542969 782.039062 C 1073.542969 876.332031 996.859375 953.585938 901.996094 953.585938 Z M 901.996094 633.214844 C 820.199219 633.214844 753.738281 699.675781 753.738281 782.039062 C 753.738281 863.835938 820.199219 930.863281 901.996094 930.863281 C 984.363281 930.863281 1050.820312 863.835938 1050.820312 782.039062 C 1050.820312 699.675781 984.363281 633.214844 901.996094 633.214844 Z M 901.996094 633.214844 " fill-opacity="1" fill-rule="evenodd"/></g><path fill="#fc6a1f" d="M 932.101562 879.742188 L 872.457031 879.742188 C 866.210938 879.742188 861.097656 874.628906 861.097656 868.378906 L 861.097656 823.503906 L 816.222656 823.503906 C 809.976562 823.503906 804.863281 818.394531 804.863281 812.144531 L 804.863281 751.933594 C 804.863281 745.683594 809.976562 740.574219 816.222656 740.574219 L 861.097656 740.574219 L 861.097656 695.699219 C 861.097656 689.449219 866.210938 684.335938 872.457031 684.335938 L 932.101562 684.335938 C 938.351562 684.335938 943.464844 689.449219 943.464844 695.699219 L 943.464844 740.574219 L 988.335938 740.574219 C 994.585938 740.574219 999.699219 745.683594 999.699219 751.933594 L 999.699219 812.144531 C 999.699219 818.394531 994.585938 823.503906 988.335938 823.503906 L 943.464844 823.503906 L 943.464844 868.378906 C 943.464844 874.628906 938.351562 879.742188 932.101562 879.742188 Z M 883.820312 857.019531 L 920.742188 857.019531 L 920.742188 812.144531 C 920.742188 805.328125 925.855469 800.785156 932.101562 800.785156 L 976.976562 800.785156 L 976.976562 763.292969 L 932.101562 763.292969 C 925.855469 763.292969 920.742188 758.183594 920.742188 751.933594 L 920.742188 707.058594 L 883.820312 707.058594 L 883.820312 751.933594 C 883.820312 758.183594 878.707031 763.292969 872.457031 763.292969 L 827.585938 763.292969 L 827.585938 800.785156 L 872.457031 800.785156 C 878.707031 800.785156 883.820312 805.328125 883.820312 812.144531 Z M 883.820312 857.019531 " fill-opacity="1" fill-rule="evenodd"/><g clip-path="url(#cb2e7e28a7)"><g clip-path="url(#8931393486)"><g clip-path="url(#da42208084)"><path fill="#fc6a1f" d="M 1053.15625 146.011719 L 1084.339844 146.011719 L 1084.339844 998.421875 L 1053.15625 998.421875 Z M 1053.15625 146.011719 " fill-opacity="1" fill-rule="nonzero"/></g></g></g><g clip-path="url(#06a99313fd)"><g clip-path="url(#1b8bb7df92)"><g clip-path="url(#9de186ed1d)"><path fill="#fc6a1f" d="M 40.65625 146.011719 L 71.84375 146.011719 L 71.84375 998.421875 L 40.65625 998.421875 Z M 40.65625 146.011719 " fill-opacity="1" fill-rule="nonzero"/></g></g></g><g clip-path="url(#307925b157)"><g clip-path="url(#577810cb0a)"><g clip-path="url(#5271419c00)"><path fill="#fc6a1f" d="M 136.292969 50.375 L 988.703125 50.375 L 988.703125 81.5625 L 136.292969 81.5625 Z M 136.292969 50.375 " fill-opacity="1" fill-rule="nonzero"/></g></g></g><g clip-path="url(#eef857fb75)"><g clip-path="url(#550f5c22f4)"><g clip-path="url(#9e2fdaef1e)"><path fill="#fc6a1f" d="M 136.292969 1062.875 L 988.703125 1062.875 L 988.703125 1094.058594 L 136.292969 1094.058594 Z M 136.292969 1062.875 " fill-opacity="1" fill-rule="nonzero"/></g></g></g><g clip-path="url(#5ac89a7b6f)"><g clip-path="url(#a06ec3ec97)"><g clip-path="url(#0899fb76a1)"><path fill="#fc6a1f" d="M 1053.15625 81.5625 L 1053.15625 146.011719 L 1084.339844 146.011719 L 1084.339844 50.375 L 988.703125 50.375 L 988.703125 81.5625 Z M 1053.15625 81.5625 " fill-opacity="1" fill-rule="nonzero"/></g></g></g><g clip-path="url(#665b344863)"><g clip-path="url(#f1412a1e34)"><g clip-path="url(#b6bf65c345)"><path fill="#fc6a1f" d="M 71.84375 81.5625 L 136.292969 81.5625 L 136.292969 50.375 L 40.65625 50.375 L 40.65625 146.011719 L 71.84375 146.011719 Z M 71.84375 81.5625 " fill-opacity="1" fill-rule="nonzero"/></g></g></g><g clip-path="url(#08e1a16f32)"><g clip-path="url(#19fe29ea35)"><g clip-path="url(#e257af1ba8)"><path fill="#fc6a1f" d="M 1053.15625 1062.875 L 988.703125 1062.875 L 988.703125 1094.058594 L 1084.339844 1094.058594 L 1084.339844 998.421875 L 1053.15625 998.421875 Z M 1053.15625 1062.875 " fill-opacity="1" fill-rule="nonzero"/></g></g></g><g clip-path="url(#8fba3e3442)"><g clip-path="url(#2325c13ae9)"><g clip-path="url(#f849c3bd0a)"><path fill="#fc6a1f" d="M 71.84375 1062.875 L 71.84375 998.421875 L 40.65625 998.421875 L 40.65625 1094.058594 L 136.292969 1094.058594 L 136.292969 1062.875 Z M 71.84375 1062.875 " fill-opacity="1" fill-rule="nonzero"/></g></g></g><g clip-path="url(#2f7e72cb02)"><g clip-path="url(#acfd45eb6a)"><g clip-path="url(#2f4b222628)"><path stroke-linecap="butt" transform="matrix(0.75, 0, 0, 0.75, 40.657485, 50.376069)" fill="none" stroke-linejoin="miter" d="M -0.00164733 55.998579 L -0.00164733 1335.576814 C -0.00164733 1366.5039 25.071271 1391.576819 55.998357 1391.576819 L 1335.576593 1391.576819 C 1366.503679 1391.576819 1391.576597 1366.5039 1391.576597 1335.576814 L 1391.576597 55.998579 C 1391.576597 25.071493 1366.503679 -0.00142568 1335.576593 -0.00142568 L 55.998357 -0.00142568 C 25.071271 -0.00142568 -0.00164733 25.071493 -0.00164733 55.998579 Z M -0.00164733 55.998579 " stroke="#fc6a1f" stroke-width="66" stroke-opacity="1" stroke-miterlimit="4"/></g></g></g></svg>