<svg xmlns="http://www.w3.org/2000/svg" xmlns:xlink="http://www.w3.org/1999/xlink" width="80" zoomAndPan="magnify" viewBox="0 0 60 60" height="80" preserveAspectRatio="xMidYMid meet" version="1.0"><defs><clipPath id="c71f001c0a"><path d="M 4.757812 5 L 55.007812 5 L 55.007812 55.726562 L 4.757812 55.726562 Z M 4.757812 5 " clip-rule="nonzero"/></clipPath></defs><g clip-path="url(#c71f001c0a)"><path fill="#fc6a1f" d="M 20.5625 34.136719 L 20.5625 30.949219 C 20.5625 26.730469 23.996094 23.296875 28.214844 23.296875 C 30.007812 23.296875 31.722656 23.929688 33.101562 25.078125 C 33.054688 25.382812 33.078125 27.453125 33.078125 27.921875 L 30.5 27.921875 C 29.480469 27.921875 28.652344 28.75 28.652344 29.765625 L 28.652344 32.667969 C 28.652344 33.683594 29.480469 34.511719 30.5 34.511719 L 33.078125 34.511719 L 33.078125 36.15625 L 22.582031 36.15625 C 21.46875 36.15625 20.5625 35.25 20.5625 34.136719 Z M 24.171875 17.714844 C 24.171875 15.484375 25.984375 13.671875 28.214844 13.671875 C 30.441406 13.671875 32.253906 15.484375 32.253906 17.714844 C 32.253906 19.941406 30.441406 21.753906 28.214844 21.753906 C 25.984375 21.753906 24.171875 19.941406 24.171875 17.714844 Z M 34.625 25.339844 L 34.625 28.691406 C 34.625 29.117188 34.277344 29.464844 33.851562 29.464844 L 30.5 29.464844 C 30.335938 29.464844 30.195312 29.601562 30.195312 29.765625 L 30.195312 32.667969 C 30.195312 32.828125 30.335938 32.96875 30.5 32.96875 L 33.851562 32.96875 C 34.277344 32.96875 34.625 33.3125 34.625 33.738281 L 34.625 37.09375 C 34.625 37.257812 34.761719 37.394531 34.925781 37.394531 L 37.824219 37.394531 C 37.988281 37.394531 38.125 37.257812 38.125 37.09375 L 38.125 33.738281 C 38.125 33.3125 38.472656 32.96875 38.898438 32.96875 L 42.25 32.96875 C 42.414062 32.96875 42.550781 32.828125 42.550781 32.667969 L 42.550781 29.765625 C 42.550781 29.601562 42.414062 29.464844 42.25 29.464844 L 38.898438 29.464844 C 38.472656 29.464844 38.125 29.117188 38.125 28.691406 L 38.125 25.339844 C 38.125 25.175781 37.988281 25.039062 37.824219 25.039062 L 34.925781 25.039062 C 34.761719 25.039062 34.625 25.175781 34.625 25.339844 Z M 34.925781 38.9375 L 37.824219 38.9375 C 38.84375 38.9375 39.671875 38.109375 39.671875 37.09375 L 39.671875 34.511719 L 42.25 34.511719 C 43.269531 34.511719 44.097656 33.683594 44.097656 32.667969 L 44.097656 29.765625 C 44.097656 28.75 43.269531 27.921875 42.25 27.921875 L 39.671875 27.921875 L 39.671875 25.339844 C 39.671875 24.324219 38.84375 23.496094 37.824219 23.496094 L 34.925781 23.496094 C 34.566406 23.496094 34.230469 23.597656 33.949219 23.777344 C 33.167969 23.148438 32.296875 22.65625 31.371094 22.316406 C 32.835938 21.308594 33.796875 19.621094 33.796875 17.714844 C 33.796875 14.632812 31.292969 12.128906 28.214844 12.128906 C 25.132812 12.128906 22.628906 14.632812 22.628906 17.714844 C 22.628906 19.621094 23.589844 21.304688 25.050781 22.3125 C 21.535156 23.605469 19.019531 26.988281 19.019531 30.949219 L 19.019531 34.136719 C 19.019531 36.101562 20.617188 37.699219 22.582031 37.699219 L 33.183594 37.699219 C 33.4375 38.421875 34.121094 38.9375 34.925781 38.9375 Z M 53.640625 25.21875 C 53.238281 30.085938 53.335938 37.335938 51.257812 41.046875 C 49.769531 43.707031 47.601562 44.753906 45.515625 47.019531 C 43.070312 49.679688 42.664062 50.996094 42.617188 53.867188 C 42.613281 54.199219 42.335938 54.472656 42.003906 54.472656 L 34.796875 54.472656 C 34.449219 54.472656 34.167969 54.191406 34.167969 53.84375 L 34.167969 49.125 C 34.167969 47.421875 34.867188 45.953125 36.191406 44.882812 L 42.6875 39.625 C 43.105469 39.28125 43.738281 39.347656 44.078125 39.769531 C 44.421875 40.191406 44.355469 40.820312 43.933594 41.164062 L 38.246094 45.769531 C 37.679688 46.226562 38.011719 47.140625 38.730469 47.140625 C 38.902344 47.140625 39.074219 47.082031 39.21875 46.96875 L 44.902344 42.363281 C 45.777344 41.65625 46.078125 40.449219 45.648438 39.417969 L 47.855469 37.257812 C 48.886719 36.25 49.53125 35.128906 49.882812 33.726562 L 52.070312 24.972656 C 52.292969 24.085938 53.71875 24.269531 53.640625 25.21875 Z M 30.027344 50.566406 C 30.921875 49.859375 31.804688 49.136719 32.65625 48.40625 C 32.835938 46.527344 33.710938 44.902344 35.21875 43.683594 L 41.714844 38.421875 C 42.554688 37.742188 43.738281 37.675781 44.644531 38.238281 L 46.777344 36.152344 C 47.605469 35.34375 48.101562 34.480469 48.382812 33.355469 L 50.570312 24.597656 C 50.699219 24.09375 50.984375 23.664062 51.371094 23.355469 C 52.074219 16.886719 48.953125 10.367188 43.863281 7.757812 C 39.542969 5.539062 34.816406 6.511719 30.550781 10.496094 C 30.257812 10.773438 29.796875 10.773438 29.5 10.496094 C 25.234375 6.511719 20.507812 5.539062 16.1875 7.757812 C 11.097656 10.367188 7.976562 16.886719 8.679688 23.355469 C 9.066406 23.664062 9.351562 24.09375 9.480469 24.597656 L 11.667969 33.355469 C 11.949219 34.480469 12.445312 35.34375 13.273438 36.15625 L 15.40625 38.238281 C 16.3125 37.675781 17.496094 37.742188 18.335938 38.421875 L 24.832031 43.683594 C 26.339844 44.902344 27.214844 46.527344 27.394531 48.40625 C 28.246094 49.136719 29.128906 49.859375 30.027344 50.566406 Z M 25.882812 53.84375 L 25.882812 49.125 C 25.882812 47.421875 25.183594 45.953125 23.859375 44.882812 L 17.363281 39.625 C 16.691406 39.078125 15.664062 39.613281 15.757812 40.496094 C 15.785156 40.761719 15.914062 41 16.117188 41.164062 L 21.804688 45.769531 C 22.136719 46.035156 22.1875 46.523438 21.917969 46.851562 C 21.648438 47.1875 21.164062 47.234375 20.835938 46.96875 L 15.148438 42.363281 C 14.273438 41.65625 13.972656 40.449219 14.402344 39.417969 L 12.195312 37.257812 C 11.164062 36.25 10.519531 35.128906 10.171875 33.726562 L 7.980469 24.972656 C 7.757812 24.082031 6.332031 24.269531 6.410156 25.21875 C 6.816406 30.082031 6.714844 37.335938 8.792969 41.046875 C 10.28125 43.707031 12.449219 44.753906 14.535156 47.019531 C 16.980469 49.679688 17.386719 50.996094 17.433594 53.867188 C 17.4375 54.199219 17.714844 54.472656 18.046875 54.472656 L 25.253906 54.472656 C 25.601562 54.472656 25.882812 54.191406 25.882812 53.84375 Z M 54.582031 23.597656 C 54.167969 23.144531 53.582031 22.878906 52.96875 22.859375 C 53.210938 19.578125 52.601562 16.332031 51.179688 13.402344 C 49.667969 10.289062 47.320312 7.792969 44.570312 6.382812 C 39.878906 3.976562 34.609375 4.894531 30.027344 8.894531 C 25.441406 4.894531 20.175781 3.976562 15.484375 6.382812 C 12.730469 7.792969 10.382812 10.289062 8.871094 13.402344 C 7.449219 16.332031 6.839844 19.578125 7.082031 22.859375 C 5.769531 22.902344 4.761719 24.035156 4.871094 25.347656 C 4.949219 26.285156 5.007812 27.359375 5.070312 28.496094 C 5.3125 32.96875 5.617188 38.535156 7.445312 41.800781 C 9.117188 44.789062 11.289062 45.769531 13.398438 48.066406 C 15.648438 50.511719 15.851562 51.492188 15.890625 53.890625 C 15.90625 55.0625 16.875 56.015625 18.050781 56.015625 L 25.257812 56.015625 C 26.453125 56.015625 27.429688 55.042969 27.429688 53.84375 L 27.429688 50.453125 C 28.125 51.027344 28.835938 51.597656 29.554688 52.15625 C 29.832031 52.371094 30.21875 52.371094 30.5 52.15625 C 31.214844 51.597656 31.925781 51.027344 32.621094 50.453125 L 32.621094 53.84375 C 32.621094 55.042969 33.597656 56.015625 34.796875 56.015625 L 42.003906 56.015625 C 43.175781 56.015625 44.144531 55.0625 44.164062 53.890625 C 44.199219 51.492188 44.402344 50.511719 46.652344 48.066406 C 48.765625 45.769531 50.933594 44.789062 52.605469 41.800781 C 54.433594 38.535156 54.738281 32.96875 54.980469 28.496094 C 55.042969 27.359375 55.101562 26.285156 55.179688 25.347656 C 55.234375 24.707031 55.015625 24.066406 54.582031 23.597656 Z M 54.582031 23.597656 " fill-opacity="1" fill-rule="evenodd"/></g></svg>