<svg xmlns="http://www.w3.org/2000/svg" xmlns:xlink="http://www.w3.org/1999/xlink" width="80" zoomAndPan="magnify" viewBox="0 0 60 60" height="80" preserveAspectRatio="xMidYMid meet" version="1.0"><defs><clipPath id="f53e2eab4d"><path d="M 38 4.386719 L 55.386719 4.386719 L 55.386719 22 L 38 22 Z M 38 4.386719 " clip-rule="nonzero"/></clipPath><clipPath id="0a0826ffb3"><path d="M 4.386719 41 L 19 41 L 19 55.386719 L 4.386719 55.386719 Z M 4.386719 41 " clip-rule="nonzero"/></clipPath><clipPath id="1d3910a712"><path d="M 4.386719 4.386719 L 16 4.386719 L 16 21 L 4.386719 21 Z M 4.386719 4.386719 " clip-rule="nonzero"/></clipPath><clipPath id="172065d3a8"><path d="M 42 42 L 55.386719 42 L 55.386719 55.386719 L 42 55.386719 Z M 42 42 " clip-rule="nonzero"/></clipPath></defs><path fill="#fc6a1f" d="M 29.957031 13.257812 C 20.707031 13.257812 13.175781 20.785156 13.175781 30.039062 C 13.175781 39.292969 20.707031 46.820312 29.957031 46.820312 C 39.210938 46.820312 46.738281 39.292969 46.738281 30.039062 C 46.738281 20.785156 39.210938 13.257812 29.957031 13.257812 Z M 29.957031 45.222656 C 21.585938 45.222656 14.777344 38.410156 14.777344 30.039062 C 14.777344 21.667969 21.585938 14.855469 29.957031 14.855469 C 38.332031 14.855469 45.140625 21.667969 45.140625 30.039062 C 45.140625 38.410156 38.332031 45.222656 29.957031 45.222656 Z M 29.957031 45.222656 " fill-opacity="1" fill-rule="nonzero"/><path fill="#fc6a1f" d="M 29.957031 17.253906 C 22.910156 17.253906 17.171875 22.988281 17.171875 30.039062 C 17.171875 37.089844 22.910156 42.824219 29.957031 42.824219 C 37.007812 42.824219 42.746094 37.089844 42.746094 30.039062 C 42.746094 22.988281 37.007812 17.253906 29.957031 17.253906 Z M 29.957031 41.226562 C 23.789062 41.226562 18.769531 36.207031 18.769531 30.039062 C 18.769531 23.871094 23.789062 18.851562 29.957031 18.851562 C 36.128906 18.851562 41.144531 23.871094 41.144531 30.039062 C 41.144531 36.207031 36.128906 41.226562 29.957031 41.226562 Z M 29.957031 41.226562 " fill-opacity="1" fill-rule="nonzero"/><path fill="#fc6a1f" d="M 37.949219 26.84375 L 33.15625 26.84375 L 33.15625 22.046875 C 33.15625 21.605469 32.796875 21.25 32.355469 21.25 L 27.5625 21.25 C 27.121094 21.25 26.761719 21.605469 26.761719 22.046875 L 26.761719 26.84375 L 21.96875 26.84375 C 21.527344 26.84375 21.167969 27.199219 21.167969 27.640625 L 21.167969 32.4375 C 21.167969 32.878906 21.527344 33.234375 21.96875 33.234375 L 26.761719 33.234375 L 26.761719 38.03125 C 26.761719 38.472656 27.121094 38.828125 27.5625 38.828125 L 32.355469 38.828125 C 32.796875 38.828125 33.15625 38.472656 33.15625 38.03125 L 33.15625 33.234375 L 37.949219 33.234375 C 38.390625 33.234375 38.75 32.878906 38.75 32.4375 L 38.75 27.640625 C 38.75 27.199219 38.390625 26.84375 37.949219 26.84375 Z M 37.152344 31.636719 L 32.355469 31.636719 C 31.914062 31.636719 31.558594 31.996094 31.558594 32.4375 L 31.558594 37.230469 L 28.359375 37.230469 L 28.359375 32.4375 C 28.359375 31.996094 28.003906 31.636719 27.5625 31.636719 L 22.765625 31.636719 L 22.765625 28.441406 L 27.5625 28.441406 C 28.003906 28.441406 28.359375 28.082031 28.359375 27.640625 L 28.359375 22.847656 L 31.558594 22.847656 L 31.558594 27.640625 C 31.558594 28.082031 31.914062 28.441406 32.355469 28.441406 L 37.152344 28.441406 Z M 37.152344 31.636719 " fill-opacity="1" fill-rule="nonzero"/><g clip-path="url(#f53e2eab4d)"><path fill="#fc6a1f" d="M 39.476562 9.457031 C 39.679688 9.457031 39.882812 9.378906 40.039062 9.222656 L 41.167969 8.089844 L 43.429688 10.351562 L 41.167969 12.613281 C 40.859375 12.925781 40.859375 13.429688 41.167969 13.742188 C 41.324219 13.898438 41.53125 13.976562 41.734375 13.976562 C 41.9375 13.976562 42.144531 13.898438 42.300781 13.742188 L 42.863281 13.175781 L 49.082031 19.394531 C 49.238281 19.550781 49.441406 19.628906 49.644531 19.628906 C 49.851562 19.628906 50.054688 19.550781 50.210938 19.394531 L 51.339844 18.261719 L 54.164062 21.089844 C 54.320312 21.242188 54.527344 21.320312 54.730469 21.320312 C 54.933594 21.320312 55.140625 21.242188 55.296875 21.089844 C 55.609375 20.777344 55.609375 20.269531 55.296875 19.957031 L 52.46875 17.132812 L 53.601562 16.003906 C 53.914062 15.691406 53.914062 15.183594 53.601562 14.871094 L 47.386719 8.65625 L 47.949219 8.089844 C 48.261719 7.78125 48.261719 7.273438 47.949219 6.960938 C 47.636719 6.648438 47.132812 6.648438 46.820312 6.960938 L 44.558594 9.222656 L 42.300781 6.960938 L 43.429688 5.832031 C 43.742188 5.519531 43.742188 5.015625 43.429688 4.703125 C 43.117188 4.390625 42.613281 4.390625 42.300781 4.703125 L 38.910156 8.09375 C 38.597656 8.402344 38.597656 8.910156 38.910156 9.222656 C 39.066406 9.378906 39.269531 9.457031 39.472656 9.457031 Z M 47.386719 10.917969 L 46.253906 12.046875 L 47.386719 13.175781 L 48.515625 12.046875 L 49.644531 13.175781 L 48.515625 14.308594 L 49.644531 15.4375 L 50.777344 14.308594 L 51.90625 15.4375 L 49.644531 17.699219 L 43.996094 12.046875 L 46.253906 9.785156 Z M 47.386719 10.917969 " fill-opacity="1" fill-rule="nonzero"/></g><g clip-path="url(#0a0826ffb3)"><path fill="#fc6a1f" d="M 12.570312 42.90625 C 10.703125 41.035156 7.660156 41.035156 5.792969 42.90625 C 4.886719 43.808594 4.386719 45.015625 4.386719 46.292969 C 4.386719 47.574219 4.886719 48.78125 5.792969 49.6875 L 10.3125 54.207031 C 11.21875 55.113281 12.421875 55.609375 13.703125 55.609375 C 14.984375 55.609375 16.1875 55.113281 17.09375 54.207031 C 18.960938 52.335938 18.960938 49.292969 17.09375 47.425781 Z M 5.984375 46.292969 C 5.984375 45.441406 6.316406 44.640625 6.921875 44.035156 C 7.542969 43.414062 8.363281 43.101562 9.183594 43.101562 C 10 43.101562 10.820312 43.414062 11.441406 44.035156 L 13.136719 45.730469 L 8.617188 50.25 L 6.921875 48.554688 C 6.316406 47.953125 5.984375 47.148438 5.984375 46.292969 Z M 15.960938 53.074219 C 14.753906 54.285156 12.648438 54.285156 11.441406 53.074219 L 9.746094 51.378906 L 14.265625 46.859375 L 15.960938 48.554688 C 17.210938 49.800781 17.210938 51.828125 15.960938 53.074219 Z M 15.960938 53.074219 " fill-opacity="1" fill-rule="nonzero"/></g><g clip-path="url(#1d3910a712)"><path fill="#fc6a1f" d="M 6.785156 20.449219 L 13.175781 20.449219 C 14.5 20.449219 15.574219 19.375 15.574219 18.050781 L 15.574219 10.0625 C 15.574219 8.738281 14.5 7.664062 13.175781 7.664062 L 13.175781 5.265625 C 13.175781 4.824219 12.820312 4.46875 12.378906 4.46875 L 7.582031 4.46875 C 7.140625 4.46875 6.785156 4.824219 6.785156 5.265625 L 6.785156 7.664062 C 5.464844 7.664062 4.386719 8.738281 4.386719 10.0625 L 4.386719 18.050781 C 4.386719 19.375 5.464844 20.449219 6.785156 20.449219 Z M 8.382812 6.066406 L 11.578125 6.066406 L 11.578125 7.664062 L 8.382812 7.664062 Z M 5.984375 10.0625 C 5.984375 9.621094 6.34375 9.261719 6.785156 9.261719 L 13.175781 9.261719 C 13.617188 9.261719 13.976562 9.621094 13.976562 10.0625 L 13.976562 18.050781 C 13.976562 18.492188 13.617188 18.851562 13.175781 18.851562 L 6.785156 18.851562 C 6.34375 18.851562 5.984375 18.492188 5.984375 18.050781 Z M 5.984375 10.0625 " fill-opacity="1" fill-rule="nonzero"/></g><path fill="#fc6a1f" d="M 9.183594 16.453125 L 10.78125 16.453125 L 10.78125 14.855469 L 12.378906 14.855469 L 12.378906 13.257812 L 10.78125 13.257812 L 10.78125 11.660156 L 9.183594 11.660156 L 9.183594 13.257812 L 7.582031 13.257812 L 7.582031 14.855469 L 9.183594 14.855469 Z M 9.183594 16.453125 " fill-opacity="1" fill-rule="nonzero"/><g clip-path="url(#172065d3a8)"><path fill="#fc6a1f" d="M 49.136719 42.824219 C 45.613281 42.824219 42.746094 45.691406 42.746094 49.21875 C 42.746094 52.742188 45.613281 55.609375 49.136719 55.609375 C 52.664062 55.609375 55.53125 52.742188 55.53125 49.21875 C 55.53125 45.691406 52.664062 42.824219 49.136719 42.824219 Z M 44.34375 49.21875 C 44.34375 46.847656 46.074219 44.878906 48.339844 44.496094 L 48.339844 53.941406 C 46.074219 53.558594 44.34375 51.589844 44.34375 49.21875 Z M 49.9375 53.941406 L 49.9375 44.496094 C 52.199219 44.878906 53.933594 46.847656 53.933594 49.21875 C 53.933594 51.589844 52.199219 53.558594 49.9375 53.941406 Z M 49.9375 53.941406 " fill-opacity="1" fill-rule="nonzero"/></g><path fill="#fc6a1f" d="M 29.957031 7.664062 C 30.449219 7.664062 30.933594 7.679688 31.414062 7.710938 L 31.519531 6.117188 C 31.003906 6.082031 30.480469 6.078125 29.925781 6.066406 C 29.355469 6.089844 28.789062 6.125 28.234375 6.175781 L 28.382812 7.769531 C 28.910156 7.71875 29.445312 7.683594 29.957031 7.664062 Z M 29.957031 7.664062 " fill-opacity="1" fill-rule="nonzero"/><path fill="#fc6a1f" d="M 51.953125 39.589844 C 52.386719 38.59375 52.753906 37.554688 53.050781 36.503906 L 51.511719 36.074219 C 51.234375 37.054688 50.890625 38.023438 50.488281 38.949219 Z M 51.953125 39.589844 " fill-opacity="1" fill-rule="nonzero"/><path fill="#fc6a1f" d="M 25.34375 8.21875 L 25.019531 6.652344 C 23.9375 6.875 22.878906 7.160156 21.875 7.503906 L 22.386719 9.015625 C 23.332031 8.695312 24.324219 8.429688 25.34375 8.21875 Z M 25.34375 8.21875 " fill-opacity="1" fill-rule="nonzero"/><path fill="#fc6a1f" d="M 53.699219 26.683594 C 53.546875 25.605469 53.320312 24.527344 53.023438 23.480469 L 51.484375 23.917969 C 51.761719 24.894531 51.976562 25.898438 52.117188 26.902344 L 53.699219 26.679688 Z M 53.699219 26.683594 " fill-opacity="1" fill-rule="nonzero"/><path fill="#fc6a1f" d="M 53.933594 30.039062 L 53.933594 29.945312 L 52.332031 29.945312 L 52.332031 30.039062 C 52.332031 31.058594 52.265625 32.082031 52.128906 33.085938 L 53.710938 33.300781 C 53.859375 32.226562 53.933594 31.128906 53.933594 30.039062 Z M 53.933594 30.039062 " fill-opacity="1" fill-rule="nonzero"/><path fill="#fc6a1f" d="M 37.914062 7.417969 C 36.886719 7.054688 35.828125 6.761719 34.757812 6.546875 L 34.441406 8.113281 C 35.4375 8.316406 36.425781 8.585938 37.386719 8.925781 Z M 37.914062 7.417969 " fill-opacity="1" fill-rule="nonzero"/><path fill="#fc6a1f" d="M 8.476562 24.019531 L 6.929688 23.617188 C 6.65625 24.667969 6.449219 25.746094 6.3125 26.824219 L 7.898438 27.027344 C 8.023438 26.015625 8.21875 25.003906 8.476562 24.019531 Z M 8.476562 24.019531 " fill-opacity="1" fill-rule="nonzero"/><path fill="#fc6a1f" d="M 25.117188 53.445312 C 26.15625 53.65625 27.238281 53.8125 28.332031 53.910156 L 28.472656 52.316406 C 27.4375 52.226562 26.414062 52.078125 25.433594 51.878906 Z M 25.117188 53.445312 " fill-opacity="1" fill-rule="nonzero"/><path fill="#fc6a1f" d="M 31.507812 52.363281 L 31.617188 53.957031 C 32.703125 53.882812 33.792969 53.734375 34.855469 53.511719 L 34.53125 51.945312 C 33.539062 52.152344 32.519531 52.292969 31.507812 52.363281 Z M 31.507812 52.363281 " fill-opacity="1" fill-rule="nonzero"/><path fill="#fc6a1f" d="M 37.46875 51.121094 L 38.007812 52.628906 C 39.027344 52.265625 40.035156 51.824219 41.003906 51.320312 L 40.265625 49.902344 C 39.363281 50.371094 38.421875 50.78125 37.46875 51.121094 Z M 37.46875 51.121094 " fill-opacity="1" fill-rule="nonzero"/><path fill="#fc6a1f" d="M 19.570312 10.1875 L 18.855469 8.753906 C 17.875 9.246094 16.925781 9.804688 16.035156 10.417969 L 16.945312 11.734375 C 17.769531 11.164062 18.652344 10.640625 19.570312 10.1875 Z M 19.570312 10.1875 " fill-opacity="1" fill-rule="nonzero"/><path fill="#fc6a1f" d="M 18.945312 51.363281 C 19.910156 51.839844 20.925781 52.257812 21.96875 52.605469 L 22.476562 51.089844 C 21.5 50.761719 20.550781 50.371094 19.648438 49.929688 Z M 18.945312 51.363281 " fill-opacity="1" fill-rule="nonzero"/><path fill="#fc6a1f" d="M 6.324219 33.339844 L 7.90625 33.132812 C 7.777344 32.128906 7.710938 31.101562 7.707031 30.078125 L 6.109375 30.082031 C 6.109375 31.171875 6.183594 32.265625 6.324219 33.339844 Z M 6.324219 33.339844 " fill-opacity="1" fill-rule="nonzero"/><path fill="#fc6a1f" d="M 9.476562 39.03125 C 9.089844 38.097656 8.761719 37.125 8.5 36.132812 L 6.953125 36.542969 C 7.234375 37.601562 7.585938 38.644531 8 39.640625 Z M 9.476562 39.03125 " fill-opacity="1" fill-rule="nonzero"/></svg>