<svg xmlns="http://www.w3.org/2000/svg" xmlns:xlink="http://www.w3.org/1999/xlink" width="80" zoomAndPan="magnify" viewBox="0 0 60 60" height="80" preserveAspectRatio="xMidYMid meet" version="1.0"><defs><clipPath id="bcd39bdd08"><path d="M 10 1.707031 L 48 1.707031 L 48 46 L 10 46 Z M 10 1.707031 " clip-rule="nonzero"/></clipPath><clipPath id="00e5429c3b"><path d="M 19 18 L 51.320312 18 L 51.320312 57.957031 L 19 57.957031 Z M 19 18 " clip-rule="nonzero"/></clipPath></defs><g clip-path="url(#bcd39bdd08)"><path fill="#fc6a1f" d="M 32.109375 43.328125 L 32.109375 45.351562 C 39.589844 41.042969 44.472656 35.496094 46.628906 28.722656 C 50.28125 17.371094 44.957031 6.941406 44.738281 6.5 C 44.5625 6.148438 44.164062 5.972656 43.8125 6.0625 C 33.386719 7.996094 30.347656 2.542969 30.21875 2.320312 C 30.039062 2.015625 29.777344 1.839844 29.425781 1.839844 C 29.074219 1.839844 28.808594 2.015625 28.632812 2.320312 C 28.589844 2.367188 25.597656 8.042969 15.035156 6.0625 C 14.640625 5.972656 14.289062 6.195312 14.113281 6.5 C 13.894531 6.941406 8.570312 17.371094 12.222656 28.722656 C 14.421875 35.496094 19.304688 41.085938 26.871094 45.398438 L 26.871094 43.375 C 20.183594 39.414062 15.828125 34.308594 13.894531 28.238281 C 10.945312 19.042969 14.378906 10.199219 15.390625 7.910156 C 23.882812 9.273438 27.886719 6.0625 29.425781 4.214844 C 30.964844 6.019531 34.96875 9.273438 43.460938 7.867188 C 44.472656 10.199219 47.90625 19.042969 44.957031 28.238281 C 43.019531 34.265625 38.707031 39.324219 32.109375 43.328125 Z M 32.109375 43.328125 " fill-opacity="1" fill-rule="nonzero"/></g><path fill="#fc6a1f" d="M 39.28125 13.144531 C 39.675781 14.070312 40.425781 15.960938 40.777344 18.425781 C 41.65625 19.21875 42.183594 20.363281 42.183594 21.59375 L 42.183594 25.992188 C 44.121094 18.601562 40.734375 12.046875 40.558594 11.78125 C 40.378906 11.429688 39.984375 11.253906 39.632812 11.339844 C 32.726562 12.617188 30.699219 9.097656 30.65625 8.964844 C 30.523438 8.65625 30.21875 8.480469 29.863281 8.480469 C 29.511719 8.480469 29.25 8.65625 29.074219 8.964844 C 29.074219 9.011719 27.09375 12.617188 20.097656 11.339844 C 19.699219 11.253906 19.347656 11.472656 19.171875 11.78125 C 19.042969 12.089844 15.609375 18.601562 17.546875 25.992188 L 17.546875 21.59375 C 17.546875 20.363281 18.074219 19.21875 18.953125 18.425781 C 19.304688 16.003906 20.054688 14.070312 20.449219 13.144531 C 25.859375 13.9375 28.632812 12.046875 29.863281 10.769531 C 31.097656 12.046875 33.867188 13.9375 39.28125 13.144531 Z M 39.28125 13.144531 " fill-opacity="1" fill-rule="nonzero"/><g clip-path="url(#00e5429c3b)"><path fill="#fc6a1f" d="M 51.425781 44.957031 C 51.425781 42.757812 49.664062 40.996094 47.464844 40.996094 C 45.617188 40.996094 44.03125 42.316406 43.636719 44.035156 C 42.097656 43.855469 40.335938 44.210938 39.015625 45.046875 C 37.609375 45.882812 36.730469 47.507812 36.730469 49.179688 L 36.730469 53.183594 C 36.730469 54.945312 35.234375 56.398438 33.429688 56.398438 C 32.550781 56.398438 31.757812 56.089844 31.183594 55.472656 C 30.613281 54.902344 30.304688 54.066406 30.304688 53.230469 L 30.304688 37.476562 C 36.023438 37.257812 40.425781 32.859375 40.425781 27.226562 L 40.425781 21.59375 C 40.425781 20.140625 39.148438 18.910156 37.609375 18.910156 L 34.222656 18.910156 C 34.175781 18.910156 34.175781 18.910156 34.132812 18.910156 C 33.957031 18.425781 33.691406 18.117188 33.386719 18.117188 C 32.902344 18.117188 32.503906 18.867188 32.503906 19.789062 C 32.503906 20.714844 32.902344 21.460938 33.386719 21.460938 C 33.691406 21.460938 33.957031 21.152344 34.132812 20.667969 C 34.175781 20.667969 34.175781 20.667969 34.222656 20.667969 L 37.609375 20.667969 C 38.179688 20.667969 38.664062 21.066406 38.664062 21.59375 L 38.664062 27.226562 C 38.664062 31.976562 34.792969 35.71875 29.863281 35.71875 C 24.9375 35.71875 21.066406 31.976562 21.066406 27.226562 L 21.066406 21.59375 C 21.066406 21.109375 21.550781 20.667969 22.121094 20.667969 L 25.332031 20.667969 C 25.378906 20.667969 25.421875 20.667969 25.464844 20.667969 C 25.640625 21.152344 25.90625 21.460938 26.214844 21.460938 C 26.695312 21.460938 27.09375 20.714844 27.09375 19.789062 C 27.09375 18.867188 26.695312 18.117188 26.214844 18.117188 C 25.90625 18.117188 25.597656 18.425781 25.464844 18.910156 C 25.421875 18.910156 25.378906 18.910156 25.332031 18.910156 L 22.121094 18.910156 C 20.582031 18.910156 19.304688 20.097656 19.304688 21.59375 L 19.304688 27.226562 C 19.304688 32.550781 23.265625 36.773438 28.546875 37.390625 L 28.546875 53.183594 C 28.5 54.503906 28.984375 55.78125 29.910156 56.707031 C 30.832031 57.628906 32.066406 58.15625 33.386719 58.15625 C 36.15625 58.15625 38.445312 55.914062 38.445312 53.183594 L 38.445312 49.179688 C 38.445312 48.082031 39.015625 47.070312 39.898438 46.542969 C 40.953125 45.925781 42.40625 45.617188 43.59375 45.792969 C 43.988281 47.554688 45.574219 48.917969 47.464844 48.917969 C 49.664062 48.917969 51.425781 47.15625 51.425781 44.957031 Z M 47.464844 47.15625 C 46.234375 47.15625 45.265625 46.1875 45.265625 44.957031 C 45.265625 43.726562 46.234375 42.757812 47.464844 42.757812 C 48.695312 42.757812 49.664062 43.726562 49.664062 44.957031 C 49.664062 46.1875 48.695312 47.15625 47.464844 47.15625 Z M 47.464844 47.15625 " fill-opacity="1" fill-rule="nonzero"/></g><path fill="#fc6a1f" d="M 30.746094 22.078125 L 28.984375 22.078125 C 28.238281 22.078125 27.664062 22.648438 27.664062 23.398438 L 27.664062 25.597656 L 25.464844 25.597656 C 24.71875 25.597656 24.144531 26.167969 24.144531 26.917969 L 24.144531 28.675781 C 24.144531 29.425781 24.71875 29.996094 25.464844 29.996094 L 27.664062 29.996094 L 27.664062 32.199219 C 27.664062 32.945312 28.238281 33.515625 28.984375 33.515625 L 30.746094 33.515625 C 31.492188 33.515625 32.066406 32.945312 32.066406 32.199219 L 32.066406 29.996094 L 34.265625 29.996094 C 35.011719 29.996094 35.585938 29.425781 35.585938 28.675781 L 35.585938 26.917969 C 35.585938 26.167969 35.011719 25.597656 34.265625 25.597656 L 32.066406 25.597656 L 32.066406 23.398438 C 32.066406 22.648438 31.492188 22.078125 30.746094 22.078125 Z M 33.824219 27.359375 L 33.824219 28.238281 L 31.183594 28.238281 C 30.699219 28.238281 30.304688 28.632812 30.304688 29.117188 L 30.304688 31.757812 L 29.425781 31.757812 L 29.425781 29.117188 C 29.425781 28.632812 29.027344 28.238281 28.546875 28.238281 L 25.90625 28.238281 L 25.90625 27.359375 L 28.546875 27.359375 C 29.027344 27.359375 29.425781 26.960938 29.425781 26.476562 L 29.425781 23.835938 L 30.304688 23.835938 L 30.304688 26.476562 C 30.304688 26.960938 30.699219 27.359375 31.183594 27.359375 Z M 33.824219 27.359375 " fill-opacity="1" fill-rule="nonzero"/></svg>